<svg width="1440" height="434" viewBox="0 0 1440 434" fill="none" xmlns="http://www.w3.org/2000/svg">
<g opacity="0.3">
<path d="M486.505 433.345C479.401 433.345 472.487 432.992 465.843 432.286C451.908 430.804 439.033 427.763 427.577 423.245C415.263 418.391 404.463 411.776 395.474 403.586C377.409 387.123 368.371 367.408 359.629 348.341C357.912 344.597 356.136 340.726 354.334 336.97C342.034 311.369 326.441 288.944 306.669 268.413C267.227 227.458 211.758 192.505 146.257 167.335C70.5048 138.227 -10.9409 123.727 -83.0791 126.507C-125.478 128.142 -181.499 143.688 -206.537 170.237C-221.395 185.994 -222.593 203.479 -209.999 220.801L-210.249 220.874C-216.853 211.79 -219.73 202.683 -218.798 193.806C-217.944 185.662 -213.898 177.702 -206.773 170.146C-195.44 158.128 -176.751 147.477 -152.725 139.342C-130.524 131.827 -105.797 127.206 -83.0956 126.331C-45.3434 124.877 -5.19209 128.104 36.2425 135.923C73.8024 143.011 110.865 153.529 146.4 167.183C211.94 192.368 267.441 227.339 306.906 268.319C326.689 288.863 342.289 311.301 354.598 336.916C356.403 340.672 358.178 344.545 359.893 348.289C368.626 367.342 377.659 387.043 395.7 403.481C413.147 419.381 436.763 429.012 465.889 432.108C506.225 436.396 555.206 427.428 596.909 408.117C657.009 380.29 698.718 339.787 739.056 300.618C746.127 293.752 753.436 286.653 760.675 279.798C779.466 261.997 804.915 238.93 835.16 218.38C866.075 197.375 897.49 181.943 931.203 171.199C951.838 164.623 973.706 160.192 996.202 158.031C1016.98 156.033 1038.97 155.91 1061.57 157.659C1100.33 160.663 1142.09 169.146 1189.23 183.592C1282.06 212.039 1374.79 246.568 1464.84 286.221C1550.44 323.91 1634.38 366.557 1714.35 412.975L1714.16 413.104C1548.4 316.882 1371.75 239.716 1189.11 183.749C1085.93 152.129 1004.02 148.19 931.327 171.354C857.375 194.919 805.715 237.447 760.903 279.894C753.667 286.747 746.358 293.847 739.287 300.712C698.938 339.895 657.215 380.411 597.074 408.257C577.64 417.256 555.777 424.275 533.851 428.554C522.268 430.815 510.754 432.293 499.624 432.948C495.189 433.215 490.811 433.345 486.505 433.345Z" fill="#FFE492"/>
<path d="M493.451 423.583C475.336 423.583 458.556 421.395 443.56 417.078C426.839 412.264 412.409 404.804 400.669 394.907C399.63 394.03 398.6 393.124 397.605 392.211C379.732 375.819 370.293 356.361 361.167 337.541C359.32 333.738 357.413 329.804 355.478 325.987C343.956 303.259 330.081 283.226 313.057 264.749C310.96 262.474 308.789 260.194 306.599 257.974C266.577 217.371 210.658 182.861 144.887 158.175C68.5879 129.564 -13.0887 115.663 -85.0977 119.036C-127.189 121.028 -182.952 136.829 -208.096 163.174C-223.153 178.95 -224.856 196.47 -213.029 213.843L-213.282 213.913C-219.481 204.807 -222.029 195.683 -220.85 186.795C-219.767 178.633 -215.557 170.655 -208.333 163.083C-196.884 151.086 -178.25 140.423 -154.449 132.246C-132.452 124.689 -107.832 119.936 -85.1224 118.862C-47.4169 117.096 -7.22165 120.014 34.3448 127.533C71.9954 134.345 109.234 144.604 145.024 158.025C210.833 182.725 266.783 217.256 306.83 257.881C309.02 260.104 311.194 262.385 313.291 264.662C330.326 283.151 344.208 303.194 355.736 325.935C357.674 329.752 359.581 333.686 361.428 337.491C370.551 356.298 379.982 375.743 397.831 392.111C398.823 393.021 399.853 393.927 400.889 394.802C425.149 415.26 458.482 423.583 493.536 423.583C493.728 423.583 493.918 423.583 494.11 423.583C493.89 423.581 493.67 423.583 493.451 423.583ZM500.928 423.461C533.517 422.399 567.144 414.456 595.993 402.641C658.222 377.048 702.946 337.521 746.199 299.295C747.98 297.719 749.761 296.147 751.542 294.575C755.452 291.124 760.088 287.038 764.82 282.92C786.048 264.449 811.74 242.958 841.328 223.614C872.809 203.031 904.26 187.757 937.475 176.918C957.885 170.265 979.454 165.578 1001.58 162.988C1022.09 160.587 1043.75 159.909 1065.98 160.971C1104.37 162.806 1145.65 169.764 1192.18 182.244C1237.54 194.393 1274.84 205.829 1309.53 218.233C1358.69 235.824 1405.51 256.091 1444.84 273.596C1536.25 314.41 1625.95 360.755 1711.43 411.343L1711.25 411.471C1625.77 360.889 1536.08 314.548 1444.68 273.739C1405.36 256.236 1358.55 235.972 1309.4 218.387C1274.71 205.985 1237.43 194.553 1192.08 182.408C1090.72 155.221 1009.85 153.525 937.602 177.074C862.614 201.543 809.211 244.593 765.043 283.024C760.308 287.143 755.675 291.227 751.764 294.68C749.983 296.25 748.203 297.824 746.422 299.4C703.154 337.637 658.414 377.179 596.141 402.79C580.7 409.114 564.27 414.137 547.303 417.719C531.511 421.05 515.943 422.976 500.928 423.461Z" fill="#FFE492"/>
<path d="M501.109 414.044C498.93 414.044 496.764 414.014 494.615 413.953C476.517 413.446 459.768 410.812 444.835 406.122C428.504 400.992 414.354 393.394 402.782 383.538C401.754 382.659 400.729 381.751 399.74 380.838C382.068 364.527 372.235 345.328 362.73 326.763C360.749 322.894 358.699 318.892 356.621 315.008C344.53 292.356 330.29 272.484 313.081 254.256C310.952 252.003 308.748 249.742 306.525 247.539C265.923 207.29 209.553 173.223 143.512 149.021C66.6696 120.907 -15.2378 107.604 -87.1205 111.569C-127.593 113.837 -183.194 128.736 -209.63 156.087C-224.903 171.889 -227.126 189.457 -216.06 206.89L-216.316 206.955C-222.114 197.822 -224.326 188.676 -222.897 179.773C-221.584 171.584 -217.198 163.586 -209.863 155.997C-198.294 144.028 -179.72 133.36 -156.148 125.146C-134.356 117.551 -109.849 112.669 -87.1452 111.397C-49.4836 109.321 -9.24442 111.929 32.4512 119.148C70.1953 125.684 107.607 135.684 143.65 148.871C209.729 173.088 266.129 207.174 306.756 247.446C308.979 249.651 311.185 251.912 313.315 254.169C330.531 272.408 344.78 292.292 356.877 314.956C358.954 318.841 361.004 322.843 362.985 326.713C372.488 345.267 382.312 364.452 399.963 380.744C400.952 381.657 401.972 382.563 402.999 383.438C450.021 423.489 533.352 419.189 595.075 397.163C659.9 373.826 708.076 335.039 754.666 297.53L755.144 297.144C759.656 293.508 764.322 289.751 768.966 286.04C817.972 246.892 871.836 206.66 943.751 182.633C963.941 175.902 985.213 170.959 1006.97 167.941C1027.21 165.135 1048.55 163.903 1070.39 164.279C1108.48 164.935 1149.28 170.369 1195.13 180.894C1243.32 191.915 1279.59 202.045 1312.72 213.742C1359.92 230.442 1405.64 251.544 1445.98 270.163C1535.8 311.84 1624.13 358.789 1708.52 409.703L1708.33 409.829C1623.95 358.92 1535.63 311.976 1445.82 270.302C1405.49 251.687 1359.77 230.588 1312.58 213.894C1279.47 202.2 1243.21 192.073 1195.04 181.056C1095.65 158.243 1015.84 158.792 943.878 182.785C872.009 206.796 818.167 247.011 769.181 286.144C764.537 289.855 759.87 293.615 755.358 297.249L754.88 297.634C731.662 316.326 707.655 335.654 681.731 352.918C652.596 372.32 624.294 386.841 595.207 397.311C564.775 408.17 531.626 414.044 501.109 414.044Z" fill="#FFE492"/>
<path d="M1705.42 408.185C1622.13 356.948 1535.18 309.401 1446.97 266.865C1443.23 265.076 1439.49 263.279 1435.73 261.477C1397.53 243.137 1358.02 224.173 1315.77 209.4C1274.78 195.107 1233.24 186.368 1198.01 179.704C1100.77 161.197 1022.01 163.991 950.162 188.494C876.403 213.722 819.249 255.608 773.327 289.265C770.571 291.286 767.82 293.309 765.064 295.335C763.03 296.83 760.994 298.326 758.958 299.819C732.811 319.003 709.026 336.154 682.747 351.804C652.725 369.682 623.788 382.775 594.278 391.834C566.621 400.324 537.078 404.816 509.597 404.817C504.59 404.817 499.658 404.669 494.81 404.368C477.113 403.268 460.729 400.177 446.115 395.182C430.169 389.732 416.299 381.989 404.887 372.169C403.867 371.289 402.851 370.379 401.867 369.464C384.403 353.239 374.189 334.31 364.312 316.005C362.185 312.062 359.984 307.984 357.758 304.025C345.09 281.445 330.482 261.731 313.103 243.758C310.94 241.521 308.701 239.282 306.447 237.098C265.263 197.202 208.445 163.578 142.138 139.859C64.7512 112.242 -17.3843 99.5405 -89.1405 104.093C-138.195 107.267 -188.358 125.719 -211.128 148.961C-226.64 164.796 -229.391 182.42 -219.089 199.927L-219.347 199.988C-224.741 190.821 -226.621 181.648 -224.934 172.722C-223.381 164.504 -218.814 156.479 -211.361 148.869C-199.671 136.935 -181.158 126.268 -157.822 118.023C-136.239 110.398 -111.858 105.388 -89.168 103.921C-51.5504 101.533 -11.27 103.832 30.5548 110.751C68.3895 117.012 105.98 126.754 142.275 139.706C208.624 163.439 265.472 197.082 306.681 237.002C308.937 239.187 311.177 241.429 313.34 243.665C330.729 261.649 345.343 281.373 358.019 303.964C360.245 307.924 362.447 312.001 364.574 315.946C374.444 334.24 384.653 353.157 402.095 369.363C403.079 370.276 404.093 371.185 405.109 372.063C454.197 414.303 537.63 409.027 594.159 391.675C661.604 370.972 713.214 333.111 758.752 299.704C760.788 298.209 762.822 296.713 764.858 295.22C767.611 293.194 770.365 291.171 773.121 289.15C799.335 269.939 825.221 251.27 853.679 234.067C886.405 214.282 917.925 199.325 950.036 188.341C970.014 181.527 990.984 176.328 1012.37 172.889C1032.35 169.673 1053.36 167.889 1074.82 167.582C1112.66 167.041 1152.98 170.953 1198.1 179.537C1233.34 186.204 1274.9 194.947 1315.9 209.248C1358.17 224.027 1397.69 242.996 1435.9 261.339C1439.66 263.141 1443.4 264.939 1447.14 266.727C1535.36 309.266 1622.32 356.819 1705.61 408.061L1705.42 408.185Z" fill="#FFE492"/>
<path d="M1702.51 406.543C1618.75 353.999 1533.16 305.847 1448.12 263.427C1443.03 260.89 1437.82 258.273 1432.79 255.744C1396.73 237.631 1359.45 218.901 1318.95 204.906C1278.52 190.982 1236.63 183.668 1200.98 178.352C1106.11 164.064 1028.4 169.102 956.444 194.204C887.81 218.235 834.039 254.371 782.039 289.316L776.328 293.152C771.819 296.184 767.155 299.316 762.558 302.389C710.505 337.133 658.397 369.698 593.349 386.354C577.564 390.396 561.356 393.197 545.171 394.684C527.789 396.279 510.906 396.301 494.986 394.75C477.696 393.064 461.683 389.524 447.393 384.227C431.842 378.463 418.251 370.58 407 360.798C405.986 359.913 404.978 359.001 404.002 358.088C386.753 341.958 376.17 323.308 365.937 305.271C363.653 301.247 361.29 297.085 358.905 293.043C345.648 270.532 330.677 250.977 313.134 233.261C310.941 231.048 308.668 228.825 306.379 226.659C264.615 187.117 207.349 153.936 140.77 130.7C62.8359 103.583 -19.5304 91.4792 -91.163 96.6228C-139.77 100.187 -189.704 118.767 -212.59 141.808C-228.36 157.683 -231.655 175.375 -222.12 192.97L-222.381 193.028C-227.371 183.821 -228.913 174.613 -226.964 165.661C-225.167 157.408 -220.41 149.352 -212.826 141.718C-201.009 129.823 -182.562 119.167 -159.473 110.898C-138.105 103.244 -113.856 98.1147 -91.1959 96.4519C-53.6223 93.7538 -13.3006 95.7425 28.6561 102.362C66.5842 108.348 104.347 117.83 140.899 130.548C207.516 153.796 264.815 186.999 306.604 226.563C308.893 228.731 311.169 230.955 313.362 233.169C330.916 250.894 345.895 270.459 359.157 292.982C361.543 297.024 363.906 301.188 366.19 305.212C376.418 323.238 386.995 341.88 404.225 357.99C405.198 358.9 406.206 359.81 407.217 360.695C455.124 402.348 534.723 401.178 593.242 386.194C658.238 369.551 710.324 336.999 762.355 302.27C766.952 299.197 771.615 296.065 776.125 293.034L781.835 289.198C807.362 272.045 833.754 254.306 862.418 237.805C894.883 219.117 925.595 204.805 956.307 194.051C976.082 187.152 996.755 181.697 1017.75 177.838C1037.49 174.209 1058.17 171.87 1079.23 170.885C1116.9 169.123 1156.75 171.511 1201.05 178.181C1236.71 183.501 1278.62 190.816 1319.08 204.753C1359.6 218.753 1396.89 237.488 1432.96 255.607C1437.99 258.136 1443.2 260.75 1448.28 263.29C1533.34 305.712 1618.93 353.868 1702.7 406.418L1702.51 406.543Z" fill="#FFE492"/>
<path d="M1699.59 404.902C1616.56 351.774 1532.33 303.019 1449.26 259.993C1443.02 256.76 1436.62 253.398 1430.43 250.147C1396.32 232.229 1361.05 213.701 1322.14 200.418C1281.89 186.732 1239.81 180.901 1203.96 177.004C1111.71 166.823 1035.05 174.105 962.724 199.919C899.602 222.542 847.777 254.602 797.656 285.607C792.382 288.869 786.927 292.242 781.613 295.51C775.372 299.348 770.604 302.264 766.155 304.963C742.327 319.405 713.957 336.035 684.185 349.867C652.635 364.524 622.618 374.668 592.417 380.88C576.536 384.147 560.397 386.207 544.445 387.002C527.317 387.856 510.732 387.228 495.157 385.135C478.281 382.868 462.642 378.878 448.668 373.278C433.516 367.205 420.207 359.18 409.111 349.43C408.111 348.546 407.107 347.633 406.135 346.716C389.113 330.694 378.176 312.332 367.596 294.574C365.143 290.456 362.606 286.197 360.048 282.061C346.195 259.613 330.858 240.219 313.158 222.766C310.932 220.572 308.627 218.371 306.305 216.221C263.961 177.034 206.244 144.295 139.396 121.542C60.9205 94.9229 -21.6766 83.4209 -93.1828 89.1519C-133.87 92.4845 -187.011 107.837 -214.013 134.62C-230.067 150.544 -233.92 168.315 -225.151 186.012L-225.412 186.064C-229.998 176.811 -231.196 167.562 -228.976 158.575C-226.926 150.28 -221.971 142.189 -214.244 134.526C-202.301 122.68 -183.922 112.041 -161.089 103.755C-139.935 96.0785 -115.832 90.8321 -93.2157 88.9793C-55.6861 85.9709 -15.3204 87.6494 26.7627 93.9695C64.7815 99.6796 102.721 108.903 139.525 121.389C206.412 144.154 264.161 176.912 306.53 216.122C308.852 218.271 311.16 220.476 313.386 222.672C331.095 240.134 346.439 259.538 360.3 281.997C362.862 286.135 365.398 290.393 367.852 294.512C378.424 312.26 389.358 330.613 406.36 346.617C407.333 347.532 408.333 348.443 409.333 349.325C449.188 384.349 517.6 396.083 592.332 380.711C660.01 366.792 715.218 335.594 765.966 304.834C770.415 302.135 775.18 299.219 781.42 295.381C786.735 292.113 792.19 288.741 797.463 285.478C822.138 270.214 847.65 254.431 874.864 239.653C905.636 222.939 934.334 209.891 962.592 199.764C982.177 192.775 1002.55 187.063 1023.14 182.789C1042.65 178.74 1063.01 175.848 1083.65 174.191C1121.23 171.175 1160.6 172.038 1204 176.828C1239.88 180.729 1281.99 186.561 1322.27 200.259C1361.2 213.551 1396.48 232.084 1430.6 250.008C1436.79 253.258 1443.19 256.621 1449.44 259.854C1532.51 302.885 1616.74 351.643 1699.79 404.775L1699.59 404.902Z" fill="#FFE492"/>
<path d="M1696.68 403.261C1614.36 349.546 1531.5 300.186 1450.4 256.557C1443.5 252.846 1436.42 248.95 1429.57 245.184C1396.92 227.241 1363.17 208.689 1325.32 195.925C1285.04 182.403 1242.87 178.089 1206.93 175.652C1118.86 169.522 1041.03 179.328 969.002 205.63C911.648 226.668 862.483 254.812 814.937 282.031C805.333 287.528 795.404 293.214 785.75 298.633C779.845 301.95 774.613 304.862 769.749 307.536C747.13 319.956 717.042 335.882 684.89 348.897C652.584 361.973 622.029 370.644 591.479 375.405C558.16 380.597 524.906 380.635 495.315 375.518C478.863 372.672 463.595 368.234 449.934 362.327C435.186 355.949 422.16 347.785 411.215 338.064C410.223 337.179 409.228 336.264 408.261 335.347C391.481 319.447 380.203 301.387 369.299 283.922C366.661 279.697 363.935 275.329 361.185 271.085C346.724 248.696 331.022 229.458 313.179 212.276C310.921 210.101 308.582 207.918 306.227 205.789C263.303 166.955 205.138 134.657 138.021 112.39C59.0043 86.2714 -23.8236 75.369 -95.2061 81.6873C-143.582 86.0622 -191.884 104.433 -215.396 127.399C-231.758 143.381 -236.179 161.245 -228.183 179.06L-228.446 179.107C-232.626 169.797 -233.478 160.5 -230.98 151.475C-228.672 143.133 -223.505 135 -215.627 127.303C-203.558 115.514 -185.25 104.899 -162.684 96.6056C-141.752 88.9138 -117.8 83.5523 -95.2446 81.513C-57.7589 78.1944 -17.3493 79.5644 24.863 85.5829C62.9752 91.0176 101.09 99.9835 138.147 112.233C205.303 134.514 263.501 166.829 306.452 205.687C308.807 207.817 311.146 210.001 313.407 212.178C331.259 229.371 346.969 248.617 361.437 271.017C364.188 275.261 366.914 279.631 369.552 283.856C380.451 301.312 391.723 319.364 408.486 335.248C409.453 336.165 410.445 337.076 411.438 337.962C450.608 372.759 517.887 386.692 591.413 375.236C658.443 364.79 716.651 336.461 769.567 307.405C774.428 304.731 779.663 301.821 785.566 298.504C795.217 293.085 805.149 287.401 814.75 281.903C862.307 254.68 911.48 226.528 968.862 205.482C988.274 198.393 1008.35 192.427 1028.53 187.745C1047.83 183.269 1067.86 179.823 1088.06 177.503C1125.63 173.189 1164.52 172.529 1206.95 175.481C1242.92 177.92 1285.13 182.235 1325.44 195.773C1363.32 208.546 1397.09 227.105 1429.75 245.055C1436.6 248.821 1443.68 252.715 1450.58 256.426C1531.69 300.058 1614.55 349.422 1696.87 403.141L1696.68 403.261Z" fill="#FFE492"/>
<path d="M1693.76 401.618C1612.18 347.31 1530.69 297.349 1451.55 253.12C1444.28 249.056 1436.8 244.752 1429.56 240.59C1398.11 222.496 1365.59 203.785 1328.5 191.432C1288.06 178.025 1245.85 175.248 1209.89 174.3C1125.16 171.902 1048.41 184.017 975.282 211.341C923.995 230.594 878.277 254.961 834.061 278.524C818.859 286.628 804.498 294.281 789.892 301.753C783.951 304.795 778.54 307.528 773.346 310.106C739.834 326.725 711.953 338.741 685.599 347.92C652.538 359.436 621.447 366.634 590.548 369.925C578.561 371.201 566.618 371.837 554.893 371.837C534.107 371.837 513.994 369.843 495.478 365.894C461.969 358.746 434.329 345.556 413.326 326.692C412.337 325.798 411.35 324.883 410.394 323.969C393.87 308.208 382.276 290.467 371.064 273.309C368.223 268.962 365.288 264.469 362.328 260.099C347.25 237.763 331.179 218.686 313.207 201.777C310.915 199.621 308.544 197.458 306.156 195.347C262.652 156.867 204.037 125.012 136.65 103.228C57.0921 77.611 -25.964 67.3064 -97.2228 74.2122C-145.8 79.0176 -192.708 97.0402 -216.723 120.128C-233.417 136.176 -238.424 154.146 -231.208 172.097L-231.474 172.141C-235.242 162.767 -235.742 153.414 -232.958 144.342C-230.381 135.944 -224.997 127.766 -216.951 120.032C-204.756 108.307 -186.528 97.7269 -164.236 89.4338C-143.53 81.7297 -119.746 76.2637 -97.2641 74.0396C-59.8223 70.4107 -19.3688 71.4705 22.9699 77.1892C61.1756 82.3502 99.4637 91.0582 136.776 103.071C204.202 124.869 262.85 156.741 306.381 195.244C308.769 197.357 311.141 199.52 313.435 201.677C331.418 218.595 347.497 237.682 362.581 260.028C365.541 264.397 368.478 268.893 371.317 273.24C382.523 290.389 394.112 308.122 410.622 323.87C411.578 324.782 412.562 325.697 413.551 326.589C452.771 361.819 517.267 377.551 590.502 369.751C660.216 362.326 721.964 335.363 773.176 309.966C778.367 307.388 783.778 304.657 789.719 301.616C804.322 294.143 818.683 286.492 833.885 278.388C878.106 254.82 923.836 230.449 975.141 211.189C994.408 203.99 1014.18 197.768 1033.92 192.692C1053.03 187.777 1072.74 183.777 1092.48 180.805C1130.13 175.139 1168.54 172.953 1209.9 174.124C1245.89 175.072 1288.14 177.852 1328.63 191.275C1365.74 203.637 1398.28 222.356 1429.75 240.457C1436.98 244.62 1444.46 248.923 1451.73 252.986C1530.87 297.218 1612.37 347.184 1693.96 401.496L1693.76 401.618Z" fill="#FFE492"/>
<path d="M1690.85 399.977C1608.86 344.298 1530.96 295.137 1452.7 249.683C1445.23 245.347 1437.88 240.918 1430.09 236.229C1399.66 217.9 1368.2 198.948 1331.68 186.941C1290.73 173.539 1246.67 172.423 1212.86 172.95C1131.98 174.044 1056.32 188.471 981.561 217.055C936.705 234.288 895.29 254.982 855.237 274.997C834.188 285.516 814.306 295.449 794.031 304.877C788.013 307.678 782.42 310.23 776.941 312.679C742.973 327.836 714.173 338.723 686.303 346.943C652.475 356.919 620.848 362.645 589.614 364.447C573.566 365.373 557.627 365.199 542.241 363.93C525.951 362.586 510.271 360.008 495.637 356.269C463.202 347.981 436.22 334.207 415.436 315.325C414.455 314.429 413.477 313.512 412.526 312.599C396.28 296.999 384.395 279.597 372.9 262.768C369.833 258.278 366.662 253.635 363.471 249.12C347.761 226.833 331.328 207.914 313.232 191.284C310.905 189.148 308.5 187.004 306.085 184.912C262.001 146.786 202.938 115.373 135.282 94.0723C72.8357 74.4933 8.43863 64.2776 -50.6135 64.2776C-67.3077 64.2776 -83.5622 65.0933 -99.2397 66.7439C-147.231 71.8962 -193.846 89.9833 -218.001 112.823C-235.049 128.946 -240.664 147.038 -234.236 165.143L-234.505 165.181C-237.861 155.734 -238.001 146.317 -234.923 137.192C-232.071 128.734 -226.454 120.501 -218.232 112.726C-205.909 101.074 -187.767 90.5375 -165.761 82.2531C-144.989 74.4323 -122.001 69.0098 -99.2891 66.5731C-61.8914 62.6339 -21.3938 63.3852 21.074 68.8024C59.3704 73.6863 97.8371 82.1346 135.403 93.9137C203.097 115.227 262.196 146.657 306.307 184.806C308.725 186.897 311.133 189.043 313.46 191.182C331.564 207.82 348.006 226.747 363.724 249.046C366.915 253.56 370.089 258.203 373.155 262.695C384.645 279.517 396.525 296.912 412.757 312.499C413.708 313.411 414.686 314.328 415.664 315.222C454.53 350.53 517.921 368.406 589.592 364.271C662.115 360.087 727.727 334.423 776.787 312.532C782.266 310.083 787.856 307.532 793.874 304.732C814.146 295.308 834.025 285.373 855.073 274.856C895.13 254.839 936.551 234.139 981.423 216.901C1019.92 202.185 1057.69 191.46 1096.9 184.112C1134.72 177.025 1172.65 173.316 1212.86 172.772C1235.8 172.415 1254.52 173.035 1271.77 174.722C1294.04 176.901 1313.68 180.846 1331.81 186.782C1368.36 198.8 1399.84 217.762 1430.29 236.1C1438.07 240.789 1445.42 245.216 1452.89 249.553C1531.16 295.008 1609.06 344.173 1691.06 399.855L1690.85 399.977Z" fill="#FFE492"/>
<path d="M1687.94 398.334C1606.7 342.045 1530.13 292.299 1453.84 246.245C1446.29 241.689 1438.85 236.995 1430.97 232.026C1401.46 213.407 1370.93 194.152 1334.87 182.446C1293.58 169.107 1249.56 169.641 1215.84 171.594C1139.51 175.863 1064.93 192.601 987.84 222.762C949.857 237.694 913.693 254.782 878.719 271.309C851.072 284.373 824.96 296.714 798.172 307.993C792.118 310.544 786.183 312.984 780.536 315.243C746.501 328.846 715.908 338.891 687.007 345.953C652.401 354.41 620.238 358.667 588.68 358.963C572.623 359.113 556.748 358.193 541.505 356.225C525.525 354.161 510.147 350.935 495.797 346.633C464.475 337.243 438.146 322.883 417.544 303.949C416.577 303.055 415.604 302.136 414.656 301.217C398.715 285.808 386.572 268.773 374.827 252.3C371.504 247.64 368.066 242.818 364.612 238.132C348.259 215.886 331.46 197.128 313.257 180.782C310.897 178.664 308.459 176.539 306.011 174.467C261.347 136.694 201.833 105.725 133.908 84.9066C53.2701 60.2955 -30.2504 51.1901 -101.262 59.2671C-148.632 64.7488 -194.936 82.8829 -219.226 105.463C-236.659 121.672 -242.897 139.9 -237.269 158.18L-237.539 158.213C-240.474 148.684 -240.248 139.194 -236.865 130.007C-233.725 121.478 -227.868 113.187 -219.454 105.364C-207.011 93.7958 -188.959 83.3117 -167.25 75.0447C-146.717 67.2256 -123.917 61.7108 -101.311 59.0946C-63.9548 54.8469 -23.416 55.2861 19.1782 60.4036C57.568 65.0155 96.2079 73.2058 134.026 84.748C201.993 105.577 261.54 136.565 306.228 174.361C308.679 176.433 311.119 178.559 313.48 180.679C331.694 197.033 348.498 215.8 364.859 238.055C368.316 242.742 371.752 247.563 375.077 252.225C386.816 268.691 398.954 285.719 414.884 301.118C415.832 302.035 416.805 302.953 417.77 303.846C457.044 339.94 517.74 359.454 588.674 358.785C646.232 358.245 707.15 344.36 780.387 315.092C786.031 312.833 791.964 310.394 798.018 307.843C824.798 296.565 850.909 284.229 878.552 271.165C913.531 254.636 949.701 237.544 987.695 222.608C1026.56 207.401 1063.73 195.89 1101.31 187.414C1139.39 178.828 1176.84 173.594 1215.81 171.415C1249.58 169.458 1293.64 168.926 1334.99 182.286C1371.1 194.006 1401.64 213.269 1431.17 231.897C1439.05 236.866 1446.49 241.558 1454.03 246.113C1530.32 292.168 1606.9 341.918 1688.14 398.21L1687.94 398.334Z" fill="#FFE492"/>
<path d="M1685.02 396.69C1604.54 339.79 1529.3 289.454 1454.99 242.808C1447.45 238.073 1440 233.152 1432.11 227.942C1403.43 208.991 1373.77 189.394 1338.05 177.953C1296.37 164.663 1252.43 166.85 1218.81 170.241C1146.99 177.343 1075.6 195.847 994.121 228.472C963.564 240.764 933.701 254.248 904.822 267.287C869.746 283.124 836.616 298.084 802.313 311.113C796.132 313.462 790.015 315.718 784.132 317.813C749.487 330.143 717.949 339.025 687.712 344.965C670.776 348.293 654.057 350.703 638.02 352.131C620.913 353.652 603.999 354.107 587.747 353.483C554.774 352.216 523.892 346.67 495.961 337C465.796 326.556 440.124 311.611 419.659 292.578C418.698 291.677 417.733 290.757 416.791 289.843C401.19 274.66 388.829 258.03 376.878 241.949C373.259 237.081 369.519 232.047 365.757 227.149C348.744 204.94 331.58 186.341 313.284 170.286C310.89 168.186 308.417 166.08 305.938 164.029C260.695 126.608 200.733 96.0814 132.538 75.7494C51.362 51.642 -32.3866 43.1362 -103.28 51.7972C-179.188 61.2146 -253.157 101.905 -240.296 151.223L-240.568 151.251C-243.786 138.914 -241.901 126.76 -234.968 115.124C-228.636 104.497 -218.246 94.4953 -204.085 85.4004C-190.92 76.9434 -175.124 69.6419 -157.141 63.6983C-140.037 58.0458 -121.431 53.8696 -103.335 51.6246C-66.0223 47.0667 -25.4396 47.1974 17.2839 52.015C55.7671 56.3534 94.5828 64.2857 132.654 75.5925C200.887 95.9385 260.885 126.483 306.155 163.924C308.637 165.977 311.11 168.083 313.506 170.185C331.811 186.247 348.983 204.857 366.004 227.074C369.766 231.972 373.507 237.006 377.126 241.876C389.074 257.952 401.429 274.575 417.021 289.749C417.961 290.662 418.923 291.583 419.885 292.482C459.217 329.061 518.838 350.661 587.764 353.311C646.115 355.551 710.304 343.892 783.997 317.663C789.878 315.568 795.992 313.314 802.172 310.965C836.468 297.939 869.592 282.981 904.662 267.146C933.544 254.105 963.41 240.619 993.973 228.326C1075.48 195.687 1146.91 177.176 1218.76 170.068C1241.36 167.79 1260.06 167.061 1277.64 167.778C1300.1 168.693 1319.9 171.97 1338.17 177.797C1373.93 189.25 1403.61 208.858 1432.31 227.82C1440.19 233.029 1447.64 237.949 1455.18 242.683C1529.5 289.332 1604.74 339.67 1685.22 396.574L1685.02 396.69Z" fill="#FFE492"/>
<path d="M1682.11 395.051C1602.4 337.531 1528.48 286.609 1456.14 239.374C1448.65 234.487 1441.25 229.368 1433.42 223.945C1405.51 204.631 1376.66 184.658 1341.24 173.463C1298.65 160.061 1252.66 164.434 1221.78 168.889C1137.95 180.832 1062.83 208.598 1000.4 234.187C977.967 243.421 955.587 253.203 933.941 262.662C890.519 281.638 849.508 299.561 806.457 314.237C800.126 316.397 793.828 318.466 787.732 320.388C752.412 331.507 719.928 339.225 688.425 343.98C652.711 349.371 618.529 350.727 586.819 348.008C554.245 345.214 523.73 338.27 496.129 327.367C467.179 315.933 442.164 300.405 421.774 281.213C420.823 280.312 419.864 279.39 418.927 278.473C403.714 263.569 391.199 247.395 379.094 231.754C375.129 226.628 371.026 221.329 366.904 216.171C348.973 193.683 331.944 175.77 313.315 159.794C310.888 157.713 308.385 155.628 305.87 153.594C260.042 116.53 199.629 86.4455 131.165 66.5945C49.4502 42.9926 -34.5292 35.0847 -105.302 44.3295C-181.482 54.4127 -253.939 94.5504 -243.326 144.269L-243.598 144.292C-246.231 131.957 -243.953 119.815 -236.83 108.205C-230.301 97.5675 -219.85 87.5558 -205.764 78.4504C-192.628 69.9585 -176.915 62.6031 -159.058 56.5845C-142.056 50.8535 -123.485 46.5571 -105.357 44.157C-68.0852 39.2888 -27.4613 39.111 15.3885 43.6271C53.9652 47.6918 92.9568 55.3662 131.281 66.4359C199.786 86.2973 260.231 116.399 306.082 153.486C308.596 155.522 311.103 157.608 313.532 159.69C332.172 175.673 349.207 193.596 367.146 216.093C371.268 221.25 375.371 226.551 379.336 231.677C391.438 247.313 403.95 263.481 419.152 278.379C420.089 279.296 421.045 280.216 421.996 281.117C461.634 318.424 520.18 342.118 586.852 347.835C646.649 352.963 712.316 343.933 787.609 320.232C793.701 318.311 800 316.244 806.326 314.084C849.365 299.411 890.371 281.492 933.784 262.518C955.43 253.058 977.813 243.275 1000.25 234.039C1042.23 216.834 1077.15 204.122 1110.15 194.035C1148.99 182.162 1185.48 173.881 1221.72 168.718C1243.8 165.532 1263.06 164.089 1280.58 164.309C1303.13 164.591 1323.01 167.533 1341.36 173.306C1376.82 184.515 1405.7 204.5 1433.62 223.827C1441.45 229.247 1448.85 234.366 1456.33 239.25C1528.68 286.487 1602.6 337.412 1682.32 394.935L1682.11 395.051Z" fill="#FFE492"/>
<path d="M1679.2 393.407C1600.25 335.264 1527.66 283.755 1457.28 235.934C1449.9 230.919 1442.6 225.622 1434.86 220.013C1407.69 200.311 1379.6 179.937 1344.42 168.968C1301.37 155.598 1255.51 161.745 1224.75 167.534C1148.8 181.706 1081.06 208.691 1006.69 239.896C993.273 245.545 979.706 251.375 966.584 257.015C916.12 278.705 863.94 301.132 810.599 317.356C804.119 319.329 797.633 321.213 791.327 322.956C755.767 332.773 721.384 339.511 689.131 342.985C652.593 346.921 617.858 346.766 585.882 342.527C553.763 338.269 523.62 329.925 496.289 317.727C468.63 305.384 444.266 289.273 423.876 269.844C422.933 268.941 421.982 268.017 421.051 267.1C406.297 252.545 393.702 236.898 381.523 221.767C377.135 216.315 372.598 210.678 368.039 205.193C349.407 182.727 332.023 164.968 313.331 149.302C310.877 147.245 308.338 145.178 305.788 143.16C259.388 106.443 198.53 76.802 129.791 57.4355C47.5402 34.3391 -36.6673 27.0307 -107.324 36.8577C-181.087 47.2286 -254.882 85.9579 -246.36 137.31L-246.632 137.327C-248.68 124.992 -246.008 112.865 -238.696 101.281C-231.972 90.6309 -221.458 80.6104 -207.448 71.4945C-181.6 54.6781 -145.129 41.9909 -107.385 36.6852C-70.1574 31.5085 -29.4895 31.0205 13.4895 35.235C52.1596 39.0278 91.3243 46.4425 129.901 57.2752C198.678 76.6521 259.572 106.313 306.002 143.046C308.555 145.066 311.094 147.134 313.551 149.192C332.251 164.867 349.643 182.633 368.281 205.107C372.839 210.594 377.379 216.231 381.768 221.683C393.944 236.811 406.536 252.454 421.281 267.003C422.21 267.92 423.161 268.842 424.104 269.745C464.898 308.617 520.859 333.725 585.934 342.354C646.193 350.344 715.256 343.764 791.211 322.796C797.515 321.053 803.995 319.171 810.472 317.199C863.795 300.981 915.969 278.557 966.422 256.871C979.544 251.23 993.111 245.4 1006.53 239.751C1039.08 226.091 1076.96 210.423 1114.56 197.342C1153.89 183.66 1189.9 173.855 1224.67 167.368C1246.55 163.249 1265.8 161.112 1283.51 160.837C1305.84 160.488 1326.37 163.173 1344.53 168.813C1360.29 173.726 1376.15 181.059 1393.02 191.231C1407.92 200.213 1421.72 210.221 1435.06 219.898C1442.79 225.506 1450.1 230.803 1457.48 235.815C1527.86 283.638 1600.45 335.149 1679.4 393.293L1679.2 393.407Z" fill="#FFE492"/>
<path d="M1676.28 391.765C1598.11 332.995 1526.85 280.898 1458.42 232.499C1451.18 227.375 1444 221.917 1436.4 216.141C1409.94 196.029 1382.58 175.231 1347.6 164.479C1314.91 154.462 1275.7 155.019 1227.72 166.183C1160.64 181.705 1100.67 207.667 1037.18 235.155C1029.27 238.579 1021.1 242.117 1012.96 245.611C1009.78 246.983 1006.59 248.358 1003.41 249.732C942.912 275.823 880.359 302.803 814.739 320.48C808.106 322.268 801.439 323.968 794.923 325.53C758.584 334.232 723.23 339.772 689.847 341.992C652.466 344.478 617.173 342.815 584.956 337.049C553.337 331.389 523.565 321.646 496.467 308.089C470.201 294.949 446.491 278.258 425.994 258.477C425.06 257.572 424.117 256.646 423.191 255.728C408.997 241.629 396.444 226.613 384.301 212.092C379.385 206.211 374.298 200.13 369.19 194.211C349.838 171.761 332.102 154.155 313.366 138.806C310.877 136.767 308.307 134.72 305.724 132.721C258.736 96.3606 197.428 67.1602 128.419 48.2784C45.6353 25.6891 -38.8057 18.9786 -109.345 29.3878C-181.752 40.1612 -255.443 79.2078 -249.389 130.354L-249.664 130.368C-251.123 118.031 -248.062 105.917 -240.56 94.3631C-233.637 83.7012 -223.063 73.6686 -209.128 64.5457C-183.39 47.6944 -147.045 34.8189 -109.408 29.2187C-72.2216 23.7318 -31.5125 22.9335 11.5929 26.8482C50.3564 30.3656 89.6998 37.5223 128.529 48.118C197.576 67.0121 258.923 96.2281 305.93 132.608C308.513 134.607 311.088 136.657 313.578 138.696C332.322 154.054 350.069 171.665 369.426 194.123C374.537 200.043 379.621 206.126 384.54 212.007C396.678 226.524 409.231 241.536 423.419 255.63C424.345 256.549 425.285 257.473 426.219 258.377C467.898 298.599 522.812 325.742 585.027 336.876C646.443 347.868 717.028 343.993 794.824 325.362C801.335 323.8 807.998 322.103 814.629 320.316C880.227 302.646 942.77 275.671 1003.25 249.584C1006.44 248.209 1009.62 246.835 1012.81 245.463C1020.94 241.969 1029.11 238.43 1037.02 235.009C1100.52 207.515 1160.51 181.546 1227.62 166.018C1249.3 160.973 1268.54 158.145 1286.45 157.365C1308.87 156.391 1329.48 158.732 1347.72 164.32C1363.39 169.136 1379.05 176.502 1395.61 186.839C1410.21 195.961 1423.63 206.162 1436.61 216.028C1444.21 221.802 1451.39 227.258 1458.63 232.38C1527.06 280.782 1598.32 332.88 1676.49 391.652L1676.28 391.765Z" fill="#FFE492"/>
<path d="M1673.37 390.122C1602.02 335.357 1530.09 281.168 1459.57 229.061C1452.39 223.786 1445.28 218.12 1437.74 212.122C1413.24 192.611 1385.48 170.498 1350.78 159.986C1317.71 149.986 1278.43 151.571 1230.69 164.828C1173.92 180.539 1123.68 203.641 1070.49 228.099C1053.84 235.757 1036.61 243.679 1019.24 251.321C988.917 264.688 956.114 278.832 921.728 291.714C884.902 305.512 851.258 315.94 818.873 323.599C812.069 325.208 805.221 326.723 798.513 328.098C761.404 335.702 725.088 340.03 690.576 340.961C652.37 341.989 616.52 338.831 584.016 331.566C523.994 317.985 471.534 289.569 428.096 247.106C427.17 246.2 426.236 245.272 425.315 244.354C411.842 230.877 399.509 216.659 387.583 202.909C381.968 196.437 376.164 189.744 370.325 183.23C350.237 160.786 332.144 143.335 313.386 128.312C310.861 126.29 308.258 124.263 305.645 122.285C258.085 86.2745 196.326 57.5186 127.048 39.1195C43.7285 17.0358 -40.9406 10.9266 -111.364 21.9162C-184.211 33.3485 -256.055 71.8774 -252.42 123.397L-252.695 123.404C-253.566 111.063 -250.109 98.9635 -242.422 87.4389C-235.3 76.763 -224.665 66.7199 -210.809 57.5901C-197.756 48.9884 -182.285 41.4673 -164.827 35.2344C-147.877 29.1845 -129.913 24.6457 -111.433 21.7453C-74.2878 15.9499 -33.5347 14.8413 9.69711 18.4546C48.5541 21.7018 88.0706 28.5988 127.153 38.9574C196.472 57.3669 258.266 86.1403 305.854 122.168C308.467 124.148 311.075 126.177 313.6 128.199C332.367 143.23 350.468 160.688 370.564 183.14C376.404 189.655 382.207 196.348 387.822 202.822C399.748 216.57 412.078 230.786 425.546 244.258C426.464 245.178 427.401 246.104 428.325 247.01C471.73 289.44 524.142 317.833 584.107 331.401C645.874 345.205 719.985 344.006 798.427 327.93C805.13 326.555 811.978 325.042 818.777 323.435C891.184 306.314 957.433 278.351 1019.08 251.176C1036.46 243.535 1053.68 235.614 1070.33 227.956C1123.53 203.493 1173.78 180.386 1230.58 164.667C1278.39 151.389 1317.75 149.805 1350.9 159.827C1366.44 164.535 1381.86 171.915 1398.06 182.385C1412.35 191.618 1425.37 201.987 1437.96 212.012C1445.49 218.01 1452.6 223.675 1459.78 228.946C1530.3 281.054 1602.23 335.244 1673.58 390.011L1673.37 390.122Z" fill="#FFE492"/>
<path d="M1670.46 388.482C1600.2 333.414 1529.63 278.621 1460.72 225.625C1453.76 220.293 1446.86 214.527 1439.55 208.423C1415.66 188.457 1388.57 165.826 1353.97 155.492C1320.5 145.51 1281.15 148.121 1233.66 163.472C1183.9 179.532 1138.18 202.208 1093.97 224.14C1071.8 235.137 1048.88 246.508 1025.52 257.03C988.653 273.655 957.633 286.337 927.897 296.943C891.23 310.021 856.921 319.761 823.013 326.719C816.053 328.148 809.018 329.476 802.107 330.667C766.097 336.866 730.735 340.004 696.907 340.006C695.027 340.006 693.159 339.995 691.29 339.976C652.18 339.572 615.775 334.897 583.084 326.084C567.305 321.807 551.853 316.378 537.159 309.946C523.348 303.901 509.775 296.781 496.818 288.784C473.507 274.398 451.715 257.044 430.204 235.736C429.28 234.819 428.36 233.901 427.445 232.979C414.963 220.407 403.155 207.264 391.737 194.554C385.144 187.218 378.329 179.631 371.465 172.246C350.33 149.493 332.426 132.704 313.407 117.814C310.849 115.811 308.214 113.803 305.567 111.844C257.43 76.1912 195.224 47.878 125.677 29.9617C41.8237 8.38519 -43.0763 2.87559 -113.384 14.4456C-184.866 26.2422 -256.616 65.0639 -255.449 116.439L-255.723 116.44C-256.267 92.5108 -241.315 69.756 -212.486 50.6371C-199.455 41.9954 -184.066 34.4203 -166.743 28.1176C-149.886 21.9858 -131.958 17.3285 -113.453 14.2748C-76.352 8.16906 -35.555 6.75201 7.80325 10.0637C46.7536 13.039 86.446 19.6781 125.778 29.7979C195.369 47.7263 257.612 76.057 305.779 111.731C308.425 113.692 311.066 115.701 313.625 117.704C332.652 132.603 350.563 149.397 371.704 172.159C378.568 179.546 385.386 187.133 391.976 194.469C403.394 207.177 415.2 220.318 427.678 232.886C428.593 233.808 429.511 234.727 430.435 235.642C476.145 280.922 526.112 310.453 583.191 325.924C662.249 347.237 745.835 340.176 802.035 330.499C808.941 329.309 815.97 327.982 822.928 326.553C900.914 310.549 972.077 280.916 1025.36 256.889C1048.72 246.37 1071.64 234.999 1093.8 224.004C1138.02 202.069 1183.75 179.385 1233.53 163.318C1254.78 156.449 1274.02 152.231 1292.33 150.425C1314.91 148.198 1335.69 149.85 1354.08 155.337C1369.58 159.965 1384.86 167.404 1400.79 178.078C1414.83 187.483 1427.51 198.075 1439.77 208.321C1447.08 214.423 1453.97 220.187 1460.93 225.515C1529.84 278.511 1600.41 333.304 1670.67 388.372L1670.46 388.482Z" fill="#FFE492"/>
<path d="M1667.54 386.839L1461.86 222.188C1455.15 216.811 1448.47 210.96 1441.41 204.767C1418.1 184.329 1391.69 161.164 1357.15 151.001C1323.75 141.174 1283.2 144.914 1236.63 162.12C1191.85 178.659 1151.01 200.654 1111.52 221.925C1085.77 235.791 1059.15 250.127 1031.8 262.744C949.595 300.669 877.751 323.068 805.707 333.238C775.819 337.456 746.336 339.579 717.742 339.579C709.075 339.579 700.496 339.384 692.007 338.994C651.974 337.153 615.013 330.965 582.155 320.605C551.702 311.001 523.842 297.444 496.994 279.156C475.554 264.554 455.002 247.145 432.317 224.369C420.344 212.349 408.75 199.861 397.538 187.783C372.163 160.453 345.925 132.192 313.44 107.32C263.613 69.1709 198.211 39.2541 124.303 20.8028C39.9193 -0.264808 -45.2115 -5.17657 -115.404 6.97385C-183.363 18.7373 -257.122 55.8318 -258.48 109.481L-258.754 109.478C-258.147 85.4975 -242.728 62.7462 -214.165 43.6831C-188.339 26.4466 -153.291 13.3497 -115.476 6.80478C-78.4158 0.390559 -37.5748 -1.33675 5.9071 1.6734C44.951 4.37505 84.8192 10.7579 124.404 20.6407C160.975 29.7705 195.707 41.7884 227.639 56.3616C259.838 71.0568 288.777 88.1626 313.649 107.205C346.147 132.086 372.394 160.354 397.774 187.691C408.986 199.767 420.58 212.253 432.55 224.271C465.648 257.503 512.578 298.465 582.279 320.445C662.213 345.65 747.866 341.219 805.646 333.064C877.655 322.9 949.466 300.51 1031.64 262.6C1058.98 249.987 1085.6 235.651 1111.34 221.789C1150.84 200.514 1191.69 178.514 1236.49 161.966C1283.14 144.731 1323.78 140.988 1357.27 150.841C1372.73 155.392 1387.87 162.895 1403.55 173.784C1417.35 183.368 1429.7 194.194 1441.63 204.663C1448.7 210.855 1455.37 216.703 1462.08 222.079L1667.76 386.729L1667.54 386.839Z" fill="#FFE492"/>
<path d="M1665.89 374.18C1613.51 328.336 1568.57 291.135 1524.47 257.11C1503.06 240.582 1481.19 224.312 1459.48 208.755C1452.91 204.048 1446.4 199.043 1439.51 193.742C1422.2 180.42 1404.3 166.646 1383.69 156.423C1372.63 150.924 1361.98 146.986 1351.14 144.386C1317.85 136.324 1278.8 141.654 1235.07 160.23C1212.43 169.828 1191.82 180.752 1174.64 190.171C1156.46 200.142 1138.52 211.139 1121.18 221.773C1096.24 237.059 1070.46 252.864 1042.74 266.439C1025.88 274.723 1008.79 282.126 991.932 288.442C958.213 301.079 922.022 311.492 884.363 319.391C861.096 324.217 837.716 327.866 814.877 330.233C795.193 332.265 775.473 333.438 756.262 333.719C727.509 334.14 699.496 332.531 672.999 328.932C644.827 325.105 618.165 318.995 593.758 310.772C571.993 303.439 551.435 294.207 530.91 282.544C492.664 260.83 462.158 235.722 439.855 216.274C428.899 206.675 418.201 196.886 407.854 187.42C378.063 160.158 349.923 134.409 314.71 111.473C285.991 92.8889 253.223 76.8516 217.31 63.8036C189.711 53.7761 159.695 45.5753 128.095 39.4278C120.568 37.9654 112.899 36.6024 105.306 35.3806C72.6154 30.1289 35.814 26.7092 -4.0735 25.2154C-44.288 23.6746 -79.0806 25.008 -110.433 29.2958C-128.157 31.7011 -145.33 35.4747 -161.48 40.5102C-218.496 58.2888 -255.108 88.1341 -259.417 120.348L-259.76 120.329C-258.611 111.741 -255.239 103.282 -249.741 95.1845C-244.517 87.4926 -237.342 80.0744 -228.416 73.1356C-211.552 60.0283 -188.457 48.6779 -161.631 40.3133C-145.456 35.269 -128.256 31.4902 -110.504 29.0814C-79.1191 24.7901 -44.299 23.455 -4.05153 24.9976C35.8579 26.4913 72.6786 29.9145 105.391 35.1697C112.992 36.3933 120.664 37.7563 128.197 39.2204C159.821 45.3714 189.862 53.5792 217.483 63.6153C253.421 76.6721 286.216 92.7234 314.949 111.319C350.184 134.269 378.33 160.026 408.132 187.295C418.475 196.761 429.173 206.548 440.127 216.145C462.419 235.584 492.911 260.68 531.136 282.38C551.639 294.03 572.175 303.254 593.914 310.579C641.683 326.672 696.3 334.384 756.251 333.501C775.445 333.22 795.151 332.047 814.819 330.016C837.641 327.649 861.005 324.005 884.253 319.182C921.89 311.288 958.059 300.882 991.756 288.252C1008.6 281.941 1025.68 274.542 1042.53 266.265C1070.23 252.697 1096.01 236.895 1120.93 221.614C1138.29 210.979 1156.22 199.979 1174.42 190.003C1191.6 180.579 1212.22 169.652 1234.87 160.047C1254.35 151.776 1273.2 146.062 1290.92 143.063C1312.68 139.378 1332.98 139.755 1351.26 144.182C1362.14 146.791 1372.82 150.739 1383.91 156.25C1404.54 166.489 1422.45 180.272 1439.78 193.603C1446.67 198.901 1453.17 203.907 1459.73 208.61C1481.46 224.17 1503.32 240.44 1524.74 256.973C1568.84 291.001 1613.79 328.205 1666.17 374.053L1665.89 374.18Z" fill="#FFE492"/>
<path d="M1664.23 361.52C1615.67 314.9 1570.09 275.889 1524.9 242.257C1502.85 225.83 1480.04 210.038 1457.09 195.322C1451 191.418 1444.99 187.36 1438.63 183.065C1419.57 170.204 1399.86 156.905 1377.79 147.703C1366.64 143.037 1355.96 139.788 1345.13 137.77C1303.66 130.038 1261.54 144.686 1233.5 158.336C1213.64 167.978 1195.5 178.88 1177.12 190.135C1161.04 199.986 1145.9 210.584 1129.88 221.802C1106.1 238.454 1081.51 255.673 1053.69 270.131C1037.18 278.757 1019.94 286.216 1002.47 292.299C969.917 303.632 934.273 312.432 893.498 319.205C870.678 322.995 847.309 325.695 824.039 327.227C804.404 328.504 784.805 328.961 765.784 328.579C737.484 328.018 709.823 325.494 683.563 321.079C655.984 316.441 629.669 309.664 605.352 300.937C584.046 293.292 563.475 283.807 542.46 271.941C504.296 250.42 471.603 226.562 447.387 208.18C438.423 201.375 429.602 194.529 421.07 187.906C387.09 161.531 354.996 136.616 315.98 115.627C286.821 99.9401 254.084 86.6759 218.684 76.204C191.899 68.2804 163.509 62.3437 131.896 58.0542C124.6 57.0659 117.177 56.1753 109.837 55.4066C77.5976 52.0479 43.1897 50.7772 1.55997 49.463C-28.4484 48.4677 -67.7313 47.8124 -105.47 51.6156C-123.343 53.383 -140.62 56.4524 -156.825 60.7349C-213.879 75.8171 -252.582 102.164 -260.359 131.216L-260.766 131.173C-258.705 123.469 -254.528 115.913 -248.358 108.713C-242.478 101.852 -234.75 95.2741 -225.393 89.1562C-207.611 77.5339 -183.956 67.6215 -156.984 60.4927C-140.749 56.2014 -123.439 53.1268 -105.536 51.3559C-67.7615 47.5474 -28.4484 48.2046 1.57919 49.1998C43.2227 50.514 77.6416 51.7847 109.903 55.1452C117.249 55.9156 124.677 56.8062 131.981 57.7945C163.624 62.0893 192.042 68.0311 218.857 75.9635C254.292 86.4459 287.057 99.7205 316.246 115.423C355.29 136.428 387.398 161.349 421.388 187.735C429.918 194.356 438.739 201.203 447.703 208.006C471.913 226.38 504.593 250.23 542.735 271.74C563.725 283.594 584.274 293.069 605.555 300.705C653.37 317.865 707.286 327.154 765.797 328.314C784.803 328.694 804.382 328.239 823.998 326.962C847.246 325.431 870.596 322.735 893.393 318.947C934.135 312.181 969.75 303.388 1002.27 292.065C1019.73 285.989 1036.94 278.541 1053.43 269.924C1081.23 255.478 1105.81 238.266 1129.58 221.622C1145.61 210.399 1160.74 199.8 1176.84 189.943C1195.22 178.682 1213.37 167.776 1233.26 158.123C1251.43 149.274 1269.36 142.908 1286.54 139.199C1307.38 134.702 1327.13 134.136 1345.25 137.514C1356.12 139.541 1366.84 142.8 1378.02 147.48C1400.13 156.699 1419.86 170.01 1438.93 182.882C1445.29 187.175 1451.31 191.231 1457.39 195.134C1480.35 209.855 1503.16 225.652 1525.21 242.085C1570.42 275.725 1616.01 314.743 1664.57 361.374L1664.23 361.52Z" fill="#FFE492"/>
<path d="M1662.57 348.858C1617.12 300.83 1572.23 261.102 1525.32 227.405C1502.65 211.078 1478.89 195.766 1454.71 181.89C1449.55 178.923 1444.23 175.775 1439.08 172.732C1417.84 160.158 1395.87 147.157 1371.88 138.984C1360.63 135.122 1349.91 132.56 1339.13 131.153C1297.75 125.751 1258 141.923 1231.95 156.439C1214.28 166.238 1198.14 177.344 1182.53 188.086L1179.6 190.098C1165.43 199.843 1152.13 210.531 1138.05 221.848C1115.63 239.869 1092.44 258.501 1064.63 273.822C1048.45 282.802 1031.08 290.316 1013 296.155C981.484 306.336 946.408 313.601 902.624 319.018C879.983 321.819 856.625 323.569 833.195 324.218C813.61 324.739 794.132 324.477 775.297 323.437C718.276 320.301 664.998 309.421 616.94 291.101C596.165 283.18 575.58 273.446 554.011 261.336C517.509 240.885 485.044 219.864 454.923 200.087C450.883 197.436 446.888 194.802 442.922 192.189C401.782 165.087 362.925 139.488 317.258 119.785C287.445 106.922 254.741 96.4325 220.058 88.6064C194.595 82.8615 166.999 78.9607 135.699 76.6808C128.645 76.1702 121.47 75.7501 114.372 75.4329C96.5154 74.6485 77.576 74.5213 57.5237 74.3871C41.4176 74.279 24.7646 74.1675 7.19104 73.7125C-26.7497 72.7591 -65.2164 71.6802 -100.512 73.9391C-118.723 75.1052 -136.104 77.4687 -152.175 80.9651C-209.207 93.3753 -250.004 116.228 -261.307 142.095L-261.771 142.014C-258.792 135.193 -253.813 128.54 -246.973 122.239C-240.433 116.214 -232.156 110.472 -222.373 105.175C-203.662 95.0451 -179.441 86.5741 -152.334 80.6758C-136.228 77.1706 -118.811 74.8019 -100.564 73.6341C-65.2329 71.3734 -26.747 72.4541 7.20752 73.4075C24.7701 73.8607 41.4231 73.974 57.5237 74.082C77.5843 74.2163 96.5291 74.3435 114.402 75.1296C121.506 75.4486 128.689 75.8686 135.749 76.3793C167.087 78.6609 194.716 82.5669 220.215 88.3206C254.938 96.1553 287.678 106.657 317.525 119.534C363.232 139.254 402.109 164.866 443.266 191.98C447.231 194.593 451.229 197.225 455.266 199.877C485.382 219.652 517.836 240.667 554.327 261.111C575.874 273.207 596.437 282.933 617.188 290.843C665.182 309.141 718.392 320.005 775.339 323.137C794.152 324.176 813.61 324.437 833.173 323.916C856.578 323.268 879.915 321.519 902.531 318.722C946.271 313.31 981.305 306.054 1012.78 295.887C1030.82 290.06 1048.16 282.56 1064.31 273.596C1092.09 258.294 1115.26 239.672 1137.66 221.661C1151.75 210.339 1165.06 199.646 1179.24 189.894L1182.17 187.882C1197.79 177.135 1213.94 166.022 1231.62 156.212C1257.76 141.649 1297.65 125.431 1339.22 130.857C1350.05 132.27 1360.81 134.841 1372.11 138.719C1396.15 146.91 1418.14 159.925 1439.41 172.512C1444.55 175.556 1449.87 178.704 1455.03 181.668C1479.22 195.551 1502.99 210.872 1525.68 227.208C1572.6 260.919 1617.51 300.661 1662.97 348.705L1662.57 348.858Z" fill="#FFE492"/>
<path d="M1660.91 336.195C1619.18 287.441 1573.71 245.841 1525.76 212.554C1502.44 196.33 1477.74 181.495 1452.34 168.461C1448.67 166.579 1444.91 164.625 1441.28 162.735C1417.27 150.254 1392.44 137.345 1365.99 130.269C1354.64 127.199 1343.9 125.325 1333.14 124.538C1291.88 121.519 1254.49 139.187 1230.39 154.541C1215.43 164.027 1201.92 174.575 1188.86 184.777C1186.6 186.543 1184.35 188.305 1182.08 190.06C1169.66 199.702 1158.04 210.474 1145.75 221.877C1124.84 241.262 1103.22 261.307 1075.58 277.517C1059.34 287.035 1042.32 294.394 1023.53 300.017C984.243 311.777 944.976 316.129 911.75 318.838C889.277 320.668 865.93 321.47 842.352 321.215C822.827 320.98 803.467 319.999 784.814 318.301C729.504 313.279 676.924 300.821 628.534 281.269C608.399 273.137 587.803 263.149 565.563 250.737C543.098 238.23 522.164 226.194 501.916 214.554C488.157 206.643 475.159 199.171 462.466 192.002C414.485 164.902 370.536 141.075 318.547 123.948C288.093 113.917 255.422 106.2 221.44 101.011C197.084 97.2911 171.05 95.4801 139.511 95.3075C132.707 95.2762 125.776 95.3267 118.914 95.4592C108.491 95.6736 97.7077 96.1215 86.2952 96.5973C64.3935 97.5089 39.5652 98.5425 12.8215 97.9639C2.63733 97.7425 -7.75291 97.4305 -17.8024 97.1272C-43.6503 96.3481 -70.3775 95.5428 -95.5576 96.2627C-114.049 96.7926 -131.537 98.4519 -147.531 101.195C-204.467 110.965 -247.355 130.324 -262.261 152.981L-262.769 152.847C-258.867 146.914 -253.085 141.166 -245.586 135.761C-238.383 130.57 -229.556 125.667 -219.356 121.189C-199.699 112.561 -174.915 105.532 -147.679 100.859C-131.647 98.1085 -114.12 96.444 -95.5878 95.9141C-70.3802 95.1925 -43.642 95.9995 -17.7804 96.7786C-7.73367 97.0819 2.65659 97.3939 12.838 97.6153C39.5569 98.1939 64.3661 97.1621 86.2567 96.2505C97.6748 95.7747 108.461 95.3267 118.895 95.1123C125.765 94.9798 132.701 94.9293 139.513 94.9607C171.096 95.1315 197.169 96.9477 221.566 100.672C255.59 105.868 288.305 113.595 318.797 123.64C342.281 131.375 366.079 141.176 391.55 153.6C414.354 164.722 436.536 176.892 462.829 191.742C475.522 198.913 488.52 206.385 502.282 214.297C522.526 225.934 543.461 237.97 565.92 250.476C588.138 262.876 608.713 272.852 628.823 280.977C677.146 300.502 729.653 312.943 784.885 317.958C803.517 319.654 822.852 320.633 842.354 320.868C865.905 321.123 889.228 320.323 911.673 318.493C944.858 315.789 984.072 311.442 1023.29 299.703C1042.03 294.096 1059.01 286.756 1075.2 277.262C1102.8 261.08 1124.4 241.051 1145.29 221.682C1157.59 210.272 1169.21 199.495 1181.65 189.842C1183.91 188.087 1186.17 186.325 1188.43 184.561C1201.5 174.352 1215.01 163.797 1230 154.299C1245.67 144.31 1261.76 136.625 1277.8 131.459C1296.8 125.339 1315.44 122.896 1333.19 124.196C1344 124.987 1354.8 126.87 1366.2 129.951C1392.71 137.047 1417.57 149.971 1441.61 162.469C1445.25 164.358 1449 166.312 1452.67 168.193C1478.09 181.237 1502.81 196.086 1526.15 212.322C1551.61 229.997 1576.55 250.136 1600.26 272.178C1621.22 291.659 1641.79 313.143 1661.38 336.031L1660.91 336.195Z" fill="#FFE492"/>
<path d="M1659.25 323.529C1620.63 273.378 1575.86 231.044 1526.19 197.702C1502.24 181.581 1476.59 167.226 1449.97 155.032C1448.7 154.452 1447.43 153.871 1446.16 153.289C1418.48 140.593 1389.85 127.465 1360.11 121.554C1348.59 119.264 1337.81 118.077 1327.16 117.924C1286.06 117.335 1251.01 136.48 1228.85 152.643C1215.81 162.098 1204.23 172.462 1193.03 182.484C1190.27 184.963 1187.4 187.525 1184.58 190.021C1173.81 199.527 1163.81 210.336 1153.22 221.78C1133.95 242.597 1114.03 264.121 1086.53 281.209C1070.62 291.096 1053.46 298.51 1034.07 303.879C995.878 314.453 957.095 317.23 920.876 318.656C898.543 319.534 875.204 319.384 851.508 318.211C832.047 317.218 812.81 315.518 794.33 313.162C740.903 306.364 689.02 292.326 640.13 271.436C620.551 263.072 600.529 253.126 577.124 240.137C532.642 215.519 499.611 198.18 470.026 183.917C411.182 155.55 366.271 138.861 319.86 128.113C288.788 120.918 256.15 115.973 222.847 113.415C199.742 111.64 175.221 111.799 143.344 113.934C136.812 114.377 130.129 114.898 123.479 115.485C117.197 116.048 110.816 116.693 104.058 117.375C79.1091 119.893 50.8293 122.748 18.4631 122.215C1.40344 121.934 -16.0218 121.166 -32.8726 120.423C-52.0235 119.58 -71.8257 118.706 -90.6002 118.588C-109.424 118.469 -127.02 119.425 -142.884 121.429C-199.631 128.594 -244.616 144.464 -263.217 163.88L-263.745 163.676C-258.913 158.631 -252.329 153.788 -244.176 149.279C-236.306 144.925 -226.935 140.862 -216.322 137.2C-195.706 130.085 -170.353 124.497 -143.005 121.044C-127.097 119.036 -109.463 118.077 -90.5947 118.196C-71.8038 118.314 -51.9906 119.187 -32.8314 120.033C-15.986 120.775 1.43088 121.544 18.4768 121.825C50.7853 122.356 79.0349 119.505 103.957 116.99C110.717 116.306 117.103 115.663 123.388 115.098C130.046 114.511 136.735 113.99 143.273 113.545C175.199 111.409 199.761 111.248 222.916 113.028C256.266 115.59 288.95 120.542 320.066 127.747C366.541 138.509 411.498 155.215 470.394 183.607C499.99 197.875 533.032 215.22 577.525 239.845C600.914 252.823 620.914 262.758 640.471 271.114C689.295 291.974 741.101 305.993 794.448 312.78C812.904 315.133 832.118 316.829 851.552 317.823C875.221 318.994 898.529 319.144 920.835 318.267C956.999 316.843 995.716 314.073 1033.82 303.523C1053.14 298.176 1070.24 290.785 1086.09 280.934C1113.53 263.882 1133.44 242.381 1152.68 221.587C1163.28 210.135 1173.29 199.318 1184.07 189.798C1186.9 187.304 1189.76 184.742 1192.53 182.263C1203.73 172.232 1215.32 161.861 1228.38 152.39C1242.84 141.841 1258.01 133.497 1273.45 127.589C1291.53 120.667 1309.61 117.288 1327.17 117.537C1337.89 117.69 1348.72 118.884 1360.3 121.185C1390.13 127.116 1418.8 140.262 1446.52 152.977C1447.79 153.559 1449.06 154.142 1450.33 154.72C1476.98 166.928 1502.66 181.301 1526.64 197.439C1576.35 230.811 1621.16 273.178 1659.8 323.364L1659.25 323.529Z" fill="#FFE492"/>
<path d="M934.55 318.475C933.009 318.475 931.489 318.473 929.994 318.468C907.776 318.408 884.446 317.31 860.656 315.201C841.266 313.45 822.151 311.032 803.841 308.018C777.68 303.72 751.425 297.543 725.8 289.659C701.054 282.046 676.132 272.606 651.724 261.599C627.809 250.815 605.47 238.799 588.68 229.535C549.394 207.918 512.015 189.85 477.583 175.831C421.814 153.127 372.116 139.286 321.177 132.274C290.445 128.044 257.475 125.813 225.73 125.813C225.238 125.813 224.749 125.813 224.257 125.814C196.985 125.874 171.094 129.088 147.18 132.553C140.956 133.461 134.517 134.453 128.043 135.504C124.495 136.086 120.942 136.685 117.183 137.32C90.6674 141.801 60.6123 146.878 24.0994 146.462C1.86243 146.207 -20.8499 144.747 -42.8148 143.333C-56.9974 142.42 -71.6608 141.477 -85.6482 140.907C-104.876 140.124 -122.571 140.375 -138.245 141.656C-194.689 146.265 -241.771 158.647 -264.192 174.78L-264.709 174.493C-253.209 166.219 -235.91 159.055 -213.294 153.199C-191.694 147.607 -165.772 143.466 -138.333 141.226C-122.617 139.943 -104.876 139.689 -85.6042 140.475C-71.6031 141.045 -56.9314 141.989 -42.7434 142.903C-20.7922 144.316 1.90637 145.777 24.1131 146.03C60.5326 146.446 90.5354 141.376 117.007 136.903C120.769 136.267 124.322 135.668 127.873 135.085C134.353 134.034 140.797 133.041 147.026 132.133C170.981 128.662 196.917 125.443 224.254 125.382C256.505 125.311 290.066 127.549 321.322 131.852C347.612 135.472 373.1 140.801 399.237 148.142C424.409 155.213 450.157 164.152 477.951 175.469C512.411 189.498 549.817 207.58 589.127 229.211C605.904 238.469 628.226 250.477 652.117 261.249C701.645 283.583 752.75 299.178 804.011 307.602C822.297 310.612 841.387 313.026 860.75 314.776C884.509 316.882 907.807 317.98 929.994 318.037C964.713 318.128 1005.03 317.385 1044.34 307.337C1064.25 302.251 1081.46 294.813 1096.98 284.601C1124.23 266.666 1142.3 243.646 1159.77 221.383C1168.76 209.931 1177.25 199.114 1186.48 189.751C1189.44 186.751 1192.42 183.661 1195.31 180.672C1205.06 170.573 1215.14 160.132 1226.75 150.481C1240.02 139.378 1254.27 130.372 1269.08 123.714C1286.26 115.994 1303.77 111.675 1321.13 110.877C1331.84 110.384 1342.72 110.887 1354.37 112.418C1385.54 116.507 1416.43 128.387 1447.97 141.245C1475.46 152.456 1502.83 166.74 1527.11 182.554C1554.07 200.069 1579.41 220.618 1602.42 243.627C1622.91 264.126 1641.68 286.691 1658.21 310.696L1657.58 310.87C1622.09 259.319 1578.03 216.25 1526.62 182.859C1502.37 167.068 1475.05 152.805 1447.59 141.613C1416.11 128.777 1385.28 116.92 1354.23 112.845C1342.64 111.323 1331.83 110.823 1321.18 111.313C1289.28 112.782 1255.94 126.785 1227.3 150.746C1215.71 160.38 1205.63 170.812 1195.89 180.9C1193.01 183.891 1190.02 186.983 1187.06 189.983C1177.85 199.329 1169.37 210.137 1160.39 221.578C1151.81 232.501 1142.95 243.798 1132.78 254.657C1121.24 266.967 1109.7 276.861 1097.48 284.905C1081.89 295.162 1064.6 302.633 1044.6 307.743C1026.97 312.25 1008.02 315.229 986.661 316.854C968.576 318.222 950.412 318.475 934.55 318.475Z" fill="#FFE492"/>
<path d="M978.618 319.349C964.606 319.349 951.146 318.819 939.104 318.282C916.963 317.296 893.644 315.248 869.796 312.194C850.489 309.686 831.494 306.552 813.341 302.876C763.632 292.831 714.555 276.111 663.307 251.763C640.958 241.146 619.889 229.722 600.229 218.933C561.417 197.695 522.697 180.474 485.14 167.747C429.905 149.029 378.225 139.078 322.501 136.432C290.751 134.924 257.269 135.54 225.672 138.21C199.225 140.445 174.292 145.837 151.017 151.167C145.194 152.508 139 153.972 132.61 155.518C131.014 155.907 129.404 156.302 127.771 156.701C100.964 163.276 70.6317 170.715 31.7032 170.715C31.0465 170.715 30.3925 170.713 29.7302 170.708C3.39319 170.539 -23.4962 168.155 -49.5034 165.847C-59.8139 164.932 -70.4763 163.987 -80.7071 163.222C-100.691 161.73 -117.998 161.289 -133.62 161.878C-190.441 164.022 -238.402 172.695 -265.201 185.679L-265.66 185.297C-252.411 178.879 -233.255 173.307 -210.268 169.183C-187.657 165.127 -161.169 162.436 -133.667 161.399C-118 160.808 -100.649 161.249 -80.6219 162.744C-70.3801 163.51 -59.715 164.456 -49.4017 165.369C-23.4192 167.674 3.4454 170.056 29.7329 170.225C69.472 170.483 100.299 162.92 127.494 156.25C129.123 155.851 130.736 155.455 132.333 155.065C138.728 153.517 144.924 152.053 150.753 150.713C174.067 145.372 199.047 139.972 225.565 137.731C257.211 135.057 290.748 134.44 322.551 135.949C350.165 137.26 376.494 140.356 403.04 145.41C430.38 150.617 457.349 157.782 485.489 167.32C523.093 180.065 561.862 197.306 600.716 218.566C620.367 229.351 641.422 240.768 663.753 251.374C714.932 275.689 763.934 292.385 813.564 302.414C831.689 306.083 850.659 309.213 869.939 311.718C893.753 314.768 917.04 316.815 939.148 317.798C976.351 319.454 1015.93 320.304 1054.86 311.141C1075.35 306.318 1092.69 298.834 1107.86 288.259C1134.89 269.423 1151.72 243.729 1166.57 221.06C1174.04 209.654 1181.09 198.88 1188.88 189.696C1191.69 186.383 1194.52 182.958 1197.25 179.646C1205.8 169.284 1214.64 158.57 1225.11 148.563C1237.22 136.906 1250.55 127.238 1264.71 119.827C1280.98 111.316 1297.92 106.059 1315.07 104.206C1325.79 103.047 1336.71 102.862 1348.44 103.636C1381.21 105.803 1414.5 116.508 1445.6 127.756C1474.31 138.14 1502.66 151.938 1527.58 167.656C1555.29 185.09 1580.83 205.843 1603.48 229.337C1623.74 250.347 1641.62 273.452 1656.62 298.015L1655.92 298.187C1624.02 245.978 1579.46 200.958 1527.04 167.994C1502.18 152.306 1473.88 138.534 1445.23 128.17C1414.2 116.949 1381 106.27 1348.36 104.112C1336.7 103.341 1325.86 103.526 1315.21 104.677C1283.54 108.098 1251.77 123.776 1225.75 148.825C1215.3 158.81 1206.47 169.514 1197.92 179.866C1195.19 183.179 1192.36 186.604 1189.55 189.921C1181.78 199.084 1174.73 209.847 1167.27 221.241C1152.4 243.945 1135.54 269.681 1108.42 288.58C1093.16 299.212 1075.73 306.738 1055.13 311.589C1037.25 315.797 1017.96 318.234 996.161 319.034C990.267 319.26 984.397 319.349 978.618 319.349Z" fill="#FFE492"/>
<path d="M1006.28 321.236C1006.08 321.236 1005.88 321.236 1005.68 321.236C985.875 321.204 966.433 319.667 948.213 318.095C926.106 316.188 902.8 313.188 878.939 309.183C859.719 305.922 840.846 302.068 822.846 297.731C775.124 286.25 728.114 268.519 674.898 241.926C655.734 232.351 636.874 222.042 618.633 212.073C616.352 210.825 614.068 209.579 611.785 208.333C572.771 187.1 532.708 170.724 492.71 159.663C437.94 144.518 382.702 138.279 323.839 140.588C291.564 141.855 258.112 145.318 227.101 150.603C202.632 154.774 180.83 161.466 154.866 169.78C149.604 171.472 143.984 173.299 137.186 175.53L136.806 175.655C123.69 179.988 108.823 184.898 92.1483 188.632C72.9974 192.92 54.418 194.983 35.366 194.959C5.65723 194.912 -24.6617 191.405 -53.9803 188.011C-61.1636 187.18 -68.5942 186.321 -75.7665 185.543C-96.3354 183.318 -113.747 182.193 -128.996 182.108C-185.143 181.794 -235.163 187.072 -266.226 196.585L-266.583 196.115C-251.368 191.454 -230.843 187.672 -207.229 185.176C-183.571 182.674 -156.514 181.433 -128.987 181.587C-113.695 181.672 -96.2393 182.798 -75.6264 185.029C-68.4486 185.807 -61.0179 186.666 -53.8319 187.497C-24.549 190.886 5.73141 194.389 35.3688 194.436C35.5007 194.436 35.6353 194.436 35.7672 194.436C78.1609 194.436 110.458 183.769 136.427 175.192L136.809 175.066C143.61 172.833 149.23 171.007 154.495 169.314C180.503 160.986 202.344 154.283 226.889 150.1C257.953 144.804 291.459 141.336 323.79 140.067C352.594 138.937 379.764 139.798 406.857 142.702C436.052 145.831 464.244 151.222 493.04 159.186C533.114 170.268 573.246 186.669 612.323 207.937C614.607 209.184 616.89 210.432 619.171 211.68C637.404 221.644 656.259 231.951 675.407 241.518C728.553 268.078 775.495 285.785 823.137 297.247C841.112 301.578 859.958 305.425 879.15 308.682C902.978 312.683 926.251 315.677 948.323 317.58C987.859 320.993 1026.56 323.36 1065.39 314.966C1086.47 310.41 1103.92 302.878 1118.75 291.939C1145.55 272.179 1160.18 244.798 1173.1 220.639C1179.14 209.328 1184.85 198.644 1191.29 189.666C1193.77 186.211 1196.26 182.638 1198.66 179.181C1206.18 168.375 1213.96 157.202 1223.49 146.668C1234.46 134.451 1246.87 124.118 1260.35 115.958C1275.72 106.657 1292.09 100.466 1309.03 97.5587C1319.53 95.7564 1330.24 94.8779 1341.76 94.8779C1342.01 94.8779 1342.26 94.8779 1342.51 94.8797C1378.31 94.9982 1415.14 105.313 1443.24 114.286C1473.17 123.847 1502.5 137.156 1528.06 152.777C1556.53 170.13 1582.27 191.088 1604.56 215.07C1624.57 236.59 1641.55 260.238 1655.04 285.358L1654.26 285.527C1634.19 248.15 1595.89 194.846 1527.48 153.155C1501.99 137.569 1472.72 124.291 1442.87 114.753C1414.85 105.805 1378.13 95.5194 1342.51 95.4026C1330.78 95.359 1319.9 96.234 1309.25 98.0641C1277.87 103.452 1247.67 120.805 1224.2 146.927C1214.69 157.438 1206.93 168.598 1199.42 179.392C1197.01 182.85 1194.52 186.425 1192.05 189.882C1185.62 198.837 1179.92 209.508 1173.88 220.806C1160.94 245.009 1146.28 272.442 1119.38 292.279C1104.45 303.291 1086.88 310.873 1065.66 315.459C1047.68 319.344 1028.25 321.236 1006.28 321.236Z" fill="#FFE492"/>
<path d="M1028.27 323.69C1024 323.69 1019.65 323.602 1015.18 323.428C995.65 322.666 976.667 320.381 957.321 317.906C934.894 315.037 912.245 311.199 888.079 306.173C868.958 302.16 850.208 297.59 832.349 292.586C787.042 279.911 742.057 261.252 686.49 232.088C672.689 224.846 658.894 217.25 645.553 209.903C638.29 205.905 630.782 201.769 623.343 197.73C583.865 176.354 542.463 160.828 500.287 151.579C444.56 139.359 387.286 137.121 325.186 144.738C292.377 148.763 258.956 155.074 228.538 162.989C204.103 169.347 182.817 178.277 160.28 187.731L158.722 188.384C155.202 189.866 151.643 191.368 148.041 192.888C145.966 193.765 143.877 194.647 141.77 195.536C128.629 201.108 114.435 206.921 98.1586 211.395C79.2605 216.59 60.5685 219.145 41.0081 219.208C8.44406 219.309 -24.7712 214.508 -56.89 209.862C-61.4737 209.198 -66.2168 208.513 -70.8197 207.862C-92.3999 204.812 -109.413 203.057 -124.368 202.335C-179.553 199.674 -231.634 201.549 -267.259 207.482L-267.487 206.935C-231.768 200.986 -179.581 199.104 -124.299 201.771C-109.303 202.494 -92.246 204.254 -70.6246 207.31C-66.0189 207.962 -61.2759 208.647 -56.6894 209.311C-24.9636 213.9 7.8313 218.643 39.9638 218.643C40.3101 218.643 40.6564 218.643 41.0054 218.641C82.5664 218.509 112.151 207.413 141.278 195.065C143.385 194.176 145.474 193.294 147.549 192.418C151.151 190.896 154.707 189.395 158.23 187.912L159.788 187.258C182.363 177.789 203.685 168.844 228.2 162.464C258.673 154.534 292.152 148.212 325.018 144.18C387.275 136.544 444.703 138.789 500.581 151.042C542.862 160.315 584.36 175.877 623.926 197.3C631.365 201.34 638.875 205.474 646.138 209.475C659.474 216.82 673.266 224.414 687.059 231.651C742.56 260.781 787.482 279.414 832.709 292.068C850.544 297.064 869.266 301.629 888.359 305.634C912.489 310.654 935.106 314.487 957.499 317.35C991.492 321.699 1033.8 327.113 1075.93 318.774C1097.59 314.488 1115.16 306.91 1129.64 295.605C1156.18 274.898 1168.48 245.774 1179.34 220.081C1184.05 208.919 1188.51 198.375 1193.71 189.625C1195.73 186.216 1197.76 182.69 1199.73 179.279C1206.31 167.84 1213.12 156.012 1221.86 144.762C1231.73 131.978 1243.21 120.981 1255.98 112.078C1270.46 101.989 1286.27 94.8657 1302.98 90.9039C1313.7 88.3609 1324.69 86.7939 1336.57 86.1124C1352.49 85.1991 1369.43 86.1752 1388.37 89.0894C1404.39 91.5575 1421.56 95.3886 1440.88 100.804C1472.02 109.538 1502.33 122.361 1528.53 137.886C1557.77 155.158 1583.71 176.323 1605.64 200.791C1625.39 222.824 1641.48 247.014 1653.46 272.69L1652.6 272.85C1627.3 218.643 1583.02 170.859 1527.92 138.301C1501.79 122.818 1471.57 110.032 1440.51 101.324C1398.9 89.6559 1365.9 85.0004 1336.65 86.6772C1324.85 87.3534 1313.94 88.9099 1303.29 91.4338C1263.54 100.858 1237.5 125.773 1222.66 145.012C1213.94 156.233 1207.14 168.047 1200.56 179.472C1198.6 182.885 1196.57 186.413 1194.54 189.824C1189.36 198.548 1184.91 209.079 1180.2 220.227C1169.32 245.976 1156.99 275.161 1130.34 295.962C1115.74 307.356 1098.02 314.996 1076.19 319.316C1061.39 322.245 1045.61 323.69 1028.27 323.69Z" fill="#FFE492"/>
<path d="M1047.32 326.504C1018.26 326.504 990.324 321.768 966.422 317.717C943.935 313.907 921.297 309.145 897.213 303.161C878.2 298.403 859.571 293.115 841.846 287.441C788.713 270.454 741.346 246.071 698.075 222.252C689.24 217.389 680.315 212.376 671.686 207.529C659.705 200.797 647.314 193.837 634.898 187.13C594.829 165.543 552.09 150.862 507.869 143.494C450.663 133.965 391.347 135.728 326.532 148.884C293.16 155.657 259.772 164.816 229.975 175.372C206.994 183.512 187.549 193.788 166.963 204.668C165.504 205.439 164.042 206.213 162.572 206.986L161.775 207.408C156.771 210.056 151.596 212.792 146.35 215.539C133.781 222.15 119.939 228.988 103.929 234.212C85.3445 240.276 66.6084 243.3 46.6441 243.457C11.6014 243.734 -24.1146 237.485 -58.6517 231.442C-61.0727 231.019 -63.4827 230.597 -65.8817 230.18C-88.6573 226.217 -105.272 223.867 -119.748 222.56C-173.549 217.704 -227.696 216.177 -268.306 218.372L-268.389 217.763C-227.712 215.564 -173.486 217.092 -119.614 221.955C-105.096 223.266 -88.4457 225.621 -65.6289 229.591C-63.2299 230.008 -60.8199 230.43 -58.3961 230.855C-23.925 236.886 11.7223 243.119 46.6304 242.847C89.9858 242.505 120.519 228.329 145.735 215.069C150.981 212.322 156.155 209.585 161.159 206.939L161.956 206.518C163.427 205.742 164.889 204.97 166.348 204.199C186.969 193.3 206.447 183.006 229.505 174.839C259.357 164.264 292.809 155.089 326.238 148.303C356.967 142.067 385.829 138.466 414.472 137.295C446.423 135.989 477.926 137.877 508.11 142.905C552.472 150.296 595.338 165.019 635.519 186.665C647.943 193.375 660.337 200.337 672.321 207.07C680.95 211.917 689.87 216.928 698.702 221.79C741.928 245.583 789.238 269.94 842.275 286.896C859.975 292.56 878.576 297.842 897.562 302.593C921.61 308.568 944.212 313.323 966.666 317.128C1001.14 322.971 1044.05 330.242 1086.45 322.591C1108.69 318.575 1126.38 310.949 1140.52 299.278C1166.78 277.597 1176.61 246.681 1185.28 219.404C1188.76 208.444 1192.05 198.092 1196.11 189.591C1197.61 186.447 1199.11 183.198 1200.57 180.055C1206.27 167.764 1212.16 155.052 1220.22 142.863C1228.99 129.5 1239.55 117.836 1251.59 108.199C1265.19 97.3242 1280.43 89.2681 1296.91 84.2535C1307.61 80.9976 1318.64 78.7404 1330.62 77.3512C1346.77 75.481 1364.69 75.5438 1383.88 77.5377C1400.68 79.2842 1419.06 82.5767 1438.49 87.3264C1470.85 95.2344 1502.15 107.57 1528.99 122.999C1558.98 140.19 1585.13 161.559 1606.7 186.515C1626.19 209.061 1641.39 233.794 1651.87 260.026L1650.93 260.176C1628.73 204.592 1585.2 156.035 1528.35 123.452C1501.59 108.073 1470.4 95.7782 1438.15 87.8964C1396.34 77.6807 1361.23 74.4265 1330.8 77.9526C1318.9 79.3313 1307.95 81.5728 1297.32 84.8043C1258.12 96.7351 1234.24 123.089 1221.11 143.099C1213.07 155.256 1207.18 167.95 1201.49 180.226C1200.04 183.369 1198.53 186.62 1197.03 189.767C1192.98 198.24 1189.7 208.578 1186.22 219.524C1182.05 232.647 1177.32 247.52 1170.46 261.464C1162.6 277.44 1153.05 289.93 1141.28 299.649C1134.48 305.269 1126.66 310.051 1118.04 313.865C1108.76 317.966 1098.22 321.1 1086.71 323.178C1073.54 325.557 1060.32 326.504 1047.32 326.504Z" fill="#FFE492"/>
<path d="M1064.5 329.589C1054.89 329.589 1044.83 328.996 1034.19 327.813C1013.25 325.483 993.209 321.254 975.523 317.526C953.231 312.825 929.956 306.977 906.347 300.146C887.455 294.649 868.947 288.643 851.343 282.291C800.815 264.082 757.284 239.87 709.661 212.411C705.429 209.971 701.131 207.482 696.976 205.073C680.612 195.593 663.692 185.79 646.454 176.528C605.72 154.688 561.644 140.854 515.45 135.409C457.181 128.54 394.07 134.466 327.879 153.025C293.913 162.549 260.555 174.555 231.412 187.748C209.47 197.681 191.407 209.392 172.283 221.792C170.341 223.052 168.389 224.316 166.427 225.585C161.544 228.746 156.284 232.14 150.934 235.537C139.714 242.685 126.04 250.83 109.703 257.023C91.4147 263.957 72.632 267.451 52.2857 267.704C15.039 268.169 -22.8754 260.347 -59.5421 252.782L-60.9381 252.495C-78.8909 248.793 -97.8825 245.052 -115.124 242.781C-167.677 235.86 -222.447 231.054 -269.342 229.25L-269.279 228.598C-222.335 230.404 -167.514 235.213 -114.915 242.141C-97.6242 244.419 -78.5996 248.165 -60.6194 251.872L-59.2234 252.16C-22.6363 259.707 15.2012 267.511 52.2664 267.049C95.0723 266.515 124.635 251.365 150.206 235.072C155.556 231.676 160.81 228.283 165.694 225.123C167.656 223.856 169.607 222.59 171.55 221.332C190.706 208.911 208.802 197.179 230.816 187.213C260.014 173.994 293.435 161.965 327.464 152.424C358.519 143.718 389.08 137.718 418.291 134.595C451.669 131.027 484.422 131.083 515.643 134.762C562.013 140.228 606.25 154.111 647.121 176.026C664.374 185.297 681.301 195.103 697.674 204.589C701.829 206.996 706.127 209.485 710.359 211.925C757.935 239.358 801.42 263.544 851.857 281.721C869.436 288.062 887.917 294.06 906.782 299.55C930.357 306.371 953.594 312.21 975.853 316.904C1010.74 324.263 1054.17 333.418 1096.99 326.403C1119.83 322.661 1137.63 314.99 1151.41 302.949C1177.38 280.264 1184.9 246.072 1190.94 218.597C1193.29 207.895 1195.51 197.787 1198.52 189.56C1199.47 186.967 1200.43 184.295 1201.36 181.71C1206.17 168.282 1211.14 154.395 1218.6 140.967C1230.13 120.071 1252.02 92.1165 1290.86 77.6096C1301.58 73.6042 1312.65 70.655 1324.69 68.5948C1356.18 63.127 1393.68 64.8962 1436.13 73.8499C1469.7 80.9317 1501.98 92.7789 1529.47 108.112C1560.22 125.221 1586.57 146.796 1607.78 172.242C1617.52 183.913 1626.11 196.379 1633.35 209.293C1640.26 221.628 1645.95 234.437 1650.29 247.365L1649.28 247.501C1630.19 190.536 1587.4 141.208 1528.79 108.602C1501.4 93.3262 1469.25 81.5243 1435.8 74.4687C1393.55 65.555 1356.25 63.7911 1324.96 69.224C1313.01 71.2686 1302.03 74.1951 1291.38 78.1708C1252.8 92.5767 1231.04 120.388 1219.58 141.182C1212.13 154.575 1207.17 168.442 1202.36 181.853C1201.44 184.438 1200.48 187.111 1199.53 189.707C1196.53 197.906 1194.31 208 1191.96 218.686C1188.92 232.511 1185.48 248.181 1179.59 262.97C1172.83 279.964 1163.88 293.168 1152.25 303.333C1145.61 309.132 1137.84 314.022 1129.17 317.867C1119.82 322.011 1109.08 325.096 1097.24 327.034C1086.85 328.739 1076 329.589 1064.5 329.589Z" fill="#FFE492"/>
<path d="M1080.33 332.85C1068.81 332.85 1056.67 331.904 1043.7 330.005C1022.68 326.932 1002.46 321.832 984.622 317.332C962.162 311.667 938.9 304.871 915.482 297.131C896.713 290.9 878.328 284.175 860.84 277.142C812.717 257.804 771.442 232.879 727.742 206.493C725.58 205.188 723.417 203.881 721.249 202.573C700.927 190.317 679.916 177.642 658.012 165.929C616.569 143.812 571.158 130.823 523.04 127.323C462.6 122.925 397.392 132.967 329.225 157.165C295.128 169.268 260.901 184.525 232.849 200.123C211.668 211.9 194.679 225.152 176.694 239.183C174.564 240.844 172.429 242.511 170.277 244.18C165.979 247.522 160.865 251.484 155.512 255.536C145.597 263.06 132.088 272.623 115.473 279.816C97.4766 287.609 78.6526 291.581 57.9243 291.956C40.8867 292.226 22.0847 290.558 0.441315 286.854C-18.1408 283.675 -36.1155 279.52 -56.0057 274.813C-74.1618 270.465 -93.3237 265.973 -110.515 263.006C-161.439 254.218 -215.229 246.523 -270.387 240.13L-270.189 239.445C-214.998 245.84 -161.178 253.542 -110.227 262.334C-92.9885 265.309 -73.7991 269.808 -55.621 274.16C-22.282 282.05 19.2103 291.874 57.8941 291.259C102.121 290.457 130.543 273.4 154.668 255.086C160.019 251.037 165.13 247.077 169.425 243.738C171.577 242.068 173.712 240.402 175.839 238.742C193.855 224.688 210.874 211.414 232.124 199.598C260.233 183.969 294.526 168.683 328.689 156.557C397.063 132.285 462.496 122.218 523.166 126.631C546.428 128.324 569.278 132.254 591.075 138.313C614.464 144.812 637.223 153.926 658.721 165.397C680.65 177.122 701.675 189.804 722.007 202.07C724.176 203.379 726.341 204.684 728.504 205.99C772.161 232.352 813.401 257.253 861.431 276.555C878.894 283.577 897.251 290.293 915.993 296.514C939.378 304.242 962.605 311.029 985.031 316.685C1020.28 325.575 1064.14 336.637 1107.52 330.222C1131.01 326.746 1148.93 319.028 1162.29 306.628C1188.04 282.945 1192.62 246.765 1196.3 217.696C1197.62 207.299 1198.87 197.479 1200.93 189.537C1201.36 187.899 1201.78 186.252 1202.21 184.596C1206.06 169.639 1210.05 154.172 1216.97 139.078C1226.86 117.367 1246.65 87.9279 1284.8 70.972C1295.44 66.2415 1306.54 62.6022 1318.74 59.8448C1335.7 55.9771 1354.6 54.1591 1374.91 54.438C1393.45 54.6925 1413.25 56.6917 1433.75 60.3781C1468.54 66.6302 1501.8 77.9893 1529.94 93.2266C1561.45 110.252 1588 132.036 1608.85 157.97C1618.42 169.87 1626.71 182.592 1633.48 195.783C1639.96 208.416 1645.09 221.513 1648.7 234.709L1647.61 234.827C1631.88 177.324 1588.73 125.906 1529.23 93.7565C1501.2 78.5854 1468.09 67.2734 1433.45 61.0457C1390.74 53.3661 1351.2 53.1778 1319.1 60.4984C1307 63.2349 1295.98 66.8464 1285.42 71.5402C1247.54 88.3793 1227.87 117.667 1218.03 139.27C1211.12 154.324 1207.14 169.768 1203.29 184.706C1202.87 186.362 1202.44 188.011 1202.01 189.649C1199.96 197.56 1198.71 207.368 1197.4 217.75C1193.7 246.903 1189.1 283.187 1163.2 307.022C1156.76 312.999 1149.05 318.001 1140.31 321.887C1130.9 326.066 1119.95 329.099 1107.77 330.901C1098.97 332.198 1089.87 332.85 1080.33 332.85Z" fill="#FFE492"/>
<path d="M1095.2 336.242C1082.08 336.242 1068.18 334.897 1053.2 332.195C1032.01 328.373 1011.66 322.403 993.716 317.137C971.033 310.482 947.782 302.735 924.608 294.114C905.974 287.159 887.714 279.715 870.33 271.992C827.524 252.979 790.939 229.688 752.206 205.028C745.875 200.996 739.326 196.829 732.83 192.731C709.994 178.334 690.494 166.462 669.562 155.326C627.38 132.917 580.636 120.773 530.625 119.232C467.784 117.296 400.471 131.449 330.561 161.298C295.832 176.127 261.636 194.307 234.274 212.49C213.661 226.188 197.546 241.099 180.487 256.885C178.373 258.841 176.252 260.804 174.117 262.768C170.313 266.273 165.279 270.892 160.083 275.523C138.214 295.059 109.643 315.171 63.5557 316.2C62.1185 316.229 60.6758 316.243 59.2358 316.243C23.2478 316.243 -13.4932 307.209 -51.0806 297.122L-53.4274 296.488C-72.0452 291.447 -89.6325 286.687 -105.912 283.222C-167.261 270.164 -226.594 259.141 -271.43 250.998L-271.109 250.285C-226.261 258.431 -166.912 269.456 -105.541 282.52C-89.2175 285.993 -71.611 290.76 -52.9684 295.806L-50.6244 296.441C-11.6602 306.897 26.3915 316.224 63.5145 315.46C109.09 314.443 137.422 294.485 159.129 275.096C164.323 270.469 169.352 265.853 173.155 262.35C175.29 260.384 177.409 258.423 179.522 256.467C196.609 240.656 212.748 225.721 233.427 211.979C260.844 193.758 295.109 175.542 329.907 160.683C362.205 146.892 394.513 136.303 425.934 129.208C461.985 121.066 497.229 117.461 530.68 118.492C580.95 120.039 627.93 132.242 670.31 154.756C691.271 165.91 710.791 177.794 733.649 192.203C740.148 196.301 746.696 200.47 753.03 204.501C791.725 229.137 828.274 252.406 870.997 271.38C888.357 279.095 906.59 286.527 925.196 293.471C948.337 302.081 971.553 309.817 994.202 316.461C1029.76 326.893 1074 339.875 1118.04 334.03C1142.12 330.835 1160.15 323.072 1173.17 310.298C1198.59 285.535 1200.11 247.32 1201.34 216.613C1201.74 206.595 1202.12 197.13 1203.33 189.505L1203.36 189.33C1206.08 172.254 1208.89 154.598 1215.33 137.177C1220.92 121.981 1228.69 108.319 1238.44 96.5682C1249.43 83.3197 1262.98 72.4713 1278.72 64.3228C1289.25 58.8707 1300.39 54.5394 1312.78 51.083C1346.24 41.69 1387.25 40.2398 1431.36 46.8929C1449.12 49.5701 1466.63 53.626 1483.42 58.9457C1500.31 64.2966 1516.12 70.8207 1530.4 78.333C1562.68 95.2766 1589.43 117.266 1609.92 143.692C1628.34 167.444 1641.2 194.538 1647.11 222.045L1645.95 222.144C1633.31 163.273 1590.92 111.063 1529.66 78.9029C1501.01 63.84 1466.93 53.0195 1431.1 47.6179C1387.23 41.0033 1346.48 42.4377 1313.26 51.7663C1300.97 55.1965 1289.92 59.493 1279.47 64.9015C1250.08 80.1161 1228.3 105.168 1216.48 137.349C1210.05 154.725 1207.24 172.357 1204.53 189.409L1204.5 189.583C1203.29 197.181 1202.91 206.631 1202.51 216.636C1201.28 247.437 1199.74 285.767 1174.15 310.704C1167.87 316.864 1160.22 321.974 1151.42 325.892C1141.94 330.117 1130.79 333.1 1118.28 334.761C1110.84 335.747 1103.16 336.242 1095.2 336.242Z" fill="#FFE492"/>
<path d="M64.4097 340.513C48.3174 340.513 30.7932 338.524 11.0158 334.463C-8.63528 330.428 -28.0693 324.857 -46.1458 319.44C-49.4186 318.453 -52.6668 317.468 -55.893 316.491C-71.9524 311.622 -87.1214 307.024 -101.298 303.443C-157.828 289.166 -211.711 276.334 -263.822 263.927L-272.456 261.87L-272.022 261.137L-263.387 263.193C-211.274 275.603 -157.383 288.435 -100.842 302.716C-86.6268 306.306 -71.4385 310.91 -55.3598 315.785C-52.1364 316.763 -48.8883 317.747 -45.6181 318.732C-8.51166 329.852 30.9114 340.629 69.1473 339.669C116.149 338.428 144.317 315.204 163.602 295.113C168.543 289.974 173.303 284.854 176.897 280.967C178.881 278.825 180.851 276.684 182.816 274.549C199.112 256.849 214.504 240.13 234.746 224.366C261.465 203.562 295.697 182.412 331.141 164.817C364.023 148.492 397.206 135.594 429.77 126.482C467.121 116.029 503.603 110.605 538.204 110.359C590.268 109.867 638.624 121.228 681.911 144.122C705.907 156.829 727.421 170.574 745.305 182.345C755.036 188.75 764.767 195.316 774.179 201.666C807.493 224.145 841.942 247.388 880.576 266.214C897.834 274.626 915.949 282.776 934.413 290.436C957.263 299.896 980.467 308.579 1003.39 316.245C1039.21 328.226 1083.79 343.138 1128.58 337.846C1153.23 334.933 1171.38 327.125 1184.05 313.974C1209.13 288.089 1207.44 247.78 1206.08 215.392C1205.68 205.814 1205.29 196.766 1205.75 189.482C1206.78 173.061 1208.33 153.977 1213.71 135.285C1218.24 119.447 1225.09 105.118 1234.05 92.6971C1244.19 78.6468 1257.18 66.8676 1272.67 57.6855C1282.92 51.6007 1294.42 46.4362 1306.83 42.3332C1324.55 36.4593 1344.42 32.7659 1365.92 31.3576C1386.04 30.0381 1407.26 30.7318 1428.99 33.4178C1447.31 35.6837 1465.37 39.4102 1482.66 44.4963C1500.06 49.6137 1516.28 55.9896 1530.88 63.4461C1547.7 72.0321 1563.17 82.1711 1576.85 93.5825C1589.81 104.394 1601.3 116.452 1611 129.42C1629.14 153.681 1641.08 181.335 1645.52 209.389L1644.29 209.467C1634.75 149.224 1593.13 96.2249 1530.1 64.0579C1501.23 49.3087 1465.24 38.7008 1428.75 34.1882C1383.63 28.6089 1341.67 31.6661 1307.41 43.0287C1295.09 47.0986 1283.69 52.223 1273.51 58.259C1244.34 75.5599 1224.63 101.522 1214.93 135.427C1209.56 154.068 1208.01 173.119 1206.99 189.513C1206.53 196.771 1206.91 205.805 1207.31 215.371C1207.98 231.349 1208.74 249.46 1206.19 266.969C1203.23 287.285 1196.34 302.794 1185.11 314.383C1179 320.724 1171.41 325.945 1162.55 329.898C1152.99 334.168 1141.64 337.102 1128.81 338.616C1122.34 339.381 1115.87 339.728 1109.44 339.728C1070.95 339.728 1033.65 327.252 1002.81 316.937C979.859 309.259 956.619 300.563 933.739 291.09C915.248 283.419 897.108 275.257 879.826 266.833C841.112 247.968 806.627 224.701 773.28 202.201C763.871 195.853 754.143 189.289 744.417 182.887C726.558 171.13 705.074 157.404 681.122 144.722C638.069 121.95 589.995 110.655 538.223 111.14C456.917 111.718 381.149 140.981 331.904 165.43C296.532 182.991 262.369 204.095 235.707 224.858C215.526 240.575 200.156 257.267 183.885 274.939C181.92 277.075 179.947 279.215 177.963 281.359C174.366 285.247 169.604 290.372 164.66 295.515C156.564 303.95 143.855 316.227 127.021 325.43C118.845 329.9 110.145 333.412 101.162 335.871C91.1452 338.613 80.3895 340.154 69.1995 340.448C67.6139 340.492 66.0173 340.513 64.4097 340.513Z" fill="#FFE492"/>
<path d="M69.5768 364.777C53.4651 364.777 35.9768 362.635 16.3037 358.264C-4.06458 353.739 -24.2021 347.377 -41.2123 341.749C-46.439 340.016 -51.6547 338.259 -56.7001 336.56C-70.8029 331.81 -84.1253 327.322 -96.6865 323.658C-141.795 310.499 -186.61 297.651 -229.952 285.225C-244.288 281.115 -259.111 276.866 -273.477 272.739L-272.939 271.984C-258.572 276.111 -243.749 280.361 -229.413 284.471C-186.071 296.896 -141.251 309.746 -96.1396 322.907C-83.5455 326.581 -70.2066 331.073 -56.0873 335.83C-51.0447 337.529 -45.8289 339.284 -40.6077 341.017C-5.32867 352.684 35.592 365.035 74.776 363.873C122.886 362.412 149.907 337.053 168.077 315.125C172.735 309.507 177.239 303.867 180.641 299.581C182.388 297.381 184.125 295.183 185.859 292.99C201.446 273.268 216.167 254.641 236.068 236.753C261.952 213.487 296.156 189.408 332.375 168.95C382.815 140.583 460.773 105.981 545.726 102.228C599.752 99.7777 649.477 110.295 693.514 133.491C713.3 143.917 732.866 155.944 756.96 172.49C769.137 180.851 781.22 189.518 792.904 197.896C823.306 219.696 854.738 242.238 890.157 261.054C907.315 270.171 925.307 279.038 943.63 287.408C965.818 297.533 989.014 307.164 1012.57 316.036C1048.75 329.581 1093.78 346.441 1139.11 341.669C1163.97 339.107 1182.75 331.028 1194.94 317.659C1219.67 290.603 1214.36 246.337 1210.48 214.017C1209.4 204.947 1208.37 196.38 1208.17 189.469C1207.72 174.109 1207.76 153.858 1212.09 133.404C1219.57 97.9598 1237.91 70.2531 1266.61 51.0575C1276.67 44.2947 1288.2 38.4191 1300.89 33.5927C1318.94 26.7183 1339.31 22.0942 1361.43 19.8509C1382.26 17.7384 1404.19 17.7716 1426.61 19.9503C1445.52 21.8292 1464.12 25.2351 1481.89 30.0701C1499.83 34.954 1516.47 41.1765 1531.35 48.565C1548.55 57.1022 1564.26 67.2761 1578.05 78.806C1591.12 89.7328 1602.56 101.962 1612.08 115.156C1629.94 139.928 1640.96 168.14 1643.94 196.742L1642.64 196.796C1636.22 135.178 1595.36 81.3874 1530.55 49.2187C1501.16 34.6246 1464.18 24.5204 1426.41 20.7695C1379.86 16.2464 1336.69 20.9264 1301.57 34.3039C1288.98 39.0901 1277.54 44.9187 1267.56 51.6275C1239.06 70.6958 1220.83 98.2456 1213.39 133.515C1209.06 153.913 1209.03 174.125 1209.48 189.455C1209.68 196.341 1210.7 204.898 1211.79 213.956C1213.79 230.663 1216.06 249.6 1214.77 268.088C1213.25 289.616 1207.14 305.967 1196.07 318.076C1190.11 324.607 1182.58 329.94 1173.68 333.928C1164.04 338.253 1152.48 341.132 1139.33 342.488C1118.94 344.634 1096.99 342.706 1072.24 336.593C1050.72 331.279 1030.1 323.561 1011.91 316.753C988.318 307.869 965.092 298.223 942.872 288.084C924.521 279.702 906.505 270.823 889.321 261.693C853.828 242.839 822.36 220.273 791.929 198.45C780.25 190.074 768.169 181.413 756.004 173.058C731.951 156.542 712.42 144.538 692.681 134.136C648.905 111.072 599.496 100.618 545.814 103.053C461.227 106.792 383.527 141.287 333.238 169.569C297.091 189.985 262.957 214.014 237.129 237.23C217.283 255.068 202.584 273.669 187.022 293.362C185.288 295.556 183.551 297.754 181.803 299.954C178.398 304.243 173.892 309.889 169.228 315.512C150.899 337.635 123.606 363.221 74.8337 364.701C73.0997 364.751 71.3438 364.777 69.5768 364.777Z" fill="#FFE492"/>
<path d="M74.8472 389.045C30.8239 389.045 -15.3675 371.896 -56.3157 356.692C-68.8988 352.02 -80.784 347.607 -92.0784 343.875L-274.5 283.608L-273.865 282.836L-91.4436 343.103C-80.119 346.844 -68.2201 351.262 -55.6204 355.94C-13.0894 371.732 35.1191 389.631 80.4037 388.079C129.574 386.397 155.477 358.903 172.55 335.141C178.134 327.369 183.526 319.461 188.741 311.813C203.006 290.897 217.755 269.268 237.384 249.138C252.971 233.155 272.333 216.393 293.378 200.666C316.464 183.412 341.182 167.582 366.84 153.617C395.131 138.221 423.898 125.485 452.337 115.764C483.793 105.014 514.783 97.9945 544.45 94.9006C603.882 88.7043 657.935 98.1078 705.105 122.853C744.305 143.415 777.622 168.842 809.843 193.432C837.889 214.836 866.889 236.967 899.728 255.885C937.659 277.736 978.711 297.9 1021.75 315.817C1058.01 330.913 1103.14 349.702 1149.65 345.479C1188.93 341.913 1211.64 325.243 1219.07 294.514C1225.4 268.376 1219.38 237.37 1214.55 212.457C1212.9 203.967 1211.34 195.947 1210.58 189.444C1206.37 153.594 1209.05 124 1218.79 98.9723C1224.87 83.3568 1233.84 69.4372 1245.45 57.6006C1258.42 44.3782 1275.07 33.3555 1294.94 24.8392C1312.13 17.4716 1331.5 12.1206 1352.52 8.93438C1372.53 5.90157 1393.59 4.88541 1415.13 5.91377C1457.49 7.93565 1498.93 17.794 1531.81 33.671C1549.38 42.1576 1565.34 52.3681 1579.24 64.0165C1592.4 75.0566 1603.81 87.4581 1613.15 100.879C1630.72 126.161 1640.82 154.933 1642.34 184.081L1640.97 184.111C1637.73 122.039 1596.61 66.0593 1530.97 34.3664C1461.27 0.709188 1362.33 -2.99467 1295.7 25.5626C1229.71 53.8514 1202.31 107.436 1211.95 189.38C1212.71 195.862 1214.26 203.871 1215.91 212.351C1220.75 237.317 1226.79 268.39 1220.43 294.646C1216.97 308.947 1210.01 320.441 1199.75 328.809C1193.98 333.513 1187.02 337.358 1179.07 340.234C1170.61 343.295 1160.78 345.35 1149.84 346.343C1145.37 346.749 1140.82 346.953 1136.19 346.953C1119.34 346.953 1101.39 344.25 1081.72 338.774C1059.56 332.603 1038.17 323.7 1020.99 316.547C977.895 298.604 936.785 278.414 898.799 256.532C865.886 237.574 836.856 215.417 808.779 193.99C776.6 169.431 743.324 144.036 704.223 123.526C657.369 98.9496 603.687 89.6072 544.665 95.7617C425.274 108.21 302.29 184.233 238.544 249.598C218.967 269.672 204.238 291.272 189.992 312.16C184.773 319.811 179.379 327.725 173.79 335.504C162.454 351.28 151.259 362.576 138.557 371.05C130.629 376.339 122.028 380.508 112.992 383.441C102.946 386.702 92.0031 388.557 80.4669 388.953C78.6037 389.014 76.7268 389.045 74.8472 389.045Z" fill="#FFE492"/>
</g>
</svg>
