<svg width="60" height="61" viewBox="0 0 60 61" fill="none" xmlns="http://www.w3.org/2000/svg">
<g clip-path="url(#clip0_9_6425)">
<path d="M8.32884 20.2773C7.29504 20.2773 6.4179 20.6379 5.69688 21.3589C4.97585 22.0799 4.61523 22.9451 4.61523 23.9549V39.4596C4.61523 40.4947 4.97575 41.3711 5.69688 42.0922C6.4179 42.8133 7.29504 43.1739 8.32884 43.1739C9.36188 43.1739 10.2337 42.8134 10.9435 42.0922C11.652 41.3712 12.0072 40.4947 12.0072 39.4596V23.9549C12.0072 22.945 11.6467 22.0799 10.9255 21.3589C10.2044 20.6379 9.33866 20.2773 8.32884 20.2773Z" fill="white"/>
<path d="M38.1846 6.35815L40.7448 1.63537C40.9128 1.32271 40.853 1.08295 40.5649 0.914352C40.2521 0.768976 40.0118 0.842641 39.8439 1.13014L37.2479 5.89067C34.9637 4.88073 32.5477 4.37485 30.0001 4.37485C27.4519 4.37485 25.0357 4.88084 22.7523 5.89067L20.1562 1.13014C19.9875 0.842641 19.7472 0.769627 19.4352 0.914352C19.1464 1.0837 19.0866 1.32271 19.2553 1.63537L21.8156 6.35815C19.2195 7.68205 17.1519 9.52583 15.6136 11.8935C14.0752 14.2625 13.3057 16.8513 13.3057 19.6644H46.6582C46.6582 16.8519 45.8886 14.263 44.3503 11.8935C42.8118 9.52583 40.7562 7.68205 38.1846 6.35815ZM23.3831 13.2275C23.1062 13.505 22.7755 13.6431 22.3911 13.6431C22.006 13.6431 21.682 13.505 21.4178 13.2275C21.1535 12.9513 21.0213 12.6219 21.0213 12.2362C21.0213 11.8518 21.1535 11.5218 21.4178 11.245C21.682 10.9687 22.0068 10.8306 22.3911 10.8306C22.7755 10.8306 23.1062 10.9687 23.3831 11.245C23.6593 11.5225 23.798 11.8518 23.798 12.2362C23.7973 12.6213 23.6586 12.9513 23.3831 13.2275ZM38.5809 13.2275C38.3161 13.505 37.9914 13.6431 37.6077 13.6431C37.2224 13.6431 36.8919 13.505 36.6155 13.2275C36.3388 12.9513 36.2007 12.6219 36.2007 12.2362C36.2007 11.8518 36.3388 11.5218 36.6155 11.245C36.8919 10.9687 37.2224 10.8306 37.6077 10.8306C37.9921 10.8306 38.316 10.9687 38.5809 11.245C38.8454 11.5225 38.9774 11.8518 38.9774 12.2362C38.9774 12.6213 38.8453 12.9513 38.5809 13.2275Z" fill="white"/>
<path d="M13.4492 44.9755C13.4492 46.0823 13.8336 47.0193 14.6025 47.7881C15.372 48.557 16.3089 48.9414 17.4149 48.9414H20.0834L20.1199 57.1273C20.1199 58.161 20.4804 59.0388 21.2015 59.76C21.9225 60.4811 22.7883 60.8416 23.7975 60.8416C24.8307 60.8416 25.7083 60.4811 26.4295 59.76C27.1506 59.0388 27.5111 58.1611 27.5111 57.1273V48.9421H32.4869V57.1273C32.4869 58.161 32.8473 59.0388 33.5684 59.76C34.2895 60.4811 35.1665 60.8416 36.2004 60.8416C37.2335 60.8416 38.1112 60.4811 38.8323 59.76C39.5535 59.0388 39.9139 58.1611 39.9139 57.1273V48.9421H42.6183C43.6998 48.9421 44.6247 48.5576 45.395 47.7888C46.1637 47.0199 46.5483 46.083 46.5483 44.9763V20.9609H13.4492V44.9755Z" fill="white"/>
<path d="M51.6709 20.2773C50.6609 20.2773 49.7958 20.6325 49.0747 21.341C48.3537 22.0507 47.9932 22.9225 47.9932 23.9549V39.4596C47.9932 40.4947 48.3536 41.3711 49.0747 42.0922C49.7958 42.8134 50.6616 43.1739 51.6709 43.1739C52.704 43.1739 53.5817 42.8134 54.3028 42.0922C55.0239 41.3711 55.3843 40.4947 55.3843 39.4596V23.9549C55.3843 22.9224 55.0239 22.0507 54.3028 21.341C53.5817 20.6325 52.704 20.2773 51.6709 20.2773Z" fill="white"/>
</g>
<defs>
<clipPath id="clip0_9_6425">
<rect width="60" height="60" fill="white" transform="translate(0 0.841797)"/>
</clipPath>
</defs>
</svg>
