<svg width="60" height="61" viewBox="0 0 60 61" fill="none" xmlns="http://www.w3.org/2000/svg">
<g clip-path="url(#clip0_9_6413)">
<path d="M46.4408 34.474C44.7903 26.1677 52.6744 21.2961 52.6744 21.2961C52.6744 21.2961 49.6026 16.852 44.4402 15.7088C39.2803 14.563 36.6978 15.9945 34.1203 17.0682C31.5403 18.1445 30.253 18.1445 30.253 18.1445C26.5299 18.1445 23.8082 14.2025 16.7146 15.9971C11.8277 17.2304 6.68315 22.8719 5.75365 29.6051C4.82415 36.3408 6.82997 44.9354 10.6973 51.5965C14.5646 58.2627 18.5042 60.768 21.3003 60.8401C24.0966 60.9096 26.8877 58.8369 30.253 58.3322C33.6209 57.8327 35.6936 59.5527 38.997 60.4822C42.2876 61.4092 43.4411 60.5492 47.2312 57.3255C51.0316 54.1018 54.4716 44.8557 54.4716 44.8557C54.4716 44.8557 48.0912 42.7854 46.4408 34.474Z" fill="white"/>
<path d="M39.1334 10.3351C42.7896 6.60943 41.5512 0.841797 41.5512 0.841797C41.5512 0.841797 36.417 1.74301 32.977 5.32195C29.5397 8.90352 30.1087 14.5604 30.1087 14.5604C30.1087 14.5604 35.4772 14.0583 39.1334 10.3351Z" fill="white"/>
</g>
<defs>
<clipPath id="clip0_9_6413">
<rect width="60" height="60" fill="white" transform="translate(0 0.841797)"/>
</clipPath>
</defs>
</svg>
