<svg width="9" height="18" viewBox="0 0 9 18" fill="none" xmlns="http://www.w3.org/2000/svg">
<path d="M2.5058 9.91715C2.44316 9.91715 1.06497 9.91715 0.438515 9.91715C0.104408 9.91715 0 9.79186 0 9.47863C0 8.64336 0 7.78722 0 6.95195C0 6.61784 0.12529 6.51343 0.438515 6.51343H2.5058C2.5058 6.45079 2.5058 5.23965 2.5058 4.67585C2.5058 3.84058 2.65197 3.04708 3.06961 2.31622C3.50812 1.56448 4.13457 1.06332 4.92807 0.770973C5.45012 0.583038 5.97216 0.499512 6.53596 0.499512H8.58237C8.87471 0.499512 9 0.624802 9 0.917145V3.29766C9 3.59 8.87471 3.71529 8.58237 3.71529C8.01856 3.71529 7.45476 3.71529 6.89095 3.73617C6.32715 3.73617 6.0348 4.00763 6.0348 4.59232C6.01392 5.21877 6.0348 5.82434 6.0348 6.47167H8.45708C8.79118 6.47167 8.91647 6.59696 8.91647 6.93107V9.45775C8.91647 9.79186 8.81207 9.89626 8.45708 9.89626C7.70534 9.89626 6.09745 9.89626 6.0348 9.89626V16.7037C6.0348 17.0587 5.93039 17.184 5.55452 17.184C4.67749 17.184 3.82135 17.184 2.94432 17.184C2.63109 17.184 2.5058 17.0587 2.5058 16.7455C2.5058 14.5529 2.5058 9.97979 2.5058 9.91715Z" fill="#F7F7EE"/>
</svg>
