<svg width="15" height="16" viewBox="0 0 15 16" fill="none" xmlns="http://www.w3.org/2000/svg">
<path d="M14.9962 15.3415V15.3408H14.9999V9.82231C14.9999 7.12261 14.4246 5.04297 11.3002 5.04297C9.79826 5.04297 8.79033 5.87558 8.37884 6.66492H8.3354V5.29501H5.37305V15.3408H8.45767V10.3665C8.45767 9.05679 8.70344 7.79032 10.3091 7.79032C11.8911 7.79032 11.9147 9.28501 11.9147 10.4505V15.3415H14.9962Z" fill="#F7F7EE"/>
<path d="M0.223877 5.26758H3.35821V15.1183H0.223877V5.26758Z" fill="#F7F7EE"/>
<path d="M1.79104 0.341797C0.802303 0.341797 0 1.14036 0 2.12449C0 3.10862 0.802303 3.92389 1.79104 3.92389C2.77979 3.92389 3.58209 3.10862 3.58209 2.12449C3.58147 1.14036 2.77916 0.341797 1.79104 0.341797V0.341797Z" fill="#F7F7EE"/>
</svg>
