<svg width="17" height="15" viewBox="0 0 17 15" fill="none" xmlns="http://www.w3.org/2000/svg">
<path d="M17 2.57073C16.3678 2.84805 15.6942 3.03186 14.9919 3.12111C15.7144 2.68973 16.2658 2.01186 16.5251 1.1948C15.8514 1.59642 15.1077 1.88011 14.3151 2.03842C13.6754 1.35736 12.7638 0.935547 11.7693 0.935547C9.83981 0.935547 8.28644 2.50167 8.28644 4.42161C8.28644 4.69786 8.30981 4.96348 8.36719 5.21636C5.46975 5.07505 2.90594 3.68636 1.18362 1.57092C0.882937 2.09261 0.706563 2.68973 0.706563 3.33255C0.706563 4.53955 1.32812 5.60948 2.25463 6.22892C1.69469 6.2183 1.14538 6.05573 0.68 5.79967C0.68 5.8103 0.68 5.82411 0.68 5.83792C0.68 7.53155 1.88806 8.9383 3.47225 9.26236C3.18856 9.33992 2.87937 9.37711 2.5585 9.37711C2.33538 9.37711 2.11012 9.36436 1.89869 9.31761C2.35025 10.6978 3.63163 11.7125 5.15525 11.7454C3.9695 12.673 2.46394 13.2319 0.834063 13.2319C0.54825 13.2319 0.274125 13.2191 0 13.184C1.54381 14.1796 3.37344 14.748 5.3465 14.748C11.7597 14.748 15.266 9.43555 15.266 4.83067C15.266 4.67661 15.2607 4.52786 15.2533 4.38017C15.9449 3.8893 16.5261 3.27623 17 2.57073Z" fill="#F7F7EE"/>
</svg>
