<svg width="193" height="49" viewBox="0 0 193 49" fill="none" xmlns="http://www.w3.org/2000/svg">
<path d="M181.536 25.6227C181.272 25.6626 181.005 25.69 180.747 25.7498C180.579 25.7872 180.507 25.6776 180.395 25.6202C180.357 25.6003 180.317 25.5604 180.283 25.5653C180.021 25.6052 179.76 25.6501 179.499 25.695C179.419 25.7922 179.368 25.9219 179.246 25.9692C179.126 26.0141 178.984 26.0141 178.851 26.0365C178.675 26.064 178.499 26.0914 178.323 26.1163C178.235 26.1288 178.163 26.1762 178.134 26.2659C178.128 26.2809 178.187 26.3183 178.219 26.3407C178.326 26.4155 178.43 26.5003 178.547 26.5576C178.659 26.6124 178.798 26.5227 178.918 26.5925C179.187 26.7496 179.19 26.7471 179.395 26.7172C179.571 26.6897 179.747 26.6598 179.923 26.6399C179.958 26.6349 179.997 26.6723 180.035 26.6922C180.147 26.7471 180.219 26.8717 180.384 26.8244C180.509 26.787 180.648 26.7795 180.779 26.7596C180.888 26.8319 180.989 26.9141 181.107 26.9715C181.216 27.0263 181.248 27.0687 181.189 27.141C181.136 27.2083 181.061 27.2357 180.963 27.2407C180.875 27.2432 180.787 27.2656 180.699 27.2781C180.653 27.2856 180.611 27.2906 180.568 27.2981C180.4 27.3255 180.4 27.3255 180.093 27.1659C179.973 27.1036 179.838 27.1909 179.723 27.131C179.646 27.0911 179.579 27.0313 179.504 26.9889C179.472 26.9715 179.422 26.969 179.382 26.974C179.248 26.9914 179.115 27.0039 178.987 27.0363C178.896 27.0587 178.843 27.1285 178.854 27.1983C178.856 27.2258 178.92 27.2657 178.958 27.2682C179.043 27.2731 179.134 27.2382 179.216 27.2557C179.296 27.2731 179.379 27.323 179.438 27.3778C179.558 27.4925 179.693 27.3903 179.808 27.4202C179.928 27.4526 180.027 27.5524 180.141 27.6122C180.171 27.6272 180.227 27.6022 180.272 27.5947C180.403 27.5773 180.533 27.5623 180.664 27.5449C180.773 27.6172 180.891 27.682 180.989 27.7643C181.168 27.9139 181.36 27.9712 181.592 27.8989C181.723 27.859 181.851 27.874 181.955 27.9712C182.061 28.0709 182.184 28.0609 182.32 28.041C182.445 28.0211 182.573 27.9662 182.701 28.036C182.979 28.1906 182.981 28.1981 183.309 28.1382C183.408 28.1208 183.483 28.1158 183.557 28.1731C183.627 28.2255 183.701 28.2704 183.773 28.3202C183.904 28.3028 184.037 28.2853 184.168 28.2654C184.336 28.238 184.429 28.2729 184.469 28.4125C184.493 28.4972 184.504 28.5745 184.562 28.6319C184.632 28.7017 184.706 28.6992 184.808 28.6792C184.904 28.6618 184.973 28.6344 185.013 28.5446C185.029 28.5072 185.061 28.4723 185.09 28.4424C185.114 28.42 185.152 28.3851 185.173 28.39C185.213 28.4 185.266 28.4274 185.28 28.4598C185.41 28.7615 185.41 28.764 185.544 28.8513C185.69 28.9485 185.842 29.0357 185.976 29.1454C186.096 29.2427 186.216 29.2003 186.346 29.2003C186.445 29.2003 186.509 29.2651 186.501 29.3299C186.496 29.3673 186.458 29.4222 186.426 29.4271C186.165 29.477 185.901 29.5194 185.637 29.5543C185.605 29.5593 185.565 29.5144 185.528 29.492C185.453 29.4471 185.386 29.3773 185.306 29.3623C185.226 29.3474 185.133 29.3848 185.045 29.3972C184.957 29.4097 184.864 29.4421 184.784 29.4222C184.704 29.4022 184.64 29.3299 184.565 29.2826C184.531 29.2601 184.483 29.2277 184.453 29.2352C184.259 29.295 184.115 29.2128 183.976 29.1031C183.947 29.0806 183.896 29.0657 183.859 29.0707C183.549 29.113 183.243 29.1629 182.933 29.2103C182.808 29.2302 182.707 29.1429 182.68 28.9958C182.667 28.9136 182.64 28.8313 182.64 28.749C182.64 28.5994 182.493 28.5172 182.387 28.5346C182.211 28.5596 182.032 28.5795 181.859 28.6169C181.717 28.6468 181.597 28.6169 181.501 28.5271C181.389 28.4249 181.261 28.4449 181.133 28.4723C181.037 28.4923 181.011 28.5745 181.016 28.7814C181.021 28.9485 180.976 29.0008 180.803 29.0283C180.584 29.0632 180.363 29.0981 180.141 29.1255C180.107 29.1305 180.067 29.0881 180.032 29.0657C179.958 29.0208 179.891 28.9485 179.811 28.9335C179.731 28.9161 179.638 28.9535 179.55 28.9684C179.462 28.9809 179.368 29.0158 179.288 28.9983C179.208 28.9809 179.142 28.9061 179.07 28.8587C179.035 28.8363 178.992 28.8039 178.958 28.8089C178.782 28.8288 178.606 28.8587 178.43 28.8862C178.232 28.9161 178.232 28.9161 177.952 28.7615C177.824 28.6917 177.696 28.7466 177.571 28.7665C177.438 28.7864 177.312 28.7964 177.208 28.6967C177.139 28.6319 177.062 28.592 176.979 28.6044C176.758 28.6344 176.539 28.6718 176.318 28.7017C176.28 28.7067 176.23 28.6942 176.2 28.6718C176.059 28.5671 175.92 28.4848 175.723 28.5371C175.553 28.582 175.369 28.5845 175.198 28.6269C175.105 28.6493 175.062 28.7291 175.08 28.7914C175.091 28.8238 175.147 28.8612 175.185 28.8612C175.27 28.8637 175.363 28.8263 175.443 28.8413C175.608 28.8712 175.691 29.0806 175.907 29.0233C176.035 28.9884 176.168 28.9759 176.302 28.9659C176.336 28.9634 176.374 29.0108 176.411 29.0357C176.518 29.1031 176.611 29.1903 176.766 29.1454C176.894 29.1105 177.03 29.1006 177.16 29.0806C177.368 29.0482 177.368 29.0507 177.638 29.2028C177.766 29.2751 177.894 29.2178 178.019 29.2003C178.112 29.1878 178.2 29.1629 178.275 29.1978C178.39 29.2502 178.472 29.3698 178.614 29.3623C178.747 29.3548 178.878 29.32 179.011 29.3075C179.094 29.3 179.171 29.3399 179.238 29.4072C179.307 29.4745 179.382 29.5044 179.472 29.4895C179.603 29.4695 179.736 29.4446 179.869 29.4321C179.907 29.4296 179.95 29.4521 179.984 29.472C180.059 29.5169 180.131 29.5693 180.203 29.6166C180.333 29.6017 180.467 29.5967 180.595 29.5668C180.693 29.5443 180.763 29.5543 180.843 29.6042C180.944 29.6715 181.027 29.7912 181.192 29.7338C181.275 29.7064 181.371 29.7139 181.453 29.6889C181.555 29.6565 181.624 29.669 181.696 29.7438C181.832 29.8859 182.003 29.8884 182.179 29.8335C182.371 29.7737 182.515 29.8435 182.659 29.9532C182.811 30.0679 182.811 30.0654 182.928 30.3421C182.963 30.4219 183.061 30.4593 183.144 30.4444C183.283 30.4194 183.403 30.4319 183.504 30.5266C183.611 30.6288 183.739 30.6164 183.869 30.5889C184.043 30.5515 184.216 30.5191 184.357 30.6637C184.427 30.7336 184.501 30.751 184.595 30.7335C184.859 30.6887 185.125 30.6613 185.384 30.6064C185.541 30.5715 185.632 30.6513 185.738 30.7186C185.882 30.8108 186.04 30.8931 186.04 31.0901C186.04 31.1225 186.077 31.1599 186.109 31.1848C186.178 31.2371 186.253 31.282 186.325 31.3319C186.432 31.4067 186.536 31.469 186.682 31.4291C186.81 31.3967 186.946 31.3867 187.077 31.3643C187.208 31.3419 187.328 31.3294 187.445 31.4241C187.581 31.5313 187.725 31.6335 187.88 31.7133C187.989 31.7707 188.133 31.6734 188.25 31.7507C188.322 31.7981 188.392 31.8529 188.469 31.8928C188.501 31.9103 188.552 31.8978 188.594 31.8928C188.682 31.8829 188.773 31.8754 188.858 31.8505C188.957 31.823 189.032 31.828 189.106 31.8854C189.176 31.9377 189.245 32.01 189.325 32.025C189.445 32.0474 189.578 31.9477 189.698 32.0624C189.759 32.1197 189.837 32.1746 189.917 32.192C189.997 32.2095 190.09 32.1721 190.175 32.1745C190.213 32.1745 190.258 32.2144 190.279 32.2469C190.293 32.2643 190.274 32.3117 190.255 32.3366C190.231 32.3665 190.197 32.4064 190.162 32.4114C189.898 32.4563 189.634 32.4937 189.37 32.5361C189.213 32.561 189.213 32.561 188.896 32.4039C188.821 32.3665 188.738 32.374 188.645 32.3914C188.52 32.4139 188.392 32.4563 188.261 32.4114C188.09 32.2419 187.88 32.2269 187.656 32.2917C187.562 32.3191 187.477 32.3191 187.408 32.2718C187.261 32.177 187.106 32.0898 186.976 31.9776C186.874 31.8904 186.826 31.8829 186.784 32.0025C186.77 32.0399 186.757 32.0798 186.76 32.1147C186.776 32.2394 186.805 32.3615 186.821 32.4862C186.826 32.5211 186.805 32.561 186.792 32.5984C186.749 32.7031 186.693 32.6956 186.6 32.6083C186.506 32.5211 186.394 32.4638 186.245 32.5037C186.117 32.5386 185.978 32.5336 185.85 32.571C185.653 32.6258 185.514 32.546 185.373 32.4388C185.344 32.4164 185.293 32.4039 185.256 32.4089C184.859 32.4663 184.464 32.5311 184.067 32.5884C183.981 32.6009 183.904 32.5635 183.837 32.4962C183.768 32.4288 183.691 32.3939 183.605 32.4064C183.253 32.4588 182.901 32.5061 182.549 32.571C182.405 32.5984 182.291 32.566 182.192 32.4787C182.117 32.4139 182.048 32.3939 181.955 32.4014C181.853 32.4089 181.781 32.4338 181.731 32.5061C181.683 32.576 181.717 32.6183 181.824 32.6732C181.939 32.733 182.045 32.8103 182.155 32.8801C182.243 32.8701 182.331 32.8502 182.416 32.8527C182.453 32.8527 182.488 32.8975 182.525 32.9225C182.632 32.9948 182.731 33.0671 182.883 33.0272C183.011 32.9923 183.147 32.9848 183.277 32.9624C183.459 32.9349 183.459 32.935 183.752 33.092C183.827 33.1319 183.907 33.1294 184.003 33.107C184.085 33.0895 184.171 33.1244 184.229 33.1992C184.253 33.2291 184.245 33.279 184.195 33.4436C184.195 33.5657 184.251 33.5109 184.269 33.4311C184.298 33.3164 184.243 33.279 184.136 33.3413C184.061 33.3862 184.024 33.451 184.043 33.5034C184.053 33.5308 184.104 33.5657 184.195 33.4436C184.429 33.294 184.608 33.2765 184.779 33.2366C184.88 33.2142 184.944 33.2241 185.024 33.2889C185.12 33.3662 185.216 33.4485 185.373 33.4086C185.544 33.3638 185.725 33.3588 185.898 33.3214C186.058 33.2865 186.141 33.3962 186.242 33.461C186.365 33.5383 186.501 33.451 186.613 33.4959C186.73 33.5408 186.813 33.6505 186.949 33.6704C187.146 33.6031 187.272 33.7278 187.421 33.81C187.538 33.8724 187.677 33.8175 187.802 33.7901C187.944 33.7601 188.061 33.7876 188.16 33.8773C188.272 33.9796 188.397 33.9571 188.525 33.9347C188.824 33.8848 188.834 33.8773 189.008 34.0144C189.133 34.1142 189.253 34.0693 189.378 34.0568C189.488 34.1242 189.594 34.1964 189.709 34.2563C189.738 34.2712 189.794 34.2463 189.839 34.2388C189.97 34.2189 190.103 34.1989 190.234 34.179C190.322 34.1665 190.415 34.1291 190.495 34.1441C190.575 34.1615 190.642 34.2339 190.714 34.2812C190.786 34.3286 190.861 34.376 190.93 34.4258C191.037 34.5006 191.138 34.5629 191.287 34.5255C191.415 34.4931 191.549 34.4832 191.682 34.4607C191.85 34.4333 191.845 34.4408 192.157 34.5904C192.325 34.6726 192.498 34.5729 192.669 34.5629C192.754 34.558 192.837 34.5854 192.895 34.6577C192.919 34.6876 192.911 34.7375 192.919 34.7798C192.479 34.8472 192.037 34.9045 191.602 34.9868C191.434 35.0192 191.346 34.9294 191.255 34.8546C191.106 34.735 190.909 34.9095 190.767 34.7549C190.682 34.6626 190.559 34.6103 190.413 34.6552C190.327 34.6801 190.237 34.6776 190.149 34.7001C189.925 34.7549 189.719 34.7574 189.541 34.5854C189.479 34.5255 189.392 34.4931 189.328 34.4358C189.253 34.3735 189.181 34.3385 189.093 34.351C188.696 34.4108 188.301 34.4707 187.906 34.5355C187.872 34.5405 187.837 34.5779 187.808 34.6053C187.733 34.6751 187.757 34.73 187.877 34.7749C187.917 34.7898 187.949 34.8222 187.986 34.8471C188.058 34.8945 188.125 34.9693 188.205 34.9868C188.285 35.0042 188.378 34.9693 188.466 34.9568C188.554 34.9444 188.648 34.907 188.728 34.9219C188.808 34.9394 188.874 35.0117 188.949 35.0566C188.984 35.079 189.026 35.1164 189.061 35.1139C189.237 35.099 189.41 35.0715 189.586 35.0491C189.695 35.1164 189.789 35.2136 189.919 35.2361C190.002 35.251 190.09 35.2236 190.175 35.2286C190.213 35.2311 190.261 35.2685 190.279 35.3009C190.29 35.3208 190.255 35.3707 190.229 35.3956C190.127 35.4904 189.989 35.4729 189.863 35.5028C189.728 35.5352 189.605 35.5253 189.501 35.428C189.432 35.3632 189.354 35.3283 189.269 35.3408C189.048 35.3732 188.829 35.4106 188.608 35.438C188.57 35.443 188.525 35.4206 188.49 35.4031C188.21 35.251 188.21 35.2461 188.013 35.2785C187.722 35.3258 187.722 35.3258 187.528 35.1937C187.49 35.1687 187.45 35.1214 187.418 35.1239C187.109 35.1638 186.802 35.2037 186.496 35.261C186.394 35.2784 186.325 35.2785 186.25 35.2136C186.186 35.1588 186.112 35.0965 186.032 35.0815C185.949 35.0665 185.858 35.1039 185.77 35.1164C185.682 35.1289 185.589 35.1613 185.512 35.1413C185.432 35.1214 185.362 35.0516 185.293 35.0017C185.221 34.9494 185.144 34.9518 185.045 34.9718C184.741 35.0291 184.738 35.0217 184.437 34.8671C184.403 34.8496 184.357 34.8297 184.32 34.8347C184.099 34.8646 183.88 34.902 183.659 34.9319C183.573 34.9444 183.491 34.912 183.432 34.8397C183.408 34.8098 183.416 34.7599 183.4 34.6626C183.381 34.6402 183.403 34.6801 183.408 34.7175C183.448 34.7125 183.496 34.7175 183.525 34.6976C183.6 34.6502 183.637 34.5879 183.619 34.5355C183.608 34.5081 183.557 34.4732 183.525 34.4732C183.467 34.4732 183.416 34.528 183.4 34.6626C183.232 34.7449 183.053 34.7624 182.88 34.8023C182.779 34.8272 182.715 34.8148 182.635 34.7499C182.539 34.6702 182.44 34.5928 182.283 34.6327C182.112 34.6776 181.931 34.6851 181.755 34.72C181.552 34.7599 181.464 34.5355 181.293 34.5405C181.117 34.5455 180.941 34.5879 180.765 34.6178C180.611 34.6427 180.611 34.6427 180.291 34.4807C180.173 34.4208 180.035 34.5081 179.92 34.4457C179.843 34.4059 179.776 34.346 179.702 34.3037C179.67 34.2862 179.619 34.2862 179.579 34.2912C179.358 34.3211 179.134 34.341 178.92 34.3959C178.678 34.4607 178.494 34.3909 178.32 34.2438C178.102 34.2712 177.88 34.2862 177.664 34.3336C177.507 34.3685 177.416 34.2862 177.31 34.2189C177.272 34.1965 177.24 34.1591 177.2 34.1491C177.16 34.1391 177.112 34.159 177.07 34.1665C176.894 34.1939 176.712 34.2064 176.542 34.2513C176.331 34.3087 176.251 34.1042 176.088 34.0793C175.979 34.2014 175.92 34.3685 175.704 34.3809C175.528 34.3909 175.353 34.4308 175.177 34.4582C175.089 34.4707 175.001 34.4857 174.913 34.4981C174.771 34.5206 174.705 34.6178 174.734 34.7674C174.75 34.8496 174.763 34.9319 174.777 35.0142C174.803 35.1613 174.737 35.2859 174.625 35.3034C174.315 35.3508 174.009 35.4006 173.699 35.443C173.617 35.4555 173.537 35.4131 173.47 35.3458C173.401 35.2784 173.323 35.2485 173.238 35.261C172.929 35.3084 172.622 35.3582 172.313 35.4006C172.278 35.4056 172.233 35.3807 172.198 35.3607C172.123 35.3158 172.051 35.2635 171.979 35.2161C171.803 35.2386 171.63 35.2535 171.457 35.2834C171.177 35.3283 171.177 35.3308 170.971 35.1937C170.934 35.1687 170.897 35.1214 170.862 35.1239C170.729 35.1339 170.598 35.1588 170.465 35.1812C170.073 35.246 170.073 35.246 169.958 35.1712C169.854 35.1014 169.761 35.0167 169.604 35.0566C169.433 35.1015 169.252 35.1164 169.076 35.1413C168.945 35.1588 168.814 35.1787 168.684 35.1837C168.649 35.1862 168.612 35.1388 168.574 35.1139C168.468 35.0366 168.364 34.9743 168.217 35.0167C168.132 35.0416 168.041 35.0466 167.953 35.0591C167.724 35.094 167.724 35.094 167.348 34.9444C167.31 34.9294 167.265 34.912 167.228 34.9194C166.918 34.9643 166.612 35.0142 166.302 35.0566C166.265 35.0616 166.22 35.0466 166.182 35.0341C165.761 34.8895 165.761 34.8895 165.313 34.9593C165.143 34.9843 165.137 34.9942 164.959 34.8621C164.879 34.8048 164.812 34.7773 164.719 34.7948C164.367 34.8546 164.012 34.8945 163.663 34.9643C163.505 34.9942 163.415 34.9194 163.308 34.8521C163.271 34.8297 163.231 34.7798 163.199 34.7823C162.847 34.8297 162.495 34.887 162.143 34.9344C162.111 34.9394 162.071 34.8895 162.033 34.8671C161.961 34.8222 161.892 34.7549 161.812 34.7399C161.729 34.725 161.639 34.7624 161.548 34.7749C161.327 34.8073 161.327 34.8048 161.071 34.6577C161.036 34.6377 160.991 34.6103 160.956 34.6153C160.604 34.6652 160.25 34.7075 159.9 34.7798C159.7 34.8197 159.564 34.7474 159.423 34.6427C159.394 34.6203 159.343 34.6103 159.306 34.6153C158.908 34.6726 158.514 34.7374 158.116 34.7948C158.034 34.8073 157.954 34.7649 157.887 34.7001C157.78 34.5978 157.655 34.6103 157.522 34.6327C157.215 34.6851 157.212 34.6826 157.031 34.5629C156.994 34.538 156.962 34.5056 156.922 34.4931C156.884 34.4807 156.837 34.4881 156.796 34.4931C156.621 34.5181 156.445 34.5455 156.269 34.5729C156.093 34.6003 155.914 34.6153 155.741 34.6577C155.527 34.71 155.426 34.548 155.277 34.4732C155.058 34.5056 154.834 34.5255 154.618 34.5779C154.453 34.6178 154.375 34.5081 154.266 34.4507C154.229 34.4308 154.189 34.3884 154.154 34.3934C153.757 34.4482 153.359 34.5081 152.965 34.5754C152.869 34.5904 152.805 34.5704 152.725 34.5106C152.546 34.3759 152.538 34.3809 152.239 34.4308C152.109 34.4532 151.983 34.4732 151.871 34.371C151.773 34.2787 151.653 34.2563 151.512 34.2862C151.338 34.3236 151.16 34.3435 150.984 34.3685C150.808 34.3959 150.632 34.4333 150.456 34.4457C150.314 34.4582 150.229 34.3411 150.117 34.2812C150.082 34.2638 150.034 34.2613 149.994 34.2663C149.818 34.2887 149.637 34.3061 149.466 34.3485C149.258 34.4009 149.144 34.2638 148.997 34.184C148.965 34.1665 148.912 34.1765 148.872 34.184C148.562 34.2289 148.256 34.2787 147.946 34.3261C147.837 34.2588 147.725 34.194 147.616 34.1267C147.44 34.1516 147.264 34.179 147.088 34.2039C146.954 34.2239 146.818 34.2314 146.693 34.2687C146.531 34.3186 146.451 34.2014 146.341 34.1441C146.304 34.1241 146.264 34.0818 146.229 34.0868C146.008 34.1142 145.787 34.1441 145.568 34.1865C145.36 34.2289 145.277 34.0045 145.107 34.007C144.931 34.0095 144.749 34.0419 144.579 34.0868C144.381 34.1391 144.243 34.0593 144.101 33.9521C144.072 33.9297 144.021 33.9172 143.984 33.9222C143.763 33.9521 143.544 33.9895 143.323 34.0194C143.285 34.0244 143.24 34.012 143.203 33.997C142.781 33.8499 142.781 33.8474 142.598 33.8773C142.467 33.8973 142.334 33.9222 142.2 33.9347C142.163 33.9397 142.117 33.9172 142.083 33.8973C141.806 33.7452 141.805 33.7427 141.606 33.7726C141.43 33.8 141.254 33.8275 141.078 33.8549C140.968 33.7876 140.856 33.7228 140.747 33.6555C140.528 33.6879 140.304 33.7128 140.088 33.7577C139.987 33.7776 139.92 33.7701 139.843 33.7078C139.747 33.633 139.651 33.5458 139.491 33.5881C139.32 33.633 139.139 33.638 138.966 33.6754C138.758 33.7203 138.672 33.4934 138.504 33.4959C138.328 33.4984 138.147 33.5308 137.976 33.5757C137.779 33.628 137.64 33.5483 137.499 33.4411C137.47 33.4186 137.419 33.4062 137.382 33.4111C136.897 33.4834 136.414 33.5557 135.929 33.633C135.63 33.6804 135.63 33.6829 135.062 33.5457C135.022 33.5358 134.979 33.5258 134.939 33.5308C134.763 33.5532 134.582 33.5707 134.411 33.6131C134.203 33.6654 134.089 33.5308 133.942 33.4485C133.91 33.4311 133.859 33.441 133.817 33.446C133.683 33.4635 133.553 33.4859 133.419 33.5059C133.243 33.5333 133.067 33.5607 132.891 33.5881C132.782 33.5233 132.67 33.456 132.561 33.3912C132.342 33.4236 132.118 33.441 131.902 33.4934C131.737 33.5333 131.66 33.4286 131.55 33.3687C131.513 33.3488 131.473 33.3064 131.438 33.3089C131.041 33.3638 130.644 33.4211 130.249 33.4909C130.086 33.5208 130.012 33.4086 129.902 33.3513C129.865 33.3338 129.822 33.3014 129.788 33.3064C129.524 33.3413 129.26 33.3837 128.996 33.4261C128.846 33.451 128.846 33.451 128.521 33.2964C128.484 33.279 128.441 33.2615 128.404 33.2665C127.567 33.3912 126.732 33.5233 125.895 33.648C125.809 33.6604 125.732 33.623 125.665 33.5557C125.596 33.4884 125.519 33.4535 125.433 33.466C125.081 33.5183 124.727 33.5657 124.377 33.6305C124.233 33.658 124.119 33.6255 124.02 33.5383C123.945 33.4734 123.876 33.4485 123.783 33.4635C123.607 33.4934 123.431 33.5183 123.255 33.5457C123.079 33.5732 122.903 33.6006 122.727 33.628C122.551 33.6555 122.372 33.6704 122.199 33.7128C121.986 33.7651 121.882 33.6106 121.735 33.5333C121.471 33.5707 121.207 33.6081 120.946 33.648C120.594 33.7003 120.242 33.7577 119.89 33.8075C119.858 33.8125 119.818 33.7676 119.78 33.7452C119.671 33.6829 119.591 33.5956 119.428 33.623C118.639 33.7552 117.845 33.8674 117.053 33.997C116.887 34.0244 116.815 33.9172 116.703 33.8599C116.666 33.8424 116.623 33.8075 116.589 33.8125C116.149 33.8749 115.709 33.9446 115.269 34.012C115.09 34.0394 115.09 34.0394 114.791 33.8848C114.757 33.8674 114.711 33.8449 114.674 33.8499C114.101 33.9347 113.53 34.0244 112.957 34.1117C112.872 34.1241 112.794 34.0892 112.725 34.0219C112.658 33.9546 112.578 33.9172 112.496 33.9297C111.968 34.0095 111.437 34.0868 110.912 34.174C110.77 34.1989 110.653 34.1765 110.552 34.0868C110.48 34.0219 110.408 33.9945 110.317 34.0095C109.525 34.1316 108.733 34.2488 107.941 34.3785C107.789 34.4034 107.683 34.356 107.587 34.2737C107.509 34.2089 107.443 34.1964 107.347 34.2064C107.245 34.2189 107.184 34.2463 107.128 34.3211C107.056 34.4183 107.011 34.5405 106.84 34.548C106.664 34.5555 106.485 34.5854 106.312 34.6278C106.147 34.6702 106.069 34.5579 105.965 34.4906C105.888 34.4433 105.816 34.4358 105.717 34.4582C105.627 34.4782 105.571 34.5205 105.517 34.6003C105.4 34.7698 105.389 34.7698 105.245 34.6626C105.168 34.6053 105.099 34.5604 105.013 34.5704C104.661 34.6203 104.31 34.6751 103.958 34.7325C103.755 34.7649 103.752 34.7699 103.6 34.6452C103.526 34.5829 103.454 34.5529 103.366 34.5679C102.398 34.7175 101.43 34.8621 100.462 35.0192C100.312 35.0441 100.211 34.9917 100.104 34.9169C100.07 34.892 100.035 34.8571 99.9952 34.8471C99.9552 34.8372 99.9099 34.8471 99.8672 34.8521C99.1632 34.9593 98.4566 35.0616 97.7553 35.1812C97.5953 35.2087 97.51 35.1289 97.4007 35.0641C97.3634 35.0416 97.3313 35.0067 97.2913 34.9967C97.2513 34.9893 97.2033 35.0067 97.1607 35.0142C96.4567 35.1214 95.7501 35.2236 95.0488 35.3433C94.8809 35.3707 94.8088 35.266 94.6995 35.2111C94.6622 35.1912 94.6222 35.1538 94.5875 35.1588C94.3662 35.1862 94.1476 35.2236 93.9263 35.256C93.3983 35.3383 92.8703 35.4156 92.3423 35.5004C92.1397 35.5328 92.0517 35.3109 91.881 35.3208C91.6597 35.3333 91.4411 35.3832 91.2198 35.4181C91.0438 35.4455 90.8678 35.4704 90.6918 35.5004C90.5185 35.5278 90.5185 35.5278 90.0865 35.3832C90.0492 35.3707 90.0039 35.3532 89.9665 35.3582C89.3506 35.4505 88.732 35.5427 88.1187 35.6424C87.9773 35.6649 87.86 35.6524 87.7587 35.5602C87.6867 35.4954 87.612 35.4629 87.5241 35.4779C86.5988 35.62 85.6761 35.7621 84.7509 35.9017C84.7162 35.9067 84.6709 35.8818 84.6362 35.8618C84.5616 35.817 84.4896 35.7646 84.4176 35.7173C84.3642 35.7746 84.295 35.8269 84.2603 35.8918C84.2123 35.979 84.1483 36.0039 84.047 36.0189C83.9456 36.0339 83.8817 36.0289 83.8017 35.9641C83.7057 35.8843 83.607 35.8219 83.4497 35.8469C82.4817 36.0039 81.5138 36.1461 80.5458 36.3006C80.3858 36.3256 80.3112 36.2158 80.1992 36.1585C80.1619 36.1411 80.1192 36.1136 80.0845 36.1186C79.6872 36.176 79.2926 36.2383 78.8953 36.2981C77.794 36.4677 76.6928 36.6297 75.5942 36.8092C75.3942 36.8416 75.2582 36.7793 75.1169 36.6721C75.0876 36.6497 75.0369 36.6372 74.9996 36.6422C73.4584 36.8765 71.9171 37.1134 70.3786 37.3502C70.2959 37.3627 70.2159 37.3228 70.1492 37.258C70.0799 37.1907 70.0026 37.1582 69.9173 37.1707C69.2133 37.2779 68.5094 37.3851 67.8055 37.4948C67.6295 37.5223 67.6268 37.5247 67.4455 37.405C67.4081 37.3801 67.3682 37.3328 67.3388 37.3378C67.2775 37.3502 67.2188 37.4125 67.1761 37.4973C67.1335 37.587 67.0668 37.612 66.9681 37.6294C66.8668 37.6469 66.8002 37.6394 66.7229 37.5796C66.6242 37.5048 66.5335 37.4325 66.3735 37.4574C64.3497 37.7765 62.3258 38.0832 60.302 38.3998C60.1393 38.4247 60.0646 38.32 59.9526 38.2627C59.9153 38.2452 59.878 38.2203 59.838 38.2153C59.7953 38.2103 59.75 38.2253 59.7073 38.2328C56.4062 38.7389 53.1052 39.2475 49.8041 39.7536C49.6067 39.7835 49.6094 39.7835 49.3934 40.0128C49.3667 40.0403 49.3321 40.0776 49.2947 40.0826C48.2841 40.2422 47.2709 40.3968 46.2576 40.5513C45.8177 40.6186 45.3777 40.6885 44.9377 40.7533C44.7804 40.7757 44.7804 40.7757 44.4044 41.045C44.3724 41.0674 44.3351 41.0973 44.2977 41.1023C42.5379 41.3741 40.778 41.6458 39.0154 41.9126C38.8768 41.9325 38.7648 41.9774 38.7008 42.0971C38.6555 42.1818 38.5968 42.2317 38.5088 42.2466C37.2769 42.4361 36.045 42.6281 34.8105 42.8126C34.6638 42.835 34.5758 42.9048 34.5038 43.0095C34.4798 43.0445 34.4584 43.0843 34.4238 43.1092C34.3918 43.1317 34.3438 43.1392 34.3038 43.1467C33.2479 43.3087 32.192 43.4758 31.1334 43.6303C30.9761 43.6528 30.912 43.745 30.8347 43.8422C30.808 43.8746 30.7894 43.9195 30.7547 43.942C30.72 43.9619 30.6694 43.9619 30.6267 43.9669C29.7468 44.1015 28.8669 44.2386 27.9869 44.3733C27.8163 44.3608 27.7789 44.5054 27.6963 44.5927C27.6669 44.6226 27.6456 44.6625 27.611 44.6824C27.5736 44.7024 27.5256 44.6998 27.4803 44.7048C26.7763 44.812 26.0724 44.9267 25.3658 45.0265C25.2031 45.0489 25.1711 45.176 25.0831 45.2633C25.0538 45.2907 25.0245 45.3331 24.9898 45.3406C24.5498 45.4129 24.1099 45.4802 23.6699 45.545C23.5233 45.5674 23.5232 45.565 23.2646 45.8118C23.2353 45.8392 23.2006 45.8691 23.1632 45.8766C22.5046 45.9813 21.8433 46.081 21.1821 46.1833C21.0967 46.1957 21.0381 46.2556 20.9954 46.3403C20.9528 46.4251 20.8914 46.4799 20.8061 46.4924C20.2782 46.5747 19.7501 46.6594 19.2222 46.7342C19.0755 46.7542 18.9796 46.8165 18.9156 46.9287C18.8676 47.0135 18.8089 47.0558 18.7156 47.0708C18.1876 47.1506 17.6597 47.2378 17.129 47.3076C16.9744 47.3276 16.8943 47.4123 16.8304 47.5171C16.7797 47.6018 16.721 47.6317 16.6224 47.6467C15.6544 47.7913 14.6839 47.9359 13.7186 48.0954C13.5559 48.1229 13.4733 48.0356 13.3666 47.9733C13.2146 47.886 13.0733 47.7913 13.0733 47.5968C13.0733 47.5669 13.028 47.532 12.996 47.5071C12.7587 47.3201 12.7587 47.3201 12.7213 47.1207C12.7 46.9985 12.676 46.8738 12.6573 46.7492C12.6227 46.5448 12.5373 46.4924 12.292 46.5298C12.204 46.5423 12.116 46.5597 12.028 46.5697C11.8974 46.5871 11.7987 46.5048 11.7747 46.3553C11.7614 46.273 11.7454 46.1907 11.7321 46.1084C11.8654 46.0885 11.8627 46.086 12.0974 45.7844C12.196 45.6572 12.1961 45.6572 12.0067 45.5301C11.9347 45.4827 11.8654 45.4303 11.7881 45.3854C11.7534 45.3655 11.7081 45.353 11.6708 45.358C11.4494 45.3879 11.2308 45.4229 11.0121 45.4578C10.6602 45.5126 10.6601 45.5126 10.3028 45.2583C10.2735 45.2383 10.2282 45.201 10.2335 45.181C10.2628 45.0888 10.3348 45.0489 10.4255 45.0389C10.5588 45.0239 10.6894 44.999 10.8201 44.9791C10.9081 44.9666 10.9961 44.9517 11.0841 44.9392C11.1667 44.8445 11.2521 44.7522 11.3294 44.655C11.4521 44.5054 11.4521 44.5004 11.2841 44.3957C11.1774 44.3259 11.0627 44.2635 10.9534 44.1987C10.8228 44.2187 10.6894 44.2411 10.5588 44.2586C10.3935 44.281 10.3268 44.2336 10.2841 44.0716C10.2468 43.9295 10.2921 43.8073 10.4201 43.7774C10.5508 43.7475 10.6735 43.7276 10.7402 43.6004C10.8042 43.4782 10.9161 43.4309 11.0548 43.4209C11.1428 43.4134 11.2308 43.396 11.3188 43.381C11.4334 43.3611 11.4948 43.2339 11.4708 43.0918C11.4574 42.9996 11.4308 42.9223 11.3268 42.9023C10.8655 42.8151 10.8601 42.8176 10.6308 42.648C10.6095 42.6331 10.5935 42.5882 10.6015 42.5658C10.6148 42.5284 10.6442 42.4735 10.6762 42.466C10.9828 42.4112 11.2894 42.3613 11.5961 42.3239C11.6974 42.3115 11.7721 42.294 11.8067 42.2018C11.8547 42.0746 11.8334 41.9574 11.7401 41.8702C11.7108 41.8428 11.6627 41.8079 11.6307 41.8104C11.2787 41.8552 10.9294 41.9126 10.5775 41.9574C10.5455 41.9624 10.4868 41.9201 10.4735 41.8877C10.4468 41.8278 10.4868 41.748 10.5801 41.7206C10.7028 41.6832 10.8281 41.6807 10.9108 41.5561C11.0254 41.379 11.1667 41.217 11.2947 41.0475C11.3161 41.0176 11.3508 40.9602 11.3428 40.9552C11.2761 40.9004 11.1988 40.858 11.1295 40.8056C11.0121 40.7184 11.0121 40.5962 11.0388 40.4791C11.0601 40.3843 11.1401 40.3469 11.2388 40.3469C11.2814 40.3469 11.3347 40.3469 11.3694 40.3245C11.4601 40.2696 11.4894 40.1998 11.4441 40.1475C11.4174 40.1175 11.3694 40.0752 11.3374 40.0802C10.7668 40.1624 10.1935 40.2422 9.62552 40.3444C9.45753 40.3743 9.38026 40.2796 9.27893 40.2123C9.2016 40.1599 9.12957 40.14 9.03357 40.1774C8.94291 40.2123 8.85495 40.1924 8.79895 40.1101C8.75362 40.0428 8.8336 39.9854 9.04959 39.9206C9.08958 39.9081 9.1349 39.9006 9.16423 39.8757C9.47354 39.6065 9.47353 39.604 9.68685 39.5691C9.89483 39.5367 9.89488 39.5342 10.0042 39.3896C10.0549 39.3223 10.1108 39.2549 10.1588 39.1851C10.1775 39.1577 10.2095 39.1078 10.1989 39.0929C10.1402 39.0156 10.0602 38.9982 9.96684 39.0156C9.75885 39.058 9.51358 39.0231 9.40425 39.2599C9.36159 39.3497 9.29492 39.3746 9.19893 39.3896C8.23366 39.5342 7.26836 39.6887 6.30043 39.8284C6.14311 39.8508 6.07116 39.943 6.00983 40.0453C5.9565 40.13 5.89782 40.155 5.7965 40.1699C5.69517 40.1849 5.61514 40.1924 5.55648 40.1101C5.52181 40.0602 5.55115 39.9904 5.63114 39.9206C5.7458 39.8209 5.72446 39.6962 5.68713 39.5791C5.66046 39.5018 5.57781 39.4469 5.48981 39.4519C5.35916 39.4619 5.23386 39.4893 5.12454 39.3896C5.06054 39.3322 4.98053 39.2923 4.90854 39.2425C4.76988 39.1402 4.63122 39.0355 4.43657 39.1029C4.30324 39.0779 4.20992 38.9882 4.10326 38.9184C3.9246 38.8037 3.9086 38.7862 4.0366 38.6641C4.18059 38.527 4.06857 38.3474 4.14857 38.2128C4.23389 38.0682 4.35126 37.9411 4.45525 37.8065C4.48192 37.7716 4.50592 37.7391 4.53259 37.7042C4.47126 37.6544 4.41527 37.5921 4.34328 37.5572C4.24995 37.5123 4.20195 37.4574 4.20729 37.3029C4.18862 37.2804 4.19657 37.3377 4.2179 37.3527C4.2419 37.3677 4.3006 37.3552 4.32993 37.3378C4.4046 37.2904 4.44189 37.2281 4.42322 37.1757C4.41256 37.1483 4.36193 37.1134 4.32993 37.1134C4.27127 37.1134 4.22062 37.1682 4.20462 37.3029C3.90597 37.4051 3.59661 37.4549 3.2873 37.4948C3.2553 37.4998 3.21533 37.4499 3.178 37.425C3.05534 37.3402 3.05532 37.3427 2.69535 37.3178C2.65802 37.3153 2.60738 37.2804 2.58872 37.2455C2.51139 37.0934 2.51408 36.9264 2.47674 36.7643C2.54607 36.6596 2.61535 36.5574 2.68734 36.4552C2.83133 36.2483 3.01803 36.0663 3.13002 35.8394C3.10602 35.7172 3.07402 35.5951 3.19134 35.4954C3.52465 35.3707 3.52201 35.3707 3.61267 35.251C3.87132 34.912 4.12728 34.5704 4.3966 34.2363C4.46859 34.1491 4.4686 34.1017 4.34061 34.0643C4.30061 34.0544 4.25789 34.0519 4.21523 34.0568C4.0819 34.0743 3.94858 34.1192 3.81793 34.1092C3.68727 34.1017 3.59128 33.992 3.48462 33.9247C3.37529 33.8549 3.26597 33.7826 3.15664 33.7103C3.03132 33.7178 2.90602 33.7876 2.78069 33.6754C2.6847 33.5881 2.56472 33.5258 2.45539 33.4535C2.53805 33.264 2.69273 33.1194 2.81272 32.9524C2.92205 32.8003 2.92466 32.8028 3.21797 32.6856C3.35663 32.6308 3.40462 32.3491 3.2873 32.2668C3.14598 32.1671 2.99668 32.0748 2.85269 31.9801C2.72737 31.9876 2.59941 32.0549 2.47941 31.9427C2.38609 31.8579 2.27941 31.8006 2.12475 31.833C1.86344 31.8878 1.5968 31.9153 1.33282 31.9601C1.24215 31.9751 1.14347 31.9651 1.10347 31.8804C1.0768 31.8205 1.15414 31.7383 1.24213 31.7208C1.37546 31.6959 1.49543 31.666 1.5621 31.5413C1.62609 31.4167 1.7434 31.3792 1.88206 31.3618C1.91939 31.3568 1.96209 31.3269 1.98075 31.297C2.07674 31.1524 2.18341 31.0277 2.38873 31.0327C2.47406 30.9829 2.51936 30.9205 2.49269 30.8607C2.4767 30.8283 2.42073 30.7859 2.38873 30.7909C2.16741 30.8158 1.9461 30.8408 1.73012 30.8856C1.62879 30.9056 1.55142 30.9105 1.48743 30.8358C1.4421 30.7859 1.46609 30.7186 1.55142 30.6463C1.62608 30.5839 1.64744 30.5116 1.6421 30.4269C1.62877 30.2299 1.54876 30.1726 1.29278 30.1851C1.10879 30.195 1.06346 30.1626 1.02346 29.9931C1.0128 29.9532 0.986178 29.8984 1.00484 29.8709C1.1195 29.7014 1.19417 29.492 1.41015 29.4122C1.49548 29.3823 1.5861 29.3823 1.63943 29.3175C1.69276 29.2526 1.74078 29.1778 1.79678 29.1155C1.86611 29.0407 1.91406 28.9709 1.88206 28.9236C1.82873 28.8388 1.74343 28.8313 1.64477 28.8612C1.55945 28.8862 1.46879 28.8886 1.38079 28.9036C1.22347 28.931 1.09551 28.8662 1.07684 28.7565C1.02618 28.4673 0.972835 28.1806 0.927505 27.8914C0.922172 27.8565 0.935468 27.8116 0.9568 27.7817C1.03146 27.677 1.11149 27.5773 1.18881 27.4751C1.27948 27.3579 1.42349 27.3803 1.54615 27.3579C1.71947 27.3255 1.71941 27.328 1.95139 27.0886C2.04205 26.9939 2.19938 27.0313 2.29271 26.9465C2.32204 26.9191 2.36737 26.8742 2.35937 26.8493C2.3487 26.8169 2.2954 26.7919 2.25541 26.777C2.21808 26.762 2.17276 26.7546 2.13276 26.762C1.64746 26.8343 1.16484 26.9116 0.679541 26.9814C0.59688 26.9939 0.506217 26.9391 0.476886 26.8618C0.447555 26.7895 0.455528 26.7022 0.450195 26.6199C0.527523 26.5177 0.615483 26.423 0.682145 26.3133C0.732808 26.2285 0.791481 26.1911 0.892807 26.1861C1.02613 26.1786 1.1568 26.1487 1.30612 26.1263C1.58344 25.7623 1.8554 25.3809 2.15405 25.0169C2.27404 24.8698 2.24475 24.7202 2.26875 24.5631C2.29275 24.4185 2.47139 24.441 2.59139 24.3986C2.68738 24.3637 2.71933 24.2839 2.682 24.2291C2.66067 24.1966 2.6127 24.1592 2.57537 24.1592C2.48738 24.1592 2.39939 24.1817 2.31139 24.1941C2.2234 24.2066 2.12208 24.1992 2.05008 24.2415C1.98075 24.2814 1.9354 24.3662 1.89007 24.4385C1.8394 24.5182 1.77279 24.5457 1.67146 24.5507C1.54081 24.5557 1.41016 24.5781 1.2795 24.5955C1.13551 24.4983 0.986155 24.4036 0.847498 24.3014C0.820833 24.2814 0.815472 24.2241 0.818138 24.1867C0.823471 24.0895 0.783484 24.0296 0.69549 23.9822C0.620829 23.9424 0.559495 23.885 0.490166 23.8352C0.543496 23.7678 0.602179 23.703 0.644843 23.6307C0.73817 23.4786 0.855508 23.369 1.05816 23.3739C1.13815 23.2767 1.20213 23.157 1.30612 23.0897C1.40478 23.0249 1.57278 23.0897 1.64744 22.9426C1.68477 22.8703 1.7408 22.788 1.81279 22.7581C1.92745 22.7108 2.07677 22.7357 2.14344 22.5961C2.18343 22.5163 2.24207 22.444 2.3194 22.4241C2.40739 22.4016 2.49803 22.3967 2.56203 22.3493C2.59669 22.3244 2.63403 22.2845 2.63403 22.2496C2.63403 22.2271 2.58074 22.1922 2.54341 22.1772C2.50874 22.1598 2.46336 22.1473 2.42336 22.1523C2.29004 22.1673 2.15938 22.1947 2.02606 22.2097C1.98873 22.2146 1.94608 22.1972 1.90608 22.1822C1.78876 22.1423 1.79674 22.0925 1.89007 22.0027C1.98339 21.9155 2.05009 21.8033 2.12742 21.7011C2.21275 21.6836 2.31939 21.6911 2.37805 21.6437C2.47671 21.5664 2.54602 21.4542 2.62602 21.357C2.71401 21.342 2.80467 21.3371 2.88733 21.3097C2.92199 21.2997 2.938 21.2448 2.96733 21.2124C3.02066 21.1501 3.06603 21.0603 3.13803 21.0304C3.25535 20.9856 3.39934 21.003 3.46867 20.8659C3.50866 20.7861 3.56997 20.7013 3.64463 20.6964C3.85262 20.6864 3.94061 20.5492 4.04727 20.4196C4.12727 20.3224 4.29793 20.3722 4.38592 20.275C4.44458 20.2127 4.48727 20.1354 4.54593 20.0756C4.56993 20.0506 4.62058 20.0382 4.66057 20.0307C4.87923 19.9933 5.10054 19.9659 5.31919 19.926C5.35385 19.9185 5.38588 19.8811 5.41254 19.8512C5.46854 19.7864 5.50316 19.6966 5.57249 19.6542C5.64182 19.6119 5.74046 19.6119 5.82579 19.5994C6.10044 19.562 6.12179 19.5719 6.24712 19.36C6.34844 19.188 6.59646 19.3102 6.67912 19.1207C6.72711 19.011 6.81507 18.9213 6.97239 18.9088C7.19371 18.8913 7.41235 18.844 7.63367 18.8116C7.83099 18.7817 7.82833 18.7816 8.04165 18.5498C8.13764 18.4451 8.279 18.46 8.40432 18.4401C8.53764 18.4202 8.66029 18.3902 8.72429 18.2656C8.78828 18.1434 8.90559 18.1035 9.04158 18.0861C9.1669 18.0686 9.30826 18.0811 9.40692 17.9814C9.6469 17.742 9.64424 17.7395 9.81223 17.7146C10.0762 17.6747 10.3402 17.6348 10.6042 17.5924C10.7802 17.565 10.9641 17.56 11.1295 17.5052C11.2494 17.4653 11.3028 17.3257 11.3801 17.2285C11.5987 17.1911 11.8174 17.1537 12.036 17.1187C12.3427 17.0689 12.652 17.024 12.9613 16.9767C13.0946 16.8819 13.1133 16.6725 13.3373 16.6625C13.4706 16.6575 13.6013 16.6251 13.7346 16.6052C13.9559 16.5703 14.1746 16.5254 14.3959 16.508C14.5639 16.4955 14.5932 16.3608 14.6812 16.2761C14.7105 16.2462 14.7372 16.2038 14.7718 16.1963C15.1185 16.1265 15.4758 16.1116 15.8144 16.0093C15.8491 15.9994 15.8811 15.947 15.8891 15.9096C15.8944 15.8897 15.8491 15.8523 15.8197 15.8348C15.7851 15.8149 15.7398 15.7949 15.7024 15.7999C14.6012 15.967 13.5 16.1365 12.3987 16.3035C12.244 16.3285 12.244 16.326 11.8681 16.6002C11.8361 16.6226 11.7987 16.6476 11.7587 16.655C11.5827 16.685 11.4041 16.7024 11.2307 16.7398C11.0894 16.7697 10.9721 16.7398 10.8708 16.65C10.7988 16.5852 10.7241 16.5653 10.6335 16.5703C10.5321 16.5778 10.4655 16.6052 10.4068 16.6725C10.3295 16.7647 10.2895 16.8844 10.1269 16.9093C9.37757 17.0165 8.62825 17.1362 7.88164 17.2509C7.77764 17.216 7.72699 17.1636 7.75365 17.1013C7.76965 17.0639 7.80166 17.0141 7.83366 17.0091C8.1403 16.9567 8.4496 16.9118 8.75625 16.862C8.79891 16.8545 8.85757 16.8595 8.88157 16.8345C8.99889 16.7223 9.0416 16.5403 9.26292 16.5279C9.39091 16.5204 9.52155 16.483 9.64421 16.4481C9.67887 16.4381 9.71088 16.3858 9.71888 16.3484C9.72154 16.3284 9.67887 16.291 9.64688 16.2736C9.52955 16.2013 9.39359 16.2886 9.27626 16.2387C9.23627 16.2213 9.18023 16.1963 9.17223 16.1664C9.1669 16.139 9.21224 16.0941 9.24424 16.0667C9.27357 16.0417 9.31354 16.0193 9.35354 16.0118C9.70551 15.9545 10.0575 15.8946 10.4095 15.8498C10.5535 15.8323 10.6548 15.77 10.7188 15.6553C10.7668 15.5705 10.8255 15.5257 10.9161 15.5132C11.5321 15.421 12.148 15.3187 12.7666 15.234C12.9213 15.214 13.0013 15.1318 13.0653 15.0246C13.116 14.9398 13.1747 14.9099 13.2733 14.8949C14.1559 14.7653 15.0332 14.6207 15.9158 14.496C16.0784 14.4736 16.1264 14.3664 16.2091 14.2741C16.2384 14.2417 16.2571 14.2019 16.2944 14.1819C16.3317 14.162 16.3797 14.1644 16.425 14.1594C17.129 14.0522 17.833 13.9376 18.5396 13.8379C18.7049 13.8154 18.7369 13.6908 18.8222 13.6035C18.8515 13.5761 18.8782 13.5312 18.9129 13.5237C19.4408 13.439 19.9688 13.3592 20.4968 13.2769C20.8487 13.2221 21.2007 13.1672 21.5527 13.1149C21.726 13.0899 21.726 13.0874 21.9607 12.8506C21.9873 12.8231 22.0247 12.7907 22.0593 12.7833C23.0726 12.6237 24.0832 12.4716 25.0964 12.3146C25.1818 12.3021 25.2431 12.2447 25.2857 12.16C25.3284 12.0752 25.3898 12.0179 25.4725 12.0054C26.2644 11.8808 27.0563 11.7586 27.8509 11.6414C27.9949 11.6215 28.0962 11.5616 28.1602 11.4495C28.2082 11.3647 28.2669 11.3198 28.3575 11.3074C29.1495 11.1877 29.9415 11.0605 30.7361 10.9458C30.8881 10.9234 30.9627 10.8387 31.0374 10.7389C31.064 10.704 31.0854 10.6467 31.1174 10.6417C31.512 10.5719 31.904 10.4996 32.3013 10.4522C32.4666 10.4323 32.5226 10.3276 32.5893 10.2278C32.6426 10.1481 32.7039 10.1206 32.8053 10.1107C33.0266 10.0882 33.2452 10.0459 33.4612 10.0035C33.4932 9.996 33.5332 9.94115 33.5359 9.90624C33.5412 9.84142 33.4799 9.79654 33.3785 9.7741C32.3226 9.93615 31.264 10.0982 30.2081 10.2602C30.0348 10.2877 30.0348 10.2877 29.8001 10.5245C29.7735 10.552 29.7361 10.5844 29.6988 10.5918C28.6855 10.7489 27.6749 10.9035 26.6617 11.0605C26.5764 11.073 26.515 11.1304 26.4724 11.2151C26.4297 11.2999 26.3683 11.3572 26.2857 11.3697C25.3177 11.5193 24.3498 11.6714 23.3792 11.8135C23.2352 11.8334 23.1339 11.8907 23.07 12.0054C23.022 12.0902 22.9633 12.1351 22.8726 12.1475C21.9474 12.2871 21.0247 12.4342 20.0968 12.5689C20.0035 12.5813 19.9342 12.509 19.9395 12.4417C19.9422 12.4068 19.9821 12.3495 20.0141 12.3445C20.4967 12.2622 20.9768 12.1774 21.4621 12.1151C21.6247 12.0952 21.6727 11.9855 21.7553 11.8932C21.782 11.8608 21.8033 11.8184 21.838 11.801C21.8753 11.781 21.9233 11.7835 21.9687 11.7786C23.1126 11.6016 24.2565 11.4221 25.4031 11.255C25.5684 11.2301 25.6004 11.1079 25.6857 11.0206C25.715 10.9907 25.7417 10.9459 25.7764 10.9409C26.1284 10.8811 26.4803 10.8287 26.8323 10.7763C27.4483 10.6816 28.0642 10.5869 28.6828 10.4921C28.8615 10.4647 28.8615 10.4647 29.0908 10.2303C29.1175 10.2029 29.1548 10.168 29.1895 10.163C30.8187 9.91124 32.448 9.65943 34.0772 9.41012C34.1625 9.39766 34.2238 9.34032 34.2665 9.25555C34.3092 9.17328 34.3705 9.11344 34.4531 9.09848C36.6556 8.75942 38.8555 8.42035 41.058 8.08627C41.202 8.06384 41.3033 8.01148 41.3673 7.8943C41.4126 7.80954 41.4739 7.76467 41.5646 7.74971C43.9858 7.37824 46.4069 7.00678 48.8308 6.63281C50.46 6.3835 52.0892 6.12921 53.7184 5.88488C53.8678 5.86244 53.9477 5.78514 54.0224 5.68293C54.0464 5.64802 54.0704 5.59068 54.1024 5.58569C54.4517 5.52337 54.801 5.46603 55.1503 5.40869C55.2596 5.47601 55.3689 5.54084 55.4783 5.60815C55.5609 5.51342 55.641 5.41618 55.7236 5.32144C56.2516 5.24914 56.7715 5.13695 57.3048 5.10205C57.3395 5.09955 57.3768 5.14693 57.4141 5.17186C57.6621 5.32893 57.8035 5.31646 57.9608 5.10704C58.0168 5.03225 58.0648 4.96493 58.1501 4.95247C58.4141 4.90759 58.6808 4.87767 58.9421 4.82532C59.0834 4.79789 59.2007 4.82282 59.302 4.91257C59.374 4.97739 59.4487 5.00483 59.5367 4.98987C60.022 4.91508 60.5046 4.84277 60.9899 4.76299C61.0246 4.758 61.0565 4.71561 61.0832 4.68569C61.1392 4.62087 61.1872 4.55108 61.2406 4.48377C61.3126 4.52615 61.3926 4.55856 61.4512 4.61341C61.5259 4.67823 61.5952 4.67822 61.6965 4.66077C63.6324 4.3591 65.5709 4.06492 67.5068 3.76076C67.6721 3.73583 67.7441 3.84055 67.8561 3.8954C67.8934 3.91534 67.9307 3.94026 67.9707 3.94525C68.0134 3.95023 68.0587 3.93529 68.1014 3.92781C69.5546 3.70343 71.0079 3.48153 72.4611 3.25715C72.6531 3.22724 72.6531 3.22724 72.9384 3.38181C72.9731 3.40175 73.0184 3.42419 73.0557 3.41671C73.717 3.31948 74.3783 3.21478 75.0369 3.11506C75.1222 3.10259 75.1943 3.14247 75.2716 3.19982C75.4236 3.31201 75.4342 3.31202 75.5462 3.14747C75.5995 3.07018 75.6555 3.02279 75.7435 3.00036C75.8395 2.97543 75.9169 2.98293 75.9915 3.02781C76.0982 3.09013 76.1755 3.19483 76.3382 3.1674C77.0421 3.05023 77.7487 2.95301 78.45 2.83334C78.61 2.80591 78.6954 2.89067 78.802 2.953C78.8393 2.97544 78.874 3.01035 78.914 3.01783C78.954 3.0253 79.002 3.00784 79.0446 3.00036C79.9246 2.86573 80.8072 2.73362 81.6844 2.58902C81.8497 2.5616 81.9218 2.66878 82.0338 2.72363C82.0711 2.74357 82.1137 2.77849 82.1484 2.77351C82.6764 2.69622 83.207 2.61393 83.735 2.53165C83.9243 2.50174 83.9243 2.50423 84.2122 2.65631C84.2469 2.67625 84.2923 2.6962 84.3296 2.69122C84.9456 2.59897 85.5642 2.50423 86.1801 2.40949C86.3695 2.37958 86.3695 2.37958 86.9161 2.50922C86.9561 2.5192 86.9987 2.53417 87.0387 2.52919C87.7427 2.42199 88.4493 2.31726 89.1532 2.20258C89.2946 2.18014 89.4119 2.20008 89.5132 2.28983C89.5852 2.35465 89.6599 2.38209 89.7479 2.36713C90.5398 2.24497 91.3344 2.1278 92.1237 1.99816C92.2757 1.97323 92.3743 2.02805 92.481 2.10035C92.5157 2.12528 92.5504 2.16019 92.5904 2.17017C92.6304 2.18014 92.6757 2.17016 92.7183 2.16268C93.5103 2.04052 94.3049 1.92584 95.0942 1.79371C95.2541 1.76628 95.3395 1.85104 95.4462 1.91337C95.4835 1.93581 95.5235 1.98069 95.5555 1.97819C95.8648 1.93581 96.1741 1.89843 96.4807 1.8361C96.646 1.8012 96.718 1.91586 96.83 1.97071C96.8674 1.98816 96.91 2.02557 96.9447 2.02059C97.606 1.92336 98.2673 1.82115 98.9259 1.71644C99.0192 1.70148 99.0885 1.7239 99.1632 1.78872C99.2619 1.87597 99.3765 1.91088 99.5205 1.88346C99.8272 1.82611 100.136 1.78624 100.446 1.73887C100.627 1.71144 100.627 1.71145 101.182 1.84109C101.222 1.85106 101.264 1.86601 101.304 1.86103C101.832 1.78125 102.363 1.70397 102.888 1.61671C103.03 1.59178 103.147 1.61421 103.248 1.70396C103.32 1.76878 103.392 1.79622 103.483 1.78126C103.968 1.70647 104.451 1.63167 104.936 1.55688C105.112 1.52945 105.288 1.48207 105.464 1.48207C105.592 1.48456 105.685 1.60423 105.8 1.66406C105.832 1.68151 105.885 1.66159 105.928 1.65661C106.544 1.56187 107.163 1.4746 107.776 1.3674C107.936 1.33997 108.021 1.42473 108.128 1.48706C108.165 1.5095 108.205 1.55438 108.237 1.55188C108.459 1.52446 108.677 1.48706 108.899 1.45465C109.162 1.41476 109.429 1.38484 109.69 1.33C109.904 1.28512 109.984 1.50201 110.154 1.50949C110.285 1.51697 110.418 1.4746 110.549 1.45465C110.813 1.41476 111.077 1.36989 111.341 1.33499C111.434 1.32252 111.506 1.28261 111.536 1.19286C111.541 1.17541 111.496 1.13803 111.466 1.11559C111.112 0.861298 111.112 0.861286 110.754 0.916134C110.533 0.951037 110.314 0.985946 110.093 1.01586C110.056 1.02085 110.013 1.00091 109.976 0.985948C109.869 0.943565 109.88 0.893708 109.97 0.803957C110.061 0.714205 110.13 0.604519 110.208 0.502302C110.317 0.567122 110.424 0.63192 110.533 0.69674C110.621 0.684275 110.709 0.669338 110.797 0.656873C111.237 0.592052 111.677 0.524734 112.117 0.4649C112.149 0.459913 112.189 0.509783 112.226 0.534713C112.333 0.607013 112.429 0.669323 112.584 0.641899C112.978 0.5696 113.376 0.517245 113.77 0.454917C113.943 0.427493 113.944 0.427496 114.247 0.582068C114.282 0.599519 114.327 0.619465 114.365 0.614479C114.762 0.557138 115.157 0.494818 115.554 0.434984C115.639 0.422518 115.722 0.454927 115.783 0.527227C115.807 0.557144 115.802 0.606996 115.903 1.01586C116.218 1.34744 116.434 1.31256 116.653 1.28264C116.746 1.27018 116.829 1.2577 116.89 1.20784C116.922 1.18041 116.962 1.14052 116.962 1.10811C116.962 1.08318 116.903 1.04328 116.866 1.03829C116.602 0.988431 116.351 1.09316 116.093 1.11559C115.973 1.12557 115.869 1.03831 115.847 0.8962C115.842 0.85631 115.834 0.81393 115.826 0.774041C115.818 0.734151 115.813 0.691771 115.805 0.651882C115.701 0.639416 115.639 0.684284 115.594 0.76905C115.557 0.838856 115.503 0.918635 115.431 0.956032C115.359 0.995921 115.261 0.988455 115.173 1.00092C115.087 1.01339 114.994 1.04579 114.914 1.02834C114.834 1.0084 114.77 0.936085 114.695 0.891209C114.661 0.868771 114.618 0.836373 114.583 0.841359C114.277 0.883742 113.973 0.926108 113.669 0.980956C113.509 1.01087 113.429 0.90618 113.328 0.841359C113.248 0.791497 113.168 0.803947 113.154 0.918629C113.12 1.19287 113.242 1.30755 113.514 1.25519C113.738 1.21032 113.941 1.20286 114.117 1.37239C114.141 1.39483 114.197 1.4048 114.231 1.39981C114.45 1.36989 114.666 1.33249 114.885 1.30258C114.925 1.29759 114.967 1.30755 115.005 1.31752C115.549 1.45215 115.549 1.45465 115.733 1.42473C115.821 1.40978 115.906 1.39731 115.898 1.01836C116.066 0.611985 116.333 0.584566 116.591 0.524731C116.759 0.487335 116.831 0.597036 116.941 0.654377C116.978 0.674322 117.018 0.714204 117.053 0.709218C117.626 0.626946 118.197 0.539675 118.767 0.447431C118.863 0.432472 118.932 0.447433 119.007 0.512254C119.103 0.594526 119.21 0.646892 119.362 0.616975C119.666 0.55714 119.975 0.519752 120.284 0.469891C120.442 0.44496 120.442 0.444934 120.759 0.599506C120.794 0.616958 120.839 0.636904 120.876 0.631917C121.186 0.589535 121.492 0.537196 121.799 0.49232C121.884 0.479854 121.962 0.514754 122.028 0.582068C122.095 0.649381 122.175 0.684281 122.258 0.671815C122.567 0.62694 122.874 0.577094 123.18 0.532218C123.218 0.527232 123.263 0.544682 123.298 0.562134C123.623 0.716706 123.623 0.71668 123.772 0.691749C123.991 0.654353 124.215 0.636921 124.431 0.587059C124.641 0.537197 124.751 0.681784 124.895 0.761563C125.289 0.704222 125.687 0.656865 126.079 0.587059C126.239 0.557142 126.324 0.639406 126.431 0.704227C126.468 0.726665 126.505 0.774038 126.54 0.771545C126.673 0.761573 126.804 0.734154 126.935 0.714209C127.065 0.694264 127.199 0.674322 127.329 0.654377C127.479 0.726677 127.577 0.896205 127.791 0.838864C127.919 0.80396 128.055 0.796481 128.185 0.776536C128.316 0.756591 128.449 0.736649 128.58 0.716704C128.668 0.704239 128.758 0.696749 128.844 0.674311C129.001 0.636914 129.078 0.759091 129.19 0.813939C129.228 0.83139 129.27 0.861288 129.305 0.856302C129.569 0.821399 129.836 0.791484 130.094 0.734143C130.294 0.689267 130.43 0.76407 130.572 0.868779C130.601 0.891217 130.652 0.903682 130.689 0.898695C130.998 0.856313 131.305 0.803943 131.612 0.759068C131.694 0.746602 131.774 0.78649 131.841 0.851311C131.91 0.918624 131.988 0.951059 132.073 0.938593C132.38 0.893718 132.689 0.843841 132.996 0.798966C133.033 0.793979 133.078 0.813928 133.113 0.833872C133.411 0.988444 133.411 0.99094 133.587 0.961023C133.63 0.953543 133.675 0.948538 133.718 0.941059C133.937 0.906155 134.163 0.893707 134.377 0.833872C134.622 0.766559 134.801 0.851328 134.974 0.993434C135.193 0.963517 135.417 0.946062 135.63 0.8962C135.79 0.858803 135.875 0.953536 135.982 1.01586C136.019 1.0383 136.059 1.08318 136.091 1.07819C136.401 1.03581 136.71 0.998425 137.014 0.936098C137.179 0.901195 137.251 1.01336 137.363 1.0707C137.4 1.09065 137.44 1.12557 137.475 1.12058C137.651 1.10064 137.827 1.07071 138.003 1.04328C138.208 1.01087 138.208 1.01336 138.48 1.16544C138.608 1.23774 138.736 1.1804 138.862 1.16295C138.995 1.143 139.12 1.12805 139.227 1.23027C139.294 1.29509 139.374 1.33498 139.456 1.325C139.632 1.30257 139.811 1.28014 139.984 1.24274C140.123 1.21283 140.243 1.23276 140.344 1.325C140.416 1.38983 140.491 1.42225 140.579 1.4073C140.974 1.34746 141.371 1.28511 141.766 1.22777C141.8 1.22278 141.848 1.24523 141.88 1.26767C141.955 1.31254 142.027 1.36239 142.099 1.41226C142.272 1.38982 142.451 1.37987 142.621 1.34497C142.803 1.31007 142.968 1.2976 143.109 1.43472C143.139 1.46463 143.181 1.50699 143.216 1.5045C143.349 1.49453 143.48 1.4696 143.611 1.44966C143.741 1.42971 143.875 1.40977 144.005 1.38983C144.157 1.45215 144.253 1.63166 144.467 1.57431C144.595 1.53941 144.731 1.53193 144.861 1.51199C144.992 1.49204 145.125 1.46961 145.256 1.45215C145.299 1.44717 145.347 1.4347 145.384 1.44467C145.424 1.45464 145.459 1.48955 145.493 1.51448C145.6 1.58678 145.699 1.65909 145.851 1.61671C145.979 1.5818 146.115 1.57432 146.245 1.55188C146.424 1.52446 146.424 1.52447 146.72 1.68153C146.84 1.74635 146.976 1.66159 147.09 1.71644C147.168 1.75383 147.234 1.81615 147.309 1.85853C147.341 1.87598 147.392 1.88345 147.429 1.87846C147.605 1.85603 147.784 1.8336 147.957 1.7962C148.098 1.76629 148.216 1.7962 148.314 1.88595C148.386 1.95077 148.458 1.97821 148.549 1.96325C148.989 1.89344 149.429 1.83359 149.866 1.75631C150.016 1.72888 150.136 1.77127 150.218 1.86103C150.36 2.0156 150.56 1.83361 150.706 1.95826C150.797 2.03555 150.888 2.1253 151.053 2.08791C151.357 2.02309 151.666 1.98816 151.973 1.94329C152.082 2.0106 152.191 2.07793 152.303 2.14524C152.479 2.11782 152.655 2.09038 152.831 2.06545C152.962 2.0455 153.095 2.02307 153.226 2.00561C153.269 2.00063 153.314 1.99065 153.354 2.00312C153.394 2.01558 153.426 2.048 153.463 2.07293C153.647 2.19509 153.647 2.1976 153.951 2.14774C154.082 2.1253 154.207 2.11034 154.317 2.21007C154.418 2.30231 154.538 2.31975 154.677 2.29233C154.938 2.24246 155.202 2.20507 155.469 2.17017C155.551 2.1577 155.629 2.20009 155.698 2.26491C155.802 2.36712 155.93 2.35715 156.061 2.32973C156.234 2.29483 156.404 2.25993 156.551 2.39954C156.58 2.42946 156.626 2.47182 156.658 2.46933C156.876 2.44938 157.098 2.43443 157.311 2.38707C157.524 2.3397 157.628 2.49426 157.775 2.56906C157.994 2.53665 158.215 2.50423 158.434 2.47182C158.476 2.46434 158.527 2.44192 158.564 2.45438C158.722 2.50674 158.812 2.69372 159.028 2.63637C159.154 2.60396 159.29 2.594 159.42 2.58652C159.455 2.58403 159.5 2.62639 159.524 2.6588C159.538 2.67626 159.524 2.72362 159.508 2.74855C159.46 2.81836 159.402 2.8832 159.359 2.9555C159.354 2.96547 159.404 3.01033 159.434 3.03027C159.506 3.07515 159.588 3.06769 159.684 3.04774C159.767 3.03029 159.852 3.06519 159.911 3.13998C159.935 3.1699 159.927 3.21976 159.876 3.3843C159.876 3.50646 159.932 3.4516 159.951 3.37182C159.98 3.25714 159.924 3.21975 159.818 3.28208C159.743 3.32695 159.706 3.39178 159.724 3.44413C159.735 3.47156 159.786 3.50646 159.876 3.3843C160.111 3.23472 160.287 3.20731 160.463 3.17988C160.508 3.1724 160.562 3.14745 160.594 3.16241C160.708 3.22225 160.815 3.29456 160.927 3.36187C161.055 3.34691 161.175 3.3095 161.3 3.40673C161.476 3.54385 161.484 3.53139 161.655 3.50397C161.743 3.48901 161.831 3.47656 161.919 3.4641C162.007 3.45163 162.076 3.48902 162.153 3.54636C162.311 3.66354 162.324 3.66352 162.428 3.50397C162.489 3.40674 162.532 3.37433 162.609 3.41921C162.865 3.57129 162.868 3.58125 163.087 3.53638C163.268 3.49898 163.439 3.48901 163.572 3.63112C163.663 3.73084 163.692 3.70841 163.764 3.6037C163.956 3.32696 164.044 3.33194 164.404 3.53139C164.572 3.62612 164.745 3.52392 164.916 3.51145C165.06 3.50148 165.161 3.5613 165.172 3.71837C165.18 3.8156 165.204 3.88542 165.3 3.91783C165.337 3.93029 165.383 3.94774 165.42 3.94275C165.641 3.91284 165.86 3.87793 166.081 3.84302C166.193 3.82557 166.254 3.70842 166.233 3.55385C166.209 3.3893 166.252 3.32945 166.412 3.28208C166.508 3.25465 166.585 3.25966 166.662 3.30454C166.748 3.3544 166.724 3.39927 166.649 3.48902C166.47 3.70842 166.492 3.84302 166.721 3.9951C166.801 4.04745 166.865 4.09484 166.884 4.17213C166.894 4.21202 166.884 4.26437 166.908 4.29429C167.038 4.46133 167.22 4.56854 167.422 4.64832C167.617 4.581 167.75 4.69317 167.9 4.78292C168.017 4.85273 168.156 4.79291 168.281 4.76798C168.422 4.74056 168.54 4.76049 168.641 4.85274C168.713 4.91756 168.788 4.94746 168.876 4.935C169.052 4.90758 169.23 4.89013 169.404 4.85024C169.553 4.81534 169.665 4.86521 169.758 4.94997C169.876 5.05718 170.006 4.98486 170.129 4.99982C170.294 5.01727 170.377 5.23915 170.593 5.17932C170.721 5.14441 170.854 5.13195 170.987 5.12198C171.022 5.11949 171.065 5.16188 171.094 5.1918C171.235 5.32892 171.401 5.32143 171.582 5.28154C171.707 5.25412 171.83 5.2292 171.953 5.32394C172.155 5.48349 172.379 5.62312 172.593 5.77021C172.622 5.88489 172.601 6.01949 172.753 6.08681C172.833 6.12171 172.907 6.17409 172.969 6.23143C173.043 6.29874 173.113 6.3162 173.209 6.29875C173.382 6.26384 173.563 6.25634 173.734 6.21146C173.891 6.17157 173.99 6.25387 174.086 6.33116C174.163 6.39348 174.235 6.42339 174.329 6.37851C174.425 6.33613 174.494 6.36354 174.571 6.43086C174.681 6.5231 174.689 6.51314 175.051 6.54057C175.089 6.54306 175.134 6.58044 175.155 6.61285C175.166 6.6303 175.142 6.68019 175.123 6.70512C175.099 6.73504 175.062 6.76992 175.027 6.7774C174.633 6.84222 174.235 6.89956 173.841 6.96438C173.801 6.97186 173.758 6.98933 173.729 7.01426C173.697 7.04169 173.657 7.07906 173.657 7.11396C173.657 7.13889 173.71 7.16882 173.747 7.18627C173.865 7.24361 174.003 7.15636 174.118 7.22118C174.195 7.26356 174.259 7.32338 174.337 7.36327C174.369 7.38072 174.419 7.37824 174.459 7.37325C174.593 7.3558 174.723 7.33087 174.857 7.31592C174.894 7.31342 174.937 7.33837 174.971 7.35831C175.227 7.5079 175.227 7.50789 175.449 7.47548C175.536 7.46301 175.63 7.42561 175.712 7.44057C175.792 7.45553 175.862 7.52284 175.934 7.56523C176.083 7.65498 176.224 7.74223 176.235 7.93669C176.24 8.01149 176.328 8.0763 176.416 8.08128C176.502 8.08627 176.592 8.05887 176.68 8.04391C176.888 8.01399 176.888 8.01399 177.158 8.16607C177.232 8.20845 177.312 8.21343 177.408 8.1885C177.446 8.17853 177.491 8.18851 177.531 8.20098C177.662 8.23837 177.662 8.28573 177.576 8.37548C177.456 8.50762 177.467 8.52009 177.803 8.63228C177.931 8.67466 178.03 8.75444 178.136 8.82425C178.31 8.93644 178.307 8.93642 178.192 9.08351C178.166 9.11592 178.142 9.15083 178.115 9.18574C178.038 9.28297 177.976 9.38767 177.816 9.39764C177.64 9.40762 177.464 9.44752 177.288 9.47494C177.118 9.50237 177.072 9.56218 177.088 9.73171C177.107 9.93614 177.142 9.95859 177.448 9.95609C177.536 9.95609 177.614 9.97603 177.68 10.0433C177.648 10.1231 177.59 10.1855 177.504 10.2004C177.286 10.2378 177.064 10.2702 176.846 10.3026C176.67 10.3301 176.494 10.3575 176.318 10.3849C176.208 10.4024 176.139 10.532 176.168 10.6766C176.184 10.7589 176.198 10.8411 176.211 10.9234C176.24 11.088 176.296 11.1304 176.475 11.1229C176.52 11.1204 176.563 11.1004 176.606 11.1054C176.779 11.1229 176.862 11.3298 177.07 11.2874C177.243 11.2525 177.424 11.245 177.595 11.2001C177.752 11.1603 177.84 11.25 177.95 11.3173C177.987 11.3398 178.027 11.3871 178.059 11.3846C178.28 11.3572 178.502 11.3298 178.718 11.2824C178.819 11.2625 178.88 11.2774 178.96 11.3373C179.152 11.4819 179.158 11.4744 179.443 11.4295C179.651 11.3946 179.654 11.3996 179.92 11.5517C179.995 11.5941 180.075 11.5941 180.171 11.5741C180.296 11.5492 180.427 11.5093 180.557 11.5467C180.597 11.5567 180.648 11.5866 180.661 11.619C180.669 11.6414 180.632 11.6963 180.6 11.7137C180.366 11.8434 180.091 11.8209 179.835 11.8733C179.755 11.8883 179.675 11.8409 179.608 11.7736C179.539 11.7063 179.464 11.6788 179.374 11.6913C179.198 11.7187 179.019 11.7362 178.846 11.7761C178.696 11.811 178.592 11.7536 178.488 11.6763C178.454 11.6514 178.414 11.604 178.379 11.6065C177.984 11.6564 177.587 11.7063 177.195 11.7761C177.038 11.806 176.947 11.7262 176.84 11.6589C176.803 11.6365 176.766 11.5891 176.731 11.5916C176.598 11.6016 176.467 11.629 176.334 11.6489C175.848 11.7237 175.366 11.7985 174.881 11.8683C174.849 11.8733 174.809 11.8209 174.771 11.7985C174.699 11.7536 174.625 11.7112 174.55 11.6688C174.417 11.6888 174.286 11.7137 174.153 11.7287C174.057 11.7387 173.971 11.7736 173.958 11.8683C173.95 11.9306 174.038 11.988 174.131 11.983C174.222 11.978 174.313 11.9481 174.387 11.9805C174.758 12.14 174.758 12.1425 174.99 12.1101C175.193 12.0802 175.171 12.0553 175.35 12.1924C175.427 12.2522 175.497 12.2871 175.584 12.2722C175.803 12.2373 176.024 12.2024 176.246 12.1725C176.28 12.1675 176.326 12.1924 176.36 12.2124C176.622 12.3619 176.622 12.3669 176.838 12.3295C177.12 12.2846 177.131 12.2722 177.32 12.4243C177.451 12.529 177.571 12.4567 177.696 12.4517C177.84 12.5489 177.998 12.6362 178.128 12.7459C178.283 12.8755 178.446 12.8531 178.622 12.8157C178.752 12.7882 178.88 12.7783 178.987 12.8805C179.088 12.9752 179.211 12.9852 179.35 12.9603C179.475 12.9378 179.603 12.8905 179.734 12.9453C179.768 12.9603 179.822 12.9977 179.819 13.0201C179.816 13.055 179.781 13.1049 179.747 13.1198C179.502 13.2221 179.232 13.2196 178.974 13.2669C178.939 13.2744 178.894 13.247 178.859 13.227C178.784 13.1822 178.712 13.1298 178.64 13.0824C178.51 13.0974 178.376 13.1024 178.248 13.1323C178.15 13.1547 178.075 13.1523 178.003 13.0924C177.936 13.0376 177.864 12.9702 177.784 12.9528C177.704 12.9353 177.611 12.9727 177.523 12.9877C177.435 13.0027 177.334 12.9952 177.264 13.0351C177.195 13.0749 177.152 13.1622 177.107 13.232C177.056 13.3093 176.987 13.3343 176.886 13.3417C176.792 13.3492 176.718 13.3392 176.648 13.2694C176.619 13.2395 176.579 13.2171 176.539 13.1971C176.502 13.1797 176.459 13.1522 176.424 13.1572C176.027 13.2146 175.632 13.2769 175.235 13.3367C175.038 13.3667 175.041 13.3666 174.63 13.2195C174.593 13.2071 174.547 13.1896 174.51 13.1946C174.289 13.2245 174.07 13.2594 173.849 13.2944C173.625 13.3293 173.627 13.3243 173.246 13.1672C173.177 13.1373 173.075 13.1772 172.993 13.1722C172.819 13.1597 172.734 12.9503 172.531 12.9902C172.358 13.0251 172.177 13.0326 172.003 13.0775C171.846 13.1173 171.755 13.0301 171.649 12.9628C171.611 12.9403 171.571 12.8905 171.539 12.8955C171.142 12.9503 170.747 13.0126 170.22 13.0201C170.089 13.0201 170.148 13.0725 170.233 13.0899C170.356 13.1174 170.396 13.065 170.329 12.9653C170.281 12.8955 170.212 12.8605 170.156 12.878C170.126 12.888 170.089 12.9354 170.22 13.0201C170.358 13.1149 170.35 13.1672 170.374 13.1971C170.433 13.2694 170.516 13.2993 170.601 13.2894C170.734 13.2719 170.865 13.247 170.998 13.232C171.035 13.227 171.081 13.2445 171.115 13.2644C171.409 13.419 171.411 13.429 171.723 13.3692C171.822 13.3517 171.894 13.3517 171.971 13.3991C172.078 13.4639 172.155 13.5736 172.318 13.5387C172.534 13.4913 172.755 13.4639 172.977 13.4365C173.011 13.4315 173.049 13.4764 173.089 13.4963C173.198 13.5561 173.278 13.6683 173.441 13.621C173.566 13.5836 173.702 13.5736 173.835 13.5661C173.87 13.5636 173.923 13.6035 173.939 13.6359C173.971 13.6932 173.931 13.7606 173.841 13.8079C173.803 13.8279 173.753 13.8229 173.71 13.8304C173.534 13.8578 173.358 13.8877 173.182 13.9101C173.089 13.9226 173.001 13.96 172.99 14.0523C172.982 14.1146 173.078 14.1694 173.169 14.1644C173.302 14.157 173.435 14.137 173.563 14.1046C173.79 14.0498 173.987 14.0647 174.171 14.2218C174.302 14.3315 174.294 14.2916 174.433 14.6157C174.467 14.698 174.571 14.7054 174.662 14.7005C174.881 14.688 174.982 14.7254 174.963 14.8027C174.939 14.8974 174.862 14.9273 174.763 14.9398C174.587 14.9597 174.411 14.9922 174.235 15.0196C174.193 15.0271 174.145 15.042 174.105 15.037C174.065 15.032 174.027 15.0021 173.993 14.9797C173.918 14.9323 173.854 14.86 173.774 14.8426C173.694 14.8251 173.601 14.8625 173.513 14.8775C173.425 14.8899 173.331 14.9273 173.251 14.9099C173.171 14.8924 173.105 14.8176 173.033 14.7728C172.998 14.7503 172.955 14.7154 172.921 14.7179C172.745 14.7378 172.569 14.7703 172.393 14.7952C172.177 14.8276 172.177 14.8276 171.915 14.673C171.841 14.6282 171.763 14.6307 171.665 14.6506C171.451 14.6905 171.449 14.683 171.059 14.5384C171.022 14.5234 170.977 14.506 170.939 14.5135C170.542 14.5708 170.148 14.6331 169.753 14.693C169.414 14.7453 169.414 14.7453 169.228 14.9947C169.089 15.1791 169.086 15.1791 169.222 15.2639C169.332 15.3337 169.43 15.4359 169.55 15.4733C169.662 15.5082 169.801 15.396 169.924 15.5107C169.985 15.5681 170.065 15.6304 170.142 15.6404C170.265 15.6528 170.396 15.5805 170.513 15.6902C170.572 15.7451 170.66 15.8024 170.734 15.8049C170.865 15.8099 170.998 15.77 171.129 15.7525C171.169 15.7476 171.214 15.7476 171.251 15.76C171.291 15.775 171.326 15.8049 171.361 15.8298C171.467 15.9146 171.582 15.9545 171.721 15.9121C171.947 15.8423 172.15 15.8772 172.326 16.0368C172.35 16.0592 172.409 16.0617 172.446 16.0517C172.542 16.0268 172.625 16.0243 172.697 16.0717C172.726 16.0916 172.769 16.1265 172.763 16.1489C172.755 16.1863 172.723 16.2362 172.689 16.2487C172.438 16.3334 172.169 16.3434 171.91 16.3883C171.875 16.3933 171.833 16.3608 171.798 16.3384C171.723 16.2935 171.659 16.2188 171.579 16.2013C171.499 16.1839 171.406 16.2163 171.318 16.2287C171.23 16.2412 171.137 16.2786 171.057 16.2636C170.977 16.2462 170.902 16.1838 170.838 16.129C170.763 16.0667 170.692 16.0592 170.593 16.0841C170.465 16.1165 170.332 16.1215 170.201 16.139C170.129 16.0916 170.057 16.0392 169.982 15.9944C169.948 15.9719 169.905 15.9445 169.868 15.947C169.692 15.967 169.516 15.9969 169.34 16.0243C169.164 16.0517 169.164 16.0517 168.865 15.8972C168.83 15.8797 168.785 15.8598 168.748 15.8647C168.526 15.8947 168.308 15.932 168.086 15.9619C168.001 15.9744 167.924 15.9395 167.854 15.8722C167.788 15.8049 167.708 15.7675 167.625 15.78C167.273 15.8323 166.921 15.8822 166.569 15.9445C166.428 15.9694 166.308 15.947 166.212 15.8573C166.1 15.755 165.975 15.78 165.844 15.7999C165.548 15.8498 165.545 15.8473 165.356 15.7201C165.319 15.6952 165.281 15.6478 165.247 15.6503C164.94 15.6877 164.631 15.7226 164.327 15.7825C164.167 15.8149 164.081 15.7276 163.975 15.6628C163.937 15.6404 163.897 15.593 163.865 15.598C163.644 15.6254 163.423 15.6503 163.207 15.7002C162.991 15.7501 162.908 15.5182 162.745 15.5207C162.524 15.5232 162.305 15.5805 162.087 15.6154C161.911 15.6429 161.735 15.6703 161.559 15.6977C161.383 15.7251 161.207 15.7475 161.031 15.78C160.938 15.7974 160.868 15.775 160.791 15.7126C160.692 15.6304 160.575 15.5656 160.468 15.4908C160.306 15.3836 160.306 15.3836 160.108 15.4135C160.066 15.421 160.02 15.4259 159.978 15.4334C159.655 15.4883 159.655 15.4833 159.244 15.3262C159.226 15.3187 159.178 15.3462 159.159 15.3661C159.103 15.4309 159.052 15.5007 159.002 15.5681C158.93 15.5282 158.842 15.5057 158.794 15.4484C158.658 15.2863 158.444 15.5082 158.306 15.3487C158.255 15.2888 158.167 15.2365 158.087 15.2215C158.004 15.2065 157.911 15.2415 157.826 15.2564C157.604 15.2938 157.604 15.2913 157.415 15.5132C157.319 15.6229 157.18 15.603 157.055 15.6279C156.924 15.6553 156.799 15.6703 156.69 15.5681C156.591 15.4758 156.471 15.4534 156.33 15.4833C156.157 15.5207 155.978 15.5431 155.802 15.5656C155.765 15.5705 155.719 15.5581 155.682 15.5431C155.274 15.396 155.274 15.3935 155.077 15.426C154.989 15.4409 154.898 15.4459 154.813 15.4683C154.669 15.5082 154.559 15.4559 154.455 15.3761C154.421 15.3511 154.381 15.3038 154.346 15.3063C154.17 15.3188 153.997 15.3412 153.823 15.3636C153.69 15.3811 153.557 15.3911 153.429 15.426C153.215 15.4833 153.111 15.3212 152.965 15.2464C152.746 15.2788 152.525 15.3013 152.306 15.3462C152.205 15.3661 152.138 15.3586 152.061 15.2988C151.962 15.224 151.871 15.1393 151.712 15.1766C151.498 15.2265 151.274 15.244 151.056 15.2739C150.909 15.1966 150.802 15.0395 150.592 15.0969C150.464 15.1318 150.328 15.1392 150.197 15.1592C150.021 15.1866 149.845 15.2116 149.669 15.2415C149.48 15.2714 149.482 15.2639 149.192 15.1168C149.024 15.0296 148.85 15.1268 148.68 15.1417C148.546 15.1542 148.48 15.2689 148.512 15.416C148.544 15.5631 148.472 15.6778 148.349 15.6977C148.042 15.7451 147.733 15.7949 147.426 15.8373C147.389 15.8423 147.344 15.8248 147.309 15.8074C146.981 15.6503 146.981 15.6528 146.835 15.6753C146.616 15.7127 146.392 15.7326 146.176 15.78C146.027 15.8124 145.917 15.76 145.821 15.6753C145.747 15.6104 145.677 15.5955 145.581 15.6104C144.525 15.7775 143.469 15.932 142.416 16.1041C142.259 16.129 142.168 16.0567 142.062 15.9894C142.024 15.967 141.99 15.9196 141.952 15.9196C141.864 15.9196 141.776 15.942 141.688 15.957C141.294 16.0168 140.899 16.0891 140.502 16.134C140.334 16.1539 140.288 16.2686 140.216 16.3634C140.16 16.4357 140.096 16.4656 139.998 16.4755C139.902 16.4855 139.832 16.473 139.758 16.4082C139.662 16.3235 139.552 16.2711 139.403 16.306C139.23 16.3459 139.054 16.3634 138.875 16.3908C138.784 16.4032 138.715 16.4481 138.686 16.5379C138.68 16.5528 138.736 16.5902 138.768 16.6127C138.875 16.6875 138.976 16.7747 139.096 16.8271C139.219 16.8794 139.352 16.8196 139.48 16.8046C139.526 16.7996 139.568 16.7847 139.611 16.7872C139.651 16.7897 139.699 16.8021 139.728 16.8246C139.867 16.9368 140.014 17.0141 140.206 16.9467C140.371 16.9791 140.456 17.1861 140.667 17.1312C140.795 17.0988 140.928 17.0839 141.062 17.0714C141.096 17.0689 141.134 17.1138 141.171 17.1362C141.278 17.1985 141.363 17.2983 141.523 17.2559C141.694 17.211 141.875 17.2035 142.048 17.1686C142.144 17.1487 142.213 17.1661 142.288 17.231C142.384 17.3132 142.493 17.3755 142.643 17.3356C142.771 17.3007 142.907 17.2933 143.037 17.2708C143.208 17.2434 143.208 17.2459 143.512 17.4005C143.547 17.4179 143.592 17.4379 143.629 17.4329C143.851 17.403 144.069 17.3656 144.291 17.3356C144.376 17.3232 144.459 17.3556 144.517 17.4279C144.541 17.4578 144.533 17.5077 144.541 17.5501C144.101 17.6174 143.661 17.6747 143.224 17.757C143.059 17.7894 142.984 17.6872 142.875 17.6298C142.837 17.6099 142.797 17.5675 142.763 17.5725C142.453 17.6149 142.147 17.6598 141.84 17.7146C141.744 17.7321 141.672 17.7221 141.6 17.6498C141.416 17.4578 141.192 17.5625 140.984 17.5899C140.824 17.6099 140.774 17.6872 140.792 17.8517C140.816 18.0462 140.912 18.106 141.158 18.0711C141.246 18.0587 141.334 18.0412 141.422 18.0312C141.507 18.0213 141.584 18.0537 141.654 18.121C141.72 18.1883 141.8 18.2232 141.883 18.2132C142.059 18.1908 142.237 18.1684 142.408 18.131C142.549 18.101 142.667 18.126 142.765 18.2182C142.875 18.3204 143.003 18.298 143.131 18.2755C143.429 18.2257 143.432 18.2282 143.619 18.3528C143.656 18.3778 143.693 18.4252 143.728 18.4227C144.035 18.3853 144.344 18.3528 144.645 18.293C144.803 18.2631 144.893 18.3429 144.997 18.4077C145.035 18.4301 145.072 18.48 145.107 18.475C145.328 18.4476 145.549 18.4201 145.765 18.3728C145.867 18.3503 145.928 18.3653 146.011 18.4251C146.208 18.5722 146.213 18.5672 146.493 18.5199C146.579 18.5049 146.672 18.4775 146.752 18.4974C146.832 18.5174 146.896 18.5897 146.971 18.6346C147.005 18.6545 147.048 18.6819 147.085 18.6769C147.261 18.657 147.437 18.6271 147.613 18.5997C147.778 18.5722 147.778 18.5747 148.088 18.7293C148.213 18.7941 148.344 18.7393 148.469 18.7193C148.605 18.6969 148.728 18.6969 148.832 18.7941C148.936 18.8914 149.061 18.8864 149.194 18.8664C149.32 18.8465 149.448 18.7916 149.576 18.859C149.869 19.0135 149.869 19.016 150.05 18.9861C150.314 18.9437 150.576 18.9038 150.842 18.8664C150.877 18.8614 150.922 18.8914 150.957 18.9113C151.032 18.9562 151.096 19.0309 151.176 19.0484C151.256 19.0683 151.349 19.0384 151.434 19.0235C151.709 18.9761 151.728 18.9587 151.911 19.1232C152.066 19.2578 152.258 19.0634 152.402 19.2179C152.485 19.3052 152.597 19.375 152.751 19.3326C152.879 19.2977 153.013 19.2877 153.146 19.2678C153.357 19.2354 153.357 19.2379 153.623 19.3875C153.658 19.4074 153.703 19.4323 153.738 19.4274C153.914 19.4074 154.093 19.39 154.263 19.3451C154.463 19.2927 154.591 19.3875 154.741 19.4797C154.858 19.552 154.997 19.4922 155.122 19.4673C155.258 19.4423 155.381 19.4498 155.482 19.547C155.589 19.6467 155.714 19.6343 155.847 19.6143C155.973 19.5969 156.101 19.5395 156.229 19.6093C156.503 19.7639 156.503 19.7639 156.703 19.734C156.879 19.7066 157.055 19.6767 157.231 19.6567C157.266 19.6517 157.308 19.6841 157.343 19.7066C157.418 19.7515 157.482 19.8263 157.562 19.8437C157.642 19.8612 157.735 19.8288 157.823 19.8163C157.911 19.8038 158.004 19.7664 158.084 19.7814C158.164 19.7963 158.239 19.8587 158.303 19.9135C158.378 19.9783 158.447 19.9858 158.548 19.9609C158.676 19.9285 158.81 19.921 158.94 19.9035C159.012 19.9509 159.087 19.9983 159.156 20.0506C159.228 20.1055 159.306 20.1005 159.404 20.083C159.732 20.0232 159.735 20.0307 160.01 20.1853C160.135 20.2551 160.266 20.1977 160.391 20.1803C160.524 20.1603 160.65 20.1504 160.754 20.2501C160.855 20.3448 160.98 20.3573 161.114 20.3274C161.199 20.3074 161.289 20.295 161.377 20.2875C161.417 20.285 161.465 20.295 161.495 20.3149C161.636 20.4196 161.775 20.5144 161.969 20.4471C162.14 20.467 162.225 20.6714 162.431 20.6315C162.604 20.5966 162.785 20.5891 162.956 20.5443C163.113 20.5044 163.225 20.5742 163.305 20.6615C163.449 20.816 163.652 20.6066 163.796 20.7587C163.879 20.8459 163.985 20.9157 164.145 20.8784C164.321 20.8385 164.377 20.8908 164.428 21.0479C164.457 21.1376 164.452 21.2099 164.399 21.2797C164.345 21.352 164.287 21.3396 164.201 21.2573C164.103 21.1651 163.985 21.1476 163.844 21.1675C163.705 21.1875 163.62 21.0579 163.505 21.008C163.391 20.9556 163.255 21.0429 163.135 20.9756C162.852 20.8185 162.852 20.8185 162.66 20.8484C162.529 20.8684 162.393 20.8784 162.265 20.9133C162.113 20.9556 162.015 20.8783 161.911 20.8085C161.873 20.7836 161.836 20.7362 161.804 20.7387C161.497 20.7761 161.188 20.811 160.884 20.8734C160.724 20.9058 160.639 20.816 160.532 20.7537C160.495 20.7313 160.455 20.6864 160.423 20.6914C160.159 20.7263 159.898 20.7711 159.634 20.8135C159.583 20.8808 159.527 20.9457 159.479 21.0179C159.428 21.0927 159.359 21.1252 159.258 21.1227C159.09 21.1227 158.924 21.2274 158.756 21.0952C158.583 20.9606 158.57 20.9681 158.402 21.0005C158.188 21.0429 157.962 21.0329 157.762 21.1302C157.727 21.1476 157.69 21.195 157.69 21.2299C157.687 21.2523 157.743 21.2847 157.778 21.3047C157.895 21.3645 158.031 21.2772 158.148 21.3396C158.226 21.3795 158.29 21.4393 158.367 21.4817C158.399 21.4991 158.447 21.4966 158.49 21.4941C158.535 21.4916 158.578 21.4742 158.62 21.4767C158.66 21.4792 158.703 21.4941 158.735 21.5166C158.882 21.6113 159.036 21.6986 159.167 21.8108C159.295 21.9205 159.415 21.8457 159.543 21.8407C160.055 22.0152 160.055 22.0177 160.399 21.9628C160.484 21.9504 160.572 21.9354 160.66 21.9379C160.698 21.9379 160.732 21.9828 160.77 22.0077C160.876 22.0825 160.978 22.1498 161.127 22.1099C161.255 22.075 161.391 22.0675 161.521 22.0451C161.697 22.0177 161.697 22.0177 161.996 22.1747C162.071 22.2146 162.151 22.2097 162.247 22.1897C162.329 22.1723 162.415 22.2097 162.473 22.282C162.497 22.3119 162.489 22.3617 162.497 22.4041C162.233 22.444 161.967 22.4714 161.711 22.5313C161.545 22.5687 161.471 22.4615 161.361 22.4041C161.324 22.3842 161.284 22.3418 161.25 22.3468C160.988 22.3842 160.727 22.4265 160.466 22.4764C160.434 22.4814 160.394 22.5387 160.391 22.5736C160.386 22.6385 160.452 22.7008 160.548 22.6983C160.676 22.6958 160.802 22.6534 160.916 22.7556C161.012 22.8454 161.132 22.8853 161.273 22.8454C161.359 22.823 161.45 22.823 161.535 22.803C161.761 22.7432 161.967 22.7556 162.137 22.9252C162.268 22.97 162.396 22.9277 162.521 22.9052C162.615 22.8878 162.705 22.8703 162.772 22.9177C162.913 23.0174 163.052 23.1171 163.247 23.0498C163.457 23.1196 163.617 23.2667 163.793 23.3864C163.876 23.4437 163.94 23.4762 164.036 23.4388C164.076 23.4238 164.124 23.4238 164.167 23.4163C164.255 23.4038 164.348 23.3664 164.428 23.3814C164.508 23.3988 164.575 23.4712 164.647 23.516C164.681 23.5385 164.721 23.5759 164.756 23.5734C164.889 23.5609 165.02 23.536 165.151 23.516C165.281 23.4986 165.412 23.4811 165.542 23.4637C165.652 23.5285 165.764 23.5933 165.873 23.6582C166.049 23.6307 166.225 23.6033 166.398 23.5784C166.593 23.5484 166.593 23.5509 166.873 23.7055C166.998 23.7753 167.132 23.7304 167.252 23.698C167.452 23.6457 167.585 23.7404 167.726 23.8401C167.756 23.8601 167.809 23.8725 167.844 23.8626C167.982 23.8277 168.102 23.8551 168.204 23.9473C168.276 24.0122 168.348 24.0421 168.436 24.0296C168.742 23.9823 169.049 23.9324 169.356 23.89C169.393 23.885 169.436 23.9075 169.47 23.9274C169.742 24.0795 169.745 24.087 169.945 24.0471C170.124 24.0122 170.289 23.9972 170.43 24.1343C170.46 24.1642 170.505 24.2066 170.537 24.2041C170.755 24.1792 170.977 24.1518 171.193 24.1094C171.291 24.0894 171.361 24.0969 171.438 24.1543C171.537 24.2266 171.625 24.3138 171.787 24.2814C172.238 24.1892 172.241 24.2041 172.774 24.3761C172.811 24.3886 172.862 24.3687 172.905 24.3587C172.995 24.3338 173.062 24.3687 173.142 24.426C173.321 24.5557 173.326 24.5482 173.497 24.5208C173.627 24.4983 173.763 24.4933 173.891 24.4559C174.089 24.4011 174.219 24.4983 174.366 24.5906C174.483 24.6629 174.619 24.603 174.745 24.5806C174.881 24.5557 175.003 24.5631 175.105 24.6579C175.174 24.7227 175.248 24.7576 175.336 24.7451C175.643 24.7003 175.95 24.6504 176.256 24.6055C176.294 24.6005 176.339 24.6205 176.374 24.6379C176.678 24.7925 176.678 24.8 176.979 24.7426C177.075 24.7252 177.155 24.7202 177.227 24.7726C177.296 24.8224 177.371 24.8698 177.443 24.9172C177.574 24.8997 177.707 24.8947 177.835 24.8648C177.934 24.8424 178.003 24.8523 178.08 24.9047C178.182 24.972 178.267 25.0892 178.427 25.0318C178.51 25.0044 178.606 25.0119 178.688 24.987C178.787 24.9546 178.854 24.9745 178.931 25.0393C179.027 25.1166 179.126 25.1964 179.28 25.1565C179.451 25.1116 179.632 25.1041 179.805 25.0692C179.901 25.0493 179.968 25.0692 180.046 25.134C180.141 25.2163 180.251 25.2687 180.4 25.2363C180.704 25.1739 180.707 25.1864 181.003 25.3435C181.077 25.3834 181.157 25.3784 181.253 25.3584C181.336 25.341 181.421 25.3784 181.48 25.4507C181.536 25.5305 181.531 25.5803 181.536 25.6227ZM157.775 3.13749C157.687 3.14995 157.599 3.16491 157.471 2.94801C157.463 2.91061 157.468 2.86575 157.45 2.83334C157.407 2.76603 157.34 2.71866 157.26 2.71118C157.116 2.70121 156.943 2.78596 156.946 2.85078C156.948 2.90562 156.994 2.95299 157.082 2.99786C157.119 3.01531 157.148 3.04523 157.183 3.06518C157.284 3.12252 157.364 3.23473 157.511 3.17739C157.484 3.02281 157.498 3.1001 157.511 3.17739C157.498 3.27212 157.538 3.33944 157.634 3.36686C157.66 3.37434 157.7 3.36935 157.722 3.35439C157.804 3.29954 157.818 3.22476 157.756 3.02781C157.746 3.06022 157.754 3.11754 157.778 3.1325C157.802 3.14746 157.86 3.13501 157.89 3.11755C157.964 3.07019 158.002 3.00785 157.983 2.9555C157.972 2.92807 157.922 2.89317 157.89 2.89317C157.834 2.89317 157.783 2.94801 157.775 3.13749ZM179.336 32.0499C179.142 32.0973 178.918 32.0798 178.723 32.177C178.688 32.1945 178.654 32.2394 178.651 32.2743C178.648 32.2967 178.702 32.3291 178.734 32.3466C178.806 32.3865 178.886 32.374 178.979 32.3615C179.12 32.3441 179.203 32.4588 179.312 32.5161C179.347 32.5335 179.392 32.546 179.43 32.541C179.646 32.5111 179.859 32.4787 180.075 32.4438C180.112 32.4363 180.152 32.4189 180.184 32.3964C180.291 32.3241 180.28 32.2768 180.176 32.2219C180.062 32.1621 179.971 32.0624 179.854 32.015C179.686 31.9477 179.515 32.0374 179.336 32.0499ZM164.193 33.8699C164.063 33.8898 163.935 33.9097 163.804 33.9297C163.761 33.9372 163.716 33.9397 163.676 33.9496C163.593 33.9671 163.532 34.0194 163.492 34.1017C163.553 34.1665 163.628 34.2039 163.711 34.1964C163.841 34.1815 163.969 34.1491 164.1 34.1416C164.241 34.1316 164.324 34.2438 164.433 34.3012C164.468 34.3186 164.511 34.3211 164.551 34.3236C164.748 34.3336 164.868 34.2039 164.831 34.0219C164.804 33.8798 164.703 33.7951 164.58 33.8125C164.452 33.83 164.321 33.8499 164.193 33.8699ZM180.248 28.3651C180.28 28.3227 180.315 28.2928 180.331 28.2554C180.379 28.1283 180.36 28.0335 180.272 27.9338C180.165 27.8116 180.035 27.8939 179.915 27.9064C179.886 27.9089 179.854 27.9612 179.838 27.9936C179.827 28.0161 179.827 28.0634 179.843 28.0759C179.974 28.1756 180.112 28.2679 180.248 28.3651ZM157.116 21.0005C156.988 21.0205 156.858 21.0354 156.73 21.0628C156.698 21.0703 156.668 21.1177 156.65 21.1501C156.615 21.2099 156.652 21.2922 156.762 21.2997C156.887 21.3096 157.018 21.2673 157.148 21.2473C157.314 21.2224 157.412 21.1301 157.351 21.0504C157.292 20.9731 157.212 20.9581 157.116 21.0005ZM16.7557 15.6728C16.841 15.6603 16.929 15.6503 17.0143 15.6329C17.0943 15.6154 17.1557 15.5606 17.1957 15.4783C17.129 15.4135 17.0543 15.3786 16.9717 15.3861C16.841 15.401 16.713 15.421 16.5851 15.4459C16.5051 15.4608 16.4278 15.5157 16.4091 15.6005C16.3904 15.6653 16.569 15.7027 16.7557 15.6728ZM145.84 15.2888C145.875 15.3113 145.909 15.3561 145.944 15.3561C146.029 15.3561 146.117 15.3412 146.197 15.3162C146.232 15.3063 146.259 15.2614 146.275 15.2265C146.285 15.2041 146.283 15.1642 146.267 15.1442C146.189 15.0246 145.88 15.0669 145.829 15.2041C145.824 15.229 145.837 15.2614 145.84 15.2888ZM137.427 1.63664C137.435 1.67653 137.438 1.71642 137.449 1.75631C137.47 1.8311 137.528 1.88596 137.614 1.92335C137.68 1.86103 137.715 1.79123 137.712 1.71644C137.71 1.67655 137.702 1.63663 137.691 1.59674C137.67 1.52195 137.611 1.46712 137.526 1.42973C137.459 1.48956 137.427 1.55936 137.427 1.63664ZM186.41 34.3037C186.386 34.3361 186.362 34.3685 186.336 34.3984C186.408 34.4707 186.474 34.4931 186.525 34.4532C186.557 34.4283 186.576 34.3909 186.6 34.3585C186.528 34.2862 186.464 34.2663 186.41 34.3037ZM184.752 34.6427C184.786 34.6651 184.819 34.6951 184.856 34.71C184.917 34.735 184.973 34.6926 185.016 34.6028C184.981 34.5804 184.949 34.5505 184.912 34.5355C184.85 34.5106 184.794 34.553 184.752 34.6427ZM185.802 34.1865C185.784 34.2463 185.821 34.2962 185.92 34.3386C185.944 34.3062 185.976 34.2762 185.992 34.2413C186.018 34.184 185.973 34.1316 185.877 34.0917C185.85 34.1217 185.826 34.1541 185.802 34.1865ZM180.173 31.4989C180.155 31.5588 180.192 31.6086 180.291 31.651C180.315 31.6186 180.347 31.5887 180.363 31.5538C180.389 31.4964 180.344 31.4441 180.248 31.4042C180.221 31.4341 180.197 31.4665 180.173 31.4989ZM172.505 13.8578C172.481 13.8902 172.457 13.9226 172.43 13.9525C172.502 14.0248 172.569 14.0473 172.619 14.0074C172.651 13.9824 172.67 13.945 172.694 13.9126C172.622 13.8403 172.558 13.8204 172.505 13.8578ZM165.159 4.49871C165.223 4.51616 165.276 4.48127 165.321 4.38903C165.287 4.36659 165.255 4.33667 165.217 4.32171C165.156 4.29678 165.1 4.33917 165.057 4.42892C165.092 4.45386 165.127 4.47627 165.159 4.49871ZM161.258 3.91284C161.234 3.94525 161.21 3.97766 161.183 4.00758C161.255 4.07988 161.321 4.10231 161.372 4.06242C161.404 4.03749 161.423 4.00009 161.447 3.96768C161.375 3.89538 161.311 3.87793 161.258 3.91284ZM134.803 1.63415C134.779 1.66656 134.755 1.69897 134.729 1.72888C134.801 1.80118 134.867 1.82361 134.918 1.78373C134.95 1.75879 134.969 1.7214 134.993 1.68899C134.921 1.61669 134.857 1.59924 134.803 1.63415ZM3.08198 21.918C3.04731 21.8955 3.01268 21.8731 2.98068 21.8482C2.90335 21.9155 2.87936 21.9778 2.92203 22.0252C2.94869 22.0551 2.98866 22.0725 3.02332 22.095C3.10332 22.0277 3.12197 21.9678 3.08198 21.918Z" fill="#FFE492"/>
</svg>
