<svg width="299" height="43" viewBox="0 0 299 43" fill="none" xmlns="http://www.w3.org/2000/svg">
<path d="M280.64 22.4637C280.231 22.4986 279.817 22.5226 279.417 22.5749C279.156 22.6076 279.045 22.5117 278.871 22.4616C278.813 22.4441 278.751 22.4092 278.698 22.4136C278.293 22.4485 277.888 22.4877 277.483 22.5269C277.359 22.6119 277.28 22.7253 277.09 22.7667C276.904 22.8059 276.685 22.8059 276.479 22.8256C276.206 22.8495 275.933 22.8735 275.66 22.8953C275.524 22.9062 275.412 22.9476 275.367 23.0261C275.359 23.0392 275.45 23.0719 275.499 23.0915C275.664 23.1569 275.826 23.231 276.007 23.2811C276.181 23.3291 276.396 23.2506 276.582 23.3116C276.999 23.449 277.003 23.4468 277.322 23.4206C277.594 23.3966 277.867 23.3705 278.14 23.3531C278.194 23.3487 278.255 23.3814 278.313 23.3988C278.487 23.4468 278.598 23.5558 278.855 23.5144C279.049 23.4817 279.264 23.4751 279.466 23.4577C279.636 23.5209 279.793 23.5928 279.975 23.643C280.144 23.6909 280.194 23.728 280.103 23.7912C280.02 23.85 279.904 23.874 279.751 23.8784C279.615 23.8806 279.479 23.9002 279.342 23.9111C279.272 23.9176 279.206 23.922 279.14 23.9285C278.879 23.9525 278.879 23.9525 278.404 23.813C278.218 23.7585 278.008 23.8348 277.83 23.7825C277.71 23.7476 277.607 23.6953 277.491 23.6582C277.441 23.643 277.363 23.6408 277.301 23.6451C277.094 23.6604 276.888 23.6713 276.689 23.6996C276.549 23.7193 276.466 23.7803 276.483 23.8413C276.487 23.8653 276.586 23.9002 276.644 23.9024C276.776 23.9067 276.917 23.8762 277.045 23.8915C277.169 23.9067 277.297 23.9503 277.388 23.9983C277.574 24.0985 277.784 24.0092 277.962 24.0353C278.148 24.0637 278.301 24.1509 278.479 24.2032C278.524 24.2163 278.611 24.1944 278.681 24.1879C278.884 24.1726 279.086 24.1596 279.289 24.1443C279.458 24.2075 279.64 24.2642 279.793 24.3361C280.07 24.4669 280.367 24.517 280.727 24.4538C280.929 24.4189 281.127 24.432 281.289 24.517C281.454 24.6042 281.644 24.5955 281.855 24.5781C282.049 24.5606 282.247 24.5127 282.446 24.5737C282.875 24.7089 282.88 24.7154 283.388 24.6631C283.541 24.6478 283.656 24.6435 283.772 24.6936C283.88 24.7394 283.995 24.7786 284.107 24.8222C284.309 24.807 284.516 24.7917 284.719 24.7743C284.979 24.7503 285.123 24.7808 285.185 24.9029C285.223 24.977 285.239 25.0445 285.33 25.0947C285.438 25.1557 285.553 25.1535 285.71 25.1361C285.859 25.1208 285.966 25.0969 286.028 25.0184C286.053 24.9857 286.103 24.9552 286.148 24.929C286.186 24.9094 286.243 24.8789 286.276 24.8833C286.338 24.892 286.421 24.9159 286.442 24.9443C286.644 25.208 286.644 25.2102 286.851 25.2865C287.078 25.3715 287.314 25.4478 287.52 25.5437C287.706 25.6287 287.892 25.5917 288.095 25.5917C288.248 25.5917 288.347 25.6483 288.334 25.705C288.326 25.7377 288.268 25.7857 288.219 25.79C287.814 25.8336 287.405 25.8707 286.996 25.9012C286.946 25.9055 286.884 25.8663 286.826 25.8467C286.71 25.8074 286.607 25.7464 286.483 25.7333C286.359 25.7203 286.214 25.753 286.078 25.7639C285.942 25.7748 285.797 25.8031 285.673 25.7857C285.549 25.7682 285.45 25.705 285.334 25.6636C285.281 25.644 285.206 25.6157 285.161 25.6222C284.859 25.6745 284.636 25.6026 284.421 25.5067C284.376 25.487 284.297 25.474 284.239 25.4783C283.76 25.5154 283.285 25.559 282.805 25.6004C282.611 25.6178 282.454 25.5415 282.413 25.4129C282.392 25.341 282.351 25.2691 282.351 25.1971C282.351 25.0663 282.123 24.9944 281.958 25.0097C281.685 25.0315 281.409 25.0489 281.14 25.0816C280.921 25.1077 280.735 25.0816 280.586 25.0031C280.413 24.9138 280.214 24.9312 280.016 24.9552C279.867 24.9726 279.826 25.0445 279.834 25.2255C279.842 25.3715 279.772 25.4173 279.503 25.4413C279.165 25.4718 278.822 25.5023 278.479 25.5263C278.425 25.5306 278.363 25.4936 278.309 25.474C278.193 25.4347 278.09 25.3715 277.966 25.3584C277.842 25.3432 277.698 25.3759 277.561 25.3889C277.425 25.3998 277.28 25.4304 277.156 25.4151C277.032 25.3998 276.929 25.3345 276.817 25.293C276.764 25.2734 276.698 25.2451 276.644 25.2494C276.371 25.2669 276.098 25.293 275.826 25.317C275.52 25.3432 275.52 25.3432 275.086 25.208C274.888 25.147 274.689 25.195 274.495 25.2124C274.288 25.2298 274.094 25.2385 273.933 25.1514C273.825 25.0947 273.706 25.0598 273.578 25.0707C273.235 25.0969 272.896 25.1296 272.553 25.1557C272.495 25.1601 272.416 25.1492 272.371 25.1296C272.152 25.038 271.937 24.9661 271.631 25.0119C271.367 25.0511 271.082 25.0533 270.817 25.0903C270.673 25.1099 270.606 25.1797 270.635 25.2342C270.652 25.2625 270.739 25.2952 270.797 25.2952C270.929 25.2974 271.073 25.2647 271.197 25.2778C271.454 25.3039 271.582 25.487 271.916 25.4369C272.115 25.4064 272.321 25.3955 272.528 25.3868C272.582 25.3846 272.639 25.426 272.697 25.4478C272.863 25.5067 273.007 25.5829 273.247 25.5437C273.445 25.5132 273.656 25.5045 273.859 25.487C274.181 25.4587 274.181 25.4609 274.598 25.5939C274.797 25.6571 274.995 25.6069 275.189 25.5917C275.334 25.5808 275.47 25.559 275.586 25.5895C275.764 25.6353 275.892 25.7399 276.111 25.7333C276.317 25.7268 276.52 25.6963 276.726 25.6854C276.855 25.6788 276.974 25.7137 277.078 25.7726C277.185 25.8314 277.301 25.8576 277.441 25.8445C277.644 25.8271 277.85 25.8053 278.057 25.7944C278.115 25.7922 278.181 25.8118 278.235 25.8293C278.351 25.8685 278.462 25.9143 278.574 25.9557C278.776 25.9426 278.983 25.9382 279.181 25.9121C279.334 25.8925 279.441 25.9012 279.565 25.9448C279.722 26.0036 279.851 26.1083 280.107 26.0581C280.235 26.0342 280.384 26.0407 280.512 26.0189C280.669 25.9906 280.776 26.0014 280.888 26.0668C281.099 26.1911 281.363 26.1933 281.636 26.1453C281.933 26.093 282.156 26.1541 282.38 26.25C282.615 26.3502 282.615 26.348 282.797 26.59C282.851 26.6597 283.004 26.6924 283.132 26.6794C283.347 26.6576 283.533 26.6685 283.69 26.7513C283.855 26.8407 284.053 26.8298 284.256 26.8058C284.524 26.7731 284.793 26.7448 285.012 26.8712C285.119 26.9322 285.235 26.9475 285.38 26.9322C285.789 26.893 286.202 26.869 286.603 26.8211C286.847 26.7905 286.987 26.8603 287.152 26.9191C287.376 26.9998 287.62 27.0717 287.62 27.2439C287.62 27.2722 287.677 27.3049 287.727 27.3267C287.834 27.3725 287.95 27.4117 288.062 27.4553C288.227 27.5207 288.388 27.5752 288.615 27.5404C288.814 27.512 289.024 27.5033 289.227 27.4837C289.429 27.4641 289.615 27.4532 289.797 27.536C290.008 27.6297 290.231 27.7191 290.471 27.7888C290.64 27.839 290.863 27.754 291.045 27.8216C291.157 27.863 291.264 27.9109 291.384 27.9458C291.434 27.961 291.512 27.9501 291.578 27.9458C291.715 27.9371 291.855 27.9305 291.987 27.9087C292.14 27.8848 292.256 27.8891 292.372 27.9393C292.479 27.985 292.587 28.0482 292.711 28.0613C292.897 28.0809 293.103 27.9937 293.289 28.094C293.384 28.1442 293.504 28.1921 293.628 28.2074C293.752 28.2226 293.897 28.1899 294.029 28.1921C294.087 28.1921 294.157 28.227 294.19 28.2553C294.211 28.2706 294.182 28.312 294.153 28.3338C294.116 28.3599 294.062 28.3948 294.008 28.3992C293.599 28.4384 293.19 28.4711 292.781 28.5082C292.537 28.53 292.537 28.53 292.045 28.3926C291.93 28.3599 291.802 28.3665 291.657 28.3817C291.463 28.4014 291.264 28.4384 291.062 28.3992C290.797 28.251 290.471 28.2379 290.124 28.2945C289.979 28.3185 289.847 28.3185 289.739 28.2771C289.512 28.1943 289.272 28.118 289.07 28.0199C288.913 27.9436 288.839 27.9371 288.772 28.0417C288.752 28.0744 288.731 28.1093 288.735 28.1398C288.76 28.2488 288.805 28.3556 288.83 28.4646C288.839 28.4951 288.806 28.53 288.785 28.5627C288.719 28.6542 288.632 28.6477 288.487 28.5714C288.343 28.4951 288.169 28.445 287.938 28.4798C287.739 28.5104 287.524 28.506 287.326 28.5387C287.02 28.5866 286.805 28.5169 286.586 28.4232C286.541 28.4035 286.462 28.3926 286.405 28.397C285.789 28.4471 285.177 28.5038 284.562 28.5539C284.429 28.5648 284.309 28.5321 284.206 28.4733C284.099 28.4144 283.979 28.3839 283.847 28.3948C283.301 28.4406 282.756 28.482 282.21 28.5387C281.987 28.5627 281.809 28.5343 281.656 28.458C281.541 28.4013 281.433 28.3839 281.289 28.3905C281.132 28.397 281.02 28.4188 280.942 28.482C280.867 28.5431 280.921 28.5801 281.086 28.628C281.264 28.6804 281.429 28.7479 281.599 28.809C281.735 28.8003 281.871 28.7828 282.004 28.785C282.061 28.785 282.115 28.8242 282.173 28.846C282.338 28.9092 282.491 28.9725 282.727 28.9376C282.925 28.9071 283.136 28.9005 283.338 28.8809C283.619 28.8569 283.619 28.8569 284.074 28.9943C284.19 29.0291 284.314 29.0269 284.462 29.0073C284.59 28.9921 284.723 29.0226 284.814 29.088C284.851 29.1141 284.838 29.1577 284.76 29.3016C284.76 29.4084 284.847 29.3604 284.876 29.2907C284.921 29.1904 284.834 29.1577 284.669 29.2122C284.553 29.2515 284.495 29.3081 284.524 29.3539C284.541 29.3779 284.619 29.4084 284.76 29.3016C285.124 29.1708 285.4 29.1555 285.665 29.1207C285.822 29.1011 285.921 29.1098 286.045 29.1664C286.194 29.234 286.343 29.306 286.586 29.2711C286.851 29.2319 287.132 29.2275 287.4 29.1948C287.648 29.1643 287.777 29.2602 287.934 29.3169C288.124 29.3844 288.334 29.3081 288.508 29.3474C288.69 29.3866 288.818 29.4825 289.029 29.4999C289.334 29.4411 289.529 29.5501 289.76 29.622C289.942 29.6765 290.157 29.6285 290.351 29.6046C290.57 29.5784 290.752 29.6024 290.905 29.6809C291.078 29.7703 291.273 29.7506 291.471 29.731C291.934 29.6874 291.95 29.6809 292.219 29.8008C292.413 29.8879 292.599 29.8487 292.793 29.8378C292.963 29.8967 293.128 29.9599 293.306 30.0122C293.351 30.0253 293.438 30.0035 293.508 29.9969C293.711 29.9795 293.917 29.9621 294.12 29.9446C294.256 29.9337 294.401 29.901 294.525 29.9141C294.649 29.9294 294.752 29.9926 294.864 30.034C294.975 30.0754 295.091 30.1168 295.198 30.1604C295.364 30.2258 295.521 30.2803 295.752 30.2476C295.95 30.2193 296.157 30.2106 296.364 30.1909C296.624 30.167 296.616 30.1735 297.099 30.3043C297.36 30.3762 297.628 30.289 297.893 30.2803C298.025 30.276 298.153 30.2999 298.244 30.3631C298.281 30.3893 298.269 30.4329 298.281 30.4699C297.599 30.5288 296.913 30.5789 296.24 30.6509C295.979 30.6792 295.843 30.6007 295.703 30.5353C295.471 30.4307 295.165 30.5833 294.946 30.4481C294.814 30.3675 294.624 30.3217 294.397 30.361C294.264 30.3828 294.124 30.3806 293.987 30.4002C293.64 30.4481 293.322 30.4503 293.045 30.2999C292.95 30.2476 292.814 30.2193 292.715 30.1691C292.599 30.1146 292.487 30.0841 292.351 30.095C291.735 30.1473 291.124 30.1996 290.512 30.2563C290.458 30.2607 290.405 30.2934 290.359 30.3174C290.244 30.3784 290.281 30.4263 290.467 30.4656C290.529 30.4787 290.578 30.507 290.636 30.5288C290.748 30.5702 290.851 30.6356 290.975 30.6509C291.099 30.6661 291.244 30.6356 291.38 30.6247C291.516 30.6138 291.661 30.5811 291.785 30.5942C291.909 30.6094 292.012 30.6727 292.128 30.7119C292.182 30.7315 292.248 30.7642 292.302 30.762C292.574 30.7489 292.843 30.725 293.116 30.7054C293.285 30.7642 293.43 30.8492 293.632 30.8688C293.76 30.8819 293.897 30.8579 294.029 30.8623C294.087 30.8645 294.161 30.8972 294.19 30.9255C294.207 30.9429 294.153 30.9865 294.111 31.0083C293.954 31.0912 293.74 31.0759 293.545 31.1021C293.335 31.1304 293.145 31.1217 292.983 31.0367C292.876 30.98 292.756 30.9495 292.624 30.9604C292.281 30.9887 291.942 31.0214 291.599 31.0454C291.541 31.0498 291.471 31.0301 291.417 31.0149C290.983 30.8819 290.983 30.8776 290.677 30.9059C290.227 30.9473 290.227 30.9473 289.925 30.8318C289.868 30.81 289.806 30.7686 289.756 30.7708C289.277 30.8056 288.801 30.8405 288.326 30.8906C288.169 30.9059 288.062 30.9059 287.946 30.8492C287.847 30.8013 287.731 30.7468 287.607 30.7337C287.479 30.7206 287.339 30.7533 287.202 30.7642C287.066 30.7751 286.921 30.8034 286.801 30.786C286.677 30.7686 286.57 30.7075 286.462 30.6639C286.351 30.6182 286.231 30.6203 286.078 30.6378C285.607 30.6879 285.603 30.6814 285.136 30.5462C285.082 30.531 285.012 30.5135 284.954 30.5179C284.611 30.5441 284.272 30.5768 283.929 30.6029C283.797 30.6138 283.669 30.5855 283.578 30.5223C283.541 30.4961 283.553 30.4525 283.528 30.3675C283.5 30.3479 283.533 30.3828 283.541 30.4155C283.603 30.4111 283.677 30.4154 283.723 30.398C283.838 30.3566 283.896 30.3021 283.867 30.2563C283.851 30.2323 283.772 30.2018 283.723 30.2018C283.632 30.2018 283.553 30.2498 283.528 30.3675C283.268 30.4394 282.991 30.4547 282.723 30.4896C282.566 30.5114 282.466 30.5005 282.342 30.4438C282.194 30.374 282.041 30.3064 281.797 30.3413C281.532 30.3806 281.251 30.3871 280.979 30.4176C280.665 30.4525 280.528 30.2563 280.264 30.2607C279.991 30.265 279.718 30.3021 279.446 30.3283C279.206 30.3501 279.206 30.35 278.71 30.2084C278.528 30.156 278.313 30.2323 278.136 30.1778C278.016 30.143 277.912 30.0907 277.797 30.0536C277.747 30.0384 277.669 30.0383 277.607 30.0427C277.264 30.0689 276.917 30.0863 276.586 30.1343C276.21 30.1909 275.925 30.1299 275.656 30.0013C275.317 30.0253 274.974 30.0384 274.64 30.0798C274.396 30.1103 274.255 30.0384 274.09 29.9795C274.032 29.9599 273.983 29.9272 273.921 29.9185C273.859 29.9097 273.784 29.9272 273.718 29.9337C273.445 29.9577 273.164 29.9686 272.9 30.0078C272.573 30.058 272.449 29.8792 272.197 29.8574C272.028 29.9642 271.937 30.1103 271.602 30.1212C271.33 30.1299 271.057 30.1648 270.784 30.1888C270.648 30.1997 270.511 30.2127 270.375 30.2236C270.156 30.2433 270.053 30.3283 270.098 30.459C270.123 30.531 270.144 30.6029 270.164 30.6748C270.206 30.8034 270.102 30.9124 269.929 30.9277C269.449 30.9691 268.974 31.0127 268.495 31.0497C268.367 31.0606 268.243 31.0236 268.139 30.9647C268.032 30.9059 267.912 30.8797 267.78 30.8906C267.3 30.932 266.825 30.9756 266.346 31.0127C266.292 31.0171 266.222 30.9953 266.168 30.9778C266.053 30.9386 265.941 30.8928 265.829 30.8514C265.557 30.871 265.288 30.8841 265.019 30.9102C264.586 30.9495 264.585 30.9517 264.267 30.8318C264.209 30.81 264.152 30.7686 264.098 30.7708C263.891 30.7795 263.689 30.8013 263.482 30.8209C262.875 30.8776 262.875 30.8776 262.697 30.8122C262.536 30.7511 262.391 30.677 262.147 30.7119C261.883 30.7511 261.602 30.7642 261.329 30.786C261.127 30.8013 260.924 30.8187 260.722 30.8231C260.668 30.8252 260.61 30.7838 260.552 30.762C260.387 30.6945 260.226 30.64 259.998 30.677C259.866 30.6988 259.726 30.7032 259.589 30.7141C259.234 30.7446 259.234 30.7446 258.651 30.6138C258.593 30.6007 258.523 30.5855 258.465 30.592C257.986 30.6312 257.511 30.6748 257.031 30.7119C256.974 30.7163 256.903 30.7032 256.845 30.6923C256.193 30.5658 256.193 30.5659 255.498 30.6269C255.234 30.6487 255.226 30.6574 254.949 30.5419C254.825 30.4917 254.721 30.4678 254.577 30.483C254.031 30.5353 253.482 30.5702 252.94 30.6312C252.697 30.6574 252.556 30.592 252.391 30.5331C252.333 30.5135 252.271 30.47 252.221 30.4721C251.676 30.5135 251.13 30.5637 250.585 30.6051C250.535 30.6095 250.473 30.5659 250.415 30.5462C250.304 30.507 250.196 30.4481 250.072 30.4351C249.944 30.422 249.804 30.4547 249.663 30.4656C249.32 30.4939 249.32 30.4917 248.924 30.3631C248.87 30.3457 248.8 30.3217 248.746 30.3261C248.2 30.3697 247.651 30.4067 247.11 30.4699C246.8 30.5048 246.589 30.4416 246.37 30.3501C246.324 30.3304 246.246 30.3217 246.188 30.3261C245.572 30.3762 244.961 30.4329 244.345 30.483C244.217 30.4939 244.093 30.4569 243.99 30.4002C243.824 30.3108 243.63 30.3217 243.423 30.3413C242.948 30.3871 242.944 30.3849 242.663 30.2803C242.605 30.2585 242.556 30.2302 242.494 30.2193C242.436 30.2084 242.361 30.2149 242.299 30.2193C242.027 30.2411 241.754 30.265 241.481 30.289C241.208 30.313 240.932 30.3261 240.663 30.3631C240.332 30.4089 240.175 30.2672 239.944 30.2018C239.605 30.2302 239.258 30.2476 238.923 30.2934C238.667 30.3283 238.547 30.2323 238.378 30.1822C238.32 30.1648 238.258 30.1277 238.204 30.1321C237.588 30.18 236.973 30.2323 236.361 30.2912C236.212 30.3043 236.113 30.2868 235.989 30.2345C235.712 30.1168 235.7 30.1212 235.237 30.1648C235.035 30.1844 234.84 30.2018 234.667 30.1125C234.514 30.0318 234.328 30.0122 234.109 30.0383C233.84 30.071 233.564 30.0885 233.291 30.1103C233.018 30.1343 232.745 30.1669 232.473 30.1778C232.254 30.1887 232.121 30.0863 231.948 30.034C231.894 30.0187 231.82 30.0165 231.758 30.0209C231.485 30.0405 231.204 30.0558 230.939 30.0928C230.617 30.1386 230.439 30.0187 230.212 29.949C230.163 29.9337 230.08 29.9424 230.018 29.949C229.538 29.9882 229.063 30.0318 228.584 30.0732C228.414 30.0144 228.241 29.9577 228.072 29.8989C227.799 29.9207 227.526 29.9446 227.253 29.9664C227.047 29.9839 226.836 29.9904 226.642 30.0231C226.39 30.0667 226.266 29.9642 226.096 29.9141C226.038 29.8967 225.976 29.8596 225.923 29.864C225.58 29.8879 225.237 29.9141 224.898 29.9512C224.576 29.9882 224.447 29.792 224.183 29.7942C223.91 29.7964 223.629 29.8247 223.365 29.864C223.059 29.9097 222.844 29.84 222.625 29.7463C222.58 29.7266 222.501 29.7157 222.443 29.7201C222.1 29.7463 221.761 29.779 221.418 29.8051C221.361 29.8095 221.29 29.7986 221.232 29.7855C220.58 29.6569 220.58 29.6547 220.294 29.6809C220.092 29.6983 219.885 29.7201 219.679 29.731C219.621 29.7354 219.55 29.7157 219.497 29.6983C219.067 29.5653 219.067 29.5632 218.757 29.5893C218.484 29.6133 218.212 29.6373 217.939 29.6612C217.769 29.6024 217.596 29.5457 217.426 29.4869C217.088 29.5152 216.74 29.537 216.406 29.5762C216.249 29.5937 216.145 29.5871 216.026 29.5326C215.877 29.4673 215.728 29.391 215.48 29.428C215.216 29.4673 214.935 29.4716 214.666 29.5043C214.344 29.5435 214.211 29.3452 213.951 29.3474C213.678 29.3496 213.397 29.3779 213.133 29.4171C212.827 29.4629 212.612 29.3932 212.393 29.2994C212.348 29.2798 212.269 29.2689 212.211 29.2733C211.459 29.3365 210.711 29.3997 209.959 29.4672C209.496 29.5087 209.496 29.5108 208.616 29.391C208.554 29.3822 208.488 29.3735 208.426 29.3779C208.153 29.3975 207.872 29.4128 207.608 29.4498C207.286 29.4956 207.108 29.3779 206.881 29.3059C206.831 29.2907 206.752 29.2994 206.686 29.3038C206.48 29.319 206.277 29.3387 206.071 29.3561C205.798 29.3801 205.525 29.404 205.252 29.428C205.083 29.3713 204.909 29.3125 204.74 29.2558C204.401 29.2842 204.054 29.2994 203.719 29.3452C203.463 29.3801 203.343 29.2885 203.174 29.2362C203.116 29.2188 203.054 29.1817 203 29.1839C202.385 29.2318 201.769 29.282 201.157 29.343C200.905 29.3692 200.789 29.2711 200.62 29.2209C200.562 29.2057 200.496 29.1774 200.442 29.1817C200.033 29.2122 199.624 29.2493 199.215 29.2863C198.984 29.3081 198.984 29.3081 198.479 29.173C198.422 29.1577 198.355 29.1425 198.298 29.1468C197 29.2558 195.707 29.3713 194.409 29.4803C194.277 29.4912 194.157 29.4585 194.054 29.3997C193.946 29.3408 193.826 29.3103 193.694 29.3212C193.149 29.367 192.599 29.4084 192.058 29.4651C191.834 29.4891 191.657 29.4607 191.504 29.3844C191.388 29.3277 191.281 29.306 191.136 29.319C190.863 29.3452 190.591 29.367 190.318 29.391C190.045 29.4149 189.772 29.4389 189.5 29.4629C189.227 29.4869 188.95 29.5 188.682 29.537C188.351 29.5828 188.19 29.4476 187.962 29.3801C187.553 29.4128 187.144 29.4455 186.739 29.4803C186.194 29.5261 185.648 29.5762 185.103 29.6198C185.053 29.6242 184.991 29.585 184.933 29.5653C184.764 29.5109 184.64 29.4346 184.388 29.4585C183.165 29.5741 181.933 29.6722 180.706 29.7855C180.45 29.8095 180.338 29.7157 180.165 29.6656C180.107 29.6504 180.041 29.6198 179.987 29.6242C179.305 29.6787 178.623 29.7397 177.941 29.7986C177.665 29.8225 177.664 29.8225 177.202 29.6874C177.148 29.6721 177.078 29.6525 177.02 29.6569C176.131 29.731 175.247 29.8095 174.359 29.8858C174.226 29.8967 174.106 29.8661 173.999 29.8073C173.896 29.7484 173.772 29.7157 173.644 29.7266C172.825 29.7964 172.003 29.864 171.189 29.9403C170.97 29.9621 170.788 29.9424 170.631 29.864C170.52 29.8073 170.408 29.7833 170.267 29.7964C169.04 29.9032 167.813 30.0057 166.585 30.119C166.35 30.1408 166.185 30.0994 166.036 30.0275C165.916 29.9708 165.813 29.9599 165.664 29.9686C165.507 29.9795 165.412 30.0035 165.325 30.0689C165.214 30.1539 165.143 30.2607 164.879 30.2672C164.606 30.2738 164.329 30.2999 164.061 30.337C163.804 30.374 163.685 30.2759 163.523 30.2171C163.404 30.1757 163.292 30.1691 163.139 30.1888C162.999 30.2062 162.912 30.2432 162.829 30.313C162.647 30.4612 162.631 30.4612 162.408 30.3675C162.288 30.3173 162.18 30.2781 162.048 30.2868C161.503 30.3304 160.957 30.3784 160.412 30.4285C160.098 30.4569 160.094 30.4612 159.858 30.3522C159.742 30.2977 159.631 30.2716 159.494 30.2846C157.994 30.4154 156.494 30.5419 154.994 30.6792C154.763 30.701 154.606 30.6552 154.44 30.5898C154.387 30.568 154.333 30.5375 154.271 30.5288C154.209 30.5201 154.139 30.5288 154.073 30.5331C152.982 30.6269 151.887 30.7163 150.8 30.8209C150.552 30.8449 150.42 30.7751 150.25 30.7184C150.192 30.6988 150.143 30.6683 150.081 30.6596C150.019 30.653 149.944 30.6683 149.878 30.6748C148.787 30.7686 147.692 30.8579 146.605 30.9626C146.345 30.9866 146.233 30.895 146.064 30.847C146.006 30.8296 145.944 30.7969 145.89 30.8012C145.547 30.8252 145.209 30.8579 144.866 30.8863C144.047 30.9582 143.229 31.0258 142.411 31.0999C142.097 31.1282 141.96 30.9342 141.696 30.9429C141.353 30.9538 141.014 30.9974 140.671 31.028C140.398 31.0519 140.126 31.0737 139.853 31.0999C139.584 31.1239 139.584 31.1239 138.915 30.9974C138.857 30.9865 138.787 30.9713 138.729 30.9756C137.774 31.0563 136.816 31.1369 135.865 31.2241C135.646 31.2438 135.464 31.2329 135.307 31.1522C135.196 31.0955 135.08 31.0672 134.944 31.0803C133.51 31.2045 132.08 31.3288 130.646 31.4508C130.592 31.4552 130.522 31.4334 130.468 31.416C130.353 31.3767 130.241 31.331 130.129 31.2895C130.047 31.3397 129.939 31.3854 129.886 31.4421C129.811 31.5184 129.712 31.5402 129.555 31.5533C129.398 31.5664 129.299 31.562 129.175 31.5053C129.026 31.4356 128.873 31.3811 128.629 31.4029C127.129 31.5402 125.629 31.6644 124.129 31.7996C123.881 31.8214 123.766 31.7255 123.592 31.6753C123.534 31.6601 123.468 31.6361 123.414 31.6405C122.798 31.6906 122.187 31.7451 121.571 31.7974C119.865 31.9456 118.158 32.0873 116.455 32.2443C116.145 32.2726 115.935 32.2181 115.716 32.1244C115.67 32.1048 115.592 32.0939 115.534 32.0982C113.145 32.3031 110.757 32.5102 108.372 32.7173C108.244 32.7282 108.12 32.6933 108.017 32.6366C107.909 32.5778 107.79 32.5494 107.657 32.5603C106.566 32.654 105.476 32.7478 104.385 32.8437C104.112 32.8677 104.108 32.8698 103.827 32.7652C103.769 32.7434 103.707 32.702 103.661 32.7064C103.566 32.7173 103.475 32.7717 103.409 32.8459C103.343 32.9243 103.24 32.9461 103.087 32.9614C102.93 32.9766 102.827 32.9701 102.707 32.9178C102.554 32.8524 102.413 32.7892 102.165 32.811C99.0289 33.09 95.8924 33.3581 92.7559 33.6349C92.5039 33.6567 92.3881 33.5652 92.2146 33.5151C92.1567 33.4998 92.0989 33.478 92.0369 33.4736C91.9708 33.4693 91.9005 33.4824 91.8344 33.4889C86.7185 33.9314 81.6026 34.376 76.4867 34.8185C76.1809 34.8447 76.185 34.8447 75.8503 35.0452C75.809 35.0692 75.7552 35.1019 75.6974 35.1063C74.1312 35.2458 72.5609 35.3809 70.9906 35.516C70.3087 35.5749 69.6269 35.6359 68.9451 35.6926C68.7013 35.7122 68.7013 35.7122 68.1186 35.9477C68.069 35.9673 68.0111 35.9934 67.9532 35.9978C65.2259 36.2354 62.4984 36.473 59.7669 36.7062C59.552 36.7236 59.3785 36.7629 59.2793 36.8675C59.2091 36.9416 59.1182 36.9852 58.9818 36.9983C57.0726 37.1639 55.1635 37.3318 53.2502 37.4931C53.0229 37.5127 52.8865 37.5737 52.7749 37.6653C52.7377 37.6958 52.7047 37.7307 52.6509 37.7525C52.6013 37.7721 52.527 37.7786 52.465 37.7852C50.8286 37.9269 49.1922 38.0729 47.5516 38.2081C47.3078 38.2277 47.2086 38.3083 47.0887 38.3933C47.0474 38.4217 47.0185 38.4609 46.9647 38.4805C46.911 38.498 46.8325 38.498 46.7664 38.5023C45.4027 38.62 44.039 38.7399 42.6754 38.8576C42.4109 38.8467 42.353 38.9731 42.2249 39.0494C42.1794 39.0756 42.1464 39.1105 42.0927 39.1279C42.0349 39.1453 41.9604 39.1432 41.8901 39.1475C40.7992 39.2412 39.7083 39.3415 38.6132 39.4287C38.3611 39.4483 38.3115 39.5595 38.1751 39.6358C38.1297 39.6598 38.0843 39.6968 38.0305 39.7034C37.3487 39.7666 36.6669 39.8254 35.985 39.8821C35.7577 39.9017 35.7577 39.8995 35.3569 40.1153C35.3114 40.1393 35.2576 40.1655 35.1998 40.172C34.1791 40.2636 33.1543 40.3507 32.1294 40.4401C31.9972 40.451 31.9063 40.5033 31.8402 40.5774C31.7741 40.6516 31.6791 40.6995 31.5468 40.7104C30.7286 40.7823 29.9103 40.8564 29.0921 40.9218C28.8648 40.9393 28.7161 40.9938 28.6169 41.0919C28.5425 41.166 28.4516 41.203 28.307 41.2161C27.4888 41.2858 26.6706 41.3622 25.8482 41.4232C25.6085 41.4406 25.4845 41.5147 25.3853 41.6063C25.3068 41.6804 25.2159 41.7065 25.063 41.7196C23.5629 41.8461 22.0588 41.9725 20.5628 42.112C20.3108 42.1359 20.1826 42.0597 20.0173 42.0052C19.7818 41.9289 19.5628 41.846 19.5628 41.676C19.5628 41.6499 19.4926 41.6193 19.443 41.5975C19.0752 41.4341 19.0752 41.4341 19.0173 41.2597C18.9843 41.1529 18.9471 41.0439 18.9182 40.9349C18.8644 40.7562 18.7322 40.7104 18.352 40.7431C18.2156 40.754 18.0792 40.7692 17.9429 40.778C17.7404 40.7932 17.5875 40.7213 17.5503 40.5905C17.5296 40.5186 17.5049 40.4466 17.4842 40.3747C17.6908 40.3573 17.6867 40.3551 18.0503 40.0914C18.2032 39.9802 18.2033 39.9802 17.9099 39.869C17.7983 39.8276 17.6908 39.7818 17.571 39.7426C17.5173 39.7251 17.447 39.7142 17.3892 39.7186C17.0462 39.7448 16.7074 39.7753 16.3685 39.8058C15.823 39.8538 15.823 39.8537 15.2692 39.6314C15.2238 39.614 15.1535 39.5813 15.1618 39.5639C15.2072 39.4832 15.3188 39.4483 15.4593 39.4396C15.6659 39.4265 15.8684 39.4047 16.0709 39.3873C16.2072 39.3764 16.3436 39.3633 16.48 39.3524C16.6081 39.2696 16.7404 39.1889 16.8602 39.1039C17.0503 38.9731 17.0503 38.9688 16.7899 38.8772C16.6246 38.8162 16.4469 38.7617 16.2775 38.705C16.075 38.7225 15.8684 38.7421 15.6659 38.7573C15.4097 38.7769 15.3064 38.7355 15.2403 38.5938C15.1824 38.4696 15.2527 38.3628 15.451 38.3367C15.6535 38.3105 15.8437 38.2931 15.947 38.1819C16.0462 38.0751 16.2197 38.0337 16.4346 38.0249C16.571 38.0184 16.7073 38.0032 16.8437 37.9901C17.0214 37.9726 17.1165 37.8615 17.0793 37.7372C17.0586 37.6566 17.0173 37.589 16.8561 37.5716C16.1412 37.4953 16.1329 37.4974 15.7775 37.3492C15.7444 37.3361 15.7197 37.2969 15.7321 37.2773C15.7528 37.2446 15.7982 37.1966 15.8478 37.1901C16.323 37.1421 16.7982 37.0986 17.2735 37.0659C17.4305 37.055 17.5462 37.0397 17.5999 36.959C17.6743 36.8479 17.6413 36.7454 17.4966 36.6691C17.4512 36.6452 17.3767 36.6146 17.3271 36.6168C16.7817 36.6561 16.2403 36.7062 15.6949 36.7454C15.6453 36.7498 15.5544 36.7127 15.5337 36.6844C15.4924 36.6321 15.5544 36.5623 15.699 36.5384C15.8891 36.5057 16.0833 36.5035 16.2114 36.3945C16.3891 36.2397 16.6081 36.0981 16.8065 35.9498C16.8395 35.9237 16.8933 35.8735 16.8809 35.8692C16.7776 35.8212 16.6577 35.7842 16.5503 35.7384C16.3685 35.6621 16.3684 35.5553 16.4098 35.4529C16.4428 35.37 16.5668 35.3373 16.7197 35.3373C16.7858 35.3373 16.8685 35.3373 16.9222 35.3177C17.0627 35.2698 17.1081 35.2087 17.0379 35.1629C16.9966 35.1368 16.9222 35.0997 16.8726 35.1041C15.9883 35.176 15.0998 35.2458 14.2196 35.3351C13.9592 35.3613 13.8395 35.2785 13.6824 35.2196C13.5626 35.1738 13.451 35.1564 13.3022 35.1891C13.1617 35.2196 13.0254 35.2022 12.9386 35.1303C12.8683 35.0714 12.9923 35.0213 13.327 34.9646C13.389 34.9537 13.4592 34.9471 13.5047 34.9253C13.984 34.6899 13.984 34.6878 14.3146 34.6572C14.6369 34.6289 14.637 34.6267 14.8064 34.5003C14.885 34.4414 14.9717 34.3826 15.046 34.3215C15.075 34.2976 15.1246 34.254 15.1081 34.2409C15.0172 34.1733 14.8932 34.1581 14.7485 34.1733C14.4262 34.2104 14.0461 34.1799 13.8766 34.387C13.8105 34.4654 13.7072 34.4872 13.5584 34.5003C12.0625 34.6267 10.5665 34.7619 9.06647 34.8839C8.82266 34.9036 8.71115 34.9842 8.6161 35.0736C8.53346 35.1477 8.44252 35.1695 8.28549 35.1826C8.12846 35.1956 8.00443 35.2022 7.91351 35.1303C7.85979 35.0867 7.90526 35.0256 8.02923 34.9646C8.20693 34.8774 8.17385 34.7684 8.116 34.666C8.07467 34.5984 7.94657 34.5504 7.8102 34.5548C7.60772 34.5635 7.41355 34.5875 7.24412 34.5003C7.14494 34.4502 7.02094 34.4153 6.90937 34.3717C6.69448 34.2823 6.47959 34.1908 6.17792 34.2496C5.9713 34.2278 5.82667 34.1494 5.66137 34.0883C5.3845 33.9881 5.35971 33.9728 5.55806 33.866C5.78121 33.7461 5.60762 33.5891 5.73159 33.4714C5.86383 33.345 6.04572 33.2339 6.20688 33.1162C6.2482 33.0857 6.28541 33.0573 6.32674 33.0268C6.23169 32.9832 6.14493 32.9287 6.03335 32.8982C5.88872 32.859 5.81433 32.811 5.82259 32.6759C5.79367 32.6562 5.80598 32.7064 5.83904 32.7194C5.87623 32.7325 5.96721 32.7216 6.01267 32.7064C6.12838 32.665 6.18617 32.6105 6.15724 32.5647C6.14071 32.5407 6.06226 32.5102 6.01267 32.5102C5.92176 32.5102 5.84325 32.5581 5.81846 32.6759C5.35563 32.7652 4.87619 32.8088 4.39683 32.8437C4.34725 32.8481 4.2853 32.8045 4.22744 32.7827C4.03735 32.7085 4.03733 32.7107 3.47945 32.6889C3.4216 32.6867 3.34312 32.6562 3.3142 32.6257C3.19436 32.4928 3.19852 32.3467 3.14067 32.205C3.24811 32.1135 3.35547 32.0241 3.46704 31.9347C3.69019 31.7538 3.97953 31.5947 4.15309 31.3963C4.1159 31.2895 4.0663 31.1827 4.24812 31.0955C4.76467 30.9865 4.76057 30.9866 4.90108 30.8819C5.30192 30.5855 5.69861 30.2868 6.11598 29.9948C6.22755 29.9185 6.22757 29.8771 6.02921 29.8444C5.96723 29.8356 5.90102 29.8335 5.8349 29.8378C5.62828 29.8531 5.42167 29.8923 5.21918 29.8836C5.01669 29.877 4.86792 29.7811 4.70263 29.7223C4.5332 29.6613 4.36378 29.598 4.19435 29.5348C4.00013 29.5414 3.80594 29.6024 3.61172 29.5043C3.46295 29.428 3.277 29.3735 3.10758 29.3103C3.23568 29.1446 3.4754 29.0182 3.66135 28.8722C3.83078 28.7392 3.83482 28.7414 4.28939 28.639C4.50427 28.591 4.57866 28.3447 4.39683 28.2727C4.17782 28.1856 3.94645 28.1049 3.7233 28.0221C3.52908 28.0286 3.33076 28.0875 3.1448 27.9894C3.00017 27.9153 2.83484 27.8651 2.59516 27.8935C2.19019 27.9414 1.77696 27.9654 1.36785 28.0046C1.22735 28.0177 1.07441 28.009 1.01242 27.9349C0.971095 27.8826 1.09094 27.8107 1.22731 27.7954C1.43393 27.7736 1.61987 27.7474 1.72318 27.6385C1.82236 27.5295 2.00416 27.4968 2.21905 27.4815C2.2769 27.4771 2.34307 27.451 2.372 27.4248C2.52076 27.2984 2.68607 27.1894 3.00427 27.1938C3.1365 27.1502 3.20671 27.0957 3.16539 27.0434C3.14059 27.015 3.05386 26.978 3.00427 26.9824C2.66128 27.0041 2.3183 27.0259 1.98357 27.0652C1.82654 27.0826 1.70664 27.087 1.60746 27.0216C1.53721 26.978 1.5744 26.9191 1.70663 26.8559C1.82234 26.8014 1.85544 26.7382 1.84717 26.6641C1.82651 26.4919 1.70251 26.4418 1.3058 26.4527C1.02067 26.4614 0.950413 26.433 0.888427 26.2848C0.871897 26.2499 0.830646 26.202 0.859572 26.178C1.03727 26.0298 1.15298 25.8467 1.48771 25.7769C1.61994 25.7508 1.76039 25.7508 1.84304 25.6941C1.92568 25.6374 2.0001 25.572 2.08688 25.5175C2.19433 25.4521 2.26864 25.3911 2.21905 25.3497C2.1364 25.2756 2.00421 25.2691 1.85131 25.2952C1.71907 25.317 1.57857 25.3192 1.44221 25.3323C1.19839 25.3562 1.00008 25.2996 0.971155 25.2037C0.89264 24.9508 0.809967 24.7002 0.739717 24.4473C0.731452 24.4168 0.752057 24.3775 0.785116 24.3514C0.900824 24.2598 1.02484 24.1726 1.14468 24.0833C1.28519 23.9808 1.50837 24.0005 1.69846 23.9808C1.96707 23.9525 1.96698 23.9547 2.3265 23.7454C2.467 23.6626 2.71082 23.6953 2.85546 23.6212C2.90091 23.5972 2.97116 23.558 2.95877 23.5362C2.94224 23.5078 2.85963 23.486 2.79765 23.4729C2.73979 23.4599 2.66956 23.4533 2.60757 23.4599C1.85547 23.5231 1.10753 23.5907 0.355431 23.6517C0.227327 23.6626 0.0868209 23.6146 0.0413644 23.5471C-0.00409205 23.4839 0.00826481 23.4075 0 23.3356C0.11984 23.2462 0.256157 23.1634 0.359467 23.0675C0.437982 22.9934 0.528911 22.9607 0.685943 22.9563C0.892563 22.9498 1.09507 22.9236 1.32649 22.904C1.75626 22.5858 2.17773 22.2523 2.64056 21.934C2.82652 21.8054 2.78114 21.6746 2.81833 21.5373C2.85552 21.4109 3.13237 21.4305 3.31833 21.3935C3.4671 21.363 3.51662 21.2932 3.45877 21.2452C3.42571 21.2169 3.35137 21.1842 3.29351 21.1842C3.15715 21.1842 3.02078 21.2038 2.88441 21.2147C2.74804 21.2256 2.59102 21.2191 2.47944 21.2561C2.372 21.291 2.30171 21.3651 2.23146 21.4283C2.15294 21.4981 2.04971 21.5221 1.89267 21.5264C1.69019 21.5308 1.48771 21.5504 1.28522 21.5657C1.06207 21.4806 0.830609 21.3978 0.615724 21.3085C0.5744 21.291 0.566091 21.2409 0.570223 21.2082C0.578488 21.1232 0.516518 21.0709 0.380149 21.0294C0.264442 20.9946 0.169388 20.9444 0.0619457 20.9008C0.144594 20.842 0.235539 20.7853 0.301657 20.7221C0.446292 20.5891 0.628138 20.4932 0.9422 20.4976C1.06617 20.4126 1.16532 20.308 1.32649 20.2491C1.47938 20.1924 1.73974 20.2491 1.85545 20.1205C1.9133 20.0573 2.00013 19.9853 2.1117 19.9592C2.2894 19.9178 2.52081 19.9396 2.62412 19.8175C2.6861 19.7478 2.77698 19.6845 2.89682 19.6671C3.03319 19.6475 3.17365 19.6431 3.27283 19.6017C3.32655 19.5799 3.38442 19.545 3.38442 19.5145C3.38442 19.4949 3.30183 19.4644 3.24398 19.4513C3.19026 19.4361 3.11993 19.4252 3.05794 19.4295C2.85132 19.4426 2.64883 19.4666 2.44221 19.4796C2.38436 19.484 2.31826 19.4688 2.25628 19.4557C2.07445 19.4208 2.08682 19.3772 2.23146 19.2987C2.37609 19.2224 2.47946 19.1243 2.5993 19.035C2.73154 19.0197 2.89681 19.0263 2.98772 18.9848C3.14062 18.9173 3.24803 18.8192 3.37201 18.7342C3.50838 18.7211 3.64887 18.7167 3.77697 18.6928C3.83069 18.684 3.85551 18.6361 3.90097 18.6077C3.98361 18.5533 4.05392 18.4748 4.1655 18.4486C4.34732 18.4094 4.57047 18.4246 4.67791 18.3048C4.7399 18.235 4.83491 18.1609 4.95061 18.1566C5.27294 18.1478 5.40931 18.0279 5.57461 17.9146C5.69858 17.8296 5.96306 17.8732 6.09943 17.7882C6.19035 17.7337 6.25651 17.6661 6.34742 17.6138C6.38461 17.592 6.4631 17.5811 6.52508 17.5746C6.86394 17.5419 7.20692 17.5179 7.54577 17.483C7.5995 17.4765 7.64913 17.4438 7.69045 17.4176C7.77723 17.3609 7.83089 17.2825 7.93833 17.2454C8.04578 17.2084 8.19865 17.2084 8.33089 17.1975C8.75653 17.1648 8.78962 17.1735 8.98384 16.9882C9.14087 16.8378 9.52524 16.9446 9.65334 16.7789C9.72773 16.683 9.86403 16.6046 10.1078 16.5937C10.4508 16.5784 10.7897 16.537 11.1327 16.5086C11.4385 16.4825 11.4344 16.4825 11.7649 16.2798C11.9137 16.1882 12.1328 16.2013 12.327 16.1839C12.5336 16.1664 12.7237 16.1403 12.8229 16.0313C12.922 15.9245 13.1038 15.8896 13.3146 15.8743C13.5088 15.8591 13.7279 15.87 13.8808 15.7828C14.2527 15.5735 14.2486 15.5714 14.5089 15.5496C14.918 15.5147 15.3271 15.4798 15.7362 15.4428C16.009 15.4188 16.2941 15.4144 16.5503 15.3665C16.7363 15.3316 16.8189 15.2095 16.9387 15.1245C17.2776 15.0918 17.6164 15.0591 17.9553 15.0286C18.4305 14.985 18.9099 14.9458 19.3892 14.9044C19.5958 14.8215 19.6248 14.6384 19.9719 14.6297C20.1786 14.6253 20.381 14.597 20.5877 14.5796C20.9307 14.5491 21.2695 14.5098 21.6125 14.4946C21.8728 14.4837 21.9182 14.3659 22.0546 14.2918C22.1 14.2657 22.1414 14.2286 22.1951 14.2221C22.7323 14.1611 23.286 14.148 23.8109 14.0586C23.8646 14.0499 23.9142 14.0041 23.9266 13.9714C23.9348 13.954 23.8646 13.9213 23.8191 13.906C23.7654 13.8886 23.6952 13.8712 23.6373 13.8755C21.9307 14.0216 20.224 14.1698 18.5173 14.3158C18.2776 14.3376 18.2777 14.3354 17.695 14.5752C17.6454 14.5948 17.5875 14.6166 17.5255 14.6232C17.2528 14.6493 16.9759 14.6646 16.7073 14.6973C16.4883 14.7235 16.3065 14.6973 16.1495 14.6188C16.0379 14.5621 15.9221 14.5447 15.7816 14.5491C15.6246 14.5556 15.5213 14.5796 15.4304 14.6384C15.3106 14.7191 15.2486 14.8237 14.9965 14.8455C13.8353 14.9392 12.674 15.0439 11.517 15.1441C11.3558 15.1136 11.2773 15.0678 11.3186 15.0133C11.3434 14.9806 11.393 14.9371 11.4426 14.9327C11.9178 14.8869 12.3972 14.8477 12.8724 14.8041C12.9385 14.7976 13.0294 14.8019 13.0666 14.7801C13.2484 14.682 13.3146 14.5229 13.6576 14.512C13.856 14.5055 14.0584 14.4728 14.2485 14.4423C14.3022 14.4335 14.3518 14.3878 14.3642 14.3551C14.3684 14.3376 14.3022 14.3049 14.2527 14.2897C14.0708 14.2264 13.8601 14.3028 13.6783 14.2592C13.6163 14.2439 13.5295 14.2221 13.5171 14.1959C13.5088 14.172 13.5791 14.1327 13.6287 14.1087C13.6741 14.0869 13.7361 14.0673 13.7981 14.0608C14.3435 14.0107 14.8891 13.9583 15.4346 13.9191C15.6577 13.9039 15.8147 13.8494 15.9139 13.7491C15.9883 13.675 16.0792 13.6357 16.2197 13.6248C17.1743 13.5442 18.1288 13.4548 19.0876 13.3807C19.3272 13.3633 19.4513 13.2914 19.5504 13.1976C19.6289 13.1235 19.7199 13.0974 19.8728 13.0843C21.2406 12.9709 22.6001 12.8445 23.9679 12.7355C24.22 12.7159 24.2944 12.6222 24.4226 12.5415C24.468 12.5132 24.4969 12.4783 24.5547 12.4609C24.6126 12.4434 24.6869 12.4456 24.7572 12.4412C25.8482 12.3475 26.9392 12.2473 28.0343 12.1601C28.2905 12.1404 28.34 12.0314 28.4722 11.9552C28.5177 11.9312 28.559 11.892 28.6128 11.8854C29.431 11.8113 30.2492 11.7416 31.0674 11.6696C31.6129 11.6217 32.1583 11.5737 32.7038 11.5279C32.9724 11.5061 32.9724 11.5039 33.3361 11.2969C33.3774 11.2729 33.4353 11.2445 33.489 11.238C35.0593 11.0985 36.6255 10.9656 38.1958 10.8282C38.328 10.8173 38.4231 10.7672 38.4892 10.6931C38.5553 10.619 38.6504 10.5688 38.7785 10.5579C40.0058 10.4489 41.2331 10.3421 42.4646 10.2397C42.6877 10.2223 42.8447 10.1699 42.9439 10.0718C43.0183 9.99774 43.1092 9.95851 43.2497 9.94761C44.477 9.84299 45.7044 9.7318 46.9359 9.63154C47.1714 9.61192 47.2871 9.53782 47.4028 9.45063C47.4441 9.42011 47.4772 9.36997 47.5268 9.36561C48.1384 9.30458 48.7458 9.24136 49.3616 9.19995C49.6178 9.18251 49.7046 9.09096 49.8079 9.00377C49.8905 8.93401 49.9856 8.91004 50.1426 8.90133C50.4856 8.88171 50.8245 8.84467 51.1592 8.80761C51.2088 8.80107 51.2708 8.75311 51.2749 8.7226C51.2832 8.66592 51.1881 8.62668 51.0311 8.60706C49.3946 8.74875 47.7541 8.89042 46.1177 9.0321C45.8491 9.05608 45.8491 9.05609 45.4854 9.26317C45.4441 9.28715 45.3862 9.31549 45.3283 9.32203C43.758 9.45935 42.1919 9.5945 40.6216 9.73182C40.4893 9.74272 40.3943 9.79285 40.3282 9.86697C40.2621 9.94108 40.1669 9.99121 40.0388 10.0021C38.5388 10.1329 37.0387 10.2659 35.5345 10.3901C35.3114 10.4075 35.1544 10.4577 35.0552 10.5579C34.9808 10.632 34.8899 10.6713 34.7494 10.6822C33.3155 10.8043 31.8856 10.9328 30.4475 11.0506C30.3029 11.0615 30.1955 10.9982 30.2038 10.9394C30.2079 10.9089 30.2698 10.8588 30.3194 10.8544C31.0674 10.7825 31.8113 10.7083 32.5634 10.6539C32.8154 10.6364 32.8898 10.5405 33.0179 10.4599C33.0592 10.4315 33.0923 10.3945 33.146 10.3792C33.2039 10.3618 33.2782 10.3639 33.3485 10.3596C35.1213 10.2048 36.8941 10.0479 38.6711 9.90185C38.9273 9.88005 38.9768 9.77323 39.109 9.69694C39.1545 9.67078 39.1959 9.63156 39.2496 9.6272C39.795 9.57488 40.3405 9.5291 40.886 9.48333C41.8406 9.4005 42.7951 9.31766 43.7539 9.23483C44.0307 9.21086 44.0307 9.21084 44.3861 9.00595C44.4274 8.98197 44.4853 8.95148 44.5391 8.94712C47.064 8.72696 49.5889 8.5068 52.1138 8.28883C52.246 8.27793 52.3411 8.2278 52.4072 8.15369C52.4733 8.08175 52.5683 8.02944 52.6964 8.01636C56.1098 7.71991 59.519 7.42346 62.9324 7.13137C63.1556 7.11175 63.3125 7.06597 63.4117 6.96353C63.482 6.88941 63.577 6.85019 63.7175 6.83711C67.4697 6.51233 71.222 6.18755 74.9783 5.86059C77.5032 5.64261 80.0282 5.42028 82.5531 5.20666C82.7845 5.18704 82.9084 5.11946 83.0241 5.03009C83.0613 4.99957 83.0985 4.94944 83.1481 4.94508C83.6894 4.89058 84.2308 4.84046 84.7721 4.79032C84.9415 4.84918 85.111 4.90586 85.2804 4.96471C85.4085 4.88188 85.5325 4.79687 85.6606 4.71404C86.4789 4.65082 87.2846 4.55273 88.1111 4.52222C88.1648 4.52004 88.2227 4.56146 88.2805 4.58326C88.6648 4.72058 88.8839 4.70968 89.1277 4.52658C89.2145 4.46119 89.2888 4.40234 89.4211 4.39144C89.8302 4.3522 90.2435 4.32604 90.6485 4.28027C90.8675 4.25629 91.0493 4.27808 91.2063 4.35655C91.3179 4.41323 91.4336 4.43722 91.57 4.42414C92.3221 4.35875 93.07 4.29553 93.8221 4.22578C93.8759 4.22142 93.9254 4.18435 93.9667 4.15819C94.0535 4.10152 94.1279 4.0405 94.2106 3.98164C94.3221 4.0187 94.4461 4.04704 94.537 4.095C94.6527 4.15167 94.7601 4.15166 94.9172 4.1364C97.9173 3.87265 100.922 3.61544 103.922 3.34951C104.178 3.32771 104.29 3.41927 104.463 3.46723C104.521 3.48467 104.579 3.50645 104.641 3.51081C104.707 3.51517 104.777 3.5021 104.843 3.49557C107.095 3.29939 109.348 3.10538 111.6 2.9092C111.897 2.88304 111.897 2.88304 112.339 3.01819C112.393 3.03562 112.463 3.05525 112.521 3.04871C113.546 2.9637 114.571 2.87215 115.592 2.78497C115.724 2.77407 115.835 2.80893 115.955 2.85907C116.191 2.95716 116.207 2.95717 116.381 2.8133C116.464 2.74573 116.55 2.7043 116.687 2.68468C116.835 2.66288 116.955 2.66944 117.071 2.70868C117.236 2.76317 117.356 2.85471 117.608 2.83073C118.699 2.72828 119.794 2.64328 120.881 2.53865C121.129 2.51468 121.261 2.58878 121.427 2.64328C121.484 2.66289 121.538 2.69341 121.6 2.69995C121.662 2.70649 121.737 2.69122 121.803 2.68468C123.166 2.56697 124.534 2.45147 125.894 2.32504C126.15 2.30106 126.261 2.39478 126.435 2.44273C126.493 2.46017 126.559 2.4907 126.613 2.48634C127.431 2.41877 128.253 2.34682 129.072 2.27488C129.365 2.24873 129.365 2.25091 129.811 2.38387C129.865 2.40131 129.935 2.41875 129.993 2.41439C130.948 2.33374 131.906 2.25091 132.861 2.16808C133.154 2.14192 133.154 2.14193 134.001 2.25527C134.063 2.26399 134.13 2.27709 134.192 2.27273C135.283 2.179 136.378 2.08744 137.469 1.98717C137.688 1.96755 137.869 1.98498 138.026 2.06346C138.138 2.12013 138.254 2.14412 138.39 2.13104C139.617 2.02423 140.849 1.92179 142.072 1.80844C142.308 1.78664 142.46 1.83458 142.626 1.89779C142.679 1.91959 142.733 1.95011 142.795 1.95883C142.857 1.96755 142.927 1.95883 142.994 1.95229C144.221 1.84548 145.452 1.74521 146.676 1.62969C146.923 1.60571 147.056 1.67982 147.221 1.73431C147.279 1.75393 147.341 1.79317 147.39 1.79099C147.87 1.75393 148.349 1.72125 148.824 1.66675C149.081 1.63624 149.192 1.73649 149.366 1.78444C149.424 1.7997 149.49 1.83241 149.543 1.82805C150.568 1.74304 151.593 1.65368 152.614 1.56213C152.758 1.54905 152.866 1.56865 152.982 1.62532C153.134 1.70162 153.312 1.73213 153.535 1.70816C154.011 1.65802 154.49 1.62315 154.969 1.58174C155.25 1.55776 155.25 1.55777 156.11 1.67112C156.172 1.67984 156.238 1.6929 156.3 1.68855C157.118 1.61879 157.94 1.55123 158.755 1.47493C158.974 1.45314 159.155 1.47275 159.312 1.55122C159.424 1.60789 159.536 1.63188 159.676 1.61881C160.428 1.55341 161.176 1.48801 161.928 1.42262C162.201 1.39865 162.474 1.35722 162.747 1.35722C162.945 1.3594 163.09 1.46402 163.267 1.51634C163.317 1.53159 163.399 1.51418 163.466 1.50982C164.42 1.42699 165.379 1.35069 166.329 1.25696C166.577 1.23298 166.71 1.30709 166.875 1.36158C166.933 1.3812 166.995 1.42044 167.044 1.41826C167.387 1.39428 167.726 1.36158 168.069 1.33325C168.478 1.29837 168.891 1.27221 169.296 1.22426C169.627 1.18502 169.751 1.37465 170.015 1.38119C170.218 1.38773 170.424 1.35068 170.627 1.33325C171.036 1.29837 171.445 1.25914 171.854 1.22862C171.999 1.21772 172.111 1.18283 172.156 1.10436C172.164 1.0891 172.094 1.05642 172.049 1.0368C171.499 0.814468 171.499 0.814458 170.945 0.862412C170.602 0.892929 170.263 0.92345 169.92 0.949607C169.862 0.953967 169.796 0.93653 169.739 0.923451C169.573 0.886396 169.59 0.842805 169.73 0.764334C169.871 0.685863 169.978 0.589963 170.098 0.500593C170.267 0.557266 170.433 0.61392 170.602 0.670593C170.739 0.659694 170.875 0.646635 171.011 0.635736C171.693 0.579063 172.375 0.520205 173.057 0.467891C173.106 0.463532 173.168 0.507133 173.226 0.528931C173.392 0.592144 173.54 0.646622 173.78 0.622645C174.392 0.559432 175.007 0.513658 175.619 0.459164C175.888 0.435187 175.888 0.435189 176.359 0.570333C176.412 0.585592 176.483 0.603031 176.54 0.598671C177.156 0.548537 177.768 0.49405 178.383 0.441736C178.516 0.430837 178.644 0.459172 178.739 0.522385C178.776 0.548542 178.768 0.592129 178.925 0.949607C179.412 1.23951 179.747 1.20901 180.086 1.18286C180.231 1.17196 180.359 1.16105 180.454 1.11745C180.503 1.09347 180.565 1.05859 180.565 1.03026C180.565 1.00846 180.475 0.973577 180.417 0.969218C180.008 0.925623 179.619 1.01718 179.218 1.0368C179.032 1.04552 178.871 0.969229 178.838 0.844984C178.83 0.810108 178.817 0.773054 178.805 0.738178C178.793 0.703302 178.784 0.666249 178.772 0.631373C178.611 0.620474 178.516 0.659703 178.446 0.733814C178.388 0.794847 178.305 0.864599 178.193 0.897296C178.082 0.932171 177.929 0.925644 177.793 0.936543C177.66 0.947441 177.516 0.975775 177.392 0.960517C177.268 0.943079 177.169 0.879855 177.053 0.84062C176.999 0.821002 176.933 0.792676 176.879 0.797036C176.404 0.834091 175.933 0.871133 175.462 0.919088C175.214 0.945245 175.09 0.853709 174.933 0.797036C174.809 0.753441 174.685 0.764326 174.664 0.864594C174.611 1.10437 174.801 1.20463 175.222 1.15885C175.569 1.11962 175.883 1.1131 176.156 1.26132C176.193 1.28094 176.28 1.28966 176.334 1.2853C176.673 1.25914 177.007 1.22644 177.346 1.20028C177.408 1.19592 177.474 1.20463 177.532 1.21335C178.375 1.33105 178.375 1.33325 178.66 1.30709C178.797 1.29401 178.929 1.28311 178.917 0.951789C179.177 0.59649 179.59 0.572517 179.991 0.520203C180.251 0.487507 180.363 0.58342 180.532 0.633554C180.59 0.650992 180.652 0.685862 180.706 0.681503C181.594 0.609571 182.479 0.533269 183.363 0.452618C183.512 0.43954 183.619 0.45262 183.735 0.509294C183.884 0.581226 184.049 0.62701 184.285 0.600853C184.756 0.548539 185.235 0.51585 185.714 0.472255C185.958 0.450458 185.958 0.450435 186.45 0.58558C186.504 0.600838 186.574 0.618277 186.632 0.613918C187.111 0.576862 187.586 0.531101 188.062 0.491866C188.194 0.480967 188.314 0.51148 188.417 0.570333C188.52 0.629186 188.644 0.6597 188.772 0.648801C189.252 0.609566 189.727 0.565984 190.202 0.526749C190.26 0.522389 190.33 0.537647 190.384 0.552905C190.888 0.688049 190.888 0.688027 191.12 0.666229C191.458 0.633533 191.806 0.618292 192.14 0.574697C192.467 0.531102 192.636 0.657517 192.859 0.727269C193.471 0.677135 194.087 0.63573 194.694 0.574697C194.942 0.54854 195.074 0.620465 195.24 0.677139C195.297 0.696757 195.355 0.738176 195.409 0.735996C195.616 0.727277 195.818 0.703304 196.021 0.685866C196.223 0.668428 196.43 0.650992 196.632 0.633554C196.864 0.696767 197.017 0.844988 197.347 0.794854C197.546 0.764337 197.756 0.757798 197.959 0.74036C198.161 0.722922 198.368 0.705486 198.57 0.688048C198.707 0.677149 198.847 0.670601 198.979 0.650983C199.223 0.618287 199.343 0.725107 199.517 0.773062C199.575 0.78832 199.641 0.81446 199.694 0.8101C200.103 0.779584 200.517 0.753429 200.917 0.703295C201.227 0.664059 201.438 0.72946 201.657 0.82101C201.703 0.840627 201.781 0.851525 201.839 0.847166C202.318 0.81011 202.794 0.764322 203.269 0.725087C203.397 0.714188 203.521 0.749063 203.624 0.805736C203.732 0.86459 203.851 0.892948 203.984 0.882049C204.459 0.842813 204.938 0.799206 205.414 0.75997C205.471 0.755611 205.542 0.773052 205.595 0.79049C206.058 0.925634 206.058 0.927816 206.331 0.901659C206.397 0.89512 206.467 0.890743 206.533 0.884204C206.872 0.853688 207.224 0.842804 207.554 0.79049C207.934 0.731637 208.211 0.805751 208.48 0.929997C208.819 0.90384 209.166 0.888579 209.496 0.844984C209.744 0.812287 209.877 0.895114 210.042 0.949607C210.1 0.969225 210.162 1.00846 210.211 1.0041C210.691 0.967045 211.17 0.934361 211.641 0.879867C211.897 0.849351 212.009 0.947421 212.182 0.997555C212.24 1.01499 212.302 1.04553 212.356 1.04117C212.629 1.02373 212.902 0.997559 213.174 0.973581C213.492 0.945245 213.492 0.947422 213.914 1.08039C214.112 1.1436 214.311 1.09346 214.505 1.07821C214.712 1.06077 214.906 1.04769 215.071 1.13706C215.174 1.19374 215.298 1.22861 215.426 1.21989C215.699 1.20028 215.976 1.18067 216.245 1.14797C216.46 1.12181 216.645 1.13924 216.802 1.21989C216.914 1.27657 217.03 1.30492 217.166 1.29184C217.778 1.23953 218.393 1.18501 219.005 1.13488C219.059 1.13052 219.133 1.15015 219.183 1.16976C219.298 1.209 219.41 1.25258 219.522 1.29618C219.79 1.27656 220.067 1.26787 220.332 1.23735C220.613 1.20683 220.869 1.19593 221.088 1.31582C221.133 1.34197 221.199 1.37901 221.253 1.37683C221.46 1.36811 221.662 1.34632 221.865 1.32888C222.067 1.31144 222.274 1.29401 222.476 1.27657C222.712 1.33106 222.861 1.488 223.191 1.43787C223.39 1.40735 223.6 1.40081 223.803 1.38338C224.005 1.36594 224.212 1.34632 224.414 1.33106C224.481 1.3267 224.555 1.3158 224.613 1.32452C224.675 1.33324 224.728 1.36376 224.782 1.38556C224.947 1.44877 225.1 1.51199 225.336 1.47493C225.534 1.44442 225.745 1.43788 225.947 1.41826C226.224 1.39428 226.224 1.39429 226.683 1.53161C226.869 1.58828 227.08 1.51417 227.257 1.56213C227.377 1.59483 227.481 1.64931 227.596 1.68636C227.646 1.70162 227.724 1.70815 227.782 1.70379C228.055 1.68417 228.332 1.66457 228.6 1.63187C228.819 1.60571 229.001 1.63187 229.154 1.71034C229.266 1.76701 229.377 1.791 229.518 1.77792C230.2 1.71689 230.882 1.66456 231.559 1.59699C231.791 1.57301 231.977 1.61007 232.105 1.68855C232.324 1.82369 232.634 1.66457 232.861 1.77356C233.001 1.84113 233.142 1.91961 233.398 1.88691C233.869 1.83024 234.349 1.7997 234.824 1.76047C234.993 1.81932 235.163 1.87819 235.336 1.93704C235.609 1.91306 235.882 1.88907 236.155 1.86727C236.357 1.84983 236.564 1.83022 236.766 1.81496C236.832 1.8106 236.902 1.80188 236.964 1.81278C237.026 1.82368 237.076 1.85202 237.134 1.87382C237.419 1.98063 237.419 1.98282 237.89 1.93922C238.093 1.9196 238.287 1.90653 238.456 1.99372C238.613 2.07437 238.799 2.08961 239.014 2.06564C239.419 2.02204 239.828 1.98935 240.242 1.95883C240.37 1.94793 240.489 1.98499 240.597 2.04166C240.758 2.13103 240.956 2.12232 241.159 2.09834C241.428 2.06782 241.692 2.03731 241.919 2.15938C241.965 2.18554 242.035 2.22257 242.085 2.22039C242.423 2.20295 242.766 2.18988 243.097 2.14847C243.428 2.10705 243.589 2.24219 243.816 2.30759C244.155 2.27925 244.498 2.25091 244.837 2.22257C244.903 2.21603 244.981 2.19643 245.039 2.20733C245.283 2.2531 245.423 2.41658 245.758 2.36644C245.952 2.33811 246.163 2.3294 246.366 2.32286C246.419 2.32068 246.49 2.35772 246.527 2.38605C246.548 2.40131 246.527 2.44272 246.502 2.46452C246.428 2.52555 246.337 2.58225 246.271 2.64546C246.262 2.65418 246.341 2.6934 246.386 2.71083C246.498 2.75007 246.626 2.74355 246.775 2.72611C246.903 2.71085 247.035 2.74136 247.126 2.80676C247.163 2.83291 247.151 2.8765 247.072 3.02037C247.072 3.12718 247.159 3.07921 247.188 3.00946C247.233 2.90919 247.147 2.8765 246.981 2.93099C246.866 2.97023 246.808 3.02691 246.837 3.07268C246.853 3.09666 246.932 3.12718 247.072 3.02037C247.436 2.88958 247.709 2.86562 247.982 2.84164C248.052 2.8351 248.134 2.81329 248.184 2.82637C248.362 2.87868 248.527 2.9419 248.701 3.00076C248.899 2.98768 249.085 2.95497 249.279 3.03998C249.552 3.15986 249.564 3.14897 249.829 3.12499C249.965 3.11191 250.101 3.10103 250.238 3.09014C250.374 3.07924 250.482 3.11192 250.601 3.16206C250.845 3.26451 250.866 3.2645 251.027 3.12499C251.122 3.03998 251.188 3.01165 251.308 3.05089C251.705 3.18385 251.709 3.19257 252.048 3.15333C252.329 3.12063 252.593 3.11192 252.8 3.23616C252.94 3.32335 252.986 3.30374 253.097 3.21219C253.395 2.97024 253.531 2.97459 254.089 3.14897C254.349 3.2318 254.618 3.14244 254.883 3.13154C255.106 3.12282 255.263 3.17512 255.279 3.31245C255.292 3.39746 255.329 3.4585 255.478 3.48684C255.535 3.49774 255.606 3.51299 255.664 3.50863C256.007 3.48247 256.345 3.45195 256.688 3.42143C256.862 3.40618 256.957 3.30375 256.924 3.1686C256.887 3.02474 256.953 2.97241 257.201 2.93099C257.35 2.90701 257.47 2.91139 257.589 2.95063C257.722 2.99422 257.684 3.03346 257.569 3.11193C257.292 3.30375 257.325 3.42143 257.68 3.5544C257.804 3.60017 257.903 3.6416 257.932 3.70918C257.949 3.74405 257.932 3.78982 257.969 3.81598C258.172 3.96202 258.453 4.05576 258.767 4.12552C259.069 4.06666 259.275 4.16473 259.507 4.2432C259.689 4.30424 259.903 4.25194 260.098 4.23014C260.317 4.20616 260.499 4.22359 260.656 4.30424C260.767 4.36092 260.883 4.38706 261.019 4.37617C261.292 4.35219 261.569 4.33694 261.837 4.30206C262.069 4.27154 262.242 4.31515 262.387 4.38926C262.569 4.48299 262.771 4.41976 262.961 4.43284C263.218 4.4481 263.346 4.64209 263.681 4.58978C263.879 4.55926 264.085 4.54837 264.292 4.53965C264.346 4.53747 264.412 4.57453 264.457 4.60069C264.676 4.72057 264.933 4.71403 265.214 4.67915C265.408 4.65518 265.598 4.63339 265.788 4.71622C266.102 4.85572 266.449 4.9778 266.78 5.1064C266.825 5.20667 266.792 5.32435 267.028 5.38321C267.152 5.41372 267.267 5.45952 267.362 5.50965C267.478 5.5685 267.586 5.58377 267.734 5.56851C268.003 5.53799 268.284 5.53143 268.548 5.4922C268.792 5.45732 268.945 5.52927 269.094 5.59685C269.214 5.65134 269.325 5.67748 269.47 5.63825C269.619 5.60119 269.726 5.62516 269.846 5.68401C270.015 5.76467 270.028 5.75596 270.59 5.77994C270.648 5.78212 270.718 5.8148 270.751 5.84313C270.768 5.85839 270.73 5.90201 270.701 5.92381C270.664 5.94997 270.606 5.98046 270.553 5.987C269.941 6.04368 269.325 6.09381 268.714 6.15048C268.652 6.15702 268.586 6.1723 268.54 6.19409C268.491 6.21807 268.429 6.25075 268.429 6.28126C268.429 6.30306 268.511 6.32923 268.569 6.34448C268.751 6.39462 268.966 6.31833 269.144 6.375C269.263 6.41206 269.362 6.46436 269.482 6.49924C269.532 6.5145 269.611 6.51232 269.672 6.50797C269.879 6.49271 270.082 6.47091 270.288 6.45784C270.346 6.45566 270.412 6.47746 270.466 6.4949C270.863 6.62569 270.863 6.62568 271.206 6.59734C271.342 6.58644 271.487 6.55374 271.615 6.56682C271.739 6.5799 271.846 6.63875 271.958 6.67581C272.189 6.75428 272.408 6.83057 272.425 7.00059C272.433 7.06598 272.569 7.12265 272.706 7.12701C272.838 7.13137 272.978 7.10741 273.115 7.09433C273.437 7.06817 273.437 7.06817 273.854 7.20114C273.97 7.23819 274.094 7.24254 274.243 7.22075C274.301 7.21203 274.371 7.22076 274.433 7.23166C274.636 7.26435 274.635 7.30576 274.503 7.38423C274.317 7.49976 274.334 7.51066 274.854 7.60875C275.053 7.6458 275.206 7.71556 275.371 7.77659C275.64 7.87468 275.636 7.87466 275.458 8.00327C275.417 8.03161 275.379 8.06213 275.338 8.09265C275.218 8.17766 275.123 8.2692 274.875 8.27792C274.602 8.28664 274.33 8.32153 274.057 8.3455C273.792 8.36948 273.722 8.42178 273.747 8.57C273.776 8.74874 273.83 8.76836 274.305 8.76618C274.441 8.76618 274.561 8.78361 274.664 8.84247C274.615 8.91222 274.524 8.96671 274.392 8.97979C274.053 9.01249 273.71 9.04083 273.371 9.06917C273.098 9.09315 272.826 9.11712 272.553 9.14109C272.383 9.15635 272.276 9.26971 272.321 9.39613C272.346 9.46806 272.367 9.53999 272.387 9.61193C272.433 9.75579 272.52 9.79285 272.797 9.78631C272.867 9.78414 272.933 9.76668 272.999 9.77104C273.268 9.7863 273.396 9.96722 273.718 9.93016C273.987 9.89964 274.268 9.89311 274.532 9.85387C274.776 9.819 274.912 9.89749 275.082 9.95634C275.14 9.97596 275.202 10.0174 275.251 10.0152C275.594 9.9912 275.937 9.96724 276.272 9.92582C276.429 9.90838 276.524 9.92146 276.648 9.97377C276.945 10.1002 276.954 10.0937 277.396 10.0544C277.718 10.0239 277.722 10.0283 278.136 10.1612C278.251 10.1983 278.375 10.1983 278.524 10.1808C278.718 10.159 278.921 10.1242 279.123 10.1569C279.185 10.1656 279.264 10.1917 279.284 10.2201C279.297 10.2397 279.239 10.2877 279.189 10.3029C278.826 10.4163 278.4 10.3966 278.003 10.4424C277.879 10.4555 277.755 10.4141 277.652 10.3552C277.545 10.2964 277.429 10.2724 277.288 10.2833C277.016 10.3073 276.739 10.3225 276.47 10.3574C276.239 10.3879 276.078 10.3378 275.917 10.2702C275.863 10.2484 275.801 10.207 275.747 10.2092C275.135 10.2528 274.52 10.2964 273.912 10.3574C273.669 10.3836 273.528 10.3138 273.363 10.255C273.305 10.2353 273.247 10.1939 273.193 10.1961C272.987 10.2048 272.784 10.2288 272.578 10.2462C271.826 10.3116 271.077 10.377 270.325 10.4381C270.276 10.4424 270.214 10.3966 270.156 10.377C270.044 10.3378 269.929 10.3007 269.813 10.2637C269.606 10.2811 269.404 10.3029 269.197 10.316C269.048 10.3247 268.916 10.3552 268.896 10.4381C268.883 10.4926 269.02 10.5427 269.164 10.5383C269.305 10.534 269.445 10.5078 269.561 10.5361C270.135 10.6756 270.135 10.6778 270.495 10.6495C270.809 10.6233 270.776 10.6015 271.053 10.7214C271.172 10.7737 271.28 10.8043 271.416 10.7912C271.755 10.7607 272.098 10.7301 272.441 10.704C272.495 10.6996 272.565 10.7214 272.619 10.7389C273.024 10.8696 273.024 10.874 273.359 10.8413C273.797 10.8021 273.813 10.7912 274.107 10.9241C274.309 11.0157 274.495 10.9525 274.689 10.9481C274.912 11.0331 275.156 11.1094 275.359 11.2053C275.598 11.3187 275.85 11.299 276.123 11.2663C276.326 11.2424 276.524 11.2337 276.689 11.323C276.846 11.4059 277.036 11.4146 277.251 11.3928C277.445 11.3732 277.644 11.3317 277.846 11.3797C277.9 11.3928 277.983 11.4255 277.979 11.4451C277.974 11.4756 277.921 11.5192 277.867 11.5323C277.487 11.6217 277.069 11.6195 276.669 11.6609C276.615 11.6674 276.545 11.6434 276.491 11.626C276.375 11.5868 276.264 11.541 276.152 11.4996C275.95 11.5127 275.743 11.517 275.545 11.5432C275.392 11.5628 275.276 11.5606 275.164 11.5083C275.061 11.4604 274.95 11.4015 274.826 11.3862C274.702 11.371 274.557 11.4037 274.421 11.4168C274.284 11.4298 274.127 11.4233 274.02 11.4582C273.912 11.493 273.846 11.5693 273.776 11.6304C273.697 11.6979 273.59 11.7198 273.433 11.7263C273.288 11.7328 273.173 11.7241 273.065 11.6631C273.02 11.6369 272.958 11.6173 272.896 11.5999C272.838 11.5846 272.772 11.5606 272.718 11.565C272.102 11.6151 271.491 11.6696 270.875 11.7219C270.569 11.7481 270.573 11.7481 269.937 11.6195C269.879 11.6086 269.809 11.5933 269.751 11.5977C269.408 11.6238 269.069 11.6544 268.726 11.6849C268.379 11.7154 268.383 11.711 267.792 11.5737C267.685 11.5475 267.528 11.5824 267.4 11.5781C267.131 11.5672 266.999 11.3841 266.685 11.4189C266.416 11.4495 266.135 11.456 265.866 11.4952C265.623 11.5301 265.482 11.4538 265.317 11.395C265.259 11.3754 265.197 11.3318 265.147 11.3361C264.532 11.3841 263.92 11.4386 263.102 11.4451C262.899 11.4451 262.99 11.4909 263.123 11.5061C263.313 11.5301 263.375 11.4843 263.271 11.3972C263.197 11.3361 263.09 11.3056 263.003 11.3208C262.957 11.3296 262.899 11.371 263.102 11.4451C263.317 11.5279 263.304 11.5737 263.342 11.5999C263.433 11.6631 263.561 11.6892 263.693 11.6805C263.9 11.6652 264.102 11.6435 264.309 11.6304C264.366 11.626 264.437 11.6413 264.49 11.6587C264.945 11.7939 264.949 11.8026 265.433 11.7503C265.586 11.735 265.697 11.735 265.817 11.7764C265.982 11.8331 266.102 11.929 266.354 11.8985C266.689 11.8571 267.032 11.8331 267.375 11.8091C267.429 11.8048 267.486 11.844 267.548 11.8614C267.718 11.9138 267.842 12.0118 268.094 11.9704C268.288 11.9377 268.499 11.929 268.705 11.9225C268.759 11.9203 268.842 11.9552 268.867 11.9835C268.916 12.0336 268.854 12.0925 268.714 12.1339C268.656 12.1513 268.577 12.147 268.511 12.1535C268.239 12.1775 267.966 12.2036 267.693 12.2233C267.548 12.2342 267.412 12.2669 267.396 12.3475C267.383 12.402 267.532 12.45 267.672 12.4456C267.879 12.4391 268.086 12.4216 268.284 12.3933C268.635 12.3453 268.941 12.3584 269.226 12.4957C269.429 12.5916 269.416 12.5568 269.631 12.8401C269.685 12.9121 269.846 12.9186 269.987 12.9142C270.325 12.9033 270.482 12.9361 270.453 13.0036C270.416 13.0865 270.296 13.1126 270.144 13.1235C269.871 13.1409 269.598 13.1693 269.325 13.1933C269.259 13.1998 269.185 13.2129 269.123 13.2085C269.061 13.2042 269.003 13.178 268.949 13.1584C268.834 13.117 268.734 13.0537 268.61 13.0385C268.486 13.0232 268.342 13.0559 268.205 13.069C268.069 13.0799 267.924 13.1126 267.801 13.0973C267.677 13.0821 267.573 13.0167 267.462 12.9775C267.408 12.9579 267.342 12.9273 267.288 12.9295C267.015 12.9469 266.743 12.9753 266.47 12.9971C266.135 13.0254 266.135 13.0254 265.73 12.8903C265.614 12.851 265.495 12.8532 265.342 12.8707C265.011 12.9055 265.007 12.899 264.404 12.7726C264.346 12.7595 264.275 12.7442 264.218 12.7508C263.602 12.8009 262.99 12.8554 262.379 12.9077C261.854 12.9535 261.854 12.9535 261.565 13.1715C261.35 13.3328 261.346 13.3328 261.556 13.4069C261.726 13.4679 261.879 13.5573 262.065 13.59C262.238 13.6205 262.453 13.5224 262.643 13.6227C262.738 13.6728 262.862 13.7273 262.982 13.736C263.172 13.7469 263.375 13.6837 263.557 13.7796C263.647 13.8276 263.784 13.8777 263.9 13.8799C264.102 13.8842 264.309 13.8494 264.511 13.8341C264.573 13.8297 264.643 13.8297 264.701 13.8406C264.763 13.8537 264.817 13.8799 264.871 13.9017C265.036 13.9758 265.214 14.0107 265.428 13.9736C265.78 13.9126 266.094 13.9431 266.367 14.0826C266.404 14.1022 266.495 14.1044 266.553 14.0957C266.701 14.0739 266.829 14.0717 266.941 14.1131C266.986 14.1305 267.052 14.1611 267.044 14.1807C267.032 14.2134 266.982 14.257 266.929 14.2679C266.54 14.342 266.123 14.3507 265.722 14.3899C265.668 14.3943 265.602 14.3659 265.548 14.3463C265.433 14.3071 265.333 14.2417 265.209 14.2265C265.086 14.2112 264.941 14.2395 264.805 14.2504C264.668 14.2613 264.523 14.294 264.4 14.281C264.276 14.2657 264.16 14.2112 264.061 14.1632C263.945 14.1087 263.833 14.1022 263.681 14.124C263.482 14.1524 263.276 14.1567 263.073 14.172C262.961 14.1306 262.85 14.0848 262.734 14.0455C262.68 14.0259 262.614 14.0019 262.557 14.0041C262.284 14.0216 262.011 14.0477 261.738 14.0717C261.465 14.0957 261.466 14.0957 261.003 13.9605C260.949 13.9453 260.879 13.9278 260.821 13.9322C260.478 13.9584 260.139 13.991 259.796 14.0172C259.664 14.0281 259.544 13.9976 259.437 13.9387C259.333 13.8799 259.209 13.8472 259.081 13.8581C258.536 13.9038 257.99 13.9474 257.445 14.0019C257.226 14.0237 257.04 14.0041 256.891 13.9257C256.717 13.8363 256.523 13.8581 256.321 13.8755C255.862 13.9191 255.858 13.9169 255.564 13.8058C255.507 13.784 255.449 13.7425 255.395 13.7447C254.92 13.7774 254.44 13.8079 253.969 13.8603C253.721 13.8886 253.589 13.8123 253.424 13.7556C253.366 13.736 253.304 13.6946 253.254 13.699C252.911 13.7229 252.568 13.7447 252.234 13.7883C251.899 13.8319 251.771 13.6292 251.519 13.6314C251.176 13.6336 250.837 13.6837 250.498 13.7142C250.225 13.7382 249.953 13.7622 249.68 13.7861C249.407 13.8101 249.134 13.8297 248.862 13.8581C248.717 13.8733 248.61 13.8537 248.49 13.7992C248.337 13.7273 248.155 13.6706 247.99 13.6052C247.738 13.5115 247.738 13.5115 247.432 13.5377C247.366 13.5442 247.296 13.5485 247.229 13.5551C246.729 13.603 246.729 13.5987 246.093 13.4614C246.064 13.4548 245.99 13.4788 245.961 13.4963C245.874 13.5529 245.795 13.6139 245.717 13.6728C245.605 13.6379 245.469 13.6183 245.395 13.5682C245.184 13.4265 244.853 13.6205 244.638 13.481C244.56 13.4287 244.423 13.3829 244.299 13.3698C244.171 13.3567 244.027 13.3872 243.895 13.4003C243.552 13.433 243.551 13.4309 243.258 13.6248C243.109 13.7208 242.895 13.7033 242.7 13.7251C242.498 13.7491 242.304 13.7622 242.134 13.6728C241.981 13.5921 241.795 13.5725 241.576 13.5987C241.308 13.6314 241.031 13.651 240.758 13.6706C240.7 13.675 240.63 13.6641 240.572 13.651C239.94 13.5224 239.94 13.5202 239.634 13.5486C239.498 13.5616 239.357 13.566 239.225 13.5856C239.002 13.6205 238.832 13.5747 238.671 13.505C238.617 13.4832 238.555 13.4418 238.502 13.4439C238.229 13.4548 237.96 13.4745 237.692 13.4941C237.485 13.5093 237.279 13.518 237.08 13.5486C236.75 13.5987 236.588 13.457 236.361 13.3916C236.022 13.4199 235.679 13.4396 235.34 13.4788C235.183 13.4962 235.08 13.4897 234.96 13.4374C234.807 13.372 234.667 13.2979 234.419 13.3306C234.088 13.3742 233.741 13.3894 233.402 13.4156C233.175 13.348 233.01 13.2107 232.683 13.2608C232.485 13.2913 232.274 13.2979 232.072 13.3153C231.799 13.3393 231.526 13.3611 231.254 13.3873C230.96 13.4134 230.964 13.4069 230.514 13.2783C230.253 13.202 229.985 13.287 229.72 13.3001C229.514 13.311 229.41 13.4112 229.46 13.5398C229.51 13.6684 229.398 13.7687 229.208 13.7861C228.733 13.8276 228.253 13.8711 227.778 13.9082C227.72 13.9126 227.65 13.8973 227.596 13.882C227.088 13.7447 227.088 13.7469 226.861 13.7665C226.522 13.7992 226.175 13.8167 225.84 13.8581C225.609 13.8864 225.439 13.8406 225.29 13.7665C225.175 13.7099 225.067 13.6968 224.919 13.7099C223.282 13.8559 221.646 13.991 220.013 14.1414C219.77 14.1632 219.629 14.1 219.464 14.0412C219.406 14.0216 219.352 13.9801 219.294 13.9801C219.158 13.9801 219.022 13.9998 218.885 14.0129C218.274 14.0652 217.662 14.1284 217.046 14.1676C216.786 14.185 216.716 14.2853 216.604 14.3682C216.517 14.4314 216.418 14.4575 216.265 14.4662C216.117 14.4749 216.009 14.464 215.893 14.4074C215.745 14.3333 215.575 14.2875 215.344 14.318C215.075 14.3529 214.802 14.3681 214.525 14.3921C214.385 14.403 214.278 14.4423 214.232 14.5207C214.224 14.5338 214.311 14.5665 214.36 14.5861C214.526 14.6515 214.683 14.7278 214.868 14.7736C215.059 14.8194 215.265 14.767 215.464 14.7539C215.534 14.7496 215.6 14.7365 215.666 14.7387C215.728 14.7409 215.802 14.7518 215.848 14.7714C216.063 14.8695 216.29 14.9371 216.588 14.8782C216.844 14.9065 216.976 15.0875 217.303 15.0395C217.501 15.0112 217.708 14.9981 217.914 14.9872C217.968 14.985 218.026 15.0242 218.084 15.0439C218.249 15.0984 218.381 15.1855 218.629 15.1485C218.893 15.1093 219.174 15.1027 219.443 15.0722C219.592 15.0548 219.699 15.07 219.815 15.1267C219.964 15.1986 220.133 15.2531 220.365 15.2182C220.563 15.1877 220.774 15.1812 220.976 15.1616C221.241 15.1376 221.241 15.1398 221.712 15.2749C221.766 15.2902 221.836 15.3076 221.894 15.3032C222.237 15.2771 222.575 15.2444 222.918 15.2182C223.051 15.2073 223.179 15.2357 223.27 15.2989C223.307 15.325 223.294 15.3687 223.307 15.4057C222.625 15.4646 221.943 15.5147 221.265 15.5866C221.009 15.615 220.894 15.5256 220.724 15.4755C220.666 15.458 220.604 15.421 220.551 15.4253C220.071 15.4624 219.596 15.5016 219.121 15.5496C218.972 15.5648 218.86 15.5561 218.749 15.4929C218.464 15.325 218.117 15.4166 217.794 15.4406C217.546 15.458 217.468 15.5256 217.497 15.6695C217.534 15.8395 217.683 15.8918 218.063 15.8613C218.199 15.8504 218.336 15.8351 218.472 15.8264C218.604 15.8177 218.724 15.846 218.832 15.9049C218.935 15.9637 219.059 15.9942 219.187 15.9855C219.46 15.9659 219.736 15.9463 220.001 15.9136C220.22 15.8874 220.402 15.9092 220.555 15.9899C220.724 16.0792 220.923 16.0596 221.121 16.04C221.584 15.9964 221.588 15.9986 221.877 16.1076C221.935 16.1294 221.993 16.1708 222.047 16.1686C222.522 16.1359 223.001 16.1076 223.468 16.0553C223.712 16.0291 223.852 16.0989 224.014 16.1555C224.071 16.1751 224.129 16.2188 224.183 16.2144C224.526 16.1904 224.869 16.1664 225.204 16.125C225.361 16.1054 225.456 16.1185 225.584 16.1708C225.89 16.2994 225.898 16.295 226.332 16.2536C226.464 16.2405 226.609 16.2166 226.733 16.234C226.857 16.2514 226.956 16.3147 227.072 16.3539C227.125 16.3713 227.191 16.3953 227.249 16.3909C227.522 16.3735 227.795 16.3474 228.067 16.3234C228.324 16.2994 228.324 16.3016 228.803 16.4367C228.997 16.4934 229.2 16.4454 229.394 16.428C229.605 16.4084 229.795 16.4084 229.956 16.4934C230.117 16.5784 230.311 16.574 230.518 16.5566C230.712 16.5392 230.911 16.4912 231.109 16.5501C231.563 16.6852 231.563 16.6874 231.844 16.6612C232.254 16.6242 232.659 16.5893 233.072 16.5566C233.125 16.5522 233.196 16.5784 233.249 16.5958C233.365 16.6351 233.464 16.7005 233.588 16.7157C233.712 16.7332 233.857 16.707 233.989 16.6939C234.415 16.6525 234.444 16.6373 234.729 16.7811C234.969 16.8988 235.266 16.7288 235.489 16.864C235.617 16.9402 235.791 17.0013 236.031 16.9642C236.229 16.9337 236.435 16.925 236.642 16.9075C236.969 16.8792 236.969 16.8814 237.382 17.0122C237.436 17.0296 237.506 17.0514 237.559 17.047C237.832 17.0296 238.109 17.0144 238.374 16.9751C238.684 16.9293 238.882 17.0122 239.113 17.0928C239.295 17.156 239.51 17.1037 239.704 17.0819C239.915 17.0601 240.105 17.0667 240.262 17.1517C240.427 17.2389 240.622 17.228 240.828 17.2105C241.023 17.1953 241.221 17.1451 241.419 17.2062C241.845 17.3413 241.845 17.3413 242.155 17.3151C242.428 17.2912 242.7 17.265 242.973 17.2476C243.027 17.2432 243.093 17.2716 243.147 17.2912C243.262 17.3304 243.361 17.3958 243.485 17.4111C243.609 17.4263 243.754 17.398 243.89 17.3871C244.027 17.3762 244.171 17.3435 244.295 17.3566C244.419 17.3697 244.535 17.4242 244.634 17.4721C244.75 17.5288 244.857 17.5353 245.014 17.5135C245.213 17.4852 245.419 17.4786 245.622 17.4634C245.733 17.5048 245.849 17.5462 245.957 17.592C246.068 17.6399 246.188 17.6356 246.341 17.6203C246.849 17.568 246.853 17.5746 247.279 17.7097C247.473 17.7707 247.676 17.7206 247.87 17.7053C248.077 17.6879 248.271 17.6792 248.432 17.7664C248.589 17.8492 248.783 17.8601 248.99 17.8339C249.122 17.8165 249.263 17.8056 249.399 17.7991C249.461 17.7969 249.535 17.8056 249.581 17.823C249.8 17.9146 250.015 17.9974 250.316 17.9386C250.581 17.956 250.713 18.1348 251.031 18.0999C251.3 18.0694 251.581 18.0628 251.845 18.0236C252.089 17.9887 252.263 18.0497 252.387 18.126C252.61 18.2612 252.924 18.0781 253.147 18.211C253.275 18.2873 253.44 18.3484 253.688 18.3157C253.961 18.2808 254.048 18.3266 254.126 18.4639C254.172 18.5423 254.164 18.6056 254.081 18.6666C253.998 18.7298 253.907 18.7189 253.775 18.647C253.622 18.5663 253.44 18.5511 253.221 18.5685C253.006 18.5859 252.874 18.4726 252.697 18.429C252.519 18.3832 252.308 18.4595 252.122 18.4007C251.684 18.2634 251.684 18.2634 251.387 18.2895C251.184 18.307 250.973 18.3157 250.775 18.3462C250.539 18.3832 250.387 18.3157 250.225 18.2546C250.168 18.2328 250.11 18.1914 250.06 18.1936C249.585 18.2263 249.105 18.2568 248.634 18.3113C248.386 18.3396 248.254 18.2612 248.089 18.2067C248.031 18.1871 247.969 18.1478 247.919 18.1522C247.51 18.1827 247.105 18.2219 246.696 18.259C246.618 18.3178 246.531 18.3745 246.457 18.4377C246.378 18.5031 246.271 18.5315 246.114 18.5293C245.853 18.5293 245.597 18.6208 245.337 18.5053C245.068 18.3876 245.048 18.3941 244.787 18.4225C244.457 18.4595 244.105 18.4508 243.795 18.5358C243.742 18.5511 243.684 18.5925 243.684 18.623C243.68 18.6426 243.766 18.671 243.82 18.6884C244.002 18.7407 244.213 18.6644 244.395 18.7189C244.514 18.7538 244.614 18.8061 244.733 18.8432C244.783 18.8584 244.857 18.8562 244.923 18.8541C244.994 18.8519 245.06 18.8366 245.126 18.8388C245.188 18.841 245.254 18.8541 245.304 18.8737C245.531 18.9565 245.771 19.0328 245.973 19.1309C246.171 19.2268 246.357 19.1614 246.556 19.1571C247.349 19.3096 247.349 19.3118 247.882 19.2639C248.015 19.253 248.151 19.2399 248.287 19.2421C248.345 19.2421 248.399 19.2813 248.457 19.3031C248.622 19.3685 248.779 19.4273 249.01 19.3925C249.209 19.3619 249.42 19.3554 249.622 19.3358C249.895 19.3118 249.895 19.3118 250.358 19.4491C250.473 19.484 250.597 19.4797 250.746 19.4622C250.874 19.447 251.006 19.4797 251.097 19.5429C251.134 19.569 251.122 19.6126 251.134 19.6497C250.725 19.6846 250.312 19.7085 249.915 19.7608C249.659 19.7935 249.544 19.6998 249.374 19.6497C249.316 19.6322 249.254 19.5952 249.201 19.5995C248.796 19.6322 248.391 19.6693 247.986 19.7129C247.936 19.7172 247.874 19.7674 247.87 19.7979C247.862 19.8546 247.965 19.909 248.114 19.9069C248.312 19.9047 248.506 19.8676 248.684 19.957C248.833 20.0355 249.019 20.0704 249.238 20.0355C249.37 20.0159 249.51 20.0159 249.643 19.9984C249.994 19.9461 250.312 19.957 250.577 20.1052C250.779 20.1445 250.977 20.1074 251.172 20.0878C251.316 20.0725 251.457 20.0573 251.56 20.0987C251.779 20.1859 251.994 20.2731 252.296 20.2142C252.622 20.2753 252.87 20.4039 253.143 20.5085C253.271 20.5586 253.37 20.587 253.519 20.5543C253.581 20.5412 253.655 20.5412 253.721 20.5346C253.858 20.5237 254.002 20.491 254.126 20.5041C254.25 20.5194 254.354 20.5826 254.465 20.6218C254.519 20.6415 254.581 20.6741 254.635 20.672C254.841 20.6611 255.044 20.6393 255.246 20.6218C255.449 20.6066 255.651 20.5913 255.854 20.5761C256.023 20.6327 256.197 20.6894 256.366 20.7461C256.639 20.7221 256.912 20.6981 257.18 20.6763C257.482 20.6502 257.482 20.6524 257.916 20.7875C258.11 20.8485 258.317 20.8093 258.503 20.781C258.813 20.7352 259.019 20.818 259.238 20.9052C259.284 20.9227 259.366 20.9335 259.42 20.9248C259.635 20.8943 259.821 20.9183 259.978 20.9989C260.089 21.0556 260.201 21.0818 260.337 21.0709C260.813 21.0295 261.288 20.9859 261.763 20.9488C261.821 20.9444 261.887 20.9641 261.941 20.9815C262.362 21.1145 262.366 21.121 262.676 21.0861C262.953 21.0556 263.209 21.0425 263.428 21.1624C263.474 21.1886 263.544 21.2256 263.594 21.2234C263.932 21.2017 264.276 21.1777 264.61 21.1406C264.763 21.1232 264.871 21.1297 264.99 21.1799C265.143 21.2431 265.28 21.3194 265.532 21.291C266.23 21.2104 266.234 21.2234 267.061 21.3738C267.119 21.3847 267.197 21.3673 267.263 21.3586C267.404 21.3368 267.507 21.3673 267.631 21.4174C267.908 21.5308 267.916 21.5243 268.181 21.5003C268.383 21.4807 268.594 21.4763 268.792 21.4436C269.098 21.3956 269.301 21.4807 269.528 21.5613C269.71 21.6245 269.92 21.5722 270.115 21.5526C270.325 21.5308 270.515 21.5373 270.673 21.6201C270.78 21.6768 270.896 21.7074 271.032 21.6965C271.507 21.6572 271.983 21.6136 272.458 21.5744C272.516 21.57 272.586 21.5875 272.64 21.6027C273.111 21.7379 273.111 21.7444 273.578 21.6943C273.726 21.679 273.85 21.6747 273.962 21.7204C274.069 21.764 274.185 21.8054 274.297 21.8469C274.499 21.8316 274.706 21.8272 274.904 21.8011C275.057 21.7815 275.164 21.7902 275.284 21.836C275.441 21.8948 275.574 21.9972 275.821 21.9471C275.95 21.9231 276.098 21.9297 276.226 21.9079C276.379 21.8796 276.483 21.897 276.603 21.9537C276.751 22.0212 276.904 22.091 277.144 22.0561C277.408 22.0169 277.689 22.0103 277.958 21.9798C278.107 21.9624 278.21 21.9798 278.33 22.0365C278.479 22.1084 278.648 22.1542 278.88 22.1259C279.351 22.0714 279.355 22.0823 279.813 22.2196C279.929 22.2545 280.053 22.2501 280.202 22.2327C280.33 22.2174 280.462 22.2501 280.553 22.3133C280.64 22.3831 280.632 22.4267 280.64 22.4637ZM243.816 2.80458C243.68 2.81547 243.543 2.82855 243.345 2.63891C243.332 2.60622 243.341 2.56699 243.312 2.53865C243.246 2.4798 243.142 2.43839 243.018 2.43185C242.795 2.42313 242.527 2.49723 242.531 2.5539C242.535 2.60185 242.605 2.64326 242.742 2.6825C242.799 2.69775 242.845 2.72392 242.899 2.74135C243.056 2.79149 243.18 2.88959 243.407 2.83946C243.366 2.70431 243.386 2.77189 243.407 2.83946C243.386 2.92229 243.448 2.98114 243.597 3.00512C243.638 3.01166 243.7 3.00729 243.733 2.99421C243.861 2.94626 243.882 2.88088 243.787 2.70868C243.771 2.73702 243.783 2.78713 243.82 2.80021C243.857 2.81329 243.948 2.80241 243.994 2.78715C244.109 2.74573 244.167 2.69123 244.138 2.64546C244.122 2.62148 244.043 2.59096 243.994 2.59096C243.907 2.59096 243.828 2.63891 243.816 2.80458ZM277.231 28.0831C276.929 28.1245 276.582 28.1093 276.28 28.1943C276.226 28.2095 276.173 28.2488 276.169 28.2793C276.164 28.2989 276.247 28.3273 276.297 28.3425C276.408 28.3774 276.532 28.3665 276.677 28.3556C276.896 28.3403 277.024 28.4406 277.193 28.4907C277.247 28.506 277.317 28.5169 277.375 28.5125C277.71 28.4864 278.041 28.458 278.375 28.4275C278.433 28.421 278.495 28.4057 278.545 28.3861C278.71 28.3229 278.694 28.2815 278.532 28.2335C278.355 28.1812 278.214 28.094 278.032 28.0526C277.772 27.9937 277.507 28.0722 277.231 28.0831ZM253.763 29.6743C253.56 29.6918 253.362 29.7092 253.159 29.7266C253.093 29.7332 253.023 29.7354 252.961 29.7441C252.833 29.7593 252.738 29.8051 252.676 29.877C252.771 29.9337 252.887 29.9664 253.015 29.9599C253.217 29.9468 253.416 29.9185 253.618 29.9119C253.837 29.9032 253.965 30.0013 254.135 30.0514C254.188 30.0667 254.254 30.0689 254.316 30.071C254.622 30.0798 254.808 29.9664 254.75 29.8073C254.709 29.6831 254.552 29.6089 254.362 29.6242C254.164 29.6395 253.961 29.6569 253.763 29.6743ZM278.644 24.8614C278.694 24.8244 278.747 24.7982 278.772 24.7655C278.846 24.6544 278.817 24.5715 278.681 24.4843C278.516 24.3775 278.313 24.4495 278.127 24.4604C278.082 24.4625 278.032 24.5083 278.008 24.5367C277.991 24.5563 277.991 24.5977 278.016 24.6086C278.218 24.6958 278.433 24.7764 278.644 24.8614ZM242.795 18.4225C242.597 18.4399 242.395 18.453 242.196 18.477C242.147 18.4835 242.101 18.5249 242.072 18.5533C242.018 18.6056 242.076 18.6775 242.246 18.684C242.44 18.6928 242.642 18.6557 242.845 18.6383C243.101 18.6165 243.254 18.5358 243.159 18.4661C243.068 18.3985 242.944 18.3854 242.795 18.4225ZM25.2696 13.7644C25.4019 13.7535 25.5382 13.7447 25.6704 13.7295C25.7944 13.7142 25.8895 13.6663 25.9515 13.5943C25.8482 13.5377 25.7325 13.5071 25.6044 13.5137C25.4019 13.5268 25.2035 13.5442 25.0052 13.566C24.8812 13.5791 24.7614 13.627 24.7325 13.7011C24.7036 13.7578 24.9803 13.7905 25.2696 13.7644ZM225.319 13.4287C225.373 13.4483 225.427 13.4875 225.48 13.4875C225.613 13.4875 225.749 13.4744 225.873 13.4526C225.927 13.4439 225.968 13.4047 225.993 13.3742C226.009 13.3546 226.005 13.3197 225.981 13.3023C225.861 13.1976 225.381 13.2347 225.303 13.3546C225.295 13.3764 225.315 13.4047 225.319 13.4287ZM212.282 1.49236C212.294 1.52724 212.298 1.56211 212.315 1.59699C212.348 1.66238 212.439 1.71034 212.571 1.74304C212.674 1.68855 212.728 1.62752 212.724 1.56213C212.72 1.52725 212.707 1.49236 212.691 1.45748C212.658 1.39209 212.567 1.34415 212.435 1.31145C212.331 1.36377 212.282 1.42479 212.282 1.49236ZM288.194 30.0536C288.157 30.0819 288.119 30.1103 288.078 30.1364C288.19 30.1997 288.293 30.2193 288.372 30.1844C288.421 30.1626 288.45 30.1299 288.487 30.1016C288.376 30.0383 288.277 30.0209 288.194 30.0536ZM285.624 30.3501C285.677 30.3697 285.727 30.3958 285.785 30.4089C285.88 30.4307 285.966 30.3936 286.033 30.3152C285.979 30.2956 285.929 30.2694 285.871 30.2563C285.776 30.2345 285.69 30.2716 285.624 30.3501ZM287.252 29.9512C287.223 30.0035 287.281 30.0471 287.434 30.0841C287.471 30.0558 287.52 30.0296 287.545 29.9991C287.586 29.949 287.516 29.9032 287.367 29.8683C287.326 29.8945 287.289 29.9228 287.252 29.9512ZM278.528 27.6014C278.499 27.6537 278.557 27.6973 278.71 27.7344C278.747 27.706 278.797 27.6799 278.822 27.6493C278.863 27.5992 278.793 27.5534 278.644 27.5186C278.603 27.5447 278.565 27.5731 278.528 27.6014ZM266.643 12.1775C266.606 12.2058 266.569 12.2342 266.528 12.2603C266.639 12.3235 266.743 12.3431 266.821 12.3083C266.871 12.2865 266.9 12.2538 266.937 12.2254C266.825 12.1622 266.726 12.1448 266.643 12.1775ZM255.259 3.99471C255.358 4.00997 255.44 3.97946 255.511 3.89881C255.457 3.8792 255.407 3.85303 255.35 3.83996C255.254 3.81816 255.168 3.85523 255.102 3.9337C255.155 3.95549 255.209 3.97509 255.259 3.99471ZM249.213 3.48247C249.176 3.51081 249.139 3.53915 249.097 3.56531C249.209 3.62852 249.312 3.64813 249.391 3.61325C249.44 3.59146 249.469 3.55876 249.506 3.53042C249.395 3.46721 249.296 3.45196 249.213 3.48247ZM208.215 1.49018C208.178 1.51852 208.141 1.54686 208.1 1.57301C208.211 1.63622 208.315 1.65584 208.393 1.62096C208.443 1.59916 208.472 1.56647 208.509 1.53813C208.397 1.47492 208.298 1.45966 208.215 1.49018ZM4.07863 19.2246C4.02491 19.205 3.97124 19.1854 3.92165 19.1636C3.80181 19.2224 3.76463 19.2769 3.83075 19.3183C3.87207 19.3445 3.93401 19.3598 3.98773 19.3794C4.1117 19.3205 4.14062 19.2682 4.07863 19.2246Z" fill="#FFE492"/>
</svg>
