<svg width="282" height="41" viewBox="0 0 282 41" fill="none" xmlns="http://www.w3.org/2000/svg">
<path d="M264.737 21.6815C264.351 21.7151 263.962 21.7383 263.583 21.7887C263.338 21.8203 263.233 21.7278 263.069 21.6794C263.014 21.6626 262.956 21.6289 262.905 21.6331C262.523 21.6668 262.141 21.7046 261.759 21.7425C261.642 21.8245 261.568 21.9338 261.389 21.9737C261.213 22.0116 261.007 22.0116 260.812 22.0305C260.555 22.0536 260.297 22.0768 260.04 22.0978C259.911 22.1083 259.806 22.1482 259.763 22.2239C259.755 22.2365 259.841 22.268 259.888 22.287C260.044 22.35 260.196 22.4215 260.367 22.4699C260.531 22.5161 260.734 22.4404 260.909 22.4993C261.303 22.6318 261.307 22.6297 261.607 22.6044C261.864 22.5813 262.122 22.5561 262.379 22.5393C262.43 22.5351 262.488 22.5666 262.543 22.5834C262.706 22.6297 262.812 22.7348 263.053 22.6948C263.237 22.6633 263.439 22.657 263.63 22.6402C263.79 22.7011 263.938 22.7705 264.11 22.8189C264.27 22.8651 264.316 22.9009 264.231 22.9618C264.153 23.0186 264.043 23.0417 263.899 23.0459C263.771 23.048 263.642 23.0669 263.513 23.0774C263.447 23.0838 263.385 23.088 263.322 23.0943C263.077 23.1174 263.077 23.1174 262.628 22.9829C262.453 22.9303 262.254 23.0039 262.087 22.9534C261.974 22.9198 261.876 22.8693 261.767 22.8336C261.72 22.8189 261.646 22.8168 261.588 22.821C261.393 22.8357 261.198 22.8462 261.011 22.8735C260.878 22.8925 260.8 22.9513 260.816 23.0102C260.82 23.0333 260.913 23.067 260.968 23.0691C261.092 23.0733 261.225 23.0438 261.346 23.0585C261.463 23.0733 261.584 23.1153 261.669 23.1615C261.845 23.2583 262.044 23.1721 262.211 23.1973C262.387 23.2246 262.531 23.3087 262.699 23.3592C262.741 23.3718 262.823 23.3508 262.89 23.3444C263.081 23.3297 263.272 23.3171 263.463 23.3024C263.623 23.3634 263.794 23.418 263.938 23.4874C264.199 23.6136 264.48 23.6619 264.819 23.6009C265.01 23.5673 265.197 23.5799 265.349 23.6619C265.505 23.746 265.685 23.7376 265.883 23.7208C266.067 23.704 266.254 23.6577 266.441 23.7166C266.846 23.8469 266.85 23.8532 267.33 23.8028C267.474 23.7881 267.583 23.7839 267.692 23.8322C267.794 23.8764 267.903 23.9142 268.008 23.9562C268.199 23.9415 268.394 23.9268 268.585 23.91C268.831 23.8869 268.967 23.9163 269.025 24.034C269.06 24.1055 269.076 24.1707 269.162 24.219C269.263 24.2779 269.372 24.2758 269.52 24.259C269.661 24.2442 269.762 24.2211 269.821 24.1455C269.844 24.1139 269.891 24.0845 269.934 24.0592C269.969 24.0403 270.023 24.0109 270.055 24.0151C270.113 24.0235 270.191 24.0466 270.21 24.074C270.401 24.3283 270.401 24.3305 270.596 24.404C270.811 24.486 271.033 24.5596 271.228 24.6521C271.403 24.7341 271.579 24.6984 271.77 24.6984C271.914 24.6984 272.008 24.753 271.996 24.8077C271.988 24.8392 271.934 24.8855 271.887 24.8897C271.505 24.9317 271.119 24.9674 270.733 24.9969C270.686 25.0011 270.628 24.9632 270.573 24.9443C270.464 24.9065 270.366 24.8476 270.249 24.835C270.133 24.8224 269.996 24.8539 269.867 24.8644C269.739 24.8749 269.602 24.9023 269.485 24.8855C269.368 24.8687 269.275 24.8077 269.166 24.7677C269.115 24.7488 269.045 24.7215 269.002 24.7278C268.717 24.7783 268.507 24.7089 268.304 24.6164C268.261 24.5975 268.187 24.5848 268.133 24.589C267.681 24.6248 267.232 24.6668 266.78 24.7068C266.597 24.7236 266.449 24.65 266.41 24.526C266.39 24.4566 266.351 24.3872 266.351 24.3178C266.351 24.1917 266.137 24.1223 265.981 24.137C265.724 24.1581 265.462 24.1749 265.209 24.2064C265.003 24.2316 264.827 24.2064 264.687 24.1307C264.523 24.0445 264.336 24.0613 264.149 24.0845C264.008 24.1013 263.969 24.1707 263.977 24.3452C263.985 24.486 263.919 24.5302 263.665 24.5533C263.346 24.5827 263.022 24.6122 262.699 24.6353C262.648 24.6395 262.589 24.6038 262.539 24.5848C262.43 24.547 262.332 24.486 262.215 24.4734C262.098 24.4587 261.962 24.4902 261.833 24.5028C261.705 24.5133 261.568 24.5428 261.451 24.5281C261.334 24.5133 261.237 24.4503 261.131 24.4103C261.081 24.3914 261.018 24.3641 260.968 24.3683C260.71 24.3851 260.453 24.4103 260.196 24.4335C259.907 24.4587 259.907 24.4587 259.498 24.3284C259.311 24.2695 259.124 24.3157 258.941 24.3326C258.746 24.3494 258.563 24.3578 258.41 24.2737C258.309 24.219 258.196 24.1854 258.075 24.1959C257.752 24.2211 257.432 24.2527 257.109 24.2779C257.054 24.2821 256.98 24.2716 256.937 24.2527C256.73 24.1644 256.528 24.095 256.239 24.1391C255.99 24.177 255.721 24.1791 255.471 24.2148C255.335 24.2337 255.272 24.301 255.3 24.3536C255.315 24.3809 255.397 24.4125 255.452 24.4125C255.577 24.4146 255.713 24.383 255.83 24.3956C256.072 24.4208 256.192 24.5974 256.508 24.5491C256.695 24.5196 256.89 24.5091 257.085 24.5007C257.136 24.4986 257.19 24.5386 257.245 24.5596C257.401 24.6164 257.537 24.6899 257.763 24.6521C257.951 24.6227 258.149 24.6143 258.34 24.5975C258.644 24.5701 258.644 24.5722 259.038 24.7005C259.225 24.7614 259.412 24.7131 259.596 24.6984C259.732 24.6879 259.861 24.6668 259.97 24.6963C260.137 24.7404 260.258 24.8413 260.465 24.835C260.66 24.8287 260.851 24.7993 261.046 24.7887C261.167 24.7824 261.28 24.8161 261.377 24.8728C261.478 24.9296 261.588 24.9548 261.72 24.9422C261.911 24.9254 262.106 24.9044 262.301 24.8939C262.355 24.8918 262.418 24.9107 262.469 24.9275C262.578 24.9654 262.683 25.0095 262.788 25.0494C262.979 25.0368 263.174 25.0326 263.361 25.0074C263.506 24.9885 263.607 24.9969 263.724 25.0389C263.872 25.0957 263.993 25.1966 264.235 25.1483C264.355 25.1251 264.496 25.1314 264.617 25.1104C264.765 25.0831 264.866 25.0936 264.971 25.1567C265.17 25.2765 265.42 25.2786 265.677 25.2323C265.958 25.1819 266.168 25.2408 266.379 25.3333C266.601 25.43 266.601 25.4279 266.772 25.6612C266.823 25.7285 266.967 25.76 267.088 25.7474C267.291 25.7264 267.466 25.7369 267.614 25.8168C267.77 25.903 267.957 25.8925 268.148 25.8694C268.402 25.8378 268.655 25.8105 268.862 25.9324C268.963 25.9913 269.072 26.006 269.209 25.9913C269.595 25.9534 269.984 25.9303 270.363 25.8841C270.593 25.8547 270.725 25.9219 270.881 25.9787C271.091 26.0565 271.322 26.1258 271.322 26.2919C271.322 26.3193 271.376 26.3508 271.423 26.3718C271.524 26.416 271.633 26.4538 271.739 26.4958C271.895 26.5589 272.047 26.6115 272.261 26.5778C272.448 26.5505 272.647 26.5421 272.838 26.5232C273.029 26.5043 273.204 26.4937 273.376 26.5736C273.575 26.664 273.785 26.7502 274.011 26.8175C274.171 26.8659 274.382 26.7839 274.553 26.849C274.658 26.889 274.76 26.9352 274.873 26.9689C274.92 26.9836 274.994 26.9731 275.056 26.9689C275.185 26.9605 275.317 26.9542 275.442 26.9331C275.586 26.91 275.695 26.9142 275.805 26.9626C275.906 27.0067 276.007 27.0677 276.124 27.0803C276.3 27.0992 276.494 27.0151 276.67 27.1118C276.76 27.1602 276.873 27.2064 276.99 27.2212C277.107 27.2359 277.243 27.2043 277.368 27.2064C277.422 27.2064 277.488 27.2401 277.52 27.2674C277.539 27.2821 277.512 27.3221 277.485 27.3431C277.45 27.3683 277.399 27.402 277.348 27.4062C276.962 27.444 276.576 27.4755 276.19 27.5113C275.96 27.5323 275.96 27.5323 275.497 27.3999C275.387 27.3683 275.267 27.3746 275.13 27.3893C274.947 27.4083 274.76 27.444 274.569 27.4062C274.319 27.2632 274.011 27.2506 273.684 27.3052C273.547 27.3284 273.423 27.3284 273.321 27.2884C273.107 27.2085 272.881 27.135 272.69 27.0404C272.542 26.9668 272.471 26.9605 272.409 27.0614C272.39 27.0929 272.37 27.1265 272.374 27.156C272.397 27.2611 272.44 27.3641 272.464 27.4692C272.471 27.4987 272.44 27.5323 272.421 27.5638C272.358 27.6521 272.277 27.6458 272.14 27.5722C272.004 27.4987 271.84 27.4503 271.622 27.484C271.435 27.5134 271.232 27.5092 271.045 27.5407C270.756 27.587 270.554 27.5197 270.347 27.4293C270.304 27.4104 270.23 27.3999 270.175 27.4041C269.595 27.4524 269.018 27.5071 268.437 27.5554C268.312 27.5659 268.199 27.5344 268.102 27.4776C268 27.4209 267.887 27.3914 267.762 27.402C267.248 27.4461 266.733 27.4861 266.219 27.5407C266.008 27.5638 265.841 27.5365 265.696 27.4629C265.587 27.4083 265.486 27.3914 265.349 27.3978C265.201 27.4041 265.096 27.4251 265.022 27.4861C264.952 27.5449 265.002 27.5806 265.158 27.6269C265.326 27.6774 265.482 27.7425 265.642 27.8014C265.77 27.793 265.899 27.7762 266.024 27.7783C266.078 27.7783 266.129 27.8161 266.184 27.8371C266.34 27.8981 266.484 27.9591 266.706 27.9254C266.893 27.896 267.092 27.8897 267.283 27.8708C267.548 27.8477 267.548 27.8477 267.977 27.9801C268.086 28.0137 268.203 28.0116 268.343 27.9927C268.464 27.978 268.589 28.0074 268.675 28.0705C268.71 28.0957 268.698 28.1378 268.624 28.2765C268.624 28.3796 268.706 28.3333 268.733 28.266C268.776 28.1693 268.694 28.1378 268.538 28.1903C268.429 28.2282 268.374 28.2828 268.402 28.327C268.417 28.3501 268.491 28.3796 268.624 28.2765C268.967 28.1504 269.228 28.1357 269.478 28.102C269.626 28.0831 269.719 28.0915 269.836 28.1462C269.977 28.2113 270.117 28.2807 270.347 28.2471C270.596 28.2093 270.862 28.205 271.115 28.1735C271.349 28.1441 271.47 28.2366 271.618 28.2912C271.797 28.3564 271.996 28.2828 272.16 28.3207C272.331 28.3585 272.452 28.451 272.651 28.4678C272.939 28.4111 273.122 28.5162 273.341 28.5856C273.512 28.6381 273.715 28.5919 273.898 28.5687C274.105 28.5435 274.276 28.5667 274.421 28.6423C274.584 28.7285 274.768 28.7096 274.955 28.6907C275.391 28.6486 275.407 28.6423 275.66 28.758C275.843 28.842 276.019 28.8042 276.202 28.7937C276.362 28.8505 276.518 28.9114 276.685 28.9619C276.728 28.9745 276.81 28.9535 276.876 28.9472C277.068 28.9304 277.262 28.9135 277.453 28.8967C277.582 28.8862 277.719 28.8547 277.835 28.8673C277.952 28.882 278.05 28.943 278.155 28.9829C278.26 29.0229 278.37 29.0628 278.471 29.1048C278.627 29.1679 278.775 29.2205 278.993 29.1889C279.18 29.1616 279.375 29.1532 279.57 29.1343C279.816 29.1112 279.808 29.1175 280.264 29.2436C280.51 29.313 280.763 29.2289 281.012 29.2205C281.137 29.2163 281.258 29.2394 281.344 29.3004C281.379 29.3256 281.367 29.3676 281.379 29.4034C280.736 29.4601 280.089 29.5085 279.453 29.5779C279.208 29.6052 279.079 29.5295 278.947 29.4664C278.728 29.3655 278.44 29.5127 278.233 29.3823C278.108 29.3046 277.929 29.2604 277.715 29.2983C277.59 29.3193 277.457 29.3172 277.329 29.3361C277.001 29.3823 276.701 29.3845 276.44 29.2394C276.35 29.1889 276.222 29.1616 276.128 29.1133C276.019 29.0607 275.914 29.0313 275.785 29.0418C275.204 29.0922 274.627 29.1427 274.05 29.1973C274 29.2015 273.949 29.2331 273.906 29.2562C273.797 29.3151 273.832 29.3613 274.007 29.3992C274.066 29.4118 274.113 29.4391 274.167 29.4601C274.272 29.5001 274.37 29.5632 274.487 29.5779C274.604 29.5926 274.74 29.5632 274.869 29.5526C274.998 29.5421 275.134 29.5106 275.251 29.5232C275.368 29.5379 275.465 29.5989 275.574 29.6367C275.625 29.6557 275.688 29.6872 275.738 29.6851C275.996 29.6725 276.249 29.6493 276.506 29.6304C276.666 29.6872 276.802 29.7692 276.993 29.7881C277.114 29.8007 277.243 29.7776 277.368 29.7818C277.422 29.7839 277.492 29.8154 277.52 29.8428C277.535 29.8596 277.485 29.9016 277.446 29.9227C277.298 30.0025 277.095 29.9878 276.912 30.013C276.713 30.0404 276.533 30.032 276.381 29.95C276.28 29.8953 276.167 29.8659 276.042 29.8764C275.719 29.9037 275.399 29.9353 275.075 29.9584C275.021 29.9626 274.955 29.9437 274.904 29.929C274.495 29.8007 274.495 29.7965 274.206 29.8239C273.781 29.8638 273.781 29.8638 273.497 29.7524C273.442 29.7313 273.384 29.6914 273.337 29.6935C272.885 29.7271 272.436 29.7608 271.988 29.8091C271.84 29.8238 271.739 29.8238 271.629 29.7692C271.536 29.7229 271.427 29.6704 271.31 29.6578C271.189 29.6451 271.056 29.6767 270.928 29.6872C270.799 29.6977 270.663 29.725 270.55 29.7082C270.433 29.6914 270.331 29.6325 270.23 29.5905C270.125 29.5463 270.012 29.5484 269.867 29.5652C269.423 29.6136 269.419 29.6073 268.979 29.477C268.928 29.4622 268.862 29.4454 268.807 29.4496C268.484 29.4749 268.164 29.5064 267.84 29.5316C267.716 29.5421 267.595 29.5148 267.509 29.4538C267.474 29.4286 267.486 29.3865 267.462 29.3046C267.435 29.2856 267.466 29.3193 267.474 29.3508C267.532 29.3466 267.603 29.3508 267.646 29.334C267.755 29.294 267.809 29.2415 267.782 29.1973C267.766 29.1742 267.692 29.1448 267.646 29.1448C267.56 29.1448 267.486 29.191 267.462 29.3046C267.217 29.3739 266.955 29.3887 266.702 29.4223C266.554 29.4433 266.46 29.4328 266.343 29.3782C266.203 29.3109 266.059 29.2457 265.829 29.2793C265.579 29.3172 265.314 29.3235 265.057 29.3529C264.761 29.3866 264.632 29.1973 264.383 29.2015C264.125 29.2057 263.868 29.2415 263.611 29.2667C263.385 29.2878 263.385 29.2877 262.917 29.1511C262.745 29.1006 262.543 29.1742 262.375 29.1217C262.262 29.088 262.165 29.0376 262.055 29.0018C262.009 28.9871 261.935 28.9871 261.876 28.9913C261.553 29.0165 261.225 29.0334 260.913 29.0796C260.558 29.1343 260.29 29.0754 260.036 28.9514C259.716 28.9745 259.393 28.9871 259.077 29.0271C258.847 29.0565 258.715 28.9871 258.559 28.9304C258.504 28.9114 258.457 28.8799 258.399 28.8715C258.34 28.8631 258.27 28.8799 258.208 28.8862C257.951 28.9093 257.685 28.9198 257.436 28.9577C257.128 29.006 257.011 28.8336 256.773 28.8126C256.613 28.9156 256.528 29.0565 256.212 29.067C255.955 29.0754 255.697 29.1091 255.44 29.1322C255.311 29.1427 255.183 29.1553 255.054 29.1658C254.848 29.1847 254.75 29.2667 254.793 29.3929C254.816 29.4622 254.836 29.5316 254.855 29.601C254.894 29.725 254.797 29.8302 254.633 29.8449C254.181 29.8848 253.733 29.9268 253.28 29.9626C253.16 29.9731 253.043 29.9374 252.945 29.8806C252.844 29.8238 252.731 29.7986 252.606 29.8091C252.154 29.8491 251.706 29.8911 251.253 29.9269C251.203 29.9311 251.136 29.91 251.086 29.8932C250.977 29.8554 250.871 29.8112 250.766 29.7713C250.509 29.7902 250.255 29.8028 250.002 29.828C249.593 29.8659 249.593 29.868 249.293 29.7524C249.238 29.7313 249.183 29.6914 249.133 29.6935C248.938 29.7019 248.747 29.7229 248.552 29.7419C247.979 29.7965 247.979 29.7965 247.811 29.7334C247.659 29.6746 247.523 29.6031 247.293 29.6367C247.043 29.6746 246.778 29.6872 246.521 29.7082C246.33 29.7229 246.139 29.7398 245.948 29.744C245.897 29.7461 245.843 29.7061 245.788 29.6851C245.632 29.6199 245.48 29.5674 245.266 29.6031C245.141 29.6241 245.008 29.6283 244.88 29.6388C244.544 29.6683 244.544 29.6683 243.995 29.5421C243.94 29.5295 243.874 29.5148 243.819 29.5211C243.367 29.5589 242.919 29.601 242.467 29.6367C242.412 29.6409 242.346 29.6283 242.291 29.6178C241.675 29.4959 241.675 29.4959 241.02 29.5547C240.771 29.5758 240.763 29.5842 240.502 29.4728C240.385 29.4244 240.288 29.4013 240.151 29.416C239.637 29.4664 239.118 29.5001 238.607 29.559C238.378 29.5842 238.245 29.5211 238.089 29.4643C238.034 29.4454 237.976 29.4034 237.929 29.4055C237.415 29.4454 236.9 29.4938 236.385 29.5337C236.339 29.5379 236.28 29.4959 236.226 29.477C236.12 29.4391 236.019 29.3824 235.902 29.3697C235.781 29.3571 235.649 29.3887 235.516 29.3992C235.193 29.4265 235.193 29.4244 234.818 29.3004C234.768 29.2836 234.701 29.2604 234.651 29.2646C234.136 29.3067 233.618 29.3424 233.107 29.4034C232.815 29.437 232.616 29.376 232.409 29.2877C232.366 29.2688 232.292 29.2604 232.238 29.2646C231.657 29.313 231.08 29.3676 230.499 29.416C230.378 29.4265 230.261 29.3908 230.164 29.3361C230.008 29.2499 229.825 29.2604 229.63 29.2793C229.182 29.3235 229.178 29.3214 228.913 29.2205C228.858 29.1995 228.811 29.1721 228.753 29.1616C228.698 29.1511 228.628 29.1574 228.57 29.1616C228.312 29.1826 228.055 29.2057 227.798 29.2289C227.54 29.252 227.279 29.2646 227.026 29.3004C226.714 29.3445 226.566 29.2078 226.347 29.1448C226.028 29.1721 225.7 29.1889 225.385 29.2331C225.143 29.2667 225.03 29.1742 224.87 29.1259C224.816 29.109 224.757 29.0733 224.706 29.0775C224.125 29.1238 223.545 29.1742 222.968 29.231C222.827 29.2436 222.734 29.2268 222.617 29.1763C222.356 29.0628 222.344 29.067 221.907 29.1091C221.716 29.128 221.533 29.1448 221.369 29.0586C221.225 28.9808 221.05 28.9619 220.843 28.9871C220.59 29.0186 220.329 29.0355 220.071 29.0565C219.814 29.0796 219.557 29.1111 219.299 29.1217C219.093 29.1322 218.968 29.0334 218.804 28.9829C218.754 28.9682 218.684 28.9661 218.625 28.9703C218.368 28.9892 218.103 29.0039 217.853 29.0397C217.549 29.0838 217.382 28.9682 217.167 28.9009C217.12 28.8862 217.042 28.8946 216.984 28.9009C216.532 28.9388 216.083 28.9808 215.631 29.0207C215.471 28.964 215.308 28.9093 215.148 28.8526C214.891 28.8736 214.633 28.8967 214.376 28.9177C214.181 28.9346 213.982 28.9409 213.799 28.9724C213.561 29.0144 213.444 28.9156 213.284 28.8673C213.23 28.8505 213.171 28.8147 213.121 28.8189C212.797 28.8421 212.474 28.8673 212.154 28.903C211.85 28.9388 211.729 28.7495 211.48 28.7516C211.222 28.7537 210.957 28.7811 210.708 28.8189C210.419 28.8631 210.217 28.7958 210.01 28.7054C209.967 28.6865 209.893 28.676 209.838 28.6802C209.515 28.7054 209.195 28.7369 208.872 28.7622C208.817 28.7664 208.751 28.7559 208.696 28.7432C208.08 28.6192 208.08 28.6171 207.811 28.6423C207.62 28.6592 207.425 28.6802 207.231 28.6907C207.176 28.6949 207.11 28.676 207.059 28.6592C206.654 28.5309 206.654 28.5288 206.361 28.554C206.104 28.5772 205.847 28.6003 205.589 28.6234C205.429 28.5666 205.266 28.512 205.106 28.4552C204.786 28.4826 204.459 28.5036 204.143 28.5414C203.995 28.5582 203.898 28.5519 203.784 28.4994C203.644 28.4363 203.504 28.3627 203.27 28.3985C203.02 28.4363 202.755 28.4405 202.502 28.472C202.198 28.5099 202.073 28.3186 201.828 28.3207C201.57 28.3228 201.305 28.3501 201.056 28.3879C200.767 28.4321 200.565 28.3648 200.358 28.2744C200.315 28.2555 200.241 28.245 200.186 28.2492C199.477 28.3102 198.771 28.3711 198.062 28.4363C197.625 28.4762 197.625 28.4783 196.795 28.3627C196.736 28.3543 196.674 28.3459 196.616 28.3501C196.358 28.369 196.093 28.3837 195.844 28.4195C195.54 28.4636 195.372 28.3501 195.158 28.2807C195.111 28.266 195.037 28.2744 194.974 28.2786C194.779 28.2933 194.588 28.3123 194.394 28.3291C194.136 28.3522 193.879 28.3753 193.622 28.3985C193.462 28.3438 193.298 28.287 193.138 28.2324C192.819 28.2597 192.491 28.2744 192.176 28.3186C191.934 28.3522 191.821 28.2639 191.661 28.2135C191.606 28.1966 191.548 28.1609 191.497 28.163C190.916 28.2093 190.336 28.2576 189.759 28.3165C189.521 28.3417 189.412 28.2471 189.252 28.1987C189.197 28.184 189.135 28.1567 189.084 28.1609C188.698 28.1903 188.312 28.2261 187.926 28.2618C187.708 28.2828 187.708 28.2828 187.233 28.1525C187.178 28.1378 187.116 28.1231 187.061 28.1273C185.837 28.2324 184.617 28.3438 183.393 28.4489C183.268 28.4594 183.155 28.4279 183.058 28.3711C182.956 28.3144 182.843 28.2849 182.718 28.2955C182.204 28.3396 181.685 28.3796 181.175 28.4342C180.964 28.4573 180.797 28.43 180.652 28.3564C180.543 28.3017 180.442 28.2807 180.305 28.2933C180.048 28.3186 179.791 28.3396 179.534 28.3627C179.276 28.3858 179.019 28.409 178.762 28.4321C178.504 28.4552 178.243 28.4678 177.99 28.5036C177.678 28.5477 177.526 28.4174 177.312 28.3522C176.926 28.3838 176.54 28.4153 176.158 28.4489C175.643 28.4931 175.128 28.5414 174.614 28.5835C174.567 28.5877 174.509 28.5498 174.454 28.5309C174.294 28.4784 174.177 28.4048 173.94 28.4279C172.786 28.5393 171.624 28.6339 170.466 28.7432C170.225 28.7664 170.119 28.676 169.956 28.6276C169.901 28.6129 169.839 28.5835 169.788 28.5877C169.145 28.6402 168.502 28.6991 167.858 28.7558C167.597 28.779 167.597 28.779 167.161 28.6486C167.11 28.6339 167.044 28.615 166.989 28.6192C166.151 28.6907 165.317 28.7664 164.478 28.8399C164.354 28.8505 164.241 28.821 164.139 28.7643C164.042 28.7075 163.925 28.676 163.804 28.6865C163.032 28.7538 162.257 28.8189 161.489 28.8925C161.282 28.9135 161.11 28.8946 160.962 28.8189C160.857 28.7643 160.752 28.7411 160.619 28.7537C159.461 28.8568 158.304 28.9556 157.146 29.0649C156.924 29.0859 156.768 29.046 156.627 28.9766C156.514 28.9219 156.417 28.9114 156.277 28.9198C156.128 28.9303 156.039 28.9535 155.957 29.0165C155.852 29.0985 155.785 29.2015 155.536 29.2079C155.279 29.2142 155.017 29.2394 154.764 29.2751C154.522 29.3109 154.409 29.2163 154.257 29.1595C154.144 29.1196 154.039 29.1133 153.895 29.1322C153.762 29.149 153.68 29.1847 153.602 29.252C153.431 29.395 153.415 29.395 153.205 29.3046C153.092 29.2562 152.99 29.2184 152.866 29.2268C152.351 29.2688 151.836 29.3151 151.322 29.3634C151.026 29.3908 151.022 29.395 150.8 29.2899C150.69 29.2373 150.585 29.2121 150.457 29.2247C149.041 29.3508 147.626 29.4728 146.211 29.6052C145.993 29.6262 145.845 29.5821 145.689 29.519C145.638 29.498 145.588 29.4685 145.529 29.4601C145.471 29.4517 145.404 29.4601 145.342 29.4643C144.313 29.5547 143.28 29.6409 142.255 29.7419C142.021 29.765 141.896 29.6977 141.736 29.6431C141.682 29.6241 141.635 29.5947 141.576 29.5863C141.518 29.58 141.448 29.5947 141.385 29.601C140.356 29.6914 139.323 29.7776 138.298 29.8785C138.052 29.9016 137.947 29.8133 137.787 29.7671C137.733 29.7503 137.674 29.7187 137.624 29.7229C137.3 29.746 136.98 29.7776 136.657 29.8049C135.885 29.8743 135.113 29.9395 134.341 30.011C134.045 30.0383 133.916 29.8512 133.667 29.8596C133.343 29.8701 133.024 29.9121 132.7 29.9416C132.443 29.9647 132.185 29.9857 131.928 30.011C131.675 30.0341 131.675 30.0341 131.043 29.9121C130.989 29.9016 130.922 29.8869 130.868 29.8911C129.967 29.9689 129.063 30.0467 128.166 30.1308C127.96 30.1497 127.788 30.1392 127.64 30.0614C127.535 30.0068 127.426 29.9794 127.297 29.992C125.944 30.1119 124.596 30.2317 123.243 30.3494C123.192 30.3536 123.126 30.3326 123.075 30.3158C122.966 30.2779 122.861 30.2338 122.756 30.1939C122.678 30.2422 122.576 30.2864 122.526 30.341C122.455 30.4146 122.362 30.4356 122.214 30.4482C122.066 30.4609 121.972 30.4567 121.855 30.402C121.715 30.3347 121.571 30.2821 121.341 30.3032C119.926 30.4356 118.51 30.5555 117.095 30.6858C116.861 30.7068 116.752 30.6143 116.589 30.566C116.534 30.5512 116.472 30.5281 116.421 30.5323C115.84 30.5807 115.263 30.6332 114.682 30.6837C113.072 30.8267 111.462 30.9633 109.856 31.1147C109.564 31.142 109.365 31.0894 109.159 30.999C109.116 30.9801 109.042 30.9696 108.987 30.9738C106.734 31.1714 104.481 31.3712 102.231 31.5709C102.111 31.5814 101.994 31.5478 101.896 31.4931C101.795 31.4363 101.682 31.409 101.557 31.4195C100.528 31.5099 99.4988 31.6003 98.4696 31.6928C98.2123 31.716 98.2084 31.718 97.9433 31.6171C97.8887 31.5961 97.8303 31.5562 97.7874 31.5604C97.6978 31.5709 97.612 31.6234 97.5496 31.6949C97.4872 31.7706 97.3898 31.7916 97.2455 31.8063C97.0974 31.8211 97 31.8148 96.8869 31.7643C96.7427 31.7012 96.6101 31.6403 96.3762 31.6613C93.4174 31.9304 90.4587 32.189 87.4999 32.456C87.2621 32.477 87.1529 32.3887 86.9892 32.3403C86.9346 32.3256 86.8801 32.3046 86.8216 32.3004C86.7593 32.2962 86.693 32.3088 86.6306 32.3151C81.8046 32.7419 76.9786 33.1708 72.1526 33.5975C71.8641 33.6228 71.868 33.6228 71.5522 33.8162C71.5133 33.8393 71.4625 33.8708 71.408 33.875C69.9305 34.0096 68.4492 34.1399 66.9679 34.2703C66.3247 34.327 65.6815 34.3859 65.0383 34.4406C64.8083 34.4595 64.8083 34.4595 64.2586 34.6865C64.2119 34.7055 64.1572 34.7307 64.1027 34.7349C61.5298 34.9641 58.957 35.1932 56.3802 35.4182C56.1775 35.435 56.0138 35.4728 55.9203 35.5737C55.854 35.6452 55.7682 35.6872 55.6396 35.6999C53.8386 35.8596 52.0377 36.0215 50.2328 36.1771C50.0184 36.196 49.8897 36.2549 49.7844 36.3432C49.7493 36.3726 49.7181 36.4062 49.6675 36.4273C49.6207 36.4462 49.5505 36.4525 49.4921 36.4588C47.9484 36.5955 46.4047 36.7363 44.8571 36.8667C44.6271 36.8856 44.5335 36.9634 44.4204 37.0454C44.3815 37.0727 44.3542 37.1105 44.3035 37.1295C44.2528 37.1463 44.1787 37.1463 44.1164 37.1505C42.8299 37.264 41.5436 37.3796 40.2571 37.4932C40.0077 37.4826 39.9531 37.6046 39.8322 37.6782C39.7893 37.7034 39.7582 37.737 39.7075 37.7538C39.653 37.7707 39.5827 37.7686 39.5164 37.7728C38.4873 37.8632 37.4582 37.9599 36.4251 38.044C36.1874 38.0629 36.1406 38.1701 36.0119 38.2437C35.969 38.2668 35.9262 38.3026 35.8755 38.3089C35.2323 38.3698 34.5891 38.4266 33.9459 38.4812C33.7315 38.5002 33.7315 38.4981 33.3534 38.7062C33.3105 38.7293 33.2598 38.7546 33.2052 38.7609C32.2423 38.8492 31.2756 38.9333 30.3088 39.0195C30.1841 39.03 30.0983 39.0804 30.036 39.1519C29.9736 39.2234 29.884 39.2696 29.7592 39.2801C28.9874 39.3495 28.2154 39.421 27.4436 39.4841C27.2292 39.5009 27.0889 39.5534 26.9953 39.648C26.9252 39.7195 26.8394 39.7553 26.703 39.7679C25.9311 39.8351 25.1593 39.9087 24.3835 39.9676C24.1574 39.9844 24.0404 40.0559 23.9469 40.1442C23.8728 40.2157 23.787 40.2409 23.6428 40.2535C22.2277 40.3755 20.8088 40.4974 19.3977 40.6319C19.1599 40.655 19.039 40.5815 18.8831 40.5289C18.6609 40.4553 18.4543 40.3754 18.4543 40.2115C18.4543 40.1862 18.388 40.1568 18.3412 40.1358C17.9943 39.9781 17.9943 39.9781 17.9397 39.8099C17.9085 39.7069 17.8734 39.6018 17.8462 39.4967C17.7955 39.3243 17.6707 39.2801 17.3121 39.3117C17.1834 39.3222 17.0548 39.3369 16.9261 39.3453C16.7351 39.36 16.5909 39.2906 16.5558 39.1645C16.5363 39.0951 16.513 39.0257 16.4935 38.9564C16.6884 38.9396 16.6844 38.9375 17.0275 38.6831C17.1717 38.5759 17.1718 38.5759 16.895 38.4686C16.7898 38.4287 16.6884 38.3845 16.5753 38.3467C16.5247 38.3299 16.4584 38.3194 16.4038 38.3236C16.0803 38.3488 15.7606 38.3782 15.441 38.4077C14.9264 38.4539 14.9263 38.4539 14.404 38.2395C14.3611 38.2226 14.2948 38.1911 14.3026 38.1743C14.3455 38.0965 14.4507 38.0629 14.5833 38.0545C14.7782 38.0418 14.9692 38.0208 15.1602 38.004C15.2889 37.9935 15.4175 37.9809 15.5461 37.9704C15.667 37.8905 15.7918 37.8127 15.9048 37.7307C16.0842 37.6046 16.0841 37.6004 15.8385 37.5121C15.6826 37.4532 15.515 37.4006 15.3551 37.346C15.1641 37.3628 14.9692 37.3817 14.7782 37.3964C14.5365 37.4154 14.439 37.3754 14.3767 37.2388C14.3221 37.1189 14.3884 37.0159 14.5755 36.9907C14.7665 36.9655 14.9459 36.9487 15.0433 36.8414C15.1369 36.7384 15.3006 36.6985 15.5033 36.6901C15.632 36.6837 15.7606 36.669 15.8892 36.6564C16.0569 36.6396 16.1465 36.5324 16.1115 36.4126C16.092 36.3348 16.053 36.2696 15.9009 36.2528C15.2265 36.1792 15.2187 36.1813 14.8835 36.0383C14.8523 36.0257 14.8289 35.9879 14.8406 35.969C14.8601 35.9374 14.903 35.8912 14.9498 35.8849C15.3981 35.8386 15.8464 35.7966 16.2947 35.765C16.4428 35.7545 16.552 35.7398 16.6026 35.662C16.6728 35.5548 16.6416 35.456 16.5052 35.3824C16.4623 35.3593 16.3921 35.3298 16.3453 35.332C15.8307 35.3698 15.3201 35.4181 14.8055 35.456C14.7587 35.4602 14.673 35.4245 14.6535 35.3971C14.6145 35.3467 14.673 35.2794 14.8094 35.2563C14.9887 35.2247 15.1719 35.2226 15.2928 35.1175C15.4604 34.9682 15.667 34.8316 15.8541 34.6887C15.8853 34.6634 15.936 34.615 15.9244 34.6108C15.8269 34.5646 15.7138 34.5289 15.6125 34.4847C15.441 34.4111 15.4409 34.3081 15.4799 34.2093C15.5111 34.1294 15.628 34.0979 15.7723 34.0979C15.8346 34.0979 15.9126 34.0979 15.9633 34.079C16.0958 34.0327 16.1387 33.9738 16.0724 33.9297C16.0335 33.9045 15.9633 33.8687 15.9166 33.8729C15.0823 33.9423 14.2441 34.0096 13.4138 34.0958C13.1682 34.121 13.0553 34.0411 12.9071 33.9843C12.7941 33.9402 12.6888 33.9234 12.5484 33.9549C12.4159 33.9843 12.2873 33.9675 12.2054 33.8982C12.1391 33.8414 12.2561 33.7931 12.5718 33.7384C12.6303 33.7279 12.6965 33.7216 12.7394 33.7005C13.1916 33.4735 13.1916 33.4714 13.5035 33.442C13.8075 33.4146 13.8076 33.4125 13.9674 33.2906C14.0415 33.2338 14.1233 33.1771 14.1935 33.1182C14.2208 33.0951 14.2676 33.053 14.252 33.0404C14.1662 32.9752 14.0492 32.9605 13.9128 32.9752C13.6087 33.011 13.2502 32.9815 13.0903 33.1813C13.028 33.257 12.9305 33.278 12.7902 33.2906C11.379 33.4125 9.96778 33.5429 8.55272 33.6606C8.32272 33.6795 8.21753 33.7573 8.12787 33.8435C8.04991 33.915 7.96413 33.936 7.81599 33.9486C7.66786 33.9612 7.55086 33.9675 7.46509 33.8982C7.41442 33.8561 7.45731 33.7973 7.57426 33.7384C7.74188 33.6543 7.71068 33.5492 7.6561 33.4504C7.61712 33.3852 7.49628 33.3389 7.36764 33.3432C7.17662 33.3516 6.99346 33.3747 6.83363 33.2906C6.74007 33.2422 6.6231 33.2086 6.51785 33.1665C6.31514 33.0803 6.11242 32.9921 5.82785 33.0488C5.63294 33.0278 5.4965 32.9521 5.34057 32.8933C5.07939 32.7965 5.056 32.7818 5.24312 32.6788C5.45362 32.5632 5.28986 32.4118 5.40681 32.2983C5.53156 32.1763 5.70314 32.0691 5.85517 31.9556C5.89415 31.9262 5.92925 31.8988 5.96823 31.8694C5.87857 31.8274 5.79672 31.7748 5.69147 31.7454C5.55503 31.7075 5.48486 31.6613 5.49266 31.5309C5.46537 31.512 5.47698 31.5604 5.50817 31.573C5.54325 31.5856 5.62908 31.5751 5.67196 31.5604C5.78111 31.5204 5.83563 31.4679 5.80834 31.4237C5.79275 31.4006 5.71874 31.3712 5.67196 31.3712C5.5862 31.3712 5.51214 31.4174 5.48875 31.5309C5.05215 31.6171 4.59988 31.6592 4.14769 31.6928C4.10091 31.697 4.04247 31.655 3.98789 31.634C3.80857 31.5625 3.80855 31.5646 3.28229 31.5435C3.22771 31.5414 3.15369 31.512 3.1264 31.4826C3.01335 31.3544 3.01728 31.2135 2.9627 31.0768C3.06406 30.9885 3.16533 30.9023 3.27058 30.8161C3.48109 30.6417 3.75403 30.4882 3.91775 30.2969C3.88267 30.1939 3.83588 30.0908 4.0074 30.0068C4.49468 29.9016 4.49082 29.9016 4.62336 29.8007C5.00149 29.5148 5.37569 29.2268 5.76942 28.9451C5.87467 28.8715 5.87468 28.8316 5.68757 28.8C5.6291 28.7916 5.56664 28.7895 5.50427 28.7937C5.30936 28.8084 5.11445 28.8463 4.92343 28.8378C4.73242 28.8315 4.59208 28.739 4.43615 28.6823C4.27633 28.6234 4.11651 28.5624 3.95668 28.5015C3.77346 28.5078 3.59028 28.5666 3.40706 28.472C3.26672 28.3985 3.09131 28.3459 2.93149 28.2849C3.05233 28.1252 3.27846 28.0032 3.45388 27.8624C3.61371 27.7341 3.61752 27.7362 4.04633 27.6374C4.24904 27.5912 4.31921 27.3536 4.14769 27.2842C3.94108 27.2001 3.72282 27.1223 3.51232 27.0424C3.3291 27.0488 3.14202 27.1055 2.9666 27.0109C2.83017 26.9395 2.67421 26.8911 2.44811 26.9184C2.06608 26.9647 1.67627 26.9878 1.29034 27.0256C1.1578 27.0382 1.01352 27.0299 0.95505 26.9584C0.916068 26.9079 1.02912 26.8385 1.15777 26.8238C1.35268 26.8028 1.52808 26.7776 1.62554 26.6725C1.71909 26.5673 1.8906 26.5358 2.09331 26.5211C2.14788 26.5169 2.2103 26.4916 2.23759 26.4664C2.37792 26.3445 2.53386 26.2394 2.83403 26.2436C2.95877 26.2015 3.025 26.149 2.98602 26.0985C2.96263 26.0712 2.88081 26.0354 2.83403 26.0397C2.51048 26.0607 2.18693 26.0817 1.87117 26.1195C1.72304 26.1364 1.60993 26.1406 1.51637 26.0775C1.4501 26.0354 1.48518 25.9787 1.60993 25.9177C1.71908 25.8651 1.7503 25.8042 1.7425 25.7327C1.72301 25.5666 1.60604 25.5183 1.23181 25.5288C0.962831 25.5372 0.896558 25.5098 0.838084 25.3669C0.822491 25.3333 0.783577 25.287 0.810865 25.2639C0.978489 25.1209 1.08765 24.9443 1.40341 24.8771C1.52815 24.8518 1.66064 24.8518 1.7386 24.7972C1.81657 24.7425 1.88677 24.6794 1.96863 24.6269C2.06999 24.5638 2.14009 24.505 2.09331 24.465C2.01534 24.3935 1.89064 24.3872 1.7464 24.4125C1.62166 24.4335 1.48912 24.4356 1.36048 24.4482C1.13049 24.4713 0.943413 24.4166 0.916125 24.3241C0.842058 24.0803 0.764071 23.8385 0.6978 23.5946C0.690004 23.5652 0.709442 23.5274 0.740628 23.5021C0.849779 23.4138 0.966772 23.3297 1.07982 23.2435C1.21236 23.1447 1.4229 23.1637 1.60222 23.1447C1.8556 23.1174 1.85552 23.1195 2.19466 22.9177C2.3272 22.8378 2.55721 22.8693 2.69365 22.7978C2.73653 22.7747 2.8028 22.7369 2.79111 22.7159C2.77551 22.6885 2.69759 22.6675 2.63912 22.6549C2.58454 22.6423 2.51829 22.636 2.45981 22.6423C1.75033 22.7032 1.04477 22.7684 0.335291 22.8273C0.214445 22.8378 0.0819011 22.7915 0.0390205 22.7264C-0.00386017 22.6654 0.00779648 22.5918 0 22.5224C0.113049 22.4362 0.241641 22.3563 0.339098 22.2638C0.413164 22.1924 0.498941 22.1608 0.647074 22.1566C0.841986 22.1503 1.03302 22.1251 1.25132 22.1062C1.65674 21.7992 2.05433 21.4776 2.49093 21.1706C2.66636 21.0466 2.62354 20.9205 2.65863 20.788C2.69371 20.6661 2.95488 20.685 3.1303 20.6493C3.27064 20.6198 3.31735 20.5526 3.26278 20.5063C3.23159 20.479 3.16146 20.4474 3.10689 20.4474C2.97825 20.4474 2.84961 20.4664 2.72096 20.4769C2.59232 20.4874 2.4442 20.4811 2.33894 20.5168C2.23759 20.5505 2.17128 20.6219 2.10501 20.6829C2.03095 20.7502 1.93356 20.7733 1.78543 20.7775C1.59441 20.7817 1.40341 20.8006 1.21239 20.8153C1.00189 20.7333 0.783543 20.6535 0.580834 20.5673C0.541852 20.5505 0.534013 20.5021 0.537912 20.4706C0.545708 20.3886 0.48725 20.3381 0.358608 20.2982C0.249457 20.2645 0.15979 20.2162 0.0584356 20.1741C0.1364 20.1174 0.222192 20.0627 0.284564 20.0017C0.421002 19.8735 0.592544 19.781 0.888811 19.7852C1.00576 19.7032 1.09929 19.6023 1.25132 19.5455C1.39556 19.4909 1.64116 19.5455 1.75031 19.4215C1.80488 19.3605 1.88679 19.2911 1.99204 19.2659C2.15967 19.226 2.37797 19.247 2.47542 19.1293C2.5339 19.062 2.61962 19.001 2.73267 18.9842C2.86131 18.9653 2.99382 18.9611 3.08738 18.9212C3.13805 18.9001 3.19264 18.8665 3.19264 18.8371C3.19264 18.8181 3.11473 18.7887 3.06016 18.7761C3.00948 18.7614 2.94313 18.7509 2.88466 18.7551C2.68975 18.7677 2.49874 18.7908 2.30383 18.8034C2.24925 18.8076 2.1869 18.7929 2.12842 18.7803C1.9569 18.7467 1.96857 18.7046 2.10501 18.6289C2.24145 18.5554 2.33896 18.4607 2.45201 18.3745C2.57675 18.3598 2.73266 18.3661 2.81842 18.3262C2.96266 18.261 3.06398 18.1664 3.18093 18.0844C3.30957 18.0718 3.44211 18.0676 3.56295 18.0445C3.61363 18.0361 3.63704 17.9898 3.67992 17.9625C3.75788 17.9099 3.82421 17.8342 3.92946 17.809C4.10098 17.7712 4.31148 17.7859 4.41284 17.6703C4.47131 17.603 4.56094 17.5315 4.67009 17.5273C4.97415 17.5189 5.10279 17.4033 5.25872 17.2939C5.37567 17.2119 5.62517 17.254 5.75381 17.172C5.83957 17.1194 5.90198 17.0543 5.98774 17.0038C6.02283 16.9828 6.09687 16.9723 6.15534 16.966C6.47499 16.9344 6.79854 16.9113 7.11819 16.8777C7.16887 16.8714 7.21569 16.8398 7.25467 16.8146C7.33653 16.76 7.38715 16.6843 7.48851 16.6485C7.58986 16.6128 7.73408 16.6128 7.85882 16.6023C8.26034 16.5707 8.29156 16.5791 8.47477 16.4004C8.62291 16.2554 8.98549 16.3584 9.10633 16.1986C9.1765 16.1061 9.30509 16.0304 9.53508 16.0199C9.85864 16.0052 10.1783 15.9653 10.5018 15.9379C10.7903 15.9127 10.7864 15.9127 11.0983 15.7172C11.2386 15.6289 11.4453 15.6415 11.6285 15.6247C11.8234 15.6079 12.0027 15.5827 12.0963 15.4775C12.1898 15.3745 12.3613 15.3409 12.5601 15.3262C12.7433 15.3114 12.95 15.322 13.0942 15.2379C13.4451 15.036 13.4412 15.0339 13.6868 15.0129C14.0727 14.9793 14.4586 14.9456 14.8445 14.9099C15.1018 14.8868 15.3708 14.8826 15.6125 14.8363C15.7879 14.8027 15.8658 14.685 15.9789 14.603C16.2985 14.5714 16.6182 14.5399 16.9378 14.5104C17.3861 14.4684 17.8383 14.4306 18.2905 14.3906C18.4854 14.3107 18.5128 14.1341 18.8402 14.1257C19.0351 14.1215 19.2262 14.0942 19.4211 14.0774C19.7446 14.0479 20.0643 14.0101 20.3878 13.9954C20.6334 13.9849 20.6762 13.8713 20.8049 13.7999C20.8477 13.7746 20.8868 13.7389 20.9374 13.7326C21.4442 13.6737 21.9665 13.6611 22.4616 13.5749C22.5123 13.5665 22.5591 13.5224 22.5708 13.4908C22.5786 13.474 22.5123 13.4425 22.4694 13.4278C22.4187 13.4109 22.3525 13.3941 22.2979 13.3983C20.6879 13.5392 19.078 13.6821 17.468 13.823C17.2419 13.844 17.2419 13.8419 16.6923 14.0732C16.6455 14.0921 16.5909 14.1131 16.5324 14.1194C16.2751 14.1446 16.014 14.1594 15.7606 14.1909C15.554 14.2161 15.3825 14.1909 15.2344 14.1152C15.1291 14.0605 15.0199 14.0437 14.8874 14.0479C14.7392 14.0542 14.6418 14.0774 14.5561 14.1341C14.443 14.2119 14.3845 14.3128 14.1467 14.3339C13.0513 14.4243 11.9559 14.5252 10.8643 14.6219C10.7123 14.5924 10.6383 14.5483 10.6772 14.4957C10.7006 14.4642 10.7474 14.4222 10.7942 14.418C11.2425 14.3738 11.6947 14.336 12.143 14.2939C12.2054 14.2876 12.2911 14.2918 12.3262 14.2708C12.4977 14.1762 12.5602 14.0227 12.8837 14.0122C13.0708 14.0059 13.2618 13.9744 13.4411 13.9449C13.4918 13.9365 13.5386 13.8924 13.5503 13.8608C13.5542 13.844 13.4918 13.8125 13.445 13.7978C13.2735 13.7368 13.0747 13.8104 12.9032 13.7683C12.8447 13.7536 12.7628 13.7326 12.7511 13.7074C12.7433 13.6842 12.8096 13.6464 12.8564 13.6233C12.8993 13.6022 12.9577 13.5833 13.0162 13.577C13.5308 13.5287 14.0454 13.4782 14.56 13.4404C14.7705 13.4256 14.9186 13.3731 15.0121 13.2764C15.0823 13.2049 15.1681 13.1671 15.3006 13.1566C16.2011 13.0788 17.1016 12.9926 18.006 12.9211C18.2321 12.9043 18.349 12.8349 18.4426 12.7445C18.5167 12.673 18.6024 12.6478 18.7467 12.6352C20.037 12.5259 21.3195 12.4039 22.6098 12.2988C22.8476 12.2799 22.9178 12.1895 23.0386 12.1117C23.0815 12.0844 23.1087 12.0507 23.1633 12.0339C23.2179 12.0171 23.2881 12.0192 23.3543 12.015C24.3835 11.9246 25.4127 11.8279 26.4457 11.7438C26.6874 11.7249 26.7341 11.6197 26.8588 11.5462C26.9017 11.523 26.9407 11.4852 26.9914 11.4789C27.7633 11.4074 28.5351 11.3401 29.307 11.2708C29.8215 11.2245 30.3361 11.1783 30.8506 11.1341C31.104 11.1131 31.104 11.111 31.4471 10.9113C31.4861 10.8881 31.5407 10.8608 31.5914 10.8545C33.0727 10.7199 34.5501 10.5917 36.0314 10.4593C36.1562 10.4488 36.2458 10.4004 36.3082 10.3289C36.3706 10.2574 36.4603 10.2091 36.5811 10.1986C37.7389 10.0934 38.8967 9.99044 40.0583 9.89163C40.2688 9.87481 40.4169 9.82435 40.5105 9.72974C40.5807 9.65827 40.6664 9.62043 40.799 9.60992C41.9567 9.50901 43.1146 9.40178 44.2763 9.30507C44.4985 9.28615 44.6076 9.21468 44.7167 9.13058C44.7557 9.10115 44.7869 9.0528 44.8337 9.04859C45.4106 8.98973 45.9836 8.92876 46.5645 8.88881C46.8062 8.87199 46.8881 8.78369 46.9855 8.6996C47.0635 8.63232 47.1532 8.6092 47.3013 8.60079C47.6249 8.58187 47.9445 8.54615 48.2603 8.51041C48.307 8.5041 48.3655 8.45785 48.3694 8.42841C48.3772 8.37375 48.2875 8.3359 48.1394 8.31698C46.5957 8.45363 45.0481 8.59028 43.5044 8.72693C43.251 8.75005 43.251 8.75007 42.908 8.94979C42.869 8.97291 42.8144 9.00025 42.7598 9.00655C41.2785 9.139 39.8011 9.26935 38.3197 9.40179C38.195 9.4123 38.1053 9.46066 38.043 9.53214C37.9806 9.60362 37.8909 9.65197 37.77 9.66248C36.355 9.78862 34.9399 9.91687 33.521 10.0367C33.3105 10.0535 33.1624 10.1019 33.0688 10.1986C32.9986 10.27 32.9129 10.3079 32.7803 10.3184C31.4277 10.4361 30.0788 10.5602 28.7222 10.6737C28.5858 10.6842 28.4845 10.6232 28.4923 10.5665C28.4962 10.537 28.5546 10.4887 28.6013 10.4845C29.3069 10.4151 30.0087 10.3436 30.7182 10.2911C30.956 10.2743 31.0261 10.1818 31.1469 10.104C31.1859 10.0766 31.2171 10.0409 31.2678 10.0262C31.3224 10.0094 31.3925 10.0115 31.4588 10.0073C33.1311 9.858 34.8035 9.70664 36.4798 9.56578C36.7215 9.54476 36.7682 9.44173 36.8929 9.36815C36.9358 9.34292 36.9748 9.30509 37.0255 9.30089C37.5401 9.25043 38.0546 9.20627 38.5692 9.16212C39.4697 9.08224 40.3701 9.00234 41.2745 8.92246C41.5357 8.89933 41.5357 8.89932 41.871 8.7017C41.91 8.67857 41.9646 8.64916 42.0153 8.64496C44.3971 8.43262 46.7789 8.22028 49.1608 8.01005C49.2855 7.99954 49.3752 7.95119 49.4375 7.87971C49.4999 7.81033 49.5895 7.75987 49.7104 7.74726C52.9303 7.46134 56.1464 7.17541 59.3663 6.8937C59.5768 6.87478 59.7249 6.83063 59.8185 6.73182C59.8848 6.66034 59.9744 6.6225 60.107 6.60989C63.6466 6.29664 67.1862 5.9834 70.7297 5.66805C73.1115 5.45782 75.4934 5.24338 77.8752 5.03735C78.0935 5.01843 78.2104 4.95324 78.3195 4.86705C78.3546 4.83762 78.3897 4.78926 78.4365 4.78505C78.9472 4.7325 79.4578 4.68415 79.9685 4.6358C80.1283 4.69256 80.2881 4.74723 80.448 4.80399C80.5688 4.72411 80.6858 4.64211 80.8067 4.56222C81.5785 4.50125 82.3386 4.40665 83.1183 4.37721C83.169 4.37511 83.2235 4.41506 83.2781 4.43609C83.6406 4.56853 83.8473 4.55802 84.0772 4.38142C84.1591 4.31835 84.2293 4.26159 84.354 4.25108C84.7399 4.21324 85.1298 4.18801 85.5119 4.14386C85.7185 4.12073 85.8899 4.14175 86.0381 4.21744C86.1433 4.2721 86.2525 4.29523 86.3812 4.28262C87.0906 4.21955 87.7962 4.15857 88.5057 4.0913C88.5564 4.0871 88.6031 4.05134 88.6421 4.02612C88.7239 3.97146 88.7941 3.9126 88.8721 3.85584C88.9774 3.89158 89.0943 3.91891 89.1801 3.96517C89.2892 4.01983 89.3906 4.01981 89.5387 4.0051C92.3688 3.75072 95.2029 3.50264 98.033 3.24616C98.2747 3.22514 98.3799 3.31344 98.5437 3.35969C98.5982 3.37651 98.6528 3.39752 98.7113 3.40173C98.7736 3.40593 98.8399 3.39333 98.9023 3.38702C101.027 3.19781 103.151 3.01069 105.276 2.82148C105.557 2.79626 105.557 2.79626 105.974 2.9266C106.024 2.94342 106.091 2.96234 106.145 2.95604C107.112 2.87404 108.079 2.78575 109.042 2.70166C109.166 2.69115 109.272 2.72478 109.385 2.77313C109.607 2.86774 109.622 2.86775 109.786 2.72899C109.864 2.66382 109.946 2.62386 110.075 2.60494C110.215 2.58391 110.328 2.59024 110.437 2.62809C110.593 2.68064 110.706 2.76893 110.944 2.7458C111.973 2.64699 113.006 2.56501 114.031 2.4641C114.265 2.44097 114.39 2.51245 114.546 2.56501C114.601 2.58393 114.651 2.61336 114.71 2.61967C114.768 2.62597 114.838 2.61124 114.901 2.60494C116.187 2.49141 117.477 2.38001 118.76 2.25807C119.002 2.23495 119.107 2.32533 119.271 2.37158C119.325 2.3884 119.388 2.41785 119.438 2.41364C120.21 2.34847 120.986 2.27907 121.758 2.2097C122.034 2.18447 122.034 2.18657 122.455 2.31481C122.506 2.33163 122.572 2.34845 122.627 2.34425C123.528 2.26646 124.432 2.18657 125.332 2.10669C125.609 2.08146 125.609 2.08146 126.408 2.19078C126.467 2.19919 126.529 2.21182 126.588 2.20762C127.617 2.11722 128.65 2.02891 129.679 1.9322C129.885 1.91328 130.057 1.93009 130.205 2.00578C130.31 2.06044 130.42 2.08358 130.548 2.07096C131.706 1.96795 132.868 1.86914 134.022 1.75982C134.244 1.7388 134.388 1.78503 134.544 1.846C134.595 1.86702 134.645 1.89646 134.704 1.90487C134.762 1.91328 134.828 1.90486 134.891 1.89856C136.049 1.79554 137.21 1.69884 138.364 1.58742C138.598 1.56429 138.723 1.63576 138.879 1.68832C138.933 1.70724 138.992 1.74509 139.039 1.74299C139.491 1.70725 139.943 1.67572 140.391 1.62316C140.633 1.59373 140.738 1.69042 140.902 1.73667C140.956 1.75139 141.019 1.78294 141.07 1.77873C142.036 1.69674 143.003 1.61055 143.966 1.52226C144.102 1.50964 144.204 1.52855 144.313 1.58321C144.457 1.65679 144.625 1.68622 144.835 1.6631C145.284 1.61474 145.736 1.58111 146.188 1.54117C146.453 1.51804 146.453 1.51805 147.264 1.62737C147.322 1.63578 147.385 1.64839 147.443 1.64418C148.215 1.57691 148.991 1.51174 149.759 1.43816C149.965 1.41713 150.137 1.43605 150.285 1.51173C150.39 1.5664 150.495 1.58953 150.628 1.57692C151.337 1.51385 152.043 1.45077 152.753 1.3877C153.01 1.36458 153.267 1.32462 153.524 1.32462C153.712 1.32673 153.848 1.42763 154.016 1.47809C154.062 1.49281 154.14 1.47601 154.203 1.4718C155.103 1.39191 156.008 1.31832 156.904 1.22792C157.138 1.2048 157.263 1.27627 157.419 1.32883C157.473 1.34775 157.532 1.3856 157.579 1.3835C157.902 1.36037 158.222 1.32883 158.545 1.3015C158.931 1.26786 159.321 1.24264 159.703 1.19638C160.015 1.15854 160.132 1.34144 160.381 1.34775C160.572 1.35405 160.767 1.31832 160.958 1.3015C161.344 1.26786 161.73 1.23003 162.116 1.20059C162.253 1.19008 162.358 1.15643 162.401 1.08075C162.409 1.06603 162.342 1.03451 162.299 1.01559C161.781 0.801149 161.781 0.801139 161.259 0.84739C160.935 0.876823 160.615 0.906261 160.292 0.931489C160.237 0.935693 160.175 0.918876 160.12 0.906262C159.964 0.870522 159.98 0.82848 160.112 0.752796C160.245 0.677112 160.346 0.584617 160.459 0.498422C160.619 0.553082 160.775 0.607723 160.935 0.662384C161.064 0.651872 161.192 0.639277 161.321 0.628765C161.964 0.574105 162.607 0.517337 163.251 0.466881C163.297 0.462677 163.356 0.50473 163.41 0.525753C163.566 0.586721 163.707 0.639265 163.933 0.616139C164.51 0.555171 165.091 0.511022 165.667 0.458464C165.921 0.435338 165.921 0.43534 166.365 0.565685C166.416 0.580401 166.482 0.597221 166.537 0.593016C167.118 0.544663 167.695 0.49211 168.275 0.441655C168.4 0.431143 168.521 0.458472 168.611 0.51944C168.646 0.544668 168.638 0.586706 168.786 0.931489C169.246 1.2111 169.562 1.18168 169.881 1.15645C170.018 1.14594 170.139 1.13542 170.228 1.09337C170.275 1.07025 170.334 1.0366 170.334 1.00927C170.334 0.988251 170.248 0.954607 170.193 0.950402C169.807 0.908356 169.441 0.996666 169.063 1.01559C168.887 1.024 168.735 0.950414 168.704 0.830581C168.696 0.796944 168.685 0.761206 168.673 0.727569C168.661 0.693931 168.654 0.658194 168.642 0.624556C168.49 0.614045 168.4 0.651881 168.334 0.72336C168.279 0.782225 168.201 0.8495 168.096 0.881035C167.991 0.914672 167.847 0.908376 167.718 0.918888C167.593 0.9294 167.457 0.956727 167.34 0.942011C167.223 0.925192 167.129 0.864214 167.02 0.826372C166.969 0.807451 166.907 0.780131 166.856 0.784336C166.408 0.820075 165.964 0.855802 165.519 0.902053C165.285 0.927281 165.169 0.838996 165.02 0.784336C164.903 0.742289 164.786 0.752787 164.767 0.849495C164.716 1.08075 164.896 1.17745 165.293 1.1333C165.621 1.09546 165.917 1.08917 166.174 1.23213C166.209 1.25105 166.291 1.25946 166.342 1.25526C166.661 1.23003 166.977 1.19849 167.297 1.17326C167.355 1.16906 167.418 1.17745 167.472 1.18586C168.268 1.29939 168.268 1.3015 168.537 1.27627C168.665 1.26366 168.79 1.25315 168.778 0.933593C169.024 0.590913 169.414 0.567791 169.792 0.517335C170.037 0.4858 170.143 0.578307 170.302 0.626661C170.357 0.643479 170.416 0.677111 170.466 0.672906C171.304 0.603529 172.139 0.529937 172.973 0.452151C173.113 0.439537 173.214 0.452153 173.324 0.506813C173.464 0.57619 173.62 0.620349 173.842 0.595121C174.286 0.544665 174.739 0.513137 175.191 0.47109C175.421 0.450067 175.421 0.450045 175.885 0.58039C175.935 0.595106 176.002 0.611926 176.056 0.607721C176.508 0.571982 176.957 0.527846 177.405 0.490004C177.53 0.479492 177.643 0.508922 177.74 0.565685C177.838 0.622448 177.955 0.651877 178.076 0.641366C178.528 0.603524 178.976 0.561491 179.424 0.523649C179.479 0.519444 179.545 0.534159 179.596 0.548876C180.071 0.67922 180.071 0.679199 180.29 0.658175C180.609 0.62664 180.937 0.61194 181.253 0.569894C181.561 0.527847 181.72 0.649772 181.931 0.717047C182.508 0.668693 183.089 0.628759 183.662 0.569894C183.896 0.544666 184.02 0.614037 184.176 0.668697C184.231 0.687618 184.285 0.727567 184.336 0.725464C184.531 0.717055 184.722 0.693933 184.913 0.677115C185.104 0.660296 185.299 0.643479 185.49 0.626661C185.708 0.687628 185.853 0.830585 186.164 0.782231C186.352 0.752799 186.55 0.746492 186.741 0.729673C186.932 0.712854 187.127 0.696038 187.318 0.679219C187.447 0.668707 187.579 0.662391 187.704 0.64347C187.934 0.611935 188.047 0.714962 188.211 0.761213C188.266 0.775929 188.328 0.801141 188.379 0.796936C188.765 0.767504 189.154 0.742278 189.532 0.693924C189.825 0.656082 190.024 0.71916 190.23 0.807458C190.273 0.826379 190.347 0.83689 190.402 0.832685C190.854 0.796946 191.302 0.752784 191.751 0.714942C191.871 0.704431 191.988 0.738067 192.086 0.792728C192.187 0.849491 192.3 0.876841 192.425 0.86633C192.873 0.828488 193.326 0.786429 193.774 0.748587C193.828 0.744382 193.895 0.761204 193.945 0.778023C194.382 0.908367 194.382 0.910472 194.639 0.885244C194.702 0.878937 194.768 0.874715 194.83 0.868408C195.15 0.838976 195.481 0.828479 195.793 0.778023C196.152 0.72126 196.413 0.792742 196.666 0.912575C196.986 0.887347 197.313 0.872627 197.625 0.830581C197.859 0.799046 197.984 0.87893 198.14 0.931489C198.194 0.95041 198.253 0.988252 198.3 0.984047C198.752 0.948307 199.204 0.916784 199.648 0.864225C199.89 0.834793 199.995 0.92938 200.159 0.977734C200.214 0.994552 200.272 1.024 200.323 1.0198C200.58 1.00298 200.837 0.977737 201.095 0.954611C201.395 0.927281 201.395 0.929381 201.792 1.05762C201.98 1.11859 202.167 1.07024 202.35 1.05552C202.545 1.0387 202.728 1.02609 202.884 1.11229C202.981 1.16695 203.098 1.20059 203.219 1.19218C203.477 1.17325 203.738 1.15434 203.991 1.12281C204.194 1.09758 204.369 1.11439 204.517 1.19218C204.623 1.24684 204.732 1.27418 204.86 1.26157C205.437 1.21111 206.018 1.15854 206.595 1.11018C206.646 1.10598 206.716 1.12491 206.763 1.14383C206.872 1.18167 206.977 1.22371 207.082 1.26575C207.336 1.24683 207.597 1.23844 207.846 1.20901C208.111 1.17958 208.353 1.16906 208.56 1.28469C208.603 1.30992 208.665 1.34564 208.716 1.34354C208.911 1.33513 209.102 1.31411 209.293 1.29729C209.484 1.28047 209.679 1.26366 209.87 1.24684C210.092 1.2994 210.232 1.45076 210.544 1.40241C210.731 1.37298 210.93 1.36667 211.121 1.34985C211.312 1.33303 211.507 1.31411 211.698 1.2994C211.76 1.29519 211.83 1.28467 211.885 1.29308C211.944 1.30149 211.994 1.33093 212.045 1.35196C212.201 1.41292 212.345 1.4739 212.567 1.43816C212.754 1.40873 212.953 1.40242 213.144 1.3835C213.405 1.36037 213.405 1.36037 213.838 1.49282C214.013 1.54748 214.212 1.47601 214.38 1.52226C214.493 1.55379 214.59 1.60634 214.7 1.64208C214.746 1.65679 214.82 1.66309 214.875 1.65889C215.132 1.63997 215.393 1.62105 215.647 1.58952C215.853 1.56429 216.025 1.58952 216.169 1.6652C216.274 1.71986 216.38 1.743 216.512 1.73039C217.155 1.67152 217.799 1.62105 218.438 1.55588C218.656 1.53275 218.832 1.5685 218.952 1.64418C219.159 1.77453 219.452 1.62106 219.666 1.72618C219.798 1.79135 219.931 1.86704 220.173 1.8355C220.617 1.78084 221.069 1.75139 221.518 1.71355C221.677 1.77031 221.837 1.82709 222.001 1.88385C222.258 1.86073 222.516 1.83759 222.773 1.81656C222.964 1.79974 223.159 1.78082 223.35 1.76611C223.412 1.7619 223.478 1.75349 223.537 1.764C223.595 1.77452 223.642 1.80185 223.697 1.82288C223.966 1.92589 223.966 1.928 224.41 1.88596C224.601 1.86703 224.784 1.85442 224.944 1.93851C225.092 2.0163 225.268 2.03101 225.47 2.00788C225.852 1.96584 226.238 1.9343 226.628 1.90487C226.749 1.89436 226.862 1.9301 226.963 1.98476C227.115 2.07095 227.303 2.06255 227.494 2.03942C227.747 2.00999 227.996 1.98056 228.211 2.09829C228.254 2.12352 228.32 2.15924 228.367 2.15714C228.686 2.14032 229.01 2.12772 229.322 2.08777C229.634 2.04783 229.786 2.17817 230 2.24124C230.32 2.21391 230.643 2.18657 230.963 2.15924C231.025 2.15294 231.099 2.13403 231.154 2.14454C231.384 2.18869 231.517 2.34636 231.832 2.298C232.016 2.27067 232.214 2.26228 232.405 2.25597C232.456 2.25387 232.522 2.28959 232.557 2.31692C232.577 2.33163 232.557 2.37158 232.534 2.3926C232.464 2.45146 232.378 2.50614 232.316 2.56711C232.308 2.57552 232.382 2.61335 232.425 2.63016C232.53 2.66801 232.651 2.66171 232.791 2.64489C232.912 2.63018 233.037 2.65961 233.123 2.72268C233.158 2.74791 233.146 2.78995 233.072 2.9287C233.072 3.03172 233.154 2.98546 233.181 2.91818C233.224 2.82148 233.142 2.78994 232.986 2.8425C232.877 2.88034 232.822 2.93501 232.85 2.97916C232.865 3.00228 232.939 3.03172 233.072 2.9287C233.415 2.80256 233.672 2.77945 233.93 2.75632C233.996 2.75002 234.074 2.72898 234.121 2.74159C234.288 2.79205 234.444 2.85303 234.608 2.90979C234.795 2.89718 234.97 2.86563 235.154 2.94762C235.411 3.06325 235.423 3.05274 235.672 3.02961C235.801 3.017 235.929 3.00651 236.058 2.99599C236.187 2.98548 236.288 3.01701 236.401 3.06536C236.631 3.16417 236.651 3.16416 236.803 3.02961C236.892 2.94762 236.955 2.9203 237.068 2.95814C237.442 3.08638 237.446 3.09479 237.765 3.05694C238.031 3.02541 238.28 3.017 238.475 3.13683C238.607 3.22093 238.65 3.20201 238.756 3.11371C239.036 2.88035 239.165 2.88455 239.691 3.05273C239.937 3.13262 240.19 3.04644 240.44 3.03593C240.65 3.02752 240.798 3.07796 240.814 3.21041C240.826 3.2924 240.861 3.35128 241.001 3.37861C241.056 3.38912 241.122 3.40383 241.176 3.39962C241.5 3.3744 241.82 3.34496 242.143 3.31553C242.307 3.30081 242.397 3.20202 242.365 3.07167C242.33 2.93292 242.393 2.88245 242.627 2.8425C242.767 2.81938 242.88 2.8236 242.993 2.86144C243.118 2.90349 243.083 2.94133 242.974 3.01701C242.712 3.20202 242.744 3.31552 243.079 3.44377C243.196 3.48791 243.289 3.52788 243.317 3.59305C243.332 3.62669 243.317 3.67083 243.352 3.69606C243.543 3.83692 243.808 3.92733 244.104 3.9946C244.389 3.93784 244.583 4.03243 244.802 4.10811C244.973 4.16698 245.176 4.11653 245.359 4.09551C245.566 4.07238 245.737 4.08919 245.885 4.16698C245.991 4.22164 246.1 4.24686 246.228 4.23635C246.486 4.21322 246.747 4.19851 247 4.16488C247.219 4.13544 247.382 4.1775 247.519 4.24898C247.69 4.33938 247.881 4.2784 248.061 4.29101C248.302 4.30573 248.423 4.49283 248.739 4.44237C248.926 4.41294 249.121 4.40243 249.316 4.39402C249.367 4.39192 249.429 4.42767 249.472 4.4529C249.678 4.56852 249.92 4.56221 250.185 4.52858C250.368 4.50545 250.548 4.48444 250.727 4.56432C251.023 4.69887 251.351 4.81661 251.663 4.94065C251.706 5.03736 251.674 5.15086 251.897 5.20763C252.013 5.23706 252.123 5.28122 252.212 5.32958C252.321 5.38634 252.423 5.40106 252.563 5.38634C252.817 5.35691 253.082 5.35058 253.331 5.31274C253.561 5.2791 253.705 5.3485 253.846 5.41368C253.959 5.46623 254.064 5.49145 254.2 5.45361C254.341 5.41787 254.442 5.44099 254.555 5.49775C254.715 5.57553 254.727 5.56714 255.257 5.59026C255.311 5.59237 255.378 5.62388 255.409 5.65121C255.424 5.66593 255.389 5.708 255.362 5.72903C255.327 5.75425 255.272 5.78367 255.222 5.78998C254.645 5.84464 254.064 5.89299 253.487 5.94765C253.429 5.95396 253.366 5.96869 253.323 5.98971C253.277 6.01284 253.218 6.04435 253.218 6.07379C253.218 6.09481 253.296 6.12004 253.351 6.13476C253.522 6.18311 253.725 6.10954 253.892 6.1642C254.006 6.19994 254.099 6.25038 254.212 6.28402C254.259 6.29873 254.333 6.29664 254.391 6.29244C254.586 6.27772 254.777 6.2567 254.972 6.24409C255.027 6.24198 255.089 6.26302 255.14 6.27984C255.514 6.40598 255.514 6.40597 255.838 6.37864C255.966 6.36813 256.103 6.33659 256.224 6.3492C256.341 6.36182 256.442 6.41858 256.547 6.45432C256.766 6.53 256.972 6.60358 256.988 6.76757C256.995 6.83064 257.124 6.88529 257.253 6.88949C257.377 6.8937 257.51 6.87059 257.639 6.85798C257.943 6.83275 257.943 6.83275 258.336 6.96099C258.446 6.99673 258.563 7.00093 258.703 6.9799C258.757 6.97149 258.824 6.97991 258.882 6.99042C259.073 7.02196 259.073 7.06189 258.948 7.13758C258.773 7.249 258.789 7.25952 259.28 7.35412C259.467 7.38986 259.611 7.45714 259.767 7.51601C260.02 7.61061 260.017 7.6106 259.849 7.73463C259.81 7.76196 259.775 7.7914 259.736 7.82084C259.623 7.90283 259.533 7.99112 259.299 7.99953C259.042 8.00794 258.785 8.04159 258.527 8.06471C258.278 8.08784 258.212 8.13828 258.235 8.28123C258.262 8.45363 258.313 8.47255 258.761 8.47045C258.89 8.47045 259.003 8.48726 259.1 8.54403C259.054 8.6113 258.968 8.66386 258.843 8.67647C258.524 8.70801 258.2 8.73535 257.88 8.76268C257.623 8.7858 257.366 8.80892 257.109 8.83204C256.949 8.84676 256.847 8.95609 256.89 9.07803C256.914 9.1474 256.933 9.21678 256.953 9.28615C256.995 9.42491 257.077 9.46066 257.338 9.45435C257.405 9.45225 257.467 9.43542 257.529 9.43962C257.783 9.45434 257.904 9.62883 258.208 9.59309C258.461 9.56365 258.726 9.55735 258.976 9.51951C259.206 9.48587 259.334 9.56158 259.494 9.61834C259.549 9.63726 259.607 9.67718 259.654 9.67508C259.978 9.65196 260.301 9.62885 260.617 9.5889C260.765 9.57209 260.855 9.58469 260.972 9.63515C261.252 9.75708 261.26 9.75078 261.677 9.71293C261.981 9.6835 261.985 9.68771 262.375 9.81595C262.484 9.85169 262.601 9.85168 262.741 9.83486C262.925 9.81384 263.116 9.7802 263.307 9.81174C263.365 9.82015 263.439 9.84538 263.459 9.87271C263.47 9.89163 263.416 9.93789 263.369 9.9526C263.026 10.0619 262.625 10.043 262.25 10.0872C262.133 10.0998 262.016 10.0598 261.919 10.0031C261.818 9.94629 261.708 9.92318 261.576 9.93369C261.319 9.95682 261.057 9.97152 260.804 10.0052C260.586 10.0346 260.434 9.98624 260.282 9.92106C260.231 9.90004 260.173 9.86009 260.122 9.86219C259.545 9.90424 258.964 9.9463 258.391 10.0052C258.161 10.0304 258.029 9.96312 257.873 9.90636C257.818 9.88744 257.763 9.84749 257.713 9.84959C257.518 9.858 257.327 9.88112 257.132 9.89794C256.422 9.96101 255.717 10.0241 255.007 10.0829C254.961 10.0872 254.902 10.043 254.848 10.0241C254.742 9.98623 254.633 9.95049 254.524 9.91475C254.329 9.93157 254.138 9.95259 253.943 9.9652C253.803 9.97361 253.678 10.0031 253.659 10.0829C253.647 10.1355 253.776 10.1839 253.912 10.1796C254.045 10.1754 254.177 10.1502 254.286 10.1775C254.828 10.3121 254.828 10.3142 255.167 10.2869C255.463 10.2616 255.432 10.2406 255.693 10.3562C255.806 10.4067 255.908 10.4361 256.037 10.4235C256.356 10.3941 256.68 10.3647 257.003 10.3394C257.054 10.3352 257.12 10.3563 257.171 10.3731C257.553 10.4992 257.553 10.5034 257.869 10.4719C258.282 10.434 258.298 10.4235 258.574 10.5518C258.765 10.6401 258.941 10.5791 259.124 10.5749C259.334 10.6569 259.564 10.7305 259.755 10.823C259.982 10.9323 260.219 10.9134 260.477 10.8818C260.668 10.8587 260.855 10.8503 261.011 10.9365C261.159 11.0164 261.338 11.0248 261.541 11.0038C261.724 10.9848 261.911 10.9449 262.102 10.9911C262.153 11.0038 262.231 11.0353 262.227 11.0542C262.223 11.0837 262.172 11.1257 262.122 11.1383C261.763 11.2245 261.369 11.2224 260.991 11.2624C260.94 11.2687 260.874 11.2455 260.824 11.2287C260.714 11.1909 260.609 11.1467 260.504 11.1068C260.313 11.1194 260.118 11.1236 259.931 11.1488C259.787 11.1677 259.677 11.1657 259.572 11.1152C259.475 11.0689 259.37 11.0122 259.253 10.9975C259.136 10.9827 258.999 11.0143 258.871 11.0269C258.742 11.0395 258.594 11.0332 258.492 11.0668C258.391 11.1005 258.329 11.1741 258.262 11.2329C258.188 11.2981 258.087 11.3191 257.939 11.3254C257.802 11.3317 257.693 11.3233 257.592 11.2645C257.549 11.2392 257.491 11.2203 257.432 11.2035C257.377 11.1888 257.315 11.1656 257.264 11.1698C256.684 11.2182 256.107 11.2708 255.526 11.3212C255.237 11.3465 255.241 11.3464 254.641 11.2224C254.586 11.2119 254.52 11.1972 254.466 11.2014C254.142 11.2266 253.822 11.256 253.499 11.2855C253.171 11.3149 253.175 11.3107 252.618 11.1783C252.516 11.153 252.368 11.1867 252.247 11.1825C251.994 11.172 251.869 10.9954 251.573 11.029C251.32 11.0584 251.055 11.0647 250.801 11.1026C250.571 11.1362 250.439 11.0626 250.283 11.0059C250.228 10.987 250.17 10.9449 250.123 10.9491C249.542 10.9954 248.965 11.0479 248.193 11.0542C248.002 11.0542 248.088 11.0984 248.213 11.1131C248.392 11.1362 248.451 11.0921 248.353 11.008C248.283 10.9491 248.182 10.9197 248.1 10.9344C248.057 10.9428 248.002 10.9827 248.193 11.0542C248.396 11.1341 248.384 11.1783 248.419 11.2035C248.505 11.2644 248.626 11.2897 248.751 11.2813C248.946 11.2666 249.137 11.2455 249.332 11.2329C249.386 11.2287 249.452 11.2434 249.503 11.2602C249.932 11.3906 249.936 11.399 250.392 11.3486C250.536 11.3338 250.641 11.3338 250.754 11.3738C250.91 11.4284 251.023 11.5209 251.261 11.4915C251.577 11.4516 251.9 11.4284 252.224 11.4053C252.275 11.4011 252.329 11.439 252.388 11.4558C252.548 11.5062 252.665 11.6008 252.902 11.5609C253.086 11.5294 253.284 11.5209 253.479 11.5146C253.53 11.5125 253.608 11.5462 253.631 11.5735C253.678 11.6218 253.62 11.6786 253.487 11.7186C253.432 11.7354 253.358 11.7312 253.296 11.7375C253.039 11.7606 252.781 11.7858 252.524 11.8047C252.388 11.8153 252.259 11.8468 252.244 11.9246C252.232 11.9772 252.372 12.0234 252.505 12.0192C252.7 12.0129 252.895 11.9961 253.082 11.9687C253.413 11.9225 253.701 11.9351 253.97 12.0675C254.161 12.16 254.15 12.1264 254.352 12.3997C254.403 12.4691 254.555 12.4754 254.688 12.4712C255.007 12.4607 255.155 12.4922 255.128 12.5574C255.093 12.6373 254.98 12.6625 254.836 12.673C254.579 12.6898 254.321 12.7172 254.064 12.7403C254.002 12.7466 253.931 12.7592 253.873 12.755C253.814 12.7508 253.76 12.7256 253.709 12.7067C253.6 12.6667 253.507 12.6057 253.39 12.591C253.273 12.5763 253.136 12.6078 253.008 12.6205C252.879 12.631 252.743 12.6625 252.626 12.6478C252.509 12.6331 252.411 12.57 252.306 12.5322C252.255 12.5132 252.193 12.4838 252.142 12.4859C251.885 12.5027 251.628 12.5301 251.37 12.5511C251.055 12.5784 251.055 12.5784 250.673 12.4481C250.563 12.4102 250.45 12.4123 250.306 12.4292C249.994 12.4628 249.99 12.4565 249.421 12.3345C249.367 12.3219 249.3 12.3072 249.246 12.3135C248.665 12.3619 248.088 12.4144 247.511 12.4649C247.016 12.509 247.016 12.509 246.743 12.7193C246.54 12.8749 246.536 12.8748 246.735 12.9463C246.895 13.0052 247.039 13.0914 247.215 13.1229C247.378 13.1523 247.581 13.0577 247.761 13.1545C247.85 13.2028 247.967 13.2554 248.08 13.2638C248.259 13.2743 248.451 13.2133 248.622 13.3058C248.708 13.3521 248.836 13.4004 248.946 13.4025C249.137 13.4067 249.332 13.3731 249.523 13.3584C249.581 13.3542 249.647 13.3542 249.702 13.3647C249.76 13.3773 249.811 13.4025 249.862 13.4236C250.018 13.495 250.185 13.5287 250.388 13.4929C250.719 13.4341 251.016 13.4635 251.273 13.598C251.308 13.617 251.394 13.6191 251.448 13.6107C251.589 13.5896 251.709 13.5875 251.815 13.6275C251.858 13.6443 251.92 13.6737 251.912 13.6926C251.9 13.7242 251.854 13.7662 251.803 13.7767C251.437 13.8482 251.043 13.8566 250.665 13.8945C250.614 13.8987 250.552 13.8713 250.501 13.8524C250.392 13.8146 250.298 13.7515 250.181 13.7368C250.064 13.7221 249.928 13.7494 249.799 13.7599C249.671 13.7704 249.534 13.802 249.417 13.7894C249.3 13.7746 249.191 13.7221 249.098 13.6758C248.988 13.6233 248.883 13.617 248.739 13.638C248.552 13.6653 248.357 13.6695 248.166 13.6842C248.061 13.6443 247.955 13.6001 247.846 13.5623C247.796 13.5434 247.733 13.5203 247.679 13.5224C247.421 13.5392 247.164 13.5644 246.907 13.5875C246.649 13.6106 246.65 13.6107 246.213 13.4803C246.162 13.4656 246.096 13.4488 246.041 13.453C245.718 13.4782 245.398 13.5097 245.075 13.535C244.95 13.5455 244.837 13.516 244.736 13.4593C244.638 13.4025 244.521 13.371 244.4 13.3815C243.886 13.4256 243.371 13.4677 242.857 13.5203C242.65 13.5413 242.474 13.5224 242.334 13.4467C242.17 13.3605 241.987 13.3815 241.796 13.3983C241.364 13.4404 241.36 13.4383 241.083 13.331C241.028 13.31 240.974 13.2701 240.923 13.2722C240.475 13.3037 240.023 13.3331 239.578 13.3836C239.344 13.4109 239.219 13.3374 239.064 13.2827C239.009 13.2638 238.951 13.2238 238.904 13.228C238.58 13.2512 238.257 13.2722 237.941 13.3142C237.625 13.3563 237.504 13.1608 237.266 13.1629C236.943 13.165 236.623 13.2133 236.304 13.2428C236.046 13.2659 235.789 13.289 235.532 13.3121C235.274 13.3353 235.017 13.3542 234.76 13.3815C234.623 13.3962 234.522 13.3773 234.409 13.3247C234.265 13.2554 234.093 13.2007 233.937 13.1376C233.7 13.0472 233.7 13.0472 233.411 13.0725C233.349 13.0788 233.282 13.083 233.22 13.0893C232.748 13.1355 232.748 13.1313 232.148 12.9989C232.121 12.9926 232.051 13.0157 232.023 13.0325C231.941 13.0872 231.867 13.146 231.793 13.2028C231.688 13.1692 231.559 13.1502 231.489 13.1019C231.29 12.9652 230.979 13.1523 230.776 13.0178C230.702 12.9673 230.573 12.9232 230.456 12.9106C230.335 12.898 230.199 12.9274 230.074 12.94C229.751 12.9715 229.751 12.9694 229.474 13.1566C229.334 13.2491 229.131 13.2322 228.948 13.2533C228.757 13.2764 228.573 13.289 228.414 13.2028C228.269 13.125 228.094 13.1061 227.887 13.1313C227.634 13.1629 227.373 13.1818 227.115 13.2007C227.061 13.2049 226.995 13.1944 226.94 13.1818C226.344 13.0577 226.344 13.0556 226.055 13.083C225.926 13.0956 225.794 13.0998 225.669 13.1187C225.459 13.1523 225.299 13.1082 225.147 13.0409C225.096 13.0199 225.038 12.98 224.987 12.9821C224.73 12.9926 224.476 13.0115 224.223 13.0304C224.028 13.0451 223.833 13.0535 223.646 13.083C223.334 13.1313 223.182 12.9947 222.968 12.9316C222.648 12.9589 222.325 12.9778 222.005 13.0157C221.857 13.0325 221.759 13.0262 221.646 12.9758C221.502 12.9127 221.369 12.8412 221.136 12.8727C220.824 12.9148 220.496 12.9295 220.177 12.9547C219.962 12.8896 219.806 12.7571 219.498 12.8055C219.311 12.8349 219.112 12.8412 218.921 12.858C218.664 12.8811 218.407 12.9022 218.15 12.9274C217.873 12.9526 217.877 12.9463 217.452 12.8223C217.206 12.7487 216.953 12.8307 216.703 12.8433C216.508 12.8538 216.411 12.9505 216.458 13.0746C216.504 13.1986 216.399 13.2953 216.22 13.3121C215.772 13.3521 215.319 13.3941 214.871 13.4298C214.816 13.434 214.75 13.4193 214.7 13.4046C214.22 13.2722 214.22 13.2743 214.006 13.2932C213.686 13.3247 213.359 13.3415 213.043 13.3815C212.824 13.4088 212.665 13.3647 212.524 13.2932C212.415 13.2386 212.314 13.2259 212.174 13.2386C210.63 13.3794 209.086 13.5097 207.546 13.6548C207.316 13.6758 207.184 13.6149 207.028 13.5581C206.973 13.5392 206.923 13.4992 206.868 13.4992C206.739 13.4992 206.611 13.5182 206.482 13.5308C205.905 13.5812 205.328 13.6422 204.747 13.68C204.502 13.6969 204.435 13.7936 204.33 13.8735C204.248 13.9344 204.155 13.9596 204.011 13.9681C203.87 13.9765 203.769 13.9659 203.66 13.9113C203.519 13.8398 203.36 13.7957 203.141 13.8251C202.888 13.8587 202.631 13.8735 202.369 13.8966C202.237 13.9071 202.135 13.9449 202.093 14.0206C202.085 14.0332 202.167 14.0648 202.213 14.0837C202.369 14.1468 202.518 14.2203 202.693 14.2645C202.872 14.3086 203.067 14.2582 203.254 14.2455C203.321 14.2413 203.383 14.2287 203.445 14.2308C203.504 14.2329 203.574 14.2435 203.617 14.2624C203.82 14.357 204.034 14.4222 204.315 14.3654C204.556 14.3927 204.681 14.5672 204.989 14.521C205.176 14.4936 205.371 14.481 205.566 14.4705C205.617 14.4684 205.671 14.5063 205.726 14.5252C205.882 14.5777 206.007 14.6618 206.24 14.6261C206.49 14.5882 206.755 14.5819 207.008 14.5525C207.149 14.5357 207.25 14.5504 207.359 14.6051C207.499 14.6744 207.659 14.727 207.878 14.6933C208.065 14.6639 208.264 14.6576 208.455 14.6387C208.704 14.6156 208.704 14.6177 209.148 14.748C209.199 14.7627 209.265 14.7795 209.32 14.7753C209.644 14.7501 209.963 14.7186 210.287 14.6933C210.411 14.6828 210.532 14.7102 210.618 14.7711C210.653 14.7964 210.641 14.8384 210.653 14.8742C210.01 14.9309 209.367 14.9793 208.727 15.0487C208.486 15.076 208.377 14.9898 208.217 14.9414C208.162 14.9246 208.104 14.8889 208.053 14.8931C207.601 14.9288 207.153 14.9667 206.704 15.0129C206.564 15.0276 206.459 15.0192 206.353 14.9582C206.084 14.7964 205.757 14.8847 205.453 14.9078C205.219 14.9246 205.145 14.9898 205.172 15.1285C205.207 15.2925 205.348 15.343 205.706 15.3135C205.835 15.303 205.964 15.2883 206.092 15.2799C206.217 15.2715 206.33 15.2988 206.431 15.3556C206.529 15.4123 206.646 15.4418 206.767 15.4334C207.024 15.4145 207.285 15.3955 207.535 15.364C207.741 15.3388 207.913 15.3598 208.057 15.4376C208.217 15.5238 208.404 15.5049 208.591 15.4859C209.028 15.4439 209.031 15.446 209.304 15.5511C209.359 15.5721 209.414 15.6121 209.464 15.61C209.913 15.5785 210.365 15.5511 210.805 15.5007C211.035 15.4754 211.168 15.5427 211.32 15.5974C211.374 15.6163 211.429 15.6583 211.48 15.6541C211.803 15.631 212.127 15.6079 212.442 15.5679C212.591 15.549 212.68 15.5616 212.801 15.6121C213.09 15.7361 213.097 15.7319 213.507 15.692C213.631 15.6793 213.768 15.6562 213.885 15.673C214.002 15.6899 214.095 15.7508 214.204 15.7887C214.255 15.8055 214.317 15.8286 214.372 15.8244C214.629 15.8076 214.887 15.7824 215.144 15.7592C215.386 15.7361 215.386 15.7382 215.838 15.8686C216.021 15.9232 216.212 15.877 216.395 15.8602C216.594 15.8412 216.773 15.8412 216.925 15.9232C217.077 16.0052 217.261 16.001 217.456 15.9842C217.639 15.9674 217.826 15.9211 218.013 15.9779C218.442 16.1082 218.442 16.1103 218.707 16.0851C219.093 16.0493 219.475 16.0157 219.865 15.9842C219.915 15.98 219.982 16.0052 220.032 16.022C220.141 16.0599 220.235 16.1229 220.352 16.1376C220.469 16.1545 220.605 16.1292 220.73 16.1166C221.132 16.0767 221.159 16.062 221.428 16.2007C221.654 16.3143 221.935 16.1503 222.145 16.2806C222.266 16.3542 222.43 16.4131 222.656 16.3773C222.843 16.3479 223.038 16.3395 223.233 16.3227C223.541 16.2953 223.541 16.2974 223.931 16.4236C223.981 16.4404 224.047 16.4614 224.098 16.4572C224.355 16.4404 224.617 16.4257 224.866 16.3878C225.159 16.3437 225.346 16.4236 225.564 16.5014C225.735 16.5623 225.938 16.5119 226.121 16.4909C226.32 16.4698 226.499 16.4761 226.648 16.5581C226.804 16.6422 226.987 16.6317 227.182 16.6149C227.365 16.6002 227.552 16.5518 227.739 16.6107C228.141 16.741 228.141 16.741 228.433 16.7158C228.69 16.6927 228.948 16.6674 229.205 16.6506C229.256 16.6464 229.318 16.6737 229.369 16.6927C229.478 16.7305 229.571 16.7936 229.688 16.8083C229.805 16.823 229.942 16.7957 230.07 16.7852C230.199 16.7747 230.335 16.7431 230.452 16.7557C230.569 16.7684 230.678 16.8209 230.772 16.8672C230.881 16.9218 230.982 16.9281 231.131 16.9071C231.318 16.8798 231.513 16.8735 231.704 16.8588C231.809 16.8987 231.918 16.9386 232.019 16.9828C232.125 17.029 232.238 17.0248 232.382 17.0101C232.861 16.9597 232.865 16.966 233.267 17.0963C233.45 17.1552 233.641 17.1068 233.824 17.0921C234.019 17.0753 234.202 17.0669 234.354 17.151C234.503 17.2309 234.686 17.2414 234.881 17.2161C235.006 17.1993 235.138 17.1888 235.267 17.1825C235.325 17.1804 235.395 17.1888 235.438 17.2056C235.645 17.2939 235.848 17.3738 236.132 17.3171C236.382 17.3339 236.506 17.5063 236.806 17.4726C237.06 17.4432 237.325 17.4369 237.574 17.399C237.804 17.3654 237.968 17.4243 238.085 17.4979C238.296 17.6282 238.592 17.4516 238.802 17.5799C238.923 17.6535 239.079 17.7123 239.313 17.6808C239.57 17.6471 239.652 17.6913 239.726 17.8237C239.769 17.8994 239.761 17.9604 239.683 18.0193C239.605 18.0802 239.52 18.0697 239.395 18.0003C239.251 17.9226 239.079 17.9078 238.873 17.9246C238.67 17.9414 238.545 17.8321 238.377 17.7901C238.21 17.746 238.011 17.8195 237.836 17.7628C237.422 17.6303 237.422 17.6303 237.142 17.6556C236.951 17.6724 236.752 17.6808 236.565 17.7102C236.343 17.746 236.198 17.6808 236.046 17.6219C235.992 17.6009 235.937 17.5609 235.89 17.563C235.442 17.5946 234.99 17.624 234.545 17.6766C234.312 17.7039 234.187 17.6282 234.031 17.5757C233.976 17.5567 233.918 17.5189 233.871 17.5231C233.485 17.5525 233.103 17.5904 232.717 17.6261C232.643 17.6829 232.561 17.7375 232.491 17.7985C232.417 17.8616 232.316 17.8889 232.168 17.8868C231.922 17.8868 231.68 17.9751 231.435 17.8637C231.181 17.7502 231.162 17.7565 230.916 17.7838C230.604 17.8195 230.273 17.8111 229.981 17.8931C229.93 17.9078 229.875 17.9478 229.875 17.9772C229.871 17.9961 229.953 18.0235 230.004 18.0403C230.176 18.0907 230.374 18.0171 230.546 18.0697C230.659 18.1033 230.753 18.1538 230.866 18.1895C230.912 18.2042 230.982 18.2022 231.045 18.2C231.111 18.1979 231.173 18.1832 231.236 18.1853C231.294 18.1874 231.357 18.2 231.404 18.219C231.618 18.2989 231.844 18.3724 232.035 18.467C232.222 18.5596 232.398 18.4965 232.585 18.4923C233.333 18.6394 233.333 18.6415 233.836 18.5953C233.961 18.5848 234.089 18.5722 234.218 18.5743C234.273 18.5743 234.323 18.6121 234.378 18.6331C234.534 18.6962 234.682 18.753 234.9 18.7193C235.087 18.6899 235.286 18.6836 235.477 18.6647C235.734 18.6415 235.734 18.6415 236.171 18.774C236.28 18.8076 236.397 18.8034 236.538 18.7866C236.658 18.7719 236.783 18.8034 236.869 18.8644C236.904 18.8896 236.892 18.9317 236.904 18.9674C236.518 19.001 236.128 19.0242 235.754 19.0746C235.512 19.1062 235.403 19.0158 235.243 18.9674C235.189 18.9506 235.13 18.9149 235.08 18.9191C234.698 18.9506 234.316 18.9863 233.934 19.0284C233.887 19.0326 233.828 19.0809 233.824 19.1103C233.817 19.165 233.914 19.2176 234.054 19.2155C234.241 19.2134 234.425 19.1776 234.592 19.2638C234.733 19.3395 234.908 19.3732 235.115 19.3395C235.239 19.3206 235.372 19.3206 235.497 19.3038C235.828 19.2533 236.128 19.2638 236.378 19.4068C236.569 19.4446 236.756 19.4089 236.939 19.39C237.075 19.3753 237.208 19.3605 237.305 19.4005C237.512 19.4846 237.715 19.5687 237.999 19.5119C238.307 19.5708 238.541 19.6948 238.799 19.7957C238.919 19.8441 239.013 19.8714 239.153 19.8399C239.212 19.8273 239.282 19.8272 239.344 19.8209C239.473 19.8104 239.609 19.7789 239.726 19.7915C239.843 19.8062 239.941 19.8672 240.046 19.905C240.097 19.924 240.155 19.9555 240.206 19.9534C240.401 19.9429 240.592 19.9219 240.783 19.905C240.974 19.8903 241.165 19.8756 241.356 19.8609C241.516 19.9156 241.679 19.9702 241.839 20.0249C242.096 20.0018 242.354 19.9786 242.607 19.9576C242.892 19.9324 242.892 19.9345 243.301 20.0648C243.484 20.1237 243.679 20.0858 243.855 20.0585C244.147 20.0144 244.342 20.0943 244.548 20.1784C244.591 20.1952 244.669 20.2057 244.72 20.1973C244.923 20.1678 245.098 20.191 245.246 20.2687C245.351 20.3234 245.457 20.3486 245.585 20.3381C246.034 20.2982 246.482 20.2561 246.93 20.2204C246.985 20.2162 247.047 20.2351 247.098 20.2519C247.495 20.3802 247.499 20.3865 247.792 20.3528C248.053 20.3234 248.295 20.3108 248.501 20.4264C248.544 20.4516 248.61 20.4874 248.657 20.4853C248.977 20.4643 249.3 20.4411 249.616 20.4054C249.76 20.3886 249.862 20.3949 249.975 20.4432C250.119 20.5042 250.248 20.5778 250.485 20.5505C251.144 20.4727 251.148 20.4853 251.928 20.6303C251.982 20.6408 252.056 20.624 252.119 20.6156C252.251 20.5946 252.349 20.624 252.466 20.6724C252.727 20.7817 252.735 20.7754 252.984 20.7523C253.175 20.7334 253.374 20.7292 253.561 20.6976C253.85 20.6514 254.041 20.7334 254.255 20.8112C254.427 20.8721 254.625 20.8217 254.809 20.8027C255.007 20.7817 255.187 20.788 255.335 20.8679C255.436 20.9226 255.545 20.952 255.674 20.9415C256.122 20.9037 256.571 20.8616 257.019 20.8238C257.073 20.8195 257.14 20.8364 257.19 20.8511C257.635 20.9814 257.635 20.9877 258.075 20.9394C258.216 20.9247 258.333 20.9205 258.438 20.9646C258.539 21.0067 258.648 21.0466 258.754 21.0865C258.945 21.0718 259.139 21.0676 259.327 21.0424C259.471 21.0235 259.572 21.0319 259.685 21.076C259.833 21.1328 259.958 21.2316 260.192 21.1832C260.313 21.1601 260.453 21.1664 260.574 21.1454C260.718 21.1181 260.816 21.1349 260.929 21.1896C261.069 21.2547 261.213 21.322 261.439 21.2884C261.689 21.2505 261.954 21.2442 262.207 21.2148C262.348 21.198 262.445 21.2148 262.558 21.2694C262.699 21.3388 262.858 21.383 263.077 21.3557C263.521 21.3031 263.525 21.3136 263.958 21.446C264.067 21.4797 264.184 21.4755 264.324 21.4587C264.445 21.4439 264.57 21.4755 264.655 21.5364C264.737 21.6037 264.73 21.6458 264.737 21.6815ZM230 2.72058C229.872 2.73109 229.743 2.7437 229.556 2.5608C229.544 2.52926 229.552 2.49143 229.525 2.4641C229.462 2.40733 229.365 2.36739 229.248 2.36108C229.037 2.35268 228.784 2.42414 228.788 2.4788C228.792 2.52505 228.858 2.56499 228.987 2.60283C229.041 2.61755 229.084 2.64278 229.135 2.6596C229.283 2.70795 229.4 2.80257 229.614 2.75422C229.575 2.62388 229.595 2.68905 229.614 2.75422C229.595 2.83411 229.653 2.89087 229.794 2.914C229.833 2.92031 229.891 2.91609 229.922 2.90348C230.043 2.85723 230.062 2.79417 229.973 2.62809C229.957 2.65542 229.969 2.70375 230.004 2.71637C230.039 2.72898 230.125 2.71848 230.168 2.70377C230.277 2.66382 230.332 2.61126 230.304 2.56711C230.289 2.54398 230.215 2.51455 230.168 2.51455C230.086 2.51455 230.012 2.5608 230 2.72058ZM261.521 27.1013C261.237 27.1413 260.909 27.1265 260.625 27.2085C260.574 27.2233 260.523 27.2611 260.52 27.2905C260.516 27.3095 260.594 27.3368 260.64 27.3515C260.746 27.3851 260.863 27.3746 260.999 27.3641C261.206 27.3494 261.326 27.4461 261.486 27.4945C261.537 27.5092 261.603 27.5197 261.658 27.5155C261.974 27.4902 262.285 27.4629 262.601 27.4335C262.656 27.4272 262.714 27.4125 262.761 27.3935C262.917 27.3326 262.901 27.2926 262.749 27.2464C262.582 27.1959 262.449 27.1118 262.278 27.0719C262.032 27.0151 261.782 27.0908 261.521 27.1013ZM239.383 28.636C239.192 28.6528 239.005 28.6697 238.814 28.6865C238.752 28.6928 238.685 28.6949 238.627 28.7033C238.506 28.718 238.416 28.7622 238.358 28.8315C238.448 28.8862 238.557 28.9177 238.678 28.9114C238.869 28.8988 239.056 28.8715 239.247 28.8652C239.453 28.8568 239.574 28.9514 239.734 28.9997C239.785 29.0144 239.847 29.0165 239.906 29.0186C240.194 29.0271 240.369 28.9177 240.315 28.7643C240.276 28.6444 240.128 28.573 239.948 28.5877C239.761 28.6024 239.57 28.6192 239.383 28.636ZM262.855 23.9941C262.901 23.9583 262.952 23.9331 262.975 23.9016C263.046 23.7944 263.018 23.7145 262.89 23.6304C262.734 23.5273 262.543 23.5967 262.367 23.6072C262.324 23.6093 262.278 23.6535 262.254 23.6808C262.239 23.6997 262.239 23.7397 262.262 23.7502C262.453 23.8343 262.656 23.9121 262.855 23.9941ZM229.037 17.7838C228.85 17.8006 228.659 17.8132 228.472 17.8363C228.425 17.8427 228.382 17.8826 228.355 17.9099C228.304 17.9604 228.359 18.0298 228.519 18.0361C228.702 18.0445 228.893 18.0087 229.084 17.9919C229.326 17.9709 229.47 17.8931 229.38 17.8258C229.295 17.7607 229.178 17.7481 229.037 17.7838ZM23.8377 13.2911C23.9625 13.2806 24.0911 13.2722 24.2158 13.2575C24.3328 13.2427 24.4225 13.1965 24.481 13.1271C24.3835 13.0725 24.2743 13.043 24.1535 13.0493C23.9625 13.0619 23.7754 13.0788 23.5883 13.0998C23.4713 13.1124 23.3583 13.1587 23.331 13.2301C23.3037 13.2848 23.5648 13.3163 23.8377 13.2911ZM212.552 12.9673C212.602 12.9863 212.653 13.0241 212.704 13.0241C212.828 13.0241 212.957 13.0115 213.074 12.9905C213.125 12.9821 213.164 12.9442 213.187 12.9148C213.203 12.8959 213.199 12.8622 213.175 12.8454C213.062 12.7445 212.61 12.7802 212.536 12.8959C212.528 12.9169 212.548 12.9442 212.552 12.9673ZM200.253 1.45497C200.264 1.4886 200.268 1.52224 200.284 1.55588C200.315 1.61895 200.401 1.66521 200.526 1.69674C200.623 1.64418 200.674 1.58533 200.67 1.52226C200.666 1.48862 200.654 1.45496 200.639 1.42132C200.607 1.35825 200.522 1.31202 200.397 1.28048C200.299 1.33094 200.253 1.3898 200.253 1.45497ZM271.863 29.0018C271.828 29.0292 271.793 29.0565 271.754 29.0817C271.859 29.1427 271.957 29.1616 272.031 29.128C272.078 29.1069 272.105 29.0754 272.14 29.0481C272.035 28.9871 271.941 28.9703 271.863 29.0018ZM269.439 29.2877C269.489 29.3067 269.536 29.3319 269.591 29.3445C269.68 29.3655 269.762 29.3298 269.825 29.2541C269.774 29.2352 269.727 29.2099 269.673 29.1973C269.583 29.1763 269.501 29.2121 269.439 29.2877ZM270.975 28.903C270.947 28.9535 271.002 28.9955 271.146 29.0313C271.181 29.0039 271.228 28.9787 271.251 28.9493C271.29 28.9009 271.224 28.8568 271.084 28.8231C271.045 28.8484 271.01 28.8757 270.975 28.903ZM262.745 26.6367C262.718 26.6872 262.773 26.7292 262.917 26.7649C262.952 26.7376 262.999 26.7124 263.022 26.683C263.061 26.6346 262.995 26.5905 262.855 26.5568C262.816 26.582 262.78 26.6094 262.745 26.6367ZM251.534 11.7606C251.499 11.7879 251.464 11.8153 251.425 11.8405C251.53 11.9015 251.628 11.9204 251.702 11.8867C251.748 11.8657 251.776 11.8342 251.811 11.8068C251.706 11.7459 251.612 11.7291 251.534 11.7606ZM240.794 3.86844C240.888 3.88316 240.966 3.85374 241.032 3.77595C240.982 3.75703 240.935 3.7318 240.88 3.71918C240.79 3.69816 240.709 3.73391 240.646 3.80959C240.697 3.83062 240.748 3.84952 240.794 3.86844ZM235.091 3.3744C235.056 3.40173 235.021 3.42906 234.982 3.45429C235.087 3.51525 235.185 3.53417 235.259 3.50053C235.306 3.47951 235.333 3.44797 235.368 3.42064C235.263 3.35968 235.169 3.34497 235.091 3.3744ZM196.417 1.45286C196.382 1.48019 196.347 1.50752 196.308 1.53275C196.413 1.59372 196.51 1.61264 196.584 1.579C196.631 1.55797 196.659 1.52644 196.694 1.49911C196.588 1.43814 196.495 1.42343 196.417 1.45286ZM3.84751 18.5574C3.79684 18.5385 3.74621 18.5196 3.69943 18.4986C3.58638 18.5554 3.55131 18.6079 3.61368 18.6478C3.65266 18.6731 3.71109 18.6878 3.76177 18.7067C3.87871 18.65 3.90599 18.5995 3.84751 18.5574Z" fill="#FFE492"/>
</svg>
