<svg width="417" height="20" viewBox="0 0 417 20" fill="none" xmlns="http://www.w3.org/2000/svg">
<path d="M391.74 10.6959C391.169 10.7116 390.592 10.7223 390.033 10.7458C389.67 10.7604 389.514 10.7174 389.272 10.6949C389.191 10.6871 389.104 10.6715 389.029 10.6734C388.464 10.6891 387.899 10.7067 387.333 10.7243C387.16 10.7624 387.051 10.8132 386.785 10.8318C386.526 10.8494 386.22 10.8494 385.932 10.8582C385.551 10.8689 385.17 10.8797 384.79 10.8894C384.599 10.8943 384.444 10.9129 384.38 10.9481C384.369 10.954 384.495 10.9686 384.565 10.9774C384.795 11.0067 385.02 11.04 385.274 11.0624C385.516 11.0839 385.816 11.0488 386.076 11.0761C386.659 11.1377 386.664 11.1367 387.109 11.125C387.489 11.1142 387.87 11.1025 388.251 11.0947C388.326 11.0927 388.412 11.1074 388.493 11.1152C388.735 11.1367 388.891 11.1856 389.249 11.167C389.52 11.1524 389.82 11.1494 390.102 11.1416C390.339 11.17 390.558 11.2022 390.812 11.2247C391.048 11.2462 391.118 11.2628 390.991 11.2912C390.875 11.3175 390.714 11.3283 390.5 11.3303C390.31 11.3312 390.12 11.34 389.929 11.3449C389.831 11.3478 389.739 11.3498 389.647 11.3527C389.283 11.3635 389.283 11.3635 388.62 11.3009C388.36 11.2765 388.066 11.3107 387.818 11.2872C387.651 11.2716 387.506 11.2481 387.345 11.2315C387.276 11.2247 387.166 11.2237 387.08 11.2257C386.791 11.2325 386.503 11.2374 386.226 11.2501C386.03 11.2589 385.914 11.2863 385.938 11.3136C385.943 11.3244 386.082 11.34 386.162 11.341C386.347 11.343 386.543 11.3293 386.722 11.3361C386.895 11.3429 387.074 11.3625 387.201 11.384C387.46 11.429 387.754 11.3889 388.003 11.4006C388.262 11.4133 388.475 11.4524 388.724 11.4759C388.787 11.4817 388.908 11.472 389.006 11.469C389.289 11.4622 389.572 11.4563 389.854 11.4495C390.091 11.4778 390.345 11.5032 390.558 11.5355C390.944 11.5941 391.36 11.6166 391.862 11.5883C392.144 11.5726 392.421 11.5785 392.646 11.6166C392.877 11.6557 393.142 11.6518 393.436 11.644C393.707 11.6362 393.984 11.6147 394.261 11.642C394.861 11.7026 394.867 11.7056 395.576 11.6821C395.79 11.6753 395.951 11.6733 396.113 11.6958C396.263 11.7163 396.424 11.7339 396.58 11.7535C396.863 11.7466 397.151 11.7398 397.434 11.732C397.797 11.7212 397.999 11.7349 398.086 11.7896C398.137 11.8229 398.161 11.8532 398.288 11.8756C398.438 11.903 398.599 11.902 398.818 11.8942C399.026 11.8874 399.176 11.8766 399.262 11.8414C399.297 11.8268 399.366 11.8131 399.43 11.8013C399.482 11.7926 399.562 11.7789 399.608 11.7808C399.695 11.7847 399.81 11.7955 399.839 11.8082C400.122 11.9264 400.122 11.9274 400.41 11.9616C400.727 11.9998 401.056 12.034 401.345 12.077C401.604 12.1151 401.864 12.0985 402.147 12.0985C402.36 12.0985 402.498 12.1239 402.481 12.1493C402.47 12.164 402.389 12.1855 402.32 12.1874C401.754 12.207 401.183 12.2236 400.612 12.2373C400.543 12.2392 400.456 12.2216 400.376 12.2128C400.214 12.1952 400.07 12.1679 399.897 12.162C399.724 12.1561 399.522 12.1708 399.332 12.1757C399.141 12.1806 398.939 12.1933 398.766 12.1855C398.593 12.1776 398.455 12.1493 398.293 12.1307C398.218 12.1219 398.115 12.1092 398.051 12.1122C397.63 12.1356 397.318 12.1034 397.018 12.0604C396.955 12.0516 396.845 12.0457 396.765 12.0477C396.096 12.0643 395.432 12.0838 394.763 12.1024C394.492 12.1102 394.273 12.076 394.215 12.0183C394.186 11.9861 394.129 11.9538 394.129 11.9216C394.129 11.8629 393.811 11.8307 393.581 11.8375C393.2 11.8473 392.813 11.8551 392.438 11.8698C392.133 11.8815 391.873 11.8698 391.665 11.8346C391.423 11.7945 391.146 11.8023 390.87 11.8131C390.662 11.8209 390.604 11.8531 390.616 11.9343C390.627 11.9998 390.529 12.0203 390.154 12.031C389.681 12.0447 389.202 12.0584 388.724 12.0692C388.649 12.0711 388.562 12.0545 388.487 12.0457C388.326 12.0281 388.181 11.9998 388.008 11.9939C387.835 11.987 387.633 12.0017 387.443 12.0076C387.253 12.0125 387.051 12.0261 386.878 12.0193C386.705 12.0125 386.56 11.9831 386.405 11.9646C386.33 11.9558 386.237 11.9431 386.162 11.945C385.782 11.9528 385.401 11.9646 385.02 11.9753C384.593 11.9871 384.593 11.9871 383.988 11.9265C383.711 11.8991 383.434 11.9206 383.163 11.9284C382.874 11.9362 382.603 11.9401 382.378 11.901C382.228 11.8756 382.061 11.86 381.882 11.8649C381.404 11.8766 380.931 11.8913 380.452 11.903C380.371 11.905 380.262 11.9001 380.198 11.8913C379.892 11.8502 379.592 11.818 379.165 11.8385C378.796 11.8561 378.398 11.8571 378.029 11.8737C377.827 11.8825 377.735 11.9138 377.775 11.9382C377.798 11.9509 377.919 11.9656 378 11.9656C378.185 11.9665 378.387 11.9519 378.56 11.9577C378.917 11.9695 379.096 12.0516 379.563 12.0291C379.84 12.0154 380.129 12.0105 380.417 12.0066C380.492 12.0056 380.573 12.0242 380.654 12.034C380.884 12.0604 381.086 12.0946 381.421 12.077C381.698 12.0633 381.992 12.0594 382.275 12.0516C382.724 12.0389 382.725 12.0398 383.307 12.0995C383.584 12.1278 383.861 12.1053 384.132 12.0985C384.334 12.0936 384.524 12.0838 384.686 12.0975C384.934 12.118 385.113 12.1649 385.418 12.162C385.707 12.1591 385.989 12.1454 386.278 12.1405C386.457 12.1376 386.624 12.1532 386.768 12.1796C386.918 12.206 387.08 12.2177 387.276 12.2118C387.558 12.204 387.847 12.1943 388.135 12.1894C388.216 12.1884 388.308 12.1972 388.383 12.205C388.545 12.2226 388.7 12.2431 388.856 12.2617C389.139 12.2558 389.427 12.2539 389.704 12.2422C389.918 12.2334 390.068 12.2373 390.241 12.2568C390.46 12.2832 390.639 12.3301 390.996 12.3076C391.175 12.2969 391.383 12.2998 391.562 12.29C391.781 12.2773 391.931 12.2822 392.087 12.3115C392.381 12.3673 392.75 12.3682 393.131 12.3467C393.546 12.3233 393.857 12.3506 394.169 12.3937C394.498 12.4386 394.498 12.4376 394.752 12.5461C394.827 12.5774 395.04 12.5921 395.219 12.5862C395.519 12.5764 395.778 12.5813 395.997 12.6184C396.228 12.6585 396.505 12.6536 396.788 12.6429C397.163 12.6282 397.538 12.6155 397.843 12.6722C397.993 12.6996 398.155 12.7064 398.357 12.6996C398.928 12.682 399.505 12.6712 400.064 12.6497C400.405 12.636 400.601 12.6673 400.831 12.6937C401.143 12.7299 401.483 12.7621 401.483 12.8393C401.483 12.852 401.564 12.8667 401.633 12.8765C401.783 12.897 401.945 12.9146 402.1 12.9341C402.331 12.9635 402.556 12.9879 402.873 12.9723C403.15 12.9596 403.444 12.9556 403.727 12.9468C404.01 12.9381 404.269 12.9332 404.523 12.9703C404.817 13.0123 405.129 13.0524 405.463 13.0837C405.7 13.1062 406.011 13.068 406.265 13.0983C406.421 13.1169 406.571 13.1384 406.738 13.1541C406.807 13.1609 406.917 13.156 407.009 13.1541C407.2 13.1501 407.396 13.1472 407.58 13.1374C407.794 13.1267 407.955 13.1287 408.117 13.1511C408.267 13.1717 408.417 13.2 408.59 13.2059C408.849 13.2147 409.138 13.1756 409.397 13.2205C409.53 13.243 409.697 13.2645 409.87 13.2713C410.043 13.2782 410.245 13.2635 410.43 13.2645C410.511 13.2645 410.609 13.2801 410.655 13.2928C410.684 13.2997 410.643 13.3183 410.603 13.328C410.551 13.3398 410.476 13.3554 410.401 13.3574C409.83 13.375 409.259 13.3896 408.688 13.4062C408.348 13.416 408.348 13.416 407.661 13.3544C407.5 13.3398 407.321 13.3427 407.119 13.3495C406.848 13.3583 406.571 13.375 406.288 13.3574C405.919 13.2909 405.463 13.285 404.979 13.3104C404.777 13.3212 404.592 13.3212 404.442 13.3026C404.125 13.2655 403.791 13.2313 403.508 13.1873C403.289 13.1531 403.185 13.1502 403.093 13.1971C403.064 13.2117 403.035 13.2274 403.041 13.241C403.075 13.2899 403.139 13.3378 403.173 13.3867C403.185 13.4004 403.139 13.416 403.11 13.4307C403.018 13.4717 402.897 13.4688 402.695 13.4346C402.493 13.4004 402.25 13.3779 401.927 13.3935C401.651 13.4072 401.351 13.4053 401.074 13.4199C400.647 13.4414 400.347 13.4101 400.041 13.3681C399.978 13.3593 399.868 13.3544 399.787 13.3564C398.928 13.3789 398.074 13.4043 397.215 13.4268C397.03 13.4316 396.863 13.417 396.719 13.3906C396.569 13.3642 396.401 13.3505 396.217 13.3554C395.455 13.3759 394.694 13.3945 393.932 13.4199C393.621 13.4307 393.373 13.4179 393.16 13.3837C392.998 13.3583 392.848 13.3505 392.646 13.3534C392.427 13.3564 392.271 13.3662 392.162 13.3945C392.058 13.4219 392.133 13.4385 392.363 13.46C392.611 13.4834 392.842 13.5137 393.079 13.5411C393.269 13.5372 393.459 13.5294 393.644 13.5303C393.725 13.5303 393.8 13.5479 393.881 13.5577C394.111 13.5861 394.325 13.6144 394.653 13.5988C394.93 13.5851 395.224 13.5822 395.507 13.5734C395.899 13.5626 395.899 13.5626 396.534 13.6242C396.695 13.6398 396.868 13.6388 397.076 13.63C397.255 13.6232 397.44 13.6369 397.566 13.6662C397.618 13.6779 397.601 13.6975 397.492 13.762C397.492 13.8099 397.613 13.7884 397.653 13.7571C397.716 13.7121 397.595 13.6975 397.365 13.7219C397.203 13.7395 397.122 13.7649 397.163 13.7855C397.186 13.7962 397.295 13.8099 397.492 13.762C397.999 13.7034 398.386 13.6965 398.755 13.6809C398.974 13.6721 399.112 13.676 399.285 13.7014C399.493 13.7317 399.701 13.764 400.041 13.7483C400.41 13.7307 400.803 13.7288 401.177 13.7141C401.524 13.7004 401.702 13.7434 401.922 13.7688C402.187 13.7991 402.481 13.7649 402.723 13.7825C402.977 13.8001 403.156 13.8431 403.45 13.8509C403.877 13.8245 404.148 13.8734 404.471 13.9057C404.725 13.9301 405.025 13.9086 405.296 13.8978C405.602 13.8861 405.856 13.8969 406.069 13.9321C406.311 13.9721 406.582 13.9633 406.859 13.9545C407.505 13.935 407.528 13.9321 407.903 13.9858C408.174 14.0249 408.434 14.0073 408.705 14.0024C408.942 14.0288 409.172 14.0572 409.42 14.0806C409.484 14.0865 409.605 14.0767 409.703 14.0738C409.986 14.066 410.274 14.0581 410.557 14.0503C410.747 14.0454 410.949 14.0308 411.122 14.0366C411.295 14.0435 411.439 14.0718 411.595 14.0904C411.751 14.109 411.912 14.1275 412.062 14.1471C412.293 14.1764 412.512 14.2008 412.835 14.1862C413.112 14.1735 413.401 14.1696 413.689 14.1608C414.052 14.15 414.041 14.153 414.716 14.2116C415.079 14.2439 415.454 14.2048 415.823 14.2008C416.008 14.1989 416.187 14.2096 416.314 14.238C416.366 14.2497 416.348 14.2693 416.366 14.2859C415.414 14.3123 414.456 14.3347 413.516 14.367C413.152 14.3797 412.962 14.3445 412.766 14.3152C412.443 14.2683 412.016 14.3367 411.71 14.2761C411.526 14.2399 411.26 14.2194 410.943 14.237C410.759 14.2468 410.563 14.2458 410.372 14.2546C409.888 14.2761 409.443 14.2771 409.057 14.2096C408.924 14.1862 408.734 14.1735 408.596 14.151C408.434 14.1266 408.278 14.1129 408.088 14.1178C407.228 14.1412 406.375 14.1647 405.521 14.1901C405.446 14.192 405.371 14.2067 405.308 14.2175C405.146 14.2448 405.198 14.2663 405.458 14.2839C405.544 14.2898 405.613 14.3025 405.694 14.3123C405.85 14.3308 405.994 14.3602 406.167 14.367C406.34 14.3738 406.542 14.3602 406.732 14.3553C406.923 14.3504 407.125 14.3357 407.298 14.3416C407.471 14.3484 407.615 14.3768 407.776 14.3944C407.851 14.4032 407.944 14.4178 408.019 14.4168C408.4 14.411 408.774 14.4002 409.155 14.3914C409.392 14.4178 409.594 14.4559 409.876 14.4647C410.055 14.4706 410.245 14.4598 410.43 14.4618C410.511 14.4628 410.614 14.4774 410.655 14.4902C410.678 14.498 410.603 14.5175 410.545 14.5273C410.326 14.5644 410.026 14.5576 409.755 14.5693C409.461 14.582 409.195 14.5781 408.971 14.54C408.821 14.5146 408.653 14.5009 408.469 14.5058C407.99 14.5185 407.517 14.5332 407.038 14.5439C406.957 14.5459 406.859 14.5371 406.784 14.5302C406.179 14.4706 406.179 14.4687 405.752 14.4814C405.123 14.4999 405.123 14.4999 404.702 14.4481C404.621 14.4383 404.535 14.4198 404.465 14.4208C403.796 14.4364 403.133 14.452 402.47 14.4745C402.25 14.4814 402.1 14.4814 401.939 14.4559C401.8 14.4344 401.639 14.41 401.466 14.4041C401.287 14.3983 401.091 14.4129 400.901 14.4178C400.71 14.4227 400.508 14.4354 400.341 14.4276C400.168 14.4198 400.018 14.3924 399.868 14.3729C399.712 14.3523 399.545 14.3533 399.332 14.3611C398.674 14.3836 398.668 14.3807 398.016 14.3201C397.941 14.3132 397.843 14.3054 397.763 14.3074C397.284 14.3191 396.811 14.3338 396.332 14.3455C396.148 14.3504 395.969 14.3377 395.842 14.3093C395.79 14.2976 395.807 14.2781 395.773 14.2399C395.732 14.2311 395.778 14.2468 395.79 14.2614C395.876 14.2595 395.98 14.2614 396.044 14.2536C396.205 14.235 396.286 14.2106 396.245 14.1901C396.222 14.1793 396.113 14.1657 396.044 14.1657C395.917 14.1657 395.807 14.1872 395.773 14.2399C395.409 14.2722 395.023 14.279 394.648 14.2947C394.428 14.3044 394.29 14.2996 394.117 14.2742C393.909 14.2429 393.696 14.2126 393.356 14.2282C392.986 14.2458 392.594 14.2487 392.213 14.2624C391.775 14.2781 391.585 14.1901 391.216 14.192C390.835 14.194 390.454 14.2106 390.073 14.2223C389.739 14.2321 389.739 14.2321 389.047 14.1686C388.793 14.1451 388.493 14.1793 388.245 14.1549C388.078 14.1393 387.933 14.1158 387.772 14.0992C387.703 14.0924 387.593 14.0924 387.507 14.0943C387.028 14.106 386.543 14.1139 386.082 14.1354C385.557 14.1608 385.159 14.1334 384.784 14.0757C384.311 14.0865 383.832 14.0924 383.365 14.1109C383.025 14.1246 382.828 14.0924 382.598 14.066C382.517 14.0572 382.448 14.0425 382.361 14.0386C382.275 14.0347 382.171 14.0425 382.078 14.0454C381.698 14.0562 381.305 14.0611 380.936 14.0787C380.481 14.1012 380.308 14.021 379.956 14.0112C379.719 14.0591 379.592 14.1246 379.125 14.1295C378.744 14.1334 378.364 14.149 377.983 14.1598C377.793 14.1647 377.602 14.1705 377.412 14.1754C377.106 14.1842 376.962 14.2223 377.025 14.281C377.06 14.3132 377.089 14.3455 377.118 14.3778C377.175 14.4354 377.031 14.4843 376.789 14.4911C376.12 14.5097 375.456 14.5292 374.787 14.5459C374.608 14.5507 374.435 14.5341 374.291 14.5077C374.141 14.4813 373.974 14.4696 373.789 14.4745C373.12 14.4931 372.457 14.5126 371.788 14.5293C371.713 14.5312 371.615 14.5214 371.54 14.5136C371.378 14.496 371.222 14.4755 371.067 14.4569C370.686 14.4657 370.311 14.4716 369.936 14.4833C369.33 14.5009 369.33 14.5019 368.886 14.4481C368.805 14.4383 368.725 14.4198 368.65 14.4208C368.361 14.4247 368.079 14.4344 367.79 14.4432C366.942 14.4687 366.942 14.4686 366.694 14.4393C366.469 14.412 366.267 14.3787 365.927 14.3944C365.558 14.412 365.166 14.4178 364.785 14.4276C364.502 14.4344 364.22 14.4423 363.937 14.4442C363.862 14.4452 363.781 14.4266 363.701 14.4168C363.47 14.3865 363.245 14.3621 362.927 14.3787C362.743 14.3885 362.547 14.3905 362.356 14.3953C361.86 14.409 361.86 14.409 361.047 14.3504C360.966 14.3445 360.868 14.3377 360.787 14.3406C360.118 14.3582 359.455 14.3778 358.786 14.3944C358.705 14.3963 358.607 14.3905 358.526 14.3856C357.615 14.3289 357.615 14.3289 356.646 14.3563C356.277 14.366 356.265 14.3699 355.879 14.3181C355.706 14.2957 355.561 14.2849 355.359 14.2917C354.598 14.3152 353.831 14.3308 353.075 14.3582C352.735 14.3699 352.539 14.3406 352.308 14.3142C352.227 14.3054 352.141 14.2859 352.072 14.2869C351.31 14.3054 350.549 14.3279 349.787 14.3465C349.718 14.3484 349.631 14.3289 349.551 14.3201C349.395 14.3025 349.245 14.2761 349.072 14.2702C348.893 14.2644 348.697 14.279 348.501 14.2839C348.022 14.2966 348.022 14.2957 347.468 14.238C347.393 14.2302 347.295 14.2194 347.22 14.2214C346.459 14.2409 345.692 14.2575 344.936 14.2859C344.503 14.3015 344.209 14.2732 343.903 14.2321C343.84 14.2233 343.73 14.2194 343.65 14.2214C342.79 14.2438 341.936 14.2693 341.077 14.2917C340.898 14.2966 340.725 14.28 340.581 14.2546C340.35 14.2145 340.079 14.2194 339.791 14.2282C339.127 14.2487 339.122 14.2478 338.729 14.2008C338.648 14.1911 338.579 14.1784 338.493 14.1735C338.412 14.1686 338.308 14.1715 338.222 14.1735C337.841 14.1833 337.46 14.194 337.08 14.2048C336.699 14.2155 336.312 14.2214 335.937 14.238C335.476 14.2585 335.257 14.195 334.934 14.1657C334.461 14.1784 333.976 14.1862 333.509 14.2067C333.151 14.2223 332.984 14.1793 332.748 14.1569C332.667 14.149 332.58 14.1324 332.505 14.1344C331.646 14.1559 330.786 14.1793 329.933 14.2057C329.725 14.2116 329.586 14.2038 329.413 14.1803C329.027 14.1275 329.01 14.1295 328.364 14.149C328.081 14.1578 327.81 14.1657 327.567 14.1256C327.354 14.0894 327.095 14.0806 326.789 14.0923C326.414 14.107 326.027 14.1148 325.647 14.1246C325.266 14.1354 324.885 14.15 324.505 14.1549C324.199 14.1598 324.014 14.1139 323.772 14.0904C323.697 14.0836 323.593 14.0826 323.507 14.0845C323.126 14.0933 322.734 14.1002 322.365 14.1168C321.915 14.1373 321.667 14.0836 321.349 14.0523C321.28 14.0454 321.165 14.0494 321.078 14.0523C320.409 14.0699 319.746 14.0894 319.076 14.108C318.84 14.0816 318.598 14.0562 318.361 14.0298C317.98 14.0396 317.6 14.0503 317.219 14.0601C316.931 14.0679 316.636 14.0709 316.365 14.0855C316.013 14.1051 315.84 14.0591 315.604 14.0366C315.523 14.0288 315.437 14.0122 315.362 14.0142C314.883 14.0249 314.404 14.0366 313.931 14.0533C313.481 14.0699 313.302 13.9819 312.933 13.9829C312.552 13.9839 312.16 13.9966 311.791 14.0142C311.364 14.0347 311.064 14.0034 310.759 13.9614C310.695 13.9526 310.586 13.9477 310.505 13.9497C310.026 13.9614 309.553 13.976 309.074 13.9878C308.993 13.9897 308.895 13.9848 308.815 13.979C307.903 13.9213 307.903 13.9203 307.505 13.9321C307.223 13.9399 306.934 13.9497 306.646 13.9545C306.565 13.9565 306.467 13.9477 306.392 13.9399C305.792 13.8803 305.792 13.8793 305.359 13.891C304.979 13.9018 304.598 13.9125 304.217 13.9233C303.981 13.8969 303.738 13.8715 303.502 13.8451C303.029 13.8578 302.544 13.8675 302.077 13.8851C301.858 13.893 301.714 13.89 301.546 13.8656C301.339 13.8363 301.131 13.8021 300.785 13.8187C300.416 13.8363 300.024 13.8382 299.649 13.8529C299.199 13.8705 299.014 13.7815 298.651 13.7825C298.27 13.7835 297.878 13.7962 297.509 13.8138C297.082 13.8343 296.782 13.8031 296.476 13.761C296.413 13.7522 296.303 13.7473 296.222 13.7493C295.172 13.7776 294.128 13.806 293.079 13.8363C292.433 13.8548 292.433 13.8558 291.204 13.8021C291.117 13.7982 291.025 13.7943 290.938 13.7962C290.558 13.805 290.165 13.8118 289.796 13.8285C289.346 13.849 289.098 13.7962 288.781 13.7639C288.712 13.7571 288.602 13.761 288.51 13.763C288.222 13.7698 287.939 13.7786 287.65 13.7864C287.27 13.7972 286.889 13.8079 286.508 13.8187C286.272 13.7933 286.03 13.7669 285.793 13.7415C285.32 13.7542 284.836 13.761 284.368 13.7815C284.011 13.7972 283.843 13.7561 283.607 13.7327C283.526 13.7249 283.44 13.7082 283.365 13.7092C282.505 13.7307 281.646 13.7532 280.792 13.7806C280.44 13.7923 280.279 13.7483 280.042 13.7258C279.961 13.719 279.869 13.7063 279.794 13.7082C279.223 13.7219 278.652 13.7385 278.081 13.7552C277.758 13.7649 277.758 13.7649 277.054 13.7043C276.973 13.6975 276.881 13.6906 276.8 13.6926C274.989 13.7415 273.183 13.7933 271.372 13.8421C271.188 13.847 271.02 13.8324 270.876 13.806C270.726 13.7796 270.559 13.7659 270.374 13.7708C269.613 13.7913 268.846 13.8099 268.09 13.8353C267.779 13.8461 267.53 13.8333 267.317 13.7991C267.155 13.7737 267.006 13.764 266.804 13.7698C266.423 13.7815 266.042 13.7913 265.662 13.8021C265.281 13.8128 264.9 13.8236 264.519 13.8343C264.139 13.8451 263.752 13.8509 263.377 13.8676C262.916 13.8881 262.691 13.8275 262.374 13.7972C261.803 13.8118 261.231 13.8265 260.666 13.8421C259.905 13.8627 259.143 13.8851 258.382 13.9047C258.313 13.9067 258.226 13.8891 258.145 13.8803C257.909 13.8558 257.736 13.8216 257.384 13.8324C255.676 13.8842 253.958 13.9282 252.244 13.979C251.887 13.9897 251.731 13.9477 251.489 13.9252C251.408 13.9184 251.316 13.9047 251.241 13.9067C250.289 13.9311 249.337 13.9584 248.385 13.9848C247.999 13.9956 247.999 13.9956 247.353 13.935C247.278 13.9281 247.18 13.9193 247.099 13.9213C245.859 13.9545 244.624 13.9897 243.384 14.0239C243.2 14.0288 243.032 14.0151 242.882 13.9888C242.738 13.9624 242.565 13.9477 242.386 13.9526C241.244 13.9839 240.096 14.0142 238.96 14.0484C238.654 14.0581 238.4 14.0493 238.181 14.0142C238.025 13.9888 237.87 13.978 237.674 13.9839C235.96 14.0318 234.247 14.0777 232.534 14.1285C232.205 14.1383 231.974 14.1197 231.767 14.0875C231.599 14.0621 231.455 14.0572 231.247 14.0611C231.028 14.066 230.896 14.0767 230.775 14.106C230.619 14.1442 230.521 14.192 230.152 14.195C229.771 14.1979 229.384 14.2096 229.009 14.2263C228.652 14.2429 228.484 14.1989 228.26 14.1725C228.092 14.1539 227.937 14.151 227.723 14.1598C227.527 14.1676 227.406 14.1842 227.29 14.2155C227.037 14.282 227.014 14.282 226.702 14.2399C226.535 14.2175 226.385 14.1999 226.2 14.2038C225.439 14.2233 224.677 14.2448 223.916 14.2673C223.478 14.28 223.472 14.282 223.143 14.2331C222.982 14.2087 222.826 14.1969 222.635 14.2028C220.541 14.2614 218.448 14.3181 216.354 14.3797C216.031 14.3895 215.811 14.369 215.581 14.3396C215.506 14.3299 215.431 14.3162 215.344 14.3123C215.258 14.3084 215.16 14.3123 215.067 14.3142C213.545 14.3562 212.016 14.3963 210.499 14.4432C210.153 14.454 209.968 14.4227 209.732 14.3973C209.651 14.3885 209.582 14.3748 209.495 14.3709C209.409 14.368 209.305 14.3748 209.212 14.3778C207.69 14.4198 206.161 14.4599 204.644 14.5068C204.281 14.5175 204.125 14.4765 203.888 14.455C203.807 14.4471 203.721 14.4325 203.646 14.4344C203.167 14.4452 202.694 14.4598 202.215 14.4726C201.073 14.5048 199.931 14.5351 198.789 14.5683C198.351 14.5811 198.16 14.4941 197.791 14.498C197.312 14.5029 196.839 14.5224 196.36 14.5361C195.98 14.5468 195.599 14.5566 195.218 14.5683C194.843 14.5791 194.843 14.5791 193.909 14.5224C193.828 14.5175 193.73 14.5107 193.649 14.5126C192.317 14.5488 190.979 14.585 189.652 14.6241C189.346 14.6329 189.092 14.628 188.873 14.5918C188.717 14.5664 188.556 14.5537 188.366 14.5595C186.364 14.6153 184.368 14.671 182.366 14.7257C182.291 14.7277 182.193 14.7179 182.118 14.7101C181.957 14.6925 181.801 14.672 181.645 14.6534C181.53 14.6759 181.38 14.6964 181.305 14.7218C181.201 14.756 181.063 14.7658 180.844 14.7716C180.624 14.7775 180.486 14.7756 180.313 14.7501C180.105 14.7189 179.892 14.6944 179.552 14.7042C177.458 14.7658 175.364 14.8215 173.27 14.8821C172.924 14.8919 172.762 14.8488 172.52 14.8264C172.439 14.8195 172.347 14.8088 172.272 14.8107C171.412 14.8332 170.559 14.8577 169.699 14.8811C167.317 14.9476 164.935 15.0111 162.558 15.0815C162.125 15.0942 161.831 15.0697 161.525 15.0277C161.462 15.0189 161.352 15.014 161.272 15.016C157.938 15.1079 154.603 15.2007 151.275 15.2936C151.096 15.2985 150.923 15.2828 150.779 15.2574C150.629 15.231 150.462 15.2183 150.277 15.2232C148.754 15.2652 147.232 15.3073 145.709 15.3503C145.328 15.361 145.322 15.362 144.93 15.3151C144.849 15.3053 144.763 15.2867 144.699 15.2887C144.567 15.2936 144.44 15.318 144.347 15.3512C144.255 15.3864 144.111 15.3962 143.897 15.403C143.678 15.4099 143.534 15.4069 143.367 15.3835C143.153 15.3542 142.957 15.3258 142.611 15.3356C138.233 15.4607 133.855 15.5809 129.476 15.705C129.125 15.7148 128.963 15.6738 128.721 15.6513C128.64 15.6445 128.559 15.6347 128.473 15.6327C128.38 15.6308 128.282 15.6366 128.19 15.6396C121.049 15.838 113.908 16.0374 106.767 16.2358C106.34 16.2475 106.345 16.2475 105.878 16.3374C105.82 16.3482 105.745 16.3628 105.665 16.3648C103.478 16.4273 101.287 16.4879 99.0946 16.5485C98.1428 16.5749 97.191 16.6023 96.2393 16.6277C95.8989 16.6365 95.8989 16.6365 95.0856 16.7421C95.0164 16.7509 94.9355 16.7626 94.8548 16.7645C91.0477 16.8711 87.2405 16.9776 83.4276 17.0822C83.1277 17.09 82.8855 17.1076 82.747 17.1545C82.6489 17.1878 82.5221 17.2073 82.3317 17.2132C79.6667 17.2874 77.0018 17.3627 74.3311 17.435C74.0138 17.4438 73.8234 17.4712 73.6676 17.5123C73.6157 17.5259 73.5695 17.5416 73.4945 17.5513C73.4253 17.5601 73.3215 17.5631 73.235 17.566C70.9507 17.6295 68.6665 17.695 66.3765 17.7556C66.0362 17.7644 65.8976 17.8006 65.7304 17.8387C65.6727 17.8514 65.6323 17.869 65.5573 17.8778C65.4823 17.8856 65.3727 17.8856 65.2804 17.8876C63.3769 17.9403 61.4734 17.9941 59.5698 18.0469C59.2006 18.042 59.1198 18.0987 58.941 18.1329C58.8775 18.1446 58.8315 18.1603 58.7565 18.1681C58.6758 18.1759 58.5718 18.1749 58.4737 18.1769C56.9509 18.2189 55.4281 18.2639 53.8995 18.303C53.5476 18.3118 53.4783 18.3616 53.288 18.3958C53.2245 18.4066 53.1612 18.4232 53.0862 18.4261C52.1344 18.4545 51.1826 18.4808 50.2309 18.5063C49.9136 18.515 49.9136 18.5141 49.3541 18.6108C49.2906 18.6216 49.2156 18.6333 49.1348 18.6363C47.71 18.6773 46.2795 18.7164 44.849 18.7565C44.6644 18.7614 44.5375 18.7848 44.4452 18.818C44.3529 18.8513 44.2203 18.8728 44.0357 18.8777C42.8935 18.9099 41.7513 18.9431 40.6092 18.9725C40.2919 18.9803 40.0843 19.0047 39.9459 19.0487C39.842 19.0819 39.7151 19.0985 39.5132 19.1044C38.3711 19.1357 37.229 19.1699 36.0811 19.1973C35.7465 19.2051 35.5734 19.2383 35.435 19.2794C35.3254 19.3126 35.1984 19.3243 34.985 19.3302C32.8911 19.3869 30.7915 19.4436 28.7033 19.5061C28.3515 19.5169 28.1726 19.4827 27.9419 19.4582C27.6131 19.424 27.3074 19.3869 27.3074 19.3106C27.3074 19.2989 27.2094 19.2852 27.1401 19.2755C26.6267 19.2022 26.6267 19.2022 26.546 19.124C26.4998 19.0761 26.4479 19.0272 26.4075 18.9783C26.3326 18.8982 26.1479 18.8777 25.6172 18.8923C25.4269 18.8972 25.2365 18.904 25.0461 18.908C24.7635 18.9148 24.5501 18.8825 24.4982 18.8239C24.4693 18.7916 24.4348 18.7594 24.4059 18.7271C24.6944 18.7193 24.6885 18.7184 25.1961 18.6001C25.4096 18.5502 25.4096 18.5502 25.0001 18.5004C24.8444 18.4818 24.6943 18.4613 24.5271 18.4437C24.4521 18.4359 24.354 18.431 24.2733 18.4329C23.7945 18.4447 23.3215 18.4584 22.8485 18.472C22.0871 18.4935 22.087 18.4935 21.314 18.3938C21.2506 18.386 21.1525 18.3714 21.1641 18.3636C21.2275 18.3274 21.3832 18.3117 21.5794 18.3078C21.8678 18.302 22.1504 18.2922 22.4331 18.2844C22.6234 18.2795 22.8138 18.2736 23.0041 18.2688C23.1829 18.2316 23.3676 18.1954 23.5349 18.1573C23.8003 18.0987 23.8002 18.0967 23.4368 18.0557C23.206 18.0283 22.958 18.0039 22.7215 17.9785C22.4388 17.9863 22.1504 17.9951 21.8678 18.0019C21.5101 18.0107 21.3659 17.9921 21.2736 17.9286C21.1929 17.8729 21.2909 17.825 21.5678 17.8133C21.8505 17.8016 22.1159 17.7937 22.2601 17.7439C22.3986 17.696 22.6408 17.6774 22.9408 17.6735C23.1311 17.6706 23.3215 17.6637 23.5118 17.6579C23.7599 17.6501 23.8926 17.6002 23.8407 17.5445C23.8118 17.5083 23.7541 17.478 23.5291 17.4702C22.5312 17.436 22.5196 17.437 22.0235 17.3705C21.9774 17.3647 21.9429 17.3471 21.9602 17.3383C21.989 17.3236 22.0525 17.3021 22.1217 17.2992C22.7851 17.2777 23.4484 17.2581 24.1117 17.2435C24.3309 17.2386 24.4925 17.2317 24.5675 17.1956C24.6713 17.1457 24.6252 17.0998 24.4233 17.0656C24.3598 17.0548 24.2559 17.0411 24.1867 17.0421C23.4252 17.0597 22.6696 17.0822 21.9082 17.0998C21.839 17.1017 21.7121 17.0851 21.6833 17.0724C21.6256 17.049 21.7121 17.0177 21.914 17.0069C22.1793 16.9923 22.4504 16.9913 22.6292 16.9424C22.8773 16.873 23.183 16.8095 23.4599 16.743C23.506 16.7313 23.5811 16.7088 23.5638 16.7069C23.4196 16.6854 23.2523 16.6688 23.1023 16.6482C22.8485 16.614 22.8484 16.5661 22.9061 16.5202C22.9523 16.4831 23.1253 16.4684 23.3387 16.4684C23.431 16.4684 23.5464 16.4684 23.6214 16.4596C23.8175 16.4381 23.881 16.4107 23.7829 16.3902C23.7252 16.3785 23.6215 16.3619 23.5522 16.3638C22.3178 16.3961 21.0775 16.4273 19.8489 16.4674C19.4854 16.4791 19.3183 16.442 19.0991 16.4156C18.9318 16.3951 18.776 16.3873 18.5683 16.4019C18.3722 16.4156 18.1819 16.4078 18.0607 16.3755C17.9627 16.3492 18.1357 16.3267 18.6029 16.3013C18.6895 16.2964 18.7875 16.2934 18.8509 16.2837C19.5201 16.1781 19.52 16.1771 19.9815 16.1634C20.4314 16.1507 20.4316 16.1498 20.6681 16.0931C20.7777 16.0667 20.8987 16.0403 21.0025 16.0129C21.0429 16.0022 21.1122 15.9826 21.0891 15.9768C20.9622 15.9465 20.7891 15.9396 20.5872 15.9465C20.1373 15.9631 19.6067 15.9494 19.3702 16.0423C19.2779 16.0774 19.1337 16.0872 18.926 16.0931C16.8379 16.1498 14.7496 16.2104 12.6557 16.2651C12.3154 16.2739 12.1597 16.3101 12.0271 16.3501C11.9117 16.3834 11.7848 16.3931 11.5656 16.399C11.3464 16.4049 11.1732 16.4078 11.0463 16.3755C10.9714 16.356 11.0348 16.3286 11.2079 16.3013C11.4559 16.2622 11.4097 16.2133 11.329 16.1674C11.2713 16.1371 11.0925 16.1156 10.9021 16.1175C10.6195 16.1214 10.3484 16.1322 10.1119 16.0931C9.9735 16.0706 9.80042 16.0549 9.64467 16.0354C9.34472 15.9953 9.04475 15.9543 8.62366 15.9807C8.33524 15.9709 8.13335 15.9357 7.90262 15.9083C7.51614 15.8634 7.48153 15.8565 7.75841 15.8087C8.0699 15.7549 7.82758 15.6845 8.00063 15.6317C8.18522 15.5751 8.43911 15.5252 8.66408 15.4724C8.72176 15.4588 8.7737 15.446 8.83138 15.4324C8.69871 15.4128 8.5776 15.3884 8.42185 15.3747C8.21996 15.3571 8.11613 15.3356 8.12766 15.275C8.08728 15.2662 8.10447 15.2887 8.15062 15.2945C8.20253 15.3004 8.32953 15.2955 8.39298 15.2887C8.5545 15.2701 8.63517 15.2457 8.59479 15.2252C8.57172 15.2144 8.4622 15.2007 8.39298 15.2007C8.26608 15.2007 8.1565 15.2222 8.12189 15.275C7.47583 15.3151 6.8066 15.3346 6.13747 15.3503C6.06825 15.3522 5.98177 15.3327 5.90101 15.3229C5.63567 15.2897 5.63564 15.2906 4.85691 15.2809C4.77615 15.2799 4.66661 15.2662 4.62623 15.2525C4.45895 15.1929 4.46476 15.1274 4.38401 15.0639C4.53398 15.0228 4.68384 14.9828 4.83959 14.9427C5.15108 14.8616 5.55495 14.7902 5.79722 14.7013C5.74531 14.6534 5.67608 14.6055 5.92988 14.5664C6.65093 14.5175 6.64521 14.5175 6.84133 14.4706C7.40086 14.3377 7.95459 14.2038 8.53719 14.0728C8.69294 14.0386 8.69296 14.02 8.41608 14.0054C8.32955 14.0015 8.23714 14.0005 8.14484 14.0024C7.85642 14.0093 7.56801 14.0269 7.28536 14.023C7.00271 14.02 6.79505 13.977 6.56432 13.9506C6.32782 13.9233 6.09133 13.8949 5.85482 13.8666C5.58371 13.8695 5.31265 13.8969 5.04154 13.8529C4.83388 13.8187 4.57432 13.7942 4.33781 13.7659C4.51663 13.6916 4.85125 13.6349 5.11082 13.5694C5.34733 13.5098 5.35296 13.5108 5.98748 13.4649C6.28744 13.4434 6.39127 13.3329 6.13747 13.3007C5.83174 13.2616 5.50878 13.2254 5.19729 13.1883C4.92618 13.1912 4.64936 13.2176 4.38978 13.1736C4.18789 13.1404 3.95711 13.1179 3.62254 13.1306C3.05724 13.1521 2.48043 13.1629 1.90936 13.1804C1.71323 13.1863 1.49974 13.1824 1.41322 13.1492C1.35554 13.1257 1.52283 13.0935 1.71318 13.0866C2.0016 13.0768 2.26115 13.0651 2.40536 13.0163C2.5438 12.9674 2.79758 12.9527 3.09753 12.9459C3.17829 12.9439 3.27065 12.9322 3.31103 12.9205C3.51869 12.8638 3.74944 12.8149 4.1936 12.8169C4.37819 12.7973 4.47619 12.7729 4.41851 12.7494C4.3839 12.7367 4.26283 12.7201 4.1936 12.7221C3.71483 12.7318 3.23607 12.7416 2.76884 12.7592C2.54964 12.767 2.38227 12.769 2.24383 12.7396C2.14577 12.7201 2.19768 12.6937 2.38226 12.6654C2.54378 12.6409 2.58997 12.6126 2.57844 12.5793C2.5496 12.5021 2.37651 12.4797 1.82275 12.4845C1.42473 12.4885 1.32667 12.4757 1.24014 12.4093C1.21707 12.3936 1.15948 12.3721 1.19986 12.3614C1.4479 12.2949 1.60943 12.2128 2.07666 12.1816C2.26125 12.1698 2.4573 12.1698 2.57266 12.1444C2.68803 12.119 2.79191 12.0897 2.91305 12.0652C3.06302 12.0359 3.16675 12.0086 3.09753 11.99C2.98217 11.9568 2.79764 11.9538 2.58421 11.9656C2.39962 11.9753 2.20351 11.9763 2.01315 11.9822C1.67282 11.9929 1.396 11.9675 1.35562 11.9245C1.24602 11.8111 1.13062 11.6987 1.03256 11.5853C1.02102 11.5717 1.04978 11.5541 1.09593 11.5423C1.25744 11.5013 1.43056 11.4622 1.59785 11.4221C1.79397 11.3762 2.10551 11.385 2.37086 11.3762C2.7458 11.3635 2.74567 11.3644 3.24752 11.2706C3.44364 11.2335 3.78399 11.2481 3.98588 11.2149C4.04933 11.2042 4.1474 11.1866 4.13009 11.1768C4.10702 11.1641 3.99171 11.1543 3.90519 11.1484C3.82443 11.1426 3.72639 11.1397 3.63987 11.1426C2.59002 11.1709 1.54598 11.2012 0.49614 11.2286C0.317321 11.2335 0.121192 11.212 0.0577399 11.1817C-0.00571202 11.1533 0.0115367 11.1191 0 11.0869C0.167282 11.0468 0.357565 11.0097 0.501774 10.9667C0.611372 10.9334 0.738299 10.9188 0.957496 10.9168C1.24591 10.9139 1.52859 10.9021 1.85162 10.8933C2.45153 10.7506 3.03986 10.6011 3.68592 10.4584C3.94549 10.4007 3.88214 10.3421 3.93406 10.2805C3.98597 10.2238 4.37243 10.2326 4.63201 10.216C4.83967 10.2023 4.9088 10.1711 4.82804 10.1496C4.78189 10.1368 4.67812 10.1222 4.59736 10.1222C4.40701 10.1222 4.21666 10.131 4.0263 10.1359C3.83594 10.1408 3.61676 10.1378 3.46101 10.1544C3.31104 10.1701 3.21292 10.2033 3.11485 10.2317C3.00526 10.2629 2.86115 10.2737 2.64195 10.2756C2.3593 10.2776 2.07667 10.2864 1.79402 10.2932C1.48253 10.2551 1.15943 10.218 0.859479 10.1779C0.801796 10.1701 0.790197 10.1476 0.795965 10.1329C0.807502 10.0948 0.720999 10.0714 0.530644 10.0528C0.36913 10.0372 0.236446 10.0147 0.086469 9.99513C0.201836 9.96874 0.328785 9.94332 0.421079 9.91498C0.622971 9.85536 0.876807 9.81236 1.3152 9.81431C1.48825 9.7762 1.62665 9.72928 1.85162 9.70289C2.06505 9.67748 2.42847 9.70288 2.58999 9.64522C2.67074 9.61687 2.79195 9.58462 2.94769 9.57289C3.19573 9.55432 3.51875 9.5641 3.66296 9.50937C3.74949 9.47809 3.87634 9.44974 4.04362 9.44192C4.23398 9.43313 4.43005 9.43118 4.56849 9.41261C4.64348 9.40283 4.72425 9.38719 4.72425 9.37351C4.72425 9.36471 4.60897 9.35103 4.52821 9.34516C4.45323 9.33832 4.35505 9.33344 4.26853 9.33539C3.98011 9.34126 3.69746 9.35201 3.40905 9.35787C3.32829 9.35982 3.23602 9.35298 3.1495 9.34712C2.89569 9.33148 2.91296 9.31194 3.11485 9.27675C3.31675 9.24254 3.46104 9.19855 3.62832 9.15848C3.8129 9.15164 4.0436 9.15457 4.17051 9.136C4.38394 9.1057 4.53388 9.06172 4.70693 9.0236C4.89728 9.01773 5.09339 9.01578 5.27221 9.00503C5.3472 9.00112 5.38184 8.97962 5.44529 8.96691C5.56066 8.94248 5.6588 8.90729 5.81455 8.89557C6.06835 8.87797 6.37984 8.88481 6.52982 8.83105C6.61634 8.79978 6.74896 8.76655 6.91048 8.7646C7.36041 8.76069 7.55077 8.70692 7.7815 8.6561C7.95455 8.61798 8.32374 8.63753 8.5141 8.59941C8.641 8.57498 8.73335 8.54467 8.86025 8.52122C8.91217 8.51144 9.02173 8.50656 9.10825 8.50363C9.58126 8.48897 10.06 8.47821 10.533 8.46258C10.608 8.45964 10.6773 8.44499 10.735 8.43326C10.8561 8.40785 10.931 8.37266 11.081 8.35604C11.231 8.33943 11.4444 8.33943 11.629 8.33454C12.2231 8.31988 12.2693 8.32378 12.5404 8.24071C12.7596 8.17327 13.2961 8.22116 13.4749 8.14688C13.5788 8.10387 13.769 8.06869 14.1094 8.0638C14.5881 8.05696 15.0611 8.03839 15.5399 8.02568C15.9668 8.01396 15.961 8.01395 16.4225 7.92305C16.6301 7.882 16.9359 7.88787 17.207 7.88005C17.4955 7.87223 17.7608 7.86051 17.8992 7.81164C18.0377 7.76375 18.2914 7.7481 18.5856 7.74126C18.8567 7.73442 19.1625 7.73931 19.376 7.70022C19.8951 7.60639 19.8893 7.6054 20.2528 7.59563C20.8238 7.57999 21.3949 7.56435 21.9659 7.54774C22.3466 7.53699 22.7446 7.53503 23.1023 7.51353C23.3619 7.49789 23.4772 7.44316 23.6445 7.40504C24.1175 7.39038 24.5905 7.37572 25.0635 7.36203C25.7268 7.34248 26.3959 7.3249 27.0651 7.30633C27.3535 7.26918 27.394 7.18708 27.8785 7.18317C28.1669 7.18122 28.4496 7.16851 28.738 7.1607C29.2168 7.14701 29.6897 7.12942 30.1685 7.12258C30.5319 7.11769 30.5953 7.0649 30.7856 7.03167C30.8491 7.01994 30.9068 7.00333 30.9818 7.0004C31.7317 6.97303 32.5046 6.96717 33.2372 6.9271C33.3122 6.92319 33.3814 6.90266 33.3987 6.888C33.4102 6.88018 33.3122 6.86553 33.2487 6.85869C33.1737 6.85087 33.0757 6.84305 32.995 6.845C30.6126 6.91049 28.2304 6.97695 25.848 7.04244C25.5135 7.05221 25.5135 7.05123 24.7001 7.15874C24.6309 7.16753 24.5501 7.17731 24.4635 7.18024C24.0828 7.19197 23.6964 7.19882 23.3214 7.21348C23.0157 7.22521 22.762 7.21347 22.5428 7.17828C22.387 7.15287 22.2254 7.14506 22.0293 7.14701C21.8101 7.14994 21.666 7.1607 21.5391 7.18709C21.3718 7.22325 21.2852 7.27016 20.9334 7.27993C19.3125 7.32196 17.6915 7.36888 16.0763 7.41384C15.8514 7.40015 15.7418 7.37963 15.7995 7.3552C15.8341 7.34053 15.9033 7.32099 15.9725 7.31903C16.6359 7.29851 17.305 7.28092 17.9684 7.26137C18.0607 7.25844 18.1875 7.26038 18.2395 7.25061C18.4933 7.20662 18.5857 7.13528 19.0644 7.13039C19.3413 7.12746 19.6239 7.1128 19.8893 7.09912C19.9643 7.09521 20.0335 7.07468 20.0508 7.06002C20.0566 7.0522 19.9643 7.03754 19.895 7.03069C19.6412 7.00235 19.3471 7.03657 19.0933 7.01702C19.0068 7.01018 18.8856 7.0004 18.8683 6.98867C18.8567 6.97792 18.9548 6.96033 19.024 6.94958C19.0875 6.9398 19.1739 6.93101 19.2605 6.92808C20.0219 6.9056 20.7834 6.88214 21.5449 6.86454C21.8563 6.8577 22.0755 6.83326 22.2139 6.7883C22.3178 6.75507 22.4447 6.73748 22.6408 6.7326C23.9733 6.69643 25.3057 6.65636 26.644 6.62313C26.9786 6.61531 27.1517 6.58306 27.2901 6.54103C27.3997 6.5078 27.5266 6.49607 27.7401 6.49021C29.6494 6.43938 31.5471 6.3827 33.4565 6.33383C33.8083 6.32503 33.9122 6.283 34.091 6.24684C34.1545 6.23413 34.1948 6.21849 34.2755 6.21067C34.3563 6.20285 34.4601 6.20382 34.5582 6.20187C36.081 6.15984 37.604 6.11489 39.1326 6.07579C39.4902 6.067 39.5593 6.01812 39.7439 5.98391C39.8074 5.97316 39.8651 5.95557 39.9401 5.95264C41.0822 5.91941 42.2243 5.88813 43.3664 5.85588C44.1279 5.83438 44.8893 5.81287 45.6507 5.79235C46.0256 5.78257 46.0257 5.78159 46.5333 5.68874C46.591 5.67799 46.6718 5.66528 46.7468 5.66235C48.9387 5.59979 51.1249 5.54018 53.3169 5.47861C53.5014 5.47372 53.6341 5.45123 53.7264 5.418C53.8187 5.38477 53.9515 5.36229 54.1303 5.3574C55.8435 5.30853 57.5566 5.26064 59.2756 5.21471C59.5871 5.20689 59.8062 5.18343 59.9447 5.13944C60.0485 5.10621 60.1754 5.08863 60.3715 5.08374C62.0847 5.03682 63.798 4.98697 65.517 4.94201C65.8458 4.93321 66.0072 4.89999 66.1688 4.86089C66.2264 4.84721 66.2726 4.82473 66.3418 4.82277C67.1956 4.7954 68.0435 4.76706 68.903 4.74849C69.2606 4.74067 69.3818 4.69962 69.526 4.66052C69.6414 4.62924 69.7741 4.6185 69.9933 4.61459C70.472 4.60579 70.945 4.58918 71.4122 4.57256C71.4815 4.56963 71.568 4.54813 71.5738 4.53445C71.5853 4.50903 71.4526 4.49144 71.2334 4.48264C68.9491 4.54617 66.6592 4.6097 64.3749 4.67323C63.9999 4.68398 63.9999 4.68398 63.4923 4.77684C63.4346 4.78759 63.3538 4.8003 63.273 4.80323C61.0811 4.8648 58.8949 4.9254 56.7029 4.98698C56.5184 4.99186 56.3857 5.01434 56.2934 5.04758C56.2011 5.08081 56.0683 5.10329 55.8895 5.10817C53.7956 5.16682 51.7018 5.22644 49.6021 5.28215C49.2906 5.28997 49.0714 5.31244 48.933 5.3574C48.8292 5.39063 48.7023 5.40823 48.5061 5.41312C46.5045 5.46785 44.5086 5.52551 42.5012 5.57829C42.2993 5.58318 42.1494 5.55483 42.1609 5.52844C42.1667 5.51476 42.2531 5.49229 42.3223 5.49034C43.3664 5.45808 44.4048 5.42485 45.4547 5.40041C45.8065 5.39259 45.9103 5.34959 46.0891 5.31342C46.1468 5.30072 46.193 5.2841 46.2679 5.27726C46.3487 5.26944 46.4525 5.27042 46.5506 5.26847C49.0252 5.19907 51.4999 5.1287 53.9803 5.06322C54.3379 5.05344 54.4071 5.00555 54.5916 4.97134C54.6551 4.95961 54.7128 4.94202 54.7878 4.94006C55.5492 4.91661 56.3106 4.89608 57.0721 4.87555C58.4045 4.83841 59.737 4.80127 61.0753 4.76413C61.4617 4.75338 61.4618 4.75337 61.9578 4.6615C62.0155 4.65075 62.0963 4.63707 62.1713 4.63512C65.6958 4.5364 69.2203 4.43768 72.7448 4.33995C72.9294 4.33506 73.062 4.31258 73.1543 4.27935C73.2466 4.24709 73.3792 4.22364 73.5581 4.21777C78.3227 4.08485 83.0816 3.95192 87.8463 3.82094C88.1578 3.81215 88.3769 3.79162 88.5154 3.74568C88.6134 3.71245 88.7461 3.69486 88.9422 3.689C94.1799 3.54337 99.4175 3.39774 104.661 3.25113C108.185 3.15339 111.71 3.0537 115.234 2.95791C115.557 2.94912 115.73 2.91881 115.892 2.87874C115.944 2.86505 115.996 2.84257 116.065 2.84062C116.821 2.81618 117.576 2.79371 118.332 2.77123C118.568 2.79762 118.805 2.82303 119.041 2.84942C119.22 2.81228 119.393 2.77416 119.572 2.73702C120.714 2.70868 121.839 2.66469 122.993 2.65101C123.068 2.65003 123.149 2.66861 123.229 2.67838C123.766 2.73996 124.071 2.73507 124.412 2.65297C124.533 2.62364 124.637 2.59726 124.821 2.59237C125.392 2.57478 125.969 2.56305 126.535 2.54252C126.84 2.53177 127.094 2.54154 127.313 2.57673C127.469 2.60214 127.631 2.6129 127.821 2.60703C128.871 2.57771 129.915 2.54936 130.965 2.51809C131.04 2.51613 131.109 2.49951 131.167 2.48778C131.288 2.46237 131.392 2.43501 131.507 2.40862C131.663 2.42523 131.836 2.43794 131.963 2.45944C132.124 2.48486 132.274 2.48485 132.493 2.47801C136.681 2.35975 140.875 2.24441 145.063 2.12517C145.42 2.1154 145.576 2.15645 145.818 2.17796C145.899 2.18577 145.98 2.19554 146.066 2.1975C146.159 2.19945 146.257 2.19359 146.349 2.19066C149.493 2.1027 152.636 2.0157 155.78 1.92774C156.196 1.91601 156.196 1.91601 156.813 1.97661C156.888 1.98443 156.986 1.99322 157.067 1.99029C158.497 1.95217 159.928 1.91113 161.352 1.87203C161.537 1.86714 161.693 1.88278 161.86 1.90526C162.189 1.94924 162.212 1.94925 162.454 1.88474C162.569 1.85444 162.691 1.83586 162.881 1.82706C163.089 1.81729 163.256 1.82023 163.417 1.83783C163.648 1.86226 163.816 1.9033 164.167 1.89255C165.69 1.84662 167.219 1.8085 168.736 1.76159C169.082 1.75083 169.267 1.78406 169.497 1.8085C169.578 1.8173 169.653 1.83098 169.74 1.83391C169.826 1.83684 169.93 1.83 170.022 1.82706C171.926 1.77428 173.835 1.72249 175.733 1.6658C176.09 1.65505 176.246 1.69707 176.489 1.71857C176.569 1.72639 176.662 1.74008 176.737 1.73813C177.879 1.70783 179.027 1.67557 180.169 1.64331C180.578 1.63158 180.578 1.63256 181.201 1.69218C181.276 1.7 181.374 1.70782 181.455 1.70587C182.788 1.6697 184.126 1.63256 185.458 1.59542C185.868 1.58369 185.868 1.5837 187.05 1.63452C187.137 1.63843 187.229 1.6443 187.316 1.64235C188.839 1.60032 190.367 1.55926 191.89 1.5143C192.196 1.50551 192.45 1.51332 192.669 1.54851C192.825 1.57392 192.986 1.58468 193.176 1.57881C194.89 1.53092 196.609 1.48499 198.316 1.43416C198.645 1.42439 198.858 1.44588 199.089 1.47423C199.164 1.484 199.239 1.49769 199.326 1.5016C199.412 1.50551 199.51 1.50159 199.602 1.49866C201.316 1.45077 203.034 1.40581 204.742 1.35401C205.088 1.34326 205.273 1.37649 205.503 1.40092C205.584 1.40972 205.671 1.42731 205.74 1.42634C206.409 1.40972 207.078 1.39506 207.741 1.37063C208.099 1.35695 208.255 1.4019 208.497 1.4234C208.578 1.43024 208.67 1.44491 208.745 1.44296C210.176 1.40484 211.606 1.36477 213.031 1.32372C213.233 1.31785 213.383 1.32664 213.544 1.35205C213.758 1.38626 214.006 1.39995 214.317 1.38919C214.981 1.36671 215.65 1.35108 216.319 1.33251C216.711 1.32176 216.711 1.32176 217.911 1.37259C217.998 1.3765 218.09 1.38236 218.176 1.3804C219.319 1.34912 220.466 1.31883 221.603 1.28462C221.909 1.27484 222.162 1.28364 222.382 1.31882C222.537 1.34424 222.693 1.35499 222.889 1.34913C223.939 1.31981 224.983 1.29048 226.033 1.26116C226.414 1.25041 226.794 1.23184 227.175 1.23184C227.452 1.23281 227.654 1.27973 227.902 1.30318C227.971 1.31003 228.087 1.30221 228.179 1.30026C229.511 1.26312 230.85 1.22891 232.176 1.18688C232.522 1.17613 232.707 1.20936 232.938 1.23379C233.018 1.24259 233.105 1.26018 233.174 1.25921C233.653 1.24845 234.126 1.23379 234.605 1.22109C235.176 1.20545 235.753 1.19372 236.318 1.17222C236.779 1.15462 236.952 1.23965 237.322 1.24259C237.604 1.24552 237.893 1.2289 238.175 1.22109C238.746 1.20545 239.317 1.18786 239.888 1.17417C240.09 1.16929 240.246 1.15364 240.31 1.11845C240.321 1.11161 240.223 1.09696 240.16 1.08816C239.393 0.988468 239.392 0.988463 238.619 1.00997C238.141 1.02365 237.668 1.03734 237.189 1.04906C237.108 1.05102 237.016 1.0432 236.935 1.03734C236.704 1.02072 236.727 1.00117 236.924 0.965988C237.12 0.930802 237.27 0.8878 237.437 0.847727C237.673 0.87314 237.904 0.898543 238.141 0.923955C238.331 0.919068 238.521 0.913212 238.712 0.908325C239.664 0.882913 240.615 0.856522 241.567 0.833064C241.636 0.831109 241.723 0.85066 241.804 0.860434C242.034 0.888778 242.242 0.913206 242.577 0.902455C243.43 0.874111 244.29 0.853586 245.143 0.829151C245.518 0.818399 245.518 0.8184 246.176 0.878999C246.251 0.88584 246.349 0.89366 246.43 0.891705C247.289 0.869225 248.143 0.844793 249.002 0.821336C249.187 0.816449 249.366 0.829155 249.499 0.857499C249.551 0.869228 249.539 0.888772 249.758 1.04906C250.439 1.17906 250.906 1.16538 251.379 1.15365C251.581 1.14876 251.76 1.14387 251.892 1.12432C251.962 1.11357 252.048 1.09793 252.048 1.08523C252.048 1.07545 251.921 1.05981 251.841 1.05786C251.27 1.03831 250.727 1.07937 250.168 1.08816C249.908 1.09207 249.683 1.05786 249.637 1.00215C249.626 0.986513 249.608 0.969898 249.591 0.95426C249.574 0.938621 249.562 0.922007 249.545 0.906369C249.32 0.901482 249.187 0.919072 249.089 0.952303C249.008 0.97967 248.893 1.01095 248.737 1.02561C248.581 1.04125 248.368 1.03832 248.178 1.04321C247.993 1.04809 247.791 1.0608 247.618 1.05396C247.445 1.04614 247.307 1.01779 247.145 1.00019C247.07 0.991398 246.978 0.978696 246.903 0.980651C246.24 0.997267 245.582 1.01388 244.924 1.03538C244.578 1.04711 244.405 1.00606 244.186 0.980651C244.013 0.961103 243.84 0.965984 243.811 1.01094C243.736 1.11846 244.001 1.16341 244.59 1.14289C245.074 1.1253 245.513 1.12237 245.893 1.18884C245.945 1.19763 246.066 1.20154 246.141 1.19959C246.614 1.18786 247.082 1.17319 247.555 1.16147C247.641 1.15951 247.734 1.16341 247.814 1.16732C248.991 1.2201 248.991 1.22109 249.389 1.20936C249.579 1.20349 249.764 1.19861 249.747 1.05004C250.11 0.890727 250.687 0.879978 251.246 0.856521C251.61 0.84186 251.766 0.884867 252.002 0.907347C252.083 0.915166 252.169 0.930801 252.244 0.928847C253.485 0.896593 254.719 0.862379 255.953 0.826216C256.161 0.820351 256.311 0.826217 256.472 0.851629C256.68 0.883883 256.911 0.904412 257.24 0.892684C257.897 0.869226 258.566 0.854569 259.236 0.835021C259.576 0.825247 259.576 0.825237 260.262 0.885835C260.337 0.892677 260.435 0.900497 260.516 0.898542C261.185 0.881926 261.849 0.861407 262.512 0.843814C262.697 0.838927 262.864 0.852609 263.008 0.878999C263.152 0.905388 263.325 0.91907 263.504 0.914183C264.173 0.89659 264.837 0.877049 265.5 0.859456C265.581 0.857501 265.679 0.864342 265.754 0.871184C266.458 0.931782 266.458 0.931772 266.781 0.921998C267.254 0.907337 267.738 0.900503 268.205 0.880955C268.661 0.861408 268.898 0.918091 269.209 0.949368C270.063 0.926888 270.922 0.908322 271.77 0.880955C272.116 0.869227 272.301 0.901478 272.532 0.92689C272.612 0.935686 272.693 0.954259 272.768 0.953281C273.056 0.949372 273.339 0.938622 273.622 0.930803C273.905 0.922984 274.193 0.915166 274.476 0.907347C274.799 0.935691 275.012 1.00215 275.474 0.979673C275.75 0.965989 276.045 0.963057 276.327 0.955238C276.61 0.947419 276.898 0.939601 277.181 0.931782C277.371 0.926895 277.567 0.923958 277.752 0.915162C278.092 0.900501 278.26 0.948399 278.502 0.969901C278.583 0.976743 278.675 0.988464 278.75 0.986509C279.321 0.972826 279.898 0.961098 280.457 0.938618C280.89 0.921025 281.184 0.950351 281.49 0.991401C281.553 1.0002 281.663 1.00508 281.744 1.00313C282.413 0.986514 283.076 0.965983 283.74 0.94839C283.918 0.943503 284.091 0.95914 284.236 0.984553C284.386 1.01094 284.553 1.02366 284.737 1.01877C285.401 1.00118 286.07 0.981624 286.733 0.964031C286.814 0.962076 286.912 0.969897 286.987 0.977716C287.633 1.03831 287.633 1.03929 288.014 1.02756C288.106 1.02463 288.204 1.02267 288.297 1.01974C288.77 1.00605 289.26 1.00117 289.721 0.977716C290.252 0.951327 290.639 0.984559 291.013 1.04027C291.486 1.02854 291.971 1.0217 292.432 1.00215C292.779 0.98749 292.963 1.02463 293.194 1.04906C293.275 1.05786 293.361 1.07545 293.43 1.0735C294.099 1.05688 294.769 1.04223 295.426 1.01779C295.784 1.00411 295.94 1.04808 296.182 1.07056C296.263 1.07838 296.349 1.09207 296.424 1.09012C296.805 1.0823 297.186 1.07057 297.566 1.05981C298.011 1.04711 298.01 1.04808 298.599 1.1077C298.876 1.13605 299.153 1.11357 299.424 1.10673C299.712 1.09891 299.983 1.09305 300.214 1.13312C300.358 1.15853 300.531 1.17417 300.71 1.17026C301.091 1.16146 301.477 1.15267 301.852 1.13801C302.152 1.12628 302.412 1.1341 302.631 1.17026C302.787 1.19567 302.948 1.20839 303.139 1.20252C303.992 1.17906 304.852 1.15462 305.705 1.13214C305.78 1.13018 305.884 1.13898 305.953 1.14778C306.115 1.16537 306.271 1.18492 306.426 1.20447C306.801 1.19567 307.188 1.19177 307.557 1.17809C307.949 1.1644 308.307 1.15951 308.613 1.21327C308.676 1.225 308.768 1.24161 308.843 1.24063C309.132 1.23672 309.414 1.22695 309.697 1.21913C309.98 1.21131 310.268 1.20349 310.551 1.19567C310.88 1.22011 311.087 1.29048 311.549 1.268C311.826 1.25432 312.12 1.25138 312.403 1.24356C312.685 1.23574 312.974 1.22695 313.256 1.22011C313.349 1.21815 313.452 1.21326 313.533 1.21717C313.62 1.22108 313.695 1.23477 313.77 1.24454C314 1.27289 314.214 1.30123 314.543 1.28462C314.819 1.27094 315.114 1.268 315.396 1.25921C315.783 1.24845 315.783 1.24846 316.423 1.31003C316.683 1.33544 316.977 1.30221 317.225 1.32372C317.392 1.33838 317.536 1.36281 317.698 1.37942C317.767 1.38626 317.877 1.38919 317.957 1.38724C318.338 1.37844 318.725 1.36965 319.1 1.35499C319.405 1.34326 319.659 1.35499 319.873 1.39017C320.028 1.41558 320.184 1.42634 320.38 1.42048C321.332 1.39311 322.284 1.36965 323.23 1.33935C323.553 1.32859 323.812 1.34521 323.991 1.3804C324.297 1.441 324.729 1.36965 325.047 1.41852C325.243 1.44882 325.439 1.48401 325.797 1.46935C326.454 1.44393 327.123 1.43024 327.787 1.41265C328.023 1.43904 328.26 1.46544 328.502 1.49183C328.883 1.48107 329.263 1.47032 329.644 1.46054C329.927 1.45272 330.215 1.44393 330.498 1.43709C330.59 1.43513 330.688 1.43122 330.775 1.43611C330.861 1.44099 330.931 1.4537 331.011 1.46348C331.409 1.51137 331.409 1.51235 332.067 1.4928C332.349 1.48401 332.621 1.47814 332.857 1.51724C333.076 1.5534 333.336 1.56024 333.636 1.54949C334.201 1.52994 334.772 1.51528 335.349 1.5016C335.528 1.49671 335.695 1.51333 335.845 1.53874C336.07 1.57881 336.347 1.5749 336.63 1.56415C337.005 1.55047 337.374 1.53679 337.691 1.59152C337.754 1.60325 337.853 1.61986 337.922 1.61888C338.395 1.61106 338.874 1.6052 339.335 1.58663C339.796 1.56806 340.021 1.62866 340.339 1.65798C340.812 1.64527 341.29 1.63256 341.763 1.61986C341.856 1.61692 341.965 1.60813 342.046 1.61302C342.386 1.63355 342.583 1.70685 343.05 1.68437C343.321 1.67166 343.615 1.66776 343.898 1.66483C343.973 1.66385 344.071 1.68046 344.123 1.69316C344.152 1.7 344.123 1.71857 344.088 1.72835C343.984 1.75571 343.857 1.78113 343.765 1.80948C343.753 1.81339 343.863 1.83097 343.927 1.83879C344.082 1.85638 344.261 1.85346 344.469 1.84564C344.648 1.8388 344.832 1.85248 344.959 1.8818C345.011 1.89353 344.994 1.91308 344.884 1.97759C344.884 2.02548 345.005 2.00397 345.046 1.97269C345.109 1.92773 344.988 1.91307 344.757 1.93751C344.596 1.9551 344.515 1.98052 344.555 2.00104C344.578 2.01179 344.688 2.02548 344.884 1.97759C345.392 1.91894 345.772 1.9082 346.153 1.89744C346.251 1.89451 346.367 1.88473 346.436 1.8906C346.684 1.91405 346.915 1.9424 347.157 1.96879C347.434 1.96293 347.693 1.94826 347.964 1.98638C348.345 2.04014 348.362 2.03525 348.732 2.0245C348.922 2.01863 349.112 2.01376 349.303 2.00887C349.493 2.00398 349.643 2.01864 349.81 2.04112C350.151 2.08706 350.179 2.08705 350.404 2.0245C350.537 1.98638 350.629 1.97368 350.797 1.99127C351.35 2.05089 351.356 2.0548 351.829 2.03721C352.221 2.02254 352.591 2.01864 352.879 2.07435C353.075 2.11344 353.139 2.10465 353.294 2.0636C353.71 1.95511 353.9 1.95706 354.679 2.03525C355.042 2.07239 355.417 2.03232 355.786 2.02743C356.098 2.02352 356.317 2.04698 356.34 2.10855C356.357 2.14667 356.409 2.17404 356.617 2.18675C356.698 2.19164 356.796 2.19848 356.876 2.19652C357.355 2.18479 357.828 2.17111 358.307 2.15742C358.549 2.15058 358.682 2.10465 358.636 2.04405C358.584 1.97955 358.676 1.95608 359.022 1.93751C359.23 1.92676 359.397 1.92872 359.565 1.94631C359.749 1.96586 359.697 1.98345 359.536 2.01864C359.149 2.10465 359.195 2.15742 359.691 2.21704C359.865 2.23757 360.003 2.25615 360.043 2.28644C360.066 2.30208 360.043 2.32261 360.095 2.33434C360.378 2.39982 360.77 2.44185 361.209 2.47313C361.63 2.44674 361.918 2.49071 362.241 2.5259C362.495 2.55327 362.795 2.52982 363.066 2.52004C363.372 2.50929 363.625 2.51711 363.845 2.55327C364 2.57868 364.162 2.59041 364.352 2.58552C364.733 2.57477 365.119 2.56793 365.494 2.55229C365.817 2.53861 366.06 2.55816 366.262 2.59139C366.515 2.63342 366.798 2.60507 367.063 2.61093C367.421 2.61778 367.6 2.70476 368.067 2.6813C368.344 2.66762 368.632 2.66273 368.921 2.65882C368.996 2.65785 369.088 2.67447 369.152 2.68619C369.457 2.73995 369.815 2.73702 370.207 2.72138C370.478 2.71063 370.744 2.70086 371.009 2.738C371.447 2.80055 371.932 2.85529 372.393 2.91296C372.457 2.95792 372.411 3.01069 372.739 3.03707C372.913 3.05076 373.074 3.07129 373.207 3.09377C373.368 3.12016 373.518 3.127 373.726 3.12016C374.101 3.10648 374.493 3.10354 374.862 3.08594C375.203 3.07031 375.416 3.10257 375.624 3.13287C375.791 3.1573 375.947 3.16903 376.149 3.15143C376.356 3.13482 376.506 3.14557 376.674 3.17196C376.91 3.20812 376.927 3.20422 377.712 3.21497C377.793 3.21594 377.891 3.2306 377.937 3.2433C377.96 3.25014 377.908 3.2697 377.868 3.27948C377.816 3.29121 377.735 3.30488 377.66 3.30781C376.806 3.33323 375.947 3.35571 375.093 3.38112C375.006 3.38405 374.914 3.3909 374.851 3.40067C374.782 3.41142 374.695 3.42608 374.695 3.43976C374.695 3.44953 374.81 3.46127 374.891 3.46811C375.145 3.49059 375.445 3.45638 375.693 3.48179C375.86 3.49841 375.999 3.52186 376.166 3.5375C376.235 3.54434 376.345 3.54337 376.431 3.54141C376.72 3.53457 377.002 3.5248 377.291 3.51893C377.372 3.51796 377.464 3.52773 377.539 3.53555C378.093 3.5942 378.093 3.59419 378.571 3.58149C378.762 3.5766 378.964 3.56194 379.142 3.5678C379.315 3.57367 379.465 3.60006 379.621 3.61667C379.944 3.65186 380.25 3.68607 380.273 3.7623C380.284 3.79163 380.475 3.81703 380.665 3.81899C380.85 3.82094 381.046 3.8102 381.236 3.80434C381.686 3.79261 381.686 3.79261 382.269 3.85223C382.43 3.86884 382.603 3.8708 382.811 3.86102C382.892 3.85711 382.99 3.86103 383.076 3.86591C383.359 3.88057 383.359 3.89914 383.174 3.93433C382.915 3.98613 382.938 3.99102 383.665 4.035C383.942 4.05162 384.155 4.08289 384.386 4.11026C384.761 4.15424 384.755 4.15424 384.507 4.2119C384.449 4.22461 384.397 4.23829 384.34 4.25198C384.172 4.2901 384.04 4.33114 383.694 4.33505C383.313 4.33896 382.932 4.35461 382.551 4.36536C382.182 4.37611 382.084 4.39956 382.119 4.46602C382.159 4.54617 382.234 4.55497 382.898 4.55399C383.088 4.55399 383.255 4.56181 383.399 4.58819C383.33 4.61947 383.203 4.64391 383.019 4.64977C382.546 4.66443 382.067 4.67714 381.594 4.68985C381.213 4.7006 380.833 4.71135 380.452 4.7221C380.215 4.72894 380.065 4.77977 380.129 4.83646C380.163 4.86871 380.192 4.90096 380.221 4.93322C380.284 4.99772 380.406 5.01434 380.792 5.01141C380.89 5.01044 380.982 5.00261 381.075 5.00456C381.45 5.01141 381.628 5.09253 382.078 5.07591C382.453 5.06223 382.846 5.0593 383.215 5.04171C383.555 5.02607 383.745 5.06126 383.982 5.08765C384.063 5.09645 384.149 5.11501 384.219 5.11403C384.697 5.10328 385.176 5.09254 385.643 5.07397C385.863 5.06615 385.995 5.07201 386.168 5.09547C386.584 5.15216 386.595 5.14922 387.212 5.13163C387.662 5.11795 387.668 5.1199 388.245 5.17952C388.406 5.19614 388.579 5.19613 388.787 5.18831C389.058 5.17854 389.341 5.1629 389.623 5.17756C389.71 5.18147 389.82 5.19321 389.848 5.20591C389.866 5.21471 389.785 5.23621 389.716 5.24305C389.208 5.29388 388.614 5.28508 388.06 5.30561C387.887 5.31147 387.714 5.2929 387.57 5.26651C387.42 5.24012 387.258 5.22937 387.062 5.23426C386.682 5.24501 386.295 5.25185 385.92 5.26749C385.597 5.28117 385.372 5.25869 385.147 5.22839C385.072 5.21862 384.986 5.20004 384.911 5.20102C384.057 5.22057 383.198 5.24012 382.35 5.26749C382.009 5.27922 381.813 5.24794 381.582 5.22155C381.502 5.21276 381.421 5.19419 381.346 5.19516C381.058 5.19907 380.775 5.20982 380.486 5.21764C379.437 5.24696 378.392 5.27628 377.343 5.30365C377.273 5.30561 377.187 5.28508 377.106 5.27628C376.95 5.25869 376.789 5.24207 376.627 5.22546C376.339 5.23327 376.056 5.24305 375.768 5.24891C375.56 5.25282 375.376 5.26651 375.347 5.30365C375.329 5.32809 375.52 5.35056 375.722 5.34861C375.918 5.34665 376.114 5.33492 376.276 5.34763C377.077 5.41018 377.077 5.41116 377.579 5.39846C378.018 5.38673 377.971 5.37695 378.358 5.43071C378.525 5.45416 378.675 5.46785 378.866 5.46199C379.339 5.44831 379.817 5.43462 380.296 5.42289C380.371 5.42094 380.469 5.43071 380.544 5.43853C381.109 5.49718 381.109 5.49913 381.577 5.48447C382.188 5.46687 382.211 5.46199 382.621 5.52161C382.903 5.56266 383.163 5.53431 383.434 5.53236C383.745 5.57048 384.086 5.60469 384.369 5.6477C384.703 5.69852 385.055 5.68971 385.436 5.67505C385.718 5.6643 385.995 5.66039 386.226 5.70047C386.445 5.73761 386.71 5.74152 387.01 5.73175C387.281 5.72295 387.558 5.70438 387.841 5.72588C387.916 5.73174 388.031 5.74641 388.026 5.75521C388.02 5.76889 387.945 5.78844 387.87 5.7943C387.339 5.83438 386.757 5.8334 386.197 5.85197C386.122 5.8549 386.024 5.84414 385.949 5.83633C385.788 5.81873 385.632 5.79821 385.476 5.77964C385.193 5.78551 384.905 5.78746 384.628 5.79918C384.415 5.80798 384.253 5.80701 384.097 5.78355C383.953 5.76205 383.797 5.73566 383.624 5.72881C383.451 5.72197 383.249 5.73664 383.059 5.7425C382.869 5.74836 382.65 5.74543 382.5 5.76106C382.35 5.7767 382.257 5.81091 382.159 5.83828C382.05 5.86858 381.9 5.87836 381.68 5.88129C381.479 5.88423 381.317 5.88031 381.167 5.85295C381.104 5.84122 381.017 5.83242 380.93 5.8246C380.85 5.81776 380.757 5.807 380.682 5.80896C379.823 5.83144 378.969 5.85588 378.11 5.87934C377.683 5.89107 377.689 5.89106 376.8 5.83339C376.72 5.8285 376.622 5.82166 376.541 5.82362C376.062 5.83535 375.589 5.84903 375.11 5.86272C374.626 5.8764 374.632 5.87444 373.807 5.81287C373.657 5.80114 373.438 5.81678 373.259 5.81483C372.884 5.80994 372.699 5.72784 372.261 5.74348C371.886 5.75716 371.493 5.76009 371.118 5.77768C370.778 5.79332 370.582 5.75912 370.351 5.73273C370.271 5.72393 370.184 5.70438 370.115 5.70634C369.255 5.72784 368.402 5.75227 367.26 5.75521C366.977 5.75521 367.104 5.77573 367.288 5.78258C367.554 5.79333 367.64 5.7728 367.496 5.73371C367.392 5.70634 367.242 5.69265 367.121 5.69949C367.058 5.7034 366.977 5.72197 367.26 5.75521C367.559 5.79235 367.542 5.81287 367.594 5.8246C367.721 5.85294 367.9 5.86467 368.085 5.86076C368.373 5.85392 368.656 5.84415 368.944 5.83828C369.025 5.83633 369.123 5.84317 369.198 5.85099C369.832 5.91159 369.838 5.9155 370.513 5.89204C370.726 5.8852 370.882 5.8852 371.049 5.90377C371.28 5.92918 371.447 5.97218 371.799 5.9585C372.267 5.93993 372.745 5.92919 373.224 5.91843C373.299 5.91648 373.38 5.93407 373.466 5.94189C373.703 5.96535 373.876 6.00933 374.228 5.99076C374.499 5.9761 374.793 5.97218 375.081 5.96925C375.156 5.96827 375.272 5.98391 375.306 5.99662C375.376 6.0191 375.289 6.04549 375.093 6.06406C375.012 6.07188 374.903 6.06993 374.81 6.07286C374.43 6.08361 374.049 6.09533 373.668 6.10413C373.466 6.10902 373.276 6.12368 373.253 6.15985C373.236 6.18428 373.443 6.20578 373.639 6.20383C373.928 6.20089 374.216 6.19308 374.493 6.18037C374.983 6.15887 375.41 6.16473 375.808 6.2263C376.091 6.26931 376.074 6.25368 376.374 6.38074C376.449 6.41299 376.674 6.41592 376.87 6.41397C377.343 6.40908 377.562 6.42374 377.521 6.45404C377.47 6.49118 377.302 6.50291 377.089 6.50779C376.708 6.51561 376.327 6.52832 375.947 6.53908C375.854 6.54201 375.751 6.54787 375.664 6.54591C375.578 6.54396 375.497 6.53223 375.422 6.52343C375.26 6.50486 375.122 6.47651 374.949 6.46967C374.776 6.46283 374.574 6.47749 374.383 6.48336C374.193 6.48825 373.991 6.50291 373.818 6.49606C373.645 6.48922 373.501 6.45991 373.345 6.44232C373.27 6.43352 373.178 6.41983 373.103 6.4208C372.722 6.42862 372.342 6.44133 371.961 6.45111C371.494 6.46381 371.494 6.46382 370.928 6.40322C370.767 6.38562 370.599 6.3866 370.386 6.39442C369.925 6.41006 369.919 6.40712 369.077 6.35043C368.996 6.34457 368.898 6.33773 368.817 6.34066C367.957 6.36314 367.104 6.38757 366.25 6.41103C365.517 6.43156 365.517 6.43157 365.114 6.5293C364.814 6.60163 364.808 6.60163 365.102 6.63486C365.339 6.66223 365.552 6.7023 365.812 6.71696C366.054 6.73064 366.354 6.68666 366.619 6.73162C366.752 6.7541 366.925 6.77854 367.092 6.78245C367.358 6.78733 367.64 6.75898 367.894 6.80199C368.021 6.82349 368.211 6.84598 368.373 6.84696C368.656 6.84891 368.944 6.83326 369.227 6.82642C369.313 6.82447 369.411 6.82447 369.492 6.82936C369.578 6.83522 369.653 6.84695 369.728 6.85673C369.959 6.88996 370.207 6.90559 370.507 6.88898C370.997 6.86161 371.436 6.87529 371.817 6.93785C371.869 6.94664 371.995 6.94763 372.076 6.94372C372.284 6.93394 372.463 6.93296 372.618 6.95153C372.682 6.95935 372.774 6.97303 372.763 6.98183C372.745 6.99649 372.676 7.01604 372.601 7.02092C372.059 7.05415 371.476 7.05807 370.917 7.07566C370.842 7.07762 370.749 7.0649 370.674 7.05611C370.513 7.03852 370.374 7.0092 370.201 7.00236C370.028 6.99552 369.827 7.00822 369.636 7.01311C369.446 7.018 369.244 7.03266 369.071 7.02679C368.898 7.01995 368.736 6.99551 368.598 6.97401C368.436 6.94958 368.281 6.94665 368.067 6.95642C367.79 6.96913 367.502 6.97108 367.219 6.97792C367.064 6.95935 366.908 6.93882 366.746 6.92123C366.671 6.91243 366.579 6.90169 366.498 6.90266C366.117 6.91048 365.737 6.9222 365.356 6.93296C364.975 6.94371 364.975 6.94372 364.329 6.88312C364.254 6.87628 364.156 6.86846 364.075 6.87041C363.597 6.88214 363.124 6.89679 362.645 6.90852C362.46 6.91341 362.293 6.89973 362.143 6.87334C361.999 6.84695 361.826 6.83229 361.647 6.83717C360.885 6.8577 360.124 6.87725 359.363 6.90168C359.057 6.91146 358.797 6.90266 358.59 6.86748C358.347 6.8274 358.076 6.83718 357.794 6.845C357.153 6.86455 357.148 6.86356 356.738 6.81372C356.657 6.80394 356.577 6.78537 356.502 6.78635C355.838 6.80101 355.169 6.81469 354.512 6.83815C354.165 6.85086 353.981 6.81665 353.75 6.79124C353.669 6.78244 353.583 6.76387 353.514 6.76583C353.035 6.77658 352.556 6.78635 352.089 6.8059C351.621 6.82545 351.443 6.73456 351.091 6.73553C350.612 6.73651 350.139 6.75899 349.666 6.77267C349.285 6.78343 348.905 6.79417 348.524 6.80492C348.143 6.81567 347.763 6.82447 347.382 6.83717C347.18 6.84402 347.03 6.83522 346.863 6.81078C346.649 6.77853 346.395 6.75313 346.165 6.7238C345.813 6.68178 345.813 6.68177 345.386 6.6935C345.294 6.69643 345.196 6.69838 345.103 6.70131C344.405 6.72282 344.405 6.72087 343.517 6.65929C343.477 6.65636 343.373 6.66712 343.332 6.67493C343.211 6.70035 343.102 6.72771 342.992 6.7541C342.836 6.73846 342.646 6.72966 342.542 6.70718C342.248 6.64365 341.786 6.73064 341.487 6.66809C341.377 6.64463 341.187 6.6241 341.014 6.61824C340.835 6.61237 340.633 6.62606 340.448 6.63192C339.969 6.64658 339.969 6.64561 339.56 6.7326C339.352 6.7756 339.052 6.76778 338.781 6.77755C338.499 6.78831 338.227 6.79417 337.991 6.7541C337.777 6.71793 337.518 6.70914 337.212 6.72087C336.837 6.73553 336.451 6.74432 336.07 6.75312C335.989 6.75507 335.891 6.75019 335.81 6.74433C334.928 6.68666 334.928 6.68569 334.501 6.69839C334.311 6.70426 334.115 6.7062 333.93 6.715C333.618 6.73064 333.382 6.71011 333.157 6.67884C333.082 6.66906 332.995 6.6505 332.921 6.65148C332.54 6.65637 332.165 6.66516 331.79 6.67396C331.501 6.6808 331.213 6.68471 330.936 6.69839C330.475 6.72087 330.25 6.65733 329.933 6.62801C329.46 6.64072 328.981 6.64952 328.508 6.66711C328.289 6.67493 328.144 6.672 327.977 6.64854C327.764 6.61922 327.568 6.58599 327.221 6.60065C326.76 6.6202 326.275 6.62704 325.802 6.63877C325.485 6.60847 325.254 6.54689 324.799 6.56937C324.522 6.58305 324.228 6.58598 323.945 6.5938C323.564 6.60456 323.184 6.61434 322.803 6.62607C322.393 6.63779 322.399 6.63486 321.77 6.5772C321.407 6.54299 321.032 6.5811 320.663 6.58697C320.374 6.59185 320.23 6.63681 320.299 6.69448C320.369 6.75214 320.213 6.7971 319.947 6.80492C319.284 6.82349 318.615 6.84304 317.952 6.85965C317.871 6.86161 317.773 6.85476 317.698 6.84792C316.988 6.78635 316.988 6.78733 316.671 6.79613C316.198 6.81079 315.714 6.8186 315.246 6.83717C314.923 6.84988 314.687 6.82936 314.479 6.79613C314.318 6.77072 314.168 6.76485 313.96 6.77072C311.676 6.8362 309.391 6.8968 307.113 6.96424C306.773 6.97401 306.577 6.94567 306.346 6.91928C306.265 6.91049 306.19 6.89191 306.109 6.89191C305.919 6.89191 305.728 6.90071 305.538 6.90658C304.684 6.93003 303.831 6.95837 302.971 6.97597C302.608 6.98379 302.51 7.02875 302.354 7.06589C302.233 7.09424 302.095 7.10596 301.881 7.10987C301.673 7.11378 301.523 7.10889 301.362 7.08348C301.154 7.05025 300.918 7.02972 300.595 7.0434C300.22 7.05904 299.839 7.06589 299.452 7.07664C299.256 7.08153 299.106 7.09912 299.043 7.1343C299.031 7.14017 299.153 7.15483 299.222 7.16363C299.453 7.19295 299.672 7.22716 299.931 7.24768C300.197 7.26821 300.485 7.24474 300.762 7.23888C300.86 7.23692 300.952 7.23107 301.045 7.23204C301.131 7.23302 301.235 7.23791 301.298 7.24671C301.598 7.29069 301.916 7.32099 302.331 7.2946C302.689 7.3073 302.873 7.38843 303.329 7.36692C303.606 7.35422 303.894 7.34835 304.183 7.34347C304.258 7.34249 304.338 7.36008 304.419 7.36888C304.65 7.39331 304.834 7.43241 305.181 7.41579C305.55 7.3982 305.942 7.39527 306.317 7.38159C306.525 7.37377 306.674 7.38061 306.836 7.40602C307.044 7.43828 307.28 7.4627 307.603 7.44706C307.88 7.43338 308.174 7.43045 308.457 7.42165C308.826 7.4109 308.826 7.41188 309.484 7.47248C309.559 7.47932 309.657 7.48714 309.738 7.48518C310.216 7.47345 310.689 7.45879 311.168 7.44706C311.353 7.44218 311.532 7.45488 311.658 7.48323C311.71 7.49496 311.693 7.51451 311.71 7.53113C310.758 7.55752 309.807 7.58 308.861 7.61225C308.503 7.62496 308.342 7.58488 308.105 7.5624C308.024 7.55458 307.938 7.53797 307.863 7.53992C307.194 7.55654 306.53 7.57413 305.867 7.59563C305.659 7.60247 305.504 7.59856 305.348 7.57022C304.95 7.49496 304.465 7.53601 304.015 7.54676C303.669 7.55458 303.56 7.58488 303.6 7.64939C303.652 7.72563 303.86 7.74909 304.39 7.7354C304.581 7.73052 304.771 7.72367 304.961 7.71976C305.146 7.71585 305.313 7.72856 305.463 7.75494C305.607 7.78133 305.78 7.79502 305.959 7.79111C306.34 7.78231 306.726 7.77352 307.096 7.75886C307.401 7.74713 307.655 7.7569 307.869 7.79306C308.105 7.83314 308.382 7.82434 308.659 7.81554C309.305 7.79599 309.311 7.79698 309.714 7.84585C309.795 7.85562 309.876 7.87419 309.951 7.87322C310.614 7.85856 311.283 7.84585 311.935 7.82239C312.276 7.81066 312.472 7.84194 312.697 7.86735C312.777 7.87614 312.858 7.89569 312.933 7.89374C313.412 7.88299 313.891 7.87223 314.358 7.85366C314.577 7.84487 314.71 7.85073 314.889 7.87418C315.315 7.93185 315.327 7.9299 315.933 7.91132C316.117 7.90546 316.319 7.89471 316.492 7.90253C316.665 7.91035 316.804 7.9387 316.965 7.95629C317.04 7.96411 317.133 7.97486 317.213 7.9729C317.594 7.96508 317.975 7.95336 318.355 7.94261C318.713 7.93186 318.713 7.93284 319.382 7.99343C319.653 8.01885 319.936 7.99734 320.207 7.98952C320.501 7.98072 320.767 7.98073 320.992 8.01885C321.217 8.05697 321.488 8.055 321.776 8.04718C322.047 8.03936 322.324 8.01787 322.601 8.04426C323.235 8.10486 323.236 8.10583 323.628 8.0941C324.199 8.07748 324.764 8.06184 325.341 8.04718C325.416 8.04523 325.514 8.05696 325.589 8.06478C325.75 8.08238 325.889 8.11169 326.062 8.11853C326.235 8.12635 326.437 8.11462 326.621 8.10876C327.216 8.09019 327.256 8.08335 327.654 8.14786C327.989 8.20064 328.404 8.1244 328.715 8.185C328.894 8.21921 329.136 8.24657 329.471 8.22996C329.748 8.21627 330.036 8.21236 330.325 8.20454C330.78 8.19184 330.78 8.19282 331.357 8.25147C331.432 8.25929 331.53 8.26905 331.605 8.2671C331.986 8.25928 332.373 8.25244 332.742 8.23485C333.174 8.21432 333.451 8.25147 333.774 8.28763C334.028 8.31597 334.328 8.29251 334.599 8.28274C334.893 8.27296 335.159 8.27589 335.378 8.31401C335.609 8.35311 335.88 8.34822 336.168 8.3404C336.439 8.33356 336.716 8.31108 336.993 8.33844C337.587 8.39904 337.587 8.39904 338.02 8.38731C338.4 8.37656 338.781 8.36484 339.162 8.35702C339.237 8.35507 339.329 8.36777 339.404 8.37656C339.566 8.39416 339.704 8.42348 339.877 8.43033C340.05 8.43717 340.252 8.42446 340.442 8.41958C340.633 8.41469 340.835 8.40003 341.008 8.40589C341.181 8.41176 341.342 8.43619 341.481 8.4577C341.642 8.48311 341.792 8.48603 342.011 8.47626C342.288 8.46355 342.577 8.46062 342.859 8.45378C343.015 8.47235 343.177 8.49092 343.327 8.51145C343.482 8.53295 343.65 8.53099 343.863 8.52415C344.573 8.50069 344.578 8.50363 345.172 8.56423C345.444 8.59159 345.726 8.56911 345.997 8.56227C346.286 8.55445 346.557 8.55055 346.782 8.58964C347.001 8.62678 347.272 8.63166 347.561 8.61993C347.745 8.61211 347.941 8.60724 348.132 8.6043C348.218 8.60333 348.322 8.60723 348.385 8.61505C348.691 8.6561 348.991 8.69325 349.412 8.66686C349.781 8.67468 349.966 8.75482 350.41 8.73918C350.785 8.7255 351.177 8.72256 351.547 8.70497C351.887 8.68933 352.129 8.7167 352.302 8.75091C352.614 8.81151 353.052 8.72941 353.364 8.78903C353.542 8.82324 353.773 8.85061 354.119 8.83595C354.5 8.82031 354.621 8.84083 354.731 8.9024C354.794 8.93759 354.783 8.96594 354.667 8.9933C354.552 9.02165 354.425 9.01676 354.24 8.98451C354.027 8.94835 353.773 8.94149 353.467 8.94931C353.167 8.95713 352.983 8.90632 352.735 8.88677C352.487 8.86625 352.193 8.90045 351.933 8.87407C351.322 8.81249 351.322 8.81249 350.906 8.82422C350.624 8.83204 350.329 8.83595 350.053 8.84963C349.724 8.86625 349.51 8.83594 349.285 8.80858C349.205 8.7988 349.124 8.78023 349.055 8.78121C348.391 8.79587 347.722 8.80955 347.065 8.83399C346.718 8.84669 346.534 8.81151 346.303 8.78708C346.222 8.77828 346.136 8.76069 346.067 8.76264C345.496 8.77632 344.93 8.79392 344.359 8.81053C344.25 8.83692 344.128 8.86233 344.025 8.89067C343.915 8.92 343.765 8.9327 343.546 8.93173C343.182 8.93173 342.825 8.97278 342.461 8.92098C342.086 8.8682 342.058 8.87113 341.694 8.88384C341.233 8.90045 340.742 8.89654 340.31 8.93466C340.235 8.9415 340.154 8.96007 340.154 8.97375C340.148 8.98255 340.269 8.99526 340.344 9.00308C340.598 9.02653 340.892 8.99233 341.146 9.01676C341.313 9.0324 341.452 9.05585 341.619 9.07247C341.688 9.07931 341.792 9.07834 341.885 9.07736C341.983 9.07638 342.075 9.06954 342.167 9.07052C342.254 9.0715 342.346 9.07736 342.415 9.08615C342.733 9.12329 343.067 9.15751 343.35 9.20149C343.627 9.24449 343.886 9.21517 344.163 9.21322C345.271 9.28163 345.271 9.28261 346.015 9.26111C346.199 9.25622 346.39 9.25036 346.58 9.25134C346.661 9.25134 346.736 9.26892 346.816 9.2787C347.047 9.30802 347.266 9.33441 347.59 9.31877C347.866 9.30509 348.161 9.30215 348.443 9.29336C348.824 9.28261 348.824 9.28261 349.47 9.34418C349.632 9.35982 349.805 9.35787 350.012 9.35005C350.191 9.34321 350.376 9.35787 350.502 9.38622C350.554 9.39795 350.537 9.41749 350.554 9.43411C349.983 9.44975 349.407 9.4605 348.853 9.48396C348.495 9.49862 348.334 9.45659 348.097 9.43411C348.016 9.42629 347.93 9.40968 347.855 9.41163C347.29 9.42629 346.724 9.4429 346.159 9.46245C346.09 9.4644 346.003 9.48688 345.997 9.50056C345.986 9.52598 346.13 9.55041 346.338 9.54943C346.615 9.54846 346.886 9.53184 347.134 9.57191C347.341 9.6071 347.601 9.62275 347.907 9.60711C348.091 9.59831 348.288 9.59831 348.472 9.59049C348.962 9.56703 349.406 9.57192 349.776 9.63838C350.058 9.65597 350.335 9.63936 350.606 9.63057C350.808 9.62372 351.004 9.61687 351.149 9.63544C351.454 9.67454 351.754 9.71364 352.175 9.68725C352.631 9.71462 352.977 9.77228 353.358 9.81919C353.537 9.84167 353.675 9.85439 353.883 9.83973C353.969 9.83386 354.073 9.83386 354.165 9.83092C354.356 9.82604 354.558 9.81137 354.731 9.81724C354.904 9.82408 355.048 9.85243 355.204 9.87002C355.279 9.87882 355.365 9.89348 355.44 9.8925C355.729 9.88761 356.011 9.87784 356.294 9.87002C356.577 9.86318 356.859 9.85634 357.142 9.8495C357.378 9.87491 357.621 9.90033 357.857 9.92574C358.238 9.91499 358.619 9.90423 358.994 9.89446C359.415 9.88273 359.415 9.88371 360.02 9.9443C360.291 9.97167 360.58 9.95407 360.839 9.94137C361.272 9.92084 361.56 9.95799 361.866 9.99709C361.93 10.0049 362.045 10.0098 362.12 10.0059C362.42 9.9922 362.679 10.0029 362.899 10.0391C363.054 10.0645 363.21 10.0763 363.401 10.0714C364.064 10.0528 364.727 10.0332 365.391 10.0166C365.471 10.0147 365.564 10.0235 365.639 10.0313C366.227 10.0909 366.233 10.0938 366.665 10.0782C367.052 10.0645 367.41 10.0587 367.715 10.1124C367.779 10.1241 367.877 10.1408 367.946 10.1398C368.419 10.13 368.898 10.1193 369.365 10.1026C369.578 10.0948 369.728 10.0978 369.896 10.1202C370.109 10.1486 370.3 10.1828 370.651 10.1701C371.626 10.1339 371.632 10.1398 372.786 10.2072C372.866 10.2121 372.976 10.2043 373.068 10.2004C373.264 10.1906 373.409 10.2043 373.582 10.2268C373.968 10.2776 373.98 10.2747 374.349 10.2639C374.632 10.2551 374.926 10.2532 375.203 10.2385C375.629 10.217 375.912 10.2551 376.229 10.2913C376.483 10.3196 376.777 10.2962 377.048 10.2874C377.343 10.2776 377.608 10.2805 377.827 10.3177C377.977 10.3431 378.139 10.3568 378.329 10.3519C378.992 10.3343 379.656 10.3147 380.319 10.2971C380.4 10.2952 380.498 10.303 380.573 10.3098C381.231 10.3704 381.231 10.3734 381.882 10.3509C382.09 10.3441 382.263 10.3421 382.419 10.3626C382.569 10.3822 382.73 10.4007 382.886 10.4193C383.169 10.4125 383.457 10.4105 383.734 10.3988C383.947 10.39 384.097 10.3939 384.265 10.4144C384.484 10.4408 384.668 10.4868 385.015 10.4643C385.193 10.4535 385.401 10.4565 385.58 10.4467C385.793 10.434 385.938 10.4418 386.105 10.4672C386.312 10.4975 386.526 10.5288 386.86 10.5131C387.23 10.4955 387.622 10.4926 387.997 10.4789C388.204 10.4711 388.349 10.4789 388.516 10.5043C388.724 10.5366 388.96 10.5571 389.283 10.5444C389.941 10.52 389.946 10.5249 390.587 10.5864C390.748 10.6021 390.921 10.6001 391.129 10.5923C391.308 10.5855 391.492 10.6001 391.619 10.6285C391.74 10.6598 391.729 10.6793 391.74 10.6959ZM340.339 1.88082C340.148 1.88571 339.958 1.89158 339.681 1.80654C339.664 1.79188 339.675 1.77429 339.635 1.76159C339.543 1.7352 339.398 1.71663 339.225 1.71369C338.914 1.70979 338.539 1.74301 338.545 1.76842C338.55 1.78993 338.648 1.80849 338.839 1.82609C338.92 1.83293 338.983 1.84466 339.058 1.85248C339.277 1.87496 339.45 1.91895 339.768 1.89647C339.71 1.83587 339.739 1.86617 339.768 1.89647C339.739 1.93361 339.825 1.96 340.033 1.97075C340.091 1.97368 340.177 1.97172 340.223 1.96586C340.402 1.94435 340.431 1.91504 340.298 1.83783C340.275 1.85053 340.293 1.873 340.344 1.87887C340.396 1.88473 340.523 1.87985 340.587 1.87301C340.748 1.85444 340.829 1.83 340.789 1.80948C340.766 1.79873 340.656 1.78504 340.587 1.78504C340.466 1.78504 340.356 1.80654 340.339 1.88082ZM386.981 13.2156C386.56 13.2342 386.076 13.2274 385.655 13.2655C385.58 13.2723 385.505 13.2899 385.499 13.3036C385.493 13.3124 385.609 13.3251 385.678 13.3319C385.834 13.3476 386.007 13.3427 386.209 13.3378C386.514 13.331 386.693 13.3759 386.93 13.3984C387.005 13.4052 387.103 13.4101 387.183 13.4082C387.651 13.3964 388.112 13.3837 388.579 13.3701C388.66 13.3671 388.747 13.3603 388.816 13.3515C389.047 13.3231 389.024 13.3046 388.799 13.2831C388.551 13.2596 388.354 13.2205 388.101 13.2019C387.737 13.1756 387.368 13.2107 386.981 13.2156ZM354.223 13.9291C353.94 13.9369 353.663 13.9448 353.381 13.9526C353.289 13.9555 353.19 13.9565 353.104 13.9604C352.925 13.9672 352.793 13.9878 352.706 14.02C352.839 14.0454 353 14.0601 353.179 14.0572C353.462 14.0513 353.739 14.0386 354.021 14.0357C354.327 14.0318 354.506 14.0757 354.742 14.0982C354.817 14.1051 354.909 14.106 354.996 14.107C355.423 14.1109 355.682 14.0601 355.602 13.9888C355.544 13.933 355.325 13.8998 355.06 13.9067C354.783 13.9135 354.5 13.9213 354.223 13.9291ZM388.954 11.771C389.024 11.7544 389.099 11.7427 389.133 11.728C389.237 11.6782 389.197 11.6411 389.006 11.602C388.775 11.5541 388.493 11.5863 388.233 11.5912C388.17 11.5922 388.101 11.6127 388.066 11.6254C388.043 11.6342 388.043 11.6528 388.078 11.6577C388.36 11.6968 388.66 11.7329 388.954 11.771ZM338.914 8.88384C338.637 8.89166 338.354 8.89752 338.078 8.90827C338.008 8.9112 337.945 8.92977 337.904 8.94248C337.829 8.96593 337.91 8.99819 338.147 9.00112C338.418 9.00503 338.7 8.98842 338.983 8.9806C339.341 8.97082 339.554 8.93466 339.421 8.90338C339.295 8.87308 339.122 8.86722 338.914 8.88384ZM35.2734 6.79515C35.458 6.79027 35.6484 6.78635 35.8329 6.77951C36.006 6.77267 36.1388 6.75117 36.2253 6.71891C36.0811 6.6935 35.9195 6.67982 35.7407 6.68275C35.458 6.68861 35.1812 6.69643 34.9043 6.70621C34.7313 6.71207 34.564 6.73357 34.5237 6.7668C34.4833 6.79222 34.8696 6.80688 35.2734 6.79515ZM314.52 6.64463C314.594 6.65343 314.669 6.67102 314.744 6.67102C314.929 6.67102 315.119 6.66515 315.293 6.65538C315.367 6.65147 315.425 6.63388 315.46 6.62019C315.483 6.6114 315.477 6.59576 315.443 6.58795C315.275 6.54103 314.606 6.55765 314.496 6.6114C314.485 6.62118 314.514 6.63388 314.52 6.64463ZM296.32 1.29243C296.338 1.30807 296.343 1.32371 296.367 1.33935C296.413 1.36867 296.539 1.39017 296.724 1.40484C296.868 1.3804 296.943 1.35304 296.938 1.32372C296.932 1.30808 296.914 1.29243 296.891 1.27679C296.845 1.24747 296.718 1.22598 296.534 1.21131C296.39 1.23477 296.32 1.26213 296.32 1.29243ZM402.285 14.0992C402.233 14.1119 402.181 14.1246 402.123 14.1363C402.279 14.1647 402.423 14.1735 402.533 14.1578C402.602 14.1481 402.643 14.1334 402.695 14.1207C402.539 14.0924 402.4 14.0845 402.285 14.0992ZM398.697 14.2321C398.772 14.2409 398.841 14.2526 398.922 14.2585C399.055 14.2683 399.176 14.2517 399.268 14.2165C399.193 14.2077 399.124 14.196 399.043 14.1901C398.911 14.1803 398.789 14.1969 398.697 14.2321ZM400.97 14.0533C400.929 14.0767 401.01 14.0963 401.224 14.1129C401.276 14.1002 401.345 14.0884 401.379 14.0748C401.437 14.0523 401.339 14.0318 401.131 14.0161C401.074 14.0278 401.022 14.0406 400.97 14.0533ZM388.793 12.9996C388.752 13.0231 388.833 13.0426 389.047 13.0592C389.099 13.0465 389.168 13.0348 389.202 13.0211C389.26 12.9987 389.162 12.9781 388.954 12.9625C388.897 12.9742 388.845 12.9869 388.793 12.9996ZM372.203 6.08361C372.151 6.09631 372.099 6.10902 372.042 6.12075C372.197 6.14909 372.341 6.15789 372.451 6.14225C372.52 6.13248 372.561 6.11781 372.613 6.10511C372.457 6.07676 372.318 6.06895 372.203 6.08361ZM356.311 2.41448C356.45 2.42132 356.565 2.40764 356.663 2.37148C356.588 2.36268 356.519 2.35095 356.438 2.34509C356.305 2.33531 356.184 2.35193 356.092 2.38712C356.167 2.39689 356.242 2.40568 356.311 2.41448ZM347.872 2.18479C347.82 2.1975 347.768 2.2102 347.711 2.22193C347.866 2.25028 348.011 2.25907 348.12 2.24343C348.189 2.23366 348.23 2.219 348.282 2.20629C348.126 2.17795 347.988 2.17111 347.872 2.18479ZM290.644 1.29146C290.592 1.30416 290.54 1.31687 290.483 1.3286C290.639 1.35694 290.783 1.36573 290.892 1.3501C290.962 1.34032 291.002 1.32566 291.054 1.31295C290.898 1.28461 290.76 1.27777 290.644 1.29146ZM5.69329 9.24351C5.6183 9.23471 5.54338 9.22593 5.47416 9.21615C5.30688 9.24254 5.25498 9.26697 5.34728 9.28554C5.40496 9.29727 5.49142 9.30412 5.56641 9.31291C5.73946 9.28652 5.77982 9.26306 5.69329 9.24351Z" fill="#FFE492"/>
</svg>
