<svg width="233" height="47" viewBox="0 0 233 47" fill="none" xmlns="http://www.w3.org/2000/svg">
<path d="M218.898 24.5591C218.579 24.5973 218.256 24.6236 217.944 24.6809C217.741 24.7167 217.654 24.6117 217.518 24.5568C217.473 24.5377 217.425 24.4995 217.383 24.5042C217.067 24.5424 216.751 24.5854 216.435 24.6284C216.338 24.7215 216.277 24.8456 216.129 24.8909C215.984 24.9339 215.813 24.9339 215.652 24.9554C215.439 24.9817 215.226 25.0079 215.014 25.0318C214.907 25.0437 214.82 25.0891 214.785 25.175C214.778 25.1893 214.849 25.2251 214.888 25.2466C215.017 25.3182 215.143 25.3994 215.284 25.4543C215.42 25.5068 215.587 25.4209 215.732 25.4877C216.058 25.6381 216.061 25.6357 216.309 25.607C216.522 25.5808 216.735 25.5522 216.948 25.5331C216.99 25.5283 217.038 25.5641 217.083 25.5832C217.218 25.6357 217.305 25.7551 217.505 25.7097C217.657 25.6739 217.824 25.6667 217.982 25.6476C218.114 25.7169 218.237 25.7956 218.379 25.8505C218.511 25.903 218.55 25.9436 218.479 26.0129C218.414 26.0773 218.324 26.1036 218.205 26.1083C218.098 26.1107 217.992 26.1322 217.886 26.1441C217.831 26.1513 217.779 26.1561 217.728 26.1632C217.525 26.1895 217.525 26.1895 217.154 26.0367C217.009 25.977 216.844 26.0606 216.706 26.0033C216.612 25.9651 216.532 25.9078 216.442 25.8673C216.403 25.8505 216.342 25.8481 216.293 25.8529C216.132 25.8696 215.971 25.8816 215.816 25.9126C215.707 25.9341 215.642 26.0009 215.655 26.0678C215.658 26.094 215.736 26.1322 215.781 26.1346C215.884 26.1394 215.994 26.1059 216.093 26.1227C216.19 26.1394 216.29 26.1871 216.361 26.2396C216.506 26.3494 216.67 26.2516 216.809 26.2802C216.954 26.3112 217.073 26.4067 217.212 26.464C217.247 26.4783 217.315 26.4544 217.37 26.4473C217.528 26.4306 217.686 26.4163 217.844 26.3996C217.976 26.4688 218.118 26.5308 218.237 26.6096C218.453 26.7528 218.685 26.8077 218.965 26.7385C219.123 26.7003 219.278 26.7146 219.404 26.8077C219.533 26.9032 219.681 26.8937 219.845 26.8746C219.997 26.8555 220.152 26.803 220.306 26.8698C220.641 27.0178 220.645 27.025 221.041 26.9677C221.16 26.951 221.251 26.9462 221.341 27.0011C221.425 27.0512 221.515 27.0942 221.602 27.1419C221.76 27.1252 221.921 27.1085 222.079 27.0894C222.282 27.0632 222.395 27.0966 222.443 27.2302C222.472 27.3114 222.485 27.3854 222.556 27.4403C222.64 27.5071 222.73 27.5047 222.853 27.4856C222.969 27.4689 223.052 27.4427 223.101 27.3568C223.12 27.3209 223.159 27.2875 223.194 27.2589C223.223 27.2374 223.268 27.204 223.294 27.2088C223.343 27.2183 223.407 27.2445 223.423 27.2756C223.581 27.5644 223.581 27.5668 223.742 27.6504C223.919 27.7434 224.103 27.827 224.264 27.932C224.409 28.0251 224.554 27.9845 224.712 27.9845C224.832 27.9845 224.909 28.0466 224.899 28.1087C224.893 28.1445 224.848 28.197 224.809 28.2017C224.493 28.2495 224.174 28.2901 223.855 28.3235C223.816 28.3283 223.768 28.2853 223.723 28.2638C223.633 28.2208 223.552 28.154 223.455 28.1397C223.359 28.1254 223.246 28.1612 223.14 28.1731C223.033 28.185 222.92 28.2161 222.824 28.197C222.727 28.1779 222.65 28.1087 222.559 28.0633C222.517 28.0418 222.459 28.0108 222.424 28.018C222.189 28.0753 222.015 27.9965 221.847 27.8914C221.812 27.87 221.75 27.8556 221.705 27.8604C221.331 27.901 220.961 27.9487 220.587 27.9941C220.435 28.0132 220.313 27.9296 220.28 27.7888C220.264 27.71 220.232 27.6313 220.232 27.5525C220.232 27.4093 220.055 27.3305 219.926 27.3472C219.713 27.3711 219.497 27.3902 219.288 27.426C219.117 27.4546 218.972 27.426 218.856 27.34C218.72 27.2422 218.566 27.2613 218.411 27.2875C218.295 27.3066 218.263 27.3854 218.269 27.5835C218.276 27.7434 218.221 27.7936 218.011 27.8198C217.747 27.8532 217.479 27.8867 217.212 27.9129C217.17 27.9177 217.122 27.8771 217.08 27.8556C216.99 27.8127 216.909 27.7434 216.812 27.7291C216.716 27.7124 216.603 27.7482 216.496 27.7625C216.39 27.7745 216.277 27.8079 216.18 27.7912C216.084 27.7745 216.003 27.7029 215.916 27.6575C215.874 27.636 215.823 27.605 215.781 27.6098C215.568 27.6289 215.355 27.6575 215.143 27.6838C214.904 27.7124 214.904 27.7124 214.566 27.5644C214.411 27.4976 214.256 27.5501 214.105 27.5692C213.944 27.5883 213.792 27.5978 213.666 27.5024C213.583 27.4403 213.489 27.4021 213.389 27.414C213.122 27.4427 212.857 27.4785 212.59 27.5071C212.545 27.5119 212.483 27.5 212.448 27.4785C212.277 27.3782 212.11 27.2995 211.871 27.3496C211.665 27.3926 211.442 27.3949 211.236 27.4355C211.123 27.457 211.072 27.5334 211.094 27.5931C211.107 27.6241 211.175 27.6599 211.22 27.6599C211.323 27.6623 211.436 27.6265 211.533 27.6408C211.732 27.6694 211.832 27.8699 212.093 27.815C212.248 27.7816 212.409 27.7697 212.57 27.7601C212.612 27.7578 212.657 27.8031 212.703 27.827C212.831 27.8914 212.944 27.975 213.131 27.932C213.286 27.8986 213.45 27.8891 213.608 27.87C213.86 27.8389 213.86 27.8413 214.185 27.9869C214.34 28.0562 214.495 28.0013 214.646 27.9845C214.759 27.9726 214.865 27.9487 214.956 27.9822C215.094 28.0323 215.194 28.1468 215.365 28.1397C215.526 28.1325 215.684 28.0991 215.845 28.0872C215.945 28.08 216.039 28.1182 216.119 28.1827C216.203 28.2471 216.293 28.2757 216.403 28.2614C216.561 28.2423 216.722 28.2185 216.883 28.2065C216.928 28.2041 216.98 28.2256 217.022 28.2447C217.112 28.2877 217.199 28.3378 217.286 28.3832C217.444 28.3688 217.605 28.3641 217.76 28.3354C217.879 28.3139 217.963 28.3235 218.06 28.3712C218.182 28.4357 218.282 28.5503 218.482 28.4954C218.582 28.4691 218.698 28.4763 218.798 28.4524C218.92 28.4214 219.004 28.4333 219.091 28.5049C219.255 28.641 219.462 28.6433 219.674 28.5908C219.907 28.5335 220.081 28.6004 220.255 28.7054C220.438 28.8152 220.438 28.8128 220.58 29.0778C220.622 29.1542 220.741 29.19 220.841 29.1757C221.009 29.1518 221.154 29.1637 221.276 29.2544C221.405 29.3523 221.56 29.3404 221.718 29.3141C221.928 29.2783 222.137 29.2473 222.308 29.3857C222.392 29.4526 222.482 29.4692 222.595 29.4525C222.914 29.4096 223.236 29.3833 223.549 29.3308C223.739 29.2974 223.849 29.3738 223.978 29.4382C224.152 29.5266 224.342 29.6053 224.342 29.7939C224.342 29.8249 224.387 29.8607 224.426 29.8846C224.509 29.9347 224.6 29.9777 224.687 30.0254C224.816 30.097 224.941 30.1567 225.119 30.1185C225.273 30.0875 225.438 30.0779 225.596 30.0565C225.754 30.035 225.899 30.023 226.04 30.1138C226.205 30.2164 226.379 30.3143 226.566 30.3907C226.698 30.4456 226.872 30.3525 227.014 30.4265C227.101 30.4718 227.185 30.5243 227.278 30.5625C227.317 30.5792 227.378 30.5673 227.43 30.5625C227.536 30.553 227.646 30.5458 227.749 30.522C227.868 30.4957 227.958 30.5005 228.049 30.5554C228.132 30.6055 228.216 30.6747 228.313 30.689C228.458 30.7105 228.619 30.615 228.764 30.7248C228.838 30.7797 228.932 30.8323 229.028 30.849C229.125 30.8657 229.238 30.8299 229.341 30.8322C229.386 30.8322 229.441 30.8704 229.467 30.9015C229.483 30.9182 229.46 30.9635 229.438 30.9874C229.409 31.0161 229.367 31.0543 229.325 31.059C229.006 31.102 228.687 31.1378 228.368 31.1784C228.177 31.2023 228.177 31.2022 227.794 31.0519C227.704 31.0161 227.604 31.0232 227.491 31.0399C227.339 31.0614 227.185 31.102 227.027 31.059C226.82 30.8967 226.566 30.8824 226.295 30.9444C226.182 30.9707 226.079 30.9707 225.995 30.9253C225.818 30.8346 225.631 30.7511 225.473 30.6437C225.351 30.5601 225.293 30.553 225.241 30.6676C225.225 30.7034 225.209 30.7415 225.212 30.775C225.231 30.8943 225.267 31.0113 225.286 31.1306C225.293 31.164 225.267 31.2023 225.251 31.2381C225.199 31.3383 225.132 31.3311 225.019 31.2476C224.906 31.164 224.77 31.1092 224.59 31.1474C224.435 31.1808 224.268 31.176 224.113 31.2118C223.874 31.2643 223.707 31.1879 223.536 31.0853C223.501 31.0638 223.439 31.0519 223.394 31.0566C222.914 31.1115 222.437 31.1736 221.957 31.2285C221.853 31.2404 221.76 31.2046 221.679 31.1402C221.596 31.0757 221.502 31.0423 221.399 31.0543C220.973 31.1044 220.548 31.1497 220.122 31.2118C219.948 31.2381 219.81 31.207 219.691 31.1235C219.6 31.0614 219.517 31.0423 219.404 31.0495C219.281 31.0566 219.194 31.0805 219.133 31.1497C219.075 31.2166 219.117 31.2571 219.246 31.3097C219.384 31.3669 219.513 31.441 219.645 31.5078C219.752 31.4982 219.858 31.4791 219.961 31.4815C220.006 31.4815 220.048 31.5245 220.094 31.5484C220.222 31.6176 220.342 31.6868 220.525 31.6486C220.68 31.6152 220.845 31.608 221.002 31.5866C221.222 31.5603 221.222 31.5603 221.576 31.7107C221.666 31.7489 221.763 31.7465 221.879 31.725C221.979 31.7083 222.082 31.7417 222.153 31.8133C222.182 31.842 222.173 31.8897 222.111 32.0473C222.111 32.1642 222.179 32.1117 222.201 32.0353C222.237 31.9255 222.169 31.8897 222.04 31.9494C221.95 31.9924 221.905 32.0544 221.928 32.1045C221.94 32.1308 222.002 32.1642 222.111 32.0473C222.395 31.904 222.611 31.8873 222.817 31.8491C222.94 31.8276 223.017 31.8372 223.114 31.8992C223.23 31.9732 223.346 32.052 223.536 32.0138C223.742 31.9709 223.961 31.9661 224.171 31.9303C224.364 31.8969 224.464 32.0019 224.587 32.064C224.735 32.138 224.899 32.0544 225.035 32.0974C225.177 32.1403 225.276 32.2454 225.441 32.2645C225.679 32.2 225.831 32.3194 226.011 32.3981C226.153 32.4578 226.321 32.4053 226.472 32.379C226.643 32.3504 226.785 32.3767 226.904 32.4626C227.04 32.5605 227.191 32.539 227.346 32.5175C227.707 32.4698 227.72 32.4626 227.929 32.5939C228.081 32.6894 228.226 32.6464 228.377 32.6345C228.509 32.6989 228.638 32.7681 228.777 32.8254C228.812 32.8397 228.88 32.8159 228.935 32.8087C229.093 32.7896 229.254 32.7705 229.412 32.7514C229.518 32.7395 229.631 32.7037 229.728 32.718C229.825 32.7347 229.905 32.8039 229.992 32.8493C230.079 32.8947 230.169 32.94 230.253 32.9877C230.382 33.0593 230.505 33.119 230.685 33.0832C230.84 33.0522 231.001 33.0426 231.162 33.0212C231.365 32.9949 231.359 33.0021 231.736 33.1453C231.939 33.2241 232.148 33.1286 232.355 33.119C232.458 33.1143 232.558 33.1405 232.629 33.2097C232.658 33.2384 232.648 33.2861 232.658 33.3267C232.126 33.3912 231.591 33.446 231.065 33.5248C230.862 33.5559 230.756 33.4699 230.646 33.3983C230.466 33.2837 230.227 33.4508 230.057 33.3028C229.953 33.2145 229.805 33.1644 229.628 33.2074C229.525 33.2312 229.415 33.2288 229.309 33.2503C229.038 33.3028 228.79 33.3052 228.574 33.1405C228.5 33.0832 228.393 33.0522 228.316 32.9973C228.226 32.9376 228.139 32.9042 228.032 32.9161C227.552 32.9734 227.075 33.0307 226.598 33.0928C226.556 33.0975 226.514 33.1333 226.479 33.1596C226.389 33.2264 226.418 33.279 226.563 33.3219C226.611 33.3363 226.65 33.3673 226.695 33.3911C226.782 33.4365 226.862 33.5081 226.959 33.5248C227.056 33.5415 227.169 33.5081 227.275 33.4962C227.381 33.4842 227.494 33.4484 227.591 33.4628C227.688 33.4795 227.768 33.5487 227.858 33.5917C227.9 33.6131 227.952 33.6489 227.994 33.6466C228.206 33.6322 228.416 33.606 228.629 33.5845C228.761 33.6489 228.874 33.742 229.032 33.7635C229.132 33.7778 229.238 33.7516 229.341 33.7564C229.386 33.7587 229.444 33.7946 229.467 33.8256C229.48 33.8447 229.438 33.8924 229.405 33.9163C229.283 34.007 229.115 33.9903 228.964 34.0189C228.8 34.0499 228.651 34.0404 228.526 33.9473C228.442 33.8853 228.348 33.8519 228.245 33.8638C227.978 33.8948 227.713 33.9306 227.446 33.9569C227.401 33.9617 227.346 33.9402 227.304 33.9235C226.965 33.7779 226.965 33.7731 226.727 33.8041C226.376 33.8495 226.376 33.8494 226.14 33.7229C226.095 33.6991 226.047 33.6537 226.008 33.6561C225.634 33.6943 225.264 33.7325 224.893 33.7874C224.77 33.8041 224.687 33.8041 224.596 33.742C224.519 33.6895 224.429 33.6298 224.332 33.6155C224.232 33.6012 224.123 33.637 224.016 33.6489C223.91 33.6609 223.797 33.6919 223.704 33.6728C223.607 33.6537 223.523 33.5869 223.439 33.5392C223.352 33.489 223.259 33.4914 223.14 33.5105C222.772 33.5654 222.769 33.5582 222.405 33.4102C222.363 33.3935 222.308 33.3744 222.263 33.3792C221.995 33.4079 221.731 33.4437 221.463 33.4723C221.36 33.4842 221.26 33.4532 221.189 33.384C221.16 33.3553 221.17 33.3076 221.151 33.2145C221.128 33.193 221.154 33.2312 221.16 33.267C221.209 33.2623 221.267 33.267 221.302 33.2479C221.393 33.2026 221.438 33.1429 221.415 33.0928C221.402 33.0665 221.341 33.0331 221.302 33.0331C221.231 33.0331 221.17 33.0856 221.151 33.2145C220.948 33.2933 220.732 33.31 220.522 33.3482C220.4 33.3721 220.322 33.3601 220.226 33.2981C220.11 33.2217 219.99 33.1477 219.8 33.1859C219.594 33.2288 219.375 33.236 219.162 33.2694C218.917 33.3076 218.811 33.0928 218.604 33.0975C218.392 33.1023 218.179 33.1429 217.966 33.1715C217.779 33.1954 217.779 33.1954 217.392 33.0402C217.251 32.983 217.083 33.0665 216.944 33.0068C216.851 32.9686 216.77 32.9114 216.68 32.8708C216.641 32.8541 216.58 32.8541 216.532 32.8588C216.264 32.8875 215.994 32.9066 215.736 32.9591C215.442 33.0212 215.22 32.9543 215.01 32.8135C214.746 32.8397 214.479 32.8541 214.218 32.8994C214.027 32.9328 213.918 32.8541 213.789 32.7896C213.744 32.7681 213.705 32.7323 213.657 32.7228C213.608 32.7132 213.55 32.7323 213.499 32.7395C213.286 32.7657 213.067 32.7777 212.861 32.8207C212.606 32.8756 212.509 32.6798 212.313 32.6559C212.18 32.7729 212.11 32.9328 211.848 32.9448C211.636 32.9543 211.423 32.9925 211.21 33.0188C211.104 33.0307 210.997 33.045 210.891 33.057C210.72 33.0785 210.64 33.1715 210.675 33.3148C210.695 33.3935 210.711 33.4723 210.727 33.5511C210.759 33.6919 210.678 33.8113 210.543 33.828C210.169 33.8733 209.798 33.9211 209.425 33.9616C209.325 33.9736 209.228 33.933 209.147 33.8685C209.064 33.8041 208.97 33.7755 208.867 33.7874C208.493 33.8327 208.122 33.8805 207.748 33.9211C207.707 33.9258 207.652 33.902 207.61 33.8829C207.52 33.8399 207.433 33.7898 207.346 33.7444C207.133 33.7659 206.923 33.7802 206.714 33.8089C206.375 33.8518 206.375 33.8542 206.127 33.7229C206.082 33.6991 206.037 33.6537 205.995 33.6561C205.834 33.6657 205.676 33.6895 205.515 33.711C205.041 33.7731 205.041 33.7731 204.902 33.7015C204.777 33.6346 204.664 33.5535 204.474 33.5917C204.267 33.6346 204.048 33.6489 203.835 33.6728C203.677 33.6895 203.52 33.7086 203.362 33.7134C203.32 33.7158 203.275 33.6704 203.229 33.6466C203.101 33.5726 202.975 33.5129 202.798 33.5535C202.694 33.5773 202.585 33.5821 202.478 33.5941C202.201 33.6275 202.201 33.6274 201.747 33.4842C201.702 33.4699 201.647 33.4532 201.602 33.4604C201.228 33.5033 200.857 33.5511 200.483 33.5917C200.438 33.5964 200.383 33.5821 200.338 33.5702C199.829 33.4317 199.829 33.4317 199.287 33.4986C199.081 33.5224 199.075 33.532 198.859 33.4055C198.762 33.3506 198.681 33.3243 198.569 33.341C198.143 33.3983 197.714 33.4365 197.292 33.5033C197.102 33.532 196.992 33.4604 196.864 33.3959C196.818 33.3744 196.77 33.3267 196.731 33.3291C196.306 33.3744 195.88 33.4293 195.455 33.4747C195.416 33.4795 195.368 33.4317 195.323 33.4102C195.236 33.3673 195.152 33.3028 195.055 33.2885C194.955 33.2742 194.846 33.31 194.736 33.3219C194.469 33.353 194.469 33.3506 194.159 33.2097C194.117 33.1906 194.062 33.1644 194.021 33.1692C193.595 33.2169 193.166 33.2575 192.744 33.3267C192.502 33.3649 192.338 33.2957 192.167 33.1954C192.132 33.1739 192.071 33.1644 192.025 33.1692C191.545 33.2241 191.068 33.2861 190.588 33.341C190.488 33.3529 190.391 33.3124 190.311 33.2503C190.182 33.1524 190.03 33.1644 189.869 33.1859C189.498 33.236 189.495 33.2336 189.276 33.119C189.231 33.0952 189.192 33.0641 189.144 33.0522C189.099 33.0403 189.041 33.0474 188.992 33.0522C188.78 33.0761 188.567 33.1023 188.354 33.1286C188.141 33.1548 187.925 33.1692 187.716 33.2097C187.458 33.2599 187.336 33.1047 187.155 33.0331C186.891 33.0641 186.62 33.0832 186.359 33.1333C186.159 33.1715 186.066 33.0665 185.934 33.0116C185.888 32.9925 185.84 32.9519 185.798 32.9567C185.318 33.0092 184.838 33.0665 184.361 33.131C184.244 33.1453 184.167 33.1262 184.07 33.0689C183.854 32.94 183.845 32.9448 183.484 32.9925C183.326 33.014 183.174 33.0331 183.039 32.9352C182.92 32.8469 182.775 32.8254 182.604 32.854C182.394 32.8899 182.178 32.909 181.966 32.9328C181.753 32.9591 181.54 32.9949 181.327 33.0068C181.157 33.0188 181.053 32.9066 180.918 32.8493C180.876 32.8326 180.818 32.8302 180.77 32.835C180.557 32.8564 180.338 32.8731 180.132 32.9137C179.88 32.9639 179.742 32.8326 179.564 32.7562C179.526 32.7395 179.461 32.749 179.413 32.7562C179.039 32.7992 178.668 32.8469 178.294 32.8923C178.162 32.8278 178.027 32.7658 177.895 32.7013C177.682 32.7252 177.469 32.7514 177.256 32.7753C177.095 32.7944 176.931 32.8015 176.779 32.8374C176.583 32.8851 176.486 32.7729 176.354 32.718C176.309 32.6989 176.26 32.6583 176.219 32.6631C175.951 32.6894 175.684 32.718 175.419 32.7586C175.168 32.7992 175.068 32.5843 174.862 32.5867C174.649 32.5891 174.43 32.6201 174.223 32.6631C173.985 32.7132 173.817 32.6368 173.646 32.5342C173.611 32.5127 173.55 32.5008 173.505 32.5056C173.237 32.5342 172.973 32.57 172.705 32.5987C172.66 32.6034 172.605 32.5915 172.56 32.5772C172.051 32.4363 172.051 32.434 171.829 32.4626C171.671 32.4817 171.509 32.5056 171.348 32.5175C171.303 32.5223 171.248 32.5008 171.206 32.4817C170.871 32.3361 170.871 32.3337 170.629 32.3623C170.417 32.3886 170.204 32.4148 169.991 32.4411C169.859 32.3766 169.724 32.3146 169.592 32.2502C169.327 32.2812 169.056 32.305 168.795 32.348C168.673 32.3671 168.592 32.3599 168.499 32.3003C168.383 32.2287 168.267 32.1451 168.073 32.1857C167.867 32.2287 167.648 32.2334 167.438 32.2692C167.187 32.3122 167.084 32.095 166.881 32.0974C166.668 32.0998 166.449 32.1308 166.243 32.1738C166.004 32.2239 165.836 32.1475 165.666 32.0449C165.63 32.0234 165.569 32.0115 165.524 32.0162C164.937 32.0855 164.354 32.1547 163.767 32.2287C163.406 32.274 163.406 32.2764 162.72 32.1451C162.671 32.1356 162.62 32.126 162.571 32.1308C162.359 32.1523 162.139 32.169 161.933 32.2096C161.682 32.2597 161.543 32.1308 161.366 32.052C161.327 32.0353 161.266 32.0448 161.214 32.0496C161.053 32.0663 160.895 32.0878 160.734 32.1069C160.521 32.1332 160.309 32.1594 160.096 32.1857C159.964 32.1236 159.828 32.0592 159.696 31.9971C159.432 32.0281 159.161 32.0449 158.9 32.095C158.7 32.1332 158.607 32.0329 158.475 31.9756C158.429 31.9565 158.381 31.916 158.339 31.9184C157.859 31.9709 157.379 32.0258 156.902 32.0926C156.705 32.1212 156.615 32.0138 156.483 31.9589C156.437 31.9422 156.386 31.9112 156.344 31.916C156.025 31.9494 155.706 31.99 155.387 32.0305C155.206 32.0544 155.206 32.0544 154.813 31.9064C154.768 31.8897 154.716 31.873 154.671 31.8778C153.659 31.9971 152.65 32.1236 151.638 32.243C151.535 32.2549 151.441 32.2191 151.361 32.1547C151.277 32.0902 151.184 32.0568 151.08 32.0687C150.655 32.1189 150.226 32.1642 149.804 32.2263C149.63 32.2525 149.491 32.2215 149.372 32.1379C149.282 32.0759 149.198 32.052 149.085 32.0663C148.872 32.095 148.66 32.1189 148.447 32.1451C148.234 32.1714 148.022 32.1976 147.809 32.2239C147.596 32.2502 147.38 32.2645 147.171 32.3051C146.913 32.3552 146.787 32.2072 146.61 32.1332C146.291 32.169 145.972 32.2048 145.656 32.243C145.23 32.2931 144.805 32.348 144.379 32.3958C144.341 32.4005 144.292 32.3576 144.247 32.3361C144.115 32.2764 144.018 32.1929 143.822 32.2191C142.868 32.3456 141.907 32.4531 140.95 32.5772C140.75 32.6034 140.663 32.5008 140.527 32.4459C140.482 32.4292 140.431 32.3958 140.389 32.4005C139.857 32.4602 139.325 32.527 138.793 32.5915C138.577 32.6177 138.577 32.6177 138.216 32.4697C138.175 32.453 138.12 32.4315 138.075 32.4363C137.382 32.5175 136.692 32.6034 135.999 32.687C135.896 32.6989 135.802 32.6655 135.718 32.601C135.638 32.5366 135.541 32.5008 135.441 32.5127C134.803 32.5891 134.162 32.6631 133.527 32.7466C133.356 32.7705 133.214 32.749 133.091 32.6631C133.004 32.601 132.917 32.5748 132.808 32.5891C131.85 32.7061 130.893 32.8183 129.936 32.9424C129.752 32.9663 129.623 32.9209 129.507 32.8421C129.414 32.7801 129.333 32.7681 129.217 32.7777C129.095 32.7896 129.02 32.8159 128.953 32.8875C128.866 32.9806 128.811 33.0975 128.605 33.1047C128.392 33.1119 128.176 33.1405 127.966 33.1811C127.767 33.2217 127.673 33.1143 127.547 33.0498C127.454 33.0044 127.367 32.9973 127.248 33.0188C127.138 33.0379 127.07 33.0784 127.006 33.1548C126.864 33.3171 126.851 33.3171 126.677 33.2145C126.584 33.1596 126.5 33.1166 126.397 33.1262C125.971 33.1739 125.546 33.2264 125.12 33.2813C124.875 33.3124 124.872 33.3172 124.688 33.1978C124.598 33.1381 124.511 33.1095 124.405 33.1238C123.235 33.267 122.065 33.4055 120.895 33.5559C120.714 33.5797 120.592 33.5296 120.463 33.458C120.421 33.4341 120.379 33.4007 120.331 33.3911C120.282 33.3816 120.227 33.3911 120.176 33.3959C119.325 33.4986 118.471 33.5964 117.623 33.711C117.43 33.7373 117.327 33.6609 117.194 33.5988C117.149 33.5773 117.111 33.5439 117.062 33.5344C117.014 33.5272 116.956 33.5439 116.904 33.5511C116.053 33.6537 115.199 33.7516 114.351 33.8662C114.148 33.8924 114.061 33.7922 113.929 33.7397C113.884 33.7206 113.836 33.6847 113.794 33.6895C113.526 33.7158 113.262 33.7516 112.994 33.7826C112.356 33.8614 111.718 33.9354 111.08 34.0166C110.835 34.0476 110.728 33.8351 110.522 33.8447C110.255 33.8566 109.99 33.9044 109.723 33.9378C109.51 33.964 109.297 33.9879 109.085 34.0166C108.875 34.0428 108.875 34.0428 108.353 33.9043C108.308 33.8924 108.253 33.8757 108.208 33.8805C107.463 33.9688 106.716 34.0571 105.974 34.1526C105.803 34.1741 105.661 34.1622 105.539 34.0738C105.452 34.0118 105.362 33.9807 105.255 33.9951C104.137 34.1311 103.022 34.2672 101.903 34.4009C101.861 34.4056 101.806 34.3818 101.765 34.3627C101.674 34.3197 101.587 34.2696 101.5 34.2242C101.436 34.2791 101.352 34.3292 101.31 34.3913C101.252 34.4749 101.175 34.4987 101.052 34.5131C100.93 34.5274 100.852 34.5226 100.756 34.4605C100.64 34.3842 100.52 34.3245 100.33 34.3483C99.1602 34.4987 97.9901 34.6348 96.8201 34.7828C96.6267 34.8067 96.5365 34.7016 96.4011 34.6467C96.356 34.63 96.3044 34.6038 96.2625 34.6085C95.7822 34.6634 95.3052 34.7231 94.8249 34.7804C93.4937 34.9427 92.1626 35.0979 90.8346 35.2697C90.5928 35.3008 90.4284 35.2411 90.2576 35.1385C90.2221 35.117 90.1609 35.105 90.1158 35.1098C88.2527 35.3342 86.3897 35.5609 84.5299 35.7877C84.4299 35.7996 84.3332 35.7615 84.2526 35.6994C84.1688 35.6349 84.0754 35.6039 83.9722 35.6159C83.1213 35.7185 82.2704 35.8212 81.4194 35.9262C81.2067 35.9524 81.2035 35.9548 80.9843 35.8402C80.9392 35.8163 80.8908 35.771 80.8554 35.7758C80.7812 35.7877 80.7103 35.8474 80.6587 35.9285C80.6072 36.0145 80.5266 36.0383 80.4073 36.0551C80.2848 36.0718 80.2043 36.0646 80.1108 36.0073C79.9915 35.9357 79.8819 35.8665 79.6885 35.8904C77.2421 36.1959 74.7956 36.4895 72.3492 36.7926C72.1525 36.8165 72.0623 36.7163 71.9269 36.6614C71.8818 36.6447 71.8367 36.6208 71.7883 36.616C71.7368 36.6112 71.682 36.6256 71.6304 36.6327C67.64 37.1173 63.6496 37.6042 59.6593 38.0888C59.4207 38.1175 59.4239 38.1175 59.1629 38.3371C59.1306 38.3633 59.0887 38.3991 59.0436 38.4039C57.8219 38.5567 56.5971 38.7047 55.3723 38.8526C54.8405 38.9171 54.3087 38.9839 53.7768 39.046C53.5866 39.0675 53.5866 39.0675 53.1322 39.3253C53.0935 39.3468 53.0483 39.3754 53.0032 39.3802C50.8758 39.6404 48.7485 39.9006 46.6179 40.156C46.4503 40.1751 46.3149 40.218 46.2376 40.3326C46.1828 40.4138 46.1119 40.4615 46.0055 40.4758C44.5164 40.6572 43.0273 40.8411 41.5349 41.0177C41.3576 41.0392 41.2512 41.106 41.1642 41.2063C41.1352 41.2397 41.1094 41.2779 41.0675 41.3017C41.0288 41.3232 40.9708 41.3304 40.9224 41.3375C39.646 41.4927 38.3696 41.6526 37.09 41.8006C36.8998 41.8221 36.8224 41.9104 36.729 42.0035C36.6967 42.0346 36.6742 42.0775 36.6323 42.099C36.5904 42.1181 36.5291 42.1181 36.4776 42.1229C35.4139 42.2518 34.3502 42.3831 33.2866 42.512C33.0803 42.5 33.0351 42.6385 32.9352 42.722C32.8997 42.7507 32.874 42.7889 32.8321 42.808C32.787 42.8271 32.7289 42.8247 32.6741 42.8294C31.8232 42.9321 30.9722 43.0419 30.1181 43.1374C29.9215 43.1589 29.8828 43.2806 29.7764 43.3641C29.7409 43.3904 29.7055 43.431 29.6636 43.4381C29.1318 43.5074 28.6 43.5718 28.0681 43.6339C27.8909 43.6553 27.8908 43.653 27.5782 43.8893C27.5427 43.9155 27.5008 43.9442 27.4557 43.9514C26.6595 44.0516 25.8602 44.1471 25.0608 44.245C24.9577 44.2569 24.8868 44.3142 24.8352 44.3953C24.7836 44.4765 24.7095 44.529 24.6064 44.5409C23.9682 44.6197 23.3299 44.7009 22.6917 44.7725C22.5144 44.7916 22.3984 44.8513 22.321 44.9587C22.263 45.0398 22.1921 45.0804 22.0793 45.0947C21.4411 45.1711 20.8029 45.2547 20.1615 45.3215C19.9745 45.3406 19.8778 45.4218 19.8004 45.522C19.7392 45.6032 19.6683 45.6318 19.549 45.6461C18.379 45.7846 17.2057 45.923 16.0389 46.0758C15.8423 46.102 15.7424 46.0185 15.6134 45.9588C15.4297 45.8753 15.2589 45.7846 15.2589 45.5984C15.2589 45.5697 15.2041 45.5363 15.1654 45.5125C14.8786 45.3334 14.8786 45.3334 14.8334 45.1425C14.8076 45.0255 14.7786 44.9062 14.7561 44.7868C14.7142 44.5911 14.611 44.541 14.3144 44.5768C14.2081 44.5887 14.1017 44.6054 13.9953 44.6149C13.8374 44.6316 13.7182 44.5529 13.6892 44.4096C13.673 44.3309 13.6537 44.2521 13.6376 44.1733C13.7988 44.1542 13.7955 44.1519 14.0792 43.863C14.1984 43.7413 14.1985 43.7413 13.9696 43.6196C13.8826 43.5742 13.7988 43.5241 13.7053 43.4811C13.6634 43.462 13.6086 43.4501 13.5635 43.4548C13.296 43.4835 13.0317 43.5169 12.7673 43.5503C12.3419 43.6028 12.3418 43.6028 11.9099 43.3593C11.8745 43.3403 11.8197 43.3045 11.8261 43.2854C11.8616 43.197 11.9486 43.1588 12.0582 43.1493C12.2193 43.135 12.3773 43.1111 12.5352 43.092C12.6416 43.0801 12.7479 43.0658 12.8543 43.0538C12.9542 42.9631 13.0574 42.8748 13.1509 42.7817C13.2992 42.6385 13.2991 42.6337 13.096 42.5334C12.9671 42.4666 12.8285 42.4069 12.6964 42.3449C12.5384 42.364 12.3773 42.3854 12.2193 42.4021C12.0195 42.4236 11.9389 42.3783 11.8873 42.2231C11.8422 42.0871 11.897 41.9701 12.0517 41.9415C12.2097 41.9128 12.358 41.8937 12.4386 41.772C12.5159 41.655 12.6513 41.6097 12.8189 41.6001C12.9253 41.593 13.0316 41.5763 13.138 41.5619C13.2766 41.5428 13.3507 41.4211 13.3217 41.285C13.3056 41.1967 13.2734 41.1227 13.1477 41.1036C12.59 41.0201 12.5836 41.0225 12.3064 40.8601C12.2806 40.8458 12.2613 40.8029 12.271 40.7814C12.2871 40.7456 12.3225 40.6931 12.3612 40.6859C12.7319 40.6334 13.1025 40.5857 13.4732 40.5498C13.5957 40.5379 13.686 40.5212 13.7279 40.4329C13.7859 40.3111 13.7601 40.1989 13.6473 40.1154C13.6118 40.0891 13.5538 40.0557 13.5151 40.0581C13.0896 40.1011 12.6674 40.156 12.2419 40.1989C12.2032 40.2037 12.1324 40.1631 12.1162 40.1321C12.084 40.0748 12.1323 39.9984 12.2451 39.9722C12.3934 39.9364 12.5449 39.934 12.6448 39.8146C12.7834 39.6451 12.9542 39.49 13.109 39.3277C13.1347 39.299 13.1767 39.2441 13.167 39.2393C13.0864 39.1868 12.993 39.1463 12.9092 39.0961C12.7673 39.0126 12.7673 38.8956 12.7995 38.7834C12.8253 38.6927 12.922 38.6569 13.0413 38.6569C13.0928 38.6569 13.1573 38.6569 13.1992 38.6354C13.3088 38.5829 13.3443 38.5161 13.2895 38.4659C13.2572 38.4373 13.1993 38.3967 13.1606 38.4015C12.4708 38.4803 11.7777 38.5567 11.0912 38.6545C10.8881 38.6832 10.7947 38.5925 10.6722 38.528C10.5788 38.4779 10.4917 38.4588 10.3756 38.4946C10.266 38.528 10.1597 38.5089 10.092 38.4302C10.0372 38.3657 10.1339 38.3108 10.395 38.2487C10.4433 38.2368 10.4981 38.2296 10.5336 38.2058C10.9075 37.948 10.9075 37.9456 11.1653 37.9122C11.4167 37.8811 11.4168 37.8788 11.5489 37.7403C11.6102 37.6759 11.6778 37.6114 11.7358 37.5446C11.7584 37.5183 11.7971 37.4706 11.7842 37.4562C11.7133 37.3822 11.6166 37.3656 11.5038 37.3823C11.2524 37.4228 10.9559 37.3894 10.8237 37.6162C10.7721 37.7021 10.6916 37.726 10.5755 37.7403C9.4087 37.8788 8.24184 38.0268 7.0718 38.1604C6.88163 38.1819 6.79465 38.2702 6.72052 38.3681C6.65605 38.4493 6.58513 38.4731 6.46264 38.4875C6.34016 38.5018 6.24341 38.5089 6.1725 38.4302C6.1306 38.3824 6.16606 38.3156 6.26276 38.2487C6.40136 38.1533 6.37556 38.0339 6.33044 37.9217C6.29821 37.8477 6.19829 37.7952 6.09192 37.8C5.93398 37.8095 5.78253 37.8358 5.65038 37.7403C5.57302 37.6854 5.4763 37.6472 5.38927 37.5995C5.22166 37.5016 5.05405 37.4013 4.81875 37.4658C4.65759 37.4419 4.54477 37.356 4.41584 37.2892C4.19989 37.1794 4.18055 37.1626 4.33526 37.0457C4.50932 36.9144 4.37392 36.7425 4.47061 36.6136C4.57376 36.4752 4.71563 36.3535 4.84134 36.2246C4.87357 36.1911 4.90259 36.1601 4.93482 36.1267C4.86069 36.0789 4.79301 36.0193 4.70598 35.9859C4.59317 35.9429 4.53515 35.8904 4.54159 35.7424C4.51903 35.7209 4.52864 35.7758 4.55442 35.7901C4.58343 35.8044 4.6544 35.7925 4.68985 35.7758C4.7801 35.7304 4.82518 35.6708 4.80262 35.6206C4.78973 35.5944 4.72853 35.561 4.68985 35.561C4.61894 35.561 4.55771 35.6135 4.53837 35.7424C4.17736 35.8402 3.80341 35.888 3.42951 35.9262C3.39083 35.931 3.34251 35.8832 3.29738 35.8593C3.14911 35.7782 3.1491 35.7806 2.71396 35.7567C2.66883 35.7543 2.60762 35.7209 2.58506 35.6875C2.49158 35.5419 2.49483 35.3819 2.44971 35.2268C2.53351 35.1265 2.61725 35.0286 2.70428 34.9308C2.87833 34.7327 3.10401 34.5584 3.23939 34.3412C3.21038 34.2242 3.17169 34.1073 3.31352 34.0118C3.71642 33.8924 3.71322 33.8924 3.82281 33.7779C4.13547 33.4532 4.44488 33.1262 4.77043 32.8063C4.85746 32.7228 4.85747 32.6774 4.70276 32.6416C4.65441 32.6321 4.60277 32.6297 4.5512 32.6345C4.39003 32.6512 4.22887 32.6941 4.07093 32.6846C3.91299 32.6774 3.79696 32.5724 3.66803 32.5079C3.53587 32.4411 3.40373 32.3719 3.27157 32.3027C3.12008 32.3098 2.96861 32.3767 2.81712 32.2692C2.70108 32.1857 2.55605 32.126 2.42389 32.0568C2.52381 31.8754 2.71079 31.7369 2.85584 31.577C2.98799 31.4314 2.99114 31.4338 3.3457 31.3216C3.51331 31.2691 3.57133 30.9993 3.42951 30.9206C3.25868 30.8251 3.07821 30.7368 2.90416 30.6461C2.75266 30.6532 2.59798 30.7177 2.45293 30.6103C2.34012 30.5291 2.21116 30.4742 2.02421 30.5052C1.70833 30.5577 1.38602 30.584 1.06692 30.627C0.957326 30.6413 0.838031 30.6318 0.789682 30.5506C0.757449 30.4933 0.85093 30.4145 0.957297 30.3978C1.11846 30.374 1.26349 30.3453 1.34407 30.226C1.42143 30.1066 1.56324 30.0708 1.73085 30.0541C1.77597 30.0493 1.82758 30.0207 1.85015 29.992C1.96618 29.8536 2.09512 29.7342 2.34331 29.739C2.44646 29.6913 2.50122 29.6316 2.46899 29.5743C2.44965 29.5432 2.38199 29.5027 2.34331 29.5075C2.07578 29.5313 1.80826 29.5552 1.54718 29.5982C1.42469 29.6173 1.33117 29.622 1.25381 29.5504C1.19902 29.5027 1.22802 29.4382 1.33117 29.369C1.42142 29.3093 1.44723 29.2401 1.44079 29.1589C1.42467 28.9704 1.32795 28.9155 1.01852 28.9274C0.796116 28.937 0.741317 28.9059 0.692968 28.7436C0.680075 28.7054 0.647899 28.6529 0.670462 28.6266C0.809062 28.4643 0.89932 28.2638 1.1604 28.1874C1.26355 28.1588 1.37309 28.1588 1.43756 28.0967C1.50202 28.0347 1.56007 27.963 1.62776 27.9034C1.71156 27.8318 1.76953 27.7649 1.73085 27.7196C1.66638 27.6384 1.56327 27.6313 1.44401 27.6599C1.34087 27.6838 1.23128 27.6861 1.12491 27.7005C0.934741 27.7267 0.780059 27.6647 0.757496 27.5596C0.696255 27.2828 0.631771 27.0082 0.576975 26.7314C0.570529 26.6979 0.586601 26.655 0.612387 26.6263C0.702638 26.5261 0.799374 26.4306 0.892848 26.3327C1.00244 26.2205 1.17652 26.242 1.32479 26.2205C1.5343 26.1895 1.53423 26.1919 1.81465 25.9627C1.92425 25.872 2.11443 25.9078 2.22724 25.8267C2.2627 25.8004 2.31749 25.7574 2.30782 25.7336C2.29493 25.7025 2.2305 25.6787 2.18215 25.6643C2.13702 25.65 2.08224 25.6429 2.03389 25.65C1.44726 25.7192 0.863867 25.7932 0.277235 25.8601C0.177314 25.872 0.0677198 25.8195 0.032264 25.7455C-0.00319178 25.6763 0.00644651 25.5927 0 25.5139C0.0934744 25.4161 0.199801 25.3254 0.280382 25.2204C0.341624 25.1392 0.412548 25.1034 0.535032 25.0986C0.696195 25.0914 0.85415 25.0628 1.03465 25.0413C1.36987 24.6928 1.69862 24.3276 2.05963 23.9791C2.20467 23.8383 2.16927 23.695 2.19828 23.5447C2.22729 23.4062 2.44324 23.4277 2.58828 23.3871C2.70432 23.3537 2.74295 23.2773 2.69782 23.2248C2.67204 23.1938 2.61405 23.158 2.56892 23.158C2.46256 23.158 2.35619 23.1794 2.24983 23.1914C2.14346 23.2033 2.02098 23.1962 1.93395 23.2367C1.85015 23.2749 1.79532 23.3561 1.74053 23.4253C1.67928 23.5017 1.59876 23.528 1.47628 23.5327C1.31834 23.5375 1.16041 23.559 1.00247 23.5757C0.828411 23.4826 0.647871 23.3919 0.480262 23.294C0.448029 23.2749 0.441548 23.22 0.444771 23.1842C0.451218 23.0911 0.402882 23.0338 0.296514 22.9885C0.206263 22.9503 0.132122 22.8954 0.0483173 22.8477C0.112782 22.7832 0.183719 22.7211 0.235291 22.6519C0.348105 22.5063 0.489944 22.4013 0.734912 22.4061C0.831609 22.313 0.908945 22.1984 1.03465 22.1339C1.15391 22.0719 1.35699 22.1339 1.44724 21.9931C1.49236 21.9239 1.56009 21.8451 1.64712 21.8165C1.78572 21.7711 1.96622 21.795 2.0468 21.6613C2.09515 21.5849 2.16603 21.5157 2.2595 21.4966C2.36587 21.4751 2.47543 21.4704 2.55279 21.425C2.5947 21.4011 2.63983 21.3629 2.63983 21.3295C2.63983 21.308 2.57541 21.2746 2.53029 21.2603C2.48838 21.2436 2.43353 21.2316 2.38518 21.2364C2.22401 21.2507 2.06608 21.277 1.90492 21.2913C1.85979 21.2961 1.80823 21.2794 1.75988 21.2651C1.61806 21.2269 1.62771 21.1791 1.74053 21.0932C1.85334 21.0097 1.93397 20.9022 2.02744 20.8044C2.13058 20.7876 2.2595 20.7948 2.33041 20.7495C2.44967 20.6755 2.53345 20.568 2.63015 20.4749C2.73652 20.4606 2.8461 20.4559 2.94602 20.4296C2.98792 20.4201 3.00728 20.3675 3.04273 20.3365C3.1072 20.2768 3.16204 20.1909 3.24907 20.1623C3.39089 20.1193 3.56494 20.136 3.64875 20.0047C3.6971 19.9283 3.7712 19.8472 3.86145 19.8424C4.11287 19.8329 4.21924 19.7015 4.34817 19.5774C4.44487 19.4843 4.65116 19.5321 4.75753 19.439C4.82844 19.3793 4.88004 19.3053 4.95095 19.248C4.97996 19.2241 5.04118 19.2122 5.08953 19.2051C5.35384 19.1693 5.62136 19.143 5.88567 19.1048C5.92757 19.0976 5.96628 19.0618 5.99851 19.0332C6.0662 18.9711 6.10806 18.8852 6.19186 18.8446C6.27566 18.804 6.39491 18.804 6.49805 18.7921C6.83005 18.7563 6.85586 18.7658 7.00735 18.5629C7.12984 18.3982 7.42964 18.5152 7.52956 18.3338C7.58758 18.2288 7.6939 18.1428 7.88407 18.1309C8.1516 18.1142 8.4159 18.0688 8.68343 18.0378C8.92195 18.0092 8.91874 18.0091 9.1766 17.7872C9.29263 17.6869 9.4635 17.7012 9.615 17.6821C9.77616 17.663 9.92441 17.6344 10.0018 17.5151C10.0791 17.3981 10.2209 17.3599 10.3853 17.3432C10.5368 17.3265 10.7077 17.3384 10.8269 17.2429C11.117 17.0138 11.1138 17.0114 11.3169 16.9875C11.636 16.9493 11.9551 16.9111 12.2742 16.8705C12.4869 16.8443 12.7093 16.8395 12.9092 16.787C13.0542 16.7488 13.1186 16.6151 13.2121 16.522C13.4764 16.4862 13.7407 16.4504 14.005 16.417C14.3757 16.3693 14.7496 16.3263 15.1235 16.281C15.2846 16.1902 15.3073 15.9897 15.578 15.9802C15.7392 15.9754 15.8971 15.9444 16.0583 15.9253C16.3258 15.8919 16.5901 15.8489 16.8576 15.8322C17.0607 15.8203 17.0961 15.6913 17.2025 15.6102C17.2379 15.5815 17.2702 15.541 17.3121 15.5338C17.7311 15.467 18.163 15.4527 18.5724 15.3548C18.6143 15.3452 18.6529 15.2951 18.6626 15.2593C18.6691 15.2402 18.6143 15.2044 18.5788 15.1877C18.5369 15.1686 18.4821 15.1495 18.437 15.1543C17.1058 15.3142 15.7746 15.4765 14.4434 15.6365C14.2565 15.6603 14.2565 15.6579 13.802 15.9205C13.7633 15.942 13.7181 15.9659 13.6698 15.973C13.4571 16.0017 13.2411 16.0184 13.0316 16.0542C12.8608 16.0828 12.719 16.0542 12.5965 15.9682C12.5095 15.9062 12.4192 15.8871 12.3096 15.8919C12.1871 15.899 12.1066 15.9253 12.0357 15.9897C11.9422 16.0781 11.8938 16.1926 11.6972 16.2165C10.7915 16.3191 9.88568 16.4337 8.98317 16.5435C8.85746 16.5101 8.79623 16.46 8.82846 16.4003C8.8478 16.3645 8.88649 16.3168 8.92517 16.312C9.29585 16.2619 9.66973 16.2189 10.0404 16.1712C10.092 16.164 10.1629 16.1687 10.1919 16.1449C10.3337 16.0375 10.3853 15.8632 10.6529 15.8513C10.8076 15.8441 10.9655 15.8083 11.1138 15.7749C11.1557 15.7654 11.1944 15.7152 11.204 15.6794C11.2073 15.6603 11.1557 15.6245 11.117 15.6078C10.9752 15.5386 10.8108 15.6221 10.669 15.5744C10.6207 15.5577 10.5529 15.5338 10.5433 15.5052C10.5368 15.4789 10.5916 15.4359 10.6303 15.4097C10.6657 15.3858 10.7141 15.3643 10.7624 15.3572C11.1879 15.3023 11.6134 15.245 12.0389 15.202C12.2129 15.1853 12.3354 15.1256 12.4128 15.0158C12.4708 14.9347 12.5417 14.8917 12.6513 14.8798C13.3958 14.7915 14.1404 14.6936 14.8882 14.6124C15.0751 14.5933 15.1719 14.5146 15.2492 14.4119C15.3105 14.3308 15.3814 14.3021 15.5007 14.2878C16.5676 14.1637 17.628 14.0252 18.6949 13.9059C18.8915 13.8844 18.9495 13.7817 19.0495 13.6934C19.0849 13.6624 19.1074 13.6242 19.1526 13.6051C19.1977 13.586 19.2557 13.5884 19.3105 13.5836C20.1614 13.481 21.0124 13.3712 21.8666 13.2757C22.0664 13.2542 22.1051 13.1348 22.2082 13.0513C22.2437 13.025 22.2759 12.9821 22.3178 12.9749C22.956 12.8938 23.5942 12.8174 24.2324 12.7386C24.6579 12.6861 25.0833 12.6336 25.5088 12.5835C25.7183 12.5596 25.7183 12.5572 26.002 12.3304C26.0342 12.3042 26.0794 12.2731 26.1213 12.266C27.3461 12.1132 28.5677 11.9676 29.7925 11.8172C29.8957 11.8053 29.9698 11.7504 30.0214 11.6692C30.0729 11.588 30.1471 11.5331 30.2471 11.5212C31.2044 11.4019 32.1616 11.2849 33.1222 11.1727C33.2962 11.1536 33.4187 11.0963 33.496 10.9889C33.5541 10.9078 33.625 10.8648 33.7346 10.8529C34.6919 10.7383 35.6492 10.6165 36.6098 10.5067C36.7935 10.4852 36.8837 10.4041 36.9739 10.3086C37.0062 10.2752 37.032 10.2203 37.0707 10.2155C37.5477 10.1487 38.0215 10.0795 38.5018 10.0341C38.7016 10.015 38.7693 9.91474 38.8499 9.81926C38.9144 9.74288 38.9885 9.71663 39.111 9.70708C39.3785 9.6856 39.6428 9.64503 39.9039 9.60445C39.9426 9.59729 39.991 9.54477 39.9942 9.51136C40.0006 9.44929 39.9265 9.40632 39.804 9.38484C38.5276 9.53999 37.248 9.69514 35.9716 9.8503C35.762 9.87655 35.762 9.87657 35.4784 10.1033C35.4462 10.1296 35.401 10.1606 35.3559 10.1678C34.131 10.3182 32.9095 10.4662 31.6846 10.6165C31.5815 10.6285 31.5073 10.6834 31.4558 10.7645C31.4042 10.8457 31.33 10.9006 31.2301 10.9125C30.06 11.0558 28.89 11.2014 27.7168 11.3374C27.5427 11.3565 27.4203 11.4114 27.3429 11.5212C27.2849 11.6024 27.214 11.6454 27.1044 11.6573C25.9859 11.791 24.8706 11.9318 23.7489 12.0607C23.6361 12.0726 23.5524 12.0034 23.5588 11.9389C23.562 11.9055 23.6103 11.8506 23.649 11.8459C24.2324 11.7671 24.8126 11.6859 25.3993 11.6263C25.5959 11.6072 25.6539 11.5021 25.7538 11.4138C25.786 11.3828 25.8118 11.3422 25.8537 11.3255C25.8988 11.3064 25.9569 11.3088 26.0117 11.304C27.3944 11.1345 28.7772 10.9627 30.1632 10.8027C30.3631 10.7789 30.4017 10.6619 30.5049 10.5783C30.5403 10.5497 30.5726 10.5068 30.6145 10.502C31.0399 10.4447 31.4654 10.3946 31.8909 10.3444C32.6354 10.2537 33.38 10.163 34.1278 10.0723C34.3437 10.046 34.3438 10.046 34.621 9.82165C34.6532 9.79539 34.6983 9.762 34.7403 9.75723C36.7097 9.51614 38.6791 9.27504 40.6485 9.03634C40.7516 9.02441 40.8258 8.96951 40.8773 8.88835C40.9289 8.80957 41.003 8.75228 41.103 8.73796C43.7654 8.41333 46.4246 8.08868 49.087 7.76882C49.261 7.74733 49.3835 7.6972 49.4608 7.58501C49.5156 7.50385 49.5898 7.4609 49.6993 7.44657C52.6261 7.09091 55.5528 6.73525 58.4827 6.37719C60.4521 6.13849 62.4216 5.89501 64.391 5.66108C64.5715 5.6396 64.6681 5.56559 64.7584 5.46772C64.7874 5.4343 64.8164 5.3794 64.8551 5.37462C65.2773 5.31495 65.6996 5.26006 66.1218 5.20515C66.254 5.2696 66.3861 5.33168 66.5183 5.39613C66.6182 5.30542 66.7149 5.21232 66.8149 5.12161C67.4531 5.05239 68.0816 4.94497 68.7262 4.91155C68.7681 4.90917 68.8132 4.95453 68.8584 4.9784C69.1581 5.12878 69.329 5.11684 69.5191 4.91633C69.5868 4.84472 69.6448 4.78027 69.748 4.76834C70.0671 4.72537 70.3895 4.69673 70.7054 4.6466C70.8762 4.62034 71.018 4.64421 71.1404 4.73014C71.2275 4.7922 71.3178 4.81847 71.4241 4.80415C72.0108 4.73254 72.5942 4.66331 73.1808 4.58692C73.2227 4.58215 73.2613 4.54156 73.2936 4.51291C73.3613 4.45085 73.4193 4.38403 73.4838 4.31958C73.5708 4.36016 73.6675 4.39119 73.7384 4.44371C73.8287 4.50577 73.9124 4.50576 74.0349 4.48905C76.375 4.20022 78.7183 3.91855 81.0584 3.62733C81.2583 3.60346 81.3453 3.70373 81.4807 3.75624C81.5258 3.77534 81.5709 3.7992 81.6193 3.80397C81.6708 3.80875 81.7256 3.79444 81.7772 3.78728C83.5339 3.57244 85.2906 3.35998 87.0472 3.14515C87.2793 3.11651 87.2793 3.11651 87.6242 3.2645C87.6661 3.2836 87.7209 3.30508 87.766 3.29792C88.5654 3.20483 89.3647 3.10458 90.1609 3.0091C90.264 2.99717 90.3511 3.03535 90.4446 3.09025C90.6283 3.19767 90.6411 3.19768 90.7765 3.04014C90.841 2.96614 90.9086 2.92076 91.015 2.89928C91.1311 2.87541 91.2246 2.8826 91.3148 2.92556C91.4438 2.98524 91.5372 3.08548 91.7339 3.05922C92.5848 2.94703 93.4389 2.85395 94.2867 2.73937C94.4801 2.71311 94.5832 2.79426 94.7122 2.85394C94.7573 2.87542 94.7992 2.90884 94.8475 2.91601C94.8959 2.92317 94.9539 2.90644 95.0054 2.89928C96.0691 2.77038 97.136 2.64389 98.1964 2.50544C98.3963 2.47919 98.4833 2.58181 98.6187 2.63432C98.6638 2.65342 98.7154 2.68686 98.7573 2.68208C99.3955 2.60808 100.037 2.52929 100.675 2.45052C100.904 2.42187 100.904 2.42426 101.252 2.56987C101.294 2.58897 101.349 2.60807 101.394 2.60329C102.139 2.51497 102.886 2.42426 103.631 2.33356C103.86 2.30491 103.86 2.30492 104.52 2.42904C104.569 2.43859 104.62 2.45293 104.669 2.44816C105.52 2.34552 106.374 2.24525 107.225 2.13544C107.396 2.11396 107.537 2.13305 107.66 2.21898C107.747 2.28105 107.837 2.30732 107.944 2.293C108.901 2.17603 109.861 2.06385 110.816 1.93972C110.999 1.91585 111.118 1.96834 111.247 2.03757C111.289 2.06144 111.331 2.09486 111.38 2.10441C111.428 2.11396 111.483 2.1044 111.534 2.09724C112.492 1.98028 113.452 1.87048 114.406 1.74397C114.6 1.71771 114.703 1.79887 114.832 1.85854C114.877 1.88002 114.925 1.92299 114.964 1.92061C115.338 1.88003 115.712 1.84423 116.082 1.78456C116.282 1.75114 116.369 1.86092 116.505 1.91344C116.55 1.93015 116.601 1.96597 116.643 1.9612C117.442 1.8681 118.242 1.77024 119.038 1.66999C119.151 1.65566 119.235 1.67713 119.325 1.73919C119.444 1.82274 119.583 1.85615 119.757 1.8299C120.128 1.775 120.501 1.73681 120.875 1.69146C121.094 1.6652 121.094 1.66521 121.765 1.78934C121.813 1.79888 121.865 1.8132 121.913 1.80842C122.551 1.73204 123.193 1.65804 123.828 1.5745C123.999 1.55063 124.14 1.57211 124.263 1.65804C124.35 1.7201 124.437 1.74637 124.547 1.73205C125.133 1.66044 125.717 1.58882 126.303 1.51721C126.516 1.49096 126.729 1.44559 126.941 1.44559C127.096 1.44798 127.209 1.56255 127.348 1.61984C127.386 1.63655 127.451 1.61747 127.502 1.6127C128.247 1.52199 128.995 1.43844 129.736 1.3358C129.929 1.30954 130.033 1.39069 130.161 1.45037C130.207 1.47185 130.255 1.51482 130.294 1.51243C130.561 1.48618 130.825 1.45037 131.093 1.41934C131.412 1.38114 131.734 1.3525 132.05 1.29998C132.308 1.25702 132.405 1.46468 132.611 1.47184C132.769 1.479 132.93 1.43843 133.088 1.41934C133.407 1.38114 133.726 1.33818 134.045 1.30476C134.158 1.29283 134.245 1.25462 134.281 1.16869C134.287 1.15198 134.232 1.11619 134.197 1.0947C133.768 0.851228 133.768 0.851216 133.336 0.903731C133.069 0.937149 132.805 0.970573 132.537 0.999218C132.492 1.00399 132.44 0.984897 132.395 0.970574C132.266 0.929995 132.279 0.882259 132.389 0.796326C132.498 0.710393 132.582 0.605374 132.676 0.507506C132.808 0.569568 132.937 0.631609 133.069 0.693671C133.175 0.681736 133.282 0.667435 133.388 0.6555C133.92 0.593437 134.452 0.528983 134.983 0.471694C135.022 0.46692 135.07 0.514668 135.116 0.538538C135.245 0.607762 135.361 0.667421 135.548 0.641164C136.025 0.57194 136.505 0.521813 136.982 0.462137C137.191 0.43588 137.191 0.435882 137.559 0.583878C137.601 0.600587 137.656 0.619684 137.701 0.61491C138.181 0.560008 138.658 0.50034 139.138 0.443051C139.241 0.431116 139.341 0.462146 139.415 0.53137C139.444 0.560014 139.438 0.607745 139.56 0.999218C139.941 1.31669 140.202 1.28329 140.466 1.25465C140.579 1.24271 140.679 1.23076 140.753 1.18302C140.792 1.15677 140.84 1.11857 140.84 1.08754C140.84 1.06367 140.769 1.02547 140.724 1.02069C140.405 0.972952 140.102 1.07322 139.789 1.0947C139.644 1.10425 139.519 1.02071 139.493 0.884645C139.486 0.846453 139.477 0.805876 139.467 0.767683C139.457 0.729491 139.451 0.688914 139.441 0.650721C139.316 0.638786 139.241 0.681746 139.187 0.762904C139.141 0.829741 139.077 0.906126 138.99 0.941931C138.903 0.980124 138.784 0.972975 138.677 0.984911C138.574 0.996846 138.461 1.02787 138.365 1.01116C138.268 0.992068 138.191 0.922833 138.1 0.879866C138.058 0.858383 138.007 0.827363 137.965 0.832137C137.594 0.872717 137.227 0.913281 136.859 0.965796C136.666 0.99444 136.569 0.8942 136.447 0.832137C136.35 0.784397 136.253 0.796317 136.237 0.90612C136.195 1.16869 136.344 1.27849 136.672 1.22836C136.943 1.1854 137.188 1.17826 137.401 1.34057C137.43 1.36206 137.498 1.3716 137.54 1.36683C137.804 1.33818 138.065 1.30238 138.329 1.27373C138.378 1.26896 138.429 1.27849 138.474 1.28804C139.132 1.41694 139.132 1.41934 139.354 1.39069C139.461 1.37637 139.564 1.36443 139.554 1.00161C139.757 0.612522 140.079 0.586269 140.392 0.528981C140.595 0.493175 140.682 0.598209 140.814 0.653111C140.859 0.672207 140.908 0.710392 140.95 0.705618C141.643 0.626846 142.332 0.543289 143.022 0.454969C143.138 0.440647 143.222 0.454971 143.312 0.517034C143.428 0.595806 143.557 0.645944 143.741 0.617299C144.108 0.560011 144.482 0.524214 144.856 0.476473C145.046 0.452603 145.046 0.452578 145.43 0.600574C145.472 0.617283 145.527 0.63638 145.572 0.631606C145.946 0.591027 146.316 0.540915 146.687 0.497948C146.79 0.486013 146.884 0.519428 146.964 0.583878C147.045 0.648327 147.142 0.681742 147.242 0.669807C147.615 0.626841 147.986 0.579115 148.357 0.536149C148.402 0.531375 148.457 0.548083 148.499 0.564792C148.892 0.712787 148.892 0.712763 149.072 0.688893C149.337 0.653087 149.607 0.636397 149.868 0.588656C150.123 0.540916 150.255 0.679352 150.429 0.755736C150.906 0.700835 151.387 0.655493 151.86 0.588656C152.054 0.560012 152.157 0.638777 152.286 0.700839C152.331 0.722323 152.376 0.767681 152.418 0.765294C152.579 0.755746 152.737 0.729493 152.895 0.710397C153.053 0.691301 153.214 0.672207 153.372 0.653111C153.553 0.722334 153.672 0.88465 153.93 0.829748C154.085 0.79633 154.249 0.789169 154.407 0.770072C154.565 0.750976 154.726 0.731882 154.884 0.712786C154.99 0.700851 155.1 0.69368 155.203 0.672196C155.393 0.636391 155.487 0.753369 155.622 0.805884C155.667 0.822593 155.719 0.851218 155.761 0.846444C156.08 0.813026 156.402 0.784384 156.715 0.729483C156.956 0.686516 157.121 0.758136 157.292 0.858391C157.327 0.879874 157.388 0.891808 157.433 0.887034C157.807 0.846455 158.178 0.796313 158.549 0.753347C158.649 0.741412 158.745 0.779603 158.826 0.841666C158.91 0.906115 159.003 0.93717 159.106 0.925235C159.477 0.882268 159.851 0.834514 160.222 0.791548C160.267 0.786773 160.321 0.805873 160.363 0.824969C160.724 0.972965 160.724 0.975354 160.937 0.94671C160.989 0.939549 161.044 0.934756 161.095 0.927595C161.359 0.894177 161.633 0.882258 161.891 0.824969C162.188 0.76052 162.404 0.841682 162.613 0.977742C162.878 0.949098 163.148 0.932385 163.406 0.884645C163.6 0.84884 163.703 0.939542 163.832 0.999218C163.877 1.0207 163.925 1.06367 163.964 1.05889C164.338 1.01831 164.712 0.982521 165.079 0.922846C165.279 0.889427 165.366 0.996823 165.501 1.05173C165.546 1.07082 165.595 1.10426 165.637 1.09948C165.849 1.08039 166.062 1.05173 166.275 1.02547C166.523 0.99444 166.523 0.996825 166.852 1.14243C167.006 1.21166 167.161 1.15675 167.313 1.14004C167.474 1.12095 167.625 1.10663 167.754 1.2045C167.835 1.26656 167.932 1.30475 168.032 1.29521C168.244 1.27372 168.46 1.25225 168.67 1.21644C168.837 1.1878 168.982 1.20689 169.105 1.29521C169.192 1.35727 169.282 1.38832 169.389 1.374C169.866 1.31671 170.346 1.25701 170.823 1.20211C170.865 1.19733 170.923 1.21883 170.961 1.24031C171.052 1.28328 171.139 1.33101 171.226 1.37875C171.435 1.35726 171.651 1.34774 171.857 1.31432C172.077 1.2809 172.277 1.26896 172.447 1.40025C172.483 1.42889 172.534 1.46945 172.576 1.46707C172.737 1.45752 172.895 1.43365 173.053 1.41456C173.211 1.39546 173.372 1.37637 173.53 1.35727C173.714 1.41695 173.83 1.58881 174.088 1.53391C174.243 1.50049 174.407 1.49333 174.565 1.47423C174.723 1.45514 174.884 1.43366 175.042 1.41695C175.094 1.41217 175.152 1.40023 175.197 1.40978C175.245 1.41933 175.287 1.45275 175.329 1.47662C175.458 1.54585 175.577 1.61508 175.761 1.5745C175.916 1.54108 176.08 1.53392 176.238 1.51243C176.454 1.48618 176.454 1.48618 176.812 1.63656C176.957 1.69863 177.121 1.61747 177.26 1.66999C177.353 1.70579 177.434 1.76545 177.524 1.80603C177.563 1.82274 177.624 1.82989 177.669 1.82512C177.882 1.80364 178.098 1.78216 178.307 1.74636C178.478 1.71771 178.62 1.74635 178.739 1.83229C178.826 1.89435 178.913 1.92062 179.023 1.9063C179.555 1.83946 180.087 1.78215 180.615 1.70816C180.796 1.6819 180.941 1.72249 181.041 1.80842C181.211 1.95642 181.453 1.78217 181.63 1.90152C181.74 1.97552 181.85 2.06146 182.049 2.02565C182.417 1.96359 182.791 1.93015 183.161 1.88718C183.294 1.95163 183.426 2.0161 183.561 2.08055C183.774 2.05429 183.987 2.02802 184.199 2.00415C184.357 1.98505 184.518 1.96357 184.676 1.94686C184.728 1.94209 184.783 1.93253 184.831 1.94447C184.879 1.95641 184.918 1.98744 184.963 2.01131C185.186 2.12828 185.186 2.13068 185.553 2.08294C185.711 2.06145 185.863 2.04713 185.995 2.14261C186.117 2.23093 186.262 2.24763 186.43 2.22137C186.746 2.17363 187.065 2.13783 187.387 2.10441C187.487 2.09248 187.581 2.13306 187.664 2.19512C187.79 2.29299 187.945 2.28344 188.103 2.25718C188.312 2.22377 188.518 2.19035 188.696 2.32403C188.731 2.35267 188.786 2.39323 188.825 2.39084C189.089 2.37175 189.357 2.35743 189.614 2.31208C189.872 2.26673 189.998 2.41472 190.175 2.48633C190.44 2.4553 190.707 2.42426 190.971 2.39323C191.023 2.38607 191.084 2.3646 191.129 2.37654C191.32 2.42666 191.429 2.60569 191.69 2.55078C191.842 2.51975 192.006 2.51022 192.164 2.50305C192.206 2.50067 192.261 2.54123 192.29 2.57226C192.306 2.58897 192.29 2.63432 192.27 2.65819C192.212 2.72502 192.141 2.78711 192.09 2.85633C192.083 2.86588 192.145 2.90883 192.18 2.92792C192.267 2.97089 192.367 2.96374 192.483 2.94465C192.583 2.92794 192.686 2.96136 192.757 3.03297C192.786 3.06161 192.776 3.10935 192.715 3.26689C192.715 3.38386 192.783 3.33133 192.805 3.25494C192.841 3.14514 192.773 3.10934 192.644 3.16901C192.554 3.21198 192.509 3.27405 192.531 3.32418C192.544 3.35043 192.606 3.38386 192.715 3.26689C192.999 3.12367 193.212 3.09743 193.424 3.07117C193.479 3.06401 193.544 3.04012 193.582 3.05444C193.721 3.11173 193.85 3.18097 193.985 3.24542C194.14 3.23109 194.285 3.19527 194.436 3.28837C194.649 3.41965 194.659 3.40772 194.865 3.38146C194.971 3.36714 195.078 3.35523 195.184 3.34329C195.291 3.33136 195.374 3.36715 195.468 3.42205C195.658 3.53424 195.674 3.53423 195.8 3.38146C195.874 3.28837 195.926 3.25735 196.019 3.30031C196.328 3.44592 196.332 3.45546 196.596 3.4125C196.815 3.37669 197.021 3.36714 197.183 3.5032C197.292 3.59869 197.328 3.57721 197.415 3.47695C197.647 3.21199 197.753 3.21676 198.188 3.40772C198.391 3.49842 198.601 3.40057 198.807 3.38863C198.981 3.37908 199.104 3.43636 199.117 3.58674C199.126 3.67984 199.155 3.74669 199.271 3.77772C199.316 3.78965 199.371 3.80636 199.416 3.80158C199.684 3.77294 199.948 3.73951 200.216 3.7061C200.351 3.68939 200.425 3.57722 200.399 3.42922C200.37 3.27168 200.422 3.21437 200.615 3.16901C200.731 3.14276 200.825 3.14755 200.918 3.19052C201.022 3.23826 200.993 3.28122 200.902 3.36716C200.686 3.57721 200.712 3.70609 200.989 3.8517C201.086 3.90183 201.163 3.9472 201.186 4.0212C201.199 4.05939 201.186 4.10952 201.215 4.13816C201.373 4.29809 201.592 4.40074 201.837 4.47713C202.072 4.41268 202.233 4.52008 202.414 4.60601C202.556 4.67285 202.723 4.61557 202.875 4.5917C203.046 4.56544 203.188 4.58453 203.31 4.67285C203.397 4.73491 203.487 4.76355 203.594 4.75161C203.806 4.72536 204.022 4.70866 204.232 4.67046C204.412 4.63704 204.548 4.68479 204.661 4.76595C204.802 4.86859 204.96 4.79936 205.109 4.81368C205.308 4.83039 205.408 5.04283 205.669 4.98554C205.824 4.95212 205.985 4.94019 206.147 4.93064C206.188 4.92825 206.24 4.96884 206.275 4.99748C206.446 5.12877 206.646 5.12161 206.865 5.08341C207.017 5.05716 207.165 5.0333 207.313 5.124C207.558 5.27677 207.829 5.41046 208.087 5.55129C208.122 5.66109 208.097 5.78997 208.28 5.85442C208.377 5.88784 208.467 5.93798 208.541 5.99288C208.632 6.05733 208.715 6.07405 208.831 6.05734C209.041 6.02392 209.26 6.01674 209.466 5.97377C209.657 5.93558 209.776 6.01437 209.892 6.08837C209.985 6.14805 210.072 6.17668 210.185 6.13371C210.301 6.09313 210.385 6.11938 210.479 6.18383C210.611 6.27215 210.62 6.26262 211.059 6.28887C211.104 6.29126 211.159 6.32704 211.184 6.35808C211.197 6.37479 211.168 6.42255 211.146 6.44642C211.117 6.47507 211.072 6.50847 211.03 6.51563C210.553 6.57769 210.072 6.63259 209.595 6.69465C209.547 6.70182 209.495 6.71854 209.46 6.74241C209.421 6.76867 209.373 6.80445 209.373 6.83787C209.373 6.86174 209.437 6.89039 209.483 6.9071C209.624 6.96201 209.792 6.87846 209.931 6.94053C210.024 6.98111 210.101 7.03838 210.195 7.07657C210.234 7.09328 210.295 7.0909 210.343 7.08613C210.504 7.06942 210.662 7.04556 210.823 7.03123C210.869 7.02885 210.92 7.05273 210.962 7.07182C211.271 7.21504 211.271 7.21504 211.539 7.18401C211.645 7.17207 211.758 7.13626 211.858 7.15059C211.955 7.16491 212.039 7.22936 212.126 7.26994C212.306 7.35587 212.477 7.43941 212.49 7.6256C212.496 7.69721 212.603 7.75926 212.709 7.76404C212.812 7.76881 212.922 7.74258 213.028 7.72826C213.28 7.69961 213.28 7.69961 213.605 7.84522C213.695 7.8858 213.792 7.89056 213.908 7.86669C213.953 7.85714 214.008 7.8667 214.056 7.87864C214.214 7.91444 214.214 7.95979 214.111 8.04572C213.966 8.17223 213.979 8.18417 214.385 8.29159C214.54 8.33217 214.659 8.40856 214.788 8.4754C214.998 8.58281 214.994 8.58279 214.856 8.72363C214.824 8.75466 214.794 8.78808 214.762 8.8215C214.669 8.9146 214.595 9.01485 214.401 9.02439C214.188 9.03394 213.976 9.07215 213.763 9.09841C213.557 9.12466 213.502 9.18193 213.521 9.34425C213.544 9.53998 213.586 9.56147 213.956 9.55908C214.063 9.55908 214.156 9.57818 214.237 9.64262C214.198 9.71901 214.127 9.77869 214.024 9.79301C213.76 9.82881 213.492 9.85985 213.228 9.89088C213.015 9.91714 212.803 9.94339 212.59 9.96965C212.458 9.98636 212.374 10.1105 212.409 10.2489C212.429 10.3277 212.445 10.4065 212.461 10.4853C212.496 10.6428 212.564 10.6834 212.78 10.6762C212.835 10.6738 212.886 10.6547 212.938 10.6595C213.147 10.6762 213.247 10.8743 213.499 10.8337C213.708 10.8003 213.927 10.7932 214.134 10.7502C214.324 10.712 214.43 10.798 214.562 10.8624C214.608 10.8839 214.656 10.9292 214.695 10.9268C214.962 10.9006 215.23 10.8744 215.491 10.829C215.613 10.8099 215.687 10.8242 215.784 10.8815C216.016 11.02 216.023 11.0128 216.367 10.9698C216.619 10.9364 216.622 10.9412 216.944 11.0868C217.035 11.1274 217.131 11.1274 217.247 11.1083C217.399 11.0844 217.557 11.0462 217.715 11.082C217.763 11.0916 217.824 11.1202 217.84 11.1512C217.85 11.1727 217.805 11.2252 217.766 11.2419C217.483 11.3661 217.151 11.3446 216.841 11.3947C216.745 11.409 216.648 11.3637 216.567 11.2992C216.483 11.2348 216.393 11.2085 216.284 11.2205C216.071 11.2467 215.855 11.2634 215.645 11.3016C215.465 11.335 215.339 11.2801 215.213 11.2061C215.172 11.1823 215.123 11.1369 215.081 11.1393C214.604 11.187 214.124 11.2348 213.65 11.3016C213.46 11.3303 213.35 11.2539 213.222 11.1894C213.176 11.168 213.131 11.1226 213.089 11.125C212.928 11.1345 212.77 11.1608 212.609 11.1799C212.023 11.2515 211.439 11.3231 210.852 11.3899C210.814 11.3947 210.765 11.3446 210.72 11.3231C210.633 11.2801 210.543 11.2395 210.453 11.199C210.292 11.2181 210.134 11.2419 209.972 11.2563C209.856 11.2658 209.753 11.2992 209.737 11.3899C209.728 11.4496 209.834 11.5045 209.947 11.4997C210.056 11.495 210.166 11.4663 210.256 11.4973C210.704 11.6501 210.704 11.6525 210.985 11.6215C211.23 11.5928 211.204 11.569 211.42 11.7002C211.513 11.7575 211.597 11.791 211.703 11.7766C211.968 11.7432 212.235 11.7098 212.503 11.6812C212.545 11.6764 212.599 11.7003 212.641 11.7194C212.957 11.8626 212.957 11.8673 213.218 11.8315C213.56 11.7886 213.573 11.7766 213.802 11.9222C213.96 12.0225 214.105 11.9533 214.256 11.9485C214.43 12.0416 214.62 12.1252 214.778 12.2302C214.965 12.3543 215.162 12.3328 215.375 12.297C215.533 12.2707 215.687 12.2612 215.816 12.3591C215.939 12.4498 216.087 12.4593 216.255 12.4355C216.406 12.414 216.561 12.3686 216.719 12.4211C216.761 12.4354 216.825 12.4713 216.822 12.4927C216.819 12.5262 216.777 12.5739 216.735 12.5882C216.438 12.6861 216.113 12.6837 215.8 12.7291C215.758 12.7362 215.703 12.71 215.662 12.6909C215.571 12.6479 215.484 12.5978 215.397 12.5524C215.239 12.5667 215.078 12.5715 214.923 12.6002C214.804 12.6216 214.714 12.6193 214.627 12.562C214.546 12.5095 214.459 12.445 214.363 12.4283C214.266 12.4116 214.153 12.4474 214.047 12.4617C213.94 12.476 213.818 12.4689 213.734 12.5071C213.65 12.5452 213.599 12.6288 213.544 12.6956C213.483 12.7696 213.399 12.7935 213.276 12.8007C213.163 12.8078 213.073 12.7983 212.989 12.7315C212.954 12.7028 212.906 12.6813 212.857 12.6622C212.812 12.6455 212.761 12.6192 212.719 12.624C212.238 12.6789 211.761 12.7386 211.281 12.7959C211.043 12.8245 211.046 12.8245 210.549 12.6837C210.504 12.6718 210.45 12.6551 210.404 12.6598C210.137 12.6885 209.873 12.7219 209.605 12.7553C209.334 12.7887 209.338 12.784 208.877 12.6336C208.793 12.6049 208.67 12.6431 208.57 12.6384C208.361 12.6264 208.258 12.4259 208.013 12.4641C207.803 12.4975 207.584 12.5047 207.375 12.5476C207.184 12.5858 207.075 12.5023 206.946 12.4379C206.901 12.4164 206.852 12.3686 206.814 12.3734C206.333 12.4259 205.856 12.4856 205.218 12.4927C205.06 12.4927 205.131 12.5429 205.234 12.5596C205.383 12.5858 205.431 12.5357 205.35 12.4402C205.292 12.3734 205.209 12.34 205.141 12.3567C205.105 12.3662 205.06 12.4116 205.218 12.4927C205.386 12.5835 205.376 12.6336 205.405 12.6622C205.476 12.7314 205.576 12.7601 205.679 12.7505C205.84 12.7338 205.998 12.71 206.159 12.6956C206.205 12.6909 206.259 12.7076 206.301 12.7267C206.656 12.8747 206.659 12.8842 207.036 12.8269C207.155 12.8102 207.242 12.8102 207.336 12.8556C207.465 12.9176 207.558 13.0227 207.755 12.9892C208.016 12.9439 208.284 12.9176 208.551 12.8914C208.593 12.8866 208.638 12.9296 208.686 12.9487C208.819 13.006 208.915 13.1134 209.112 13.068C209.263 13.0322 209.428 13.0227 209.589 13.0155C209.631 13.0131 209.695 13.0513 209.715 13.0823C209.753 13.1372 209.705 13.2017 209.595 13.2471C209.55 13.2662 209.489 13.2614 209.437 13.2685C209.225 13.2948 209.012 13.3234 208.799 13.3449C208.686 13.3568 208.58 13.3927 208.567 13.481C208.558 13.5407 208.674 13.5932 208.783 13.5884C208.944 13.5812 209.105 13.5621 209.26 13.5311C209.534 13.4786 209.773 13.4929 209.995 13.6433C210.153 13.7483 210.143 13.7101 210.311 14.0204C210.353 14.0992 210.479 14.1064 210.588 14.1016C210.852 14.0897 210.975 14.1255 210.952 14.1995C210.923 14.2902 210.83 14.3188 210.711 14.3307C210.498 14.3498 210.285 14.3809 210.072 14.4071C210.021 14.4143 209.963 14.4286 209.914 14.4238C209.866 14.4191 209.821 14.3904 209.779 14.3689C209.689 14.3236 209.611 14.2544 209.515 14.2376C209.418 14.2209 209.305 14.2567 209.199 14.2711C209.093 14.283 208.98 14.3188 208.883 14.3021C208.786 14.2854 208.706 14.2138 208.619 14.1708C208.577 14.1494 208.525 14.1159 208.483 14.1183C208.271 14.1374 208.058 14.1684 207.845 14.1923C207.584 14.2233 207.584 14.2233 207.268 14.0753C207.178 14.0324 207.084 14.0348 206.965 14.0539C206.707 14.0921 206.704 14.0849 206.234 13.9464C206.188 13.9321 206.134 13.9154 206.088 13.9226C205.608 13.9775 205.131 14.0371 204.654 14.0944C204.245 14.1446 204.245 14.1446 204.019 14.3833C203.852 14.5599 203.848 14.5599 204.013 14.6411C204.145 14.7079 204.264 14.8058 204.409 14.8416C204.545 14.875 204.712 14.7676 204.86 14.8774C204.935 14.9323 205.031 14.992 205.125 15.0015C205.273 15.0134 205.431 14.9442 205.573 15.0492C205.644 15.1018 205.75 15.1567 205.84 15.1591C205.998 15.1638 206.159 15.1256 206.317 15.1089C206.366 15.1041 206.42 15.1042 206.466 15.1161C206.514 15.1304 206.556 15.1591 206.598 15.1829C206.727 15.2641 206.865 15.3023 207.033 15.2617C207.307 15.1949 207.552 15.2283 207.765 15.381C207.794 15.4025 207.865 15.4049 207.91 15.3954C208.026 15.3715 208.126 15.3691 208.213 15.4145C208.248 15.4336 208.3 15.467 208.293 15.4884C208.284 15.5243 208.245 15.572 208.203 15.5839C207.9 15.6651 207.574 15.6747 207.262 15.7176C207.22 15.7224 207.168 15.6913 207.126 15.6699C207.036 15.6269 206.959 15.5553 206.862 15.5386C206.765 15.5219 206.653 15.5529 206.546 15.5648C206.44 15.5768 206.327 15.6126 206.23 15.5983C206.134 15.5816 206.043 15.5219 205.966 15.4694C205.876 15.4097 205.789 15.4025 205.669 15.4264C205.515 15.4574 205.354 15.4622 205.196 15.4789C205.109 15.4336 205.022 15.3834 204.931 15.3405C204.889 15.319 204.838 15.2927 204.793 15.2951C204.58 15.3142 204.367 15.3428 204.154 15.3691C203.942 15.3954 203.942 15.3954 203.581 15.2474C203.539 15.2307 203.484 15.2116 203.439 15.2164C203.171 15.245 202.907 15.2808 202.64 15.3094C202.536 15.3214 202.443 15.2879 202.359 15.2235C202.279 15.159 202.182 15.1232 202.082 15.1352C201.656 15.1853 201.231 15.233 200.806 15.2927C200.635 15.3166 200.49 15.2951 200.374 15.2092C200.238 15.1113 200.087 15.1352 199.929 15.1543C199.571 15.202 199.568 15.1996 199.339 15.0779C199.294 15.054 199.249 15.0087 199.207 15.011C198.836 15.0468 198.462 15.0803 198.095 15.1376C197.901 15.1686 197.798 15.0851 197.669 15.023C197.624 15.0015 197.576 14.9561 197.537 14.9609C197.27 14.9872 197.002 15.0111 196.741 15.0588C196.48 15.1065 196.38 14.8846 196.183 14.8869C195.916 14.8893 195.652 14.9442 195.387 14.9776C195.175 15.0039 194.962 15.0302 194.749 15.0564C194.536 15.0827 194.324 15.1041 194.111 15.1352C193.998 15.1519 193.914 15.1304 193.821 15.0707C193.702 14.9919 193.56 14.9299 193.431 14.8583C193.234 14.7557 193.234 14.7556 192.996 14.7843C192.944 14.7914 192.889 14.7962 192.838 14.8034C192.448 14.8559 192.448 14.8511 191.951 14.7007C191.929 14.6936 191.871 14.7198 191.848 14.7389C191.78 14.801 191.719 14.8678 191.658 14.9323C191.571 14.8941 191.465 14.8726 191.407 14.8177C191.242 14.6626 190.984 14.875 190.817 14.7222C190.755 14.6649 190.649 14.6148 190.552 14.6005C190.452 14.5862 190.34 14.6196 190.236 14.6339C189.969 14.6697 189.969 14.6673 189.74 14.8798C189.624 14.9848 189.456 14.9657 189.305 14.9896C189.147 15.0158 188.996 15.0301 188.863 14.9323C188.744 14.844 188.599 14.8225 188.428 14.8511C188.219 14.8869 188.003 14.9084 187.79 14.9299C187.745 14.9347 187.69 14.9227 187.645 14.9084C187.152 14.7676 187.152 14.7652 186.913 14.7962C186.807 14.8106 186.697 14.8153 186.594 14.8368C186.42 14.875 186.288 14.8249 186.162 14.7485C186.12 14.7246 186.072 14.6793 186.03 14.6817C185.817 14.6936 185.608 14.7151 185.398 14.7366C185.237 14.7533 185.076 14.7628 184.921 14.7962C184.663 14.8511 184.538 14.696 184.361 14.6243C184.096 14.6554 183.829 14.6769 183.564 14.7198C183.442 14.7389 183.361 14.7318 183.268 14.6745C183.149 14.6029 183.039 14.5217 182.846 14.5575C182.588 14.6053 182.317 14.622 182.053 14.6506C181.875 14.5766 181.746 14.4262 181.492 14.4811C181.337 14.5145 181.173 14.5217 181.015 14.5408C180.802 14.5671 180.589 14.591 180.377 14.6196C180.148 14.6482 180.151 14.6411 179.8 14.5002C179.597 14.4167 179.387 14.5098 179.181 14.5241C179.02 14.536 178.939 14.6458 178.978 14.7867C179.016 14.9275 178.929 15.0373 178.781 15.0564C178.41 15.1018 178.036 15.1495 177.666 15.1901C177.621 15.1948 177.566 15.1781 177.524 15.1614C177.128 15.011 177.128 15.0135 176.95 15.0349C176.686 15.0707 176.415 15.0898 176.154 15.1352C175.974 15.1662 175.841 15.1161 175.725 15.0349C175.635 14.9729 175.551 14.9585 175.435 14.9729C174.159 15.1328 172.882 15.2808 171.609 15.4455C171.419 15.4694 171.31 15.4002 171.181 15.3357C171.136 15.3142 171.094 15.2689 171.048 15.2689C170.942 15.2689 170.836 15.2903 170.729 15.3047C170.252 15.362 169.775 15.4312 169.295 15.4741C169.092 15.4932 169.037 15.603 168.95 15.6938C168.882 15.763 168.805 15.7916 168.686 15.8012C168.57 15.8107 168.486 15.7988 168.396 15.7367C168.28 15.6555 168.148 15.6054 167.967 15.6388C167.758 15.677 167.545 15.6938 167.329 15.72C167.219 15.7319 167.135 15.7749 167.1 15.8608C167.094 15.8752 167.161 15.911 167.2 15.9325C167.329 16.0041 167.451 16.0876 167.596 16.1377C167.745 16.1879 167.906 16.1306 168.06 16.1162C168.115 16.1115 168.167 16.0972 168.218 16.0995C168.267 16.1019 168.325 16.1139 168.36 16.1353C168.528 16.2428 168.705 16.3168 168.937 16.2523C169.137 16.2833 169.24 16.4815 169.495 16.4289C169.65 16.3979 169.811 16.3836 169.972 16.3717C170.014 16.3693 170.059 16.4122 170.104 16.4337C170.233 16.4934 170.336 16.5889 170.53 16.5483C170.736 16.5053 170.955 16.4982 171.165 16.4648C171.281 16.4457 171.364 16.4624 171.455 16.5244C171.571 16.6032 171.703 16.6629 171.883 16.6247C172.038 16.5913 172.202 16.5841 172.36 16.5626C172.567 16.5363 172.567 16.5387 172.934 16.6867C172.976 16.7034 173.031 16.7225 173.076 16.7178C173.343 16.6891 173.608 16.6533 173.875 16.6247C173.978 16.6127 174.078 16.6438 174.149 16.713C174.178 16.7416 174.169 16.7894 174.178 16.83C173.646 16.8944 173.115 16.9493 172.586 17.0281C172.386 17.0591 172.296 16.9613 172.164 16.9064C172.119 16.8873 172.07 16.8467 172.028 16.8515C171.654 16.892 171.284 16.935 170.913 16.9875C170.797 17.0042 170.71 16.9947 170.623 16.9254C170.401 16.7416 170.13 16.8419 169.878 16.8682C169.685 16.8872 169.624 16.9613 169.646 17.1188C169.675 17.305 169.791 17.3623 170.088 17.3289C170.194 17.3169 170.301 17.3002 170.407 17.2907C170.51 17.2811 170.604 17.3121 170.687 17.3766C170.768 17.441 170.865 17.4745 170.965 17.4649C171.177 17.4434 171.393 17.422 171.6 17.3861C171.77 17.3575 171.912 17.3814 172.032 17.4697C172.164 17.5676 172.318 17.5461 172.473 17.5246C172.834 17.4768 172.837 17.4792 173.063 17.5986C173.108 17.6225 173.153 17.6678 173.195 17.6654C173.566 17.6296 173.94 17.5986 174.304 17.5413C174.494 17.5127 174.604 17.589 174.729 17.6511C174.775 17.6726 174.82 17.7203 174.862 17.7156C175.129 17.6893 175.397 17.663 175.658 17.6177C175.78 17.5962 175.854 17.6105 175.954 17.6678C176.193 17.8086 176.199 17.8039 176.538 17.7585C176.641 17.7442 176.754 17.7179 176.85 17.737C176.947 17.7561 177.024 17.8254 177.115 17.8683C177.157 17.8874 177.208 17.9137 177.253 17.9089C177.466 17.8898 177.679 17.8612 177.891 17.8349C178.091 17.8087 178.091 17.811 178.465 17.959C178.617 18.0211 178.775 17.9686 178.926 17.9495C179.091 17.928 179.239 17.928 179.364 18.0211C179.49 18.1142 179.642 18.1094 179.803 18.0903C179.954 18.0712 180.109 18.0187 180.264 18.0832C180.618 18.2312 180.618 18.2335 180.838 18.2049C181.157 18.1643 181.472 18.1261 181.795 18.0903C181.837 18.0855 181.891 18.1142 181.933 18.1333C182.024 18.1763 182.101 18.2478 182.198 18.2646C182.294 18.2837 182.407 18.255 182.51 18.2407C182.842 18.1953 182.865 18.1786 183.087 18.3362C183.274 18.4651 183.506 18.2789 183.68 18.4269C183.78 18.5104 183.916 18.5773 184.103 18.5367C184.257 18.5033 184.419 18.4937 184.58 18.4746C184.834 18.4436 184.834 18.446 185.157 18.5892C185.199 18.6083 185.253 18.6322 185.295 18.6274C185.508 18.6083 185.724 18.5916 185.93 18.5486C186.172 18.4985 186.327 18.5892 186.507 18.6775C186.649 18.7468 186.817 18.6895 186.968 18.6656C187.133 18.6417 187.281 18.6489 187.403 18.742C187.532 18.8374 187.684 18.8255 187.845 18.8064C187.996 18.7897 188.151 18.7348 188.306 18.8016C188.638 18.9496 188.638 18.9496 188.88 18.921C189.092 18.8947 189.305 18.8661 189.518 18.847C189.56 18.8422 189.611 18.8733 189.653 18.8947C189.743 18.9377 189.821 19.0093 189.917 19.026C190.014 19.0427 190.127 19.0117 190.233 18.9998C190.34 18.9878 190.452 18.952 190.549 18.9664C190.646 18.9807 190.736 19.0404 190.813 19.0929C190.904 19.1549 190.988 19.1621 191.11 19.1382C191.265 19.1072 191.426 19.1 191.584 19.0833C191.671 19.1287 191.761 19.174 191.845 19.2241C191.932 19.2767 192.025 19.2719 192.145 19.2552C192.541 19.1979 192.544 19.2051 192.876 19.3531C193.028 19.4199 193.186 19.365 193.337 19.3483C193.498 19.3292 193.65 19.3196 193.776 19.4151C193.898 19.5058 194.05 19.5177 194.211 19.4891C194.314 19.47 194.424 19.4581 194.53 19.4509C194.578 19.4485 194.636 19.4581 194.672 19.4772C194.843 19.5774 195.01 19.6682 195.245 19.6037C195.452 19.6228 195.555 19.8185 195.803 19.7803C196.013 19.7469 196.232 19.7397 196.438 19.6968C196.628 19.6586 196.764 19.7254 196.86 19.809C197.034 19.957 197.279 19.7565 197.453 19.9021C197.553 19.9856 197.682 20.0525 197.876 20.0167C198.088 19.9785 198.156 20.0286 198.217 20.179C198.253 20.2649 198.246 20.3341 198.182 20.401C198.117 20.4702 198.046 20.4583 197.943 20.3795C197.824 20.2912 197.682 20.2744 197.511 20.2935C197.344 20.3126 197.241 20.1885 197.102 20.1408C196.963 20.0907 196.799 20.1742 196.654 20.1098C196.312 19.9594 196.312 19.9594 196.08 19.988C195.922 20.0071 195.758 20.0167 195.603 20.0501C195.42 20.0907 195.3 20.0166 195.175 19.9498C195.129 19.9259 195.084 19.8806 195.046 19.883C194.675 19.9188 194.301 19.9522 193.934 20.0119C193.74 20.0429 193.637 19.957 193.508 19.8973C193.463 19.8758 193.415 19.8329 193.376 19.8376C193.057 19.871 192.741 19.914 192.422 19.9546C192.361 20.019 192.293 20.0811 192.235 20.1503C192.174 20.2219 192.09 20.253 191.967 20.2506C191.764 20.2506 191.564 20.3508 191.361 20.2243C191.152 20.0954 191.136 20.1026 190.933 20.1336C190.675 20.1742 190.401 20.1647 190.159 20.2577C190.117 20.2745 190.072 20.3198 190.072 20.3532C190.069 20.3747 190.137 20.4057 190.178 20.4248C190.32 20.4821 190.485 20.3986 190.626 20.4582C190.72 20.4964 190.797 20.5537 190.891 20.5943C190.93 20.611 190.988 20.6086 191.039 20.6062C191.094 20.6039 191.145 20.5872 191.197 20.5895C191.245 20.5919 191.297 20.6062 191.336 20.6277C191.513 20.7184 191.7 20.802 191.858 20.9094C192.013 21.0144 192.158 20.9428 192.312 20.938C192.931 21.1051 192.931 21.1075 193.347 21.055C193.45 21.0431 193.556 21.0288 193.663 21.0311C193.708 21.0311 193.75 21.0741 193.795 21.098C193.924 21.1696 194.046 21.234 194.227 21.1958C194.382 21.1624 194.546 21.1552 194.704 21.1338C194.917 21.1075 194.917 21.1075 195.278 21.2579C195.368 21.2961 195.465 21.2913 195.581 21.2722C195.681 21.2555 195.784 21.2913 195.855 21.3605C195.884 21.3892 195.874 21.4369 195.884 21.4775C195.565 21.5157 195.242 21.542 194.933 21.5993C194.733 21.6351 194.643 21.5324 194.511 21.4775C194.465 21.4584 194.417 21.4178 194.375 21.4226C194.059 21.4584 193.743 21.499 193.428 21.5467C193.389 21.5515 193.341 21.6064 193.337 21.6398C193.331 21.7019 193.411 21.7616 193.527 21.7592C193.682 21.7568 193.834 21.7162 193.972 21.8141C194.088 21.9 194.233 21.9382 194.404 21.9C194.507 21.8785 194.617 21.8785 194.72 21.8594C194.994 21.8021 195.242 21.8141 195.448 21.9764C195.606 22.0194 195.761 21.9788 195.913 21.9573C196.025 21.9406 196.135 21.9239 196.216 21.9692C196.386 22.0647 196.554 22.1602 196.789 22.0957C197.044 22.1626 197.237 22.3034 197.45 22.418C197.55 22.4729 197.627 22.5039 197.743 22.4681C197.792 22.4538 197.85 22.4538 197.901 22.4466C198.008 22.4347 198.121 22.3989 198.217 22.4132C198.314 22.4299 198.395 22.4991 198.482 22.5421C198.524 22.5636 198.572 22.5994 198.614 22.597C198.775 22.5851 198.933 22.5612 199.091 22.5421C199.249 22.5254 199.407 22.5087 199.565 22.492C199.697 22.5541 199.832 22.6161 199.964 22.6782C200.177 22.6519 200.39 22.6257 200.599 22.6018C200.835 22.5731 200.835 22.5755 201.173 22.7235C201.324 22.7904 201.486 22.7474 201.631 22.7164C201.872 22.6662 202.034 22.757 202.204 22.8524C202.24 22.8715 202.304 22.8835 202.346 22.8739C202.514 22.8405 202.659 22.8667 202.781 22.9551C202.868 23.0171 202.955 23.0458 203.062 23.0339C203.433 22.9885 203.803 22.9407 204.174 22.9002C204.219 22.8954 204.271 22.9169 204.312 22.936C204.641 23.0816 204.644 23.0887 204.886 23.0506C205.102 23.0171 205.302 23.0028 205.473 23.1341C205.508 23.1627 205.563 23.2033 205.602 23.2009C205.866 23.1771 206.134 23.1508 206.395 23.1102C206.514 23.0911 206.598 23.0983 206.691 23.1532C206.81 23.2224 206.917 23.306 207.113 23.2749C207.658 23.1866 207.661 23.2009 208.306 23.3656C208.351 23.3776 208.412 23.3585 208.464 23.3489C208.574 23.3251 208.654 23.3585 208.751 23.4134C208.967 23.5375 208.973 23.5303 209.18 23.5041C209.338 23.4826 209.502 23.4778 209.657 23.442C209.895 23.3895 210.053 23.4826 210.23 23.5709C210.372 23.6402 210.537 23.5829 210.688 23.5614C210.852 23.5375 211.001 23.5447 211.123 23.6354C211.207 23.6974 211.297 23.7309 211.404 23.7189C211.774 23.676 212.145 23.6282 212.516 23.5852C212.561 23.5805 212.616 23.5996 212.657 23.6163C213.025 23.7643 213.025 23.7714 213.389 23.7165C213.505 23.6998 213.602 23.6951 213.689 23.7452C213.773 23.7929 213.863 23.8383 213.95 23.8836C214.108 23.8669 214.269 23.8621 214.424 23.8335C214.543 23.812 214.627 23.8216 214.72 23.8717C214.843 23.9362 214.946 24.0483 215.139 23.9934C215.239 23.9672 215.355 23.9743 215.455 23.9505C215.574 23.9194 215.655 23.9385 215.749 24.0006C215.865 24.0746 215.984 24.151 216.171 24.1128C216.377 24.0698 216.596 24.0626 216.806 24.0292C216.922 24.0101 217.002 24.0292 217.096 24.0913C217.212 24.1701 217.344 24.2202 217.525 24.1892C217.892 24.1295 217.895 24.1414 218.253 24.2918C218.343 24.33 218.44 24.3252 218.556 24.3061C218.656 24.2894 218.759 24.3252 218.83 24.3944C218.898 24.4708 218.891 24.5186 218.898 24.5591ZM190.175 3.03058C190.069 3.04251 189.962 3.05683 189.808 2.84916C189.798 2.81336 189.805 2.7704 189.782 2.73937C189.73 2.67492 189.65 2.62957 189.553 2.62241C189.379 2.61286 189.17 2.694 189.173 2.75606C189.176 2.80858 189.231 2.85392 189.337 2.89689C189.382 2.9136 189.418 2.94225 189.46 2.96134C189.582 3.01625 189.679 3.12368 189.856 3.06878C189.824 2.92078 189.84 2.99478 189.856 3.06878C189.84 3.15949 189.888 3.22394 190.004 3.25019C190.037 3.25736 190.085 3.25257 190.111 3.23825C190.211 3.18573 190.227 3.11414 190.153 2.92556C190.14 2.95659 190.149 3.01148 190.178 3.0258C190.208 3.04012 190.278 3.0282 190.314 3.01149C190.404 2.96614 190.449 2.90646 190.427 2.85633C190.414 2.83007 190.353 2.79665 190.314 2.79665C190.246 2.79665 190.185 2.84916 190.175 3.03058ZM216.238 30.7129C216.003 30.7582 215.732 30.7415 215.497 30.8346C215.455 30.8513 215.413 30.8943 215.41 30.9277C215.407 30.9492 215.471 30.9803 215.51 30.997C215.597 31.0352 215.694 31.0232 215.807 31.0113C215.977 30.9946 216.077 31.1044 216.21 31.1593C216.251 31.176 216.306 31.1879 216.351 31.1831C216.612 31.1545 216.87 31.1235 217.131 31.0901C217.176 31.0829 217.225 31.0662 217.264 31.0447C217.392 30.9755 217.38 30.9301 217.254 30.8776C217.115 30.8203 217.006 30.7248 216.864 30.6795C216.661 30.615 216.454 30.701 216.238 30.7129ZM197.934 32.4554C197.776 32.4745 197.621 32.4936 197.463 32.5127C197.411 32.5199 197.357 32.5223 197.308 32.5318C197.208 32.5485 197.134 32.5986 197.086 32.6774C197.16 32.7395 197.25 32.7753 197.35 32.7681C197.508 32.7538 197.663 32.7228 197.821 32.7156C197.992 32.7061 198.092 32.8135 198.224 32.8684C198.266 32.8851 198.317 32.8875 198.366 32.8899C198.604 32.8994 198.749 32.7753 198.704 32.601C198.672 32.465 198.549 32.3838 198.401 32.4005C198.246 32.4172 198.088 32.4363 197.934 32.4554ZM217.341 27.1849C217.38 27.1443 217.421 27.1157 217.441 27.0799C217.499 26.9581 217.476 26.8674 217.37 26.7719C217.241 26.655 217.083 26.7337 216.938 26.7457C216.903 26.748 216.864 26.7982 216.844 26.8292C216.832 26.8507 216.832 26.8961 216.851 26.908C217.009 27.0035 217.176 27.0918 217.341 27.1849ZM189.379 20.1336C189.224 20.1527 189.066 20.167 188.912 20.1933C188.873 20.2005 188.838 20.2458 188.815 20.2768C188.773 20.3341 188.818 20.4129 188.95 20.42C189.102 20.4296 189.26 20.389 189.418 20.3699C189.618 20.3461 189.737 20.2577 189.663 20.1813C189.592 20.1073 189.495 20.093 189.379 20.1336ZM19.7102 15.0325C19.8133 15.0206 19.9197 15.0111 20.0228 14.9943C20.1195 14.9776 20.1937 14.9251 20.2421 14.8464C20.1615 14.7843 20.0712 14.7509 19.9713 14.758C19.8133 14.7724 19.6586 14.7914 19.5039 14.8153C19.4072 14.8296 19.3138 14.8822 19.2912 14.9633C19.2687 15.0254 19.4845 15.0612 19.7102 15.0325ZM175.748 14.6649C175.79 14.6864 175.832 14.7294 175.874 14.7294C175.977 14.7294 176.083 14.7151 176.18 14.6912C176.222 14.6816 176.254 14.6387 176.273 14.6053C176.286 14.5838 176.283 14.5456 176.264 14.5265C176.17 14.4119 175.796 14.4525 175.735 14.5838C175.729 14.6077 175.745 14.6387 175.748 14.6649ZM165.579 1.59358C165.588 1.63178 165.592 1.66996 165.604 1.70816C165.63 1.77977 165.701 1.83229 165.804 1.8681C165.885 1.80842 165.927 1.7416 165.924 1.66999C165.92 1.63179 165.911 1.59358 165.898 1.55538C165.872 1.48377 165.801 1.43128 165.698 1.39547C165.617 1.45276 165.579 1.51959 165.579 1.59358ZM224.79 32.8708C224.761 32.9018 224.732 32.9328 224.7 32.9615C224.787 33.0307 224.867 33.0522 224.928 33.014C224.967 32.9901 224.99 32.9543 225.019 32.9233C224.932 32.8541 224.854 32.835 224.79 32.8708ZM222.785 33.1954C222.827 33.2169 222.866 33.2455 222.911 33.2599C222.985 33.2837 223.052 33.2431 223.104 33.1572C223.062 33.1357 223.023 33.1071 222.978 33.0928C222.904 33.0689 222.836 33.1095 222.785 33.1954ZM224.055 32.7586C224.032 32.8159 224.077 32.8636 224.197 32.9042C224.226 32.8732 224.264 32.8445 224.284 32.8111C224.316 32.7562 224.261 32.7061 224.145 32.6679C224.113 32.6965 224.084 32.7276 224.055 32.7586ZM217.251 30.1854C217.228 30.2427 217.273 30.2904 217.392 30.331C217.421 30.2999 217.46 30.2713 217.479 30.2379C217.512 30.183 217.457 30.1329 217.341 30.0947C217.309 30.1233 217.28 30.1543 217.251 30.1854ZM207.981 13.2948C207.952 13.3258 207.923 13.3568 207.89 13.3855C207.977 13.4547 208.058 13.4762 208.119 13.438C208.158 13.4141 208.18 13.3783 208.209 13.3473C208.122 13.2781 208.045 13.259 207.981 13.2948ZM199.1 4.33388C199.178 4.35059 199.242 4.31719 199.297 4.22887C199.255 4.20739 199.216 4.17874 199.171 4.16441C199.097 4.14054 199.03 4.18114 198.978 4.26707C199.02 4.29094 199.062 4.3124 199.1 4.33388ZM194.385 3.77294C194.356 3.80397 194.327 3.835 194.295 3.86365C194.382 3.93287 194.462 3.95435 194.523 3.91615C194.562 3.89228 194.585 3.85648 194.614 3.82545C194.527 3.75622 194.449 3.73952 194.385 3.77294ZM162.407 1.5912C162.378 1.62223 162.349 1.65326 162.317 1.6819C162.404 1.75113 162.484 1.7726 162.546 1.73441C162.584 1.71054 162.607 1.67473 162.636 1.6437C162.549 1.57448 162.471 1.55778 162.407 1.5912ZM3.18131 21.012C3.13941 20.9905 3.09754 20.9691 3.05887 20.9452C2.96539 21.0097 2.93639 21.0693 2.98796 21.1147C3.0202 21.1433 3.06851 21.16 3.11041 21.1815C3.20711 21.1171 3.22966 21.0598 3.18131 21.012Z" fill="#4F9CF9"/>
</svg>
