<svg width="313" height="25" viewBox="0 0 313 25" fill="none" xmlns="http://www.w3.org/2000/svg">
<path d="M294.264 13.203C293.836 13.223 293.403 13.2368 292.984 13.2669C292.711 13.2857 292.595 13.2306 292.413 13.2017C292.352 13.1917 292.287 13.1717 292.231 13.1742C291.807 13.1942 291.383 13.2168 290.959 13.2393C290.83 13.2882 290.747 13.3533 290.548 13.3771C290.354 13.3997 290.125 13.3997 289.908 13.411C289.623 13.4248 289.337 13.4385 289.052 13.4511C288.909 13.4573 288.792 13.4811 288.745 13.5262C288.736 13.5338 288.831 13.5525 288.883 13.5638C289.056 13.6014 289.225 13.644 289.415 13.6728C289.597 13.7004 289.822 13.6553 290.016 13.6904C290.453 13.7693 290.458 13.7681 290.791 13.753C291.076 13.7392 291.362 13.7242 291.647 13.7142C291.703 13.7117 291.768 13.7305 291.829 13.7405C292.01 13.7681 292.127 13.8307 292.396 13.8069C292.599 13.7881 292.824 13.7844 293.036 13.7743C293.213 13.8107 293.377 13.852 293.568 13.8808C293.745 13.9084 293.797 13.9297 293.702 13.966C293.615 13.9999 293.494 14.0136 293.334 14.0162C293.191 14.0174 293.049 14.0287 292.906 14.0349C292.832 14.0387 292.763 14.0412 292.694 14.045C292.421 14.0588 292.421 14.0587 291.924 13.9786C291.729 13.9472 291.509 13.9911 291.323 13.961C291.197 13.941 291.089 13.9109 290.968 13.8896C290.916 13.8808 290.834 13.8796 290.769 13.8821C290.553 13.8909 290.336 13.8971 290.129 13.9134C289.982 13.9247 289.895 13.9598 289.913 13.9948C289.917 14.0086 290.021 14.0287 290.081 14.0299C290.22 14.0324 290.367 14.0149 290.501 14.0237C290.631 14.0324 290.765 14.0575 290.86 14.0851C291.055 14.1427 291.275 14.0913 291.461 14.1064C291.656 14.1227 291.816 14.1728 292.002 14.2028C292.049 14.2104 292.14 14.1978 292.214 14.1941C292.426 14.1853 292.638 14.1778 292.85 14.169C293.027 14.2053 293.217 14.2379 293.377 14.2793C293.667 14.3544 293.979 14.3833 294.355 14.3469C294.567 14.3269 294.775 14.3344 294.943 14.3833C295.116 14.4334 295.315 14.4284 295.536 14.4183C295.739 14.4083 295.947 14.3808 296.154 14.4158C296.604 14.4935 296.609 14.4973 297.141 14.4672C297.301 14.4584 297.422 14.4559 297.543 14.4848C297.655 14.5111 297.777 14.5336 297.893 14.5587C298.105 14.5499 298.322 14.5411 298.534 14.5311C298.806 14.5173 298.957 14.5349 299.022 14.605C299.061 14.6476 299.079 14.6865 299.174 14.7153C299.286 14.7504 299.407 14.7491 299.572 14.7391C299.727 14.7303 299.84 14.7166 299.905 14.6714C299.931 14.6527 299.983 14.6351 300.03 14.6201C300.069 14.6088 300.13 14.5913 300.164 14.5938C300.229 14.5988 300.316 14.6125 300.337 14.6288C300.549 14.7804 300.549 14.7817 300.766 14.8256C301.004 14.8744 301.25 14.9183 301.466 14.9734C301.661 15.0223 301.856 15.001 302.068 15.001C302.228 15.001 302.332 15.0336 302.319 15.0661C302.31 15.0849 302.249 15.1125 302.197 15.115C301.773 15.14 301.345 15.1613 300.917 15.1789C300.865 15.1814 300.8 15.1588 300.74 15.1476C300.619 15.125 300.51 15.0899 300.381 15.0824C300.251 15.0749 300.099 15.0937 299.957 15.0999C299.814 15.1062 299.663 15.1225 299.533 15.1125C299.403 15.1025 299.299 15.0661 299.178 15.0423C299.122 15.031 299.044 15.0148 298.996 15.0185C298.681 15.0486 298.447 15.0072 298.222 14.9521C298.175 14.9408 298.092 14.9333 298.032 14.9358C297.53 14.9571 297.033 14.9822 296.531 15.006C296.328 15.016 296.163 14.9721 296.12 14.8982C296.098 14.8569 296.055 14.8155 296.055 14.7742C296.055 14.699 295.817 14.6577 295.644 14.6664C295.359 14.679 295.069 14.689 294.788 14.7078C294.558 14.7228 294.364 14.7078 294.208 14.6627C294.026 14.6113 293.819 14.6213 293.611 14.6351C293.455 14.6451 293.412 14.6865 293.421 14.7905C293.429 14.8744 293.356 14.9007 293.075 14.9145C292.72 14.9321 292.361 14.9496 292.002 14.9634C291.946 14.9659 291.881 14.9446 291.824 14.9333C291.703 14.9108 291.595 14.8744 291.465 14.8669C291.336 14.8581 291.184 14.8769 291.042 14.8844C290.899 14.8907 290.747 14.9082 290.618 14.8995C290.488 14.8907 290.38 14.8531 290.263 14.8293C290.207 14.818 290.137 14.8017 290.081 14.8043C289.796 14.8143 289.51 14.8293 289.225 14.8431C288.905 14.8581 288.905 14.8581 288.45 14.7805C288.243 14.7454 288.035 14.7729 287.832 14.783C287.616 14.793 287.412 14.798 287.244 14.7479C287.131 14.7153 287.006 14.6953 286.872 14.7015C286.513 14.7166 286.158 14.7353 285.799 14.7504C285.738 14.7529 285.656 14.7466 285.609 14.7353C285.379 14.6827 285.154 14.6414 284.834 14.6677C284.557 14.6902 284.259 14.6915 283.982 14.7128C283.831 14.7241 283.761 14.7642 283.792 14.7955C283.809 14.8118 283.9 14.8306 283.96 14.8306C284.099 14.8318 284.25 14.813 284.38 14.8205C284.648 14.8356 284.782 14.9408 285.133 14.912C285.34 14.8945 285.557 14.8882 285.773 14.8832C285.829 14.8819 285.89 14.9057 285.95 14.9183C286.123 14.9521 286.275 14.9959 286.526 14.9734C286.733 14.9559 286.954 14.9509 287.166 14.9408C287.503 14.9245 287.503 14.9258 287.94 15.0022C288.148 15.0386 288.355 15.0097 288.559 15.001C288.71 14.9947 288.853 14.9822 288.974 14.9997C289.16 15.026 289.294 15.0862 289.523 15.0824C289.74 15.0786 289.951 15.0611 290.168 15.0548C290.302 15.0511 290.427 15.0711 290.535 15.105C290.648 15.1388 290.769 15.1538 290.916 15.1463C291.128 15.1363 291.344 15.1238 291.561 15.1175C291.621 15.1162 291.69 15.1275 291.747 15.1375C291.868 15.1601 291.984 15.1864 292.101 15.2102C292.313 15.2027 292.53 15.2002 292.737 15.1852C292.897 15.1739 293.01 15.1789 293.139 15.2039C293.304 15.2378 293.438 15.2979 293.706 15.2691C293.84 15.2553 293.996 15.2591 294.13 15.2465C294.294 15.2303 294.407 15.2365 294.524 15.2741C294.744 15.3455 295.021 15.3468 295.307 15.3192C295.618 15.2891 295.852 15.3242 296.085 15.3794C296.332 15.437 296.332 15.4357 296.522 15.5748C296.578 15.6149 296.738 15.6337 296.872 15.6262C297.097 15.6137 297.292 15.6199 297.457 15.6675C297.63 15.7189 297.837 15.7126 298.049 15.6989C298.33 15.6801 298.611 15.6638 298.841 15.7365C298.953 15.7715 299.074 15.7803 299.226 15.7715C299.654 15.749 300.087 15.7352 300.506 15.7076C300.761 15.6901 300.908 15.7302 301.081 15.764C301.315 15.8104 301.57 15.8517 301.57 15.9507C301.57 15.967 301.631 15.9858 301.683 15.9983C301.795 16.0246 301.916 16.0472 302.033 16.0722C302.206 16.1098 302.375 16.1412 302.613 16.1211C302.82 16.1048 303.041 16.0998 303.253 16.0885C303.465 16.0773 303.66 16.071 303.85 16.1186C304.07 16.1725 304.304 16.2238 304.555 16.2639C304.732 16.2928 304.966 16.2439 305.156 16.2827C305.273 16.3065 305.385 16.3341 305.511 16.3542C305.563 16.3629 305.645 16.3567 305.714 16.3542C305.857 16.3491 306.004 16.3454 306.142 16.3329C306.303 16.3191 306.424 16.3216 306.545 16.3504C306.657 16.3767 306.77 16.413 306.899 16.4206C307.094 16.4318 307.31 16.3817 307.505 16.4394C307.604 16.4682 307.73 16.4957 307.86 16.5045C307.99 16.5133 308.141 16.4945 308.279 16.4957C308.34 16.4957 308.413 16.5158 308.448 16.5321C308.47 16.5408 308.439 16.5647 308.409 16.5772C308.37 16.5922 308.314 16.6123 308.258 16.6148C307.829 16.6373 307.401 16.6561 306.973 16.6774C306.718 16.69 306.718 16.6899 306.203 16.611C306.082 16.5922 305.948 16.596 305.796 16.6047C305.593 16.616 305.385 16.6373 305.174 16.6148C304.897 16.5296 304.555 16.522 304.192 16.5546C304.04 16.5684 303.902 16.5684 303.789 16.5446C303.551 16.497 303.3 16.4531 303.089 16.3968C302.924 16.3529 302.846 16.3491 302.777 16.4093C302.755 16.4281 302.734 16.4481 302.738 16.4657C302.764 16.5283 302.812 16.5897 302.838 16.6524C302.846 16.6699 302.812 16.69 302.79 16.7087C302.721 16.7614 302.63 16.7576 302.479 16.7137C302.327 16.6699 302.146 16.6411 301.903 16.6611C301.696 16.6787 301.471 16.6762 301.263 16.695C300.943 16.7225 300.718 16.6824 300.489 16.6286C300.441 16.6173 300.359 16.611 300.298 16.6135C299.654 16.6423 299.014 16.6749 298.369 16.7037C298.231 16.71 298.105 16.6912 297.997 16.6574C297.885 16.6235 297.759 16.606 297.621 16.6123C297.05 16.6386 296.479 16.6624 295.908 16.695C295.674 16.7087 295.488 16.6924 295.328 16.6486C295.207 16.616 295.095 16.606 294.943 16.6098C294.779 16.6135 294.662 16.6261 294.58 16.6624C294.502 16.6975 294.558 16.7188 294.731 16.7463C294.917 16.7764 295.09 16.8152 295.268 16.8503C295.41 16.8453 295.553 16.8353 295.692 16.8365C295.752 16.8365 295.808 16.8591 295.869 16.8716C296.042 16.908 296.202 16.9443 296.449 16.9243C296.656 16.9067 296.877 16.903 297.089 16.8917C297.383 16.8779 297.383 16.8779 297.859 16.9568C297.98 16.9769 298.11 16.9756 298.265 16.9643C298.399 16.9556 298.538 16.9731 298.633 17.0107C298.672 17.0257 298.659 17.0508 298.577 17.1335C298.577 17.1949 298.668 17.1673 298.698 17.1272C298.746 17.0696 298.655 17.0508 298.482 17.0821C298.361 17.1047 298.3 17.1373 298.33 17.1636C298.348 17.1774 298.43 17.1949 298.577 17.1335C298.958 17.0583 299.247 17.0495 299.524 17.0295C299.689 17.0182 299.792 17.0232 299.922 17.0558C300.078 17.0946 300.234 17.136 300.489 17.116C300.766 17.0934 301.06 17.0909 301.341 17.0721C301.6 17.0546 301.735 17.1097 301.899 17.1423C302.098 17.1811 302.319 17.1373 302.5 17.1598C302.691 17.1824 302.825 17.2375 303.045 17.2475C303.365 17.2137 303.569 17.2763 303.811 17.3177C304.001 17.349 304.226 17.3214 304.429 17.3076C304.659 17.2926 304.849 17.3064 305.009 17.3515C305.191 17.4029 305.394 17.3916 305.602 17.3803C306.086 17.3553 306.103 17.3515 306.385 17.4204C306.588 17.4705 306.783 17.448 306.986 17.4417C307.163 17.4756 307.336 17.5119 307.522 17.5419C307.57 17.5495 307.661 17.5369 307.734 17.5332C307.946 17.5232 308.163 17.5131 308.374 17.5031C308.517 17.4969 308.669 17.4781 308.798 17.4856C308.928 17.4943 309.036 17.5307 309.153 17.5545C309.27 17.5783 309.391 17.6021 309.504 17.6272C309.677 17.6647 309.841 17.6961 310.083 17.6773C310.291 17.661 310.507 17.656 310.723 17.6447C310.996 17.6309 310.987 17.6347 311.493 17.7099C311.766 17.7512 312.047 17.7011 312.324 17.6961C312.462 17.6936 312.596 17.7074 312.691 17.7437C312.73 17.7587 312.717 17.7838 312.73 17.8051C312.017 17.8389 311.299 17.8677 310.593 17.9091C310.321 17.9254 310.178 17.8802 310.031 17.8427C309.789 17.7825 309.469 17.8702 309.24 17.7925C309.101 17.7462 308.902 17.7199 308.664 17.7424C308.526 17.755 308.379 17.7537 308.236 17.765C307.873 17.7925 307.54 17.7938 307.25 17.7073C307.15 17.6773 307.008 17.661 306.904 17.6322C306.783 17.6008 306.666 17.5833 306.523 17.5896C305.879 17.6196 305.238 17.6497 304.598 17.6823C304.542 17.6848 304.486 17.7036 304.438 17.7174C304.317 17.7524 304.356 17.78 304.551 17.8026C304.615 17.8101 304.667 17.8264 304.728 17.8389C304.845 17.8627 304.953 17.9003 305.083 17.9091C305.212 17.9178 305.364 17.9003 305.507 17.894C305.649 17.8878 305.801 17.869 305.931 17.8765C306.06 17.8853 306.168 17.9216 306.289 17.9442C306.346 17.9554 306.415 17.9742 306.471 17.973C306.757 17.9655 307.038 17.9517 307.323 17.9404C307.501 17.9742 307.652 18.0231 307.864 18.0344C307.998 18.0419 308.141 18.0281 308.279 18.0306C308.34 18.0319 308.418 18.0507 308.448 18.0669C308.465 18.077 308.409 18.102 308.366 18.1146C308.201 18.1622 307.977 18.1534 307.773 18.1684C307.553 18.1847 307.354 18.1797 307.185 18.1308C307.072 18.0983 306.947 18.0807 306.809 18.087C306.449 18.1033 306.095 18.1221 305.736 18.1359C305.675 18.1384 305.602 18.1271 305.545 18.1183C305.091 18.0419 305.091 18.0394 304.771 18.0557C304.3 18.0795 304.3 18.0795 303.984 18.0131C303.923 18.0005 303.858 17.9767 303.807 17.978C303.305 17.998 302.807 18.0181 302.31 18.0469C302.146 18.0557 302.033 18.0557 301.912 18.0231C301.808 17.9955 301.687 17.9642 301.557 17.9567C301.423 17.9492 301.276 17.968 301.133 17.9742C300.991 17.9805 300.839 17.9968 300.714 17.9868C300.584 17.9767 300.471 17.9417 300.359 17.9166C300.242 17.8903 300.117 17.8915 299.957 17.9015C299.464 17.9304 299.459 17.9266 298.97 17.8489C298.914 17.8402 298.841 17.8301 298.78 17.8326C298.421 17.8477 298.066 17.8665 297.707 17.8815C297.569 17.8878 297.435 17.8715 297.34 17.8352C297.301 17.8201 297.314 17.795 297.288 17.7462C297.258 17.7349 297.292 17.755 297.301 17.7738C297.366 17.7713 297.444 17.7737 297.491 17.7637C297.612 17.7399 297.673 17.7086 297.642 17.6823C297.625 17.6685 297.543 17.651 297.491 17.651C297.396 17.651 297.314 17.6785 297.288 17.7462C297.015 17.7875 296.725 17.7963 296.444 17.8164C296.28 17.8289 296.176 17.8226 296.046 17.79C295.891 17.75 295.731 17.7111 295.475 17.7311C295.198 17.7537 294.904 17.7575 294.619 17.775C294.29 17.7951 294.147 17.6823 293.871 17.6848C293.585 17.6873 293.3 17.7086 293.014 17.7236C292.763 17.7362 292.763 17.7362 292.244 17.6547C292.054 17.6246 291.829 17.6685 291.643 17.6372C291.517 17.6171 291.409 17.5871 291.288 17.5658C291.236 17.557 291.154 17.557 291.089 17.5595C290.73 17.5745 290.367 17.5846 290.021 17.6121C289.627 17.6447 289.329 17.6096 289.047 17.5357C288.693 17.5495 288.334 17.557 287.983 17.5808C287.728 17.5983 287.581 17.557 287.408 17.5232C287.347 17.5119 287.296 17.4931 287.231 17.4881C287.166 17.4831 287.088 17.4931 287.019 17.4968C286.733 17.5106 286.439 17.5169 286.162 17.5395C285.82 17.5683 285.691 17.4655 285.427 17.453C285.249 17.5144 285.154 17.5983 284.804 17.6046C284.518 17.6096 284.233 17.6297 283.947 17.6434C283.805 17.6497 283.662 17.6572 283.519 17.6635C283.29 17.6748 283.182 17.7236 283.229 17.7988C283.255 17.8402 283.277 17.8815 283.299 17.9229C283.342 17.9968 283.234 18.0594 283.052 18.0682C282.55 18.092 282.053 18.1171 281.551 18.1384C281.417 18.1446 281.287 18.1233 281.179 18.0895C281.067 18.0557 280.941 18.0406 280.803 18.0469C280.301 18.0707 279.803 18.0958 279.302 18.1171C279.245 18.1196 279.172 18.107 279.116 18.097C278.995 18.0745 278.878 18.0482 278.761 18.0243C278.476 18.0356 278.194 18.0431 277.913 18.0582C277.459 18.0807 277.459 18.082 277.126 18.0131C277.065 18.0005 277.005 17.9767 276.949 17.978C276.732 17.983 276.52 17.9955 276.304 18.0068C275.668 18.0394 275.668 18.0394 275.482 18.0018C275.313 17.9667 275.162 17.9241 274.907 17.9442C274.63 17.9667 274.336 17.9742 274.05 17.9868C273.838 17.9955 273.626 18.0056 273.414 18.0081C273.358 18.0093 273.298 17.9855 273.237 17.973C273.064 17.9341 272.895 17.9028 272.657 17.9241C272.519 17.9366 272.372 17.9391 272.229 17.9454C271.857 17.963 271.857 17.9629 271.247 17.8878C271.187 17.8802 271.113 17.8715 271.053 17.8752C270.551 17.8978 270.053 17.9229 269.552 17.9442C269.491 17.9467 269.418 17.9391 269.357 17.9329C268.674 17.8602 268.674 17.8602 267.947 17.8953C267.67 17.9078 267.661 17.9128 267.372 17.8464C267.242 17.8176 267.134 17.8038 266.982 17.8126C266.411 17.8427 265.836 17.8627 265.269 17.8978C265.014 17.9128 264.867 17.8752 264.694 17.8414C264.633 17.8301 264.569 17.8051 264.517 17.8063C263.946 17.8301 263.375 17.859 262.804 17.8828C262.752 17.8853 262.687 17.8602 262.626 17.8489C262.509 17.8264 262.397 17.7925 262.267 17.785C262.133 17.7775 261.986 17.7963 261.839 17.8026C261.48 17.8189 261.48 17.8176 261.065 17.7437C261.008 17.7337 260.935 17.7199 260.879 17.7224C260.308 17.7474 259.732 17.7687 259.166 17.8051C258.841 17.8251 258.621 17.7888 258.391 17.7362C258.344 17.7249 258.262 17.7199 258.201 17.7224C257.557 17.7512 256.916 17.7838 256.272 17.8126C256.138 17.8189 256.008 17.7976 255.9 17.765C255.727 17.7136 255.524 17.7199 255.307 17.7311C254.81 17.7575 254.805 17.7562 254.511 17.6961C254.451 17.6835 254.399 17.6673 254.334 17.661C254.273 17.6547 254.196 17.6585 254.131 17.661C253.845 17.6735 253.56 17.6873 253.274 17.7011C252.989 17.7149 252.699 17.7224 252.418 17.7437C252.072 17.77 251.907 17.6885 251.665 17.651C251.31 17.6672 250.947 17.6773 250.597 17.7036C250.328 17.7236 250.203 17.6685 250.026 17.6397C249.965 17.6297 249.9 17.6084 249.844 17.6109C249.199 17.6384 248.555 17.6685 247.915 17.7023C247.759 17.7098 247.655 17.6998 247.525 17.6698C247.236 17.6021 247.223 17.6046 246.738 17.6297C246.526 17.6409 246.323 17.651 246.141 17.5996C245.981 17.5532 245.787 17.5419 245.557 17.557C245.276 17.5758 244.986 17.5858 244.701 17.5983C244.415 17.6121 244.13 17.6309 243.844 17.6372C243.615 17.6434 243.477 17.5846 243.295 17.5545C243.239 17.5457 243.161 17.5445 243.096 17.547C242.81 17.5582 242.516 17.567 242.24 17.5883C241.902 17.6146 241.716 17.5457 241.478 17.5056C241.426 17.4969 241.34 17.5019 241.275 17.5056C240.773 17.5282 240.276 17.5532 239.774 17.577C239.596 17.5432 239.415 17.5106 239.237 17.4768C238.952 17.4893 238.666 17.5031 238.381 17.5156C238.165 17.5257 237.944 17.5294 237.741 17.5482C237.477 17.5733 237.347 17.5144 237.17 17.4856C237.109 17.4755 237.044 17.4543 236.988 17.4568C236.629 17.4705 236.27 17.4856 235.915 17.5069C235.578 17.5282 235.444 17.4154 235.167 17.4167C234.882 17.4179 234.587 17.4342 234.311 17.4568C233.99 17.4831 233.765 17.443 233.536 17.3891C233.489 17.3778 233.406 17.3716 233.346 17.3741C232.987 17.3891 232.632 17.4079 232.273 17.4229C232.213 17.4254 232.139 17.4192 232.079 17.4117C231.395 17.3377 231.395 17.3365 231.097 17.3515C230.885 17.3615 230.668 17.3741 230.452 17.3803C230.392 17.3828 230.318 17.3716 230.262 17.3615C229.812 17.2851 229.812 17.2838 229.487 17.2989C229.202 17.3127 228.916 17.3264 228.631 17.3402C228.454 17.3064 228.272 17.2738 228.095 17.24C227.74 17.2563 227.376 17.2688 227.026 17.2914C226.862 17.3014 226.754 17.2976 226.628 17.2663C226.472 17.2287 226.317 17.1849 226.057 17.2062C225.78 17.2287 225.486 17.2312 225.205 17.25C224.868 17.2726 224.729 17.1586 224.457 17.1598C224.171 17.1611 223.877 17.1773 223.6 17.1999C223.28 17.2262 223.055 17.1861 222.826 17.1322C222.778 17.121 222.696 17.1147 222.636 17.1172C221.848 17.1535 221.065 17.1899 220.278 17.2287C219.794 17.2525 219.794 17.2538 218.872 17.1849C218.807 17.1798 218.738 17.1748 218.673 17.1774C218.388 17.1886 218.094 17.1974 217.817 17.2187C217.479 17.245 217.293 17.1773 217.055 17.136C217.004 17.1272 216.921 17.1322 216.852 17.1347C216.636 17.1435 216.424 17.1548 216.208 17.1648C215.922 17.1786 215.637 17.1924 215.351 17.2062C215.174 17.1736 214.992 17.1398 214.815 17.1072C214.46 17.1235 214.097 17.1322 213.746 17.1586C213.478 17.1786 213.353 17.126 213.175 17.0959C213.115 17.0859 213.05 17.0646 212.994 17.0658C212.349 17.0934 211.705 17.1222 211.064 17.1573C210.801 17.1723 210.679 17.1159 210.502 17.0871C210.442 17.0784 210.372 17.0621 210.316 17.0646C209.888 17.0821 209.46 17.1034 209.031 17.1247C208.789 17.1373 208.789 17.1372 208.261 17.0596C208.201 17.0508 208.132 17.042 208.071 17.0445C206.713 17.1072 205.359 17.1736 204.001 17.2362C203.862 17.2425 203.737 17.2237 203.629 17.1899C203.516 17.156 203.391 17.1385 203.252 17.1448C202.681 17.1711 202.106 17.1949 201.539 17.2275C201.306 17.2413 201.12 17.225 200.96 17.1811C200.839 17.1485 200.726 17.136 200.575 17.1435C200.289 17.1586 200.004 17.1711 199.718 17.1849C199.433 17.1986 199.147 17.2124 198.862 17.2262C198.576 17.24 198.286 17.2475 198.005 17.2688C197.659 17.2951 197.491 17.2174 197.253 17.1786C196.824 17.1974 196.396 17.2162 195.972 17.2362C195.401 17.2625 194.83 17.2914 194.259 17.3164C194.207 17.3189 194.142 17.2964 194.082 17.2851C193.905 17.2538 193.775 17.2099 193.511 17.2237C192.23 17.2901 190.941 17.3465 189.657 17.4117C189.389 17.4254 189.272 17.3716 189.09 17.3427C189.03 17.334 188.96 17.3164 188.904 17.3189C188.19 17.3503 187.477 17.3853 186.763 17.4192C186.473 17.4329 186.473 17.4329 185.989 17.3553C185.932 17.3465 185.859 17.3352 185.798 17.3377C184.868 17.3803 183.943 17.4254 183.013 17.4693C182.874 17.4755 182.749 17.458 182.636 17.4242C182.528 17.3903 182.398 17.3716 182.264 17.3778C181.408 17.4179 180.547 17.4568 179.695 17.5006C179.465 17.5131 179.275 17.5019 179.111 17.4568C178.994 17.4242 178.877 17.4104 178.73 17.4179C177.445 17.4793 176.161 17.5382 174.876 17.6034C174.629 17.6159 174.456 17.5921 174.301 17.5507C174.175 17.5182 174.067 17.5119 173.911 17.5169C173.747 17.5232 173.648 17.5369 173.557 17.5745C173.44 17.6234 173.366 17.6848 173.089 17.6886C172.804 17.6923 172.514 17.7074 172.233 17.7287C171.965 17.75 171.839 17.6936 171.671 17.6597C171.545 17.6359 171.428 17.6322 171.268 17.6434C171.121 17.6535 171.03 17.6748 170.944 17.7149C170.754 17.8001 170.736 17.8001 170.503 17.7462C170.377 17.7174 170.265 17.6948 170.126 17.6998C169.555 17.7249 168.984 17.7524 168.413 17.7813C168.085 17.7976 168.08 17.8001 167.834 17.7374C167.713 17.7061 167.596 17.6911 167.453 17.6986C165.883 17.7737 164.313 17.8464 162.743 17.9254C162.5 17.9379 162.336 17.9116 162.163 17.874C162.107 17.8615 162.05 17.8439 161.986 17.8389C161.921 17.8339 161.847 17.8389 161.778 17.8414C160.636 17.8953 159.49 17.9467 158.352 18.0068C158.092 18.0206 157.954 17.9805 157.777 17.9479C157.716 17.9366 157.664 17.9191 157.599 17.9141C157.534 17.9103 157.457 17.9191 157.387 17.9229C156.245 17.9767 155.099 18.0281 153.961 18.0882C153.689 18.102 153.572 18.0494 153.395 18.0218C153.334 18.0118 153.269 17.993 153.213 17.9955C152.854 18.0093 152.499 18.0281 152.14 18.0444C151.284 18.0857 150.427 18.1246 149.571 18.1672C149.242 18.1835 149.099 18.072 148.822 18.077C148.463 18.0832 148.109 18.1083 147.75 18.1258C147.464 18.1396 147.179 18.1522 146.893 18.1672C146.612 18.181 146.612 18.181 145.911 18.1083C145.851 18.102 145.777 18.0933 145.717 18.0958C144.717 18.1421 143.714 18.1885 142.719 18.2386C142.49 18.2499 142.299 18.2436 142.135 18.1973C142.018 18.1647 141.897 18.1484 141.754 18.1559C140.253 18.2273 138.757 18.2987 137.256 18.3689C137.199 18.3714 137.126 18.3589 137.07 18.3489C136.949 18.3263 136.832 18.3 136.715 18.2762C136.628 18.305 136.516 18.3313 136.46 18.3639C136.382 18.4077 136.278 18.4203 136.114 18.4278C135.949 18.4353 135.846 18.4328 135.716 18.4002C135.56 18.3601 135.4 18.3288 135.145 18.3413C133.575 18.4203 132.004 18.4917 130.434 18.5694C130.175 18.5819 130.054 18.5268 129.872 18.498C129.811 18.4892 129.742 18.4754 129.686 18.4779C129.041 18.5067 128.401 18.5381 127.757 18.5681C125.97 18.6533 124.184 18.7348 122.401 18.825C122.077 18.8413 121.856 18.8099 121.627 18.7561C121.58 18.7448 121.497 18.7385 121.437 18.741C118.937 18.8588 116.436 18.9778 113.94 19.0969C113.806 19.1031 113.677 19.0831 113.568 19.0505C113.456 19.0167 113.331 19.0004 113.192 19.0067C112.05 19.0605 110.908 19.1144 109.766 19.1695C109.481 19.1833 109.476 19.1846 109.182 19.1244C109.122 19.1119 109.057 19.0881 109.009 19.0906C108.91 19.0969 108.815 19.1282 108.745 19.1708C108.676 19.2159 108.568 19.2284 108.408 19.2372C108.244 19.246 108.135 19.2422 108.01 19.2121C107.85 19.1746 107.703 19.1382 107.443 19.1508C104.16 19.3111 100.877 19.4652 97.5937 19.6244C97.3299 19.6369 97.2087 19.5843 97.027 19.5555C96.9665 19.5467 96.906 19.5341 96.8411 19.5316C96.7719 19.5291 96.6983 19.5367 96.6291 19.5404C91.2739 19.7948 85.9188 20.0504 80.5637 20.3047C80.2436 20.3198 80.2479 20.3198 79.8975 20.435C79.8542 20.4488 79.798 20.4676 79.7374 20.4701C78.098 20.5503 76.4543 20.628 74.8105 20.7057C74.0968 20.7395 73.3831 20.7746 72.6693 20.8072C72.4141 20.8184 72.4141 20.8184 71.8042 20.9538C71.7523 20.965 71.6917 20.9801 71.6311 20.9826C68.7762 21.1191 65.9212 21.2557 63.062 21.3898C62.837 21.3998 62.6554 21.4224 62.5516 21.4825C62.478 21.5251 62.3829 21.5502 62.2401 21.5577C60.2417 21.6529 58.2433 21.7494 56.2405 21.8421C56.0026 21.8534 55.8598 21.8885 55.743 21.9411C55.704 21.9586 55.6694 21.9787 55.6132 21.9912C55.5613 22.0025 55.4834 22.0062 55.4186 22.01C53.7056 22.0914 51.9927 22.1754 50.2754 22.2531C50.0202 22.2643 49.9163 22.3107 49.7909 22.3596C49.7476 22.3759 49.7173 22.3984 49.6611 22.4097C49.6048 22.4197 49.5227 22.4197 49.4535 22.4222C48.026 22.4899 46.5986 22.5588 45.1711 22.6264C44.8942 22.6202 44.8337 22.6928 44.6996 22.7367C44.652 22.7517 44.6174 22.7718 44.5612 22.7818C44.5007 22.7918 44.4227 22.7906 44.3492 22.7931C43.2072 22.847 42.0652 22.9046 40.9189 22.9547C40.6551 22.966 40.6031 23.0299 40.4604 23.0737C40.4128 23.0875 40.3653 23.1088 40.3091 23.1126C39.5953 23.1489 38.8816 23.1827 38.1679 23.2153C37.93 23.2266 37.93 23.2254 37.5104 23.3494C37.4628 23.3632 37.4065 23.3782 37.3459 23.382C36.2775 23.4346 35.2048 23.4847 34.132 23.5361C33.9936 23.5424 33.8984 23.5724 33.8292 23.615C33.76 23.6576 33.6605 23.6852 33.5221 23.6915C32.6656 23.7328 31.8091 23.7754 30.9526 23.813C30.7147 23.823 30.559 23.8543 30.4552 23.9107C30.3773 23.9533 30.2822 23.9746 30.1308 23.9821C29.2743 24.0222 28.4178 24.0661 27.557 24.1012C27.3061 24.1112 27.1763 24.1538 27.0725 24.2064C26.9903 24.249 26.8951 24.2641 26.7351 24.2716C25.1649 24.3442 23.5904 24.4169 22.0245 24.4971C21.7606 24.5109 21.6265 24.467 21.4535 24.4357C21.2069 24.3918 20.9777 24.3442 20.9777 24.2465C20.9777 24.2315 20.9042 24.2139 20.8522 24.2014C20.4673 24.1074 20.4673 24.1074 20.4067 24.0072C20.3721 23.9458 20.3332 23.8832 20.3029 23.8205C20.2466 23.7178 20.1082 23.6915 19.7102 23.7102C19.5675 23.7165 19.4247 23.7253 19.282 23.7303C19.07 23.7391 18.91 23.6977 18.8711 23.6225C18.8494 23.5812 18.8235 23.5398 18.8019 23.4985C19.0182 23.4885 19.0138 23.4872 19.3944 23.3356C19.5545 23.2717 19.5546 23.2717 19.2474 23.2078C19.1307 23.184 19.0182 23.1577 18.8927 23.1351C18.8365 23.1251 18.763 23.1188 18.7024 23.1214C18.3434 23.1364 17.9887 23.1539 17.634 23.1715C17.063 23.199 17.0629 23.199 16.4833 23.0712C16.4357 23.0612 16.3622 23.0424 16.3708 23.0324C16.4184 22.986 16.5352 22.966 16.6823 22.961C16.8985 22.9535 17.1105 22.9409 17.3224 22.9309C17.4652 22.9246 17.6079 22.9171 17.7507 22.9109C17.8848 22.8633 18.0233 22.8169 18.1487 22.768C18.3477 22.6928 18.3476 22.6903 18.0751 22.6377C17.9021 22.6026 17.7161 22.5713 17.5387 22.5387C17.3268 22.5487 17.1105 22.56 16.8985 22.5688C16.6303 22.5801 16.5222 22.5563 16.453 22.4748C16.3924 22.4034 16.466 22.342 16.6736 22.327C16.8856 22.3119 17.0846 22.3019 17.1928 22.238C17.2966 22.1766 17.4782 22.1528 17.7032 22.1478C17.8459 22.144 17.9886 22.1353 18.1314 22.1278C18.3174 22.1177 18.4169 22.0538 18.378 21.9824C18.3564 21.9361 18.3131 21.8972 18.1444 21.8872C17.396 21.8433 17.3873 21.8446 17.0153 21.7594C16.9807 21.7519 16.9548 21.7293 16.9678 21.7181C16.9894 21.6993 17.037 21.6717 17.0889 21.6679C17.5864 21.6404 18.0838 21.6153 18.5813 21.5965C18.7457 21.5903 18.8668 21.5815 18.923 21.5351C19.0009 21.4712 18.9663 21.4123 18.8149 21.3685C18.7673 21.3547 18.6894 21.3371 18.6375 21.3384C18.0665 21.361 17.4998 21.3898 16.9288 21.4123C16.8769 21.4148 16.7818 21.3935 16.7602 21.3773C16.7169 21.3472 16.7818 21.3071 16.9332 21.2933C17.1322 21.2745 17.3355 21.2732 17.4696 21.2106C17.6556 21.1216 17.8848 21.0402 18.0924 20.955C18.127 20.94 18.1833 20.9111 18.1704 20.9086C18.0622 20.8811 17.9368 20.8598 17.8243 20.8335C17.634 20.7896 17.6339 20.7282 17.6772 20.6693C17.7118 20.6217 17.8416 20.6029 18.0016 20.6029C18.0708 20.6029 18.1573 20.6029 18.2136 20.5916C18.3606 20.5641 18.4082 20.529 18.3347 20.5027C18.2914 20.4876 18.2136 20.4664 18.1617 20.4689C17.236 20.5102 16.3059 20.5503 15.3846 20.6017C15.112 20.6167 14.9867 20.5691 14.8223 20.5353C14.6969 20.5089 14.58 20.4989 14.4243 20.5177C14.2772 20.5353 14.1345 20.5252 14.0437 20.4839C13.9701 20.4501 14.0999 20.4212 14.4503 20.3887C14.5151 20.3824 14.5886 20.3786 14.6362 20.3661C15.138 20.2308 15.138 20.2295 15.484 20.212C15.8214 20.1957 15.8215 20.1945 15.9989 20.1218C16.0811 20.088 16.1718 20.0541 16.2497 20.019C16.28 20.0053 16.3319 19.9802 16.3146 19.9727C16.2195 19.9338 16.0897 19.9251 15.9383 19.9338C15.6009 19.9551 15.2029 19.9376 15.0256 20.0566C14.9564 20.1017 14.8482 20.1143 14.6925 20.1218C13.1266 20.1945 11.5607 20.2721 9.99047 20.3423C9.73526 20.3536 9.61853 20.3999 9.51904 20.4513C9.43253 20.4939 9.33734 20.5064 9.17297 20.514C9.00859 20.5215 8.87876 20.5252 8.7836 20.4839C8.72736 20.4588 8.77496 20.4238 8.90473 20.3887C9.09073 20.3386 9.05611 20.2759 8.99555 20.217C8.95229 20.1782 8.8182 20.1506 8.67545 20.1531C8.4635 20.1581 8.26025 20.1719 8.08289 20.1218C7.97908 20.093 7.84928 20.0729 7.73249 20.0479C7.50756 19.9965 7.28261 19.9439 6.96684 19.9777C6.75056 19.9652 6.59916 19.9201 6.42613 19.885C6.13631 19.8273 6.11036 19.8186 6.31799 19.7572C6.55158 19.6883 6.36986 19.598 6.49963 19.5304C6.63806 19.4577 6.82845 19.3938 6.99715 19.3262C7.04041 19.3086 7.07935 19.2923 7.12261 19.2748C7.02312 19.2497 6.9323 19.2184 6.8155 19.2009C6.66411 19.1783 6.58624 19.1508 6.59489 19.0731C6.56461 19.0618 6.5775 19.0906 6.61211 19.0981C6.65104 19.1056 6.74627 19.0994 6.79386 19.0906C6.91497 19.0668 6.97547 19.0355 6.94519 19.0092C6.92789 18.9954 6.84576 18.9778 6.79386 18.9778C6.69869 18.9778 6.61652 19.0054 6.59056 19.0731C6.10609 19.1244 5.60423 19.1495 5.10246 19.1695C5.05055 19.1721 4.9857 19.147 4.92514 19.1345C4.72616 19.0919 4.72614 19.0931 4.14217 19.0806C4.08161 19.0793 3.99947 19.0618 3.96919 19.0443C3.84374 18.9678 3.8481 18.8839 3.78754 18.8024C3.90001 18.7498 4.01239 18.6984 4.12918 18.6471C4.36277 18.5431 4.66563 18.4516 4.84731 18.3376C4.80838 18.2762 4.75646 18.2148 4.94679 18.1647C5.4875 18.102 5.48321 18.102 5.63028 18.0419C6.04987 17.8715 6.46511 17.6998 6.902 17.5319C7.01879 17.4881 7.01881 17.4643 6.81117 17.4455C6.74629 17.4405 6.67699 17.4392 6.60778 17.4417C6.39149 17.4505 6.17521 17.473 5.96326 17.468C5.7513 17.4643 5.59558 17.4091 5.42255 17.3753C5.2452 17.3402 5.06785 17.3039 4.8905 17.2676C4.6872 17.2713 4.48393 17.3064 4.28062 17.25C4.1249 17.2062 3.93026 17.1748 3.7529 17.1385C3.887 17.0433 4.13793 16.9706 4.33258 16.8867C4.50993 16.8102 4.51416 16.8115 4.98998 16.7526C5.21492 16.725 5.29278 16.5834 5.10246 16.5421C4.8732 16.492 4.63101 16.4456 4.39742 16.398C4.19412 16.4018 3.98653 16.4356 3.79187 16.3792C3.64048 16.3366 3.46741 16.3078 3.21653 16.3241C2.79261 16.3516 2.36006 16.3654 1.93182 16.388C1.78475 16.3955 1.62465 16.3905 1.55977 16.3479C1.51651 16.3178 1.64196 16.2765 1.78471 16.2677C2.00099 16.2552 2.19562 16.2401 2.30377 16.1775C2.40758 16.1148 2.59789 16.096 2.82282 16.0873C2.88338 16.0848 2.95264 16.0697 2.98292 16.0547C3.13865 15.982 3.31169 15.9194 3.64476 15.9219C3.78318 15.8968 3.85667 15.8655 3.81342 15.8354C3.78746 15.8191 3.69667 15.7979 3.64476 15.8004C3.28573 15.8129 2.92672 15.8254 2.57634 15.848C2.41196 15.858 2.28645 15.8605 2.18263 15.8229C2.1091 15.7978 2.14803 15.764 2.28645 15.7277C2.40756 15.6964 2.44221 15.66 2.43356 15.6174C2.41193 15.5184 2.28213 15.4896 1.86687 15.4959C1.5684 15.5009 1.49486 15.4846 1.42997 15.3994C1.41267 15.3794 1.36949 15.3518 1.39977 15.338C1.58577 15.2528 1.7069 15.1476 2.05728 15.1075C2.1957 15.0924 2.34271 15.0924 2.42923 15.0599C2.51574 15.0273 2.59364 14.9897 2.68448 14.9584C2.79695 14.9208 2.87473 14.8857 2.82282 14.8619C2.73631 14.8193 2.59794 14.8155 2.43789 14.8306C2.29947 14.8431 2.1524 14.8443 2.00965 14.8519C1.75444 14.8656 1.54685 14.8331 1.51657 14.7779C1.43438 14.6326 1.34785 14.4885 1.27431 14.3432C1.26566 14.3256 1.28723 14.3031 1.32183 14.288C1.44295 14.2354 1.57277 14.1853 1.69822 14.1339C1.84529 14.075 2.07891 14.0863 2.27789 14.075C2.55906 14.0588 2.55896 14.06 2.9353 13.9397C3.08237 13.8921 3.33759 13.9109 3.48899 13.8683C3.53657 13.8545 3.61011 13.832 3.59713 13.8194C3.57983 13.8031 3.49336 13.7906 3.42848 13.7831C3.36792 13.7756 3.2944 13.7718 3.22952 13.7756C2.44225 13.8119 1.65932 13.8508 0.872053 13.8858C0.737958 13.8921 0.590881 13.8645 0.543299 13.8257C0.495717 13.7894 0.508651 13.7455 0.5 13.7042C0.625444 13.6528 0.768136 13.6052 0.876277 13.55C0.958465 13.5074 1.05365 13.4886 1.21802 13.4861C1.4343 13.4824 1.64628 13.4673 1.88852 13.4561C2.33839 13.2731 2.77958 13.0814 3.26405 12.8985C3.4587 12.8246 3.4112 12.7494 3.45013 12.6705C3.48906 12.5978 3.77886 12.6091 3.97352 12.5878C4.12924 12.5702 4.18108 12.5301 4.12052 12.5026C4.08592 12.4863 4.0081 12.4675 3.94754 12.4675C3.80479 12.4675 3.66205 12.4788 3.5193 12.485C3.37655 12.4913 3.21219 12.4875 3.0954 12.5088C2.98293 12.5289 2.90935 12.5715 2.83581 12.6078C2.75363 12.6479 2.64556 12.6617 2.48119 12.6642C2.26923 12.6667 2.05728 12.678 1.84533 12.6868C1.61174 12.6379 1.36945 12.5903 1.14452 12.5389C1.10126 12.5289 1.09256 12.5001 1.09689 12.4813C1.10554 12.4324 1.04067 12.4023 0.897927 12.3785C0.776808 12.3585 0.67731 12.3297 0.564843 12.3046C0.651356 12.2708 0.746554 12.2382 0.815765 12.2019C0.967163 12.1254 1.15751 12.0703 1.48626 12.0728C1.61603 12.024 1.71982 11.9638 1.88852 11.93C2.04857 11.8974 2.3211 11.93 2.44222 11.856C2.50278 11.8197 2.59367 11.7784 2.71046 11.7633C2.89646 11.7395 3.13869 11.7521 3.24684 11.6819C3.31172 11.6418 3.40685 11.6055 3.53229 11.5954C3.67504 11.5842 3.82207 11.5817 3.92589 11.5579C3.98212 11.5453 4.04269 11.5253 4.04269 11.5077C4.04269 11.4965 3.95624 11.4789 3.89568 11.4714C3.83945 11.4626 3.76583 11.4564 3.70095 11.4589C3.48466 11.4664 3.27271 11.4802 3.05643 11.4877C2.99587 11.4902 2.92668 11.4814 2.86179 11.4739C2.67146 11.4539 2.68442 11.4288 2.83581 11.3837C2.98721 11.3398 3.09541 11.2835 3.22086 11.2321C3.35928 11.2233 3.53228 11.2271 3.62744 11.2033C3.78749 11.1644 3.89993 11.108 4.0297 11.0592C4.17245 11.0517 4.31951 11.0492 4.45361 11.0354C4.50984 11.0304 4.53581 11.0028 4.5834 10.9865C4.66991 10.9552 4.74351 10.9101 4.8603 10.895C5.05063 10.8725 5.28421 10.8813 5.39668 10.8123C5.46156 10.7723 5.56101 10.7297 5.68213 10.7272C6.01953 10.7221 6.16228 10.6532 6.33531 10.5881C6.46508 10.5392 6.74193 10.5643 6.88468 10.5154C6.97984 10.4841 7.04909 10.4452 7.14426 10.4152C7.18319 10.4026 7.26535 10.3964 7.33023 10.3926C7.68494 10.3738 8.04395 10.36 8.39866 10.34C8.45489 10.3362 8.50684 10.3174 8.5501 10.3024C8.64094 10.2698 8.69711 10.2247 8.80957 10.2034C8.92204 10.1821 9.08207 10.1821 9.22049 10.1758C9.66603 10.1571 9.70067 10.1621 9.90398 10.0556C10.0684 9.9691 10.4707 10.0305 10.6048 9.93528C10.6826 9.88015 10.8253 9.83504 11.0805 9.82878C11.4396 9.82001 11.7943 9.7962 12.1533 9.77991C12.4734 9.76488 12.4691 9.76487 12.8151 9.64835C12.9709 9.59572 13.2002 9.60325 13.4035 9.59322C13.6198 9.5832 13.8187 9.56817 13.9225 9.50552C14.0263 9.44413 14.2167 9.42407 14.4373 9.4153C14.6406 9.40653 14.8699 9.4128 15.0299 9.36269C15.4192 9.2424 15.4149 9.24114 15.6874 9.22861C16.1157 9.20856 16.5439 9.18852 16.9721 9.16722C17.2576 9.15343 17.5561 9.15093 17.8243 9.12337C18.0189 9.10332 18.1054 9.03316 18.2309 8.98429C18.5856 8.9655 18.9403 8.94669 19.295 8.92915C19.7924 8.90409 20.2942 8.88155 20.796 8.85774C21.0122 8.81013 21.0426 8.70488 21.4059 8.69987C21.6222 8.69736 21.8342 8.68108 22.0505 8.67105C22.4095 8.65351 22.7642 8.63096 23.1232 8.62219C23.3957 8.61592 23.4432 8.54825 23.586 8.50565C23.6336 8.49062 23.6769 8.46933 23.7331 8.46557C24.2954 8.43048 24.875 8.42297 25.4244 8.3716C25.4806 8.36658 25.5325 8.34027 25.5455 8.32147C25.5542 8.31145 25.4806 8.29267 25.4331 8.2839C25.3768 8.27387 25.3033 8.26385 25.2428 8.26635C23.4563 8.3503 21.6698 8.4355 19.8833 8.51945C19.6324 8.53198 19.6324 8.53072 19.0225 8.66854C18.9706 8.67982 18.91 8.69235 18.8451 8.69611C18.5596 8.71114 18.2698 8.71992 17.9886 8.73872C17.7594 8.75375 17.5691 8.7387 17.4047 8.6936C17.2879 8.66102 17.1667 8.651 17.0197 8.65351C16.8553 8.65727 16.7472 8.67105 16.6521 8.70488C16.5266 8.75124 16.4617 8.81138 16.1978 8.82391C14.9823 8.87779 13.7667 8.93793 12.5556 8.99556C12.3869 8.97802 12.3047 8.95171 12.3479 8.92039C12.3739 8.90159 12.4258 8.87654 12.4777 8.87403C12.9752 8.84772 13.4769 8.82517 13.9744 8.80011C14.0436 8.79635 14.1387 8.79884 14.1777 8.78631C14.368 8.72993 14.4373 8.63847 14.7963 8.6322C15.004 8.62844 15.2159 8.60966 15.4149 8.59212C15.4711 8.5871 15.523 8.56079 15.536 8.542C15.5403 8.53197 15.4711 8.51317 15.4192 8.5044C15.2289 8.46806 15.0083 8.51193 14.818 8.48687C14.7531 8.4781 14.6622 8.46557 14.6492 8.45053C14.6406 8.43675 14.7141 8.41419 14.766 8.40041C14.8136 8.38788 14.8784 8.37661 14.9433 8.37285C15.5143 8.34403 16.0854 8.31396 16.6564 8.2914C16.89 8.28263 17.0543 8.25131 17.1581 8.19367C17.236 8.15107 17.3311 8.12852 17.4782 8.12226C18.4774 8.0759 19.4766 8.02453 20.4802 7.98193C20.7311 7.97191 20.8609 7.93056 20.9647 7.87669C21.0469 7.83408 21.1421 7.81905 21.3021 7.81153C22.7339 7.74638 24.157 7.67371 25.5888 7.61106C25.8527 7.59978 25.9306 7.5459 26.0647 7.49955C26.1123 7.48326 26.1425 7.46321 26.203 7.45319C26.2636 7.44316 26.3414 7.4444 26.415 7.4419C27.557 7.38802 28.699 7.3304 29.8453 7.28028C30.1135 7.269 30.1653 7.20635 30.3038 7.16249C30.3513 7.14871 30.3946 7.12616 30.4509 7.12241C31.3073 7.0798 32.1638 7.03971 33.0203 6.99836C33.5913 6.9708 34.1622 6.94323 34.7332 6.91692C35.0144 6.90439 35.0144 6.90313 35.3951 6.7841C35.4383 6.77032 35.4989 6.75403 35.5552 6.75027C37.1989 6.67008 38.8383 6.59366 40.482 6.51473C40.6205 6.50846 40.7199 6.47963 40.7891 6.43703C40.8584 6.39443 40.9579 6.36561 41.092 6.35935C42.3767 6.2967 43.6614 6.23531 44.9505 6.17642C45.1841 6.1664 45.3484 6.13632 45.4522 6.07994C45.5301 6.03734 45.6252 6.01479 45.7723 6.00853C47.057 5.94839 48.3418 5.88448 49.6309 5.82684C49.8774 5.81556 49.9985 5.77297 50.1196 5.72285C50.1629 5.70531 50.1975 5.67649 50.2494 5.67398C50.8896 5.6389 51.5255 5.60256 52.17 5.57876C52.4382 5.56874 52.529 5.51611 52.6372 5.46599C52.7237 5.4259 52.8232 5.41212 52.9876 5.4071C53.3466 5.39583 53.7013 5.37454 54.0517 5.35324C54.1036 5.34948 54.1685 5.32191 54.1728 5.30437C54.1815 5.27179 54.0819 5.24924 53.9176 5.23796C52.2046 5.3194 50.4874 5.40084 48.7744 5.48228C48.4932 5.49606 48.4932 5.49607 48.1126 5.6151C48.0693 5.62888 48.0087 5.64517 47.9481 5.64893C46.3044 5.72787 44.665 5.80555 43.0213 5.88449C42.8828 5.89075 42.7834 5.91957 42.7141 5.96217C42.6449 6.00477 42.5454 6.03359 42.4113 6.03985C40.8411 6.11503 39.2709 6.19146 37.6963 6.26288C37.4628 6.2729 37.2984 6.30171 37.1946 6.35935C37.1167 6.40195 37.0216 6.42451 36.8745 6.43077C35.3735 6.50094 33.8768 6.57485 32.3714 6.64251C32.22 6.64878 32.1076 6.61244 32.1163 6.57861C32.1206 6.56107 32.1854 6.53227 32.2373 6.52976C33.0203 6.48841 33.7989 6.44581 34.5862 6.41448C34.8501 6.40446 34.9279 6.34933 35.062 6.30297C35.1052 6.28668 35.1399 6.26538 35.1961 6.25661C35.2567 6.24659 35.3345 6.24784 35.4081 6.24534C37.2638 6.15638 39.1195 6.06617 40.9796 5.98222C41.2477 5.96969 41.2996 5.90829 41.438 5.86444C41.4856 5.8494 41.5289 5.82685 41.5851 5.82435C42.1561 5.79428 42.7271 5.76796 43.298 5.74165C44.2973 5.69404 45.2965 5.64642 46.3 5.59881C46.5898 5.58503 46.5899 5.58502 46.9619 5.46724C47.0051 5.45346 47.0657 5.43593 47.122 5.43343C49.7649 5.30688 52.408 5.18033 55.0509 5.05503C55.1894 5.04877 55.2888 5.01995 55.358 4.97735C55.4272 4.936 55.5267 4.90593 55.6608 4.89841C59.2338 4.72801 62.8025 4.5576 66.3755 4.38971C66.6091 4.37843 66.7734 4.35212 66.8772 4.29323C66.9508 4.25063 67.0502 4.22808 67.1973 4.22056C71.125 4.03387 75.0527 3.84718 78.9847 3.65924C81.6277 3.53395 84.2707 3.40615 86.9137 3.28336C87.1559 3.27208 87.2857 3.23323 87.4068 3.18186C87.4457 3.16432 87.4847 3.1355 87.5366 3.13299C88.1032 3.10167 88.6699 3.07286 89.2365 3.04404C89.4139 3.07787 89.5912 3.11045 89.7686 3.14428C89.9027 3.09667 90.0325 3.0478 90.1666 3.00019C91.0231 2.96385 91.8666 2.90747 92.7317 2.88993C92.7879 2.88867 92.8484 2.91248 92.909 2.92501C93.3113 3.00395 93.5406 2.99768 93.7958 2.89244C93.8866 2.85485 93.9645 2.82102 94.1029 2.81475C94.5311 2.7922 94.9638 2.77716 95.3877 2.75085C95.617 2.73707 95.8072 2.74959 95.9716 2.7947C96.0884 2.82728 96.2096 2.84107 96.3523 2.83355C97.1396 2.79596 97.9225 2.75962 98.7098 2.71953C98.766 2.71702 98.8179 2.69571 98.8611 2.68068C98.952 2.6481 99.0299 2.61303 99.1164 2.5792C99.2332 2.6005 99.363 2.61679 99.4581 2.64435C99.5792 2.67693 99.6917 2.67692 99.856 2.66815C102.996 2.51654 106.141 2.3687 109.282 2.21584C109.55 2.20331 109.667 2.25594 109.848 2.2835C109.909 2.29353 109.969 2.30605 110.034 2.30855C110.104 2.31106 110.177 2.30355 110.246 2.29979C112.604 2.18703 114.961 2.0755 117.319 1.96274C117.63 1.9477 117.63 1.9477 118.093 2.02539C118.149 2.03541 118.223 2.04669 118.283 2.04293C119.356 1.99406 120.429 1.94145 121.497 1.89133C121.636 1.88506 121.753 1.90511 121.878 1.93392C122.125 1.99031 122.142 1.99031 122.323 1.90762C122.41 1.86877 122.501 1.84496 122.644 1.83368C122.799 1.82115 122.925 1.82492 123.046 1.84748C123.219 1.8788 123.344 1.93142 123.608 1.91763C124.75 1.85875 125.897 1.80988 127.034 1.74974C127.294 1.73596 127.432 1.77856 127.605 1.80988C127.666 1.82116 127.722 1.8387 127.787 1.84246C127.852 1.84622 127.93 1.83744 127.999 1.83368C129.426 1.76602 130.858 1.69963 132.281 1.62696C132.549 1.61317 132.666 1.66704 132.848 1.6946C132.908 1.70463 132.978 1.72218 133.034 1.71967C133.89 1.68083 134.751 1.63947 135.608 1.59813C135.915 1.58309 135.915 1.58434 136.382 1.66077C136.438 1.6708 136.512 1.68082 136.572 1.67832C137.572 1.63196 138.575 1.58434 139.574 1.53673C139.881 1.5217 139.881 1.5217 140.768 1.58685C140.833 1.59186 140.902 1.59939 140.967 1.59689C142.109 1.54301 143.255 1.49038 144.397 1.43274C144.627 1.42147 144.817 1.43149 144.981 1.47659C145.098 1.50917 145.219 1.52296 145.362 1.51544C146.647 1.45405 147.936 1.39516 149.216 1.33001C149.463 1.31748 149.623 1.34503 149.796 1.38137C149.852 1.3939 149.908 1.41144 149.973 1.41645C150.038 1.42146 150.112 1.41645 150.181 1.41269C151.466 1.3513 152.755 1.29366 154.035 1.22726C154.294 1.21347 154.433 1.25607 154.606 1.2874C154.667 1.29867 154.731 1.32123 154.783 1.31997C155.285 1.29867 155.787 1.27989 156.284 1.24856C156.552 1.23102 156.669 1.28865 156.851 1.31621C156.911 1.32498 156.981 1.34378 157.037 1.34128C158.11 1.29241 159.183 1.24105 160.251 1.18842C160.402 1.1809 160.515 1.19217 160.636 1.22475C160.796 1.2686 160.982 1.28614 161.216 1.27236C161.713 1.24354 162.215 1.2235 162.717 1.19969C163.011 1.18591 163.011 1.18592 163.91 1.25107C163.975 1.25608 164.045 1.26359 164.109 1.26109C164.966 1.22099 165.827 1.18215 166.679 1.1383C166.908 1.12577 167.098 1.13705 167.263 1.18215C167.38 1.21473 167.496 1.22852 167.643 1.221C168.431 1.18341 169.214 1.14582 170.001 1.10823C170.286 1.09445 170.572 1.07064 170.857 1.07064C171.065 1.07189 171.217 1.13203 171.403 1.1621C171.454 1.17087 171.541 1.16086 171.61 1.15835C172.609 1.11074 173.613 1.06688 174.608 1.01301C174.867 0.999223 175.006 1.04182 175.179 1.07315C175.239 1.08442 175.304 1.10698 175.356 1.10572C175.715 1.09194 176.07 1.07314 176.429 1.05686C176.857 1.03681 177.29 1.02177 177.714 0.994209C178.06 0.971655 178.189 1.08066 178.466 1.08442C178.678 1.08818 178.894 1.06688 179.106 1.05686C179.535 1.03681 179.963 1.01426 180.391 0.996717C180.543 0.990452 180.659 0.970396 180.707 0.92529C180.716 0.916519 180.642 0.897733 180.595 0.886456C180.019 0.758655 180.019 0.758649 179.44 0.786214C179.08 0.803755 178.726 0.8213 178.367 0.836335C178.306 0.838841 178.237 0.828818 178.176 0.8213C178.003 0.8 178.021 0.774944 178.168 0.729837C178.315 0.684731 178.427 0.629606 178.553 0.578235C178.73 0.610812 178.903 0.643377 179.081 0.675954C179.223 0.669689 179.366 0.662182 179.509 0.655917C180.223 0.623341 180.936 0.589508 181.65 0.559438C181.702 0.556932 181.767 0.581994 181.827 0.594524C182 0.63086 182.156 0.662175 182.407 0.648392C183.047 0.612057 183.692 0.585745 184.332 0.554421C184.613 0.540638 184.613 0.54064 185.106 0.618323C185.162 0.627093 185.236 0.637118 185.296 0.634612C185.941 0.605794 186.581 0.574474 187.226 0.544403C187.364 0.538138 187.498 0.554426 187.598 0.590761C187.637 0.605797 187.628 0.630851 187.792 0.836335C188.303 1.00298 188.653 0.985445 189.008 0.97041C189.159 0.964145 189.293 0.957874 189.393 0.932815C189.445 0.919033 189.51 0.898982 189.51 0.882694C189.51 0.870164 189.415 0.850114 189.354 0.847608C188.926 0.822549 188.519 0.87518 188.099 0.886456C187.905 0.891468 187.736 0.847614 187.702 0.776196C187.693 0.756149 187.68 0.73485 187.667 0.714803C187.654 0.694755 187.645 0.673456 187.632 0.653409C187.464 0.647144 187.364 0.669694 187.291 0.712294C187.23 0.747377 187.144 0.787471 187.027 0.806266C186.91 0.826313 186.75 0.822561 186.607 0.828826C186.469 0.83509 186.317 0.851377 186.188 0.842606C186.058 0.832583 185.954 0.796241 185.833 0.773688C185.777 0.762411 185.707 0.746129 185.651 0.748635C185.154 0.769935 184.661 0.791227 184.168 0.818792C183.908 0.833828 183.778 0.781211 183.614 0.748635C183.484 0.723576 183.354 0.729832 183.333 0.787468C183.276 0.925293 183.475 0.982926 183.917 0.956614C184.28 0.934061 184.609 0.930313 184.894 1.01551C184.933 1.02679 185.024 1.0318 185.08 1.02929C185.435 1.01426 185.785 0.995463 186.14 0.980428C186.205 0.977922 186.274 0.982926 186.335 0.987938C187.217 1.0556 187.217 1.05686 187.516 1.04182C187.658 1.0343 187.797 1.02804 187.784 0.837589C188.056 0.633358 188.489 0.619578 188.908 0.589507C189.181 0.570713 189.298 0.625845 189.475 0.654663C189.536 0.664687 189.601 0.68473 189.657 0.682225C190.587 0.640877 191.512 0.597018 192.438 0.550658C192.594 0.543141 192.706 0.55066 192.827 0.583236C192.983 0.624584 193.156 0.650901 193.403 0.635866C193.896 0.605795 194.398 0.587005 194.899 0.561946C195.155 0.549416 195.155 0.549404 195.669 0.627087C195.726 0.635857 195.799 0.645882 195.86 0.643376C196.361 0.622075 196.859 0.595771 197.356 0.573218C197.495 0.566954 197.62 0.584493 197.728 0.618323C197.837 0.652152 197.966 0.669692 198.1 0.663427C198.602 0.640874 199.1 0.615823 199.597 0.59327C199.658 0.590764 199.731 0.599534 199.787 0.608305C200.315 0.685988 200.315 0.685975 200.557 0.673445C200.912 0.654651 201.275 0.64589 201.626 0.620831C201.968 0.595772 202.145 0.668437 202.378 0.708532C203.019 0.679714 203.663 0.655914 204.299 0.620831C204.559 0.605796 204.697 0.647139 204.87 0.679716C204.931 0.690993 204.991 0.714801 205.047 0.713548C205.264 0.708537 205.476 0.694757 205.688 0.684733C205.9 0.674709 206.116 0.664687 206.328 0.654663C206.57 0.690999 206.73 0.776198 207.076 0.747381C207.284 0.729839 207.504 0.72608 207.716 0.716057C207.928 0.706033 208.145 0.696011 208.357 0.685987C208.499 0.679722 208.646 0.675958 208.785 0.664681C209.04 0.645887 209.165 0.707289 209.347 0.734854C209.408 0.743625 209.477 0.75865 209.533 0.756144C209.961 0.738603 210.394 0.723569 210.814 0.694751C211.138 0.672198 211.359 0.709791 211.588 0.762415C211.635 0.773692 211.718 0.779956 211.778 0.77745C212.28 0.75615 212.777 0.729831 213.275 0.707277C213.409 0.701013 213.539 0.721059 213.647 0.753636C213.759 0.787466 213.885 0.803766 214.023 0.797502C214.521 0.774949 215.022 0.749882 215.52 0.727329C215.58 0.724823 215.654 0.734849 215.71 0.744872C216.195 0.822555 216.195 0.823809 216.48 0.808774C216.549 0.805015 216.623 0.802499 216.692 0.798741C217.047 0.781199 217.415 0.774943 217.761 0.744872C218.159 0.711042 218.448 0.753645 218.73 0.825063C219.084 0.810028 219.448 0.801255 219.794 0.776196C220.053 0.757402 220.192 0.805011 220.365 0.836335C220.425 0.847612 220.49 0.870165 220.542 0.867659C221.044 0.846359 221.545 0.827571 222.039 0.796248C222.307 0.778706 222.424 0.835079 222.605 0.863897C222.666 0.87392 222.731 0.891471 222.787 0.888965C223.072 0.878941 223.358 0.863898 223.644 0.850116C223.977 0.833828 223.976 0.835079 224.418 0.911509C224.625 0.947845 224.833 0.919026 225.036 0.910255C225.253 0.900232 225.456 0.892716 225.629 0.944087C225.737 0.976664 225.867 0.996712 226.001 0.9917C226.286 0.980424 226.576 0.969153 226.857 0.950358C227.082 0.935323 227.277 0.945341 227.441 0.9917C227.558 1.02428 227.679 1.04058 227.822 1.03306C228.462 1.00299 229.107 0.971651 229.747 0.942833C229.803 0.940327 229.881 0.951608 229.933 0.962885C230.054 0.985438 230.171 1.01049 230.288 1.03555C230.569 1.02427 230.859 1.01927 231.135 1.00173C231.43 0.984192 231.698 0.977926 231.927 1.04684C231.975 1.06187 232.044 1.08316 232.1 1.08191C232.316 1.0769 232.528 1.06437 232.74 1.05435C232.952 1.04432 233.169 1.0343 233.38 1.02428C233.627 1.0556 233.783 1.14581 234.129 1.117C234.337 1.09945 234.557 1.0957 234.769 1.08567C234.981 1.07565 235.197 1.06437 235.409 1.0556C235.478 1.0531 235.556 1.04683 235.617 1.05184C235.682 1.05685 235.738 1.0744 235.794 1.08693C235.967 1.12326 236.127 1.1596 236.374 1.1383C236.582 1.12076 236.802 1.117 237.014 1.10572C237.304 1.09194 237.304 1.09194 237.784 1.17088C237.979 1.20346 238.199 1.16086 238.385 1.18842C238.511 1.20722 238.619 1.23853 238.74 1.25983C238.792 1.2686 238.874 1.27236 238.935 1.26985C239.22 1.25858 239.51 1.2473 239.791 1.22851C240.02 1.21347 240.211 1.22851 240.371 1.27361C240.488 1.30619 240.604 1.31998 240.751 1.31246C241.465 1.27738 242.179 1.2473 242.888 1.20846C243.131 1.19468 243.325 1.21598 243.459 1.26109C243.689 1.33877 244.013 1.24731 244.251 1.30996C244.398 1.3488 244.545 1.39391 244.813 1.37511C245.306 1.34253 245.808 1.32498 246.306 1.30243C246.483 1.33626 246.66 1.3701 246.842 1.40393C247.127 1.39014 247.413 1.37635 247.698 1.36382C247.91 1.3538 248.127 1.34252 248.339 1.33375C248.408 1.33125 248.481 1.32623 248.546 1.3325C248.611 1.33876 248.663 1.35506 248.724 1.36759C249.022 1.42898 249.022 1.43024 249.515 1.40518C249.727 1.3939 249.931 1.38639 250.108 1.4365C250.272 1.48286 250.467 1.49163 250.692 1.47785C251.116 1.45279 251.544 1.43399 251.977 1.41645C252.111 1.41019 252.236 1.43149 252.349 1.46407C252.517 1.51544 252.725 1.51043 252.937 1.49664C253.218 1.4791 253.495 1.46156 253.733 1.53173C253.78 1.54677 253.854 1.56805 253.906 1.5668C254.26 1.55678 254.62 1.54927 254.966 1.52546C255.312 1.50165 255.48 1.57933 255.718 1.61692C256.073 1.60063 256.432 1.58434 256.787 1.56806C256.856 1.5643 256.938 1.55303 256.999 1.55929C257.254 1.5856 257.401 1.67957 257.751 1.65075C257.955 1.63447 258.175 1.62946 258.387 1.6257C258.443 1.62445 258.517 1.64574 258.556 1.66203C258.578 1.6708 258.556 1.6946 258.53 1.70713C258.452 1.74221 258.357 1.7748 258.288 1.81114C258.279 1.81615 258.361 1.83869 258.409 1.84872C258.526 1.87127 258.66 1.86752 258.815 1.85749C258.949 1.84872 259.088 1.86626 259.183 1.90385C259.222 1.91889 259.209 1.94395 259.127 2.02664C259.127 2.08804 259.218 2.06046 259.248 2.02037C259.296 1.96273 259.205 1.94394 259.032 1.97527C258.911 1.99782 258.85 2.0304 258.88 2.05671C258.898 2.07049 258.98 2.08804 259.127 2.02664C259.507 1.95146 259.793 1.93769 260.079 1.92391C260.152 1.92015 260.239 1.90761 260.29 1.91513C260.476 1.9452 260.65 1.98154 260.831 2.01537C261.039 2.00785 261.233 1.98905 261.437 2.03791C261.722 2.10683 261.735 2.10056 262.012 2.08678C262.155 2.07926 262.298 2.07301 262.44 2.06674C262.583 2.06048 262.695 2.07927 262.821 2.10809C263.076 2.16697 263.098 2.16697 263.266 2.08678C263.366 2.03791 263.435 2.02163 263.561 2.04418C263.976 2.12061 263.98 2.12562 264.335 2.10307C264.629 2.08427 264.906 2.07926 265.122 2.15068C265.269 2.2008 265.317 2.18953 265.434 2.1369C265.745 1.99782 265.888 2.00032 266.472 2.10056C266.744 2.14817 267.026 2.09681 267.302 2.09054C267.536 2.08553 267.7 2.1156 267.718 2.19453C267.731 2.2434 267.77 2.27849 267.925 2.29477C267.986 2.30104 268.059 2.30981 268.12 2.3073C268.479 2.29227 268.834 2.27472 269.193 2.25718C269.374 2.24841 269.474 2.18953 269.439 2.11185C269.4 2.02915 269.469 1.99907 269.729 1.97527C269.885 1.96148 270.01 1.964 270.136 1.98655C270.274 2.01161 270.235 2.03416 270.114 2.07927C269.824 2.18953 269.859 2.25718 270.231 2.33361C270.361 2.35992 270.464 2.38374 270.495 2.42258C270.512 2.44263 270.495 2.46894 270.534 2.48397C270.746 2.56792 271.04 2.6218 271.368 2.6619C271.684 2.62807 271.901 2.68444 272.143 2.72955C272.333 2.76463 272.558 2.73457 272.761 2.72204C272.991 2.70825 273.181 2.71827 273.345 2.76463C273.462 2.79721 273.583 2.81224 273.726 2.80597C274.011 2.79219 274.301 2.78342 274.582 2.76338C274.825 2.74584 275.006 2.7709 275.158 2.8135C275.348 2.86738 275.56 2.83103 275.759 2.83855C276.027 2.84732 276.161 2.95883 276.512 2.92876C276.719 2.91122 276.936 2.90496 277.152 2.89995C277.208 2.89869 277.277 2.92 277.325 2.93503C277.554 3.00394 277.822 3.00018 278.117 2.98014C278.32 2.96635 278.519 2.95383 278.718 3.00144C279.046 3.08163 279.41 3.1518 279.756 3.22572C279.804 3.28336 279.769 3.35101 280.015 3.38484C280.145 3.40238 280.266 3.4287 280.366 3.45752C280.487 3.49135 280.599 3.50012 280.755 3.49135C281.036 3.47381 281.331 3.47004 281.607 3.44748C281.863 3.42744 282.023 3.4688 282.178 3.50764C282.304 3.53896 282.421 3.55399 282.572 3.53144C282.728 3.51014 282.84 3.52392 282.966 3.55775C283.143 3.6041 283.156 3.5991 283.744 3.61288C283.805 3.61414 283.878 3.63292 283.913 3.64921C283.93 3.65798 283.891 3.68305 283.861 3.69558C283.822 3.71062 283.761 3.72815 283.705 3.73191C283.065 3.76448 282.421 3.7933 281.78 3.82588C281.715 3.82964 281.646 3.83842 281.599 3.85095C281.547 3.86473 281.482 3.88351 281.482 3.90105C281.482 3.91358 281.568 3.92862 281.629 3.93739C281.819 3.96621 282.044 3.92236 282.23 3.95494C282.356 3.97624 282.459 4.0063 282.585 4.02635C282.637 4.03512 282.719 4.03387 282.784 4.03136C283 4.02259 283.212 4.01007 283.428 4.00255C283.489 4.0013 283.558 4.01383 283.614 4.02386C284.03 4.09903 284.03 4.09903 284.389 4.08274C284.531 4.07648 284.683 4.05768 284.817 4.0652C284.947 4.07271 285.059 4.10654 285.176 4.12784C285.418 4.17295 285.647 4.2168 285.665 4.31453C285.673 4.35212 285.816 4.38469 285.959 4.3872C286.097 4.38971 286.244 4.37594 286.387 4.36842C286.725 4.35338 286.725 4.35338 287.161 4.42981C287.283 4.45111 287.412 4.45361 287.568 4.44108C287.629 4.43607 287.702 4.44109 287.767 4.44735C287.979 4.46615 287.979 4.48995 287.841 4.53505C287.646 4.60146 287.663 4.60773 288.208 4.66411C288.416 4.68541 288.576 4.72551 288.749 4.76059C289.03 4.81698 289.026 4.81696 288.84 4.89089C288.797 4.90718 288.758 4.92472 288.714 4.94226C288.589 4.99113 288.489 5.04375 288.23 5.04876C287.944 5.05377 287.659 5.07383 287.373 5.08761C287.097 5.10139 287.023 5.13145 287.049 5.21665C287.079 5.3194 287.135 5.33068 287.633 5.32942C287.776 5.32942 287.901 5.33944 288.009 5.37327C287.957 5.41337 287.862 5.44469 287.724 5.45221C287.369 5.471 287.01 5.4873 286.655 5.50358C286.37 5.51737 286.084 5.53114 285.799 5.54493C285.622 5.5537 285.509 5.61886 285.557 5.69153C285.583 5.73287 285.604 5.77422 285.626 5.81557C285.673 5.89826 285.764 5.91957 286.054 5.91581C286.128 5.91456 286.197 5.90453 286.266 5.90703C286.547 5.9158 286.681 6.01979 287.019 5.99849C287.3 5.98095 287.594 5.9772 287.871 5.95464C288.126 5.9346 288.269 5.97972 288.446 6.01355C288.507 6.02482 288.572 6.04861 288.624 6.04736C288.983 6.03358 289.342 6.01981 289.692 5.996C289.856 5.98598 289.956 5.99349 290.086 6.02356C290.397 6.09623 290.406 6.09247 290.869 6.06992C291.206 6.05238 291.21 6.05488 291.643 6.13132C291.764 6.15262 291.894 6.15261 292.049 6.14259C292.253 6.13006 292.465 6.11001 292.677 6.12881C292.742 6.13382 292.824 6.14886 292.845 6.16515C292.858 6.17642 292.798 6.20399 292.746 6.21276C292.365 6.27791 291.92 6.26664 291.504 6.29295C291.375 6.30047 291.245 6.27666 291.137 6.24283C291.024 6.209 290.903 6.19522 290.756 6.20149C290.471 6.21527 290.181 6.22404 289.9 6.24408C289.657 6.26163 289.489 6.2328 289.32 6.19396C289.264 6.18143 289.199 6.15762 289.143 6.15888C288.502 6.18394 287.858 6.209 287.222 6.24408C286.967 6.25912 286.82 6.21903 286.647 6.1852C286.586 6.17392 286.526 6.15011 286.469 6.15137C286.253 6.15638 286.041 6.17016 285.825 6.18018C285.038 6.21777 284.255 6.25536 283.467 6.29044C283.415 6.29295 283.351 6.26663 283.29 6.25536C283.173 6.2328 283.052 6.2115 282.931 6.1902C282.715 6.20022 282.503 6.21275 282.286 6.22027C282.131 6.22528 281.992 6.24283 281.971 6.29044C281.958 6.32177 282.1 6.35058 282.252 6.34807C282.399 6.34557 282.546 6.33053 282.667 6.34682C283.268 6.42701 283.268 6.42826 283.645 6.41198C283.973 6.39694 283.939 6.3844 284.229 6.45332C284.354 6.48339 284.467 6.50094 284.609 6.49342C284.964 6.47588 285.323 6.45833 285.682 6.4433C285.738 6.44079 285.812 6.45333 285.868 6.46335C286.292 6.53853 286.292 6.54103 286.642 6.52224C287.101 6.49968 287.118 6.49342 287.425 6.56985C287.637 6.62247 287.832 6.58614 288.035 6.58363C288.269 6.63249 288.524 6.67635 288.736 6.73148C288.987 6.79664 289.251 6.78535 289.536 6.76656C289.748 6.75277 289.956 6.74776 290.129 6.79913C290.293 6.84675 290.492 6.85177 290.717 6.83924C290.92 6.82796 291.128 6.80415 291.34 6.83171C291.396 6.83923 291.483 6.85803 291.478 6.86931C291.474 6.88685 291.418 6.91191 291.362 6.91943C290.964 6.9708 290.527 6.96954 290.107 6.99335C290.051 6.99711 289.977 6.98332 289.921 6.9733C289.8 6.95074 289.683 6.92444 289.566 6.90063C289.355 6.90815 289.138 6.91065 288.931 6.92568C288.771 6.93696 288.649 6.93572 288.533 6.90565C288.424 6.87808 288.308 6.84424 288.178 6.83547C288.048 6.8267 287.897 6.8455 287.754 6.85302C287.611 6.86054 287.447 6.85677 287.335 6.87682C287.222 6.89686 287.153 6.94072 287.079 6.9758C286.997 7.01465 286.885 7.02718 286.72 7.03094C286.569 7.0347 286.448 7.02968 286.335 6.9946C286.288 6.97957 286.223 6.96828 286.158 6.95826C286.097 6.94949 286.028 6.9357 285.972 6.93821C285.327 6.96703 284.687 6.99836 284.043 7.02843C283.723 7.04347 283.727 7.04346 283.061 6.96953C283 6.96327 282.927 6.9545 282.866 6.95701C282.507 6.97204 282.152 6.98959 281.793 7.00713C281.43 7.02467 281.434 7.02216 280.816 6.94323C280.703 6.92819 280.539 6.94824 280.405 6.94573C280.124 6.93947 279.985 6.83422 279.656 6.85427C279.375 6.87181 279.081 6.87557 278.8 6.89812C278.545 6.91817 278.398 6.87432 278.225 6.84049C278.164 6.82921 278.099 6.80415 278.047 6.80666C277.403 6.83422 276.763 6.86555 275.906 6.86931C275.694 6.86931 275.789 6.89562 275.928 6.90439C276.127 6.91818 276.192 6.89186 276.083 6.84174C276.006 6.80666 275.893 6.78911 275.802 6.79788C275.755 6.80289 275.694 6.82671 275.906 6.86931C276.131 6.91692 276.118 6.94323 276.157 6.95826C276.252 6.9946 276.386 7.00963 276.525 7.00462C276.741 6.99585 276.953 6.98332 277.169 6.9758C277.23 6.9733 277.303 6.98207 277.36 6.99209C277.835 7.06978 277.84 7.07479 278.346 7.04472C278.506 7.03595 278.623 7.03595 278.748 7.05976C278.921 7.09233 279.047 7.14746 279.31 7.12991C279.661 7.10611 280.02 7.09234 280.379 7.07855C280.435 7.07605 280.496 7.0986 280.56 7.10862C280.738 7.1387 280.868 7.19508 281.131 7.17127C281.335 7.15248 281.555 7.14745 281.772 7.1437C281.828 7.14244 281.914 7.16249 281.94 7.17878C281.992 7.2076 281.927 7.24144 281.78 7.26524C281.72 7.27527 281.638 7.27276 281.568 7.27652C281.283 7.2903 280.997 7.30533 280.712 7.3166C280.56 7.32287 280.418 7.34167 280.4 7.38803C280.387 7.41935 280.543 7.44691 280.69 7.44441C280.907 7.44065 281.123 7.43063 281.33 7.41434C281.698 7.38677 282.018 7.39429 282.317 7.47322C282.529 7.52835 282.516 7.50832 282.741 7.6712C282.797 7.71255 282.966 7.7163 283.113 7.7138C283.467 7.70753 283.632 7.72633 283.601 7.76517C283.562 7.81278 283.437 7.82781 283.277 7.83407C282.991 7.8441 282.706 7.86039 282.421 7.87418C282.351 7.87794 282.273 7.88545 282.209 7.88294C282.144 7.88043 282.083 7.8654 282.027 7.85413C281.906 7.83032 281.802 7.79398 281.672 7.78521C281.542 7.77644 281.391 7.79523 281.248 7.80275C281.106 7.80901 280.954 7.82781 280.824 7.81904C280.695 7.81027 280.586 7.77269 280.47 7.75014C280.413 7.73886 280.344 7.72131 280.288 7.72256C280.003 7.73258 279.717 7.74888 279.432 7.76141C279.081 7.7777 279.081 7.7777 278.657 7.70001C278.536 7.67746 278.411 7.67872 278.251 7.68874C277.905 7.70879 277.9 7.70502 277.269 7.63235C277.208 7.62483 277.135 7.61607 277.074 7.61982C276.429 7.64864 275.789 7.67996 275.149 7.71003C274.6 7.73634 274.6 7.73635 274.297 7.86165C274.072 7.95437 274.068 7.95436 274.288 7.99696C274.466 8.03205 274.626 8.08341 274.82 8.10221C275.002 8.11975 275.227 8.06337 275.426 8.12101C275.525 8.14982 275.655 8.18115 275.781 8.18616C275.98 8.19243 276.192 8.15608 276.382 8.21121C276.477 8.23878 276.62 8.26761 276.741 8.26886C276.953 8.27137 277.169 8.25131 277.381 8.24254C277.446 8.24003 277.52 8.24004 277.58 8.2463C277.645 8.25382 277.701 8.26886 277.757 8.28139C277.93 8.32399 278.117 8.34403 278.341 8.32273C278.709 8.28765 279.038 8.30519 279.323 8.38538C279.362 8.39665 279.457 8.39791 279.518 8.3929C279.674 8.38037 279.808 8.37911 279.925 8.40292C279.972 8.41294 280.041 8.43048 280.033 8.44175C280.02 8.46055 279.968 8.48561 279.912 8.49187C279.505 8.53447 279.068 8.53949 278.649 8.56205C278.592 8.56455 278.523 8.54825 278.467 8.53698C278.346 8.51443 278.242 8.47685 278.112 8.46808C277.982 8.4593 277.831 8.47559 277.688 8.48186C277.546 8.48812 277.394 8.50692 277.264 8.4994C277.135 8.49063 277.013 8.4593 276.91 8.43173C276.789 8.40041 276.672 8.39666 276.512 8.40919C276.304 8.42548 276.088 8.42798 275.876 8.43675C275.759 8.41295 275.642 8.38662 275.521 8.36407C275.465 8.35279 275.396 8.33902 275.335 8.34027C275.05 8.3503 274.764 8.36532 274.479 8.37911C274.193 8.39289 274.193 8.3929 273.709 8.31522C273.652 8.30645 273.579 8.29642 273.518 8.29893C273.159 8.31396 272.805 8.33275 272.446 8.34778C272.307 8.35405 272.182 8.33651 272.069 8.30268C271.961 8.26885 271.831 8.25005 271.697 8.25632C271.126 8.28263 270.555 8.30769 269.984 8.33902C269.755 8.35155 269.56 8.34027 269.405 8.29517C269.223 8.2438 269.02 8.25633 268.808 8.26635C268.328 8.29141 268.323 8.29015 268.016 8.22625C267.955 8.21372 267.895 8.18991 267.839 8.19116C267.341 8.20996 266.84 8.2275 266.346 8.25757C266.087 8.27386 265.948 8.23001 265.775 8.19743C265.715 8.18616 265.65 8.16235 265.598 8.16486C265.239 8.17864 264.88 8.19117 264.53 8.21623C264.179 8.24129 264.045 8.12477 263.781 8.12602C263.422 8.12727 263.067 8.15609 262.713 8.17363C262.427 8.18742 262.142 8.20119 261.856 8.21498C261.571 8.22876 261.285 8.24003 261 8.25632C260.848 8.26509 260.736 8.25381 260.611 8.22249C260.451 8.18114 260.26 8.14858 260.087 8.11099C259.823 8.05711 259.823 8.0571 259.503 8.07214C259.434 8.0759 259.36 8.0784 259.291 8.08216C258.768 8.10972 258.768 8.10722 258.102 8.02829C258.071 8.02453 257.993 8.03832 257.963 8.04834C257.872 8.08092 257.79 8.11599 257.708 8.14982C257.591 8.12977 257.449 8.1185 257.371 8.08968C257.15 8.00824 256.804 8.11975 256.579 8.03956C256.497 8.00949 256.354 7.98318 256.224 7.97566C256.09 7.96814 255.939 7.98568 255.8 7.9932C255.441 8.012 255.441 8.01075 255.134 8.12226C254.979 8.17739 254.754 8.16736 254.55 8.17989C254.338 8.19367 254.135 8.20119 253.958 8.14982C253.798 8.10346 253.603 8.09219 253.374 8.10722C253.093 8.12602 252.803 8.13729 252.517 8.14857C252.457 8.15107 252.383 8.14481 252.323 8.13729C251.661 8.06337 251.661 8.06212 251.341 8.07841C251.198 8.08593 251.051 8.08842 250.912 8.0997C250.679 8.11975 250.502 8.09343 250.333 8.05334C250.277 8.04081 250.212 8.01702 250.155 8.01827C249.87 8.02453 249.589 8.03581 249.308 8.04708C249.091 8.05586 248.875 8.06087 248.667 8.07841C248.321 8.10723 248.153 8.02577 247.915 7.98818C247.56 8.00447 247.201 8.01575 246.846 8.03831C246.682 8.04833 246.574 8.04458 246.448 8.01451C246.288 7.97692 246.141 7.93432 245.882 7.95311C245.536 7.97817 245.172 7.98695 244.818 8.00198C244.58 7.96314 244.407 7.88419 244.065 7.91301C243.857 7.93055 243.637 7.93431 243.425 7.94433C243.139 7.95812 242.854 7.97066 242.568 7.98569C242.261 8.00073 242.265 7.99697 241.794 7.92304C241.521 7.87919 241.24 7.92805 240.963 7.93557C240.747 7.94183 240.639 7.99947 240.691 8.07339C240.743 8.14732 240.626 8.20495 240.427 8.21498C239.93 8.23878 239.428 8.26383 238.93 8.28513C238.87 8.28764 238.796 8.27887 238.74 8.2701C238.208 8.19116 238.208 8.19243 237.97 8.2037C237.615 8.2225 237.252 8.23251 236.902 8.25632C236.659 8.27261 236.482 8.2463 236.326 8.2037C236.205 8.17113 236.093 8.16361 235.937 8.17113C234.224 8.25507 232.511 8.33275 230.802 8.41921C230.547 8.43174 230.4 8.39541 230.227 8.36158C230.167 8.3503 230.11 8.32649 230.05 8.32649C229.907 8.32649 229.764 8.33777 229.621 8.34529C228.981 8.37536 228.341 8.41169 227.697 8.43424C227.424 8.44427 227.351 8.50191 227.234 8.54952C227.143 8.58586 227.039 8.60088 226.879 8.6059C226.723 8.61091 226.611 8.60464 226.49 8.57206C226.334 8.52946 226.157 8.50315 225.914 8.52069C225.633 8.54074 225.348 8.54952 225.058 8.5633C224.911 8.56956 224.798 8.59211 224.751 8.63722C224.742 8.64474 224.833 8.66354 224.885 8.67482C225.058 8.7124 225.222 8.75626 225.417 8.78257C225.616 8.80888 225.832 8.7788 226.04 8.77128C226.113 8.76877 226.183 8.76126 226.252 8.76252C226.317 8.76377 226.395 8.77004 226.442 8.78131C226.667 8.8377 226.905 8.87654 227.216 8.84271C227.485 8.85899 227.623 8.96299 227.965 8.93542C228.172 8.91914 228.389 8.91162 228.605 8.90535C228.661 8.9041 228.722 8.92666 228.782 8.93793C228.955 8.96926 229.094 9.01937 229.353 8.99807C229.63 8.97552 229.924 8.97176 230.205 8.95422C230.361 8.9442 230.474 8.95297 230.595 8.98555C230.75 9.02689 230.928 9.05821 231.17 9.03816C231.378 9.02062 231.598 9.01686 231.81 9.00558C232.087 8.9918 232.087 8.99305 232.58 9.07074C232.637 9.07951 232.71 9.08953 232.771 9.08703C233.13 9.07199 233.484 9.05319 233.843 9.03816C233.982 9.03189 234.116 9.04818 234.211 9.08452C234.25 9.09955 234.237 9.12463 234.25 9.14593C233.536 9.17976 232.822 9.20857 232.113 9.24992C231.845 9.2662 231.724 9.21483 231.546 9.18601C231.486 9.17599 231.421 9.15469 231.365 9.1572C230.863 9.1785 230.366 9.20105 229.868 9.22861C229.712 9.23738 229.596 9.23237 229.479 9.19603C229.18 9.09956 228.817 9.15218 228.48 9.16596C228.22 9.17599 228.138 9.21483 228.168 9.29753C228.207 9.39526 228.363 9.42533 228.761 9.40779C228.903 9.40152 229.046 9.39275 229.189 9.38774C229.327 9.38273 229.453 9.39901 229.565 9.43284C229.673 9.46667 229.803 9.48421 229.937 9.4792C230.223 9.46792 230.513 9.45665 230.789 9.43786C231.019 9.42282 231.209 9.43535 231.369 9.48171C231.546 9.53308 231.754 9.5218 231.962 9.51052C232.446 9.48547 232.45 9.48673 232.753 9.54937C232.814 9.5619 232.874 9.58571 232.931 9.58446C233.428 9.56567 233.93 9.54937 234.419 9.5193C234.674 9.50427 234.821 9.54436 234.99 9.57693C235.05 9.58821 235.111 9.61327 235.167 9.61077C235.526 9.59698 235.885 9.5832 236.235 9.55939C236.4 9.54811 236.499 9.55563 236.633 9.5857C236.953 9.65962 236.962 9.65712 237.416 9.63331C237.555 9.62579 237.706 9.61202 237.836 9.62204C237.966 9.63206 238.07 9.6684 238.191 9.69096C238.247 9.70098 238.316 9.71475 238.377 9.71225C238.662 9.70222 238.948 9.6872 239.233 9.67342C239.501 9.65963 239.501 9.66089 240.003 9.73857C240.206 9.77115 240.418 9.74358 240.622 9.73355C240.842 9.72228 241.041 9.72228 241.21 9.77115C241.379 9.82001 241.582 9.8175 241.798 9.80747C242.002 9.79745 242.209 9.7699 242.417 9.80373C242.893 9.88141 242.893 9.88265 243.187 9.86761C243.615 9.84631 244.039 9.82627 244.472 9.80747C244.528 9.80497 244.601 9.82001 244.657 9.83003C244.779 9.85259 244.882 9.89017 245.012 9.89894C245.142 9.90896 245.293 9.89393 245.432 9.88641C245.877 9.8626 245.908 9.85384 246.206 9.93653C246.457 10.0042 246.768 9.90646 247.002 9.98414C247.136 10.028 247.318 10.0631 247.569 10.0418C247.776 10.0242 247.993 10.0192 248.209 10.0092C248.551 9.99291 248.551 9.99417 248.983 10.0694C249.039 10.0794 249.113 10.0919 249.169 10.0894C249.455 10.0794 249.745 10.0706 250.021 10.048C250.346 10.0217 250.553 10.0694 250.796 10.1157C250.986 10.152 251.211 10.122 251.414 10.1094C251.635 10.0969 251.834 10.1007 251.998 10.1495C252.171 10.1996 252.374 10.1934 252.591 10.1834C252.794 10.1746 253.002 10.1458 253.209 10.1809C253.655 10.2585 253.655 10.2585 253.979 10.2435C254.265 10.2297 254.55 10.2147 254.836 10.2047C254.892 10.2022 254.961 10.2184 255.017 10.2297C255.139 10.2523 255.242 10.2899 255.372 10.2986C255.502 10.3074 255.653 10.2911 255.796 10.2849C255.939 10.2786 256.09 10.2598 256.22 10.2673C256.35 10.2748 256.471 10.3062 256.575 10.3337C256.696 10.3663 256.808 10.3701 256.973 10.3575C257.18 10.3412 257.397 10.3375 257.608 10.3287C257.725 10.3525 257.846 10.3763 257.959 10.4026C258.076 10.4302 258.201 10.4277 258.361 10.4189C258.893 10.3888 258.898 10.3926 259.343 10.4703C259.546 10.5054 259.758 10.4766 259.962 10.4678C260.178 10.4578 260.381 10.4528 260.55 10.5029C260.714 10.5505 260.918 10.5567 261.134 10.5417C261.272 10.5317 261.419 10.5254 261.562 10.5217C261.627 10.5204 261.705 10.5254 261.753 10.5354C261.982 10.5881 262.207 10.6357 262.522 10.6019C262.799 10.6119 262.938 10.7146 263.271 10.6946C263.552 10.677 263.846 10.6733 264.123 10.6507C264.378 10.6307 264.56 10.6658 264.69 10.7096C264.923 10.7873 265.252 10.682 265.486 10.7585C265.62 10.8023 265.793 10.8374 266.052 10.8186C266.338 10.7986 266.429 10.8249 266.511 10.9038C266.558 10.9489 266.55 10.9853 266.463 11.0203C266.377 11.0567 266.282 11.0504 266.143 11.0091C265.983 10.9627 265.793 10.9539 265.563 10.9639C265.339 10.974 265.2 10.9088 265.014 10.8838C264.828 10.8575 264.608 10.9013 264.413 10.8675C263.954 10.7885 263.954 10.7885 263.643 10.8036C263.431 10.8136 263.21 10.8186 263.003 10.8362C262.756 10.8575 262.596 10.8186 262.427 10.7835C262.367 10.771 262.306 10.7472 262.254 10.7484C261.757 10.7672 261.255 10.7848 260.762 10.8161C260.502 10.8324 260.364 10.7873 260.191 10.756C260.13 10.7447 260.065 10.7221 260.014 10.7246C259.585 10.7422 259.161 10.7647 258.733 10.786C258.651 10.8199 258.56 10.8524 258.482 10.8888C258.4 10.9264 258.288 10.9427 258.123 10.9414C257.851 10.9414 257.583 10.994 257.31 10.9276C257.029 10.86 257.007 10.8637 256.735 10.88C256.389 10.9013 256.021 10.8963 255.697 10.9452C255.64 10.9539 255.58 10.9777 255.58 10.9953C255.575 11.0065 255.666 11.0228 255.723 11.0329C255.913 11.0629 256.133 11.0191 256.324 11.0504C256.449 11.0705 256.553 11.1005 256.678 11.1218C256.73 11.1306 256.808 11.1293 256.877 11.1281C256.951 11.1268 257.02 11.1181 257.089 11.1193C257.154 11.1206 257.224 11.1281 257.276 11.1394C257.513 11.187 257.764 11.2308 257.976 11.2872C258.184 11.3423 258.378 11.3048 258.586 11.3023C259.417 11.39 259.417 11.3912 259.975 11.3636C260.113 11.3574 260.256 11.3499 260.399 11.3511C260.459 11.3511 260.515 11.3737 260.576 11.3862C260.749 11.4238 260.913 11.4576 261.156 11.4376C261.363 11.42 261.584 11.4163 261.796 11.405C262.081 11.3912 262.081 11.3912 262.566 11.4701C262.687 11.4902 262.817 11.4877 262.972 11.4777C263.106 11.4689 263.245 11.4877 263.34 11.524C263.379 11.5391 263.366 11.5641 263.379 11.5854C262.951 11.6055 262.518 11.6193 262.103 11.6493C261.835 11.6681 261.714 11.6142 261.536 11.5854C261.476 11.5754 261.411 11.5541 261.355 11.5566C260.931 11.5754 260.507 11.5967 260.083 11.6217C260.031 11.6243 259.966 11.6531 259.962 11.6706C259.953 11.7032 260.061 11.7345 260.217 11.7333C260.424 11.732 260.628 11.7107 260.814 11.7621C260.97 11.8072 261.164 11.8272 261.393 11.8072C261.532 11.7959 261.679 11.7959 261.817 11.7859C262.185 11.7558 262.518 11.7621 262.795 11.8473C263.007 11.8698 263.215 11.8485 263.418 11.8373C263.569 11.8285 263.716 11.8197 263.824 11.8435C264.054 11.8936 264.279 11.9438 264.594 11.9099C264.936 11.945 265.196 12.0189 265.481 12.0791C265.615 12.1079 265.719 12.1242 265.875 12.1054C265.94 12.0979 266.018 12.0979 266.087 12.0941C266.23 12.0878 266.381 12.0691 266.511 12.0766C266.641 12.0853 266.749 12.1217 266.865 12.1442C266.922 12.1555 266.987 12.1743 267.043 12.173C267.259 12.1668 267.471 12.1543 267.683 12.1442C267.895 12.1355 268.107 12.1267 268.319 12.1179C268.496 12.1505 268.678 12.1831 268.855 12.2157C269.141 12.2019 269.426 12.1881 269.707 12.1756C270.023 12.1605 270.023 12.1618 270.477 12.2395C270.681 12.2745 270.897 12.252 271.092 12.2357C271.416 12.2094 271.632 12.257 271.862 12.3071C271.909 12.3171 271.996 12.3234 272.052 12.3184C272.277 12.3009 272.471 12.3146 272.636 12.361C272.753 12.3936 272.869 12.4086 273.012 12.4023C273.51 12.3785 274.007 12.3535 274.505 12.3322C274.565 12.3297 274.634 12.341 274.691 12.351C275.132 12.4274 275.136 12.4312 275.46 12.4111C275.75 12.3936 276.019 12.3861 276.248 12.455C276.295 12.47 276.369 12.4913 276.421 12.4901C276.775 12.4775 277.135 12.4637 277.485 12.4424C277.645 12.4324 277.757 12.4362 277.883 12.465C278.043 12.5013 278.186 12.5452 278.45 12.5289C279.181 12.4825 279.185 12.49 280.05 12.5765C280.111 12.5828 280.193 12.5727 280.262 12.5677C280.409 12.5552 280.517 12.5727 280.647 12.6016C280.937 12.6667 280.945 12.663 281.222 12.6492C281.434 12.6379 281.655 12.6354 281.862 12.6166C282.183 12.589 282.395 12.6379 282.632 12.6843C282.823 12.7206 283.043 12.6905 283.247 12.6792C283.467 12.6667 283.666 12.6705 283.831 12.7181C283.943 12.7507 284.064 12.7682 284.207 12.7619C284.704 12.7394 285.202 12.7143 285.699 12.6918C285.76 12.6893 285.833 12.6993 285.89 12.7081C286.383 12.7857 286.383 12.7895 286.872 12.7607C287.027 12.7519 287.157 12.7494 287.274 12.7757C287.386 12.8008 287.508 12.8246 287.624 12.8484C287.836 12.8396 288.053 12.8371 288.26 12.8221C288.42 12.8108 288.533 12.8158 288.658 12.8421C288.822 12.876 288.961 12.9348 289.22 12.906C289.355 12.8922 289.51 12.896 289.644 12.8835C289.804 12.8672 289.913 12.8772 290.038 12.9098C290.194 12.9486 290.354 12.9887 290.605 12.9687C290.881 12.9461 291.176 12.9424 291.457 12.9248C291.612 12.9148 291.721 12.9248 291.846 12.9574C292.002 12.9987 292.179 13.0251 292.421 13.0088C292.915 12.9775 292.919 12.9837 293.399 13.0626C293.52 13.0827 293.65 13.0802 293.806 13.0702C293.94 13.0614 294.078 13.0802 294.173 13.1165C294.264 13.1566 294.255 13.1817 294.264 13.203ZM255.718 1.9026C255.575 1.90886 255.433 1.91638 255.225 1.80737C255.212 1.78858 255.221 1.76603 255.191 1.74974C255.121 1.71591 255.013 1.69211 254.883 1.68835C254.65 1.68334 254.369 1.72593 254.373 1.75851C254.377 1.78607 254.451 1.80987 254.594 1.83243C254.654 1.8412 254.702 1.85624 254.758 1.86626C254.922 1.89508 255.052 1.95147 255.29 1.92265C255.247 1.84497 255.268 1.88381 255.29 1.92265C255.268 1.97026 255.333 2.00409 255.489 2.01788C255.532 2.02164 255.597 2.01912 255.632 2.01161C255.766 1.98404 255.787 1.94646 255.688 1.84748C255.671 1.86377 255.684 1.89257 255.723 1.90009C255.761 1.90761 255.857 1.90135 255.904 1.89258C256.025 1.86878 256.086 1.83745 256.056 1.81114C256.038 1.79735 255.956 1.77981 255.904 1.77981C255.813 1.77981 255.731 1.80737 255.718 1.9026ZM290.695 16.4331C290.38 16.4569 290.016 16.4481 289.701 16.497C289.644 16.5058 289.588 16.5283 289.584 16.5459C289.579 16.5571 289.666 16.5734 289.718 16.5822C289.835 16.6022 289.964 16.596 290.116 16.5897C290.345 16.5809 290.479 16.6386 290.657 16.6674C290.713 16.6762 290.786 16.6824 290.847 16.6799C291.197 16.6649 291.543 16.6486 291.894 16.6311C291.954 16.6273 292.019 16.6185 292.071 16.6073C292.244 16.5709 292.227 16.5471 292.058 16.5196C291.872 16.4895 291.725 16.4394 291.535 16.4155C291.262 16.3817 290.985 16.4268 290.695 16.4331ZM266.13 17.3478C265.918 17.3578 265.71 17.3678 265.498 17.3778C265.429 17.3816 265.356 17.3828 265.291 17.3878C265.157 17.3966 265.057 17.4229 264.992 17.4643C265.092 17.4968 265.213 17.5156 265.347 17.5119C265.559 17.5044 265.767 17.4881 265.979 17.4843C266.208 17.4793 266.342 17.5357 266.519 17.5645C266.576 17.5733 266.645 17.5745 266.71 17.5758C267.03 17.5808 267.224 17.5156 267.164 17.4242C267.121 17.3528 266.956 17.3102 266.757 17.3189C266.55 17.3277 266.338 17.3377 266.13 17.3478ZM292.175 14.5812C292.227 14.5599 292.283 14.5449 292.309 14.5261C292.387 14.4622 292.357 14.4146 292.214 14.3645C292.041 14.3031 291.829 14.3444 291.634 14.3507C291.587 14.3519 291.535 14.3782 291.509 14.3945C291.491 14.4058 291.491 14.4296 291.517 14.4359C291.729 14.486 291.954 14.5324 292.175 14.5812ZM254.65 10.88C254.442 10.89 254.23 10.8976 254.023 10.9113C253.971 10.9151 253.923 10.9389 253.893 10.9552C253.837 10.9853 253.897 11.0266 254.074 11.0304C254.278 11.0354 254.49 11.0141 254.702 11.0041C254.97 10.9915 255.13 10.9452 255.03 10.9051C254.935 10.8662 254.806 10.8587 254.65 10.88ZM26.9514 8.20245C27.0898 8.19619 27.2325 8.19117 27.3709 8.1824C27.5007 8.17363 27.6003 8.14606 27.6652 8.10472C27.557 8.07214 27.4359 8.0546 27.3018 8.05836C27.0898 8.06588 26.8822 8.0759 26.6746 8.08843C26.5448 8.09594 26.4194 8.12351 26.3891 8.16611C26.3588 8.19869 26.6486 8.21749 26.9514 8.20245ZM236.357 8.00949C236.413 8.02077 236.469 8.04332 236.525 8.04332C236.664 8.04332 236.806 8.0358 236.936 8.02327C236.992 8.01826 237.036 7.99571 237.062 7.97817C237.079 7.96689 237.075 7.94685 237.049 7.93682C236.923 7.87668 236.421 7.89798 236.339 7.96689C236.331 7.97942 236.352 7.99571 236.357 8.00949ZM222.709 1.14832C222.722 1.16837 222.726 1.18841 222.744 1.20846C222.778 1.24605 222.873 1.27362 223.012 1.29241C223.12 1.26109 223.176 1.22601 223.172 1.18842C223.168 1.16838 223.155 1.14832 223.137 1.12827C223.103 1.09068 223.008 1.06312 222.869 1.04433C222.761 1.0744 222.709 1.10948 222.709 1.14832ZM302.171 17.5658C302.133 17.5821 302.094 17.5983 302.05 17.6134C302.167 17.6497 302.275 17.661 302.358 17.6409C302.409 17.6284 302.44 17.6096 302.479 17.5933C302.362 17.557 302.258 17.547 302.171 17.5658ZM299.481 17.7362C299.537 17.7474 299.589 17.7625 299.65 17.77C299.749 17.7825 299.84 17.7612 299.909 17.7161C299.853 17.7048 299.801 17.6898 299.74 17.6823C299.641 17.6698 299.55 17.6911 299.481 17.7362ZM301.185 17.5069C301.155 17.5369 301.216 17.562 301.376 17.5833C301.415 17.567 301.466 17.552 301.492 17.5344C301.536 17.5056 301.462 17.4793 301.306 17.4593C301.263 17.4743 301.224 17.4906 301.185 17.5069ZM292.054 16.1562C292.023 16.1863 292.084 16.2113 292.244 16.2326C292.283 16.2163 292.335 16.2013 292.361 16.1838C292.404 16.1549 292.331 16.1286 292.175 16.1086C292.132 16.1236 292.093 16.1399 292.054 16.1562ZM279.613 7.2903C279.574 7.30658 279.535 7.32287 279.492 7.33791C279.609 7.37425 279.717 7.38552 279.799 7.36547C279.851 7.35294 279.881 7.33415 279.92 7.31786C279.803 7.28152 279.7 7.2715 279.613 7.2903ZM267.696 2.58671C267.8 2.59548 267.886 2.57794 267.96 2.53158C267.904 2.52031 267.852 2.50527 267.791 2.49775C267.692 2.48522 267.601 2.50653 267.532 2.55164C267.588 2.56417 267.644 2.57543 267.696 2.58671ZM261.368 2.29227C261.329 2.30855 261.29 2.32484 261.246 2.33988C261.363 2.37621 261.471 2.38749 261.554 2.36744C261.605 2.35491 261.636 2.33612 261.675 2.31983C261.558 2.28349 261.454 2.27472 261.368 2.29227ZM218.453 1.14707C218.414 1.16335 218.375 1.17964 218.332 1.19468C218.448 1.23101 218.557 1.24229 218.639 1.22224C218.691 1.20971 218.721 1.19091 218.76 1.17463C218.643 1.13829 218.539 1.12952 218.453 1.14707ZM4.76937 11.3411C4.71314 11.3298 4.65695 11.3185 4.60505 11.306C4.4796 11.3398 4.44068 11.3712 4.50989 11.395C4.55315 11.41 4.61799 11.4188 4.67422 11.4301C4.80399 11.3962 4.83426 11.3661 4.76937 11.3411Z" fill="#4F9CF9"/>
</svg>
