<svg width="351" height="37" viewBox="0 0 351 37" fill="none" xmlns="http://www.w3.org/2000/svg">
<path d="M329.495 19.6171C329.016 19.6476 328.532 19.6687 328.063 19.7146C327.758 19.7433 327.628 19.6591 327.425 19.6152C327.357 19.5999 327.284 19.5693 327.221 19.5731C326.747 19.6037 326.273 19.6381 325.799 19.6725C325.654 19.7471 325.562 19.8465 325.339 19.8828C325.122 19.9173 324.865 19.9173 324.623 19.9345C324.304 19.9555 323.985 19.9765 323.666 19.9957C323.506 20.0052 323.375 20.0415 323.322 20.1104C323.312 20.1219 323.419 20.1505 323.477 20.1677C323.67 20.2251 323.859 20.2901 324.072 20.3341C324.275 20.3761 324.527 20.3073 324.744 20.3609C325.233 20.4813 325.238 20.4794 325.61 20.4565C325.93 20.4354 326.249 20.4125 326.568 20.3972C326.631 20.3934 326.704 20.422 326.771 20.4373C326.975 20.4794 327.105 20.575 327.405 20.5387C327.633 20.51 327.884 20.5043 328.121 20.489C328.32 20.5444 328.503 20.6075 328.716 20.6515C328.915 20.6936 328.973 20.7261 328.866 20.7815C328.769 20.8332 328.634 20.8542 328.455 20.858C328.295 20.8599 328.136 20.8771 327.976 20.8867C327.894 20.8924 327.816 20.8963 327.739 20.902C327.434 20.923 327.434 20.923 326.878 20.8006C326.66 20.7528 326.413 20.8198 326.205 20.7739C326.065 20.7433 325.944 20.6974 325.809 20.6649C325.751 20.6515 325.659 20.6496 325.586 20.6534C325.344 20.6668 325.102 20.6764 324.87 20.7012C324.706 20.7184 324.609 20.772 324.628 20.8255C324.633 20.8465 324.749 20.8771 324.817 20.879C324.972 20.8829 325.136 20.8561 325.286 20.8695C325.431 20.8829 325.581 20.9211 325.688 20.9632C325.905 21.0511 326.152 20.9727 326.36 20.9957C326.578 21.0205 326.757 21.097 326.965 21.1429C327.018 21.1544 327.12 21.1353 327.202 21.1295C327.439 21.1161 327.676 21.1047 327.913 21.0913C328.112 21.1467 328.324 21.1964 328.503 21.2595C328.828 21.3743 329.176 21.4182 329.597 21.3628C329.834 21.3322 330.066 21.3437 330.255 21.4182C330.448 21.4947 330.671 21.4871 330.917 21.4718C331.145 21.4565 331.377 21.4144 331.609 21.468C332.112 21.5865 332.117 21.5922 332.712 21.5464C332.891 21.533 333.027 21.5292 333.162 21.5731C333.288 21.6133 333.423 21.6477 333.554 21.6859C333.791 21.6725 334.033 21.6592 334.27 21.6439C334.575 21.6228 334.744 21.6496 334.817 21.7567C334.86 21.8217 334.88 21.881 334.986 21.9249C335.112 21.9785 335.247 21.9766 335.431 21.9613C335.605 21.9479 335.731 21.9269 335.804 21.858C335.833 21.8293 335.891 21.8026 335.944 21.7796C335.987 21.7624 336.055 21.7357 336.094 21.7395C336.167 21.7471 336.263 21.7681 336.287 21.793C336.524 22.0244 336.524 22.0263 336.766 22.0932C337.032 22.1678 337.308 22.2347 337.55 22.3188C337.768 22.3934 337.986 22.3609 338.223 22.3609C338.402 22.3609 338.518 22.4106 338.503 22.4603C338.494 22.489 338.426 22.5311 338.368 22.5349C337.894 22.5731 337.415 22.6056 336.936 22.6324C336.878 22.6362 336.805 22.6018 336.737 22.5846C336.602 22.5502 336.481 22.4966 336.336 22.4852C336.191 22.4737 336.021 22.5024 335.862 22.5119C335.702 22.5215 335.533 22.5464 335.388 22.5311C335.243 22.5158 335.126 22.4603 334.991 22.424C334.928 22.4068 334.841 22.3819 334.788 22.3877C334.435 22.4336 334.173 22.3705 333.922 22.2863C333.869 22.2691 333.777 22.2576 333.709 22.2615C333.148 22.294 332.591 22.3322 332.03 22.3685C331.803 22.3838 331.619 22.3169 331.57 22.2041C331.546 22.141 331.498 22.0779 331.498 22.0148C331.498 21.9001 331.232 21.837 331.038 21.8504C330.719 21.8695 330.395 21.8848 330.081 21.9135C329.824 21.9364 329.606 21.9135 329.432 21.8446C329.229 21.7662 328.997 21.7815 328.765 21.8026C328.59 21.8179 328.542 21.881 328.552 22.0397C328.561 22.1678 328.479 22.2079 328.165 22.229C327.768 22.2557 327.366 22.2825 326.965 22.3035C326.902 22.3074 326.829 22.2749 326.767 22.2576C326.631 22.2232 326.51 22.1678 326.365 22.1563C326.22 22.1429 326.051 22.1716 325.891 22.1831C325.731 22.1926 325.562 22.2194 325.417 22.206C325.272 22.1926 325.151 22.1353 325.02 22.0989C324.957 22.0817 324.88 22.0569 324.817 22.0607C324.498 22.076 324.178 22.0989 323.859 22.12C323.501 22.1429 323.501 22.1429 322.993 22.0244C322.761 21.9708 322.529 22.0129 322.301 22.0282C322.059 22.0435 321.832 22.0511 321.643 21.9747C321.517 21.9249 321.377 21.8944 321.227 21.9039C320.826 21.9269 320.429 21.9555 320.027 21.9785C319.96 21.9823 319.868 21.9728 319.815 21.9555C319.558 21.8752 319.307 21.8121 318.949 21.8523C318.639 21.8867 318.305 21.8886 317.996 21.9211C317.826 21.9383 317.749 21.9995 317.783 22.0473C317.802 22.0722 317.904 22.1009 317.971 22.1009C318.126 22.1028 318.295 22.0741 318.441 22.0856C318.741 22.1085 318.891 22.2691 319.282 22.2251C319.515 22.1984 319.757 22.1888 319.998 22.1812C320.061 22.1792 320.129 22.2156 320.197 22.2347C320.39 22.2863 320.56 22.3532 320.84 22.3188C321.072 22.292 321.319 22.2844 321.556 22.2691C321.934 22.2443 321.934 22.2462 322.422 22.3628C322.654 22.4183 322.887 22.3743 323.114 22.3609C323.283 22.3513 323.443 22.3322 323.578 22.359C323.786 22.3991 323.936 22.4909 324.193 22.4852C324.435 22.4794 324.672 22.4527 324.914 22.4431C325.064 22.4374 325.204 22.468 325.325 22.5196C325.451 22.5712 325.586 22.5942 325.751 22.5827C325.988 22.5674 326.229 22.5483 326.471 22.5387C326.539 22.5368 326.617 22.554 326.68 22.5693C326.815 22.6037 326.945 22.6439 327.076 22.6802C327.313 22.6687 327.555 22.6649 327.787 22.642C327.966 22.6248 328.092 22.6324 328.237 22.6707C328.421 22.7223 328.571 22.8141 328.871 22.7701C329.021 22.7491 329.195 22.7548 329.345 22.7357C329.529 22.7108 329.655 22.7204 329.785 22.7777C330.032 22.8867 330.342 22.8886 330.661 22.8466C331.009 22.8007 331.271 22.8542 331.532 22.9384C331.808 23.0263 331.808 23.0244 332.021 23.2366C332.083 23.2978 332.262 23.3265 332.412 23.315C332.664 23.2959 332.882 23.3055 333.065 23.3781C333.259 23.4565 333.491 23.447 333.728 23.4259C334.043 23.3972 334.357 23.3724 334.614 23.4833C334.739 23.5368 334.875 23.5502 335.044 23.5368C335.523 23.5024 336.007 23.4814 336.476 23.4393C336.762 23.4125 336.926 23.4737 337.12 23.5254C337.381 23.5961 337.666 23.6592 337.666 23.8102C337.666 23.8351 337.734 23.8638 337.792 23.8829C337.918 23.9231 338.053 23.9575 338.184 23.9957C338.377 24.0531 338.566 24.1009 338.832 24.0703C339.064 24.0454 339.311 24.0378 339.548 24.0206C339.785 24.0034 340.003 23.9938 340.216 24.0665C340.463 24.1487 340.724 24.2271 341.004 24.2883C341.203 24.3322 341.464 24.2577 341.677 24.317C341.807 24.3533 341.933 24.3953 342.073 24.4259C342.132 24.4393 342.224 24.4298 342.301 24.4259C342.461 24.4183 342.625 24.4126 342.78 24.3934C342.959 24.3724 343.094 24.3762 343.23 24.4202C343.356 24.4604 343.481 24.5158 343.627 24.5273C343.844 24.5445 344.086 24.468 344.304 24.556C344.415 24.5999 344.555 24.642 344.701 24.6554C344.846 24.6688 345.015 24.6401 345.17 24.642C345.238 24.642 345.32 24.6726 345.358 24.6975C345.383 24.7108 345.349 24.7472 345.315 24.7663C345.271 24.7892 345.208 24.8198 345.146 24.8237C344.667 24.8581 344.188 24.8868 343.709 24.9193C343.423 24.9384 343.423 24.9384 342.848 24.8179C342.712 24.7892 342.562 24.795 342.393 24.8083C342.165 24.8256 341.933 24.8581 341.696 24.8237C341.387 24.6936 341.004 24.6821 340.598 24.7319C340.429 24.7529 340.274 24.7529 340.148 24.7166C339.882 24.6439 339.601 24.577 339.364 24.491C339.181 24.424 339.093 24.4183 339.016 24.5101C338.992 24.5388 338.968 24.5693 338.972 24.5961C339.001 24.6917 339.055 24.7854 339.084 24.881C339.093 24.9078 339.055 24.9384 339.031 24.9671C338.953 25.0474 338.852 25.0416 338.682 24.9747C338.513 24.9078 338.31 24.8638 338.039 24.8944C337.807 24.9212 337.555 24.9174 337.323 24.946C336.965 24.9881 336.713 24.9269 336.457 24.8447C336.404 24.8275 336.312 24.8179 336.244 24.8217C335.523 24.8657 334.807 24.9154 334.086 24.9594C333.931 24.969 333.791 24.9403 333.67 24.8887C333.544 24.837 333.404 24.8103 333.249 24.8198C332.611 24.86 331.972 24.8963 331.333 24.946C331.072 24.9671 330.864 24.9422 330.685 24.8753C330.55 24.8256 330.424 24.8103 330.255 24.816C330.071 24.8217 329.94 24.8409 329.848 24.8963C329.761 24.9499 329.824 24.9823 330.018 25.0244C330.226 25.0703 330.419 25.1296 330.617 25.1831C330.777 25.1755 330.937 25.1602 331.092 25.1621C331.159 25.1621 331.222 25.1965 331.29 25.2156C331.484 25.2711 331.662 25.3265 331.938 25.2959C332.17 25.2692 332.417 25.2634 332.654 25.2462C332.983 25.2252 332.983 25.2252 333.515 25.3456C333.651 25.3762 333.796 25.3743 333.97 25.3571C334.12 25.3437 334.275 25.3705 334.381 25.4279C334.425 25.4508 334.41 25.4891 334.319 25.6153C334.319 25.709 334.42 25.6669 334.454 25.6057C334.507 25.5177 334.405 25.4891 334.212 25.5369C334.077 25.5713 334.009 25.621 334.043 25.6611C334.062 25.6822 334.154 25.709 334.319 25.6153C334.744 25.5005 335.068 25.4871 335.378 25.4565C335.562 25.4393 335.678 25.447 335.823 25.4967C335.997 25.556 336.171 25.6191 336.457 25.5885C336.766 25.5541 337.095 25.5502 337.41 25.5215C337.7 25.4948 337.85 25.5789 338.034 25.6286C338.256 25.6879 338.503 25.621 338.706 25.6554C338.919 25.6898 339.069 25.7739 339.316 25.7892C339.674 25.7376 339.901 25.8332 340.172 25.8963C340.385 25.9441 340.637 25.9021 340.864 25.881C341.12 25.8581 341.333 25.8791 341.512 25.948C341.716 26.0264 341.943 26.0091 342.175 25.9919C342.717 25.9537 342.736 25.9479 343.051 26.0531C343.278 26.1296 343.496 26.0952 343.723 26.0856C343.922 26.1372 344.115 26.1927 344.323 26.2386C344.376 26.25 344.478 26.2309 344.56 26.2252C344.797 26.2099 345.039 26.1946 345.276 26.1793C345.436 26.1698 345.605 26.1411 345.75 26.1525C345.895 26.1659 346.016 26.2214 346.147 26.2577C346.278 26.294 346.413 26.3304 346.539 26.3686C346.732 26.426 346.916 26.4738 347.187 26.4451C347.419 26.4202 347.661 26.4126 347.903 26.3954C348.208 26.3743 348.198 26.3801 348.764 26.4948C349.069 26.5579 349.383 26.4814 349.693 26.4738C349.848 26.47 349.998 26.491 350.104 26.5464C350.148 26.5694 350.133 26.6076 350.148 26.6401C349.35 26.6918 348.547 26.7357 347.758 26.7988C347.453 26.8237 347.294 26.7548 347.129 26.6975C346.858 26.6057 346.5 26.7395 346.244 26.621C346.089 26.5502 345.866 26.5101 345.6 26.5445C345.445 26.5636 345.281 26.5617 345.121 26.5789C344.715 26.621 344.342 26.6229 344.018 26.491C343.907 26.4451 343.747 26.4202 343.631 26.3763C343.496 26.3285 343.365 26.3017 343.206 26.3112C342.485 26.3571 341.769 26.403 341.053 26.4527C340.99 26.4566 340.927 26.4852 340.874 26.5063C340.738 26.5598 340.782 26.6019 340.999 26.6363C341.072 26.6478 341.13 26.6726 341.198 26.6917C341.329 26.7281 341.449 26.7854 341.595 26.7988C341.74 26.8122 341.909 26.7854 342.069 26.7759C342.228 26.7663 342.398 26.7376 342.543 26.7491C342.688 26.7625 342.809 26.818 342.944 26.8524C343.007 26.8696 343.085 26.8983 343.148 26.8963C343.467 26.8849 343.781 26.8638 344.101 26.8466C344.299 26.8983 344.468 26.9728 344.705 26.99C344.855 27.0015 345.015 26.9805 345.17 26.9843C345.238 26.9862 345.325 27.0149 345.358 27.0397C345.378 27.055 345.315 27.0933 345.267 27.1124C345.083 27.1851 344.831 27.1717 344.604 27.1946C344.357 27.2195 344.134 27.2118 343.946 27.1373C343.82 27.0876 343.68 27.0608 343.525 27.0703C343.123 27.0952 342.727 27.1239 342.325 27.1449C342.257 27.1487 342.175 27.1315 342.112 27.1181C341.604 27.0015 341.604 26.9977 341.246 27.0225C340.719 27.0589 340.719 27.0589 340.366 26.9575C340.298 26.9384 340.225 26.9021 340.167 26.904C339.606 26.9346 339.05 26.9652 338.493 27.0091C338.31 27.0225 338.184 27.0225 338.048 26.9728C337.932 26.9308 337.797 26.883 337.652 26.8715C337.502 26.86 337.337 26.8887 337.178 26.8983C337.018 26.9078 336.849 26.9327 336.708 26.9174C336.563 26.9021 336.437 26.8485 336.312 26.8103C336.181 26.7702 336.041 26.772 335.862 26.7873C335.31 26.8313 335.305 26.8256 334.759 26.707C334.696 26.6937 334.614 26.6784 334.546 26.6822C334.144 26.7051 333.748 26.7338 333.346 26.7568C333.191 26.7663 333.041 26.7415 332.935 26.686C332.891 26.6631 332.906 26.6248 332.877 26.5502C332.843 26.533 332.882 26.5636 332.891 26.5923C332.964 26.5885 333.051 26.5923 333.104 26.577C333.24 26.5407 333.307 26.4929 333.273 26.4527C333.254 26.4317 333.162 26.4049 333.104 26.4049C332.998 26.4049 332.906 26.447 332.877 26.5502C332.572 26.6133 332.248 26.6267 331.933 26.6573C331.75 26.6765 331.633 26.6669 331.488 26.6172C331.314 26.556 331.135 26.4967 330.85 26.5273C330.54 26.5617 330.211 26.5675 329.892 26.5942C329.524 26.6248 329.364 26.4527 329.055 26.4566C328.736 26.4604 328.416 26.4929 328.097 26.5158C327.816 26.535 327.816 26.535 327.236 26.4107C327.023 26.3648 326.771 26.4317 326.563 26.3839C326.423 26.3533 326.302 26.3074 326.167 26.2749C326.109 26.2615 326.017 26.2615 325.944 26.2653C325.543 26.2883 325.136 26.3036 324.749 26.3457C324.309 26.3954 323.975 26.3418 323.661 26.229C323.264 26.2501 322.862 26.2615 322.471 26.2979C322.185 26.3246 322.021 26.2615 321.827 26.2099C321.759 26.1927 321.701 26.164 321.629 26.1564C321.556 26.1487 321.469 26.164 321.392 26.1697C321.072 26.1908 320.743 26.2004 320.434 26.2348C320.052 26.2787 319.906 26.1219 319.611 26.1028C319.413 26.1965 319.307 26.3246 318.915 26.3342C318.595 26.3418 318.276 26.3724 317.957 26.3935C317.797 26.403 317.638 26.4145 317.478 26.4241C317.221 26.4413 317.101 26.5158 317.154 26.6306C317.183 26.6937 317.207 26.7568 317.231 26.8199C317.28 26.9327 317.159 27.0283 316.955 27.0417C316.394 27.078 315.838 27.1162 315.277 27.1487C315.127 27.1583 314.981 27.1258 314.861 27.0742C314.735 27.0225 314.595 26.9996 314.44 27.0091C313.879 27.0455 313.322 27.0837 312.761 27.1162C312.698 27.1201 312.616 27.1009 312.553 27.0856C312.418 27.0512 312.287 27.0111 312.156 26.9747C311.837 26.992 311.522 27.0034 311.208 27.0264C310.7 27.0608 310.7 27.0627 310.328 26.9575C310.26 26.9384 310.192 26.9021 310.129 26.904C309.887 26.9116 309.65 26.9308 309.408 26.948C308.697 26.9977 308.697 26.9977 308.489 26.9403C308.3 26.8868 308.131 26.8218 307.846 26.8524C307.536 26.8868 307.207 26.8983 306.888 26.9174C306.651 26.9308 306.414 26.9461 306.177 26.9499C306.114 26.9518 306.046 26.9155 305.978 26.8963C305.785 26.8371 305.596 26.7893 305.33 26.8218C305.175 26.8409 305.011 26.8447 304.851 26.8543C304.435 26.8811 304.435 26.881 303.753 26.7663C303.685 26.7548 303.603 26.7415 303.535 26.7472C302.974 26.7816 302.418 26.8199 301.856 26.8524C301.789 26.8562 301.706 26.8447 301.639 26.8351C300.874 26.7242 300.874 26.7243 300.062 26.7778C299.752 26.7969 299.742 26.8046 299.418 26.7032C299.273 26.6592 299.152 26.6382 298.983 26.6516C298.344 26.6975 297.701 26.7281 297.067 26.7816C296.782 26.8046 296.617 26.7472 296.424 26.6956C296.356 26.6784 296.283 26.6401 296.225 26.642C295.587 26.6784 294.948 26.7223 294.309 26.7587C294.251 26.7625 294.179 26.7243 294.111 26.707C293.98 26.6726 293.855 26.621 293.709 26.6095C293.559 26.5981 293.395 26.6267 293.23 26.6363C292.829 26.6612 292.829 26.6593 292.365 26.5464C292.302 26.5311 292.219 26.5101 292.156 26.5139C291.518 26.5522 290.874 26.5847 290.241 26.6401C289.878 26.6707 289.631 26.6153 289.375 26.535C289.322 26.5177 289.23 26.5101 289.162 26.5139C288.441 26.5579 287.725 26.6076 287.004 26.6516C286.854 26.6611 286.709 26.6286 286.588 26.5789C286.395 26.5005 286.167 26.5101 285.925 26.5273C285.369 26.5675 285.364 26.5656 285.035 26.4738C284.967 26.4547 284.909 26.4298 284.837 26.4202C284.769 26.4107 284.682 26.4164 284.609 26.4202C284.29 26.4394 283.971 26.4604 283.652 26.4814C283.332 26.5024 283.008 26.5139 282.694 26.5464C282.307 26.5866 282.123 26.4623 281.852 26.4049C281.455 26.4298 281.049 26.4451 280.657 26.4852C280.357 26.5158 280.217 26.4317 280.018 26.3877C279.951 26.3724 279.878 26.3399 279.815 26.3437C279.094 26.3858 278.373 26.4317 277.657 26.4833C277.483 26.4948 277.367 26.4795 277.222 26.4336C276.898 26.3304 276.883 26.3342 276.342 26.3724C276.105 26.3896 275.877 26.4049 275.674 26.3265C275.495 26.2558 275.277 26.2386 275.021 26.2615C274.706 26.2902 274.382 26.3055 274.063 26.3246C273.744 26.3457 273.424 26.3743 273.105 26.3839C272.849 26.3935 272.694 26.3036 272.491 26.2577C272.428 26.2443 272.341 26.2424 272.268 26.2462C271.949 26.2634 271.62 26.2768 271.31 26.3093C270.933 26.3495 270.725 26.2443 270.459 26.1831C270.401 26.1698 270.304 26.1774 270.231 26.1831C269.67 26.2176 269.114 26.2558 268.553 26.2921C268.354 26.2405 268.151 26.1908 267.953 26.1392C267.633 26.1583 267.314 26.1793 266.995 26.1984C266.753 26.2137 266.506 26.2195 266.279 26.2481C265.984 26.2864 265.839 26.1965 265.64 26.1525C265.572 26.1372 265.5 26.1047 265.437 26.1086C265.035 26.1296 264.634 26.1525 264.237 26.1851C263.86 26.2176 263.71 26.0455 263.4 26.0474C263.081 26.0493 262.752 26.0742 262.442 26.1086C262.084 26.1487 261.833 26.0875 261.576 26.0053C261.523 25.9881 261.431 25.9785 261.364 25.9824C260.962 26.0053 260.565 26.034 260.164 26.0569C260.096 26.0608 260.014 26.0512 259.946 26.0397C259.182 25.9269 259.182 25.925 258.848 25.948C258.611 25.9633 258.369 25.9824 258.127 25.9919C258.059 25.9958 257.977 25.9785 257.914 25.9632C257.411 25.8466 257.411 25.8447 257.048 25.8676C256.729 25.8887 256.41 25.9097 256.09 25.9307C255.892 25.8791 255.689 25.8294 255.49 25.7778C255.094 25.8026 254.687 25.8217 254.295 25.8562C254.112 25.8715 253.991 25.8657 253.85 25.8179C253.676 25.7606 253.502 25.6936 253.212 25.7262C252.902 25.7606 252.573 25.7644 252.259 25.7931C251.881 25.8275 251.727 25.6535 251.422 25.6554C251.102 25.6573 250.773 25.6822 250.464 25.7166C250.106 25.7567 249.854 25.6956 249.598 25.6133C249.545 25.5961 249.453 25.5866 249.385 25.5904C248.505 25.6459 247.629 25.7013 246.748 25.7606C246.207 25.7969 246.207 25.7988 245.176 25.6936C245.104 25.686 245.026 25.6784 244.953 25.6822C244.634 25.6994 244.305 25.7128 243.996 25.7453C243.618 25.7854 243.41 25.6822 243.144 25.6191C243.086 25.6057 242.994 25.6133 242.917 25.6172C242.675 25.6305 242.438 25.6478 242.196 25.6631C241.877 25.6841 241.557 25.7051 241.238 25.7262C241.04 25.6764 240.837 25.6248 240.638 25.5751C240.241 25.5999 239.835 25.6133 239.443 25.6535C239.143 25.6841 239.003 25.6038 238.805 25.5579C238.737 25.5426 238.664 25.5101 238.601 25.512C237.881 25.5541 237.16 25.598 236.444 25.6516C236.149 25.6745 236.013 25.5885 235.815 25.5445C235.747 25.5311 235.67 25.5063 235.607 25.5101C235.128 25.5369 234.649 25.5694 234.17 25.6019C233.899 25.621 233.899 25.621 233.309 25.5024C233.241 25.489 233.164 25.4757 233.096 25.4795C231.577 25.5751 230.063 25.6764 228.544 25.772C228.389 25.7816 228.248 25.7529 228.128 25.7013C228.002 25.6497 227.861 25.6229 227.707 25.6325C227.068 25.6726 226.425 25.709 225.791 25.7587C225.53 25.7797 225.321 25.7548 225.142 25.6879C225.007 25.6382 224.881 25.6191 224.712 25.6305C224.393 25.6535 224.073 25.6726 223.754 25.6936C223.435 25.7147 223.115 25.7357 222.796 25.7568C222.477 25.7778 222.153 25.7893 221.838 25.8218C221.451 25.8619 221.263 25.7434 220.997 25.6841C220.518 25.7128 220.039 25.7414 219.564 25.772C218.926 25.8122 218.287 25.8562 217.649 25.8944C217.591 25.8982 217.518 25.8638 217.45 25.8466C217.252 25.7988 217.107 25.7319 216.812 25.7529C215.38 25.8543 213.938 25.9403 212.501 26.0397C212.201 26.0608 212.071 25.9785 211.867 25.9346C211.8 25.9212 211.722 25.8944 211.659 25.8982C210.861 25.946 210.063 25.9996 209.265 26.0512C208.941 26.0722 208.941 26.0722 208.399 25.9537C208.336 25.9403 208.254 25.9231 208.186 25.9269C207.146 25.9919 206.11 26.0608 205.07 26.1277C204.915 26.1372 204.775 26.1105 204.649 26.0589C204.528 26.0072 204.383 25.9785 204.233 25.9881C203.275 26.0493 202.313 26.1086 201.36 26.1755C201.103 26.1946 200.89 26.1774 200.706 26.1086C200.576 26.0589 200.445 26.0378 200.281 26.0493C198.844 26.143 197.407 26.2329 195.97 26.3323C195.694 26.3514 195.501 26.3151 195.327 26.252C195.187 26.2023 195.066 26.1927 194.891 26.2003C194.708 26.2099 194.596 26.2309 194.495 26.2883C194.364 26.3629 194.282 26.4566 193.972 26.4623C193.653 26.468 193.329 26.491 193.014 26.5235C192.714 26.556 192.574 26.4699 192.385 26.4183C192.245 26.382 192.114 26.3763 191.935 26.3935C191.771 26.4088 191.669 26.4413 191.573 26.5024C191.36 26.6325 191.34 26.6325 191.079 26.5502C190.939 26.5063 190.813 26.4719 190.658 26.4795C190.02 26.5177 189.381 26.5598 188.742 26.6038C188.375 26.6286 188.37 26.6325 188.094 26.5369C187.959 26.4891 187.828 26.4661 187.668 26.4776C185.912 26.5923 184.156 26.7032 182.4 26.8237C182.129 26.8428 181.945 26.8026 181.752 26.7453C181.689 26.7262 181.626 26.6994 181.553 26.6917C181.481 26.6841 181.399 26.6917 181.321 26.6956C180.044 26.7778 178.762 26.8562 177.49 26.948C177.199 26.969 177.045 26.9078 176.846 26.8581C176.779 26.8409 176.72 26.8141 176.648 26.8065C176.575 26.8007 176.488 26.8141 176.411 26.8199C175.134 26.9021 173.852 26.9805 172.579 27.0723C172.274 27.0933 172.144 27.013 171.945 26.9709C171.878 26.9556 171.805 26.9269 171.742 26.9307C171.341 26.9518 170.944 26.9805 170.542 27.0053C169.585 27.0684 168.627 27.1277 167.669 27.1927C167.301 27.2176 167.141 27.0474 166.832 27.055C166.43 27.0646 166.034 27.1028 165.632 27.1296C165.313 27.1506 164.993 27.1698 164.674 27.1927C164.36 27.2138 164.36 27.2137 163.576 27.1028C163.508 27.0933 163.426 27.0799 163.358 27.0837C162.241 27.1545 161.118 27.2252 160.006 27.3017C159.749 27.3189 159.536 27.3094 159.352 27.2386C159.222 27.1889 159.086 27.164 158.927 27.1755C157.248 27.2845 155.574 27.3935 153.895 27.5006C153.832 27.5044 153.75 27.4853 153.687 27.47C153.552 27.4355 153.421 27.3954 153.291 27.3591C153.194 27.403 153.068 27.4432 153.005 27.4929C152.918 27.5598 152.802 27.579 152.618 27.5904C152.434 27.6019 152.318 27.5981 152.173 27.5484C151.999 27.4872 151.82 27.4394 151.535 27.4585C149.778 27.5789 148.022 27.6879 146.266 27.8065C145.976 27.8256 145.84 27.7415 145.637 27.6975C145.569 27.6841 145.492 27.6631 145.429 27.6669C144.708 27.7109 143.992 27.7587 143.271 27.8046C141.273 27.9346 139.275 28.0589 137.282 28.1966C136.919 28.2214 136.673 28.1736 136.416 28.0914C136.363 28.0742 136.271 28.0646 136.203 28.0684C133.407 28.2482 130.611 28.4298 127.819 28.6115C127.669 28.621 127.524 28.5904 127.403 28.5407C127.277 28.4891 127.137 28.4642 126.982 28.4738C125.705 28.556 124.428 28.6383 123.151 28.7224C122.832 28.7434 122.827 28.7453 122.498 28.6535C122.43 28.6344 122.357 28.5981 122.304 28.6019C122.193 28.6115 122.086 28.6593 122.009 28.7243C121.932 28.7931 121.811 28.8122 121.632 28.8256C121.448 28.839 121.327 28.8333 121.187 28.7874C121.008 28.73 120.843 28.6746 120.553 28.6937C116.881 28.9384 113.209 29.1736 109.537 29.4164C109.242 29.4356 109.106 29.3553 108.903 29.3113C108.836 29.2979 108.768 29.2788 108.695 29.275C108.618 29.2711 108.536 29.2826 108.458 29.2884C102.469 29.6765 96.4797 30.0666 90.4905 30.4547C90.1325 30.4777 90.1373 30.4777 89.7454 30.6536C89.6971 30.6746 89.6341 30.7033 89.5664 30.7071C87.7328 30.8295 85.8945 30.948 84.0561 31.0666C83.2579 31.1182 82.4596 31.1717 81.6614 31.2215C81.376 31.2387 81.376 31.2387 80.6938 31.4452C80.6358 31.4624 80.568 31.4853 80.5002 31.4892C77.3073 31.6976 74.1142 31.906 70.9164 32.1106C70.6648 32.1259 70.4617 32.1603 70.3456 32.2521C70.2633 32.3171 70.1569 32.3553 69.9973 32.3668C67.7622 32.5121 65.5271 32.6593 63.2872 32.8008C63.0211 32.818 62.8614 32.8716 62.7308 32.9519C62.6873 32.9787 62.6485 33.0092 62.5856 33.0284C62.5276 33.0456 62.4405 33.0513 62.368 33.057C60.4522 33.1813 58.5364 33.3095 56.6158 33.428C56.3304 33.4452 56.2142 33.516 56.0739 33.5905C56.0255 33.6154 55.9916 33.6498 55.9287 33.667C55.8658 33.6823 55.7739 33.6823 55.6965 33.6861C54.1 33.7894 52.5036 33.8945 50.9071 33.9978C50.5975 33.9882 50.5297 34.0991 50.3797 34.1661C50.3265 34.189 50.2879 34.2196 50.225 34.2349C50.1573 34.2502 50.0701 34.2483 49.9878 34.2521C48.7106 34.3343 47.4335 34.4223 46.1514 34.4988C45.8563 34.516 45.7983 34.6135 45.6386 34.6804C45.5854 34.7014 45.5322 34.7339 45.4693 34.7397C44.6711 34.7951 43.8729 34.8467 43.0746 34.8965C42.8086 34.9137 42.8085 34.9118 42.3393 35.1011C42.2861 35.1221 42.2231 35.145 42.1554 35.1508C40.9604 35.2311 39.7607 35.3076 38.5609 35.386C38.4061 35.3955 38.2997 35.4414 38.2222 35.5064C38.1448 35.5714 38.0336 35.6135 37.8788 35.6231C36.9209 35.6862 35.9629 35.7512 35.005 35.8085C34.7389 35.8238 34.5648 35.8716 34.4487 35.9577C34.3616 36.0227 34.2552 36.0552 34.0859 36.0667C33.128 36.1278 32.1701 36.1948 31.2074 36.2483C30.9268 36.2636 30.7816 36.3286 30.6655 36.4089C30.5735 36.4739 30.4671 36.4969 30.2881 36.5084C28.5319 36.6193 26.771 36.7301 25.0197 36.8525C24.7246 36.8735 24.5746 36.8066 24.3811 36.7588C24.1053 36.6919 23.849 36.6192 23.849 36.4701C23.849 36.4472 23.7667 36.4204 23.7087 36.4013C23.2781 36.2579 23.2781 36.2579 23.2104 36.1049C23.1717 36.0112 23.1281 35.9156 23.0943 35.82C23.0314 35.6632 22.8765 35.6231 22.4314 35.6517C22.2718 35.6613 22.1121 35.6747 21.9525 35.6823C21.7154 35.6957 21.5364 35.6326 21.4929 35.5179C21.4687 35.4548 21.4397 35.3917 21.4155 35.3286C21.6574 35.3133 21.6525 35.3114 22.0783 35.08C22.2573 34.9825 22.2573 34.9825 21.9139 34.885C21.7832 34.8487 21.6574 34.8085 21.5171 34.7741C21.4542 34.7588 21.372 34.7492 21.3043 34.7531C20.9027 34.776 20.506 34.8028 20.1093 34.8295C19.4707 34.8716 19.4707 34.8716 18.8224 34.6766C18.7692 34.6613 18.6869 34.6326 18.6966 34.6173C18.7498 34.5466 18.8804 34.516 19.0449 34.5083C19.2868 34.4968 19.5239 34.4777 19.7609 34.4624C19.9206 34.4529 20.0802 34.4414 20.2399 34.4318C20.3898 34.3592 20.5447 34.2884 20.685 34.2139C20.9076 34.0991 20.9075 34.0953 20.6027 34.015C20.4092 33.9615 20.2012 33.9137 20.0028 33.8639C19.7657 33.8792 19.5239 33.8964 19.2868 33.9098C18.9869 33.927 18.8659 33.8907 18.7885 33.7664C18.7208 33.6574 18.803 33.5638 19.0352 33.5408C19.2723 33.5179 19.4949 33.5026 19.6159 33.4051C19.732 33.3114 19.9351 33.275 20.1867 33.2674C20.3464 33.2616 20.506 33.2483 20.6656 33.2368C20.8737 33.2215 20.985 33.124 20.9414 33.015C20.9172 32.9442 20.8688 32.885 20.6802 32.8697C19.8432 32.8027 19.8335 32.8047 19.4174 32.6746C19.3787 32.6632 19.3498 32.6287 19.3643 32.6115C19.3885 32.5829 19.4417 32.5408 19.4998 32.5351C20.0561 32.493 20.6124 32.4548 21.1688 32.4261C21.3526 32.4165 21.4881 32.4031 21.551 32.3324C21.6381 32.2348 21.5994 32.145 21.4301 32.0781C21.3768 32.057 21.2897 32.0303 21.2316 32.0322C20.593 32.0666 19.9593 32.1106 19.3207 32.145C19.2627 32.1488 19.1563 32.1163 19.1321 32.0915C19.0837 32.0456 19.1562 31.9844 19.3255 31.9633C19.5481 31.9347 19.7755 31.9327 19.9254 31.8371C20.1335 31.7014 20.3898 31.5771 20.6221 31.4471C20.6608 31.4241 20.7237 31.3801 20.7092 31.3763C20.5883 31.3343 20.448 31.3018 20.3222 31.2616C20.1093 31.1947 20.1093 31.101 20.1576 31.0111C20.1964 30.9385 20.3415 30.9098 20.5205 30.9098C20.5979 30.9098 20.6946 30.9098 20.7575 30.8926C20.922 30.8505 20.9753 30.797 20.893 30.7568C20.8446 30.7339 20.7576 30.7014 20.6995 30.7052C19.6642 30.7683 18.624 30.8295 17.5936 30.9079C17.2888 30.9308 17.1486 30.8582 16.9647 30.8065C16.8244 30.7664 16.6937 30.7511 16.5196 30.7798C16.3551 30.8065 16.1955 30.7912 16.0939 30.7281C16.0117 30.6765 16.1568 30.6325 16.5486 30.5828C16.6212 30.5733 16.7034 30.5675 16.7566 30.5484C17.3178 30.3419 17.3178 30.34 17.7048 30.3132C18.0822 30.2884 18.0823 30.2865 18.2806 30.1756C18.3725 30.1239 18.474 30.0723 18.5611 30.0188C18.595 29.9977 18.6531 29.9595 18.6338 29.948C18.5273 29.8887 18.3821 29.8754 18.2128 29.8887C17.8355 29.9213 17.3904 29.8945 17.1921 30.0761C17.1147 30.145 16.9937 30.1641 16.8196 30.1756C15.0683 30.2865 13.3169 30.405 11.5608 30.5121C11.2753 30.5293 11.1448 30.6 11.0335 30.6784C10.9368 30.7434 10.8303 30.7626 10.6465 30.774C10.4626 30.7855 10.3174 30.7912 10.211 30.7281C10.1481 30.6899 10.2013 30.6364 10.3465 30.5828C10.5545 30.5063 10.5158 30.4107 10.448 30.3209C10.3997 30.2616 10.2497 30.2195 10.09 30.2234C9.85298 30.231 9.62566 30.252 9.42731 30.1756C9.3112 30.1316 9.16604 30.101 9.03542 30.0627C8.78385 29.9843 8.53227 29.904 8.17911 29.9557C7.93721 29.9365 7.76789 29.8677 7.57437 29.8142C7.25024 29.7262 7.22121 29.7128 7.45343 29.6191C7.71467 29.514 7.51144 29.3763 7.65658 29.273C7.81139 29.1621 8.02433 29.0646 8.213 28.9614C8.26138 28.9346 8.30494 28.9098 8.35332 28.883C8.24205 28.8447 8.14047 28.797 8.00985 28.7702C7.84053 28.7358 7.75344 28.6937 7.76312 28.5751C7.72925 28.5579 7.74367 28.6019 7.78237 28.6134C7.82591 28.6249 7.93242 28.6153 7.98564 28.6019C8.1211 28.5656 8.18876 28.5178 8.15489 28.4776C8.13554 28.4566 8.04369 28.4298 7.98564 28.4298C7.87921 28.4298 7.7873 28.4719 7.75827 28.5751C7.21643 28.6535 6.65515 28.6918 6.09396 28.7224C6.03591 28.7262 5.96338 28.688 5.89565 28.6688C5.67311 28.6038 5.67308 28.6057 5.01997 28.5866C4.95224 28.5847 4.86037 28.5579 4.8265 28.5312C4.68621 28.4145 4.69108 28.2864 4.62335 28.1621C4.74914 28.0818 4.87482 28.0034 5.00544 27.925C5.26669 27.7663 5.60541 27.6268 5.8086 27.4528C5.76506 27.3591 5.707 27.2654 5.91986 27.1889C6.5246 27.0933 6.5198 27.0933 6.68428 27.0015C7.15356 26.7415 7.61796 26.4795 8.10659 26.2233C8.23721 26.1564 8.23723 26.12 8.00501 26.0914C7.93244 26.0837 7.85493 26.0818 7.77753 26.0856C7.53563 26.099 7.29375 26.1334 7.05669 26.1258C6.81964 26.12 6.64547 26.0359 6.45196 25.9843C6.25361 25.9307 6.05526 25.8753 5.85691 25.8198C5.62953 25.8256 5.4022 25.8791 5.17482 25.7931C5.00065 25.7261 4.78296 25.6783 4.58461 25.6229C4.73459 25.4776 5.01522 25.3667 5.23293 25.2386C5.43128 25.1219 5.43601 25.1238 5.96817 25.034C6.21974 24.9919 6.30683 24.7758 6.09396 24.7127C5.83755 24.6363 5.56669 24.5655 5.30545 24.4928C5.07807 24.4986 4.8459 24.5502 4.62819 24.4642C4.45887 24.3992 4.26532 24.3552 3.98472 24.38C3.51061 24.4221 3.02684 24.4431 2.54789 24.4776C2.38341 24.489 2.20435 24.4814 2.13178 24.4164C2.08341 24.3705 2.22371 24.3074 2.38336 24.294C2.62526 24.2749 2.84294 24.2519 2.96388 24.1563C3.07999 24.0607 3.29283 24.032 3.5444 24.0187C3.61213 24.0148 3.68959 23.9919 3.72346 23.9689C3.89762 23.858 4.09115 23.7624 4.46367 23.7663C4.61848 23.728 4.70067 23.6802 4.65229 23.6343C4.62326 23.6095 4.52172 23.577 4.46367 23.5808C4.06212 23.5999 3.66059 23.6191 3.26873 23.6535C3.08489 23.6688 2.94452 23.6726 2.82841 23.6152C2.74616 23.577 2.7897 23.5253 2.94451 23.4699C3.07997 23.4221 3.11872 23.3666 3.10904 23.3016C3.08485 23.1506 2.93969 23.1066 2.47525 23.1162C2.14144 23.1238 2.05919 23.099 1.98663 22.9689C1.96727 22.9383 1.91898 22.8963 1.95285 22.8752C2.16087 22.7452 2.29634 22.5846 2.68821 22.5234C2.84302 22.5005 3.00744 22.5005 3.1042 22.4508C3.20096 22.4011 3.28808 22.3437 3.38967 22.2959C3.51546 22.2385 3.60246 22.185 3.5444 22.1487C3.44764 22.0837 3.29288 22.0779 3.11388 22.1009C2.95907 22.12 2.79459 22.1219 2.63494 22.1334C2.34951 22.1544 2.11734 22.1047 2.08348 22.0205C1.99156 21.7987 1.89477 21.5789 1.81253 21.3571C1.80285 21.3303 1.82698 21.2959 1.86568 21.2729C2.00114 21.1926 2.14633 21.1161 2.28663 21.0377C2.45112 20.9479 2.7124 20.9651 2.93494 20.9479C3.24941 20.923 3.2493 20.9249 3.67019 20.7414C3.83468 20.6687 4.12013 20.6974 4.28945 20.6324C4.34267 20.6113 4.42491 20.5769 4.4104 20.5578C4.39105 20.5329 4.29434 20.5138 4.22177 20.5023C4.15404 20.4909 4.07182 20.4851 3.99925 20.4909C3.11876 20.5463 2.24313 20.6056 1.36264 20.6591C1.21267 20.6687 1.04818 20.6266 0.994959 20.5674C0.941743 20.5119 0.956209 20.445 0.946533 20.3819C1.08683 20.3035 1.24642 20.2308 1.36737 20.1467C1.45928 20.0817 1.56574 20.053 1.74958 20.0492C1.99147 20.0434 2.22855 20.0205 2.49947 20.0033C3.0026 19.7241 3.49603 19.4316 4.03787 19.1524C4.25558 19.0396 4.20244 18.9249 4.24599 18.8044C4.28953 18.6935 4.61364 18.7107 4.83135 18.6782C5.00551 18.6515 5.06349 18.5903 4.99576 18.5482C4.95706 18.5234 4.87002 18.4947 4.80229 18.4947C4.64264 18.4947 4.483 18.5119 4.32335 18.5214C4.1637 18.531 3.97987 18.5253 3.84925 18.5578C3.72346 18.5884 3.64117 18.6534 3.55893 18.7088C3.46701 18.77 3.34615 18.7911 3.16231 18.7949C2.92525 18.7987 2.68821 18.8159 2.45116 18.8293C2.18991 18.7547 1.91894 18.6821 1.66737 18.6037C1.61899 18.5884 1.60926 18.5444 1.6141 18.5157C1.62378 18.4411 1.55123 18.3952 1.39158 18.3589C1.25612 18.3283 1.14484 18.2844 1.01905 18.2461C1.11581 18.1945 1.22228 18.1448 1.29969 18.0893C1.46901 17.9727 1.6819 17.8886 2.04958 17.8924C2.19471 17.8178 2.31079 17.726 2.49947 17.6744C2.67847 17.6247 2.98327 17.6744 3.11873 17.5616C3.18646 17.5061 3.28811 17.443 3.41873 17.4201C3.62676 17.3838 3.89767 17.4029 4.01862 17.2958C4.09119 17.2346 4.19758 17.1792 4.33788 17.1639C4.49753 17.1467 4.66197 17.1428 4.77808 17.1065C4.84097 17.0874 4.90871 17.0568 4.90871 17.03C4.90871 17.0128 4.81203 16.986 4.7443 16.9746C4.68141 16.9612 4.59907 16.9516 4.5265 16.9555C4.28461 16.9669 4.04756 16.988 3.80566 16.9994C3.73793 17.0033 3.66055 16.9899 3.58798 16.9784C3.37512 16.9478 3.3896 16.9096 3.55893 16.8407C3.72825 16.7738 3.84927 16.6878 3.98956 16.6094C4.14438 16.596 4.33786 16.6017 4.44429 16.5654C4.6233 16.5061 4.74905 16.4201 4.89418 16.3455C5.05383 16.334 5.21831 16.3302 5.36828 16.3092C5.43118 16.3015 5.46023 16.2595 5.51344 16.2346C5.6102 16.1868 5.69251 16.118 5.82313 16.095C6.036 16.0606 6.29724 16.074 6.42302 15.9688C6.49559 15.9076 6.60682 15.8426 6.74228 15.8388C7.11963 15.8312 7.27928 15.726 7.4728 15.6266C7.61793 15.552 7.92757 15.5902 8.08722 15.5157C8.19365 15.4679 8.2711 15.4086 8.37753 15.3627C8.42107 15.3436 8.51296 15.334 8.58553 15.3283C8.98223 15.2996 9.38376 15.2786 9.78047 15.248C9.84336 15.2422 9.90146 15.2136 9.94984 15.1906C10.0514 15.1409 10.1143 15.0721 10.24 15.0396C10.3658 15.007 10.5448 15.0071 10.6996 14.9975C11.1979 14.9688 11.2367 14.9764 11.464 14.8139C11.6479 14.682 12.0978 14.7757 12.2478 14.6304C12.3349 14.5462 12.4945 14.4774 12.7799 14.4678C13.1815 14.4545 13.5782 14.4181 13.9797 14.3933C14.3377 14.3703 14.3329 14.3703 14.7199 14.1925C14.8941 14.1122 15.1505 14.1237 15.3779 14.1084C15.6198 14.0931 15.8423 14.0701 15.9584 13.9745C16.0745 13.8808 16.2874 13.8502 16.5341 13.8369C16.7615 13.8235 17.0179 13.833 17.1969 13.7566C17.6323 13.573 17.6275 13.5711 17.9323 13.552C18.4113 13.5214 18.8902 13.4908 19.3691 13.4583C19.6884 13.4372 20.0222 13.4334 20.3222 13.3913C20.5399 13.3608 20.6366 13.2537 20.7769 13.1791C21.1736 13.1504 21.5703 13.1217 21.967 13.095C22.5234 13.0567 23.0845 13.0223 23.6457 12.986C23.8876 12.9133 23.9216 12.7527 24.3279 12.7451C24.5698 12.7412 24.8069 12.7164 25.0488 12.7011C25.4503 12.6743 25.847 12.6399 26.2486 12.6265C26.5533 12.617 26.6065 12.5137 26.7661 12.4487C26.8193 12.4257 26.8678 12.3932 26.9306 12.3875C27.5596 12.334 28.2078 12.3225 28.8222 12.2441C28.8851 12.2365 28.9432 12.1963 28.9577 12.1676C28.9674 12.1523 28.8851 12.1236 28.8319 12.1103C28.769 12.095 28.6868 12.0797 28.6191 12.0835C26.621 12.2116 24.623 12.3416 22.625 12.4697C22.3444 12.4889 22.3444 12.4869 21.6623 12.6973C21.6042 12.7145 21.5364 12.7336 21.4638 12.7393C21.1445 12.7623 20.8204 12.7757 20.506 12.8043C20.2496 12.8273 20.0368 12.8043 19.8529 12.7355C19.7223 12.6858 19.5868 12.6705 19.4223 12.6743C19.2384 12.6801 19.1176 12.7011 19.0111 12.7527C18.8708 12.8235 18.7982 12.9152 18.5031 12.9344C17.1437 13.0166 15.7842 13.1084 14.4296 13.1963C14.2409 13.1695 14.149 13.1294 14.1974 13.0816C14.2264 13.0529 14.2845 13.0147 14.3425 13.0108C14.8989 12.9707 15.4601 12.9363 16.0164 12.898C16.0938 12.8923 16.2002 12.8961 16.2438 12.877C16.4566 12.7909 16.5341 12.6514 16.9357 12.6418C17.1679 12.6361 17.4049 12.6074 17.6275 12.5806C17.6903 12.573 17.7484 12.5328 17.7629 12.5041C17.7678 12.4888 17.6904 12.4602 17.6323 12.4468C17.4194 12.3913 17.1728 12.4583 16.9599 12.42C16.8873 12.4066 16.7857 12.3875 16.7711 12.3646C16.7615 12.3435 16.8437 12.3091 16.9018 12.2881C16.955 12.269 17.0275 12.2518 17.1001 12.246C17.7387 12.202 18.3774 12.1561 19.016 12.1217C19.2772 12.1083 19.461 12.0605 19.5771 11.9726C19.6642 11.9076 19.7706 11.8732 19.9351 11.8636C21.0527 11.7929 22.1702 11.7145 23.2926 11.6494C23.5732 11.6342 23.7184 11.5711 23.8345 11.4888C23.9264 11.4238 24.0328 11.4009 24.2118 11.3894C25.8132 11.29 27.4048 11.1791 29.0061 11.0835C29.3012 11.0663 29.3883 10.984 29.5383 10.9133C29.5915 10.8884 29.6253 10.8579 29.693 10.8426C29.7608 10.8273 29.8479 10.8292 29.9301 10.8253C31.2073 10.7431 32.4846 10.6552 33.7666 10.5787C34.0665 10.5615 34.1245 10.4659 34.2793 10.3989C34.3325 10.3779 34.381 10.3435 34.4439 10.3378C35.4017 10.2728 36.3596 10.2116 37.3175 10.1485C37.9561 10.1064 38.5947 10.0643 39.2333 10.0242C39.5477 10.0051 39.5478 10.0031 39.9735 9.82149C40.0219 9.80046 40.0897 9.7756 40.1525 9.76986C41.9909 9.64749 43.8244 9.53087 45.6628 9.41041C45.8176 9.40085 45.9289 9.35685 46.0063 9.29184C46.0837 9.22683 46.1951 9.18286 46.345 9.1733C47.7819 9.07769 49.2187 8.98401 50.6604 8.89414C50.9216 8.87884 51.1054 8.83295 51.2215 8.74691C51.3086 8.6819 51.415 8.64749 51.5795 8.63793C53.0163 8.54615 54.4533 8.44862 55.895 8.36066C56.1707 8.34345 56.3061 8.27845 56.4416 8.20197C56.49 8.1752 56.5287 8.13122 56.5867 8.12739C57.3027 8.07386 58.0139 8.0184 58.7347 7.98208C59.0347 7.96678 59.1363 7.88647 59.2572 7.80998C59.354 7.7488 59.4653 7.72777 59.6491 7.72012C60.0507 7.70291 60.4474 7.67042 60.8392 7.63792C60.8973 7.63218 60.9699 7.59011 60.9747 7.56334C60.9844 7.51363 60.8731 7.4792 60.6892 7.462C58.7734 7.58628 56.8529 7.71056 54.9371 7.83484C54.6226 7.85587 54.6226 7.85589 54.1969 8.03753C54.1485 8.05857 54.0807 8.08343 54.013 8.08916C52.1746 8.20962 50.3411 8.32817 48.5027 8.44863C48.3479 8.45819 48.2366 8.50217 48.1592 8.56718C48.0818 8.63219 47.9705 8.67617 47.8205 8.68573C46.0643 8.80045 44.3082 8.9171 42.5473 9.02608C42.286 9.04138 42.1022 9.08534 41.9861 9.1733C41.899 9.23831 41.7926 9.27274 41.6281 9.2823C39.9494 9.38937 38.2754 9.50217 36.5918 9.60543C36.4225 9.61499 36.2968 9.55953 36.3065 9.50791C36.3113 9.48114 36.3838 9.43718 36.4418 9.43336C37.3175 9.37026 38.1884 9.30524 39.0689 9.25744C39.364 9.24214 39.451 9.15801 39.601 9.08726C39.6493 9.0624 39.6881 9.0299 39.751 9.01651C39.8187 9.00122 39.9058 9.00314 39.988 8.99931C42.0635 8.86355 44.139 8.72589 46.2192 8.59778C46.5192 8.57866 46.5772 8.48496 46.732 8.41803C46.7852 8.39509 46.8336 8.36068 46.8965 8.35686C47.5351 8.31097 48.1737 8.27081 48.8123 8.23065C49.9298 8.158 51.0473 8.08533 52.1697 8.01267C52.4938 7.99164 52.4939 7.99163 52.9099 7.8119C52.9583 7.79086 53.0261 7.76412 53.089 7.76029C56.0449 7.56717 59.0009 7.37405 61.9568 7.18284C62.1116 7.17328 62.2229 7.1293 62.3003 7.06429C62.3777 7.00119 62.4889 6.9553 62.6389 6.94383C66.635 6.68379 70.6262 6.42373 74.6223 6.16752C74.8835 6.15031 75.0673 6.11015 75.1834 6.02028C75.2657 5.95527 75.3769 5.92086 75.5414 5.90939C79.9342 5.62449 84.327 5.3396 88.7246 5.05278C91.6805 4.86158 94.6365 4.66654 97.5924 4.47916C97.8633 4.46195 98.0084 4.40267 98.1439 4.32427C98.1874 4.2975 98.231 4.25352 98.289 4.2497C98.9228 4.2019 99.5565 4.15793 100.19 4.11395C100.389 4.16557 100.587 4.2153 100.785 4.26692C100.935 4.19426 101.081 4.11969 101.23 4.04703C102.188 3.99158 103.132 3.90554 104.099 3.87877C104.162 3.87685 104.23 3.91319 104.298 3.93231C104.748 4.05277 105.004 4.04321 105.289 3.88259C105.391 3.82523 105.478 3.77361 105.633 3.76405C106.112 3.72963 106.596 3.70668 107.07 3.66653C107.326 3.6455 107.539 3.66461 107.723 3.73345C107.853 3.78316 107.989 3.80421 108.149 3.79273C109.029 3.73537 109.905 3.67991 110.785 3.61873C110.848 3.6149 110.906 3.58239 110.955 3.55944C111.056 3.50973 111.143 3.4562 111.24 3.40458C111.371 3.43708 111.516 3.46194 111.622 3.50401C111.758 3.55372 111.883 3.55371 112.067 3.54033C115.58 3.30896 119.097 3.08334 122.609 2.85007C122.909 2.83095 123.04 2.91126 123.243 2.95333C123.31 2.96863 123.378 2.98774 123.451 2.99156C123.528 2.99538 123.61 2.98392 123.688 2.97819C126.324 2.8061 128.961 2.63591 131.598 2.46383C131.946 2.44088 131.946 2.44088 132.464 2.55943C132.527 2.57473 132.609 2.59194 132.677 2.5862C133.876 2.51163 135.076 2.43133 136.271 2.35485C136.426 2.34529 136.557 2.37587 136.697 2.41985C136.973 2.5059 136.992 2.5059 137.195 2.37971C137.292 2.32043 137.393 2.28408 137.553 2.26688C137.727 2.24776 137.868 2.25351 138.003 2.28793C138.197 2.33573 138.337 2.41603 138.632 2.39499C139.909 2.30513 141.191 2.23056 142.464 2.13878C142.754 2.11775 142.909 2.18276 143.102 2.23056C143.17 2.24777 143.233 2.27454 143.305 2.28027C143.378 2.28601 143.465 2.27261 143.542 2.26688C145.139 2.16362 146.74 2.0623 148.332 1.9514C148.632 1.93037 148.762 2.01257 148.966 2.05464C149.033 2.06994 149.111 2.09672 149.174 2.09289C150.131 2.03362 151.094 1.9705 152.052 1.9074C152.396 1.88446 152.396 1.88637 152.918 2.00301C152.981 2.01831 153.063 2.0336 153.131 2.02978C154.249 1.95903 155.371 1.88637 156.488 1.81371C156.832 1.79077 156.832 1.79077 157.824 1.8902C157.896 1.89785 157.974 1.90934 158.046 1.90551C159.323 1.82329 160.605 1.74298 161.883 1.65502C162.139 1.63781 162.352 1.6531 162.536 1.72194C162.666 1.77165 162.802 1.7927 162.961 1.78122C164.398 1.68753 165.84 1.59767 167.272 1.49824C167.548 1.47912 167.727 1.52117 167.92 1.57662C167.983 1.59574 168.046 1.62251 168.119 1.63016C168.191 1.63781 168.274 1.63016 168.351 1.62442C169.788 1.53073 171.229 1.44278 172.661 1.34144C172.952 1.3204 173.107 1.38541 173.3 1.43321C173.368 1.45042 173.44 1.48484 173.498 1.48293C174.06 1.45042 174.621 1.42175 175.177 1.37395C175.477 1.34718 175.608 1.43512 175.811 1.47719C175.879 1.49057 175.956 1.51927 176.019 1.51544C177.219 1.44087 178.419 1.36248 179.613 1.28218C179.783 1.2707 179.909 1.2879 180.044 1.33761C180.223 1.40453 180.431 1.4313 180.692 1.41027C181.249 1.36629 181.81 1.33571 182.371 1.29938C182.7 1.27834 182.7 1.27835 183.706 1.37778C183.779 1.38543 183.856 1.39689 183.929 1.39307C184.887 1.33188 185.849 1.27261 186.802 1.20569C187.059 1.18657 187.272 1.20377 187.456 1.27261C187.586 1.32232 187.717 1.34336 187.881 1.33189C188.762 1.27453 189.638 1.21716 190.518 1.1598C190.837 1.13877 191.157 1.10243 191.476 1.10243C191.708 1.10434 191.877 1.19612 192.085 1.24201C192.144 1.25539 192.24 1.24011 192.318 1.23629C193.435 1.16363 194.558 1.0967 195.67 1.01448C195.961 0.993447 196.115 1.05845 196.309 1.10626C196.377 1.12346 196.449 1.15788 196.507 1.15597C196.909 1.13494 197.305 1.10626 197.707 1.0814C198.186 1.0508 198.67 1.02786 199.144 0.985794C199.531 0.951377 199.676 1.11772 199.986 1.12346C200.223 1.12919 200.465 1.09669 200.702 1.0814C201.181 1.0508 201.66 1.01639 202.138 0.989622C202.308 0.980062 202.439 0.949455 202.492 0.880621C202.501 0.867236 202.419 0.838567 202.366 0.821359C201.723 0.626327 201.722 0.626317 201.074 0.668383C200.673 0.695152 200.276 0.721926 199.874 0.744871C199.807 0.748695 199.729 0.733399 199.662 0.721927C199.468 0.689422 199.487 0.651184 199.652 0.582349C199.816 0.513514 199.942 0.42939 200.082 0.350995C200.281 0.400709 200.474 0.450405 200.673 0.500119C200.832 0.490559 200.992 0.479103 201.152 0.469543C201.95 0.419829 202.748 0.368199 203.546 0.322309C203.604 0.318485 203.677 0.356732 203.745 0.375853C203.938 0.431303 204.112 0.479092 204.393 0.458059C205.109 0.402609 205.83 0.362456 206.546 0.314654C206.86 0.293621 206.86 0.293623 207.412 0.412171C207.475 0.425556 207.557 0.440853 207.625 0.437029C208.345 0.393052 209.061 0.345255 209.782 0.299365C209.937 0.289805 210.087 0.314661 210.198 0.370111C210.242 0.393056 210.232 0.43129 210.416 0.744871C210.987 0.999177 211.379 0.972421 211.776 0.949476C211.945 0.939916 212.095 0.930346 212.206 0.892104C212.264 0.871072 212.337 0.840474 212.337 0.815617C212.337 0.796496 212.23 0.765897 212.163 0.762073C211.684 0.723831 211.229 0.80415 210.76 0.821359C210.542 0.829007 210.353 0.762083 210.314 0.653095C210.305 0.622502 210.29 0.589998 210.276 0.559405C210.261 0.528812 210.252 0.496308 210.237 0.465715C210.048 0.456155 209.937 0.490567 209.855 0.555577C209.787 0.609115 209.69 0.670302 209.56 0.698983C209.429 0.729576 209.25 0.72385 209.091 0.733411C208.936 0.742971 208.766 0.767825 208.621 0.754441C208.476 0.739144 208.36 0.683684 208.225 0.649267C208.162 0.632058 208.084 0.607211 208.021 0.611035C207.465 0.64354 206.914 0.676033 206.362 0.718099C206.072 0.741044 205.927 0.660749 205.743 0.611035C205.598 0.572793 205.452 0.582342 205.428 0.670297C205.365 0.880625 205.588 0.968576 206.081 0.928423C206.488 0.894005 206.855 0.888287 207.175 1.01831C207.218 1.03552 207.32 1.04316 207.383 1.03934C207.779 1.01639 208.171 0.987709 208.568 0.964764C208.641 0.96094 208.718 0.968576 208.786 0.976225C209.773 1.07948 209.773 1.0814 210.107 1.05845C210.266 1.04698 210.421 1.03742 210.406 0.746785C210.711 0.435116 211.195 0.414087 211.664 0.368197C211.969 0.339516 212.1 0.423651 212.298 0.467629C212.366 0.482926 212.438 0.513513 212.501 0.509689C213.541 0.446591 214.577 0.379659 215.612 0.308912C215.786 0.297439 215.912 0.308914 216.047 0.358628C216.221 0.421726 216.415 0.461888 216.691 0.438943C217.242 0.393053 217.803 0.364379 218.365 0.326137C218.65 0.307017 218.65 0.306997 219.226 0.425546C219.289 0.43893 219.371 0.454228 219.439 0.450404C220 0.417898 220.556 0.377757 221.113 0.343339C221.267 0.333779 221.408 0.360545 221.529 0.412171C221.65 0.463797 221.795 0.490564 221.945 0.481003C222.506 0.446586 223.062 0.408357 223.619 0.373939C223.686 0.370115 223.769 0.383499 223.831 0.396883C224.422 0.515432 224.422 0.515412 224.693 0.496292C225.089 0.46761 225.496 0.454241 225.888 0.415999C226.27 0.377758 226.468 0.488649 226.729 0.549835C227.445 0.505858 228.166 0.469537 228.877 0.415999C229.168 0.393054 229.322 0.456147 229.516 0.505861C229.584 0.52307 229.651 0.559403 229.714 0.557491C229.956 0.549843 230.193 0.528814 230.43 0.513517C230.667 0.49822 230.909 0.482926 231.146 0.467629C231.417 0.523079 231.596 0.653099 231.983 0.609121C232.215 0.582352 232.462 0.576616 232.699 0.561319C232.936 0.546022 233.178 0.530728 233.415 0.515431C233.575 0.505871 233.739 0.500126 233.894 0.482917C234.18 0.454236 234.32 0.547939 234.523 0.590005C234.591 0.603389 234.668 0.626319 234.731 0.622495C235.21 0.595726 235.694 0.572783 236.163 0.528805C236.526 0.494388 236.773 0.551758 237.029 0.632065C237.082 0.649274 237.174 0.658833 237.242 0.655009C237.803 0.622504 238.359 0.582339 238.916 0.547921C239.066 0.538361 239.211 0.568953 239.332 0.618667C239.458 0.670293 239.598 0.695169 239.753 0.685609C240.309 0.651191 240.87 0.612938 241.427 0.578521C241.495 0.574697 241.577 0.589996 241.64 0.605293C242.181 0.723842 242.181 0.725756 242.501 0.702811C242.578 0.697075 242.66 0.693235 242.738 0.687499C243.135 0.66073 243.546 0.651183 243.933 0.605293C244.378 0.553667 244.702 0.61868 245.016 0.727669C245.413 0.704724 245.82 0.691336 246.207 0.653095C246.497 0.624414 246.652 0.697069 246.845 0.744871C246.913 0.76208 246.985 0.796497 247.043 0.792673C247.605 0.760167 248.166 0.731497 248.717 0.683695C249.017 0.656926 249.148 0.742953 249.351 0.786931C249.419 0.802227 249.491 0.829011 249.554 0.825186C249.874 0.80989 250.193 0.786934 250.512 0.765901C250.885 0.741044 250.885 0.742954 251.378 0.859591C251.61 0.915041 251.843 0.871061 252.07 0.857677C252.312 0.84238 252.539 0.830911 252.733 0.909307C252.854 0.959021 252.999 0.989615 253.149 0.981966C253.468 0.964758 253.792 0.947557 254.107 0.918876C254.358 0.895931 254.576 0.91122 254.76 0.981966C254.89 1.03168 255.026 1.05655 255.186 1.04508C255.902 0.99919 256.622 0.95137 257.338 0.907393C257.401 0.903569 257.488 0.920784 257.546 0.937992C257.682 0.97241 257.813 1.01064 257.943 1.04888C258.258 1.03168 258.582 1.02405 258.891 0.997278C259.22 0.970509 259.52 0.960946 259.777 1.06611C259.83 1.08905 259.907 1.12154 259.97 1.11963C260.212 1.11198 260.449 1.09287 260.686 1.07757C260.923 1.06227 261.165 1.04698 261.402 1.03168C261.678 1.07948 261.852 1.21715 262.239 1.17317C262.471 1.14641 262.718 1.14067 262.955 1.12537C263.192 1.11008 263.434 1.09287 263.671 1.07948C263.749 1.07566 263.836 1.06609 263.903 1.07374C263.976 1.08139 264.039 1.10817 264.102 1.12729C264.295 1.18274 264.474 1.23819 264.75 1.20569C264.982 1.17892 265.229 1.17318 265.466 1.15597C265.79 1.13494 265.79 1.13494 266.327 1.2554C266.545 1.30512 266.792 1.24011 267 1.28218C267.14 1.31086 267.261 1.35865 267.396 1.39115C267.454 1.40454 267.546 1.41027 267.614 1.40644C267.933 1.38923 268.257 1.37203 268.572 1.34335C268.828 1.32041 269.041 1.34335 269.22 1.41218C269.351 1.4619 269.481 1.48294 269.646 1.47147C270.444 1.41793 271.243 1.37203 272.036 1.31275C272.307 1.29172 272.524 1.32423 272.674 1.39307C272.931 1.51162 273.294 1.37204 273.56 1.46764C273.724 1.52692 273.889 1.59575 274.189 1.56707C274.74 1.51736 275.301 1.49058 275.858 1.45616C276.056 1.50778 276.254 1.55942 276.458 1.61105C276.777 1.59001 277.096 1.56897 277.416 1.54985C277.653 1.53455 277.895 1.51734 278.132 1.50396C278.209 1.50014 278.291 1.49249 278.364 1.50205C278.436 1.51161 278.494 1.53647 278.562 1.55559C278.896 1.64928 278.896 1.6512 279.447 1.61296C279.684 1.59575 279.912 1.58428 280.11 1.66076C280.294 1.73151 280.512 1.74489 280.763 1.72385C281.237 1.68561 281.716 1.65693 282.2 1.63016C282.35 1.6206 282.49 1.65311 282.616 1.70282C282.805 1.78122 283.037 1.77357 283.274 1.75254C283.589 1.72577 283.898 1.69901 284.164 1.80608C284.218 1.82903 284.3 1.86152 284.358 1.8596C284.755 1.84431 285.156 1.83284 285.543 1.79651C285.93 1.76018 286.119 1.87873 286.385 1.93609C286.782 1.91123 287.183 1.88637 287.58 1.86152C287.657 1.85578 287.749 1.83858 287.817 1.84814C288.102 1.8883 288.267 2.0317 288.659 1.98772C288.886 1.96286 289.133 1.95522 289.37 1.94949C289.433 1.94758 289.515 1.98007 289.559 2.00492C289.583 2.01831 289.559 2.05463 289.53 2.07375C289.443 2.12729 289.336 2.17702 289.259 2.23247C289.249 2.24012 289.341 2.27452 289.394 2.28982C289.525 2.32424 289.675 2.31851 289.849 2.30322C289.999 2.28983 290.154 2.3166 290.26 2.37396C290.304 2.39691 290.289 2.43515 290.197 2.56134C290.197 2.65504 290.299 2.61296 290.333 2.55177C290.386 2.46382 290.284 2.43514 290.091 2.48294C289.955 2.51736 289.888 2.56708 289.921 2.60723C289.941 2.62826 290.033 2.65504 290.197 2.56134C290.623 2.44662 290.942 2.4256 291.262 2.40456C291.344 2.39883 291.441 2.37969 291.499 2.39117C291.707 2.43706 291.9 2.49252 292.103 2.54414C292.336 2.53267 292.553 2.50397 292.781 2.57855C293.1 2.68371 293.114 2.67415 293.424 2.65312C293.584 2.64165 293.743 2.6321 293.903 2.62254C294.063 2.61298 294.188 2.64166 294.329 2.68563C294.614 2.7755 294.638 2.77549 294.827 2.65312C294.938 2.57855 295.016 2.5537 295.156 2.58812C295.62 2.70475 295.625 2.71239 296.022 2.67798C296.351 2.6493 296.661 2.64165 296.902 2.75064C297.067 2.82712 297.12 2.80991 297.251 2.72961C297.599 2.51737 297.759 2.52118 298.412 2.67415C298.717 2.74681 299.031 2.66842 299.341 2.65886C299.602 2.65121 299.786 2.69709 299.805 2.81755C299.82 2.89213 299.863 2.94567 300.037 2.97053C300.105 2.98009 300.187 2.99347 300.255 2.98965C300.657 2.9667 301.053 2.93993 301.455 2.91316C301.658 2.89977 301.769 2.80992 301.731 2.69137C301.687 2.56518 301.764 2.51927 302.055 2.48294C302.229 2.46191 302.369 2.46575 302.51 2.50017C302.664 2.53841 302.621 2.57282 302.485 2.64166C302.161 2.80992 302.2 2.91316 302.616 3.02979C302.761 3.06995 302.877 3.10629 302.911 3.16557C302.93 3.19616 302.911 3.23631 302.955 3.25926C303.192 3.38737 303.521 3.46959 303.888 3.53078C304.241 3.47915 304.483 3.56518 304.754 3.63402C304.967 3.68755 305.219 3.64168 305.446 3.62256C305.702 3.60152 305.915 3.61681 306.099 3.68756C306.23 3.73727 306.365 3.76021 306.525 3.75065C306.844 3.72962 307.168 3.71624 307.483 3.68565C307.754 3.65888 307.957 3.69712 308.126 3.76213C308.339 3.84435 308.576 3.78889 308.799 3.80037C309.099 3.81375 309.249 3.98392 309.641 3.93803C309.873 3.91126 310.115 3.9017 310.357 3.89405C310.419 3.89214 310.497 3.92465 310.55 3.9476C310.806 4.05276 311.106 4.04702 311.435 4.01643C311.663 3.9954 311.885 3.97629 312.108 4.04894C312.475 4.17132 312.882 4.2784 313.269 4.39121C313.322 4.47917 313.283 4.5824 313.559 4.63403C313.704 4.6608 313.84 4.70097 313.951 4.74494C314.087 4.79657 314.212 4.80996 314.386 4.79657C314.701 4.7698 315.03 4.76405 315.34 4.72963C315.625 4.69904 315.804 4.76216 315.978 4.82143C316.118 4.86923 316.249 4.89217 316.418 4.85775C316.593 4.82524 316.718 4.84627 316.859 4.89789C317.057 4.96864 317.072 4.96101 317.729 4.98204C317.797 4.98395 317.879 5.01262 317.918 5.03747C317.937 5.05086 317.894 5.08912 317.86 5.10824C317.817 5.13119 317.749 5.15794 317.686 5.16368C316.97 5.21339 316.249 5.25737 315.533 5.30708C315.46 5.31282 315.383 5.32622 315.33 5.34534C315.272 5.36637 315.199 5.39503 315.199 5.4218C315.199 5.44092 315.296 5.46388 315.364 5.47726C315.577 5.52124 315.828 5.45432 316.036 5.50403C316.177 5.53654 316.293 5.58242 316.433 5.61301C316.491 5.62639 316.583 5.62449 316.655 5.62067C316.897 5.60728 317.134 5.58816 317.376 5.57669C317.444 5.57478 317.521 5.59391 317.584 5.60921C318.049 5.72393 318.049 5.72392 318.45 5.69907C318.61 5.68951 318.779 5.66082 318.929 5.6723C319.074 5.68377 319.2 5.73539 319.331 5.7679C319.602 5.83673 319.858 5.90365 319.877 6.0528C319.887 6.11016 320.047 6.15986 320.206 6.16369C320.361 6.16751 320.526 6.1465 320.685 6.13503C321.063 6.11208 321.063 6.11208 321.551 6.22872C321.687 6.26122 321.832 6.26504 322.006 6.24592C322.074 6.23827 322.156 6.24593 322.229 6.25549C322.466 6.28417 322.466 6.32049 322.311 6.38932C322.093 6.49066 322.112 6.50023 322.722 6.58627C322.954 6.61878 323.133 6.67997 323.327 6.73351C323.641 6.81955 323.637 6.81953 323.428 6.93235C323.38 6.9572 323.337 6.98398 323.288 7.01075C323.148 7.08532 323.037 7.16562 322.746 7.17327C322.427 7.18092 322.108 7.21152 321.788 7.23256C321.479 7.25359 321.397 7.29946 321.426 7.42948C321.459 7.58627 321.522 7.60349 322.079 7.60157C322.238 7.60157 322.379 7.61687 322.5 7.66849C322.441 7.72968 322.335 7.77748 322.18 7.78895C321.784 7.81763 321.382 7.8425 320.985 7.86736C320.666 7.88839 320.347 7.90941 320.027 7.93045C319.829 7.94383 319.703 8.04327 319.757 8.15417C319.786 8.21727 319.81 8.28036 319.834 8.34346C319.887 8.46966 319.989 8.50217 320.313 8.49644C320.395 8.49452 320.472 8.47921 320.55 8.48304C320.864 8.49642 321.014 8.65512 321.392 8.62262C321.706 8.59585 322.035 8.59012 322.345 8.5557C322.63 8.5251 322.79 8.59396 322.988 8.64558C323.056 8.66279 323.129 8.6991 323.187 8.69719C323.588 8.67616 323.99 8.65514 324.382 8.61881C324.565 8.60351 324.677 8.61498 324.822 8.66087C325.17 8.77177 325.18 8.76604 325.697 8.73162C326.075 8.70485 326.08 8.70867 326.563 8.82531C326.699 8.85781 326.844 8.85781 327.018 8.84251C327.246 8.82339 327.483 8.7928 327.72 8.82148C327.792 8.82913 327.884 8.85208 327.908 8.87694C327.923 8.89415 327.855 8.93621 327.797 8.9496C327.371 9.04902 326.873 9.03182 326.409 9.07197C326.263 9.08344 326.118 9.04711 325.997 8.99549C325.871 8.94386 325.736 8.92283 325.572 8.93239C325.252 8.95343 324.928 8.96681 324.614 8.9974C324.343 9.02417 324.154 8.98019 323.965 8.92091C323.903 8.90179 323.83 8.86546 323.767 8.86737C323.051 8.90561 322.33 8.94386 321.619 8.9974C321.334 9.02034 321.169 8.95916 320.976 8.90754C320.908 8.89033 320.84 8.854 320.777 8.85591C320.535 8.86355 320.298 8.88458 320.056 8.89988C319.176 8.95724 318.3 9.01461 317.42 9.06814C317.362 9.07197 317.289 9.03181 317.221 9.0146C317.091 8.98018 316.955 8.94767 316.82 8.91517C316.578 8.93047 316.341 8.94958 316.099 8.96106C315.925 8.96871 315.77 8.99549 315.746 9.06814C315.731 9.11595 315.891 9.15992 316.06 9.15609C316.225 9.15227 316.389 9.12932 316.525 9.15418C317.197 9.27655 317.197 9.27847 317.618 9.25361C317.986 9.23067 317.947 9.21154 318.271 9.3167C318.412 9.36259 318.537 9.38937 318.697 9.3779C319.094 9.35113 319.495 9.32436 319.897 9.30141C319.96 9.29759 320.042 9.31672 320.105 9.33201C320.579 9.44674 320.579 9.45055 320.971 9.42187C321.484 9.38746 321.503 9.3779 321.846 9.49453C322.084 9.57484 322.301 9.51939 322.529 9.51556C322.79 9.59013 323.075 9.65707 323.312 9.7412C323.593 9.84063 323.888 9.8234 324.207 9.79472C324.444 9.77369 324.677 9.76604 324.87 9.84444C325.054 9.91709 325.276 9.92476 325.528 9.90563C325.755 9.88843 325.988 9.85209 326.225 9.89415C326.288 9.90562 326.384 9.93431 326.379 9.95152C326.375 9.97829 326.312 10.0165 326.249 10.028C325.804 10.1064 325.315 10.1045 324.846 10.1408C324.783 10.1466 324.701 10.1255 324.638 10.1102C324.502 10.0758 324.372 10.0357 324.241 9.99932C324.004 10.0108 323.762 10.0146 323.53 10.0376C323.351 10.0548 323.216 10.0529 323.085 10.007C322.964 9.96492 322.833 9.91328 322.688 9.89989C322.543 9.88651 322.374 9.91519 322.214 9.92667C322.055 9.93814 321.871 9.93239 321.745 9.96298C321.619 9.99358 321.542 10.0605 321.459 10.114C321.368 10.1733 321.242 10.1925 321.058 10.1982C320.889 10.2039 320.753 10.1963 320.627 10.1427C320.574 10.1198 320.501 10.1026 320.429 10.0873C320.361 10.0739 320.284 10.0528 320.221 10.0567C319.5 10.1007 318.784 10.1485 318.063 10.1944C317.705 10.2173 317.71 10.2173 316.965 10.1045C316.897 10.0949 316.815 10.0815 316.747 10.0854C316.346 10.1083 315.949 10.1351 315.548 10.1618C315.141 10.1886 315.146 10.1848 314.454 10.0643C314.328 10.0414 314.145 10.072 313.995 10.0682C313.68 10.0586 313.525 9.89799 313.158 9.92858C312.843 9.95535 312.514 9.96108 312.2 9.9955C311.914 10.0261 311.75 9.95918 311.556 9.90755C311.489 9.89034 311.416 9.85209 311.358 9.85592C310.637 9.89798 309.921 9.94579 308.963 9.95152C308.726 9.95152 308.833 9.99168 308.987 10.0051C309.21 10.0261 309.283 9.98595 309.162 9.90946C309.075 9.85592 308.949 9.82914 308.847 9.84252C308.794 9.85017 308.726 9.88651 308.963 9.95152C309.215 10.0242 309.2 10.0643 309.244 10.0873C309.35 10.1427 309.5 10.1657 309.655 10.158C309.897 10.1446 310.134 10.1255 310.376 10.114C310.444 10.1102 310.526 10.1236 310.589 10.1389C311.121 10.2575 311.126 10.2651 311.692 10.2192C311.871 10.2058 312.001 10.2058 312.142 10.2422C312.335 10.2919 312.476 10.376 312.771 10.3492C313.163 10.3129 313.564 10.2919 313.966 10.2708C314.029 10.267 314.096 10.3014 314.169 10.3167C314.367 10.3626 314.512 10.4487 314.807 10.4123C315.035 10.3837 315.281 10.376 315.523 10.3703C315.586 10.3683 315.683 10.3989 315.712 10.4238C315.77 10.4678 315.698 10.5194 315.533 10.5557C315.465 10.571 315.373 10.5672 315.296 10.5729C314.977 10.594 314.657 10.6169 314.338 10.6341C314.169 10.6437 314.009 10.6724 313.99 10.7431C313.975 10.7909 314.149 10.833 314.314 10.8292C314.556 10.8234 314.798 10.8081 315.03 10.7833C315.441 10.7412 315.799 10.7527 316.133 10.8731C316.37 10.9573 316.355 10.9267 316.607 11.1753C316.67 11.2384 316.859 11.2441 317.023 11.2403C317.42 11.2307 317.604 11.2594 317.57 11.3187C317.526 11.3913 317.386 11.4143 317.207 11.4238C316.888 11.4391 316.568 11.464 316.249 11.485C316.172 11.4907 316.085 11.5022 316.012 11.4984C315.939 11.4946 315.872 11.4716 315.809 11.4544C315.673 11.4181 315.557 11.3626 315.412 11.3492C315.267 11.3359 315.098 11.3645 314.938 11.376C314.778 11.3856 314.609 11.4143 314.464 11.4009C314.319 11.3875 314.198 11.3301 314.067 11.2957C314.004 11.2785 313.927 11.2517 313.864 11.2536C313.545 11.2689 313.225 11.2938 312.906 11.3129C312.514 11.3378 312.514 11.3378 312.04 11.2192C311.905 11.1848 311.764 11.1867 311.585 11.202C311.198 11.2326 311.194 11.2269 310.487 11.116C310.419 11.1045 310.337 11.0911 310.269 11.0969C309.549 11.1408 308.833 11.1886 308.117 11.2345C307.502 11.2747 307.502 11.2747 307.164 11.4659C306.912 11.6074 306.907 11.6074 307.154 11.6724C307.352 11.7259 307.531 11.8043 307.749 11.833C307.952 11.8598 308.204 11.7737 308.426 11.8617C308.538 11.9057 308.683 11.9535 308.823 11.9611C309.045 11.9707 309.283 11.9152 309.495 11.9993C309.602 12.0414 309.762 12.0854 309.897 12.0873C310.134 12.0911 310.376 12.0605 310.613 12.0472C310.686 12.0433 310.768 12.0433 310.836 12.0529C310.908 12.0644 310.971 12.0873 311.034 12.1064C311.227 12.1714 311.435 12.202 311.687 12.1695C312.098 12.116 312.466 12.1428 312.785 12.2651C312.829 12.2823 312.935 12.2843 313.003 12.2766C313.177 12.2575 313.327 12.2556 313.458 12.2919C313.511 12.3072 313.588 12.334 313.579 12.3512C313.564 12.3798 313.506 12.4181 313.443 12.4277C312.988 12.4927 312.5 12.5003 312.03 12.5347C311.968 12.5386 311.89 12.5137 311.827 12.4965C311.692 12.4621 311.576 12.4047 311.431 12.3913C311.285 12.3779 311.116 12.4028 310.956 12.4124C310.797 12.4219 310.628 12.4506 310.482 12.4391C310.337 12.4258 310.202 12.3779 310.086 12.3359C309.95 12.2881 309.82 12.2824 309.641 12.3015C309.408 12.3263 309.166 12.3301 308.929 12.3435C308.799 12.3072 308.668 12.267 308.533 12.2326C308.47 12.2154 308.392 12.1944 308.325 12.1963C308.005 12.2116 307.686 12.2345 307.367 12.2556C307.047 12.2766 307.047 12.2766 306.506 12.1581C306.443 12.1447 306.36 12.1294 306.293 12.1332C305.891 12.1562 305.494 12.1848 305.093 12.2078C304.938 12.2173 304.798 12.1906 304.672 12.1389C304.551 12.0873 304.406 12.0586 304.256 12.0682C303.617 12.1083 302.979 12.1466 302.34 12.1944C302.084 12.2135 301.866 12.1963 301.692 12.1275C301.489 12.0491 301.261 12.0682 301.024 12.0835C300.487 12.1217 300.482 12.1198 300.139 12.0223C300.071 12.0032 300.004 11.9668 299.941 11.9688C299.384 11.9974 298.823 12.0242 298.272 12.0701C297.981 12.095 297.827 12.028 297.633 11.9783C297.565 11.9611 297.493 11.9248 297.435 11.9286C297.033 11.9496 296.632 11.9688 296.24 12.007C295.848 12.0452 295.698 11.8674 295.403 11.8693C295.001 11.8713 294.604 11.9152 294.208 11.942C293.888 11.963 293.569 11.9841 293.25 12.0051C292.931 12.0261 292.611 12.0433 292.292 12.0682C292.123 12.0816 291.997 12.0644 291.857 12.0166C291.678 11.9535 291.465 11.9038 291.271 11.8464C290.976 11.7642 290.976 11.7642 290.618 11.7871C290.541 11.7928 290.458 11.7967 290.381 11.8024C289.796 11.8445 289.796 11.8407 289.051 11.7202C289.017 11.7145 288.93 11.7355 288.896 11.7508C288.794 11.8005 288.702 11.854 288.61 11.9057C288.48 11.8751 288.32 11.8579 288.233 11.8139C287.986 11.6896 287.599 11.8598 287.348 11.7374C287.256 11.6915 287.096 11.6514 286.951 11.6399C286.801 11.6284 286.632 11.6552 286.477 11.6666C286.075 11.6953 286.075 11.6934 285.732 11.8636C285.558 11.9477 285.306 11.9324 285.079 11.9515C284.842 11.9726 284.614 11.9841 284.416 11.9057C284.237 11.8349 284.019 11.8177 283.763 11.8407C283.448 11.8693 283.124 11.8865 282.805 11.9037C282.737 11.9076 282.655 11.898 282.587 11.8865C281.847 11.7737 281.847 11.7718 281.489 11.7967C281.329 11.8082 281.165 11.812 281.01 11.8292C280.749 11.8598 280.551 11.8196 280.362 11.7584C280.299 11.7393 280.226 11.703 280.163 11.7049C279.844 11.7145 279.53 11.7317 279.215 11.7489C278.973 11.7623 278.731 11.7699 278.499 11.7967C278.112 11.8407 277.924 11.7164 277.657 11.659C277.261 11.6839 276.859 11.7011 276.463 11.7355C276.279 11.7508 276.158 11.7451 276.017 11.6992C275.838 11.6418 275.674 11.5768 275.384 11.6055C274.997 11.6437 274.59 11.6571 274.194 11.68C273.928 11.6208 273.734 11.5003 273.352 11.5443C273.12 11.571 272.873 11.5768 272.636 11.5921C272.317 11.6131 271.997 11.6322 271.678 11.6552C271.334 11.6781 271.339 11.6724 270.812 11.5596C270.507 11.4927 270.193 11.5672 269.883 11.5787C269.641 11.5883 269.52 11.6762 269.578 11.789C269.636 11.9018 269.506 11.9898 269.283 12.0051C268.727 12.0414 268.166 12.0796 267.609 12.1122C267.541 12.116 267.459 12.1026 267.396 12.0892C266.801 11.9688 266.801 11.9707 266.535 11.9879C266.139 12.0166 265.732 12.0319 265.34 12.0682C265.069 12.093 264.871 12.0529 264.697 11.9879C264.561 11.9382 264.436 11.9267 264.261 11.9382C262.346 12.0663 260.43 12.1848 258.519 12.3168C258.233 12.3359 258.069 12.2804 257.876 12.2288C257.808 12.2116 257.745 12.1753 257.677 12.1753C257.517 12.1753 257.358 12.1925 257.198 12.204C256.482 12.2498 255.766 12.3053 255.045 12.3397C254.741 12.355 254.658 12.443 254.528 12.5156C254.426 12.5711 254.31 12.594 254.131 12.6017C253.957 12.6093 253.831 12.5997 253.696 12.55C253.521 12.485 253.323 12.4449 253.052 12.4716C252.738 12.5022 252.418 12.5156 252.094 12.5367C251.93 12.5462 251.804 12.5806 251.751 12.6495C251.741 12.6609 251.843 12.6896 251.901 12.7068C252.094 12.7642 252.278 12.8311 252.496 12.8713C252.718 12.9114 252.96 12.8655 253.192 12.854C253.275 12.8502 253.352 12.8388 253.429 12.8407C253.502 12.8426 253.589 12.8521 253.642 12.8694C253.894 12.9554 254.16 13.0147 254.508 12.963C254.808 12.9879 254.963 13.1466 255.345 13.1045C255.578 13.0797 255.819 13.0682 256.061 13.0586C256.124 13.0567 256.192 13.0912 256.26 13.1084C256.453 13.1562 256.608 13.2326 256.898 13.2001C257.208 13.1657 257.537 13.16 257.851 13.1332C258.025 13.1179 258.151 13.1313 258.287 13.181C258.461 13.2441 258.659 13.2919 258.93 13.2613C259.162 13.2345 259.409 13.2288 259.646 13.2116C259.956 13.1906 259.956 13.1925 260.507 13.311C260.57 13.3244 260.652 13.3397 260.72 13.3359C261.122 13.3129 261.518 13.2843 261.92 13.2613C262.075 13.2518 262.225 13.2766 262.331 13.3321C262.375 13.355 262.36 13.3933 262.375 13.4258C261.576 13.4774 260.778 13.5214 259.985 13.5845C259.685 13.6093 259.549 13.5309 259.351 13.4869C259.283 13.4717 259.211 13.4392 259.148 13.443C258.587 13.4755 258.03 13.5099 257.474 13.552C257.3 13.5653 257.169 13.5577 257.039 13.5022C256.705 13.355 256.298 13.4353 255.921 13.4563C255.631 13.4716 255.539 13.5309 255.573 13.6571C255.616 13.8063 255.79 13.8522 256.235 13.8254C256.395 13.8158 256.555 13.8024 256.714 13.7948C256.869 13.7871 257.01 13.812 257.135 13.8636C257.256 13.9152 257.401 13.942 257.551 13.9344C257.871 13.9172 258.195 13.9 258.504 13.8713C258.761 13.8483 258.974 13.8674 259.153 13.9382C259.351 14.0166 259.583 13.9994 259.815 13.9822C260.357 13.9439 260.362 13.9459 260.701 14.0415C260.768 14.0606 260.836 14.0969 260.899 14.095C261.456 14.0663 262.017 14.0415 262.563 13.9956C262.849 13.9726 263.013 14.0338 263.202 14.0835C263.27 14.1007 263.337 14.139 263.4 14.1351C263.802 14.1141 264.203 14.0931 264.595 14.0567C264.779 14.0395 264.89 14.051 265.04 14.0969C265.398 14.2097 265.408 14.2059 265.916 14.1696C266.071 14.1581 266.24 14.1371 266.385 14.1523C266.53 14.1676 266.646 14.2231 266.782 14.2575C266.845 14.2728 266.922 14.2938 266.99 14.29C267.309 14.2747 267.629 14.2518 267.948 14.2308C268.248 14.2097 268.248 14.2116 268.809 14.3302C269.036 14.3799 269.273 14.3378 269.501 14.3225C269.748 14.3053 269.97 14.3053 270.159 14.3799C270.347 14.4545 270.575 14.4506 270.817 14.4353C271.044 14.42 271.276 14.378 271.509 14.4296C272.041 14.5482 272.041 14.5501 272.37 14.5271C272.849 14.4946 273.323 14.464 273.807 14.4353C273.869 14.4315 273.952 14.4545 274.015 14.4698C274.15 14.5042 274.266 14.5615 274.411 14.5749C274.556 14.5902 274.726 14.5673 274.881 14.5558C275.379 14.5195 275.413 14.5061 275.747 14.6323C276.027 14.7355 276.375 14.5864 276.637 14.7049C276.787 14.7719 276.99 14.8254 277.27 14.7929C277.503 14.7661 277.745 14.7585 277.986 14.7432C278.369 14.7183 278.369 14.7202 278.852 14.835C278.915 14.8503 278.997 14.8694 279.06 14.8655C279.38 14.8503 279.704 14.8369 280.014 14.8025C280.376 14.7623 280.608 14.835 280.879 14.9057C281.092 14.9612 281.344 14.9153 281.571 14.8961C281.818 14.877 282.041 14.8828 282.224 14.9573C282.418 15.0338 282.645 15.0243 282.887 15.009C283.115 14.9956 283.347 14.9516 283.579 15.0051C284.077 15.1237 284.077 15.1237 284.44 15.1007C284.759 15.0797 285.079 15.0568 285.398 15.0415C285.461 15.0376 285.538 15.0625 285.601 15.0797C285.737 15.1141 285.853 15.1715 285.998 15.1849C286.143 15.1983 286.312 15.1734 286.472 15.1638C286.632 15.1543 286.801 15.1256 286.946 15.1371C287.091 15.1485 287.227 15.1964 287.343 15.2384C287.478 15.2881 287.604 15.2939 287.788 15.2747C288.02 15.2499 288.262 15.2441 288.499 15.2308C288.63 15.2671 288.765 15.3034 288.891 15.3436C289.022 15.3856 289.162 15.3818 289.341 15.3684C289.936 15.3225 289.941 15.3283 290.439 15.4468C290.666 15.5004 290.904 15.4564 291.131 15.443C291.373 15.4277 291.6 15.4201 291.789 15.4965C291.973 15.5692 292.2 15.5788 292.442 15.5558C292.597 15.5405 292.761 15.531 292.921 15.5252C292.993 15.5233 293.081 15.531 293.134 15.5463C293.39 15.6266 293.642 15.6992 293.995 15.6476C294.305 15.6629 294.459 15.8197 294.832 15.7891C295.146 15.7623 295.475 15.7566 295.785 15.7222C296.07 15.6916 296.274 15.7451 296.419 15.812C296.68 15.9306 297.048 15.77 297.309 15.8866C297.459 15.9535 297.652 16.0071 297.943 15.9784C298.262 15.9478 298.363 15.9879 298.455 16.1084C298.509 16.1772 298.499 16.2327 298.402 16.2862C298.305 16.3417 298.199 16.3321 298.044 16.269C297.865 16.1983 297.652 16.1849 297.396 16.2002C297.144 16.2155 296.99 16.1161 296.782 16.0778C296.573 16.0377 296.327 16.1046 296.109 16.053C295.596 15.9325 295.596 15.9325 295.248 15.9554C295.011 15.9707 294.764 15.9784 294.532 16.0052C294.256 16.0377 294.077 15.9784 293.888 15.9248C293.821 15.9057 293.753 15.8694 293.695 15.8713C293.139 15.9 292.577 15.9268 292.026 15.9746C291.736 15.9994 291.581 15.9306 291.387 15.8828C291.32 15.8656 291.247 15.8312 291.189 15.835C290.71 15.8618 290.236 15.8962 289.757 15.9287C289.665 15.9803 289.563 16.03 289.476 16.0855C289.384 16.1428 289.259 16.1677 289.075 16.1658C288.77 16.1658 288.47 16.2461 288.165 16.1447C287.851 16.0415 287.827 16.0472 287.522 16.0721C287.135 16.1046 286.724 16.0969 286.361 16.1715C286.298 16.1849 286.23 16.2212 286.23 16.248C286.225 16.2652 286.327 16.2901 286.39 16.3053C286.603 16.3512 286.849 16.2843 287.062 16.3321C287.203 16.3627 287.319 16.4086 287.459 16.4411C287.517 16.4545 287.604 16.4526 287.681 16.4507C287.764 16.4488 287.841 16.4354 287.919 16.4373C287.991 16.4392 288.069 16.4507 288.127 16.4679C288.393 16.5405 288.673 16.6075 288.91 16.6935C289.143 16.7776 289.36 16.7203 289.592 16.7164C290.521 16.8503 290.521 16.8522 291.145 16.8101C291.3 16.8006 291.46 16.7891 291.62 16.791C291.687 16.791 291.75 16.8254 291.818 16.8445C292.011 16.9019 292.195 16.9535 292.466 16.9229C292.698 16.8962 292.945 16.8904 293.182 16.8732C293.501 16.8522 293.501 16.8522 294.043 16.9727C294.179 17.0033 294.324 16.9994 294.498 16.9841C294.648 16.9708 294.803 16.9994 294.909 17.0549C294.953 17.0778 294.938 17.1161 294.953 17.1486C294.474 17.1792 293.99 17.2002 293.526 17.2461C293.226 17.2748 293.09 17.1926 292.892 17.1486C292.824 17.1333 292.752 17.1008 292.689 17.1046C292.215 17.1333 291.741 17.1658 291.266 17.204C291.208 17.2078 291.136 17.2518 291.131 17.2786C291.121 17.3283 291.242 17.3761 291.416 17.3742C291.648 17.3723 291.876 17.3398 292.084 17.4182C292.258 17.487 292.476 17.5176 292.732 17.487C292.887 17.4698 293.052 17.4698 293.206 17.4545C293.618 17.4086 293.99 17.4182 294.3 17.5482C294.537 17.5826 294.769 17.5501 294.996 17.5329C295.166 17.5195 295.33 17.5061 295.451 17.5425C295.708 17.6189 295.959 17.6954 296.312 17.6438C296.694 17.6973 296.985 17.8101 297.304 17.9019C297.454 17.9459 297.57 17.9708 297.744 17.9421C297.817 17.9306 297.904 17.9306 297.981 17.9249C298.141 17.9153 298.31 17.8866 298.455 17.8981C298.601 17.9115 298.722 17.9669 298.852 18.0014C298.915 18.0186 298.988 18.0472 299.05 18.0453C299.292 18.0358 299.529 18.0167 299.766 18.0014C300.003 17.988 300.241 17.9746 300.478 17.9612C300.676 18.0109 300.879 18.0606 301.077 18.1104C301.397 18.0893 301.716 18.0683 302.031 18.0492C302.384 18.0262 302.384 18.0281 302.892 18.1467C303.119 18.2002 303.361 18.1658 303.579 18.1409C303.942 18.1008 304.183 18.1735 304.44 18.2499C304.493 18.2652 304.59 18.2748 304.653 18.2671C304.904 18.2404 305.122 18.2614 305.306 18.3321C305.436 18.3819 305.567 18.4048 305.727 18.3953C306.283 18.3589 306.839 18.3207 307.396 18.2882C307.463 18.2843 307.541 18.3016 307.604 18.3169C308.097 18.4335 308.102 18.4392 308.465 18.4086C308.789 18.3819 309.089 18.3704 309.345 18.4755C309.399 18.4985 309.481 18.531 309.539 18.5291C309.936 18.51 310.337 18.4889 310.729 18.4564C310.908 18.4411 311.034 18.4469 311.174 18.4909C311.353 18.5463 311.513 18.6132 311.808 18.5884C312.626 18.5176 312.63 18.5291 313.598 18.661C313.666 18.6706 313.758 18.6553 313.835 18.6476C313.999 18.6285 314.12 18.6553 314.265 18.6993C314.59 18.7987 314.599 18.793 314.909 18.7719C315.146 18.7547 315.393 18.7509 315.625 18.7222C315.983 18.6801 316.22 18.7547 316.486 18.8255C316.699 18.8809 316.946 18.835 317.173 18.8178C317.42 18.7987 317.642 18.8044 317.826 18.8771C317.952 18.9268 318.087 18.9536 318.247 18.944C318.803 18.9096 319.36 18.8714 319.916 18.8369C319.984 18.8331 320.066 18.8484 320.129 18.8618C320.681 18.9803 320.681 18.9861 321.227 18.9421C321.401 18.9287 321.546 18.9249 321.677 18.9651C321.803 19.0033 321.938 19.0396 322.069 19.0759C322.306 19.0626 322.548 19.0587 322.78 19.0358C322.959 19.0186 323.085 19.0262 323.225 19.0664C323.409 19.118 323.564 19.2079 323.854 19.1639C324.004 19.1429 324.178 19.1486 324.328 19.1295C324.507 19.1046 324.628 19.1199 324.769 19.1696C324.943 19.2289 325.122 19.2901 325.402 19.2595C325.712 19.2251 326.041 19.2193 326.355 19.1926C326.529 19.1773 326.65 19.1926 326.791 19.2423C326.965 19.3054 327.163 19.3456 327.434 19.3207C327.986 19.2729 327.99 19.2824 328.527 19.4029C328.663 19.4335 328.808 19.4297 328.982 19.4144C329.132 19.401 329.287 19.4297 329.393 19.4851C329.495 19.5463 329.485 19.5845 329.495 19.6171ZM286.385 2.37205C286.225 2.38161 286.066 2.39308 285.833 2.22673C285.819 2.19805 285.829 2.16364 285.795 2.13878C285.717 2.08716 285.596 2.05083 285.451 2.04509C285.19 2.03744 284.876 2.10244 284.88 2.15216C284.885 2.19422 284.967 2.23054 285.127 2.26496C285.195 2.27835 285.248 2.3013 285.311 2.31659C285.495 2.36057 285.64 2.44663 285.906 2.40265C285.858 2.2841 285.882 2.34337 285.906 2.40265C285.882 2.47531 285.954 2.52694 286.129 2.54797C286.177 2.55371 286.25 2.54987 286.288 2.5384C286.438 2.49633 286.462 2.43898 286.351 2.28793C286.332 2.31279 286.346 2.35675 286.39 2.36822C286.433 2.37969 286.54 2.37015 286.593 2.35676C286.728 2.32043 286.796 2.27263 286.762 2.23247C286.743 2.21144 286.651 2.18467 286.593 2.18467C286.491 2.18467 286.399 2.22673 286.385 2.37205ZM325.504 24.5464C325.151 24.5827 324.744 24.5693 324.391 24.6439C324.328 24.6573 324.265 24.6917 324.261 24.7185C324.256 24.7357 324.353 24.7606 324.411 24.7739C324.541 24.8045 324.686 24.795 324.856 24.7854C325.112 24.772 325.262 24.86 325.46 24.9039C325.523 24.9173 325.605 24.9269 325.673 24.9231C326.065 24.9001 326.452 24.8753 326.844 24.8485C326.912 24.8428 326.984 24.8294 327.042 24.8122C327.236 24.7567 327.216 24.7204 327.028 24.6783C326.82 24.6324 326.655 24.556 326.442 24.5196C326.138 24.468 325.828 24.5368 325.504 24.5464ZM298.03 25.9422C297.793 25.9575 297.56 25.9728 297.323 25.9881C297.246 25.9938 297.164 25.9957 297.091 26.0034C296.941 26.0168 296.83 26.0569 296.757 26.12C296.869 26.1697 297.004 26.1984 297.154 26.1927C297.391 26.1812 297.623 26.1564 297.86 26.1506C298.117 26.143 298.267 26.229 298.465 26.273C298.528 26.2864 298.605 26.2883 298.678 26.2902C299.036 26.2979 299.254 26.1984 299.186 26.0589C299.138 25.9499 298.954 25.8849 298.731 25.8982C298.499 25.9116 298.262 25.9269 298.03 25.9422ZM327.158 21.7203C327.216 21.6878 327.279 21.6649 327.308 21.6362C327.396 21.5387 327.362 21.466 327.202 21.3896C327.008 21.2959 326.771 21.359 326.554 21.3685C326.5 21.3704 326.442 21.4106 326.413 21.4354C326.394 21.4527 326.394 21.489 326.423 21.4986C326.66 21.575 326.912 21.6458 327.158 21.7203ZM285.19 16.0721C284.958 16.0874 284.721 16.0988 284.489 16.1199C284.431 16.1256 284.377 16.1619 284.343 16.1868C284.281 16.2327 284.348 16.2958 284.547 16.3015C284.774 16.3092 285.011 16.2767 285.248 16.2614C285.548 16.2423 285.727 16.1715 285.616 16.1103C285.509 16.051 285.364 16.0396 285.19 16.0721ZM30.53 11.986C30.6848 11.9764 30.8444 11.9688 30.9992 11.9554C31.1444 11.942 31.2557 11.8999 31.3283 11.8368C31.2074 11.7871 31.0719 11.7603 30.9219 11.7661C30.6848 11.7776 30.4526 11.7928 30.2204 11.812C30.0753 11.8234 29.935 11.8655 29.9012 11.9305C29.8673 11.9802 30.1913 12.0089 30.53 11.986ZM264.731 11.6915C264.794 11.7087 264.856 11.7431 264.919 11.7431C265.074 11.7431 265.234 11.7317 265.379 11.7125C265.442 11.7049 265.49 11.6705 265.519 11.6437C265.539 11.6265 265.534 11.5959 265.505 11.5806C265.365 11.4888 264.803 11.5213 264.711 11.6265C264.702 11.6456 264.726 11.6705 264.731 11.6915ZM249.467 1.22098C249.482 1.25157 249.487 1.28216 249.506 1.31275C249.545 1.37011 249.651 1.41219 249.806 1.44087C249.927 1.39307 249.99 1.33954 249.985 1.28218C249.98 1.25158 249.966 1.22097 249.946 1.19038C249.907 1.13301 249.801 1.09096 249.646 1.06228C249.525 1.10817 249.467 1.1617 249.467 1.22098ZM338.339 26.2749C338.295 26.2998 338.252 26.3246 338.203 26.3476C338.334 26.403 338.455 26.4202 338.547 26.3896C338.605 26.3705 338.639 26.3418 338.682 26.317C338.552 26.2615 338.435 26.2462 338.339 26.2749ZM335.33 26.535C335.392 26.5522 335.451 26.5751 335.518 26.5866C335.63 26.6057 335.731 26.5732 335.808 26.5044C335.746 26.4871 335.688 26.4642 335.62 26.4527C335.509 26.4336 335.407 26.4661 335.33 26.535ZM337.236 26.1851C337.202 26.2309 337.27 26.2692 337.449 26.3017C337.492 26.2768 337.55 26.2539 337.579 26.2271C337.628 26.1831 337.545 26.143 337.371 26.1124C337.323 26.1353 337.279 26.1602 337.236 26.1851ZM327.023 24.1238C326.989 24.1697 327.057 24.208 327.236 24.2405C327.279 24.2156 327.337 24.1927 327.366 24.1659C327.415 24.1219 327.333 24.0818 327.158 24.0512C327.11 24.0741 327.066 24.099 327.023 24.1238ZM313.109 10.594C313.066 10.6188 313.022 10.6437 312.974 10.6666C313.104 10.7221 313.225 10.7393 313.317 10.7087C313.375 10.6896 313.409 10.6609 313.453 10.636C313.322 10.5806 313.206 10.5653 313.109 10.594ZM299.781 3.41604C299.897 3.42942 299.994 3.40266 300.076 3.33192C300.013 3.31471 299.955 3.29176 299.887 3.28029C299.776 3.26117 299.675 3.29368 299.597 3.36252C299.66 3.38164 299.723 3.39883 299.781 3.41604ZM292.703 2.9667C292.66 2.99156 292.616 3.01642 292.568 3.03936C292.698 3.09481 292.819 3.11202 292.911 3.08142C292.969 3.0623 293.003 3.03362 293.047 3.00876C292.916 2.95331 292.8 2.93993 292.703 2.9667ZM244.707 1.21906C244.663 1.24392 244.62 1.26878 244.571 1.29172C244.702 1.34717 244.823 1.36438 244.915 1.33378C244.973 1.31466 245.007 1.28598 245.05 1.26112C244.92 1.20567 244.804 1.19229 244.707 1.21906ZM5.72144 16.7757C5.65855 16.7585 5.59571 16.7413 5.53766 16.7222C5.39736 16.7738 5.35383 16.8216 5.43124 16.8579C5.47962 16.8809 5.55213 16.8943 5.61502 16.9115C5.76015 16.8599 5.794 16.814 5.72144 16.7757Z" fill="#FFE492"/>
</svg>
