<svg width="223" height="32" viewBox="0 0 223 32" fill="none" xmlns="http://www.w3.org/2000/svg">
<path d="M209.537 16.5694C209.231 16.5957 208.923 16.6137 208.624 16.6531C208.429 16.6777 208.346 16.6055 208.216 16.5678C208.173 16.5547 208.127 16.5284 208.087 16.5317C207.784 16.558 207.482 16.5875 207.18 16.617C207.087 16.6809 207.028 16.7662 206.887 16.7974C206.748 16.8269 206.584 16.8269 206.43 16.8417C206.226 16.8597 206.023 16.8777 205.819 16.8941C205.717 16.9023 205.634 16.9335 205.6 16.9925C205.594 17.0024 205.662 17.027 205.699 17.0417C205.822 17.0909 205.942 17.1467 206.078 17.1844C206.208 17.2205 206.368 17.1614 206.507 17.2073C206.819 17.3107 206.822 17.309 207.059 17.2893C207.263 17.2713 207.467 17.2516 207.67 17.2385C207.71 17.2352 207.757 17.2598 207.8 17.2729C207.929 17.309 208.013 17.391 208.204 17.3599C208.349 17.3353 208.509 17.3303 208.661 17.3172C208.787 17.3648 208.904 17.4189 209.04 17.4566C209.167 17.4927 209.204 17.5206 209.136 17.5681C209.074 17.6124 208.988 17.6304 208.873 17.6337C208.772 17.6354 208.67 17.6501 208.568 17.6583C208.516 17.6632 208.466 17.6665 208.417 17.6714C208.222 17.6895 208.222 17.6895 207.868 17.5845C207.729 17.5435 207.571 17.6009 207.439 17.5616C207.349 17.5353 207.272 17.496 207.186 17.4681C207.149 17.4566 207.09 17.455 207.044 17.4583C206.89 17.4697 206.735 17.4779 206.587 17.4992C206.482 17.514 206.421 17.5599 206.433 17.6058C206.436 17.6239 206.51 17.6501 206.553 17.6518C206.652 17.655 206.757 17.6321 206.853 17.6436C206.945 17.655 207.041 17.6878 207.109 17.7239C207.247 17.7993 207.405 17.7321 207.537 17.7518C207.676 17.7731 207.79 17.8387 207.923 17.8781C207.957 17.8879 208.022 17.8715 208.074 17.8666C208.226 17.8551 208.377 17.8453 208.528 17.8338C208.654 17.8813 208.79 17.924 208.904 17.9781C209.111 18.0765 209.333 18.1142 209.602 18.0666C209.753 18.0404 209.901 18.0502 210.021 18.1142C210.145 18.1798 210.287 18.1732 210.444 18.1601C210.589 18.147 210.737 18.1109 210.885 18.1568C211.206 18.2585 211.209 18.2634 211.589 18.2241C211.703 18.2126 211.789 18.2093 211.876 18.247C211.956 18.2815 212.042 18.311 212.126 18.3438C212.277 18.3323 212.431 18.3208 212.582 18.3077C212.777 18.2897 212.885 18.3126 212.931 18.4045C212.959 18.4602 212.971 18.5111 213.039 18.5488C213.119 18.5947 213.205 18.593 213.323 18.5799C213.434 18.5684 213.514 18.5504 213.56 18.4914C213.579 18.4668 213.616 18.4438 213.65 18.4241C213.677 18.4094 213.721 18.3864 213.745 18.3897C213.792 18.3963 213.853 18.4143 213.869 18.4356C214.02 18.634 214.02 18.6357 214.174 18.6931C214.344 18.757 214.52 18.8144 214.674 18.8866C214.813 18.9505 214.952 18.9227 215.103 18.9227C215.217 18.9227 215.291 18.9653 215.282 19.0079C215.276 19.0325 215.233 19.0686 215.196 19.0719C214.893 19.1047 214.588 19.1326 214.282 19.1555C214.245 19.1588 214.199 19.1293 214.156 19.1145C214.069 19.085 213.992 19.0391 213.9 19.0292C213.807 19.0194 213.699 19.044 213.597 19.0522C213.495 19.0604 213.387 19.0817 213.295 19.0686C213.202 19.0555 213.128 19.0079 213.042 18.9768C213.002 18.962 212.946 18.9407 212.912 18.9456C212.687 18.985 212.52 18.9309 212.36 18.8587C212.326 18.844 212.267 18.8341 212.224 18.8374C211.866 18.8653 211.512 18.8981 211.154 18.9292C211.009 18.9423 210.891 18.8849 210.86 18.7882C210.845 18.7341 210.814 18.68 210.814 18.6258C210.814 18.5275 210.645 18.4733 210.521 18.4848C210.318 18.5012 210.111 18.5143 209.91 18.5389C209.747 18.5586 209.608 18.5389 209.497 18.4799C209.367 18.4127 209.219 18.4258 209.071 18.4438C208.96 18.4569 208.929 18.5111 208.935 18.6472C208.941 18.757 208.889 18.7915 208.688 18.8095C208.435 18.8325 208.179 18.8554 207.923 18.8735C207.883 18.8767 207.837 18.8489 207.797 18.8341C207.71 18.8046 207.633 18.757 207.541 18.7472C207.448 18.7357 207.34 18.7603 207.238 18.7702C207.136 18.7784 207.028 18.8013 206.936 18.7898C206.843 18.7784 206.766 18.7292 206.683 18.698C206.643 18.6833 206.593 18.6619 206.553 18.6652C206.35 18.6783 206.146 18.698 205.942 18.716C205.714 18.7357 205.714 18.7357 205.39 18.6341C205.242 18.5881 205.094 18.6242 204.949 18.6373C204.795 18.6505 204.65 18.657 204.529 18.5914C204.449 18.5488 204.36 18.5225 204.264 18.5307C204.008 18.5504 203.755 18.575 203.499 18.5947C203.456 18.598 203.397 18.5898 203.363 18.575C203.199 18.5061 203.039 18.452 202.811 18.4865C202.613 18.516 202.4 18.5176 202.203 18.5455C202.095 18.5603 202.045 18.6127 202.067 18.6537C202.079 18.675 202.144 18.6997 202.187 18.6997C202.286 18.7013 202.394 18.6767 202.487 18.6865C202.678 18.7062 202.774 18.8439 203.024 18.8062C203.172 18.7833 203.326 18.7751 203.48 18.7685C203.52 18.7669 203.563 18.798 203.607 18.8144C203.73 18.8587 203.838 18.9161 204.017 18.8866C204.165 18.8636 204.323 18.8571 204.474 18.844C204.714 18.8226 204.714 18.8243 205.026 18.9243C205.174 18.9719 205.322 18.9342 205.467 18.9227C205.575 18.9145 205.677 18.8981 205.763 18.921C205.896 18.9555 205.992 19.0342 206.155 19.0292C206.309 19.0243 206.461 19.0014 206.615 18.9932C206.711 18.9883 206.8 19.0145 206.877 19.0588C206.957 19.1031 207.044 19.1227 207.149 19.1129C207.3 19.0998 207.454 19.0834 207.608 19.0752C207.652 19.0735 207.701 19.0883 207.741 19.1014C207.828 19.1309 207.911 19.1654 207.994 19.1965C208.145 19.1867 208.3 19.1834 208.448 19.1637C208.562 19.149 208.642 19.1555 208.735 19.1883C208.852 19.2326 208.948 19.3113 209.139 19.2736C209.235 19.2556 209.346 19.2605 209.441 19.2441C209.558 19.2228 209.639 19.231 209.722 19.2802C209.879 19.3736 210.077 19.3753 210.28 19.3392C210.503 19.2998 210.669 19.3458 210.836 19.4179C211.012 19.4934 211.012 19.4917 211.147 19.6737C211.188 19.7262 211.302 19.7508 211.397 19.741C211.558 19.7246 211.697 19.7328 211.814 19.7951C211.937 19.8623 212.085 19.8541 212.237 19.8361C212.437 19.8115 212.638 19.7902 212.801 19.8853C212.881 19.9312 212.968 19.9427 213.076 19.9312C213.381 19.9017 213.69 19.8836 213.989 19.8476C214.171 19.8246 214.276 19.8771 214.399 19.9214C214.566 19.982 214.748 20.0361 214.748 20.1657C214.748 20.187 214.791 20.2116 214.828 20.228C214.909 20.2624 214.995 20.292 215.078 20.3248C215.202 20.374 215.322 20.415 215.492 20.3887C215.64 20.3674 215.797 20.3608 215.948 20.3461C216.1 20.3313 216.238 20.3231 216.374 20.3854C216.532 20.4559 216.698 20.5232 216.877 20.5757C217.004 20.6134 217.17 20.5494 217.306 20.6003C217.389 20.6314 217.469 20.6675 217.559 20.6937C217.596 20.7052 217.655 20.697 217.704 20.6937C217.806 20.6872 217.911 20.6823 218.009 20.6659C218.124 20.6478 218.21 20.6511 218.296 20.6888C218.377 20.7233 218.457 20.7708 218.549 20.7807C218.688 20.7954 218.842 20.7298 218.981 20.8053C219.052 20.843 219.142 20.8791 219.234 20.8905C219.327 20.902 219.435 20.8774 219.534 20.879C219.577 20.879 219.629 20.9053 219.654 20.9266C219.669 20.9381 219.648 20.9692 219.626 20.9856C219.598 21.0053 219.558 21.0316 219.518 21.0348C219.213 21.0644 218.907 21.089 218.602 21.1168C218.42 21.1332 218.42 21.1332 218.053 21.0299C217.966 21.0053 217.871 21.0102 217.763 21.0217C217.618 21.0365 217.469 21.0644 217.318 21.0348C217.121 20.9233 216.877 20.9135 216.618 20.9561C216.51 20.9741 216.411 20.9742 216.331 20.943C216.161 20.8807 215.982 20.8233 215.831 20.7495C215.714 20.6921 215.658 20.6872 215.609 20.7659C215.594 20.7905 215.578 20.8167 215.581 20.8397C215.6 20.9217 215.634 21.002 215.652 21.084C215.658 21.107 215.634 21.1332 215.618 21.1578C215.569 21.2267 215.504 21.2218 215.396 21.1644C215.288 21.107 215.159 21.0693 214.986 21.0955C214.838 21.1185 214.677 21.1152 214.529 21.1398C214.301 21.1759 214.14 21.1234 213.977 21.0529C213.943 21.0381 213.884 21.0299 213.841 21.0332C213.381 21.0709 212.925 21.1135 212.465 21.1513C212.366 21.1595 212.277 21.1349 212.2 21.0906C212.119 21.0463 212.03 21.0234 211.931 21.0316C211.524 21.066 211.117 21.0972 210.709 21.1398C210.543 21.1578 210.41 21.1365 210.296 21.0791C210.21 21.0365 210.129 21.0234 210.021 21.0283C209.904 21.0332 209.821 21.0496 209.762 21.0972C209.707 21.1431 209.747 21.1709 209.87 21.207C210.003 21.2464 210.126 21.2972 210.253 21.3431C210.354 21.3366 210.456 21.3234 210.555 21.3251C210.598 21.3251 210.638 21.3546 210.682 21.371C210.805 21.4186 210.919 21.4661 211.095 21.4399C211.243 21.4169 211.4 21.412 211.552 21.3972C211.761 21.3792 211.761 21.3792 212.101 21.4825C212.187 21.5088 212.28 21.5071 212.391 21.4924C212.486 21.4809 212.585 21.5038 212.653 21.553C212.681 21.5727 212.672 21.6055 212.613 21.7138C212.613 21.7941 212.678 21.758 212.699 21.7055C212.733 21.6301 212.669 21.6055 212.545 21.6465C212.459 21.676 212.416 21.7187 212.437 21.7531C212.45 21.7711 212.508 21.7941 212.613 21.7138C212.885 21.6154 213.091 21.6039 213.289 21.5776C213.406 21.5629 213.48 21.5694 213.573 21.6121C213.684 21.6629 213.795 21.717 213.977 21.6908C214.174 21.6613 214.384 21.658 214.585 21.6334C214.77 21.6104 214.865 21.6826 214.983 21.7252C215.125 21.7761 215.282 21.7187 215.411 21.7482C215.547 21.7777 215.643 21.8498 215.8 21.863C216.029 21.8187 216.174 21.9007 216.346 21.9548C216.482 21.9958 216.643 21.9597 216.788 21.9417C216.951 21.922 217.087 21.9401 217.201 21.9991C217.331 22.0663 217.476 22.0516 217.624 22.0368C217.969 22.004 217.982 21.9991 218.182 22.0893C218.327 22.1549 218.466 22.1254 218.611 22.1172C218.738 22.1614 218.861 22.209 218.994 22.2483C219.028 22.2582 219.092 22.2418 219.145 22.2369C219.296 22.2237 219.45 22.2106 219.602 22.1975C219.703 22.1893 219.811 22.1647 219.904 22.1746C219.996 22.186 220.074 22.2336 220.157 22.2648C220.24 22.2959 220.327 22.3271 220.407 22.3599C220.53 22.4091 220.647 22.4501 220.82 22.4255C220.968 22.4041 221.123 22.3976 221.277 22.3828C221.471 22.3648 221.465 22.3697 221.826 22.4681C222.02 22.5222 222.221 22.4566 222.418 22.4501C222.517 22.4468 222.613 22.4648 222.681 22.5124C222.709 22.5321 222.699 22.5649 222.709 22.5927C222.199 22.637 221.687 22.6747 221.184 22.7288C220.99 22.7502 220.888 22.6911 220.783 22.6419C220.61 22.5632 220.382 22.678 220.219 22.5763C220.12 22.5156 219.978 22.4812 219.808 22.5107C219.709 22.5271 219.605 22.5255 219.503 22.5402C219.244 22.5763 219.006 22.578 218.799 22.4648C218.728 22.4255 218.627 22.4041 218.552 22.3664C218.466 22.3254 218.383 22.3025 218.281 22.3107C217.821 22.35 217.365 22.3894 216.908 22.432C216.868 22.4353 216.828 22.4599 216.794 22.4779C216.707 22.5238 216.735 22.5599 216.874 22.5894C216.92 22.5993 216.957 22.6206 217.001 22.637C217.084 22.6681 217.161 22.7174 217.253 22.7288C217.346 22.7403 217.454 22.7174 217.556 22.7092C217.658 22.701 217.766 22.6764 217.858 22.6862C217.951 22.6977 218.028 22.7452 218.114 22.7748C218.154 22.7895 218.204 22.8141 218.244 22.8125C218.448 22.8026 218.648 22.7846 218.852 22.7698C218.978 22.8141 219.086 22.8781 219.237 22.8928C219.333 22.9027 219.435 22.8846 219.534 22.8879C219.577 22.8895 219.632 22.9141 219.654 22.9355C219.666 22.9486 219.626 22.9814 219.595 22.9978C219.478 23.0601 219.318 23.0486 219.173 23.0683C219.015 23.0896 218.873 23.083 218.753 23.0191C218.673 22.9765 218.583 22.9535 218.485 22.9617C218.228 22.983 217.975 23.0076 217.719 23.0257C217.676 23.0289 217.624 23.0142 217.584 23.0027C217.26 22.9027 217.26 22.8994 217.031 22.9207C216.695 22.9519 216.695 22.9518 216.47 22.8649C216.427 22.8485 216.38 22.8174 216.343 22.819C215.985 22.8453 215.631 22.8715 215.276 22.9092C215.158 22.9207 215.078 22.9207 214.992 22.8781C214.918 22.842 214.831 22.801 214.739 22.7911C214.643 22.7813 214.538 22.8059 214.437 22.8141C214.335 22.8223 214.227 22.8436 214.137 22.8305C214.045 22.8174 213.964 22.7715 213.884 22.7387C213.801 22.7042 213.711 22.7059 213.597 22.719C213.246 22.7567 213.242 22.7518 212.894 22.6501C212.854 22.6386 212.801 22.6255 212.758 22.6288C212.502 22.6485 212.249 22.6731 211.993 22.6928C211.894 22.701 211.798 22.6796 211.731 22.6321C211.703 22.6124 211.712 22.5796 211.694 22.5156C211.672 22.5009 211.697 22.5271 211.703 22.5517C211.749 22.5485 211.805 22.5517 211.839 22.5386C211.925 22.5074 211.968 22.4664 211.947 22.432C211.934 22.414 211.876 22.391 211.839 22.391C211.771 22.391 211.712 22.4271 211.694 22.5156C211.499 22.5698 211.292 22.5812 211.092 22.6075C210.975 22.6239 210.901 22.6157 210.808 22.5731C210.697 22.5206 210.583 22.4697 210.401 22.496C210.203 22.5255 209.993 22.5304 209.79 22.5534C209.555 22.5796 209.454 22.432 209.256 22.4353C209.052 22.4386 208.849 22.4665 208.645 22.4861C208.466 22.5025 208.466 22.5025 208.096 22.3959C207.96 22.3566 207.8 22.414 207.667 22.373C207.578 22.3467 207.5 22.3074 207.414 22.2795C207.377 22.268 207.318 22.268 207.272 22.2713C207.016 22.291 206.757 22.3041 206.51 22.3402C206.229 22.3828 206.016 22.3369 205.816 22.2402C205.563 22.2582 205.307 22.268 205.057 22.2992C204.875 22.3221 204.77 22.268 204.646 22.2238C204.603 22.209 204.566 22.1844 204.52 22.1778C204.474 22.1713 204.418 22.1844 204.369 22.1893C204.165 22.2073 203.955 22.2156 203.758 22.2451C203.514 22.2828 203.422 22.1483 203.233 22.1319C203.107 22.2123 203.039 22.3221 202.789 22.3303C202.585 22.3369 202.382 22.3631 202.178 22.3812C202.076 22.3894 201.975 22.3992 201.873 22.4074C201.709 22.4222 201.632 22.4861 201.666 22.5845C201.685 22.6386 201.7 22.6928 201.715 22.7469C201.746 22.8436 201.669 22.9256 201.539 22.9371C201.182 22.9683 200.827 23.001 200.469 23.0289C200.373 23.0371 200.281 23.0092 200.203 22.965C200.123 22.9207 200.034 22.901 199.935 22.9092C199.577 22.9404 199.222 22.9732 198.864 23.0011C198.824 23.0043 198.772 22.9879 198.732 22.9748C198.645 22.9453 198.562 22.9109 198.479 22.8797C198.275 22.8945 198.075 22.9043 197.874 22.924C197.55 22.9535 197.55 22.9551 197.312 22.8649C197.269 22.8485 197.226 22.8174 197.186 22.819C197.032 22.8256 196.881 22.842 196.726 22.8567C196.273 22.8994 196.273 22.8994 196.14 22.8502C196.02 22.8043 195.912 22.7485 195.73 22.7748C195.532 22.8043 195.322 22.8141 195.119 22.8305C194.967 22.842 194.816 22.8551 194.665 22.8584C194.625 22.86 194.582 22.8289 194.539 22.8125C194.415 22.7616 194.295 22.7206 194.125 22.7485C194.026 22.7649 193.922 22.7682 193.82 22.7764C193.554 22.7994 193.554 22.7993 193.119 22.7009C193.076 22.6911 193.024 22.6796 192.981 22.6846C192.623 22.7141 192.268 22.7469 191.91 22.7748C191.867 22.778 191.814 22.7682 191.771 22.76C191.284 22.6649 191.284 22.6649 190.765 22.7108C190.568 22.7272 190.562 22.7338 190.355 22.6468C190.262 22.6091 190.185 22.5911 190.077 22.6026C189.67 22.6419 189.26 22.6682 188.855 22.7141C188.673 22.7338 188.568 22.6845 188.445 22.6403C188.402 22.6255 188.356 22.5927 188.318 22.5944C187.911 22.6255 187.504 22.6632 187.097 22.6944C187.06 22.6977 187.013 22.6649 186.97 22.6501C186.887 22.6206 186.807 22.5763 186.714 22.5665C186.618 22.5566 186.513 22.5812 186.409 22.5894C186.152 22.6108 186.152 22.6091 185.856 22.5124C185.816 22.4993 185.764 22.4812 185.724 22.4845C185.316 22.5173 184.906 22.5452 184.502 22.5927C184.27 22.619 184.113 22.5714 183.949 22.5025C183.916 22.4878 183.857 22.4812 183.814 22.4845C183.354 22.5222 182.897 22.5648 182.438 22.6026C182.342 22.6108 182.249 22.5829 182.172 22.5402C182.049 22.473 181.904 22.4812 181.75 22.496C181.395 22.5304 181.392 22.5288 181.182 22.4501C181.139 22.4337 181.102 22.4123 181.055 22.4041C181.012 22.3959 180.957 22.4009 180.91 22.4041C180.707 22.4205 180.503 22.4386 180.299 22.4566C180.096 22.4746 179.889 22.4845 179.689 22.5124C179.442 22.5468 179.324 22.4402 179.152 22.391C178.899 22.4123 178.639 22.4255 178.39 22.4599C178.198 22.4861 178.109 22.414 177.982 22.3763C177.939 22.3631 177.893 22.3353 177.853 22.3385C177.393 22.3746 176.933 22.414 176.477 22.4582C176.366 22.4681 176.292 22.455 176.199 22.4156C175.992 22.3271 175.983 22.3303 175.637 22.3631C175.486 22.3779 175.341 22.391 175.212 22.3238C175.097 22.2631 174.959 22.2483 174.795 22.268C174.595 22.2926 174.388 22.3057 174.184 22.3221C173.981 22.3402 173.777 22.3648 173.573 22.373C173.41 22.3812 173.311 22.3041 173.181 22.2648C173.141 22.2533 173.086 22.2516 173.039 22.2549C172.836 22.2697 172.626 22.2811 172.429 22.309C172.188 22.3435 172.055 22.2533 171.886 22.2008C171.849 22.1893 171.787 22.1959 171.74 22.2008C171.383 22.2303 171.028 22.2631 170.67 22.2943C170.543 22.25 170.414 22.2074 170.287 22.1631C170.084 22.1795 169.88 22.1975 169.676 22.2139C169.522 22.227 169.365 22.2319 169.22 22.2565C169.031 22.2893 168.939 22.2123 168.812 22.1746C168.769 22.1614 168.723 22.1336 168.683 22.1368C168.427 22.1549 168.171 22.1746 167.918 22.2024C167.677 22.2303 167.581 22.0827 167.384 22.0843C167.18 22.086 166.97 22.1073 166.773 22.1368C166.545 22.1713 166.384 22.1188 166.221 22.0483C166.187 22.0335 166.128 22.0253 166.085 22.0286C165.829 22.0483 165.576 22.0729 165.32 22.0926C165.277 22.0958 165.224 22.0876 165.181 22.0778C164.693 21.9811 164.693 21.9794 164.481 21.9991C164.329 22.0122 164.175 22.0286 164.021 22.0368C163.978 22.0401 163.925 22.0253 163.885 22.0122C163.564 21.9122 163.564 21.9105 163.333 21.9302C163.129 21.9482 162.925 21.9663 162.722 21.9843C162.595 21.94 162.466 21.8974 162.339 21.8531C162.086 21.8745 161.827 21.8908 161.577 21.9204C161.46 21.9335 161.383 21.9286 161.293 21.8876C161.182 21.8384 161.071 21.781 160.886 21.8089C160.689 21.8384 160.479 21.8417 160.278 21.8663C160.038 21.8958 159.939 21.7465 159.744 21.7482C159.541 21.7498 159.331 21.7711 159.133 21.8007C158.905 21.8351 158.745 21.7826 158.581 21.7121C158.547 21.6974 158.489 21.6892 158.445 21.6924C157.884 21.74 157.325 21.7875 156.764 21.8384C156.418 21.8695 156.418 21.8712 155.761 21.781C155.715 21.7744 155.665 21.7679 155.619 21.7711C155.416 21.7859 155.206 21.7974 155.008 21.8253C154.768 21.8597 154.635 21.7711 154.465 21.717C154.428 21.7055 154.37 21.7121 154.32 21.7154C154.166 21.7269 154.015 21.7416 153.86 21.7548C153.657 21.7728 153.453 21.7908 153.25 21.8089C153.123 21.7662 152.993 21.7219 152.867 21.6793C152.614 21.7006 152.355 21.7121 152.105 21.7465C151.914 21.7728 151.824 21.7039 151.698 21.6646C151.654 21.6514 151.608 21.6236 151.568 21.6252C151.108 21.6613 150.649 21.699 150.192 21.7449C150.004 21.7646 149.917 21.6908 149.791 21.6531C149.748 21.6416 149.698 21.6203 149.658 21.6236C149.353 21.6465 149.047 21.6744 148.742 21.7023C148.569 21.7187 148.569 21.7187 148.193 21.617C148.149 21.6055 148.1 21.594 148.057 21.5973C147.088 21.6793 146.122 21.7662 145.153 21.8482C145.055 21.8564 144.965 21.8318 144.888 21.7875C144.808 21.7433 144.718 21.7203 144.62 21.7285C144.212 21.7629 143.802 21.7941 143.398 21.8367C143.231 21.8548 143.099 21.8334 142.984 21.7761C142.898 21.7334 142.818 21.717 142.71 21.7269C142.506 21.7465 142.303 21.7629 142.099 21.781C141.895 21.799 141.692 21.8171 141.488 21.8351C141.284 21.8531 141.078 21.863 140.877 21.8909C140.63 21.9253 140.51 21.8236 140.34 21.7728C140.035 21.7974 139.729 21.822 139.427 21.8482C139.02 21.8827 138.612 21.9204 138.205 21.9532C138.168 21.9565 138.122 21.9269 138.079 21.9122C137.952 21.8712 137.86 21.8138 137.671 21.8318C136.758 21.9187 135.839 21.9925 134.922 22.0778C134.731 22.0958 134.648 22.0253 134.518 21.9876C134.475 21.9761 134.425 21.9532 134.385 21.9565C133.876 21.9975 133.367 22.0434 132.858 22.0876C132.651 22.1057 132.651 22.1057 132.306 22.004C132.266 21.9925 132.213 21.9778 132.17 21.981C131.507 22.0368 130.846 22.0958 130.183 22.1532C130.084 22.1614 129.995 22.1385 129.915 22.0942C129.837 22.0499 129.745 22.0253 129.649 22.0335C129.038 22.086 128.424 22.1368 127.817 22.1942C127.653 22.2106 127.517 22.1959 127.4 22.1368C127.317 22.0942 127.233 22.0762 127.128 22.086C126.212 22.1663 125.296 22.2434 124.379 22.3287C124.203 22.3451 124.08 22.3139 123.969 22.2598C123.88 22.2172 123.802 22.209 123.691 22.2155C123.574 22.2237 123.503 22.2418 123.438 22.291C123.355 22.3549 123.303 22.4353 123.105 22.4402C122.901 22.4451 122.695 22.4648 122.494 22.4927C122.303 22.5206 122.213 22.4468 122.093 22.4025C122.004 22.3713 121.92 22.3664 121.806 22.3812C121.701 22.3943 121.636 22.4222 121.575 22.4746C121.439 22.5862 121.427 22.5862 121.26 22.5156C121.171 22.4779 121.09 22.4484 120.992 22.455C120.584 22.4878 120.177 22.5238 119.77 22.5616C119.535 22.5829 119.532 22.5862 119.356 22.5042C119.27 22.4632 119.187 22.4435 119.085 22.4533C117.965 22.5517 116.845 22.6468 115.725 22.7502C115.552 22.7666 115.435 22.7321 115.311 22.6829C115.271 22.6665 115.231 22.6435 115.185 22.637C115.139 22.6304 115.086 22.637 115.037 22.6403C114.222 22.7108 113.404 22.778 112.593 22.8567C112.408 22.8748 112.309 22.8223 112.183 22.7797C112.14 22.7649 112.102 22.742 112.056 22.7354C112.01 22.7305 111.954 22.7419 111.905 22.7469C111.09 22.8174 110.273 22.8846 109.461 22.9633C109.267 22.9814 109.184 22.9125 109.057 22.8764C109.014 22.8633 108.968 22.8387 108.928 22.842C108.672 22.86 108.419 22.8846 108.162 22.9059C107.551 22.96 106.941 23.0109 106.33 23.0667C106.095 23.088 105.993 22.942 105.796 22.9486C105.54 22.9568 105.287 22.9896 105.031 23.0125C104.827 23.0306 104.623 23.047 104.42 23.0667C104.219 23.0847 104.219 23.0847 103.719 22.9896C103.676 22.9814 103.624 22.9699 103.581 22.9732C102.868 23.0338 102.152 23.0945 101.442 23.1601C101.279 23.1749 101.143 23.1667 101.026 23.106C100.942 23.0634 100.856 23.042 100.754 23.0519C99.6837 23.1454 98.6161 23.2388 97.5454 23.3307C97.5053 23.334 97.4529 23.3176 97.4128 23.3044C97.3264 23.2749 97.2431 23.2405 97.1598 23.2093C97.0981 23.247 97.0179 23.2815 96.9778 23.3241C96.9222 23.3815 96.8482 23.3979 96.7309 23.4077C96.6137 23.4176 96.5396 23.4143 96.4471 23.3717C96.336 23.3192 96.2218 23.2782 96.0398 23.2946C94.9198 23.3979 93.7997 23.4914 92.6797 23.5931C92.4946 23.6095 92.4083 23.5373 92.2787 23.4996C92.2355 23.4881 92.1861 23.4701 92.146 23.4733C91.6862 23.5111 91.2296 23.5521 90.7699 23.5914C89.4956 23.7029 88.2214 23.8095 86.9502 23.9276C86.7188 23.9489 86.5614 23.9079 86.3979 23.8374C86.3639 23.8226 86.3053 23.8144 86.2621 23.8177C84.4788 23.9719 82.6954 24.1276 80.9151 24.2834C80.8194 24.2916 80.7268 24.2654 80.6497 24.2228C80.5695 24.1785 80.48 24.1572 80.3813 24.1654C79.5667 24.2359 78.7522 24.3064 77.9377 24.3786C77.734 24.3966 77.7309 24.3982 77.5211 24.3195C77.4779 24.3031 77.4317 24.272 77.3977 24.2752C77.3268 24.2834 77.2589 24.3244 77.2095 24.3802C77.1601 24.4392 77.083 24.4556 76.9688 24.4671C76.8516 24.4786 76.7745 24.4737 76.685 24.4343C76.5708 24.3851 76.4659 24.3376 76.2808 24.354C73.9389 24.5639 71.5971 24.7656 69.2553 24.9738C69.0671 24.9902 68.9806 24.9214 68.8511 24.8836C68.8079 24.8722 68.7647 24.8558 68.7184 24.8525C68.669 24.8492 68.6166 24.859 68.5672 24.864C64.7475 25.1969 60.9278 25.5314 57.108 25.8643C56.8797 25.884 56.8828 25.884 56.6329 26.0348C56.602 26.0529 56.5619 26.0775 56.5187 26.0807C55.3493 26.1857 54.1769 26.2874 53.0044 26.389C52.4953 26.4333 51.9862 26.4792 51.4771 26.5219C51.2951 26.5366 51.2951 26.5366 50.8601 26.7138C50.823 26.7285 50.7798 26.7482 50.7366 26.7515C48.7002 26.9302 46.6638 27.109 44.6244 27.2844C44.4639 27.2975 44.3343 27.3271 44.2603 27.4058C44.2078 27.4615 44.14 27.4943 44.0382 27.5042C42.6127 27.6288 41.1873 27.7551 39.7587 27.8764C39.589 27.8912 39.4872 27.9371 39.4039 28.006C39.3761 28.0289 39.3514 28.0552 39.3113 28.0716C39.2743 28.0863 39.2187 28.0912 39.1724 28.0962C37.9506 28.2028 36.7288 28.3126 35.5039 28.4143C35.3219 28.4291 35.2478 28.4897 35.1583 28.5537C35.1275 28.575 35.1059 28.6045 35.0657 28.6193C35.0256 28.6324 34.967 28.6324 34.9176 28.6357C33.8995 28.7242 32.8813 28.8144 31.8631 28.903C31.6656 28.8948 31.6224 28.9899 31.5268 29.0473C31.4928 29.067 31.4682 29.0932 31.4281 29.1063C31.3849 29.1195 31.3293 29.1178 31.2768 29.1211C30.4623 29.1916 29.6478 29.267 28.8301 29.3326C28.6419 29.3474 28.6049 29.431 28.503 29.4884C28.4691 29.5065 28.4352 29.5343 28.3951 29.5393C27.886 29.5868 27.3769 29.6311 26.8678 29.6737C26.6981 29.6885 26.6981 29.6869 26.3988 29.8492C26.3649 29.8672 26.3248 29.8869 26.2816 29.8918C25.5195 29.9607 24.7543 30.0263 23.9891 30.0935C23.8904 30.1017 23.8225 30.1411 23.7732 30.1969C23.7238 30.2526 23.6528 30.2887 23.5541 30.2969C22.9432 30.351 22.3322 30.4068 21.7213 30.456C21.5516 30.4691 21.4406 30.5101 21.3665 30.5839C21.311 30.6396 21.2431 30.6675 21.1351 30.6773C20.5242 30.7298 19.9133 30.7872 19.2993 30.8331C19.1203 30.8463 19.0277 30.902 18.9537 30.9709C18.8951 31.0266 18.8272 31.0463 18.713 31.0562C17.593 31.1513 16.47 31.2464 15.353 31.3513C15.1648 31.3694 15.0692 31.312 14.9457 31.271C14.7699 31.2136 14.6064 31.1513 14.6064 31.0233C14.6064 31.0037 14.5539 30.9807 14.5169 30.9643C14.2423 30.8413 14.2423 30.8413 14.1991 30.7101C14.1744 30.6298 14.1466 30.5478 14.1251 30.4658C14.0849 30.3313 13.9862 30.2969 13.7023 30.3215C13.6005 30.3297 13.4987 30.3412 13.3969 30.3477C13.2457 30.3592 13.1315 30.3051 13.1038 30.2067C13.0883 30.1526 13.0698 30.0985 13.0544 30.0443C13.2087 30.0312 13.2056 30.0296 13.4771 29.8312C13.5912 29.7475 13.5913 29.7475 13.3722 29.6639C13.2889 29.6327 13.2087 29.5983 13.1192 29.5688C13.0791 29.5557 13.0267 29.5475 12.9835 29.5507C12.7274 29.5704 12.4744 29.5934 12.2214 29.6163C11.8141 29.6524 11.814 29.6524 11.4006 29.4851C11.3667 29.472 11.3142 29.4474 11.3204 29.4343C11.3543 29.3736 11.4376 29.3474 11.5425 29.3408C11.6968 29.331 11.848 29.3146 11.9992 29.3015C12.101 29.2933 12.2028 29.2834 12.3046 29.2752C12.4003 29.2129 12.499 29.1523 12.5885 29.0883C12.7304 28.9899 12.7304 28.9866 12.536 28.9177C12.4126 28.8718 12.2799 28.8308 12.1534 28.7882C12.0022 28.8013 11.848 28.8161 11.6968 28.8275C11.5055 28.8423 11.4284 28.8111 11.379 28.7046C11.3358 28.6111 11.3882 28.5307 11.5363 28.5111C11.6875 28.4914 11.8295 28.4783 11.9067 28.3946C11.9807 28.3143 12.1103 28.2831 12.2707 28.2765C12.3725 28.2716 12.4743 28.2602 12.5762 28.2503C12.7088 28.2372 12.7798 28.1536 12.7521 28.0601C12.7366 27.9994 12.7058 27.9486 12.5854 27.9355C12.0517 27.8781 12.0454 27.8797 11.7801 27.7682C11.7554 27.7583 11.7369 27.7288 11.7462 27.7141C11.7616 27.6895 11.7956 27.6534 11.8326 27.6485C12.1874 27.6124 12.5422 27.5796 12.8971 27.555C13.0143 27.5468 13.1007 27.5353 13.1408 27.4746C13.1964 27.391 13.1717 27.3139 13.0637 27.2565C13.0297 27.2385 12.9742 27.2155 12.9371 27.2172C12.5299 27.2467 12.1257 27.2844 11.7184 27.3139C11.6814 27.3172 11.6135 27.2894 11.5981 27.268C11.5673 27.2287 11.6135 27.1762 11.7215 27.1582C11.8634 27.1336 12.0084 27.1319 12.1041 27.0499C12.2368 26.9335 12.4003 26.8269 12.5484 26.7154C12.5731 26.6957 12.6132 26.658 12.604 26.6547C12.5268 26.6186 12.4373 26.5907 12.3571 26.5563C12.2214 26.4989 12.2213 26.4186 12.2522 26.3415C12.2769 26.2792 12.3694 26.2546 12.4836 26.2546C12.533 26.2546 12.5947 26.2546 12.6348 26.2398C12.7397 26.2037 12.7736 26.1578 12.7212 26.1234C12.6903 26.1037 12.6348 26.0758 12.5978 26.0791C11.9375 26.1332 11.2741 26.1857 10.6169 26.2529C10.4225 26.2726 10.3331 26.2103 10.2158 26.166C10.1264 26.1316 10.043 26.1185 9.93194 26.1431C9.82704 26.166 9.72525 26.1529 9.66046 26.0988C9.60801 26.0545 9.70055 26.0168 9.95047 25.9742C9.99675 25.966 10.0492 25.961 10.0831 25.9446C10.441 25.7675 10.441 25.7659 10.6879 25.7429C10.9285 25.7216 10.9286 25.72 11.0551 25.6249C11.1137 25.5806 11.1784 25.5363 11.234 25.4904C11.2556 25.4723 11.2926 25.4396 11.2803 25.4297C11.2124 25.3789 11.1198 25.3674 11.0118 25.3789C10.7712 25.4068 10.4874 25.3838 10.3609 25.5396C10.3115 25.5986 10.2343 25.615 10.1233 25.6249C9.00635 25.72 7.88939 25.8217 6.76939 25.9135C6.58735 25.9282 6.50409 25.9889 6.43313 26.0562C6.37142 26.1119 6.30352 26.1283 6.18628 26.1382C6.06903 26.148 5.97642 26.1529 5.90854 26.0988C5.86843 26.066 5.90238 26.0201 5.99495 25.9742C6.12762 25.9086 6.10292 25.8266 6.05973 25.7495C6.02887 25.6987 5.93323 25.6626 5.83141 25.6659C5.68022 25.6724 5.53525 25.6905 5.40875 25.6249C5.3347 25.5872 5.24212 25.5609 5.15881 25.5281C4.99837 25.4609 4.83792 25.392 4.61268 25.4363C4.45841 25.4199 4.35042 25.3608 4.22701 25.3149C4.02028 25.2395 4.00177 25.228 4.14987 25.1477C4.31648 25.0575 4.18687 24.9394 4.27943 24.8508C4.37817 24.7557 4.51397 24.6721 4.6343 24.5835C4.66516 24.5606 4.69294 24.5393 4.72379 24.5163C4.65283 24.4835 4.58805 24.4425 4.50474 24.4196C4.39675 24.39 4.34121 24.354 4.34738 24.2523C4.32578 24.2375 4.33498 24.2752 4.35966 24.2851C4.38743 24.2949 4.45536 24.2867 4.4893 24.2752C4.57569 24.2441 4.61884 24.2031 4.59724 24.1687C4.5849 24.1506 4.52632 24.1277 4.4893 24.1277C4.42142 24.1277 4.3628 24.1637 4.34429 24.2523C3.99873 24.3195 3.64076 24.3523 3.28285 24.3786C3.24583 24.3818 3.19957 24.349 3.15638 24.3326C3.01445 24.2769 3.01443 24.2785 2.5979 24.2621C2.5547 24.2605 2.49611 24.2375 2.47451 24.2146C2.38503 24.1145 2.38814 24.0047 2.34495 23.8981C2.42517 23.8292 2.50533 23.762 2.58863 23.6947C2.75524 23.5586 2.97127 23.4389 3.10086 23.2897C3.07309 23.2093 3.03606 23.129 3.17182 23.0634C3.5575 22.9814 3.55443 22.9814 3.65934 22.9027C3.95862 22.6796 4.25481 22.455 4.56643 22.2352C4.64974 22.1778 4.64975 22.1467 4.50165 22.1221C4.45537 22.1155 4.40594 22.1139 4.35657 22.1172C4.2023 22.1286 4.04803 22.1581 3.89685 22.1516C3.74566 22.1467 3.63459 22.0745 3.51117 22.0302C3.38467 21.9843 3.25817 21.9368 3.13167 21.8892C2.98665 21.8941 2.84167 21.94 2.69665 21.8663C2.58558 21.8089 2.44674 21.7679 2.32024 21.7203C2.41589 21.5957 2.59487 21.5006 2.73371 21.3907C2.86022 21.2906 2.86323 21.2923 3.20263 21.2152C3.36307 21.1791 3.41861 20.9938 3.28285 20.9397C3.11932 20.8741 2.94658 20.8134 2.77996 20.7511C2.63495 20.756 2.48688 20.8003 2.34804 20.7265C2.24005 20.6708 2.11661 20.6331 1.93765 20.6544C1.63528 20.6905 1.32675 20.7085 1.02129 20.738C0.916387 20.7479 0.802193 20.7413 0.755912 20.6855C0.725058 20.6462 0.814541 20.5921 0.91636 20.5806C1.07063 20.5642 1.20946 20.5445 1.28659 20.4625C1.36064 20.3805 1.49639 20.3559 1.65683 20.3444C1.70003 20.3412 1.74943 20.3215 1.77103 20.3018C1.8821 20.2067 2.00553 20.1247 2.2431 20.128C2.34184 20.0952 2.39426 20.0542 2.3634 20.0148C2.34489 19.9935 2.28013 19.9656 2.2431 19.9689C1.98701 19.9853 1.73093 20.0017 1.48102 20.0312C1.36377 20.0444 1.27424 20.0476 1.20019 19.9984C1.14774 19.9656 1.17551 19.9213 1.27424 19.8738C1.36063 19.8328 1.38534 19.7852 1.37917 19.7295C1.36375 19.5999 1.27116 19.5622 0.974965 19.5704C0.762071 19.577 0.709616 19.5557 0.663335 19.4441C0.650993 19.4179 0.620193 19.3818 0.641791 19.3638C0.774464 19.2523 0.860862 19.1145 1.11078 19.0621C1.20951 19.0424 1.31438 19.0424 1.37608 18.9997C1.43779 18.9571 1.49336 18.9079 1.55815 18.8669C1.63837 18.8177 1.69386 18.7718 1.65683 18.7406C1.59512 18.6849 1.49642 18.68 1.38226 18.6997C1.28353 18.716 1.17863 18.7177 1.07681 18.7275C0.894768 18.7456 0.746701 18.7029 0.725103 18.6308C0.66648 18.4405 0.604754 18.252 0.552302 18.0617C0.546131 18.0388 0.561516 18.0092 0.586199 17.9896C0.672591 17.9207 0.76519 17.8551 0.854667 17.7879C0.959571 17.7108 1.12621 17.7256 1.26814 17.7108C1.46869 17.6895 1.46862 17.6911 1.73705 17.5337C1.84196 17.4714 2.02401 17.496 2.132 17.4402C2.16594 17.4222 2.21839 17.3927 2.20913 17.3763C2.19679 17.3549 2.13511 17.3385 2.08883 17.3287C2.04564 17.3189 1.9932 17.3139 1.94692 17.3189C1.38537 17.3664 0.826925 17.4173 0.265379 17.4632C0.169731 17.4714 0.0648239 17.4353 0.0308843 17.3845C-0.00305529 17.3369 0.00617083 17.2795 0 17.2254C0.0894771 17.1581 0.191257 17.0958 0.268392 17.0237C0.327015 16.9679 0.394906 16.9433 0.512152 16.94C0.666423 16.9351 0.817624 16.9154 0.990407 16.9007C1.31129 16.6613 1.62598 16.4104 1.97155 16.1709C2.11039 16.0742 2.07651 15.9758 2.10428 15.8725C2.13204 15.7774 2.33876 15.7921 2.4776 15.7643C2.58867 15.7413 2.62565 15.6888 2.58246 15.6527C2.55777 15.6314 2.50226 15.6068 2.45907 15.6068C2.35725 15.6068 2.25543 15.6216 2.15362 15.6298C2.0518 15.638 1.93456 15.6331 1.85125 15.6609C1.77103 15.6872 1.71855 15.7429 1.6661 15.7905C1.60747 15.843 1.53039 15.861 1.41315 15.8643C1.26196 15.8676 1.11078 15.8823 0.959598 15.8938C0.792985 15.8298 0.620166 15.7675 0.459724 15.7003C0.42887 15.6872 0.422666 15.6495 0.425751 15.6249C0.431922 15.5609 0.385653 15.5215 0.283834 15.4904C0.197443 15.4642 0.126472 15.4264 0.0462511 15.3936C0.107959 15.3494 0.175863 15.3067 0.225229 15.2592C0.333219 15.1591 0.468993 15.087 0.703484 15.0903C0.796047 15.0263 0.870076 14.9476 0.990407 14.9033C1.10457 14.8607 1.29896 14.9033 1.38535 14.8066C1.42855 14.759 1.49338 14.7049 1.57668 14.6852C1.70935 14.654 1.88213 14.6705 1.95927 14.5786C2.00555 14.5262 2.0734 14.4786 2.16288 14.4655C2.2647 14.4507 2.36958 14.4474 2.44363 14.4163C2.48374 14.3999 2.52694 14.3736 2.52694 14.3507C2.52694 14.3359 2.46528 14.313 2.42208 14.3031C2.38197 14.2916 2.32946 14.2834 2.28318 14.2867C2.12891 14.2966 1.97773 14.3146 1.82345 14.3244C1.78026 14.3277 1.73091 14.3162 1.68463 14.3064C1.54887 14.2802 1.55811 14.2474 1.6661 14.1883C1.77408 14.1309 1.85126 14.0571 1.94074 13.9899C2.03947 13.9784 2.16287 13.9833 2.23075 13.9522C2.34491 13.9013 2.42511 13.8275 2.51767 13.7636C2.61949 13.7538 2.72439 13.7505 2.82004 13.7324C2.86015 13.7259 2.87868 13.6898 2.91262 13.6685C2.97432 13.6275 3.02682 13.5685 3.11012 13.5488C3.24588 13.5193 3.41249 13.5307 3.49271 13.4405C3.53899 13.3881 3.60993 13.3323 3.69632 13.329C3.93699 13.3225 4.03881 13.2323 4.16223 13.147C4.25479 13.083 4.45226 13.1158 4.55408 13.0519C4.62196 13.0109 4.67136 12.96 4.73923 12.9207C4.767 12.9043 4.8256 12.8961 4.87189 12.8912C5.12489 12.8666 5.38097 12.8485 5.63398 12.8223C5.67409 12.8174 5.71114 12.7928 5.74199 12.7731C5.80679 12.7305 5.84685 12.6714 5.92707 12.6436C6.0073 12.6157 6.12144 12.6157 6.22017 12.6075C6.53797 12.5829 6.56268 12.5894 6.70769 12.45C6.82494 12.3369 7.11192 12.4173 7.20757 12.2926C7.26311 12.2205 7.36488 12.1614 7.54692 12.1532C7.80301 12.1418 8.05601 12.1106 8.3121 12.0893C8.54042 12.0696 8.53734 12.0696 8.78417 11.9171C8.89525 11.8482 9.05881 11.8581 9.20382 11.8449C9.3581 11.8318 9.50001 11.8121 9.57406 11.7302C9.64811 11.6498 9.78385 11.6235 9.94121 11.6121C10.0862 11.6006 10.2498 11.6088 10.3639 11.5432C10.6416 11.3858 10.6386 11.3841 10.8329 11.3677C11.1384 11.3415 11.4438 11.3153 11.7493 11.2874C11.9529 11.2693 12.1658 11.2661 12.3571 11.23C12.496 11.2037 12.5576 11.1119 12.6471 11.048C12.9001 11.0234 13.1531 10.9988 13.4061 10.9758C13.7609 10.943 14.1188 10.9135 14.4768 10.8823C14.631 10.82 14.6527 10.6823 14.9118 10.6757C15.0661 10.6724 15.2173 10.6511 15.3716 10.638C15.6277 10.615 15.8807 10.5855 16.1367 10.574C16.3311 10.5658 16.365 10.4773 16.4668 10.4215C16.5008 10.4018 16.5317 10.374 16.5718 10.369C16.9729 10.3231 17.3863 10.3133 17.7781 10.2461C17.8182 10.2395 17.8553 10.2051 17.8645 10.1805C17.8707 10.1673 17.8183 10.1427 17.7843 10.1313C17.7442 10.1182 17.6918 10.105 17.6486 10.1083C16.3743 10.2182 15.1001 10.3297 13.8258 10.4396C13.6468 10.456 13.6468 10.4543 13.2118 10.6347C13.1748 10.6495 13.1315 10.6659 13.0852 10.6708C12.8816 10.6905 12.6749 10.7019 12.4743 10.7265C12.3108 10.7462 12.1751 10.7265 12.0578 10.6675C11.9745 10.6249 11.8881 10.6117 11.7832 10.615C11.6659 10.6199 11.5889 10.638 11.521 10.6823C11.4315 10.7429 11.3852 10.8216 11.197 10.838C10.33 10.9086 9.46294 10.9873 8.59902 11.0627C8.47869 11.0398 8.42007 11.0053 8.45092 10.9643C8.46944 10.9397 8.50648 10.9069 8.5435 10.9036C8.89833 10.8692 9.25622 10.8397 9.61104 10.8069C9.66041 10.802 9.72828 10.8052 9.75605 10.7888C9.89181 10.715 9.94123 10.5953 10.1973 10.5871C10.3454 10.5822 10.4966 10.5576 10.6385 10.5347C10.6786 10.5281 10.7157 10.4937 10.7249 10.4691C10.728 10.456 10.6786 10.4313 10.6416 10.4199C10.5058 10.3723 10.3485 10.4297 10.2128 10.3969C10.1665 10.3855 10.1016 10.369 10.0924 10.3494C10.0862 10.3313 10.1387 10.3018 10.1757 10.2838C10.2096 10.2674 10.2559 10.2526 10.3022 10.2477C10.7095 10.21 11.1168 10.1706 11.5241 10.1411C11.6907 10.1296 11.8079 10.0886 11.8819 10.0132C11.9375 9.95743 12.0054 9.92792 12.1103 9.91972C12.823 9.85904 13.5357 9.79181 14.2515 9.73605C14.4305 9.72293 14.5231 9.66882 14.5971 9.59831C14.6558 9.54255 14.7236 9.52287 14.8378 9.51303C15.8591 9.42776 16.8741 9.33265 17.8954 9.25065C18.0836 9.2359 18.1392 9.16538 18.2348 9.1047C18.2688 9.08338 18.2903 9.05715 18.3335 9.04403C18.3767 9.03091 18.4323 9.03253 18.4847 9.02925C19.2993 8.95874 20.1139 8.88332 20.9315 8.81772C21.1228 8.80296 21.1598 8.72096 21.2585 8.66356C21.2924 8.64552 21.3233 8.61602 21.3634 8.6111C21.9743 8.55534 22.5852 8.50287 23.1961 8.44875C23.6034 8.41267 24.0107 8.37659 24.418 8.34215C24.6185 8.32575 24.6185 8.32411 24.89 8.16832C24.9209 8.15028 24.9641 8.12896 25.0042 8.12404C26.1767 8.01908 27.346 7.91907 28.5185 7.81576C28.6172 7.80756 28.6882 7.76982 28.7375 7.71407C28.7869 7.65831 28.8579 7.62059 28.9536 7.61239C29.87 7.5304 30.7863 7.45005 31.7058 7.37298C31.8724 7.35986 31.9896 7.3205 32.0636 7.2467C32.1192 7.19095 32.187 7.16144 32.292 7.15324C33.2083 7.07452 34.1247 6.99088 35.0442 6.91544C35.2201 6.90069 35.3064 6.84494 35.3928 6.77934C35.4237 6.75638 35.4484 6.71866 35.4854 6.71538C35.942 6.66947 36.3956 6.62191 36.8553 6.59075C37.0466 6.57763 37.1114 6.50875 37.1885 6.44316C37.2503 6.39068 37.3212 6.37265 37.4385 6.36609C37.6946 6.35133 37.9476 6.32346 38.1975 6.29558C38.2345 6.29066 38.2808 6.25458 38.2839 6.23163C38.2901 6.18899 38.2191 6.15947 38.1018 6.14471C36.88 6.2513 35.6551 6.35788 34.4333 6.46448C34.2327 6.48252 34.2327 6.48252 33.9612 6.63831C33.9304 6.65635 33.8871 6.67767 33.8439 6.68259C32.6715 6.78591 31.5021 6.88758 30.3297 6.99089C30.2309 6.99909 30.16 7.03681 30.1106 7.09256C30.0612 7.14832 29.9902 7.18604 29.8946 7.19424C28.7746 7.29263 27.6546 7.39267 26.5315 7.48614C26.3649 7.49926 26.2477 7.53696 26.1736 7.61239C26.1181 7.66815 26.0502 7.69768 25.9453 7.70588C24.8747 7.79771 23.8071 7.89445 22.7333 7.98301C22.6253 7.99121 22.5452 7.94365 22.5513 7.89937C22.5544 7.87641 22.6006 7.83872 22.6377 7.83544C23.1961 7.78132 23.7516 7.72556 24.3131 7.68456C24.5013 7.67144 24.5568 7.59928 24.6525 7.53861C24.6833 7.51729 24.708 7.48941 24.7481 7.47793C24.7913 7.46481 24.8469 7.46646 24.8993 7.46318C26.2229 7.34675 27.5466 7.22868 28.8734 7.11881C29.0647 7.10241 29.1016 7.02204 29.2004 6.96465C29.2343 6.94497 29.2652 6.91546 29.3053 6.91218C29.7126 6.87282 30.1198 6.83838 30.5271 6.80394C31.2398 6.74163 31.9525 6.67931 32.6684 6.61699C32.8751 6.59896 32.8751 6.59895 33.1404 6.4448C33.1713 6.42676 33.2145 6.40382 33.2546 6.40054C35.1398 6.23491 37.025 6.06928 38.9102 5.90529C39.009 5.89709 39.0799 5.85938 39.1293 5.80362C39.1787 5.7495 39.2496 5.71015 39.3452 5.70031C41.8938 5.47728 44.4393 5.25425 46.9878 5.0345C47.1544 5.01975 47.2717 4.9853 47.3457 4.90823C47.3982 4.85247 47.4691 4.82296 47.574 4.81312C50.3756 4.56878 53.1772 4.32444 55.9818 4.07846C57.867 3.91447 59.7522 3.7472 61.6374 3.5865C61.8102 3.57174 61.9027 3.52089 61.9891 3.45366C62.0169 3.4307 62.0446 3.39298 62.0817 3.3897C62.4859 3.3487 62.89 3.31099 63.2942 3.27327C63.4207 3.31755 63.5472 3.36019 63.6737 3.40447C63.7694 3.34216 63.862 3.2782 63.9576 3.21588C64.5685 3.16832 65.1702 3.09453 65.7873 3.07157C65.8274 3.06993 65.8705 3.10109 65.9137 3.11749C66.2007 3.2208 66.3642 3.2126 66.5463 3.07485C66.6111 3.02566 66.6666 2.98138 66.7653 2.97318C67.0708 2.94366 67.3794 2.92398 67.6817 2.88955C67.8453 2.87151 67.981 2.8879 68.0982 2.94694C68.1815 2.98958 68.268 3.00762 68.3698 2.99778C68.9313 2.94859 69.4898 2.90103 70.0513 2.84855C70.0914 2.84527 70.1284 2.81738 70.1593 2.7977C70.2241 2.75507 70.2796 2.70916 70.3413 2.66488C70.4246 2.69276 70.5172 2.71408 70.5851 2.75016C70.6715 2.7928 70.7517 2.79279 70.8689 2.78131C73.1089 2.58288 75.3521 2.38938 77.5921 2.18931C77.7834 2.17291 77.8667 2.2418 77.9963 2.27787C78.0395 2.29099 78.0826 2.30738 78.1289 2.31066C78.1783 2.31394 78.2308 2.30411 78.2801 2.29919C79.9617 2.1516 81.6432 2.00564 83.3248 1.85805C83.547 1.83838 83.547 1.83838 83.8771 1.94005C83.9172 1.95317 83.9697 1.96793 84.0128 1.96301C84.778 1.89905 85.5432 1.83019 86.3053 1.76459C86.404 1.75639 86.4874 1.78262 86.5768 1.82034C86.7527 1.89414 86.765 1.89414 86.8946 1.78591C86.9563 1.73507 87.0211 1.7039 87.1229 1.68914C87.234 1.67274 87.3235 1.67768 87.4099 1.7072C87.5333 1.7482 87.6228 1.81706 87.811 1.79902C88.6256 1.72195 89.4432 1.658 90.2546 1.57928C90.4398 1.56124 90.5385 1.617 90.6619 1.65799C90.7051 1.67275 90.7452 1.69571 90.7915 1.70063C90.8378 1.70555 90.8933 1.69406 90.9427 1.68914C91.9609 1.60059 92.9821 1.51369 93.9972 1.41858C94.1885 1.40054 94.2718 1.47104 94.4014 1.50712C94.4446 1.52024 94.494 1.54321 94.5341 1.53993C95.145 1.48909 95.759 1.43496 96.37 1.38084C96.589 1.36116 96.589 1.3628 96.9222 1.46284C96.9623 1.47596 97.0148 1.48908 97.058 1.4858C97.7707 1.42512 98.4865 1.36281 99.1993 1.30049C99.4183 1.28081 99.4183 1.28082 100.051 1.36609C100.097 1.37265 100.146 1.3825 100.193 1.37922C101.007 1.30871 101.825 1.23982 102.639 1.16439C102.803 1.14963 102.939 1.16274 103.056 1.22178C103.139 1.26442 103.226 1.28246 103.328 1.27263C104.244 1.19227 105.163 1.1152 106.077 1.02993C106.253 1.01353 106.367 1.04959 106.49 1.09715C106.53 1.11355 106.57 1.13651 106.617 1.14307C106.663 1.14963 106.715 1.14306 106.765 1.13814C107.681 1.05779 108.601 0.982358 109.514 0.895445C109.699 0.877406 109.798 0.933159 109.921 0.974156C109.964 0.988915 110.011 1.01843 110.048 1.01679C110.405 0.988916 110.763 0.964327 111.118 0.92333C111.309 0.900372 111.393 0.975793 111.522 1.01187C111.566 1.02335 111.615 1.04796 111.655 1.04468C112.42 0.980724 113.185 0.913494 113.948 0.844619C114.056 0.83478 114.136 0.849525 114.222 0.892162C114.336 0.949558 114.469 0.972517 114.636 0.954478C114.99 0.916761 115.348 0.89053 115.706 0.859372C115.916 0.841333 115.916 0.841339 116.558 0.926613C116.604 0.933172 116.653 0.943004 116.7 0.939725C117.311 0.887249 117.925 0.836415 118.532 0.77902C118.696 0.762621 118.832 0.777376 118.949 0.836411C119.032 0.879048 119.116 0.897097 119.22 0.887257C119.782 0.838061 120.341 0.78886 120.902 0.739664C121.106 0.721625 121.309 0.690459 121.513 0.690459C121.661 0.692099 121.769 0.77081 121.902 0.810168C121.939 0.821647 122.001 0.808543 122.05 0.805263C122.763 0.742948 123.478 0.685546 124.188 0.615031C124.373 0.596993 124.472 0.652745 124.595 0.693742C124.639 0.708501 124.685 0.738021 124.722 0.736381C124.978 0.718342 125.231 0.693742 125.487 0.672423C125.792 0.646185 126.101 0.626506 126.403 0.590429C126.65 0.560911 126.743 0.703576 126.94 0.708496C127.091 0.713415 127.246 0.685542 127.397 0.672423C127.702 0.646185 128.008 0.61667 128.313 0.593712C128.421 0.585513 128.505 0.559263 128.539 0.500228C128.545 0.488748 128.492 0.464161 128.458 0.449402C128.048 0.282134 128.048 0.282126 127.634 0.318203C127.378 0.341161 127.125 0.364124 126.869 0.383802C126.826 0.387082 126.777 0.373964 126.734 0.364125C126.61 0.336247 126.622 0.303452 126.727 0.244416C126.832 0.185381 126.912 0.113232 127.002 0.0459972C127.128 0.0886341 127.252 0.131256 127.378 0.173893C127.48 0.165693 127.582 0.155868 127.684 0.147669C128.193 0.105032 128.702 0.0607521 129.211 0.0213949C129.248 0.0181152 129.294 0.0509176 129.338 0.0673164C129.461 0.114873 129.572 0.155859 129.751 0.13782C130.208 0.0902636 130.667 0.055826 131.124 0.014829C131.325 -0.00320971 131.325 -0.0032081 131.676 0.0984646C131.716 0.109944 131.769 0.123064 131.812 0.119784C132.272 0.0820665 132.728 0.0410743 133.188 0.00171714C133.287 -0.00648227 133.383 0.0148354 133.454 0.062392C133.481 0.0820705 133.475 0.114862 133.592 0.383802C133.956 0.601907 134.206 0.57896 134.459 0.559281C134.567 0.551082 134.663 0.542874 134.734 0.510076C134.771 0.492038 134.817 0.465796 134.817 0.444477C134.817 0.428078 134.749 0.401835 134.706 0.398556C134.401 0.365758 134.111 0.434643 133.811 0.449402C133.673 0.455961 133.552 0.398565 133.528 0.305091C133.521 0.278853 133.512 0.250977 133.503 0.224739C133.494 0.198501 133.488 0.170624 133.478 0.144386C133.358 0.136187 133.287 0.1657 133.235 0.221456C133.191 0.267372 133.13 0.319849 133.046 0.344447C132.963 0.370685 132.849 0.365774 132.747 0.373973C132.648 0.382173 132.54 0.403489 132.448 0.39201C132.355 0.378891 132.281 0.331326 132.195 0.301808C132.155 0.287049 132.105 0.265739 132.065 0.269019C131.71 0.296897 131.359 0.324764 131.007 0.360842C130.822 0.38052 130.729 0.311656 130.612 0.269019C130.519 0.236221 130.427 0.24441 130.411 0.319845C130.371 0.500232 130.513 0.575662 130.828 0.541225C131.087 0.511707 131.322 0.506802 131.525 0.618314C131.553 0.633073 131.618 0.63963 131.658 0.636351C131.911 0.616672 132.161 0.592071 132.414 0.572393C132.46 0.569113 132.509 0.575662 132.553 0.582222C133.182 0.670775 133.182 0.672424 133.395 0.652745C133.497 0.642906 133.595 0.634706 133.586 0.385444C133.781 0.118143 134.089 0.100108 134.388 0.0607505C134.583 0.0361523 134.666 0.10831 134.793 0.146028C134.836 0.159147 134.882 0.18538 134.922 0.1821C135.586 0.127984 136.246 0.0705802 136.906 0.00990454C137.017 6.52506e-05 137.097 0.00990614 137.184 0.0525431C137.295 0.106659 137.418 0.141104 137.594 0.121425C137.946 0.0820682 138.304 0.0574755 138.662 0.0246779C138.844 0.00827907 138.844 0.00826226 139.211 0.109935C139.251 0.121414 139.303 0.134534 139.347 0.131254C139.705 0.103376 140.059 0.0689491 140.414 0.0394312C140.513 0.0312318 140.602 0.0541878 140.68 0.0984646C140.757 0.142741 140.849 0.165697 140.945 0.157498C141.303 0.12798 141.658 0.0951928 142.013 0.0656749C142.056 0.0623952 142.108 0.0738735 142.148 0.0853527C142.525 0.187025 142.525 0.187009 142.697 0.17061C142.95 0.146012 143.21 0.134545 143.46 0.101748C143.703 0.0689499 143.83 0.164055 143.996 0.216531C144.453 0.178814 144.913 0.147664 145.366 0.101748C145.551 0.0820689 145.65 0.13618 145.774 0.178817C145.817 0.193576 145.86 0.224737 145.9 0.223097C146.054 0.216538 146.206 0.198502 146.357 0.185383C146.508 0.172264 146.662 0.159147 146.813 0.146028C146.986 0.193584 147.1 0.305094 147.347 0.267377C147.495 0.244419 147.653 0.239499 147.804 0.22638C147.955 0.213261 148.109 0.200144 148.26 0.187025C148.362 0.178825 148.467 0.173898 148.566 0.159139C148.748 0.134541 148.837 0.214905 148.967 0.250982C149.01 0.262462 149.06 0.282127 149.1 0.278848C149.405 0.255889 149.714 0.236212 150.013 0.198495C150.244 0.168977 150.402 0.21818 150.565 0.287055C150.599 0.301814 150.658 0.310012 150.701 0.306733C151.059 0.278855 151.414 0.244408 151.769 0.21489C151.864 0.20669 151.957 0.232928 152.034 0.275565C152.114 0.319841 152.204 0.341176 152.302 0.332976C152.657 0.303459 153.015 0.270651 153.37 0.241133C153.413 0.237854 153.466 0.250975 153.506 0.264094C153.851 0.365767 153.851 0.367408 154.055 0.34773C154.104 0.34281 154.157 0.339518 154.206 0.334598C154.459 0.31164 154.721 0.303451 154.968 0.264094C155.252 0.219817 155.459 0.275576 155.659 0.369049C155.912 0.34937 156.171 0.337889 156.418 0.305091C156.603 0.280493 156.702 0.342805 156.826 0.383802C156.869 0.398561 156.915 0.428079 156.952 0.424799C157.31 0.396921 157.668 0.372332 158.02 0.331335C158.211 0.308377 158.294 0.382158 158.424 0.419875C158.467 0.432994 158.513 0.455964 158.553 0.452685C158.757 0.439566 158.961 0.419877 159.164 0.401839C159.402 0.38052 159.402 0.382158 159.717 0.482191C159.865 0.529748 160.013 0.492029 160.158 0.48055C160.312 0.467431 160.457 0.457595 160.581 0.52483C160.658 0.567467 160.75 0.593706 160.846 0.587146C161.05 0.572387 161.256 0.557635 161.457 0.533037C161.617 0.513359 161.756 0.52647 161.873 0.587146C161.957 0.629783 162.043 0.651114 162.145 0.641275C162.602 0.601918 163.061 0.560906 163.518 0.523188C163.558 0.519909 163.613 0.534673 163.651 0.549432C163.737 0.57895 163.82 0.61174 163.904 0.644538C164.104 0.629779 164.311 0.623236 164.508 0.600278C164.718 0.57732 164.909 0.569118 165.073 0.659311C165.107 0.67899 165.156 0.706853 165.196 0.705213C165.351 0.698653 165.502 0.682259 165.653 0.66914C165.804 0.656021 165.958 0.642904 166.11 0.629785C166.285 0.670782 166.397 0.788852 166.643 0.751134C166.792 0.728176 166.949 0.723256 167.1 0.710137C167.251 0.697018 167.406 0.682261 167.557 0.670782C167.606 0.667502 167.662 0.659298 167.705 0.665857C167.751 0.672417 167.791 0.69538 167.831 0.711779C167.955 0.759335 168.069 0.806898 168.245 0.77902C168.393 0.756061 168.55 0.75114 168.701 0.736381C168.908 0.718342 168.908 0.718346 169.251 0.821658C169.389 0.864295 169.547 0.808541 169.679 0.844619C169.769 0.869217 169.846 0.910205 169.932 0.938083C169.969 0.949562 170.028 0.954475 170.071 0.951195C170.275 0.936436 170.482 0.921684 170.682 0.897086C170.846 0.877408 170.982 0.897084 171.096 0.95612C171.179 0.998756 171.262 1.0168 171.367 1.00697C171.876 0.961049 172.385 0.921679 172.891 0.870842C173.064 0.852804 173.203 0.880689 173.299 0.939725C173.462 1.0414 173.694 0.921688 173.863 1.00368C173.968 1.05452 174.073 1.11356 174.264 1.08896C174.616 1.04632 174.974 1.02335 175.329 0.993834C175.455 1.03811 175.582 1.0824 175.711 1.12667C175.915 1.10863 176.119 1.09058 176.322 1.07419C176.474 1.06107 176.628 1.04631 176.779 1.03483C176.828 1.03155 176.881 1.02499 176.927 1.03319C176.973 1.04139 177.01 1.06271 177.054 1.07911C177.267 1.15946 177.266 1.16111 177.618 1.12832C177.769 1.11356 177.914 1.10372 178.041 1.16931C178.158 1.22999 178.297 1.24146 178.457 1.22342C178.76 1.19062 179.065 1.16603 179.374 1.14307C179.47 1.13487 179.559 1.16275 179.639 1.20538C179.759 1.27262 179.908 1.26606 180.059 1.24802C180.259 1.22506 180.457 1.20211 180.626 1.29394C180.66 1.31362 180.713 1.34149 180.75 1.33985C181.003 1.32673 181.259 1.3169 181.506 1.28574C181.753 1.25458 181.873 1.35625 182.043 1.40545C182.296 1.38413 182.552 1.36281 182.805 1.34149C182.854 1.33657 182.913 1.32182 182.956 1.33002C183.138 1.36445 183.243 1.48744 183.493 1.44973C183.638 1.42841 183.795 1.42186 183.946 1.41694C183.987 1.4153 184.039 1.44316 184.067 1.46448C184.082 1.47596 184.067 1.50711 184.048 1.52351C183.993 1.56943 183.925 1.61208 183.875 1.65964C183.869 1.66619 183.928 1.6957 183.962 1.70882C184.045 1.73834 184.141 1.73343 184.252 1.72031C184.348 1.70883 184.446 1.73179 184.514 1.78098C184.542 1.80066 184.533 1.83346 184.474 1.94169C184.474 2.02204 184.539 1.98596 184.56 1.93348C184.594 1.85805 184.53 1.83345 184.406 1.87445C184.32 1.90397 184.277 1.94661 184.298 1.98105C184.311 1.99908 184.369 2.02204 184.474 1.94169C184.746 1.8433 184.949 1.82527 185.153 1.80723C185.205 1.80231 185.267 1.7859 185.304 1.79574C185.437 1.8351 185.56 1.88266 185.69 1.92694C185.838 1.9171 185.977 1.89249 186.122 1.95644C186.325 2.04664 186.335 2.03844 186.532 2.0204C186.634 2.01056 186.736 2.00238 186.837 1.99418C186.939 1.98598 187.019 2.01057 187.109 2.04829C187.291 2.12536 187.306 2.12535 187.427 2.0204C187.498 1.95645 187.547 1.93513 187.637 1.96465C187.933 2.06468 187.936 2.07124 188.189 2.04172C188.399 2.01712 188.596 2.01056 188.75 2.10404C188.855 2.16963 188.889 2.15488 188.973 2.086C189.195 1.90397 189.296 1.90725 189.713 2.03844C189.907 2.10075 190.108 2.03352 190.305 2.02533C190.472 2.01877 190.589 2.05812 190.602 2.16143C190.611 2.22538 190.639 2.27131 190.75 2.29263C190.793 2.30083 190.845 2.3123 190.889 2.30902C191.145 2.28934 191.398 2.26638 191.654 2.24342C191.783 2.23194 191.854 2.15488 191.83 2.05321C191.802 1.94498 191.851 1.90561 192.036 1.87445C192.147 1.85641 192.237 1.8597 192.326 1.88922C192.425 1.92202 192.397 1.95154 192.311 2.01057C192.104 2.15488 192.129 2.24342 192.394 2.34345C192.487 2.37789 192.561 2.40906 192.582 2.4599C192.595 2.48614 192.583 2.52057 192.61 2.54025C192.761 2.65012 192.971 2.72065 193.206 2.77312C193.431 2.72884 193.585 2.80263 193.758 2.86166C193.894 2.90758 194.054 2.86823 194.199 2.85183C194.363 2.83379 194.499 2.84691 194.616 2.90758C194.699 2.95022 194.785 2.96989 194.887 2.96169C195.091 2.94365 195.298 2.93218 195.498 2.90594C195.671 2.88298 195.801 2.91578 195.909 2.97154C196.044 3.04206 196.196 2.99449 196.337 3.00433C196.529 3.01581 196.624 3.16175 196.874 3.1224C197.022 3.09944 197.177 3.09124 197.331 3.08468C197.371 3.08304 197.42 3.11093 197.454 3.1306C197.618 3.2208 197.809 3.21588 198.019 3.18964C198.164 3.1716 198.306 3.15521 198.448 3.21752C198.682 3.32248 198.942 3.41431 199.188 3.51107C199.222 3.5865 199.198 3.67504 199.373 3.71932C199.466 3.74227 199.552 3.77672 199.623 3.81444C199.71 3.85872 199.79 3.8702 199.901 3.85872C200.102 3.83576 200.312 3.83083 200.509 3.80131C200.691 3.77507 200.805 3.82921 200.916 3.88004C201.006 3.92104 201.089 3.94071 201.197 3.91119C201.308 3.88331 201.388 3.90134 201.478 3.94562C201.604 4.0063 201.614 3.99975 202.033 4.01779C202.076 4.01943 202.129 4.04401 202.153 4.06533C202.166 4.07681 202.138 4.10962 202.116 4.12602C202.089 4.1457 202.045 4.16865 202.005 4.17357C201.549 4.2162 201.089 4.25392 200.632 4.29656C200.586 4.30148 200.537 4.31297 200.503 4.32937C200.466 4.34741 200.419 4.37199 200.419 4.39495C200.419 4.41135 200.481 4.43103 200.524 4.44251C200.66 4.48023 200.821 4.42283 200.953 4.46547C201.043 4.49335 201.117 4.5327 201.206 4.55893C201.243 4.57041 201.302 4.56878 201.348 4.5655C201.502 4.55402 201.654 4.53763 201.808 4.52779C201.851 4.52615 201.9 4.54255 201.941 4.55567C202.237 4.65406 202.237 4.65406 202.493 4.63274C202.595 4.62454 202.703 4.59994 202.798 4.60978C202.891 4.61962 202.971 4.6639 203.054 4.69177C203.227 4.75081 203.391 4.80821 203.403 4.93612C203.409 4.98531 203.511 5.02794 203.613 5.03122C203.712 5.0345 203.816 5.01648 203.918 5.00664C204.159 4.98696 204.159 4.98696 204.471 5.08699C204.557 5.11487 204.65 5.11814 204.761 5.10175C204.804 5.09519 204.856 5.10175 204.903 5.10995C205.054 5.13455 205.054 5.1657 204.955 5.22474C204.816 5.31165 204.828 5.31985 205.217 5.39365C205.365 5.42153 205.48 5.47401 205.603 5.51992C205.803 5.59372 205.8 5.5937 205.668 5.69046C205.637 5.71178 205.609 5.73474 205.578 5.7577C205.489 5.82165 205.418 5.89052 205.233 5.89708C205.029 5.90364 204.825 5.92989 204.622 5.94793C204.424 5.96597 204.372 6.00531 204.39 6.11682C204.412 6.25129 204.452 6.26606 204.807 6.26442C204.909 6.26442 204.998 6.27753 205.075 6.32181C205.038 6.37428 204.97 6.41528 204.872 6.42512C204.619 6.44972 204.363 6.47104 204.11 6.49236C203.906 6.5104 203.702 6.52843 203.499 6.54647C203.372 6.55795 203.292 6.64323 203.326 6.73834C203.344 6.79246 203.36 6.84657 203.375 6.90069C203.409 7.00892 203.474 7.03681 203.681 7.03189C203.733 7.03025 203.783 7.01712 203.832 7.0204C204.032 7.03188 204.128 7.16798 204.369 7.14011C204.569 7.11715 204.779 7.11223 204.977 7.08272C205.159 7.05648 205.26 7.11553 205.387 7.1598C205.43 7.17456 205.476 7.2057 205.514 7.20406C205.77 7.18603 206.026 7.168 206.276 7.13684C206.393 7.12372 206.464 7.13356 206.556 7.17292C206.778 7.26803 206.785 7.26311 207.115 7.23359C207.355 7.21063 207.359 7.21391 207.667 7.31394C207.754 7.34182 207.846 7.34182 207.957 7.3287C208.102 7.3123 208.253 7.28606 208.405 7.31066C208.451 7.31722 208.509 7.33691 208.525 7.35822C208.534 7.37298 208.491 7.40906 208.454 7.42054C208.182 7.50581 207.865 7.49106 207.568 7.5255C207.476 7.53533 207.383 7.50417 207.306 7.4599C207.226 7.41562 207.14 7.39759 207.035 7.40579C206.831 7.42383 206.624 7.4353 206.424 7.46154C206.251 7.4845 206.131 7.44677 206.01 7.39594C205.97 7.37954 205.924 7.34838 205.884 7.35002C205.427 7.38281 204.967 7.41562 204.514 7.46154C204.332 7.48122 204.227 7.42874 204.103 7.38447C204.06 7.36971 204.017 7.33855 203.977 7.34019C203.823 7.34675 203.672 7.36478 203.517 7.3779C202.956 7.4271 202.397 7.4763 201.836 7.52221C201.799 7.52549 201.752 7.49105 201.709 7.47629C201.626 7.44677 201.539 7.41889 201.453 7.39101C201.299 7.40413 201.148 7.42053 200.993 7.43037C200.882 7.43693 200.784 7.4599 200.768 7.52221C200.759 7.56321 200.861 7.60092 200.969 7.59764C201.074 7.59436 201.178 7.57468 201.265 7.596C201.694 7.70095 201.694 7.70259 201.962 7.68128C202.197 7.6616 202.172 7.64519 202.379 7.73538C202.468 7.77474 202.548 7.79771 202.65 7.78787C202.903 7.76491 203.159 7.74195 203.415 7.72227C203.456 7.71899 203.508 7.7354 203.548 7.74852C203.85 7.84691 203.85 7.85018 204.1 7.82559C204.427 7.79607 204.44 7.78787 204.659 7.8879C204.81 7.95678 204.949 7.90922 205.094 7.90594C205.26 7.96989 205.443 8.0273 205.594 8.09945C205.773 8.18473 205.961 8.16995 206.164 8.14536C206.316 8.12732 206.464 8.12076 206.587 8.18799C206.704 8.25031 206.846 8.25688 207.007 8.24048C207.152 8.22572 207.3 8.19456 207.451 8.23063C207.491 8.24047 207.553 8.26508 207.55 8.27984C207.547 8.3028 207.507 8.3356 207.467 8.34544C207.183 8.41267 206.871 8.41103 206.572 8.44218C206.532 8.4471 206.479 8.42906 206.439 8.41594C206.353 8.38642 206.269 8.35199 206.186 8.32083C206.035 8.33067 205.881 8.33395 205.733 8.35362C205.618 8.36838 205.532 8.36676 205.449 8.3274C205.372 8.29132 205.288 8.24704 205.196 8.23556C205.103 8.22408 204.995 8.24868 204.893 8.25852C204.792 8.26836 204.674 8.26343 204.594 8.28967C204.514 8.3159 204.464 8.37331 204.412 8.41922C204.353 8.47006 204.273 8.48647 204.156 8.49139C204.048 8.49631 203.962 8.48974 203.881 8.44382C203.847 8.42415 203.801 8.40938 203.755 8.39626C203.712 8.38478 203.662 8.36674 203.622 8.37002C203.162 8.40774 202.706 8.44875 202.246 8.4881C202.018 8.50778 202.021 8.50777 201.546 8.41102C201.502 8.40282 201.45 8.39134 201.407 8.39462C201.151 8.4143 200.898 8.43726 200.642 8.46022C200.382 8.48318 200.386 8.4799 199.944 8.37658C199.864 8.35691 199.747 8.38315 199.651 8.37987C199.451 8.37167 199.352 8.23392 199.117 8.26016C198.917 8.28312 198.707 8.28803 198.506 8.31755C198.324 8.34379 198.22 8.2864 198.096 8.24212C198.053 8.22736 198.007 8.19456 197.97 8.19784C197.51 8.23392 197.053 8.27492 196.442 8.27984C196.291 8.27984 196.359 8.31428 196.458 8.32576C196.6 8.3438 196.646 8.30936 196.569 8.24376C196.513 8.19785 196.433 8.17487 196.368 8.18635C196.334 8.19291 196.291 8.22408 196.442 8.27984C196.603 8.34215 196.594 8.37658 196.621 8.39626C196.689 8.44382 196.785 8.4635 196.884 8.45694C197.038 8.44546 197.189 8.42906 197.343 8.41922C197.387 8.41594 197.439 8.42742 197.479 8.44054C197.818 8.54221 197.822 8.54878 198.183 8.50942C198.297 8.49794 198.38 8.49794 198.469 8.5291C198.593 8.57174 198.682 8.64388 198.871 8.62092C199.121 8.58977 199.377 8.57174 199.633 8.5537C199.673 8.55042 199.716 8.57994 199.762 8.59306C199.889 8.63242 199.981 8.70621 200.17 8.67505C200.315 8.65046 200.472 8.64388 200.626 8.63896C200.666 8.63732 200.728 8.66356 200.746 8.68488C200.784 8.7226 200.737 8.76689 200.632 8.79805C200.589 8.81116 200.531 8.80788 200.481 8.8128C200.278 8.83084 200.074 8.85051 199.87 8.86527C199.762 8.87347 199.66 8.89808 199.648 8.95875C199.639 8.99975 199.75 9.03582 199.855 9.03254C200.009 9.02762 200.163 9.0145 200.311 8.99318C200.574 8.9571 200.802 8.96694 201.015 9.07025C201.166 9.14241 201.157 9.11618 201.317 9.32937C201.357 9.38348 201.478 9.3884 201.583 9.38512C201.836 9.37692 201.953 9.40152 201.931 9.45236C201.904 9.51467 201.814 9.53434 201.7 9.54254C201.496 9.55566 201.293 9.57699 201.089 9.59503C201.04 9.59995 200.984 9.60978 200.938 9.6065C200.892 9.60322 200.848 9.58354 200.808 9.56878C200.722 9.53762 200.648 9.49006 200.555 9.47858C200.463 9.4671 200.355 9.4917 200.253 9.50154C200.151 9.50974 200.043 9.53434 199.951 9.52286C199.858 9.51138 199.781 9.4622 199.697 9.43268C199.657 9.41792 199.608 9.39495 199.568 9.39659C199.364 9.40971 199.161 9.43103 198.957 9.44743C198.707 9.46875 198.707 9.46875 198.405 9.36708C198.318 9.33756 198.229 9.33921 198.115 9.35233C197.868 9.37856 197.865 9.37363 197.414 9.27852C197.371 9.26868 197.319 9.25721 197.275 9.26212C196.816 9.29984 196.359 9.34083 195.902 9.38019C195.511 9.41463 195.511 9.41464 195.295 9.57863C195.134 9.69998 195.131 9.69997 195.288 9.75573C195.415 9.80165 195.529 9.86888 195.668 9.89347C195.797 9.91643 195.958 9.84264 196.1 9.91808C196.171 9.95579 196.263 9.99679 196.353 10.0034C196.495 10.0116 196.646 9.96399 196.782 10.0361C196.85 10.0722 196.951 10.11 197.038 10.1116C197.189 10.1149 197.343 10.0886 197.495 10.0771C197.541 10.0739 197.593 10.0739 197.636 10.0821C197.683 10.0919 197.723 10.1116 197.763 10.128C197.886 10.1837 198.019 10.21 198.179 10.1821C198.442 10.1362 198.676 10.1591 198.88 10.2641C198.908 10.2788 198.975 10.2805 199.019 10.2739C199.13 10.2575 199.225 10.2559 199.309 10.2871C199.343 10.3002 199.392 10.3231 199.386 10.3379C199.377 10.3625 199.34 10.3953 199.299 10.4035C199.009 10.4592 198.698 10.4658 198.399 10.4953C198.358 10.4986 198.309 10.4773 198.269 10.4625C198.183 10.433 198.108 10.3838 198.016 10.3723C197.923 10.3608 197.815 10.3822 197.714 10.3904C197.612 10.3986 197.504 10.4232 197.411 10.4133C197.319 10.4018 197.232 10.3608 197.158 10.3248C197.072 10.2838 196.988 10.2789 196.874 10.2953C196.726 10.3166 196.572 10.3199 196.421 10.3313C196.337 10.3002 196.254 10.2657 196.168 10.2362C196.128 10.2214 196.078 10.2034 196.035 10.2051C195.831 10.2182 195.628 10.2378 195.424 10.2559C195.22 10.2739 195.221 10.2739 194.875 10.1723C194.835 10.1608 194.782 10.1477 194.739 10.1509C194.483 10.1706 194.23 10.1952 193.974 10.2149C193.875 10.2231 193.786 10.2001 193.706 10.1559C193.628 10.1116 193.536 10.087 193.44 10.0952C193.033 10.1296 192.626 10.1624 192.218 10.2034C192.055 10.2198 191.916 10.2051 191.805 10.146C191.675 10.0788 191.53 10.0952 191.379 10.1083C191.037 10.1411 191.034 10.1395 190.815 10.0558C190.771 10.0394 190.728 10.0083 190.688 10.0099C190.333 10.0345 189.975 10.0575 189.624 10.0968C189.438 10.1181 189.34 10.0607 189.216 10.0181C189.173 10.0033 189.127 9.97219 189.09 9.97547C188.834 9.99351 188.578 10.0099 188.328 10.0427C188.078 10.0755 187.982 9.923 187.794 9.92464C187.538 9.92628 187.285 9.964 187.032 9.98696C186.828 10.005 186.625 10.023 186.421 10.0411C186.217 10.0591 186.014 10.0739 185.81 10.0952C185.702 10.1067 185.622 10.0919 185.532 10.0509C185.418 9.99678 185.282 9.95416 185.159 9.90497C184.971 9.83445 184.971 9.83444 184.742 9.85412C184.693 9.85904 184.641 9.86231 184.591 9.86723C184.218 9.90331 184.218 9.90004 183.743 9.79673C183.721 9.79181 183.666 9.80985 183.644 9.82297C183.579 9.86561 183.521 9.91151 183.462 9.95579C183.379 9.92955 183.277 9.9148 183.221 9.87708C183.064 9.77049 182.817 9.91643 182.657 9.81148C182.598 9.77212 182.496 9.73768 182.404 9.72785C182.308 9.71801 182.2 9.74097 182.101 9.75081C181.845 9.7754 181.845 9.77377 181.626 9.91972C181.515 9.99187 181.355 9.97875 181.21 9.99515C181.058 10.0132 180.913 10.023 180.787 9.95579C180.673 9.89512 180.534 9.88036 180.37 9.90004C180.17 9.92464 179.963 9.93939 179.76 9.95415C179.716 9.95743 179.664 9.94924 179.621 9.9394C179.149 9.84264 179.149 9.84101 178.92 9.86233C178.818 9.87217 178.714 9.87543 178.615 9.89019C178.448 9.91643 178.322 9.88199 178.201 9.82952C178.161 9.81312 178.115 9.78198 178.075 9.78362C177.871 9.79181 177.671 9.80657 177.47 9.82133C177.316 9.83281 177.162 9.83937 177.013 9.86233C176.767 9.90004 176.646 9.79344 176.477 9.74424C176.224 9.76556 175.968 9.78032 175.715 9.80984C175.597 9.82296 175.52 9.81805 175.431 9.77869C175.317 9.7295 175.212 9.67374 175.026 9.69834C174.78 9.73114 174.52 9.74262 174.267 9.7623C174.098 9.71146 173.974 9.60813 173.731 9.64585C173.583 9.66881 173.425 9.67373 173.274 9.68685C173.07 9.70489 172.867 9.7213 172.663 9.74098C172.444 9.76066 172.447 9.75574 172.111 9.65898C171.916 9.60159 171.716 9.66554 171.518 9.67538C171.364 9.68358 171.287 9.75901 171.324 9.85576C171.361 9.95251 171.278 10.0279 171.136 10.0411C170.781 10.0722 170.423 10.105 170.068 10.1329C170.025 10.1362 169.973 10.1247 169.932 10.1132C169.553 10.0099 169.553 10.0116 169.383 10.0263C169.13 10.0509 168.871 10.064 168.621 10.0952C168.448 10.1165 168.322 10.0821 168.211 10.0263C168.124 9.98368 168.044 9.97384 167.933 9.98368C166.711 10.0935 165.489 10.1952 164.271 10.3084C164.089 10.3248 163.984 10.2772 163.86 10.2329C163.817 10.2182 163.777 10.187 163.734 10.187C163.632 10.187 163.53 10.2018 163.428 10.2116C162.972 10.251 162.515 10.2985 162.055 10.328C161.861 10.3412 161.809 10.4166 161.725 10.4789C161.66 10.5265 161.586 10.5462 161.472 10.5527C161.361 10.5593 161.281 10.5511 161.195 10.5084C161.083 10.4527 160.957 10.4182 160.784 10.4412C160.584 10.4674 160.38 10.4789 160.173 10.497C160.068 10.5052 159.988 10.5347 159.954 10.5937C159.948 10.6035 160.013 10.6282 160.05 10.6429C160.173 10.6921 160.291 10.7495 160.429 10.7839C160.571 10.8184 160.726 10.779 160.874 10.7692C160.926 10.7659 160.975 10.7561 161.025 10.7577C161.071 10.7593 161.127 10.7675 161.161 10.7823C161.321 10.8561 161.491 10.9069 161.713 10.8626C161.904 10.884 162.003 11.0201 162.247 10.984C162.395 10.9627 162.549 10.9528 162.703 10.9446C162.743 10.943 162.787 10.9725 162.83 10.9873C162.953 11.0283 163.052 11.0939 163.237 11.066C163.435 11.0365 163.644 11.0316 163.845 11.0086C163.956 10.9955 164.036 11.007 164.123 11.0496C164.234 11.1037 164.36 11.1447 164.533 11.1185C164.681 11.0955 164.838 11.0906 164.99 11.0758C165.187 11.0578 165.187 11.0594 165.539 11.1611C165.579 11.1726 165.631 11.1857 165.675 11.1824C165.931 11.1627 166.184 11.1381 166.44 11.1185C166.538 11.1103 166.634 11.1316 166.702 11.1791C166.73 11.1988 166.72 11.2316 166.73 11.2595C166.221 11.3038 165.712 11.3415 165.206 11.3956C165.014 11.4169 164.928 11.3497 164.801 11.312C164.758 11.2989 164.712 11.271 164.672 11.2743C164.314 11.3021 163.959 11.3316 163.604 11.3677C163.493 11.3792 163.41 11.3726 163.327 11.3251C163.114 11.1988 162.855 11.2677 162.614 11.2857C162.429 11.2989 162.37 11.3497 162.392 11.4579C162.419 11.5858 162.531 11.6252 162.814 11.6022C162.916 11.594 163.018 11.5826 163.12 11.576C163.219 11.5694 163.308 11.5908 163.388 11.635C163.465 11.6793 163.558 11.7023 163.654 11.6957C163.857 11.6809 164.064 11.6662 164.261 11.6416C164.425 11.6219 164.561 11.6383 164.675 11.699C164.801 11.7662 164.95 11.7515 165.098 11.7367C165.443 11.7039 165.446 11.7056 165.662 11.7875C165.705 11.8039 165.749 11.8351 165.789 11.8335C166.144 11.8089 166.501 11.7875 166.85 11.7482C167.032 11.7285 167.137 11.781 167.257 11.8236C167.301 11.8384 167.344 11.8712 167.384 11.8679C167.64 11.8499 167.896 11.8318 168.146 11.8007C168.263 11.7859 168.334 11.7957 168.43 11.8351C168.658 11.9318 168.664 11.9286 168.988 11.8974C169.087 11.8876 169.195 11.8695 169.288 11.8827C169.38 11.8958 169.454 11.9433 169.541 11.9729C169.581 11.986 169.63 12.004 169.673 12.0007C169.877 11.9876 170.081 11.9679 170.284 11.9499C170.475 11.9319 170.475 11.9335 170.833 12.0352C170.978 12.0778 171.13 12.0417 171.275 12.0286C171.432 12.0138 171.574 12.0139 171.694 12.0778C171.815 12.1418 171.96 12.1385 172.114 12.1254C172.259 12.1122 172.407 12.0762 172.555 12.1204C172.894 12.2221 172.894 12.2237 173.104 12.2041C173.41 12.1762 173.712 12.1499 174.021 12.1254C174.061 12.1221 174.113 12.1418 174.153 12.1549C174.24 12.1844 174.314 12.2336 174.406 12.2451C174.499 12.2582 174.607 12.2385 174.706 12.2287C175.023 12.1975 175.045 12.186 175.258 12.2943C175.437 12.3828 175.659 12.2549 175.826 12.3566C175.921 12.414 176.051 12.4599 176.23 12.432C176.378 12.409 176.532 12.4025 176.686 12.3894C176.93 12.3681 176.93 12.3697 177.239 12.4681C177.279 12.4812 177.331 12.4976 177.371 12.4943C177.575 12.4812 177.782 12.4697 177.979 12.4402C178.211 12.4058 178.359 12.4681 178.531 12.5288C178.667 12.5763 178.828 12.537 178.973 12.5206C179.13 12.5042 179.272 12.5091 179.389 12.573C179.513 12.6386 179.658 12.6304 179.812 12.6173C179.957 12.6058 180.105 12.5681 180.253 12.614C180.571 12.7157 180.571 12.7157 180.802 12.696C181.006 12.678 181.21 12.6583 181.413 12.6452C181.453 12.6419 181.503 12.6632 181.543 12.678C181.629 12.7075 181.703 12.7567 181.796 12.7682C181.888 12.7797 181.996 12.7584 182.098 12.7502C182.2 12.742 182.308 12.7174 182.401 12.7272C182.493 12.737 182.58 12.778 182.654 12.8141C182.74 12.8568 182.82 12.8617 182.937 12.8453C183.086 12.8239 183.24 12.819 183.391 12.8075C183.474 12.8387 183.561 12.8699 183.641 12.9043C183.724 12.9404 183.814 12.9371 183.928 12.9256C184.307 12.8863 184.31 12.8912 184.628 12.9929C184.773 13.0388 184.925 13.0011 185.07 12.9896C185.224 12.9765 185.369 12.9699 185.489 13.0355C185.606 13.0978 185.751 13.106 185.906 13.0863C186.004 13.0732 186.109 13.065 186.211 13.0601C186.257 13.0585 186.313 13.065 186.347 13.0781C186.51 13.147 186.671 13.2093 186.896 13.1651C187.094 13.1782 187.192 13.3126 187.43 13.2864C187.63 13.2634 187.84 13.2585 188.038 13.229C188.22 13.2028 188.349 13.2487 188.442 13.3061C188.608 13.4078 188.843 13.27 189.01 13.37C189.105 13.4274 189.229 13.4733 189.414 13.4487C189.617 13.4225 189.682 13.4569 189.741 13.5602C189.775 13.6193 189.769 13.6668 189.707 13.7128C189.645 13.7603 189.577 13.7521 189.479 13.698C189.364 13.6373 189.229 13.6258 189.065 13.639C188.905 13.6521 188.806 13.5668 188.673 13.534C188.541 13.4996 188.383 13.557 188.244 13.5127C187.917 13.4094 187.917 13.4094 187.695 13.4291C187.544 13.4422 187.387 13.4487 187.239 13.4717C187.063 13.4996 186.949 13.4487 186.828 13.4028C186.785 13.3864 186.742 13.3553 186.705 13.3569C186.35 13.3815 185.992 13.4045 185.64 13.4455C185.455 13.4668 185.356 13.4078 185.233 13.3668C185.19 13.352 185.144 13.3225 185.107 13.3258C184.801 13.3487 184.499 13.3782 184.193 13.4061C184.135 13.4504 184.07 13.493 184.014 13.5406C183.956 13.5898 183.875 13.6111 183.758 13.6095C183.564 13.6095 183.373 13.6783 183.178 13.5914C182.978 13.5029 182.962 13.5078 182.768 13.5291C182.521 13.557 182.259 13.5504 182.027 13.6144C181.987 13.6259 181.944 13.657 181.944 13.68C181.941 13.6947 182.006 13.716 182.046 13.7292C182.182 13.7685 182.339 13.7111 182.475 13.7521C182.564 13.7784 182.638 13.8177 182.728 13.8456C182.765 13.8571 182.82 13.8554 182.87 13.8538C182.922 13.8522 182.971 13.8407 183.021 13.8423C183.067 13.844 183.116 13.8538 183.154 13.8685C183.323 13.9309 183.502 13.9883 183.653 14.0621C183.801 14.1342 183.94 14.085 184.088 14.0817C184.681 14.1965 184.681 14.1982 185.079 14.1621C185.178 14.1539 185.279 14.1441 185.381 14.1457C185.424 14.1457 185.464 14.1752 185.508 14.1916C185.631 14.2408 185.748 14.2851 185.921 14.2588C186.069 14.2359 186.227 14.231 186.378 14.2162C186.581 14.1982 186.581 14.1982 186.927 14.3015C187.013 14.3277 187.106 14.3244 187.217 14.3113C187.313 14.2998 187.411 14.3244 187.479 14.372C187.507 14.3917 187.498 14.4245 187.507 14.4524C187.202 14.4786 186.893 14.4966 186.597 14.536C186.406 14.5606 186.319 14.4901 186.193 14.4524C186.149 14.4392 186.103 14.4114 186.063 14.4146C185.761 14.4392 185.458 14.4671 185.156 14.4999C185.119 14.5032 185.073 14.5409 185.07 14.5639C185.063 14.6065 185.14 14.6475 185.252 14.6458C185.4 14.6442 185.545 14.6163 185.677 14.6836C185.788 14.7426 185.927 14.7689 186.091 14.7426C186.189 14.7279 186.294 14.7278 186.393 14.7147C186.655 14.6754 186.893 14.6836 187.09 14.7951C187.242 14.8246 187.39 14.7967 187.535 14.782C187.643 14.7705 187.748 14.759 187.825 14.7902C187.988 14.8558 188.149 14.9214 188.374 14.8771C188.618 14.923 188.803 15.0197 189.007 15.0985C189.102 15.1362 189.176 15.1575 189.287 15.1329C189.334 15.1231 189.389 15.1231 189.438 15.1181C189.54 15.1099 189.648 15.0853 189.741 15.0952C189.833 15.1067 189.911 15.1542 189.994 15.1837C190.034 15.1985 190.08 15.2231 190.12 15.2214C190.275 15.2132 190.426 15.1969 190.577 15.1837C190.728 15.1723 190.879 15.1608 191.031 15.1493C191.157 15.1919 191.287 15.2346 191.413 15.2772C191.617 15.2592 191.82 15.2411 192.021 15.2247C192.246 15.2051 192.246 15.2067 192.57 15.3084C192.715 15.3543 192.869 15.3248 193.008 15.3034C193.24 15.269 193.394 15.3313 193.558 15.3969C193.591 15.41 193.653 15.4182 193.693 15.4117C193.854 15.3887 193.992 15.4068 194.11 15.4674C194.193 15.5101 194.276 15.5298 194.378 15.5216C194.733 15.4904 195.088 15.4576 195.443 15.4297C195.486 15.4264 195.535 15.4412 195.575 15.4543C195.89 15.5544 195.893 15.5593 196.125 15.533C196.331 15.5101 196.523 15.5002 196.686 15.5904C196.72 15.6101 196.772 15.638 196.809 15.6363C197.062 15.6199 197.319 15.6019 197.569 15.574C197.683 15.5609 197.763 15.5658 197.852 15.6036C197.967 15.6511 198.068 15.7085 198.257 15.6872C198.778 15.6265 198.781 15.6363 199.398 15.7495C199.441 15.7577 199.5 15.7446 199.549 15.738C199.654 15.7216 199.731 15.7446 199.824 15.7823C200.031 15.8676 200.037 15.8626 200.234 15.8446C200.386 15.8299 200.543 15.8266 200.691 15.802C200.919 15.7659 201.07 15.8299 201.24 15.8905C201.376 15.9381 201.533 15.8987 201.678 15.884C201.836 15.8676 201.978 15.8725 202.095 15.9348C202.175 15.9774 202.261 16.0004 202.363 15.9922C202.718 15.9627 203.073 15.9299 203.428 15.9004C203.471 15.8971 203.523 15.9102 203.564 15.9217C203.915 16.0234 203.915 16.0283 204.264 15.9906C204.375 15.9791 204.468 15.9758 204.551 16.0102C204.631 16.043 204.717 16.0742 204.801 16.1053C204.952 16.0939 205.106 16.0906 205.254 16.0709C205.368 16.0562 205.449 16.0627 205.538 16.0972C205.655 16.1414 205.754 16.2185 205.939 16.1808C206.035 16.1627 206.146 16.1677 206.242 16.1513C206.356 16.1299 206.433 16.1431 206.522 16.1857C206.634 16.2365 206.748 16.289 206.927 16.2628C207.124 16.2333 207.334 16.2283 207.534 16.2054C207.645 16.1923 207.723 16.2054 207.812 16.248C207.923 16.3021 208.05 16.3366 208.223 16.3153C208.574 16.2743 208.577 16.2824 208.92 16.3858C209.006 16.412 209.099 16.4087 209.21 16.3956C209.305 16.3841 209.404 16.4087 209.472 16.4563C209.537 16.5088 209.531 16.5415 209.537 16.5694ZM182.043 1.77934C181.941 1.78754 181.839 1.79738 181.691 1.65471C181.682 1.63011 181.688 1.6006 181.666 1.57928C181.617 1.53501 181.54 1.50385 181.447 1.49893C181.281 1.49237 181.08 1.54812 181.083 1.59075C181.086 1.62683 181.139 1.65798 181.24 1.6875C181.284 1.69898 181.318 1.71866 181.358 1.73178C181.475 1.7695 181.568 1.8433 181.737 1.80559C181.706 1.70391 181.722 1.75475 181.737 1.80559C181.722 1.8679 181.768 1.91218 181.879 1.93022C181.91 1.93514 181.956 1.93185 181.981 1.92201C182.077 1.88593 182.092 1.83675 182.021 1.7072C182.009 1.72852 182.018 1.76622 182.046 1.77606C182.074 1.7859 182.141 1.77771 182.175 1.76623C182.262 1.73507 182.305 1.69407 182.283 1.65964C182.271 1.6416 182.212 1.61864 182.175 1.61864C182.111 1.61864 182.052 1.65471 182.043 1.77934ZM206.991 20.797C206.766 20.8282 206.507 20.8167 206.282 20.8807C206.242 20.8922 206.202 20.9217 206.198 20.9446C206.195 20.9594 206.257 20.9807 206.294 20.9922C206.377 21.0184 206.47 21.0102 206.578 21.002C206.741 20.9906 206.837 21.066 206.964 21.1037C207.004 21.1152 207.056 21.1234 207.099 21.1201C207.349 21.1004 207.596 21.0791 207.846 21.0562C207.889 21.0512 207.936 21.0398 207.973 21.025C208.096 20.9774 208.084 20.9463 207.963 20.9102C207.831 20.8709 207.726 20.8052 207.59 20.7741C207.396 20.7298 207.198 20.7888 206.991 20.797ZM189.469 21.9942C189.318 22.0073 189.17 22.0204 189.019 22.0335C188.969 22.0384 188.917 22.0401 188.871 22.0466C188.775 22.0581 188.704 22.0926 188.658 22.1467C188.729 22.1893 188.815 22.2139 188.911 22.209C189.062 22.1991 189.21 22.1778 189.361 22.1729C189.525 22.1663 189.62 22.2401 189.747 22.2779C189.787 22.2893 189.836 22.291 189.883 22.2926C190.111 22.2992 190.25 22.2139 190.207 22.0942C190.176 22.0007 190.059 21.945 189.917 21.9565C189.769 21.9679 189.617 21.981 189.469 21.9942ZM208.047 18.3733C208.084 18.3454 208.124 18.3258 208.142 18.3012C208.198 18.2175 208.176 18.1552 208.074 18.0896C207.951 18.0092 207.8 18.0634 207.661 18.0716C207.627 18.0732 207.59 18.1076 207.571 18.129C207.559 18.1437 207.559 18.1749 207.578 18.1831C207.729 18.2487 207.889 18.3093 208.047 18.3733ZM181.281 13.5291C181.133 13.5422 180.981 13.5521 180.833 13.5701C180.796 13.575 180.762 13.6062 180.741 13.6275C180.701 13.6668 180.744 13.721 180.87 13.7259C181.015 13.7324 181.166 13.7046 181.318 13.6914C181.509 13.675 181.623 13.6144 181.552 13.5619C181.484 13.5111 181.392 13.5012 181.281 13.5291ZM18.8673 10.0247C18.966 10.0165 19.0678 10.0099 19.1666 9.99843C19.2591 9.98695 19.3302 9.95087 19.3764 9.89676C19.2993 9.85412 19.2129 9.83116 19.1172 9.83608C18.966 9.84592 18.818 9.85904 18.6699 9.87544C18.5773 9.88528 18.4879 9.92135 18.4663 9.97711C18.4447 10.0197 18.6513 10.0444 18.8673 10.0247ZM168.232 9.77213C168.272 9.78688 168.313 9.81641 168.353 9.81641C168.451 9.81641 168.553 9.80656 168.646 9.79016C168.686 9.7836 168.717 9.75409 168.735 9.73113C168.748 9.71637 168.745 9.69014 168.726 9.67702C168.637 9.5983 168.279 9.62618 168.22 9.71638C168.214 9.73277 168.229 9.75409 168.232 9.77213ZM158.498 0.792131C158.507 0.818369 158.51 0.844604 158.523 0.870842C158.547 0.920039 158.615 0.956124 158.714 0.980722C158.791 0.939725 158.831 0.893815 158.828 0.844619C158.825 0.818381 158.816 0.792126 158.803 0.765888C158.779 0.716691 158.711 0.680627 158.612 0.656028C158.535 0.695386 158.498 0.741295 158.498 0.792131ZM215.177 22.2795C215.149 22.3008 215.121 22.3221 215.091 22.3418C215.174 22.3894 215.251 22.4041 215.31 22.3779C215.347 22.3615 215.368 22.3369 215.396 22.3156C215.313 22.268 215.239 22.2549 215.177 22.2795ZM213.258 22.5025C213.298 22.5173 213.335 22.537 213.378 22.5468C213.449 22.5632 213.514 22.5353 213.563 22.4763C213.523 22.4615 213.486 22.4418 213.443 22.432C213.372 22.4156 213.307 22.4435 213.258 22.5025ZM214.473 22.2024C214.452 22.2418 214.495 22.2746 214.609 22.3025C214.637 22.2811 214.674 22.2615 214.693 22.2385C214.723 22.2008 214.671 22.1664 214.56 22.1401C214.529 22.1598 214.501 22.1811 214.473 22.2024ZM207.96 20.4346C207.939 20.474 207.982 20.5068 208.096 20.5347C208.124 20.5134 208.161 20.4937 208.179 20.4707C208.21 20.433 208.158 20.3986 208.047 20.3723C208.016 20.392 207.988 20.4133 207.96 20.4346ZM199.087 8.83083C199.059 8.85215 199.031 8.87347 199 8.89315C199.083 8.94071 199.161 8.95546 199.219 8.92922C199.256 8.91282 199.278 8.88823 199.306 8.86691C199.222 8.81935 199.148 8.80624 199.087 8.83083ZM190.586 2.67471C190.66 2.68619 190.722 2.66324 190.774 2.60257C190.734 2.58781 190.697 2.56813 190.654 2.55829C190.583 2.54189 190.518 2.56978 190.469 2.62881C190.509 2.64521 190.549 2.65995 190.586 2.67471ZM186.072 2.28934C186.045 2.31066 186.017 2.33198 185.986 2.35166C186.069 2.39922 186.146 2.41397 186.205 2.38773C186.242 2.37133 186.264 2.34674 186.291 2.32542C186.208 2.27786 186.134 2.26639 186.072 2.28934ZM155.462 0.79049C155.434 0.811808 155.406 0.833128 155.375 0.852806C155.459 0.900363 155.536 0.915117 155.595 0.888879C155.632 0.87248 155.653 0.847881 155.681 0.826562C155.598 0.779006 155.524 0.767532 155.462 0.79049ZM3.04527 14.1326C3.00516 14.1178 2.96508 14.1031 2.92806 14.0867C2.83858 14.1309 2.81082 14.1719 2.86019 14.2031C2.89104 14.2228 2.93729 14.2343 2.9774 14.249C3.06996 14.2047 3.09155 14.1654 3.04527 14.1326Z" fill="#FFE492"/>
</svg>
