<svg width="304" height="42" viewBox="0 0 304 42" fill="none" xmlns="http://www.w3.org/2000/svg">
<path d="M286.02 22.1896C285.604 22.2247 285.182 22.2489 284.774 22.3016C284.509 22.3345 284.395 22.2379 284.218 22.1874C284.159 22.1698 284.096 22.1346 284.041 22.139C283.628 22.1742 283.216 22.2137 282.803 22.2533C282.676 22.3389 282.596 22.4531 282.403 22.4949C282.213 22.5344 281.99 22.5344 281.779 22.5542C281.501 22.5784 281.223 22.6025 280.946 22.6245C280.807 22.6355 280.693 22.6772 280.647 22.7563C280.638 22.7695 280.731 22.8024 280.781 22.8222C280.95 22.8881 281.114 22.9628 281.299 23.0133C281.476 23.0616 281.695 22.9825 281.885 23.044C282.31 23.1824 282.314 23.1802 282.639 23.1539C282.917 23.1297 283.195 23.1034 283.473 23.0858C283.527 23.0814 283.59 23.1143 283.649 23.1319C283.826 23.1802 283.94 23.2901 284.201 23.2483C284.399 23.2154 284.618 23.2088 284.824 23.1912C284.997 23.2549 285.157 23.3274 285.342 23.3779C285.515 23.4263 285.566 23.4636 285.473 23.5273C285.389 23.5866 285.271 23.6108 285.115 23.6152C284.976 23.6174 284.837 23.6371 284.698 23.6481C284.626 23.6547 284.559 23.6591 284.492 23.6657C284.226 23.6899 284.226 23.6899 283.742 23.5493C283.552 23.4944 283.338 23.5712 283.157 23.5185C283.034 23.4834 282.929 23.4307 282.811 23.3933C282.761 23.378 282.681 23.3757 282.618 23.3801C282.407 23.3955 282.196 23.4065 281.994 23.4351C281.851 23.4548 281.767 23.5163 281.784 23.5778C281.788 23.602 281.889 23.6372 281.948 23.6394C282.083 23.6437 282.226 23.613 282.356 23.6284C282.483 23.6437 282.613 23.6877 282.706 23.736C282.895 23.837 283.11 23.747 283.291 23.7733C283.481 23.8019 283.637 23.8898 283.818 23.9425C283.864 23.9557 283.953 23.9337 284.024 23.9271C284.231 23.9117 284.437 23.8986 284.643 23.8832C284.816 23.9469 285.001 24.004 285.157 24.0765C285.439 24.2083 285.743 24.2588 286.109 24.1951C286.315 24.1599 286.517 24.1731 286.682 24.2588C286.85 24.3467 287.044 24.3379 287.259 24.3203C287.457 24.3027 287.659 24.2544 287.861 24.3159C288.299 24.4521 288.303 24.4587 288.821 24.406C288.977 24.3906 289.095 24.3862 289.213 24.4367C289.322 24.4829 289.44 24.5224 289.554 24.5663C289.76 24.551 289.971 24.5356 290.177 24.518C290.443 24.4938 290.59 24.5246 290.653 24.6476C290.691 24.7223 290.708 24.7904 290.801 24.8409C290.91 24.9024 291.028 24.9002 291.188 24.8826C291.34 24.8673 291.449 24.8431 291.512 24.764C291.538 24.7311 291.588 24.7003 291.635 24.674C291.673 24.6542 291.732 24.6234 291.765 24.6278C291.828 24.6366 291.913 24.6608 291.934 24.6893C292.14 24.9551 292.14 24.9573 292.351 25.0342C292.582 25.1199 292.822 25.1968 293.033 25.2934C293.222 25.3791 293.412 25.3417 293.618 25.3417C293.774 25.3417 293.875 25.3989 293.863 25.456C293.854 25.4889 293.795 25.5372 293.745 25.5416C293.332 25.5856 292.915 25.6229 292.498 25.6537C292.447 25.658 292.384 25.6185 292.325 25.5987C292.207 25.5592 292.102 25.4977 291.976 25.4845C291.849 25.4713 291.702 25.5043 291.563 25.5153C291.424 25.5262 291.277 25.5548 291.15 25.5373C291.024 25.5197 290.923 25.456 290.805 25.4142C290.75 25.3945 290.674 25.3659 290.628 25.3725C290.321 25.4252 290.093 25.3527 289.874 25.2561C289.828 25.2363 289.748 25.2231 289.689 25.2275C289.2 25.2649 288.716 25.3088 288.227 25.3505C288.03 25.3681 287.869 25.2912 287.827 25.1616C287.806 25.0891 287.764 25.0166 287.764 24.9441C287.764 24.8123 287.533 24.7399 287.364 24.7552C287.086 24.7772 286.804 24.7948 286.53 24.8277C286.307 24.8541 286.117 24.8277 285.966 24.7486C285.789 24.6586 285.587 24.6762 285.385 24.7003C285.233 24.7179 285.191 24.7904 285.199 24.9727C285.208 25.1199 285.136 25.166 284.862 25.1902C284.517 25.2209 284.167 25.2517 283.818 25.2758C283.763 25.2802 283.7 25.2429 283.645 25.2231C283.527 25.1836 283.422 25.1199 283.296 25.1067C283.169 25.0913 283.022 25.1243 282.883 25.1374C282.744 25.1484 282.596 25.1792 282.47 25.1638C282.344 25.1484 282.238 25.0825 282.125 25.0408C282.07 25.021 282.003 24.9925 281.948 24.9969C281.67 25.0144 281.392 25.0408 281.114 25.065C280.802 25.0913 280.802 25.0913 280.36 24.9551C280.158 24.8936 279.956 24.942 279.758 24.9595C279.547 24.9771 279.349 24.9859 279.185 24.898C279.075 24.8409 278.953 24.8058 278.823 24.8167C278.473 24.8431 278.128 24.8761 277.778 24.9024C277.719 24.9068 277.639 24.8958 277.593 24.8761C277.37 24.7838 277.151 24.7113 276.839 24.7574C276.57 24.797 276.279 24.7992 276.009 24.8365C275.862 24.8563 275.795 24.9266 275.824 24.9815C275.841 25.0101 275.929 25.043 275.988 25.043C276.123 25.0452 276.271 25.0122 276.397 25.0254C276.658 25.0518 276.789 25.2363 277.13 25.1858C277.332 25.155 277.542 25.144 277.753 25.1353C277.808 25.1331 277.867 25.1748 277.926 25.1968C278.094 25.2561 278.242 25.3329 278.486 25.2934C278.688 25.2626 278.903 25.2539 279.109 25.2363C279.438 25.2078 279.438 25.21 279.863 25.3439C280.065 25.4076 280.267 25.3571 280.465 25.3417C280.613 25.3308 280.752 25.3088 280.87 25.3396C281.051 25.3857 281.181 25.4911 281.405 25.4845C281.615 25.4779 281.821 25.4472 282.032 25.4362C282.163 25.4296 282.285 25.4648 282.39 25.5241C282.5 25.5834 282.617 25.6097 282.761 25.5965C282.967 25.579 283.178 25.557 283.388 25.546C283.447 25.5438 283.515 25.5636 283.569 25.5812C283.687 25.6207 283.801 25.6668 283.915 25.7086C284.121 25.6954 284.332 25.691 284.534 25.6646C284.69 25.6449 284.799 25.6537 284.926 25.6976C285.086 25.7569 285.216 25.8624 285.477 25.8118C285.608 25.7877 285.759 25.7942 285.89 25.7723C286.05 25.7437 286.159 25.7547 286.273 25.8206C286.488 25.9458 286.758 25.948 287.036 25.8997C287.339 25.847 287.566 25.9085 287.794 26.0051C288.034 26.1062 288.034 26.104 288.219 26.3478C288.274 26.4181 288.43 26.451 288.56 26.4379C288.779 26.4159 288.969 26.4269 289.129 26.5103C289.297 26.6004 289.499 26.5894 289.706 26.5653C289.979 26.5323 290.253 26.5038 290.476 26.6312C290.586 26.6927 290.704 26.708 290.851 26.6927C291.268 26.6531 291.689 26.629 292.098 26.5807C292.346 26.5499 292.49 26.6202 292.658 26.6795C292.885 26.7608 293.134 26.8333 293.134 27.0068C293.134 27.0353 293.193 27.0683 293.243 27.0903C293.353 27.1364 293.471 27.1759 293.585 27.2199C293.753 27.2858 293.917 27.3407 294.149 27.3055C294.351 27.277 294.566 27.2682 294.772 27.2484C294.979 27.2286 295.168 27.2177 295.354 27.3011C295.568 27.3956 295.796 27.4857 296.04 27.556C296.213 27.6065 296.44 27.5208 296.625 27.5889C296.739 27.6306 296.849 27.679 296.971 27.7141C297.021 27.7295 297.101 27.7185 297.169 27.7141C297.308 27.7053 297.451 27.6987 297.586 27.6768C297.742 27.6526 297.859 27.657 297.977 27.7075C298.087 27.7537 298.196 27.8174 298.323 27.8305C298.512 27.8503 298.723 27.7624 298.912 27.8635C299.009 27.914 299.131 27.9623 299.258 27.9777C299.384 27.9931 299.531 27.9601 299.666 27.9623C299.725 27.9623 299.797 27.9975 299.83 28.026C299.851 28.0414 299.822 28.0831 299.793 28.1051C299.755 28.1315 299.7 28.1666 299.645 28.171C299.228 28.2106 298.811 28.2435 298.394 28.2809C298.146 28.3028 298.146 28.3028 297.645 28.1644C297.527 28.1315 297.396 28.1381 297.249 28.1534C297.051 28.1732 296.849 28.2106 296.642 28.171C296.373 28.0216 296.04 28.0084 295.686 28.0656C295.539 28.0897 295.404 28.0897 295.294 28.048C295.063 27.9645 294.819 27.8877 294.612 27.7888C294.452 27.7119 294.376 27.7053 294.309 27.8108C294.288 27.8437 294.267 27.8789 294.271 27.9096C294.296 28.0194 294.343 28.1271 294.368 28.2369C294.376 28.2677 294.343 28.3028 294.322 28.3358C294.254 28.428 294.166 28.4214 294.018 28.3445C293.871 28.2677 293.694 28.2171 293.458 28.2523C293.256 28.283 293.037 28.2787 292.835 28.3116C292.523 28.3599 292.304 28.2896 292.081 28.1952C292.035 28.1754 291.955 28.1644 291.896 28.1688C291.268 28.2193 290.645 28.2765 290.017 28.327C289.883 28.338 289.76 28.305 289.655 28.2457C289.546 28.1864 289.423 28.1556 289.289 28.1666C288.733 28.2128 288.177 28.2545 287.621 28.3116C287.393 28.3358 287.212 28.3072 287.057 28.2303C286.939 28.1732 286.829 28.1556 286.682 28.1622C286.522 28.1688 286.408 28.1908 286.328 28.2545C286.252 28.316 286.307 28.3533 286.475 28.4017C286.656 28.4544 286.825 28.5225 286.998 28.584C287.137 28.5752 287.276 28.5576 287.41 28.5598C287.469 28.5598 287.524 28.5993 287.583 28.6213C287.752 28.685 287.907 28.7487 288.147 28.7136C288.35 28.6828 288.564 28.6762 288.771 28.6565C289.057 28.6323 289.057 28.6323 289.52 28.7707C289.638 28.8058 289.765 28.8036 289.916 28.7839C290.047 28.7685 290.182 28.7992 290.274 28.8651C290.312 28.8915 290.3 28.9355 290.22 29.0804C290.22 29.1881 290.308 29.1397 290.337 29.0694C290.384 28.9684 290.295 28.9354 290.127 28.9904C290.009 29.0299 289.95 29.087 289.979 29.1332C289.996 29.1573 290.076 29.1881 290.22 29.0804C290.59 28.9486 290.872 28.9332 291.142 28.8981C291.302 28.8783 291.403 28.8871 291.529 28.9442C291.681 29.0123 291.833 29.0848 292.081 29.0497C292.351 29.0101 292.637 29.0057 292.911 28.9728C293.163 28.942 293.294 29.0387 293.454 29.0958C293.648 29.1639 293.863 29.087 294.039 29.1266C294.225 29.1661 294.355 29.2627 294.57 29.2803C294.882 29.221 295.08 29.3308 295.316 29.4033C295.501 29.4582 295.72 29.4099 295.918 29.3857C296.141 29.3594 296.326 29.3836 296.482 29.4626C296.659 29.5527 296.857 29.5329 297.059 29.5132C297.531 29.4692 297.548 29.4626 297.821 29.5834C298.019 29.6713 298.209 29.6318 298.407 29.6208C298.58 29.6801 298.748 29.7438 298.929 29.7965C298.976 29.8097 299.064 29.7877 299.136 29.7811C299.342 29.7636 299.552 29.746 299.759 29.7284C299.898 29.7174 300.045 29.6845 300.172 29.6977C300.298 29.7131 300.403 29.7768 300.517 29.8185C300.631 29.8602 300.749 29.902 300.858 29.9459C301.027 30.0118 301.187 30.0667 301.422 30.0338C301.625 30.0052 301.835 29.9964 302.046 29.9767C302.311 29.9525 302.303 29.9591 302.795 30.0909C303.061 30.1634 303.335 30.0755 303.604 30.0667C303.739 30.0623 303.869 30.0865 303.962 30.1502C304 30.1766 303.987 30.2205 304 30.2578C303.305 30.3171 302.606 30.3676 301.919 30.4401C301.654 30.4687 301.515 30.3896 301.372 30.3237C301.136 30.2183 300.824 30.372 300.601 30.2358C300.466 30.1546 300.273 30.1085 300.041 30.148C299.906 30.17 299.763 30.1678 299.624 30.1875C299.27 30.2358 298.946 30.2381 298.664 30.0865C298.567 30.0338 298.428 30.0052 298.327 29.9547C298.209 29.8998 298.095 29.869 297.956 29.88C297.329 29.9327 296.705 29.9854 296.082 30.0425C296.027 30.0469 295.973 30.0799 295.926 30.104C295.808 30.1656 295.846 30.2139 296.036 30.2534C296.099 30.2666 296.15 30.2951 296.208 30.3171C296.322 30.3589 296.427 30.4248 296.554 30.4401C296.68 30.4555 296.828 30.4248 296.967 30.4138C297.106 30.4028 297.253 30.3698 297.379 30.383C297.506 30.3984 297.611 30.4621 297.729 30.5017C297.784 30.5214 297.851 30.5544 297.906 30.5522C298.184 30.539 298.457 30.5148 298.735 30.4951C298.908 30.5544 299.056 30.64 299.262 30.6598C299.392 30.673 299.531 30.6488 299.666 30.6532C299.725 30.6554 299.801 30.6884 299.83 30.7169C299.847 30.7345 299.793 30.7784 299.75 30.8004C299.59 30.8839 299.371 30.8685 299.173 30.8948C298.959 30.9234 298.765 30.9146 298.601 30.8289C298.491 30.7718 298.369 30.7411 298.234 30.7521C297.885 30.7806 297.539 30.8136 297.19 30.8377C297.131 30.8421 297.059 30.8224 297.004 30.807C296.562 30.673 296.562 30.6686 296.251 30.6972C295.791 30.7389 295.792 30.7389 295.484 30.6224C295.425 30.6005 295.362 30.5588 295.311 30.561C294.823 30.5961 294.338 30.6312 293.854 30.6818C293.694 30.6971 293.585 30.6972 293.467 30.64C293.366 30.5917 293.248 30.5368 293.121 30.5236C292.991 30.5104 292.848 30.5434 292.709 30.5544C292.57 30.5654 292.422 30.5939 292.3 30.5763C292.174 30.5588 292.064 30.4973 291.955 30.4533C291.841 30.4072 291.719 30.4094 291.563 30.4269C291.083 30.4775 291.079 30.4709 290.603 30.3347C290.548 30.3193 290.476 30.3018 290.417 30.3061C290.068 30.3325 289.723 30.3655 289.373 30.3918C289.238 30.4028 289.108 30.3742 289.015 30.3105C288.977 30.2842 288.99 30.2402 288.965 30.1546C288.935 30.1348 288.969 30.17 288.977 30.2029C289.04 30.1985 289.116 30.2029 289.162 30.1853C289.28 30.1436 289.339 30.0887 289.31 30.0425C289.293 30.0184 289.213 29.9876 289.162 29.9876C289.07 29.9876 288.99 30.0359 288.965 30.1546C288.699 30.2271 288.417 30.2424 288.143 30.2776C287.983 30.2996 287.882 30.2886 287.756 30.2315C287.604 30.1612 287.448 30.0931 287.2 30.1282C286.93 30.1677 286.644 30.1744 286.366 30.2051C286.046 30.2403 285.907 30.0425 285.637 30.0469C285.359 30.0513 285.081 30.0887 284.803 30.115C284.559 30.137 284.559 30.137 284.054 29.9942C283.868 29.9415 283.649 30.0184 283.468 29.9635C283.346 29.9283 283.241 29.8756 283.123 29.8383C283.072 29.8229 282.992 29.8229 282.929 29.8273C282.58 29.8536 282.226 29.8712 281.889 29.9195C281.506 29.9766 281.215 29.9151 280.941 29.7855C280.596 29.8097 280.246 29.8229 279.905 29.8646C279.657 29.8954 279.514 29.8229 279.345 29.7636C279.286 29.7438 279.236 29.7109 279.172 29.7021C279.109 29.6933 279.033 29.7108 278.966 29.7174C278.688 29.7416 278.402 29.7526 278.132 29.7921C277.799 29.8427 277.673 29.6625 277.416 29.6406C277.243 29.7482 277.151 29.8954 276.81 29.9063C276.532 29.9151 276.254 29.9503 275.976 29.9745C275.837 29.9854 275.698 29.9986 275.559 30.0096C275.336 30.0294 275.23 30.115 275.277 30.2468C275.302 30.3193 275.323 30.3918 275.344 30.4643C275.386 30.5939 275.281 30.7037 275.104 30.7191C274.615 30.7609 274.131 30.8048 273.643 30.8421C273.512 30.8531 273.386 30.8158 273.28 30.7564C273.171 30.6971 273.049 30.6708 272.914 30.6818C272.425 30.7235 271.941 30.7674 271.452 30.8048C271.398 30.8092 271.326 30.7872 271.271 30.7696C271.153 30.7301 271.04 30.684 270.926 30.6422C270.648 30.662 270.374 30.6752 270.101 30.7015C269.658 30.7411 269.658 30.7433 269.334 30.6224C269.275 30.6005 269.216 30.5588 269.161 30.561C268.951 30.5698 268.744 30.5917 268.534 30.6115C267.915 30.6686 267.915 30.6686 267.734 30.6027C267.569 30.5412 267.422 30.4665 267.173 30.5017C266.904 30.5412 266.617 30.5544 266.34 30.5763C266.133 30.5917 265.927 30.6093 265.72 30.6137C265.666 30.6159 265.607 30.5741 265.548 30.5522C265.379 30.4841 265.215 30.4292 264.983 30.4665C264.849 30.4885 264.705 30.4929 264.566 30.5039C264.204 30.5346 264.204 30.5346 263.61 30.4028C263.551 30.3896 263.48 30.3742 263.421 30.3808C262.932 30.4204 262.448 30.4643 261.959 30.5017C261.9 30.506 261.829 30.4928 261.77 30.4819C261.104 30.3545 261.104 30.3545 260.397 30.416C260.127 30.4379 260.119 30.4467 259.837 30.3303C259.71 30.2798 259.605 30.2556 259.458 30.271C258.902 30.3237 258.342 30.3589 257.79 30.4204C257.541 30.4467 257.398 30.3808 257.23 30.3215C257.171 30.3017 257.108 30.2578 257.057 30.26C256.501 30.3018 255.945 30.3523 255.389 30.394C255.339 30.3984 255.276 30.3545 255.217 30.3347C255.103 30.2952 254.993 30.2359 254.867 30.2227C254.736 30.2095 254.593 30.2424 254.45 30.2534C254.1 30.282 254.1 30.2798 253.696 30.1502C253.641 30.1326 253.57 30.1084 253.515 30.1128C252.959 30.1568 252.399 30.1941 251.847 30.2578C251.531 30.293 251.317 30.2293 251.093 30.137C251.047 30.1172 250.967 30.1084 250.908 30.1128C250.281 30.1634 249.657 30.2205 249.03 30.271C248.899 30.282 248.773 30.2446 248.667 30.1875C248.499 30.0975 248.301 30.1084 248.091 30.1282C247.606 30.1743 247.602 30.1722 247.316 30.0667C247.257 30.0448 247.206 30.0162 247.143 30.0052C247.084 29.9942 247.008 30.0008 246.945 30.0052C246.667 30.0272 246.389 30.0513 246.111 30.0755C245.833 30.0997 245.551 30.1129 245.277 30.1502C244.94 30.1963 244.78 30.0535 244.544 29.9876C244.199 30.0162 243.845 30.0338 243.504 30.0799C243.243 30.115 243.121 30.0184 242.948 29.9679C242.889 29.9503 242.826 29.9129 242.771 29.9173C242.144 29.9657 241.516 30.0184 240.893 30.0777C240.741 30.0909 240.64 30.0733 240.514 30.0206C240.232 29.902 240.219 29.9064 239.747 29.9503C239.541 29.9701 239.343 29.9876 239.166 29.8976C239.01 29.8163 238.821 29.7965 238.598 29.8229C238.324 29.8558 238.042 29.8734 237.764 29.8954C237.486 29.9195 237.208 29.9525 236.93 29.9635C236.707 29.9744 236.572 29.8712 236.395 29.8185C236.34 29.8031 236.264 29.8009 236.201 29.8053C235.923 29.8251 235.637 29.8404 235.367 29.8778C235.039 29.9239 234.858 29.8031 234.626 29.7328C234.575 29.7175 234.491 29.7262 234.428 29.7328C233.939 29.7724 233.455 29.8163 232.967 29.858C232.794 29.7987 232.617 29.7416 232.444 29.6823C232.166 29.7043 231.888 29.7284 231.61 29.7504C231.4 29.768 231.185 29.7746 230.987 29.8075C230.73 29.8514 230.604 29.7482 230.431 29.6977C230.372 29.6801 230.309 29.6428 230.254 29.6472C229.905 29.6713 229.555 29.6977 229.21 29.735C228.881 29.7724 228.751 29.5747 228.481 29.5768C228.203 29.579 227.917 29.6076 227.647 29.6472C227.336 29.6933 227.117 29.623 226.893 29.5285C226.847 29.5088 226.767 29.4978 226.708 29.5022C226.359 29.5285 226.013 29.5615 225.664 29.5878C225.605 29.5922 225.533 29.5813 225.474 29.5681C224.809 29.4385 224.809 29.4363 224.518 29.4626C224.312 29.4802 224.101 29.5022 223.891 29.5132C223.832 29.5176 223.76 29.4978 223.705 29.4802C223.267 29.3462 223.267 29.344 222.951 29.3704C222.673 29.3945 222.395 29.4187 222.117 29.4429C221.945 29.3835 221.768 29.3265 221.595 29.2671C221.25 29.2957 220.896 29.3176 220.555 29.3572C220.395 29.3748 220.29 29.3682 220.167 29.3133C220.016 29.2474 219.864 29.1705 219.611 29.2078C219.342 29.2474 219.056 29.2518 218.782 29.2847C218.453 29.3242 218.318 29.1244 218.053 29.1266C217.775 29.1287 217.489 29.1573 217.219 29.1968C216.908 29.243 216.689 29.1727 216.465 29.0782C216.419 29.0585 216.339 29.0475 216.28 29.0519C215.514 29.1156 214.751 29.1793 213.985 29.2474C213.513 29.2891 213.513 29.2913 212.616 29.1705C212.553 29.1617 212.485 29.1529 212.422 29.1573C212.144 29.1771 211.858 29.1924 211.588 29.2298C211.26 29.2759 211.079 29.1573 210.847 29.0848C210.796 29.0694 210.716 29.0782 210.649 29.0826C210.438 29.098 210.232 29.1178 210.022 29.1353C209.744 29.1595 209.466 29.1837 209.188 29.2078C209.015 29.1507 208.838 29.0914 208.665 29.0343C208.32 29.0628 207.966 29.0782 207.625 29.1244C207.364 29.1595 207.242 29.0672 207.069 29.0145C207.01 28.997 206.947 28.9596 206.892 28.9618C206.265 29.0101 205.637 29.0606 205.014 29.1222C204.757 29.1485 204.639 29.0497 204.466 28.9991C204.407 28.9838 204.34 28.9552 204.285 28.9596C203.868 28.9904 203.451 29.0277 203.035 29.065C202.799 29.087 202.799 29.087 202.285 28.9508C202.226 28.9354 202.158 28.9201 202.1 28.9245C200.777 29.0343 199.459 29.1507 198.136 29.2605C198.002 29.2715 197.879 29.2386 197.774 29.1793C197.665 29.12 197.542 29.0892 197.408 29.1002C196.852 29.1463 196.292 29.1881 195.74 29.2452C195.512 29.2693 195.331 29.2408 195.176 29.1639C195.058 29.1068 194.948 29.0848 194.801 29.098C194.523 29.1244 194.245 29.1463 193.967 29.1705C193.689 29.1946 193.411 29.2188 193.133 29.243C192.855 29.2671 192.573 29.2803 192.299 29.3177C191.962 29.3638 191.798 29.2276 191.566 29.1595C191.149 29.1925 190.732 29.2254 190.32 29.2605C189.764 29.3067 189.208 29.3572 188.652 29.4011C188.601 29.4055 188.538 29.366 188.479 29.3462C188.306 29.2913 188.18 29.2144 187.923 29.2386C186.676 29.355 185.421 29.4539 184.171 29.5681C183.909 29.5922 183.796 29.4978 183.619 29.4473C183.56 29.4319 183.493 29.4011 183.438 29.4055C182.743 29.4604 182.048 29.5219 181.353 29.5812C181.071 29.6054 181.071 29.6054 180.599 29.4692C180.544 29.4538 180.473 29.4341 180.414 29.4385C179.508 29.5131 178.607 29.5922 177.701 29.6691C177.567 29.6801 177.445 29.6493 177.335 29.59C177.23 29.5307 177.103 29.4978 176.973 29.5088C176.139 29.5791 175.301 29.6472 174.471 29.724C174.248 29.746 174.063 29.7262 173.903 29.6472C173.789 29.59 173.675 29.5659 173.532 29.579C172.281 29.6867 171.03 29.7899 169.779 29.9042C169.539 29.9261 169.371 29.8844 169.219 29.8119C169.097 29.7548 168.992 29.7438 168.84 29.7526C168.68 29.7636 168.583 29.7877 168.495 29.8536C168.381 29.9393 168.31 30.0469 168.04 30.0535C167.762 30.0601 167.48 30.0865 167.206 30.1238C166.945 30.1612 166.823 30.0623 166.659 30.003C166.536 29.9613 166.423 29.9547 166.267 29.9745C166.124 29.992 166.035 30.0294 165.951 30.0996C165.766 30.249 165.749 30.249 165.521 30.1546C165.399 30.104 165.29 30.0645 165.155 30.0733C164.599 30.1172 164.043 30.1656 163.487 30.2161C163.167 30.2446 163.163 30.249 162.923 30.1392C162.805 30.0843 162.691 30.0579 162.552 30.0711C161.023 30.2029 159.495 30.3303 157.966 30.4687C157.73 30.4907 157.57 30.4445 157.401 30.3786C157.347 30.3567 157.292 30.3259 157.229 30.3171C157.166 30.3083 157.094 30.3171 157.027 30.3215C155.915 30.416 154.799 30.506 153.691 30.6115C153.438 30.6356 153.304 30.5654 153.131 30.5082C153.072 30.4885 153.021 30.4577 152.958 30.4489C152.895 30.4423 152.819 30.4577 152.752 30.4643C151.64 30.5588 150.524 30.6488 149.416 30.7543C149.151 30.7784 149.037 30.6862 148.864 30.6378C148.805 30.6203 148.742 30.5873 148.688 30.5917C148.338 30.6159 147.993 30.6488 147.643 30.6774C146.809 30.7499 145.975 30.818 145.141 30.8927C144.821 30.9212 144.682 30.7257 144.413 30.7345C144.063 30.7455 143.718 30.7894 143.368 30.8202C143.09 30.8443 142.812 30.8663 142.534 30.8927C142.261 30.9168 142.261 30.9168 141.578 30.7894C141.519 30.7784 141.448 30.763 141.389 30.7674C140.416 30.8487 139.439 30.93 138.47 31.0179C138.247 31.0376 138.062 31.0267 137.902 30.9454C137.788 30.8883 137.67 30.8597 137.531 30.8729C136.07 30.9981 134.612 31.1233 133.151 31.2463C133.096 31.2507 133.024 31.2287 132.97 31.2112C132.852 31.1716 132.738 31.1255 132.624 31.0838C132.54 31.1343 132.431 31.1804 132.376 31.2375C132.3 31.3144 132.199 31.3364 132.039 31.3496C131.879 31.3627 131.778 31.3583 131.652 31.3012C131.5 31.2309 131.344 31.176 131.096 31.198C129.567 31.3364 128.038 31.4616 126.509 31.5978C126.256 31.6197 126.138 31.5231 125.962 31.4725C125.903 31.4572 125.835 31.433 125.78 31.4374C125.153 31.4879 124.53 31.5429 123.902 31.5956C122.163 31.7449 120.423 31.8877 118.688 32.0459C118.372 32.0745 118.157 32.0195 117.934 31.9251C117.888 31.9053 117.808 31.8943 117.749 31.8987C115.315 32.1052 112.88 32.3139 110.45 32.5225C110.32 32.5335 110.193 32.4984 110.088 32.4413C109.978 32.382 109.856 32.3534 109.722 32.3644C108.61 32.4589 107.498 32.5533 106.386 32.65C106.108 32.6741 106.104 32.6763 105.817 32.5709C105.758 32.5489 105.695 32.5072 105.649 32.5116C105.552 32.5226 105.459 32.5775 105.392 32.6521C105.325 32.7312 105.219 32.7532 105.063 32.7686C104.903 32.7839 104.798 32.7774 104.676 32.7246C104.52 32.6587 104.377 32.5951 104.124 32.617C100.928 32.8982 97.731 33.1684 94.5343 33.4473C94.2774 33.4693 94.1595 33.377 93.9826 33.3265C93.9236 33.3111 93.8647 33.2892 93.8015 33.2848C93.7341 33.2804 93.6625 33.2936 93.5951 33.3002C88.3811 33.7461 83.1672 34.1942 77.9532 34.6401C77.6415 34.6665 77.6457 34.6665 77.3046 34.8686C77.2625 34.8927 77.2076 34.9257 77.1487 34.9301C75.5525 35.0706 73.9521 35.2068 72.3517 35.343C71.6568 35.4023 70.9619 35.4639 70.2669 35.521C70.0185 35.5407 70.0185 35.5407 69.4246 35.778C69.3741 35.7978 69.3151 35.8241 69.2561 35.8285C66.4764 36.0679 63.6967 36.3074 60.9128 36.5424C60.6938 36.56 60.517 36.5995 60.4159 36.705C60.3443 36.7796 60.2516 36.8236 60.1126 36.8368C58.1669 37.0037 56.2212 37.1728 54.2712 37.3354C54.0395 37.3552 53.9005 37.4167 53.7868 37.5089C53.7489 37.5397 53.7151 37.5748 53.6604 37.5968C53.6099 37.6166 53.5341 37.6231 53.4709 37.6297C51.8031 37.7725 50.1353 37.9197 48.4633 38.0559C48.2148 38.0757 48.1137 38.1569 47.9916 38.2426C47.9494 38.2712 47.9199 38.3107 47.8652 38.3305C47.8104 38.348 47.7304 38.348 47.663 38.3524C46.2732 38.4711 44.8834 38.5919 43.4936 38.7105C43.224 38.6995 43.165 38.8269 43.0345 38.9038C42.9881 38.9302 42.9545 38.9653 42.8998 38.9829C42.8408 39.0004 42.7649 38.9982 42.6933 39.0026C41.5814 39.0971 40.4696 39.1981 39.3535 39.286C39.0966 39.3058 39.046 39.4178 38.907 39.4947C38.8607 39.5188 38.8144 39.5562 38.7597 39.5628C38.0648 39.6265 37.3699 39.6858 36.6749 39.7429C36.4433 39.7627 36.4433 39.7605 36.0348 39.978C35.9884 40.0021 35.9336 40.0285 35.8747 40.0351C34.8344 40.1273 33.7899 40.2152 32.7455 40.3053C32.6107 40.3162 32.5181 40.369 32.4507 40.4436C32.3833 40.5183 32.2864 40.5667 32.1517 40.5776C31.3178 40.6501 30.4838 40.7248 29.6499 40.7907C29.4182 40.8083 29.2666 40.8632 29.1656 40.962C29.0898 41.0367 28.9971 41.0741 28.8497 41.0872C28.0158 41.1575 27.1819 41.2344 26.3438 41.2959C26.0995 41.3135 25.9731 41.3882 25.872 41.4804C25.792 41.5551 25.6994 41.5815 25.5435 41.5947C24.0147 41.7221 22.4817 41.8495 20.9571 41.9901C20.7002 42.0142 20.5696 41.9373 20.4011 41.8824C20.1611 41.8055 19.9379 41.7221 19.9379 41.5507C19.9379 41.5244 19.8663 41.4936 19.8158 41.4717C19.4409 41.3069 19.4409 41.3069 19.382 41.1312C19.3483 41.0236 19.3104 40.9137 19.2809 40.8039C19.2261 40.6238 19.0913 40.5776 18.7038 40.6106C18.5648 40.6216 18.4259 40.6369 18.2869 40.6457C18.0805 40.6611 17.9247 40.5886 17.8868 40.4568C17.8657 40.3843 17.8405 40.3118 17.8195 40.2393C18.03 40.2218 18.0258 40.2196 18.3964 39.9538C18.5522 39.8418 18.5523 39.8418 18.2533 39.7297C18.1395 39.688 18.03 39.6418 17.9079 39.6023C17.8531 39.5847 17.7816 39.5738 17.7226 39.5782C17.373 39.6045 17.0277 39.6353 16.6823 39.666C16.1264 39.7143 16.1263 39.7143 15.562 39.4903C15.5156 39.4727 15.444 39.4398 15.4525 39.4222C15.4988 39.3409 15.6125 39.3058 15.7557 39.297C15.9663 39.2838 16.1726 39.2618 16.379 39.2443C16.518 39.2333 16.657 39.2201 16.7959 39.2091C16.9265 39.1257 17.0614 39.0444 17.1835 38.9587C17.3772 38.8269 17.3772 38.8225 17.1118 38.7303C16.9434 38.6687 16.7623 38.6138 16.5896 38.5567C16.3832 38.5743 16.1726 38.5941 15.9663 38.6094C15.7051 38.6292 15.5998 38.5875 15.5325 38.4447C15.4735 38.3195 15.5451 38.2118 15.7473 38.1855C15.9536 38.1591 16.1474 38.1416 16.2527 38.0295C16.3538 37.9219 16.5307 37.8801 16.7497 37.8714C16.8887 37.8648 17.0276 37.8494 17.1666 37.8362C17.3477 37.8187 17.4446 37.7066 17.4067 37.5814C17.3857 37.5001 17.3435 37.432 17.1793 37.4145C16.4507 37.3376 16.4422 37.3398 16.08 37.1904C16.0463 37.1772 16.0211 37.1377 16.0337 37.1179C16.0548 37.085 16.1011 37.0366 16.1517 37.0301C16.636 36.9817 17.1203 36.9378 17.6047 36.9049C17.7647 36.8939 17.8826 36.8785 17.9374 36.7972C18.0132 36.6852 17.9795 36.5819 17.8321 36.5051C17.7858 36.4809 17.7099 36.4501 17.6594 36.4523C17.1034 36.4919 16.5517 36.5424 15.9958 36.5819C15.9452 36.5863 15.8526 36.549 15.8316 36.5204C15.7895 36.4677 15.8526 36.3974 16 36.3733C16.1937 36.3403 16.3917 36.3381 16.5222 36.2283C16.7033 36.0723 16.9265 35.9296 17.1287 35.7802C17.1624 35.7538 17.2172 35.7033 17.2046 35.6989C17.0993 35.6506 16.9771 35.6132 16.8676 35.5671C16.6823 35.4902 16.6823 35.3826 16.7244 35.2793C16.7581 35.1959 16.8844 35.1629 17.0403 35.1629C17.1076 35.1629 17.1919 35.1629 17.2466 35.1432C17.3898 35.0948 17.4362 35.0333 17.3646 34.9872C17.3224 34.9608 17.2467 34.9235 17.1961 34.9279C16.2948 35.0004 15.3893 35.0707 14.4922 35.1607C14.2269 35.1871 14.1048 35.1036 13.9448 35.0443C13.8226 34.9982 13.7088 34.9806 13.5572 35.0135C13.414 35.0443 13.2751 35.0267 13.1867 34.9542C13.1151 34.8949 13.2414 34.8444 13.5825 34.7873C13.6457 34.7763 13.7173 34.7697 13.7636 34.7477C14.2521 34.5105 14.2521 34.5083 14.5891 34.4776C14.9176 34.449 14.9176 34.4468 15.0903 34.3194C15.1703 34.2601 15.2587 34.2008 15.3345 34.1393C15.364 34.1151 15.4146 34.0712 15.3978 34.058C15.3051 33.9899 15.1787 33.9745 15.0313 33.9899C14.7028 34.0273 14.3154 33.9965 14.1427 34.2052C14.0753 34.2843 13.97 34.3062 13.8184 34.3194C12.2938 34.4468 10.7691 34.583 9.2403 34.706C8.99181 34.7258 8.87817 34.8071 8.7813 34.8971C8.69707 34.9718 8.60439 34.9938 8.44435 35.007C8.28431 35.0201 8.1579 35.0267 8.06524 34.9542C8.01049 34.9103 8.05683 34.8488 8.18318 34.7873C8.36428 34.6994 8.33057 34.5896 8.2716 34.4864C8.22949 34.4183 8.09893 34.3699 7.95995 34.3743C7.75358 34.3831 7.55568 34.4073 7.38301 34.3194C7.28193 34.2689 7.15555 34.2337 7.04184 34.1898C6.82284 34.0997 6.60382 34.0075 6.29637 34.0668C6.08579 34.0448 5.93838 33.9657 5.76992 33.9042C5.48774 33.8032 5.46247 33.7878 5.66463 33.6802C5.89206 33.5594 5.71513 33.4012 5.84148 33.2826C5.97626 33.1552 6.16163 33.0432 6.32588 32.9245C6.368 32.8938 6.40592 32.8652 6.44804 32.8345C6.35117 32.7905 6.26274 32.7356 6.14903 32.7049C6.00162 32.6653 5.92581 32.617 5.93423 32.4808C5.90475 32.4611 5.9173 32.5116 5.95099 32.5247C5.98889 32.5379 6.08162 32.527 6.12795 32.5116C6.24587 32.4698 6.30478 32.4149 6.27529 32.3688C6.25845 32.3446 6.17849 32.3139 6.12795 32.3139C6.03529 32.3139 5.95528 32.3622 5.93001 32.4808C5.45831 32.5709 4.96968 32.6148 4.48113 32.65C4.43059 32.6544 4.36746 32.6104 4.30849 32.5885C4.11476 32.5138 4.11473 32.516 3.54616 32.494C3.4872 32.4918 3.40722 32.4611 3.37774 32.4303C3.2556 32.2963 3.25985 32.1491 3.20088 32.0063C3.31039 31.9141 3.4198 31.824 3.53352 31.734C3.76094 31.5516 4.05582 31.3913 4.23271 31.1914C4.19481 31.0838 4.14426 30.9761 4.32957 30.8883C4.85603 30.7784 4.85185 30.7784 4.99504 30.673C5.40357 30.3743 5.80786 30.0733 6.23324 29.7789C6.34695 29.7021 6.34697 29.6603 6.14481 29.6274C6.08164 29.6186 6.01416 29.6164 5.94677 29.6208C5.73619 29.6362 5.52562 29.6757 5.31924 29.6669C5.11287 29.6603 4.96126 29.5637 4.79279 29.5044C4.62011 29.4429 4.44744 29.3792 4.27477 29.3155C4.07682 29.3221 3.87891 29.3836 3.68096 29.2847C3.52935 29.2078 3.33983 29.1529 3.16716 29.0892C3.29772 28.9223 3.54203 28.7948 3.73155 28.6477C3.90423 28.5137 3.90835 28.5159 4.37163 28.4126C4.59063 28.3643 4.66645 28.1161 4.48113 28.0436C4.25792 27.9557 4.02211 27.8745 3.79469 27.791C3.59674 27.7976 3.39462 27.8569 3.2051 27.7581C3.05769 27.6834 2.88919 27.6328 2.64492 27.6614C2.23218 27.7097 1.81103 27.7339 1.39408 27.7734C1.25088 27.7866 1.095 27.7778 1.03183 27.7031C0.989713 27.6504 1.11186 27.5779 1.25084 27.5625C1.46142 27.5406 1.65093 27.5142 1.75622 27.4044C1.8573 27.2946 2.04259 27.2616 2.26159 27.2462C2.32056 27.2418 2.38799 27.2155 2.41747 27.1891C2.56909 27.0617 2.73757 26.9519 3.06187 26.9563C3.19664 26.9123 3.26819 26.8574 3.22607 26.8047C3.20081 26.7761 3.11241 26.7388 3.06187 26.7432C2.7123 26.7652 2.36275 26.7871 2.02161 26.8267C1.86156 26.8443 1.73936 26.8486 1.63828 26.7827C1.56668 26.7388 1.60458 26.6795 1.73936 26.6158C1.85728 26.5609 1.89101 26.4972 1.88259 26.4225C1.86153 26.2489 1.73516 26.1984 1.33084 26.2094C1.04024 26.2182 0.968635 26.1896 0.90546 26.0403C0.888614 26.0051 0.846571 25.9568 0.876053 25.9326C1.05715 25.7833 1.17509 25.5988 1.51623 25.5285C1.651 25.5021 1.79414 25.5021 1.87837 25.445C1.96261 25.3879 2.03845 25.322 2.1269 25.267C2.2364 25.2011 2.31213 25.1397 2.26159 25.0979C2.17736 25.0232 2.04263 25.0166 1.8868 25.043C1.75203 25.065 1.60884 25.0672 1.46986 25.0803C1.22137 25.1045 1.01926 25.0474 0.989775 24.9507C0.909754 24.6959 0.825497 24.4433 0.753899 24.1885C0.745476 24.1578 0.766476 24.1182 0.800169 24.0918C0.918095 23.9996 1.04449 23.9117 1.16663 23.8217C1.30983 23.7184 1.53729 23.7382 1.73103 23.7184C2.00478 23.6899 2.00469 23.6921 2.3711 23.4812C2.5143 23.3977 2.7628 23.4307 2.9102 23.356C2.95653 23.3318 3.02813 23.2923 3.01549 23.2703C2.99865 23.2418 2.91446 23.2198 2.85128 23.2066C2.79232 23.1934 2.72074 23.1868 2.65757 23.1934C1.89105 23.2571 1.12876 23.3252 0.362246 23.3867C0.231685 23.3977 0.0884854 23.3494 0.0421575 23.2813C-0.0041705 23.2176 0.00842327 23.1407 0 23.0682C0.122137 22.9781 0.261068 22.8947 0.366359 22.798C0.44638 22.7233 0.539052 22.6904 0.699094 22.686C0.909676 22.6794 1.11607 22.653 1.35192 22.6333C1.78993 22.3126 2.21949 21.9765 2.69119 21.6558C2.88071 21.5262 2.83446 21.3944 2.87236 21.256C2.91027 21.1286 3.19243 21.1484 3.38195 21.111C3.53357 21.0803 3.58405 21.01 3.52508 20.9616C3.49139 20.9331 3.41562 20.9001 3.35666 20.9001C3.21768 20.9001 3.0787 20.9199 2.93971 20.9309C2.80073 20.9419 2.64069 20.9353 2.52698 20.9726C2.41748 21.0078 2.34584 21.0824 2.27424 21.1461C2.19422 21.2164 2.089 21.2406 1.92896 21.245C1.72259 21.2494 1.51623 21.2692 1.30986 21.2845C1.08244 21.1989 0.846534 21.1154 0.627529 21.0253C0.585413 21.0078 0.576945 20.9573 0.581156 20.9243C0.589579 20.8386 0.526421 20.7859 0.387437 20.7442C0.269512 20.709 0.172636 20.6585 0.0631334 20.6146C0.147366 20.5553 0.240055 20.4981 0.307441 20.4344C0.454848 20.3004 0.640181 20.2038 0.960265 20.2082C1.08661 20.1225 1.18766 20.0171 1.35192 19.9578C1.50775 19.9007 1.77309 19.9578 1.89102 19.8282C1.94998 19.7645 2.03848 19.692 2.15219 19.6656C2.33329 19.6239 2.56914 19.6459 2.67443 19.5229C2.7376 19.4526 2.83022 19.3888 2.95236 19.3713C3.09134 19.3515 3.2345 19.3471 3.33558 19.3054C3.39033 19.2834 3.4493 19.2483 3.4493 19.2175C3.4493 19.1977 3.36514 19.167 3.30617 19.1538C3.25142 19.1384 3.17974 19.1275 3.11657 19.1318C2.90599 19.145 2.69962 19.1692 2.48904 19.1824C2.43008 19.1868 2.36271 19.1714 2.29954 19.1582C2.11422 19.1231 2.12683 19.0791 2.27424 19.0001C2.42165 18.9232 2.527 18.8243 2.64913 18.7342C2.78391 18.7189 2.95235 18.7255 3.045 18.6837C3.20083 18.6156 3.31031 18.5168 3.43666 18.4311C3.57564 18.4179 3.71883 18.4135 3.84939 18.3894C3.90414 18.3806 3.92943 18.3323 3.97576 18.3037C4.05999 18.2488 4.13165 18.1697 4.24536 18.1434C4.43067 18.1038 4.6581 18.1192 4.7676 17.9984C4.83077 17.9281 4.9276 17.8534 5.04553 17.849C5.37404 17.8402 5.51303 17.7194 5.68149 17.6052C5.80784 17.5195 6.07739 17.5634 6.21638 17.4778C6.30903 17.4229 6.37646 17.3547 6.46912 17.302C6.50702 17.2801 6.58701 17.2691 6.65019 17.2625C6.99554 17.2296 7.34509 17.2054 7.69045 17.1702C7.7452 17.1636 7.79578 17.1307 7.8379 17.1044C7.92634 17.0472 7.98103 16.9682 8.09053 16.9308C8.20004 16.8935 8.35585 16.8935 8.49062 16.8825C8.92442 16.8495 8.95814 16.8583 9.15609 16.6716C9.31613 16.52 9.70786 16.6277 9.83842 16.4607C9.91423 16.3641 10.0532 16.285 10.3016 16.274C10.6512 16.2586 10.9966 16.2169 11.3461 16.1883C11.6578 16.162 11.6536 16.162 11.9905 15.9577C12.1421 15.8654 12.3654 15.8786 12.5633 15.861C12.7739 15.8435 12.9676 15.8171 13.0687 15.7073C13.1698 15.5997 13.3551 15.5645 13.5699 15.5491C13.7678 15.5337 13.9911 15.5447 14.1469 15.4569C14.526 15.246 14.5218 15.2438 14.7871 15.2218C15.204 15.1867 15.621 15.1515 16.0379 15.1142C16.3159 15.09 16.6065 15.0856 16.8676 15.0373C17.0571 15.0022 17.1413 14.8792 17.2635 14.7935C17.6088 14.7605 17.9542 14.7276 18.2995 14.6968C18.7839 14.6529 19.2724 14.6134 19.761 14.5716C19.9715 14.4881 20.0011 14.3036 20.3549 14.2948C20.5654 14.2905 20.7718 14.2619 20.9824 14.2443C21.332 14.2136 21.6773 14.174 22.0269 14.1587C22.2922 14.1477 22.3385 14.029 22.4774 13.9544C22.5238 13.928 22.5659 13.8907 22.6207 13.8841C23.1682 13.8226 23.7325 13.8094 24.2674 13.7193C24.3221 13.7105 24.3727 13.6644 24.3853 13.6315C24.3937 13.6139 24.3221 13.5809 24.2758 13.5656C24.2211 13.548 24.1495 13.5304 24.0905 13.5348C22.3511 13.682 20.6118 13.8314 18.8724 13.9785C18.6281 14.0005 18.6281 13.9983 18.0342 14.2399C17.9837 14.2597 17.9247 14.2817 17.8615 14.2882C17.5835 14.3146 17.3014 14.33 17.0276 14.363C16.8044 14.3893 16.6191 14.3629 16.4591 14.2838C16.3454 14.2267 16.2274 14.2092 16.0842 14.2136C15.9242 14.2202 15.8189 14.2443 15.7263 14.3036C15.6041 14.3849 15.5409 14.4903 15.284 14.5123C14.1006 14.6068 12.917 14.7122 11.7378 14.8132C11.5735 14.7825 11.4935 14.7364 11.5356 14.6815C11.5609 14.6485 11.6115 14.6046 11.662 14.6002C12.1463 14.554 12.6349 14.5145 13.1192 14.4706C13.1866 14.464 13.2792 14.4684 13.3171 14.4464C13.5024 14.3475 13.5699 14.1872 13.9195 14.1762C14.1216 14.1696 14.328 14.1367 14.5217 14.1059C14.5765 14.0971 14.627 14.051 14.6396 14.0181C14.6439 14.0005 14.5765 13.9675 14.5259 13.9522C14.3406 13.8885 14.1259 13.9654 13.9406 13.9214C13.8774 13.906 13.7889 13.8841 13.7762 13.8577C13.7678 13.8336 13.8394 13.794 13.89 13.7698C13.9363 13.7479 13.9994 13.7281 14.0626 13.7215C14.6185 13.671 15.1746 13.6183 15.7305 13.5787C15.9579 13.5634 16.1179 13.5084 16.219 13.4074C16.2948 13.3327 16.3875 13.2932 16.5307 13.2822C17.5036 13.2009 18.4764 13.1109 19.4535 13.0362C19.6978 13.0186 19.8242 12.9461 19.9253 12.8517C20.0053 12.777 20.098 12.7506 20.2538 12.7374C21.6478 12.6232 23.0334 12.4958 24.4275 12.386C24.6844 12.3662 24.7602 12.2717 24.8908 12.1905C24.9371 12.1619 24.9665 12.1268 25.0255 12.1092C25.0845 12.0916 25.1603 12.0938 25.2319 12.0894C26.3437 11.995 27.4557 11.8939 28.5718 11.8061C28.8329 11.7863 28.8833 11.6764 29.0181 11.5996C29.0644 11.5754 29.1066 11.5359 29.1614 11.5293C29.9953 11.4546 30.8291 11.3843 31.663 11.3118C32.219 11.2635 32.7749 11.2152 33.3308 11.169C33.6046 11.1471 33.6046 11.1449 33.9752 10.9362C34.0173 10.912 34.0764 10.8835 34.1311 10.8769C35.7315 10.7363 37.3277 10.6023 38.9281 10.4639C39.0629 10.4529 39.1597 10.4024 39.2271 10.3277C39.2945 10.253 39.3915 10.2025 39.522 10.1915C40.7729 10.0817 42.0237 9.97405 43.2788 9.87081C43.5062 9.85324 43.6662 9.80051 43.7673 9.70166C43.8431 9.62698 43.9357 9.58745 44.0789 9.57647C45.3298 9.47103 46.5807 9.35898 47.8358 9.25794C48.0758 9.23817 48.1937 9.16349 48.3116 9.07563C48.3538 9.04488 48.3875 8.99435 48.438 8.98996C49.0613 8.92845 49.6804 8.86475 50.308 8.82301C50.5691 8.80544 50.6576 8.71317 50.7628 8.62531C50.8471 8.55501 50.944 8.53086 51.104 8.52207C51.4536 8.5023 51.7989 8.46497 52.1401 8.42763C52.1906 8.42104 52.2538 8.37271 52.258 8.34196C52.2664 8.28485 52.1695 8.2453 52.0095 8.22553C50.3417 8.36831 48.6697 8.51108 47.0019 8.65386C46.7281 8.67803 46.7281 8.67804 46.3575 8.88672C46.3154 8.91088 46.2564 8.93944 46.1974 8.94603C44.597 9.08442 43.0008 9.22061 41.4004 9.359C41.2656 9.36999 41.1688 9.42051 41.1014 9.49519C41.034 9.56988 40.937 9.6204 40.8065 9.63138C39.2777 9.76318 37.7489 9.89718 36.2158 10.0224C35.9884 10.04 35.8284 10.0905 35.7273 10.1915C35.6515 10.2662 35.5589 10.3058 35.4157 10.3167C33.9542 10.4397 32.4969 10.5693 31.0313 10.688C30.8839 10.6989 30.7745 10.6352 30.7829 10.5759C30.7871 10.5452 30.8502 10.4947 30.9007 10.4903C31.663 10.4178 32.4212 10.3431 33.1877 10.2882C33.4446 10.2706 33.5204 10.1739 33.6509 10.0927C33.693 10.0641 33.7268 10.0268 33.7815 10.0114C33.8405 9.99382 33.9163 9.99603 33.9879 9.99164C35.7947 9.83567 37.6015 9.67752 39.4125 9.53035C39.6736 9.50838 39.7241 9.40073 39.8589 9.32385C39.9052 9.29749 39.9473 9.25796 40.0021 9.25357C40.558 9.20085 41.1139 9.15471 41.6699 9.10858C42.6428 9.02511 43.6156 8.94164 44.5927 8.85816C44.8749 8.834 44.8749 8.83399 45.2371 8.62751C45.2792 8.60334 45.3383 8.57261 45.393 8.56822C47.9663 8.34636 50.5397 8.12449 53.113 7.90483C53.2477 7.89385 53.3446 7.84332 53.412 7.76864C53.4794 7.69615 53.5762 7.64343 53.7068 7.63025C57.1856 7.33151 60.6602 7.03275 64.139 6.7384C64.3664 6.71863 64.5264 6.6725 64.6275 6.56926C64.6991 6.49457 64.796 6.45504 64.9392 6.44186C68.7633 6.11456 72.5875 5.78727 76.4159 5.45777C78.9892 5.23811 81.5625 5.01405 84.1358 4.79878C84.3717 4.77901 84.498 4.7109 84.6159 4.62084C84.6538 4.59009 84.6917 4.53956 84.7423 4.53517C85.294 4.48025 85.8457 4.42974 86.3974 4.37921C86.5701 4.43852 86.7428 4.49565 86.9154 4.55495C87.046 4.47148 87.1724 4.38581 87.303 4.30234C88.1369 4.23863 88.9581 4.13978 89.8005 4.10903C89.8552 4.10683 89.9141 4.14858 89.9731 4.17054C90.3648 4.30893 90.588 4.29795 90.8365 4.11343C90.9249 4.04753 91.0007 3.98822 91.1355 3.97724C91.5525 3.9377 91.9737 3.91134 92.3865 3.86521C92.6097 3.84104 92.7949 3.863 92.955 3.94208C93.0687 3.9992 93.1867 4.02337 93.3256 4.01019C94.0922 3.94429 94.8544 3.88058 95.621 3.81029C95.6757 3.8059 95.7262 3.76854 95.7683 3.74218C95.8568 3.68507 95.9326 3.62358 96.0168 3.56427C96.1305 3.60161 96.2569 3.63017 96.3496 3.6785C96.4675 3.73561 96.577 3.7356 96.737 3.72022C99.7947 3.45443 102.857 3.19523 105.914 2.92724C106.175 2.90527 106.289 2.99754 106.466 3.04586C106.525 3.06344 106.584 3.08539 106.647 3.08979C106.714 3.09418 106.786 3.08101 106.853 3.07442C109.149 2.87672 111.444 2.68121 113.739 2.48351C114.043 2.45715 114.043 2.45715 114.493 2.59334C114.548 2.61092 114.62 2.63069 114.679 2.6241C115.723 2.53843 116.768 2.44618 117.808 2.35832C117.943 2.34733 118.056 2.38247 118.179 2.43299C118.419 2.53184 118.435 2.53185 118.612 2.38687C118.696 2.31878 118.785 2.27702 118.924 2.25725C119.075 2.23529 119.198 2.2419 119.316 2.28144C119.484 2.33635 119.606 2.4286 119.863 2.40444C120.975 2.30119 122.091 2.21553 123.199 2.11009C123.451 2.08593 123.586 2.16061 123.755 2.21553C123.814 2.2353 123.868 2.26605 123.932 2.27264C123.995 2.27923 124.071 2.26384 124.138 2.25725C125.528 2.13863 126.922 2.02223 128.307 1.89483C128.569 1.87067 128.682 1.9651 128.859 2.01343C128.918 2.031 128.985 2.06177 129.04 2.05738C129.874 1.98928 130.712 1.91677 131.546 1.84428C131.845 1.81792 131.845 1.82012 132.3 1.95412C132.355 1.97169 132.426 1.98926 132.485 1.98487C133.458 1.9036 134.435 1.82012 135.408 1.73665C135.707 1.71029 135.707 1.7103 136.571 1.82452C136.634 1.83331 136.701 1.8465 136.764 1.84211C137.876 1.74766 138.992 1.65538 140.104 1.55434C140.327 1.53457 140.513 1.55214 140.673 1.63122C140.787 1.68833 140.904 1.7125 141.043 1.69932C142.294 1.59169 143.549 1.48845 144.796 1.37423C145.036 1.35226 145.192 1.40057 145.36 1.46427C145.415 1.48624 145.47 1.51699 145.533 1.52578C145.596 1.53457 145.668 1.52577 145.735 1.51918C146.986 1.41155 148.241 1.31051 149.488 1.19409C149.74 1.16992 149.875 1.2446 150.044 1.29952C150.103 1.31929 150.166 1.35883 150.216 1.35664C150.705 1.31929 151.193 1.28636 151.678 1.23144C151.939 1.20069 152.053 1.30171 152.23 1.35004C152.288 1.36542 152.356 1.39838 152.411 1.39399C153.455 1.30832 154.5 1.21826 155.54 1.126C155.687 1.11282 155.797 1.13258 155.915 1.18969C156.071 1.26657 156.252 1.29733 156.479 1.27316C156.963 1.22264 157.452 1.1875 157.941 1.14577C158.227 1.1216 158.227 1.12161 159.103 1.23584C159.166 1.24462 159.233 1.25779 159.297 1.2534C160.131 1.18311 160.969 1.11502 161.798 1.03813C162.022 1.01617 162.207 1.03593 162.367 1.11501C162.481 1.17212 162.594 1.1963 162.738 1.18312C163.504 1.11722 164.266 1.05132 165.033 0.985417C165.311 0.961254 165.589 0.919507 165.867 0.919507C166.069 0.921703 166.216 1.02714 166.398 1.07986C166.448 1.09523 166.532 1.07768 166.6 1.07329C167.573 0.989815 168.55 0.912925 169.518 0.81847C169.771 0.794307 169.906 0.868988 170.074 0.923904C170.133 0.943674 170.196 0.983216 170.247 0.981019C170.596 0.956856 170.942 0.923903 171.291 0.895347C171.708 0.860201 172.129 0.833841 172.542 0.785515C172.879 0.745975 173.005 0.937077 173.275 0.943667C173.481 0.950256 173.692 0.91292 173.898 0.895347C174.315 0.860201 174.732 0.820665 175.149 0.789912C175.297 0.778929 175.41 0.743768 175.457 0.664689C175.465 0.649313 175.394 0.616377 175.347 0.596607C174.787 0.37255 174.787 0.372539 174.223 0.420865C173.873 0.451618 173.528 0.482377 173.178 0.508736C173.119 0.51313 173.052 0.495557 172.993 0.482378C172.824 0.445035 172.841 0.401106 172.984 0.322027C173.128 0.242948 173.237 0.146305 173.359 0.0562426C173.532 0.113355 173.7 0.170447 173.873 0.22756C174.012 0.216577 174.151 0.203416 174.29 0.192433C174.985 0.135321 175.68 0.076007 176.375 0.0232876C176.425 0.0188944 176.489 0.0628336 176.547 0.0848C176.716 0.148502 176.868 0.203403 177.112 0.17924C177.735 0.115538 178.363 0.0694085 178.986 0.0144925C179.26 -0.00967053 179.26 -0.00966838 179.74 0.126523C179.795 0.1419 179.866 0.159474 179.925 0.155081C180.553 0.104558 181.176 0.0496484 181.804 -0.00307096C181.938 -0.0140542 182.069 0.0145011 182.166 0.0782036C182.204 0.104563 182.195 0.148487 182.355 0.508736C182.852 0.800889 183.193 0.770151 183.539 0.743792C183.686 0.732808 183.817 0.721815 183.914 0.677882C183.964 0.653719 184.027 0.618567 184.027 0.590011C184.027 0.568044 183.935 0.532892 183.876 0.528498C183.459 0.484566 183.063 0.576837 182.654 0.596607C182.465 0.605394 182.301 0.52851 182.267 0.403302C182.258 0.368156 182.246 0.330815 182.233 0.295669C182.221 0.260522 182.212 0.223182 182.2 0.188036C182.035 0.177052 181.938 0.216585 181.867 0.291271C181.808 0.352777 181.724 0.423069 181.61 0.456019C181.496 0.491165 181.34 0.484587 181.201 0.49557C181.067 0.506554 180.919 0.535107 180.793 0.51973C180.666 0.502157 180.565 0.438444 180.447 0.398904C180.393 0.379135 180.325 0.350589 180.271 0.354982C179.786 0.392325 179.306 0.429654 178.826 0.47798C178.573 0.50434 178.447 0.412095 178.287 0.354982C178.161 0.311049 178.034 0.322019 178.013 0.423064C177.958 0.664694 178.152 0.765734 178.582 0.719605C178.936 0.680066 179.256 0.673496 179.534 0.822867C179.571 0.842637 179.66 0.85142 179.715 0.847027C180.06 0.820668 180.401 0.787715 180.746 0.761355C180.81 0.756962 180.877 0.765734 180.936 0.774521C181.795 0.893139 181.795 0.895348 182.086 0.868988C182.225 0.855808 182.36 0.844824 182.347 0.510935C182.612 0.152883 183.033 0.128724 183.442 0.0760048C183.707 0.0430552 183.821 0.139712 183.994 0.190234C184.053 0.207807 184.116 0.242947 184.171 0.238554C185.076 0.166065 185.977 0.0891718 186.879 0.00789614C187.03 -0.00528369 187.14 0.00789829 187.258 0.0650109C187.409 0.1375 187.578 0.183639 187.818 0.157279C188.298 0.10456 188.786 0.071618 189.275 0.0276852C189.524 0.00571881 189.524 0.00569629 190.025 0.141888C190.079 0.157264 190.151 0.174839 190.21 0.170445C190.699 0.133102 191.183 0.0869869 191.667 0.0474474C191.802 0.0364642 191.924 0.067214 192.029 0.126523C192.135 0.185832 192.261 0.216582 192.392 0.205599C192.88 0.16606 193.365 0.122141 193.849 0.0826012C193.908 0.0782079 193.979 0.0935833 194.034 0.10896C194.548 0.245151 194.548 0.245129 194.784 0.223162C195.129 0.190213 195.483 0.174854 195.824 0.130921C196.157 0.086988 196.33 0.214382 196.557 0.284675C197.18 0.234152 197.808 0.192427 198.427 0.130921C198.68 0.104561 198.814 0.177044 198.983 0.234156C199.042 0.253926 199.101 0.295667 199.156 0.29347C199.366 0.284683 199.573 0.260525 199.779 0.242952C199.985 0.225378 200.196 0.207807 200.402 0.190234C200.638 0.253937 200.794 0.403306 201.131 0.352783C201.333 0.322031 201.548 0.315441 201.754 0.297867C201.961 0.280294 202.171 0.262723 202.377 0.24515C202.516 0.234167 202.66 0.227568 202.794 0.207798C203.043 0.174848 203.165 0.282496 203.342 0.330822C203.401 0.346199 203.468 0.372541 203.523 0.368148C203.94 0.337395 204.361 0.311038 204.77 0.260515C205.086 0.220975 205.3 0.286883 205.524 0.379142C205.57 0.398912 205.65 0.409894 205.709 0.405501C206.197 0.368158 206.682 0.322015 207.166 0.282476C207.297 0.271493 207.423 0.306638 207.528 0.363751C207.638 0.42306 207.76 0.451638 207.895 0.440654C208.379 0.401115 208.868 0.357169 209.352 0.31763C209.411 0.313236 209.482 0.330813 209.537 0.348386C210.009 0.484578 210.009 0.486776 210.287 0.460417C210.354 0.453827 210.426 0.449416 210.493 0.442826C210.839 0.412073 211.197 0.401105 211.534 0.348386C211.921 0.289077 212.203 0.363766 212.477 0.488974C212.822 0.462614 213.176 0.447235 213.513 0.403302C213.766 0.370352 213.9 0.45382 214.069 0.508736C214.128 0.528506 214.191 0.568045 214.242 0.563652C214.73 0.526309 215.219 0.493372 215.699 0.438456C215.96 0.407703 216.074 0.506533 216.251 0.557056C216.31 0.574629 216.373 0.605398 216.427 0.601005C216.705 0.583432 216.983 0.557059 217.261 0.532896C217.586 0.50434 217.586 0.506534 218.015 0.640529C218.217 0.704232 218.42 0.653707 218.618 0.63833C218.828 0.620757 219.026 0.607582 219.194 0.697644C219.3 0.754757 219.426 0.789904 219.557 0.781117C219.835 0.761348 220.117 0.741587 220.391 0.708638C220.61 0.682278 220.799 0.699842 220.959 0.781117C221.073 0.83823 221.191 0.866803 221.33 0.853624C221.953 0.800904 222.581 0.745968 223.204 0.695445C223.259 0.691052 223.335 0.710829 223.385 0.730599C223.503 0.770138 223.617 0.814062 223.73 0.857994C224.004 0.838225 224.286 0.829461 224.556 0.798708C224.842 0.767955 225.103 0.756968 225.327 0.877783C225.373 0.904143 225.44 0.941466 225.495 0.939269C225.706 0.930482 225.912 0.908522 226.118 0.890949C226.325 0.873376 226.535 0.855805 226.742 0.838232C226.982 0.893148 227.133 1.0513 227.47 1.00078C227.673 0.970028 227.887 0.963438 228.094 0.945865C228.3 0.928292 228.511 0.908525 228.717 0.893148C228.784 0.888755 228.86 0.877765 228.919 0.886552C228.982 0.895338 229.037 0.926098 229.092 0.948064C229.26 1.01177 229.416 1.07548 229.656 1.03813C229.858 1.00738 230.073 1.00079 230.28 0.981019C230.562 0.956856 230.562 0.95686 231.029 1.09525C231.219 1.15236 231.434 1.07768 231.615 1.126C231.737 1.15895 231.842 1.21386 231.96 1.2512C232.011 1.26658 232.091 1.27316 232.149 1.26876C232.427 1.249 232.71 1.22923 232.983 1.19629C233.207 1.16993 233.392 1.19628 233.548 1.27536C233.661 1.33247 233.775 1.35665 233.918 1.34347C234.613 1.28196 235.308 1.22923 235.999 1.16113C236.235 1.13697 236.424 1.17432 236.555 1.2534C236.778 1.38959 237.094 1.22924 237.326 1.33907C237.469 1.40717 237.612 1.48625 237.873 1.4533C238.353 1.39619 238.842 1.36542 239.326 1.32588C239.499 1.38519 239.671 1.44451 239.848 1.50382C240.126 1.47966 240.404 1.45548 240.682 1.43351C240.889 1.41594 241.099 1.39617 241.306 1.3808C241.373 1.3764 241.445 1.36761 241.508 1.3786C241.571 1.38958 241.622 1.41814 241.68 1.44011C241.971 1.54774 241.971 1.54995 242.451 1.50602C242.658 1.48625 242.855 1.47307 243.028 1.56093C243.188 1.64221 243.378 1.65758 243.597 1.63341C244.009 1.58948 244.426 1.55653 244.848 1.52578C244.978 1.5148 245.1 1.55214 245.21 1.60925C245.374 1.69932 245.576 1.69053 245.783 1.66637C246.056 1.63562 246.326 1.60487 246.557 1.72788C246.604 1.75424 246.675 1.79156 246.726 1.78937C247.071 1.77179 247.421 1.75862 247.758 1.71689C248.095 1.67515 248.259 1.81134 248.491 1.87724C248.836 1.84868 249.186 1.82012 249.531 1.79157C249.598 1.78498 249.678 1.76522 249.737 1.7762C249.986 1.82233 250.129 1.98707 250.47 1.93655C250.668 1.908 250.883 1.89922 251.089 1.89263C251.144 1.89043 251.216 1.92776 251.254 1.95631C251.275 1.97169 251.253 2.01342 251.228 2.03539C251.152 2.0969 251.06 2.15403 250.992 2.21773C250.984 2.22651 251.064 2.26604 251.11 2.28361C251.224 2.32315 251.355 2.31658 251.506 2.299C251.637 2.28363 251.772 2.31438 251.864 2.38028C251.902 2.40664 251.889 2.45057 251.809 2.59554C251.809 2.70318 251.898 2.65484 251.927 2.58455C251.974 2.4835 251.885 2.45056 251.717 2.50547C251.599 2.54501 251.54 2.60213 251.569 2.64826C251.586 2.67242 251.666 2.70318 251.809 2.59554C252.18 2.46374 252.458 2.43959 252.736 2.41543C252.808 2.40884 252.892 2.38686 252.942 2.40004C253.123 2.45276 253.292 2.51647 253.469 2.57578C253.671 2.5626 253.86 2.52964 254.058 2.61531C254.336 2.73612 254.349 2.72514 254.619 2.70098C254.758 2.6878 254.897 2.67683 255.036 2.66585C255.175 2.65487 255.284 2.68781 255.406 2.73833C255.655 2.84157 255.676 2.84156 255.84 2.70098C255.937 2.61531 256.004 2.58676 256.126 2.6263C256.531 2.76029 256.535 2.76907 256.88 2.72953C257.167 2.69659 257.436 2.6878 257.647 2.81301C257.79 2.90087 257.836 2.88111 257.95 2.78885C258.253 2.54502 258.392 2.54941 258.961 2.72514C259.226 2.80861 259.5 2.71856 259.769 2.70757C259.997 2.69879 260.157 2.7515 260.174 2.88989C260.186 2.97555 260.224 3.03707 260.376 3.06563C260.435 3.07661 260.506 3.09198 260.565 3.08759C260.915 3.06123 261.26 3.03047 261.61 2.99972C261.787 2.98434 261.884 2.88112 261.85 2.74493C261.812 2.59995 261.879 2.54721 262.132 2.50547C262.284 2.48131 262.406 2.48572 262.528 2.52526C262.663 2.5692 262.625 2.60873 262.507 2.68781C262.225 2.88112 262.258 2.99971 262.621 3.13371C262.747 3.17984 262.848 3.22159 262.878 3.28969C262.894 3.32483 262.878 3.37096 262.915 3.39732C263.122 3.5445 263.408 3.63896 263.728 3.70925C264.036 3.64995 264.246 3.74878 264.482 3.82785C264.668 3.88936 264.887 3.83665 265.084 3.81469C265.308 3.79053 265.493 3.80809 265.653 3.88937C265.767 3.94648 265.885 3.97283 266.024 3.96185C266.302 3.93768 266.584 3.92231 266.858 3.88717C267.093 3.85642 267.27 3.90035 267.418 3.97504C267.603 4.06949 267.809 4.00578 268.003 4.01896C268.264 4.03434 268.395 4.22983 268.736 4.17711C268.938 4.14636 269.149 4.13538 269.359 4.12659C269.414 4.1244 269.481 4.16175 269.528 4.18811C269.751 4.30892 270.012 4.30233 270.298 4.26718C270.496 4.24302 270.69 4.22106 270.884 4.30453C271.204 4.44512 271.558 4.56814 271.895 4.69774C271.941 4.79879 271.907 4.91738 272.147 4.97669C272.274 5.00745 272.392 5.05359 272.489 5.10411C272.606 5.16342 272.716 5.1788 272.868 5.16343C273.141 5.13268 273.428 5.12606 273.697 5.08652C273.946 5.05138 274.102 5.12389 274.253 5.19199C274.375 5.2469 274.489 5.27325 274.637 5.23371C274.788 5.19637 274.898 5.22052 275.02 5.27983C275.192 5.3611 275.205 5.35233 275.778 5.3765C275.837 5.37869 275.908 5.41162 275.942 5.44018C275.959 5.45556 275.921 5.49952 275.892 5.52148C275.854 5.54784 275.795 5.57858 275.74 5.58517C275.117 5.64228 274.489 5.6928 273.866 5.74991C273.803 5.7565 273.735 5.7719 273.689 5.79386C273.638 5.81803 273.575 5.85095 273.575 5.88171C273.575 5.90367 273.659 5.93004 273.718 5.94542C273.904 5.99594 274.123 5.91906 274.304 5.97617C274.426 6.01352 274.527 6.06622 274.649 6.10137C274.7 6.11675 274.78 6.11456 274.843 6.11017C275.053 6.09479 275.26 6.07283 275.47 6.05965C275.529 6.05745 275.597 6.07943 275.651 6.097C276.056 6.2288 276.056 6.22879 276.405 6.20024C276.544 6.18925 276.692 6.1563 276.822 6.16948C276.949 6.18266 277.058 6.24197 277.172 6.27931C277.408 6.35839 277.631 6.43527 277.648 6.60661C277.656 6.67251 277.795 6.72961 277.934 6.734C278.069 6.7384 278.212 6.71425 278.351 6.70108C278.68 6.67472 278.68 6.67471 279.105 6.80871C279.223 6.84605 279.349 6.85044 279.501 6.82847C279.56 6.81968 279.632 6.82848 279.695 6.83946C279.901 6.87241 279.901 6.91414 279.766 6.99322C279.577 7.10964 279.594 7.12063 280.124 7.21948C280.326 7.25682 280.482 7.32712 280.651 7.38862C280.924 7.48747 280.92 7.48745 280.739 7.61706C280.697 7.64561 280.659 7.67637 280.617 7.70713C280.495 7.7928 280.398 7.88505 280.145 7.89384C279.867 7.90262 279.589 7.93778 279.311 7.96194C279.042 7.98611 278.97 8.03881 278.995 8.18818C279.025 8.3683 279.08 8.38808 279.564 8.38588C279.703 8.38588 279.825 8.40345 279.93 8.46276C279.88 8.53305 279.787 8.58797 279.653 8.60115C279.307 8.6341 278.958 8.66266 278.612 8.69122C278.334 8.71538 278.056 8.73953 277.778 8.7637C277.606 8.77907 277.496 8.89331 277.542 9.02071C277.568 9.0932 277.589 9.16569 277.61 9.23818C277.656 9.38315 277.745 9.42051 278.027 9.41392C278.098 9.41172 278.166 9.39413 278.233 9.39853C278.507 9.4139 278.637 9.59622 278.966 9.55888C279.24 9.52812 279.526 9.52154 279.796 9.482C280.044 9.44685 280.183 9.52595 280.356 9.58526C280.415 9.60503 280.478 9.64675 280.529 9.64455C280.878 9.62039 281.228 9.59624 281.569 9.55451C281.729 9.53693 281.826 9.55011 281.952 9.60283C282.255 9.73023 282.264 9.72364 282.714 9.6841C283.043 9.65335 283.047 9.65774 283.468 9.79173C283.586 9.82908 283.713 9.82907 283.864 9.8115C284.062 9.78953 284.268 9.75439 284.475 9.78734C284.538 9.79612 284.618 9.82249 284.639 9.85105C284.652 9.87082 284.593 9.91914 284.542 9.93452C284.172 10.0487 283.738 10.029 283.333 10.0751C283.207 10.0883 283.081 10.0465 282.975 9.98724C282.866 9.92793 282.748 9.90378 282.605 9.91476C282.327 9.93892 282.045 9.95429 281.771 9.98944C281.535 10.0202 281.371 9.96966 281.207 9.90157C281.152 9.8796 281.089 9.83786 281.034 9.84005C280.411 9.88399 279.783 9.92793 279.164 9.98944C278.916 10.0158 278.772 9.94551 278.604 9.8862C278.545 9.86643 278.486 9.82469 278.431 9.82689C278.221 9.83567 278.014 9.85983 277.804 9.87741C277.037 9.94331 276.275 10.0092 275.508 10.0707C275.458 10.0751 275.395 10.029 275.336 10.0092C275.222 9.96966 275.104 9.93231 274.986 9.89497C274.775 9.91254 274.569 9.93451 274.358 9.94769C274.207 9.95647 274.072 9.98724 274.051 10.0707C274.038 10.1256 274.177 10.1761 274.325 10.1717C274.468 10.1674 274.611 10.141 274.729 10.1695C275.315 10.3101 275.315 10.3123 275.681 10.2838C276.001 10.2574 275.967 10.2354 276.249 10.3563C276.372 10.409 276.481 10.4397 276.62 10.4266C276.966 10.3958 277.315 10.3651 277.665 10.3387C277.719 10.3343 277.791 10.3563 277.846 10.3738C278.258 10.5056 278.258 10.51 278.6 10.4771C279.046 10.4375 279.063 10.4266 279.362 10.5606C279.568 10.6528 279.758 10.5891 279.956 10.5847C280.183 10.6704 280.432 10.7473 280.638 10.8439C280.882 10.9582 281.139 10.9384 281.417 10.9054C281.624 10.8813 281.826 10.8725 281.994 10.9625C282.154 11.046 282.348 11.0548 282.567 11.0328C282.765 11.0131 282.967 10.9713 283.173 11.0196C283.228 11.0328 283.312 11.0658 283.308 11.0856C283.304 11.1163 283.249 11.1602 283.194 11.1734C282.807 11.2635 282.382 11.2613 281.973 11.303C281.918 11.3096 281.847 11.2854 281.792 11.2679C281.674 11.2283 281.56 11.1822 281.447 11.1405C281.24 11.1537 281.03 11.158 280.828 11.1844C280.672 11.2042 280.554 11.202 280.44 11.1493C280.335 11.1009 280.221 11.0416 280.095 11.0262C279.968 11.0109 279.821 11.0438 279.682 11.057C279.543 11.0702 279.383 11.0636 279.274 11.0987C279.164 11.1339 279.097 11.2108 279.025 11.2723C278.945 11.3404 278.835 11.3623 278.675 11.3689C278.528 11.3755 278.41 11.3667 278.301 11.3052C278.254 11.2789 278.191 11.2591 278.128 11.2415C278.069 11.2261 278.002 11.202 277.947 11.2064C277.319 11.2569 276.696 11.3118 276.068 11.3645C275.757 11.3909 275.761 11.3909 275.112 11.2613C275.053 11.2503 274.982 11.2349 274.923 11.2393C274.573 11.2657 274.228 11.2964 273.878 11.3272C273.525 11.3579 273.529 11.3535 272.927 11.2152C272.817 11.1888 272.657 11.2239 272.526 11.2195C272.253 11.2086 272.118 11.0241 271.798 11.0592C271.524 11.09 271.238 11.0965 270.964 11.1361C270.715 11.1712 270.572 11.0943 270.404 11.035C270.345 11.0153 270.282 10.9713 270.231 10.9757C269.604 11.0241 268.98 11.079 268.146 11.0856C267.94 11.0856 268.033 11.1317 268.167 11.1471C268.361 11.1712 268.424 11.1251 268.319 11.0372C268.243 10.9757 268.134 10.945 268.045 10.9603C267.999 10.9691 267.94 11.0109 268.146 11.0856C268.365 11.169 268.353 11.2152 268.391 11.2415C268.483 11.3052 268.614 11.3316 268.749 11.3228C268.959 11.3074 269.166 11.2854 269.376 11.2723C269.435 11.2679 269.507 11.2833 269.561 11.3008C270.025 11.437 270.029 11.4458 270.522 11.3931C270.678 11.3777 270.791 11.3777 270.913 11.4195C271.082 11.4766 271.204 11.5732 271.461 11.5424C271.802 11.5007 272.152 11.4766 272.501 11.4524C272.556 11.448 272.615 11.4876 272.678 11.5051C272.851 11.5578 272.977 11.6567 273.234 11.615C273.432 11.582 273.647 11.5732 273.857 11.5666C273.912 11.5644 273.996 11.5996 274.022 11.6281C274.072 11.6786 274.009 11.738 273.866 11.7797C273.807 11.7973 273.727 11.7929 273.659 11.7995C273.381 11.8236 273.103 11.85 272.825 11.8697C272.678 11.8807 272.539 11.9137 272.522 11.995C272.51 12.0499 272.661 12.0982 272.804 12.0938C273.015 12.0872 273.226 12.0696 273.428 12.0411C273.786 11.9928 274.097 12.0059 274.388 12.1443C274.594 12.241 274.582 12.2058 274.801 12.4914C274.855 12.5639 275.02 12.5705 275.163 12.5661C275.508 12.5551 275.668 12.5881 275.639 12.6562C275.601 12.7396 275.479 12.766 275.323 12.777C275.045 12.7945 274.767 12.8231 274.489 12.8473C274.422 12.8539 274.346 12.867 274.283 12.8626C274.22 12.8582 274.161 12.8319 274.106 12.8121C273.988 12.7704 273.887 12.7067 273.76 12.6913C273.634 12.6759 273.487 12.7089 273.348 12.722C273.209 12.733 273.061 12.766 272.935 12.7506C272.809 12.7352 272.703 12.6693 272.59 12.6298C272.535 12.61 272.467 12.5793 272.413 12.5815C272.135 12.599 271.857 12.6276 271.579 12.6496C271.238 12.6781 271.238 12.6781 270.825 12.5419C270.707 12.5024 270.585 12.5046 270.429 12.5222C270.092 12.5573 270.088 12.5507 269.473 12.4233C269.414 12.4101 269.342 12.3948 269.283 12.4013C268.656 12.4519 268.033 12.5068 267.409 12.5595C266.874 12.6056 266.874 12.6056 266.58 12.8253C266.361 12.9879 266.356 12.9878 266.571 13.0625C266.744 13.124 266.9 13.2141 267.089 13.247C267.266 13.2778 267.485 13.179 267.679 13.28C267.776 13.3305 267.902 13.3854 268.024 13.3942C268.218 13.4052 268.424 13.3415 268.61 13.4381C268.702 13.4865 268.841 13.537 268.959 13.5392C269.166 13.5436 269.376 13.5084 269.583 13.4931C269.646 13.4887 269.717 13.4887 269.776 13.4997C269.839 13.5128 269.894 13.5392 269.949 13.5612C270.117 13.6359 270.299 13.671 270.518 13.6337C270.875 13.5721 271.196 13.6029 271.474 13.7435C271.511 13.7633 271.604 13.7655 271.663 13.7567C271.815 13.7347 271.945 13.7325 272.059 13.7742C272.105 13.7918 272.173 13.8226 272.164 13.8423C272.152 13.8753 272.101 13.9192 272.046 13.9302C271.65 14.0049 271.225 14.0137 270.817 14.0532C270.762 14.0576 270.694 14.029 270.64 14.0093C270.522 13.9697 270.421 13.9038 270.294 13.8885C270.168 13.8731 270.021 13.9016 269.882 13.9126C269.743 13.9236 269.595 13.9566 269.469 13.9434C269.342 13.928 269.225 13.8731 269.123 13.8248C269.006 13.7698 268.892 13.7633 268.736 13.7852C268.534 13.8138 268.323 13.8182 268.117 13.8336C268.003 13.7918 267.889 13.7457 267.772 13.7061C267.717 13.6864 267.649 13.6622 267.59 13.6644C267.312 13.682 267.034 13.7083 266.756 13.7325C266.478 13.7567 266.479 13.7567 266.007 13.6205C265.952 13.6051 265.88 13.5875 265.821 13.5919C265.472 13.6183 265.127 13.6512 264.777 13.6776C264.642 13.6886 264.52 13.6578 264.411 13.5985C264.305 13.5392 264.179 13.5062 264.048 13.5172C263.492 13.5634 262.937 13.6073 262.381 13.6622C262.157 13.6842 261.968 13.6644 261.816 13.5853C261.639 13.4953 261.441 13.5172 261.235 13.5348C260.768 13.5787 260.763 13.5765 260.464 13.4645C260.405 13.4425 260.346 13.4008 260.292 13.403C259.807 13.4359 259.319 13.4667 258.839 13.5194C258.586 13.548 258.451 13.4711 258.283 13.414C258.224 13.3942 258.161 13.3525 258.11 13.3569C257.76 13.381 257.411 13.403 257.07 13.4469C256.729 13.4909 256.598 13.2866 256.341 13.2888C255.992 13.291 255.646 13.3415 255.301 13.3723C255.023 13.3964 254.745 13.4206 254.467 13.4447C254.189 13.4689 253.911 13.4887 253.633 13.5172C253.486 13.5326 253.376 13.5128 253.254 13.4579C253.098 13.3854 252.913 13.3283 252.744 13.2624C252.488 13.168 252.487 13.168 252.176 13.1943C252.108 13.2009 252.037 13.2053 251.969 13.2119C251.46 13.2602 251.46 13.2558 250.811 13.1174C250.782 13.1109 250.706 13.135 250.676 13.1526C250.588 13.2097 250.508 13.2712 250.428 13.3305C250.314 13.2954 250.175 13.2756 250.1 13.2251C249.885 13.0823 249.548 13.2778 249.329 13.1372C249.249 13.0845 249.11 13.0384 248.983 13.0252C248.853 13.012 248.705 13.0428 248.571 13.0559C248.221 13.0889 248.221 13.0867 247.922 13.2822C247.77 13.3788 247.551 13.3613 247.354 13.3832C247.147 13.4074 246.949 13.4206 246.776 13.3305C246.621 13.2492 246.431 13.2295 246.208 13.2558C245.934 13.2888 245.652 13.3085 245.374 13.3283C245.315 13.3327 245.243 13.3217 245.184 13.3086C244.54 13.179 244.54 13.1768 244.228 13.2053C244.089 13.2185 243.946 13.2229 243.811 13.2426C243.584 13.2778 243.411 13.2317 243.247 13.1614C243.192 13.1394 243.129 13.0977 243.074 13.0999C242.796 13.1109 242.523 13.1306 242.249 13.1504C242.038 13.1658 241.828 13.1746 241.626 13.2053C241.289 13.2558 241.124 13.113 240.893 13.0471C240.547 13.0757 240.198 13.0955 239.853 13.135C239.693 13.1526 239.587 13.146 239.465 13.0933C239.309 13.0274 239.166 12.9527 238.913 12.9857C238.576 13.0296 238.223 13.045 237.877 13.0713C237.646 13.0032 237.477 12.8648 237.145 12.9153C236.942 12.9461 236.728 12.9527 236.521 12.9703C236.243 12.9944 235.965 13.0164 235.687 13.0428C235.388 13.0691 235.392 13.0625 234.933 12.9329C234.668 12.8561 234.394 12.9417 234.125 12.9549C233.914 12.9659 233.809 13.0669 233.859 13.1965C233.91 13.3261 233.796 13.4272 233.602 13.4447C233.118 13.4865 232.63 13.5304 232.145 13.5677C232.086 13.5721 232.015 13.5568 231.96 13.5414C231.442 13.403 231.442 13.4052 231.21 13.425C230.865 13.4579 230.511 13.4755 230.17 13.5172C229.934 13.5458 229.761 13.4997 229.61 13.425C229.492 13.3679 229.382 13.3547 229.231 13.3679C227.563 13.515 225.895 13.6512 224.232 13.8028C223.983 13.8248 223.84 13.7611 223.672 13.7018C223.613 13.682 223.558 13.6403 223.499 13.6403C223.36 13.6403 223.221 13.66 223.082 13.6732C222.458 13.7259 221.835 13.7896 221.208 13.8292C220.942 13.8467 220.871 13.9478 220.757 14.0313C220.669 14.095 220.568 14.1213 220.412 14.1301C220.26 14.1389 220.151 14.1279 220.033 14.0708C219.881 13.9961 219.708 13.95 219.473 13.9807C219.199 14.0159 218.921 14.0313 218.639 14.0554C218.495 14.0664 218.386 14.1059 218.34 14.185C218.331 14.1982 218.42 14.2312 218.47 14.2509C218.639 14.3168 218.799 14.3937 218.988 14.4398C219.182 14.486 219.392 14.4332 219.595 14.42C219.666 14.4156 219.734 14.4025 219.801 14.4047C219.864 14.4069 219.94 14.4179 219.986 14.4376C220.205 14.5365 220.437 14.6046 220.74 14.5453C221.001 14.5738 221.136 14.7561 221.469 14.7078C221.671 14.6793 221.882 14.6661 222.092 14.6551C222.147 14.6529 222.206 14.6924 222.265 14.7122C222.433 14.7671 222.568 14.855 222.821 14.8176C223.09 14.7781 223.377 14.7715 223.65 14.7408C223.802 14.7232 223.912 14.7386 224.029 14.7957C224.181 14.8682 224.354 14.9231 224.59 14.8879C224.792 14.8572 225.007 14.8506 225.213 14.8308C225.482 14.8066 225.482 14.8088 225.963 14.945C226.017 14.9604 226.089 14.978 226.148 14.9736C226.497 14.9472 226.843 14.9143 227.192 14.8879C227.327 14.8769 227.458 14.9055 227.55 14.9692C227.588 14.9956 227.576 15.0395 227.588 15.0769C226.893 15.1362 226.198 15.1867 225.508 15.2592C225.247 15.2877 225.129 15.1977 224.956 15.1471C224.897 15.1296 224.834 15.0922 224.779 15.0966C224.291 15.134 223.806 15.1735 223.322 15.2218C223.17 15.2372 223.057 15.2284 222.943 15.1647C222.652 14.9956 222.299 15.0878 221.97 15.112C221.717 15.1296 221.637 15.1977 221.667 15.3426C221.705 15.514 221.856 15.5667 222.244 15.5359C222.383 15.525 222.522 15.5096 222.661 15.5008C222.795 15.492 222.918 15.5206 223.027 15.5799C223.132 15.6392 223.259 15.6699 223.389 15.6611C223.667 15.6414 223.949 15.6216 224.219 15.5887C224.442 15.5623 224.628 15.5843 224.783 15.6655C224.956 15.7556 225.158 15.7358 225.36 15.7161C225.832 15.6721 225.836 15.6743 226.131 15.7842C226.19 15.8061 226.249 15.8479 226.304 15.8457C226.788 15.8127 227.277 15.7842 227.753 15.7315C228.001 15.7051 228.144 15.7754 228.309 15.8325C228.367 15.8523 228.426 15.8962 228.481 15.8918C228.831 15.8676 229.18 15.8435 229.521 15.8017C229.681 15.782 229.778 15.7951 229.909 15.8479C230.221 15.9775 230.229 15.9731 230.671 15.9313C230.806 15.9181 230.953 15.894 231.08 15.9116C231.206 15.9291 231.307 15.9929 231.425 16.0324C231.48 16.05 231.547 16.0741 231.606 16.0697C231.884 16.0521 232.162 16.0258 232.44 16.0016C232.701 15.9775 232.701 15.9797 233.19 16.1159C233.388 16.173 233.594 16.1246 233.792 16.1071C234.007 16.0873 234.201 16.0873 234.365 16.173C234.529 16.2586 234.727 16.2542 234.938 16.2367C235.136 16.2191 235.338 16.1708 235.54 16.2301C236.003 16.3663 236.003 16.3685 236.29 16.3421C236.706 16.3048 237.119 16.2696 237.54 16.2367C237.595 16.2323 237.667 16.2586 237.721 16.2762C237.839 16.3158 237.941 16.3816 238.067 16.397C238.193 16.4146 238.341 16.3882 238.475 16.3751C238.909 16.3333 238.939 16.3179 239.229 16.4629C239.474 16.5815 239.777 16.4102 240.004 16.5464C240.135 16.6233 240.312 16.6848 240.556 16.6474C240.758 16.6167 240.969 16.6079 241.179 16.5903C241.512 16.5618 241.512 16.564 241.933 16.6958C241.988 16.7134 242.059 16.7353 242.114 16.7309C242.392 16.7133 242.674 16.698 242.944 16.6584C243.26 16.6123 243.462 16.6958 243.698 16.7771C243.883 16.8408 244.102 16.788 244.3 16.7661C244.515 16.7441 244.709 16.7507 244.869 16.8363C245.037 16.9242 245.235 16.9132 245.446 16.8957C245.644 16.8803 245.846 16.8298 246.048 16.8913C246.482 17.0275 246.482 17.0275 246.798 17.0011C247.076 16.9769 247.353 16.9506 247.631 16.933C247.686 16.9286 247.754 16.9572 247.808 16.9769C247.926 17.0165 248.027 17.0824 248.154 17.0978C248.28 17.1131 248.427 17.0846 248.566 17.0736C248.705 17.0626 248.853 17.0297 248.979 17.0428C249.105 17.056 249.223 17.1109 249.325 17.1593C249.442 17.2164 249.552 17.223 249.712 17.201C249.914 17.1724 250.125 17.1658 250.331 17.1505C250.445 17.1922 250.563 17.2339 250.672 17.2801C250.786 17.3284 250.908 17.324 251.064 17.3086C251.582 17.2559 251.586 17.2625 252.02 17.3987C252.218 17.4602 252.424 17.4097 252.622 17.3943C252.833 17.3767 253.031 17.3679 253.195 17.4558C253.355 17.5393 253.553 17.5503 253.764 17.5239C253.898 17.5063 254.042 17.4954 254.181 17.4888C254.244 17.4866 254.32 17.4954 254.366 17.5129C254.589 17.6052 254.808 17.6887 255.116 17.6294C255.385 17.6469 255.52 17.827 255.844 17.7919C256.118 17.7611 256.404 17.7545 256.674 17.715C256.922 17.6799 257.099 17.7414 257.226 17.8183C257.453 17.9545 257.773 17.7699 258.001 17.9039C258.131 17.9808 258.299 18.0423 258.552 18.0094C258.83 17.9742 258.919 18.0203 258.999 18.1587C259.045 18.2378 259.037 18.3015 258.952 18.363C258.868 18.4267 258.776 18.4158 258.641 18.3433C258.485 18.262 258.3 18.2466 258.076 18.2642C257.857 18.2817 257.723 18.1675 257.541 18.1236C257.36 18.0775 257.146 18.1543 256.956 18.095C256.51 17.9567 256.51 17.9566 256.206 17.983C256 18.0006 255.785 18.0094 255.583 18.0401C255.343 18.0775 255.187 18.0094 255.023 17.9479C254.964 17.9259 254.905 17.8841 254.854 17.8863C254.37 17.9193 253.882 17.9501 253.401 18.005C253.149 18.0335 253.014 17.9545 252.846 17.8995C252.787 17.8798 252.723 17.8402 252.673 17.8446C252.256 17.8754 251.843 17.9149 251.426 17.9523C251.346 18.0116 251.258 18.0687 251.182 18.1324C251.102 18.1983 250.992 18.2268 250.832 18.2246C250.567 18.2246 250.306 18.3169 250.04 18.2005C249.767 18.0819 249.746 18.0884 249.48 18.117C249.143 18.1543 248.785 18.1456 248.47 18.2312C248.415 18.2466 248.356 18.2883 248.356 18.3191C248.352 18.3388 248.44 18.3674 248.495 18.385C248.68 18.4377 248.895 18.3608 249.08 18.4157C249.202 18.4509 249.303 18.5036 249.426 18.5409C249.476 18.5563 249.552 18.5541 249.619 18.5519C249.691 18.5497 249.758 18.5344 249.826 18.5366C249.889 18.5388 249.956 18.5519 250.007 18.5717C250.239 18.6552 250.483 18.7321 250.689 18.8309C250.891 18.9276 251.081 18.8617 251.283 18.8573C252.092 19.011 252.092 19.0132 252.635 18.9649C252.77 18.9539 252.909 18.9407 253.048 18.9429C253.107 18.9429 253.161 18.9825 253.22 19.0044C253.389 19.0703 253.549 19.1296 253.785 19.0945C253.987 19.0637 254.202 19.0571 254.408 19.0374C254.686 19.0132 254.686 19.0132 255.158 19.1516C255.276 19.1868 255.402 19.1824 255.554 19.1648C255.684 19.1494 255.819 19.1824 255.911 19.2461C255.949 19.2724 255.937 19.3164 255.949 19.3537C255.532 19.3889 255.111 19.413 254.707 19.4657C254.446 19.4987 254.328 19.4042 254.155 19.3537C254.096 19.3361 254.033 19.2988 253.978 19.3032C253.566 19.3361 253.153 19.3735 252.74 19.4174C252.69 19.4218 252.626 19.4723 252.622 19.5031C252.614 19.5602 252.719 19.6151 252.871 19.6129C253.073 19.6107 253.271 19.5734 253.452 19.6634C253.604 19.7425 253.793 19.7777 254.016 19.7425C254.151 19.7227 254.294 19.7227 254.429 19.7052C254.787 19.6524 255.111 19.6634 255.381 19.8128C255.587 19.8523 255.789 19.815 255.987 19.7952C256.135 19.7799 256.278 19.7645 256.383 19.8062C256.606 19.8941 256.825 19.9819 257.133 19.9226C257.466 19.9841 257.718 20.1137 257.996 20.2192C258.127 20.2697 258.228 20.2983 258.38 20.2653C258.443 20.2521 258.519 20.2521 258.586 20.2455C258.725 20.2345 258.872 20.2016 258.999 20.2148C259.125 20.2302 259.23 20.2939 259.344 20.3334C259.399 20.3532 259.462 20.3861 259.517 20.3839C259.727 20.3729 259.934 20.351 260.14 20.3334C260.346 20.318 260.553 20.3027 260.759 20.2873C260.932 20.3444 261.109 20.4015 261.281 20.4586C261.559 20.4345 261.837 20.4103 262.111 20.3883C262.419 20.362 262.418 20.3642 262.861 20.5003C263.059 20.5619 263.269 20.5223 263.459 20.4938C263.775 20.4476 263.985 20.5311 264.208 20.619C264.255 20.6365 264.339 20.6475 264.394 20.6387C264.613 20.608 264.802 20.6321 264.962 20.7134C265.076 20.7705 265.19 20.7969 265.329 20.7859C265.813 20.7442 266.297 20.7002 266.782 20.6629C266.841 20.6585 266.908 20.6783 266.963 20.6959C267.392 20.8298 267.397 20.8364 267.712 20.8013C267.995 20.7705 268.256 20.7573 268.479 20.8782C268.525 20.9045 268.597 20.9419 268.647 20.9397C268.993 20.9177 269.342 20.8935 269.684 20.8562C269.839 20.8386 269.949 20.8452 270.071 20.8958C270.227 20.9595 270.366 21.0363 270.623 21.0078C271.335 20.9265 271.339 20.9397 272.181 21.0912C272.24 21.1022 272.32 21.0847 272.387 21.0759C272.531 21.0539 272.636 21.0847 272.762 21.1352C273.044 21.2494 273.053 21.2428 273.322 21.2187C273.529 21.1989 273.744 21.1945 273.946 21.1615C274.257 21.1132 274.464 21.1989 274.695 21.2802C274.881 21.3439 275.095 21.2911 275.293 21.2714C275.508 21.2494 275.702 21.256 275.862 21.3395C275.972 21.3966 276.089 21.4273 276.228 21.4164C276.713 21.3768 277.197 21.3329 277.682 21.2933C277.74 21.2889 277.812 21.3065 277.867 21.3219C278.347 21.4581 278.347 21.4647 278.823 21.4142C278.974 21.3988 279.101 21.3944 279.215 21.4405C279.324 21.4844 279.442 21.5262 279.556 21.5679C279.762 21.5525 279.973 21.5482 280.175 21.5218C280.331 21.502 280.44 21.5108 280.562 21.5569C280.722 21.6163 280.857 21.7195 281.11 21.6689C281.24 21.6448 281.392 21.6514 281.522 21.6294C281.678 21.6009 281.784 21.6184 281.906 21.6755C282.057 21.7436 282.213 21.8139 282.457 21.7788C282.727 21.7392 283.013 21.7327 283.287 21.7019C283.439 21.6843 283.544 21.7019 283.666 21.759C283.818 21.8315 283.991 21.8776 284.226 21.8491C284.707 21.7942 284.711 21.8051 285.178 21.9435C285.296 21.9787 285.422 21.9743 285.574 21.9567C285.705 21.9413 285.839 21.9743 285.932 22.038C286.02 22.1083 286.012 22.1522 286.02 22.1896ZM248.491 2.37808C248.352 2.38906 248.213 2.40224 248.01 2.21113C247.998 2.17818 248.006 2.13865 247.977 2.11009C247.909 2.05079 247.804 2.00905 247.678 2.00246C247.45 1.99367 247.177 2.06835 247.181 2.12546C247.185 2.17379 247.257 2.21551 247.396 2.25505C247.455 2.27043 247.501 2.29679 247.556 2.31437C247.716 2.36489 247.842 2.46375 248.074 2.41323C248.032 2.27704 248.053 2.34514 248.074 2.41323C248.053 2.4967 248.116 2.55602 248.267 2.58018C248.31 2.58677 248.373 2.58236 248.406 2.56918C248.537 2.52086 248.558 2.45497 248.461 2.28144C248.444 2.31 248.457 2.3605 248.495 2.37368C248.533 2.38686 248.625 2.37589 248.672 2.36051C248.79 2.31878 248.849 2.26386 248.819 2.21773C248.802 2.19356 248.722 2.16281 248.672 2.16281C248.583 2.16281 248.503 2.21113 248.491 2.37808ZM282.546 27.8525C282.238 27.8942 281.885 27.8789 281.577 27.9645C281.523 27.9799 281.468 28.0194 281.464 28.0502C281.459 28.07 281.544 28.0985 281.594 28.1139C281.708 28.1491 281.834 28.1381 281.982 28.1271C282.205 28.1117 282.335 28.2127 282.508 28.2633C282.563 28.2786 282.634 28.2896 282.693 28.2852C283.034 28.2589 283.371 28.2303 283.712 28.1996C283.771 28.193 283.835 28.1776 283.885 28.1578C284.054 28.0941 284.037 28.0524 283.873 28.0041C283.691 27.9514 283.548 27.8635 283.363 27.8217C283.098 27.7624 282.828 27.8415 282.546 27.8525ZM258.628 29.456C258.422 29.4736 258.219 29.4912 258.013 29.5088C257.946 29.5154 257.874 29.5175 257.811 29.5263C257.68 29.5417 257.584 29.5878 257.52 29.6603C257.617 29.7174 257.735 29.7504 257.866 29.7438C258.072 29.7306 258.274 29.7021 258.481 29.6955C258.704 29.6867 258.834 29.7855 259.007 29.8361C259.062 29.8514 259.129 29.8536 259.192 29.8558C259.504 29.8646 259.694 29.7504 259.635 29.59C259.592 29.4648 259.432 29.3902 259.239 29.4055C259.037 29.4209 258.83 29.4385 258.628 29.456ZM283.986 24.6059C284.037 24.5685 284.092 24.5422 284.117 24.5092C284.193 24.3972 284.163 24.3137 284.024 24.2258C283.856 24.1182 283.649 24.1907 283.46 24.2017C283.414 24.2039 283.363 24.25 283.338 24.2786C283.321 24.2983 283.321 24.3401 283.346 24.3511C283.553 24.4389 283.772 24.5202 283.986 24.6059ZM247.45 18.117C247.248 18.1346 247.042 18.1478 246.84 18.1719C246.789 18.1785 246.743 18.2202 246.713 18.2488C246.659 18.3015 246.718 18.374 246.89 18.3806C247.088 18.3894 247.294 18.352 247.501 18.3345C247.762 18.3125 247.918 18.2312 247.821 18.1609C247.728 18.0928 247.602 18.0797 247.45 18.117ZM25.7541 13.4228C25.8889 13.4118 26.0278 13.403 26.1626 13.3876C26.289 13.3723 26.3859 13.3239 26.4491 13.2514C26.3438 13.1943 26.2258 13.1636 26.0953 13.1702C25.8889 13.1833 25.6868 13.2009 25.4846 13.2229C25.3583 13.2361 25.2362 13.2844 25.2067 13.3591C25.1772 13.4162 25.4593 13.4491 25.7541 13.4228ZM229.639 13.0845C229.694 13.1043 229.749 13.1438 229.804 13.1438C229.938 13.1438 230.077 13.1306 230.204 13.1087C230.259 13.0999 230.301 13.0603 230.326 13.0296C230.343 13.0098 230.339 12.9747 230.313 12.9571C230.191 12.8517 229.703 12.889 229.622 13.0098C229.614 13.0318 229.635 13.0603 229.639 13.0845ZM216.352 1.0557C216.364 1.09084 216.369 1.12599 216.385 1.16113C216.419 1.22703 216.512 1.27537 216.646 1.30832C216.752 1.2534 216.807 1.1919 216.802 1.126C216.798 1.09086 216.785 1.05569 216.769 1.02054C216.735 0.954644 216.642 0.906335 216.508 0.873386C216.402 0.926105 216.352 0.987601 216.352 1.0557ZM293.719 29.8383C293.681 29.8668 293.644 29.8954 293.601 29.9217C293.715 29.9854 293.82 30.0052 293.901 29.9701C293.951 29.9481 293.981 29.9151 294.018 29.8866C293.905 29.8229 293.804 29.8053 293.719 29.8383ZM291.1 30.137C291.154 30.1568 291.205 30.1831 291.264 30.1963C291.361 30.2183 291.449 30.1809 291.517 30.1018C291.462 30.0821 291.411 30.0557 291.352 30.0425C291.256 30.0206 291.167 30.0579 291.1 30.137ZM292.759 29.735C292.73 29.7877 292.789 29.8317 292.944 29.869C292.982 29.8405 293.033 29.8141 293.058 29.7833C293.1 29.7328 293.029 29.6867 292.877 29.6516C292.835 29.6779 292.797 29.7065 292.759 29.735ZM283.868 27.367C283.839 27.4198 283.898 27.4637 284.054 27.501C284.092 27.4725 284.142 27.4461 284.167 27.4154C284.21 27.3648 284.138 27.3187 283.986 27.2836C283.944 27.3099 283.906 27.3385 283.868 27.367ZM271.756 11.8236C271.718 11.8522 271.68 11.8807 271.638 11.9071C271.751 11.9708 271.857 11.9906 271.937 11.9554C271.987 11.9335 272.017 11.9005 272.055 11.8719C271.941 11.8082 271.84 11.7907 271.756 11.8236ZM260.153 3.57743C260.254 3.59281 260.338 3.56207 260.41 3.4808C260.355 3.46103 260.304 3.43466 260.245 3.42148C260.148 3.39952 260.06 3.43687 259.993 3.51595C260.047 3.53792 260.102 3.55766 260.153 3.57743ZM253.991 3.06123C253.953 3.08979 253.915 3.11834 253.873 3.1447C253.987 3.20841 254.092 3.22817 254.172 3.19302C254.223 3.17106 254.252 3.13811 254.29 3.10955C254.176 3.04585 254.075 3.03048 253.991 3.06123ZM212.207 1.0535C212.17 1.08205 212.132 1.11061 212.09 1.13697C212.203 1.20067 212.309 1.22044 212.389 1.18529C212.439 1.16333 212.469 1.13037 212.506 1.10182C212.393 1.03812 212.292 1.02275 212.207 1.0535ZM4.15683 18.9253C4.10208 18.9056 4.04738 18.8858 3.99684 18.8639C3.8747 18.9232 3.83681 18.9781 3.90419 19.0198C3.94631 19.0462 4.00943 19.0616 4.06419 19.0813C4.19054 19.022 4.22 18.9693 4.15683 18.9253Z" fill="#4F9CF9"/>
</svg>
