<svg width="297" height="34" viewBox="0 0 297 34" fill="none" xmlns="http://www.w3.org/2000/svg">
<path d="M279.243 18.1519C278.836 18.1791 278.425 18.1978 278.026 18.2387C277.767 18.2643 277.656 18.1894 277.483 18.1502C277.426 18.1366 277.364 18.1093 277.311 18.1127C276.908 18.14 276.505 18.1706 276.102 18.2013C275.978 18.2677 275.9 18.3562 275.711 18.3886C275.526 18.4192 275.308 18.4192 275.103 18.4345C274.831 18.4533 274.56 18.472 274.288 18.489C274.153 18.4976 274.042 18.5299 273.996 18.5912C273.988 18.6014 274.079 18.627 274.128 18.6423C274.292 18.6934 274.453 18.7513 274.634 18.7904C274.806 18.8279 275.02 18.7666 275.205 18.8143C275.621 18.9215 275.625 18.9198 275.941 18.8994C276.213 18.8807 276.484 18.8602 276.756 18.8466C276.809 18.8432 276.871 18.8688 276.928 18.8824C277.101 18.9198 277.212 19.005 277.467 18.9726C277.66 18.9471 277.874 18.942 278.075 18.9284C278.244 18.9777 278.4 19.0339 278.581 19.0731C278.75 19.1105 278.799 19.1395 278.709 19.1889C278.626 19.2349 278.511 19.2536 278.359 19.257C278.223 19.2587 278.088 19.274 277.952 19.2825C277.882 19.2876 277.816 19.2911 277.751 19.2962C277.492 19.3149 277.492 19.3149 277.019 19.2059C276.834 19.1633 276.624 19.2229 276.447 19.1821C276.328 19.1548 276.225 19.114 276.11 19.085C276.061 19.0731 275.982 19.0714 275.921 19.0748C275.715 19.0867 275.51 19.0952 275.312 19.1174C275.172 19.1327 275.09 19.1804 275.107 19.228C275.111 19.2468 275.209 19.274 275.267 19.2757C275.399 19.2791 275.538 19.2553 275.666 19.2672C275.789 19.2791 275.917 19.3132 276.007 19.3506C276.192 19.429 276.402 19.3592 276.579 19.3796C276.764 19.4017 276.916 19.4699 277.093 19.5107C277.138 19.5209 277.224 19.5039 277.294 19.4988C277.496 19.4869 277.697 19.4767 277.899 19.4647C278.067 19.5141 278.248 19.5584 278.4 19.6146C278.676 19.7168 278.972 19.7559 279.33 19.7065C279.531 19.6793 279.728 19.6895 279.889 19.7559C280.053 19.824 280.242 19.8172 280.452 19.8036C280.645 19.79 280.843 19.7525 281.04 19.8002C281.468 19.9058 281.472 19.9109 281.978 19.87C282.13 19.8581 282.245 19.8547 282.36 19.8938C282.467 19.9296 282.582 19.9603 282.693 19.9943C282.894 19.9824 283.1 19.9705 283.302 19.9569C283.561 19.9381 283.704 19.962 283.766 20.0573C283.803 20.1152 283.82 20.168 283.91 20.2072C284.017 20.2548 284.132 20.2531 284.288 20.2395C284.436 20.2276 284.543 20.2089 284.605 20.1476C284.63 20.122 284.679 20.0982 284.724 20.0777C284.761 20.0624 284.819 20.0386 284.852 20.042C284.913 20.0488 284.996 20.0675 285.016 20.0897C285.218 20.2957 285.218 20.2974 285.423 20.357C285.649 20.4234 285.884 20.483 286.089 20.5579C286.274 20.6243 286.459 20.5954 286.661 20.5954C286.813 20.5954 286.912 20.6397 286.899 20.6839C286.891 20.7095 286.834 20.7469 286.784 20.7503C286.381 20.7844 285.974 20.8133 285.567 20.8372C285.518 20.8406 285.456 20.8099 285.399 20.7946C285.283 20.764 285.181 20.7163 285.057 20.7061C284.934 20.6958 284.79 20.7214 284.654 20.7299C284.519 20.7384 284.375 20.7606 284.251 20.7469C284.128 20.7333 284.029 20.6839 283.914 20.6516C283.861 20.6363 283.787 20.6141 283.742 20.6192C283.441 20.6601 283.219 20.6039 283.005 20.529C282.96 20.5137 282.882 20.5034 282.825 20.5068C282.348 20.5358 281.875 20.5698 281.398 20.6022C281.205 20.6158 281.048 20.5562 281.007 20.4558C280.987 20.3996 280.945 20.3434 280.945 20.2872C280.945 20.185 280.719 20.1288 280.555 20.1407C280.283 20.1578 280.008 20.1714 279.741 20.1969C279.523 20.2174 279.338 20.1969 279.19 20.1356C279.017 20.0658 278.82 20.0794 278.622 20.0982C278.474 20.1118 278.433 20.168 278.441 20.3093C278.45 20.4234 278.38 20.4592 278.112 20.4779C277.775 20.5017 277.434 20.5256 277.093 20.5443C277.039 20.5477 276.978 20.5188 276.924 20.5034C276.809 20.4728 276.706 20.4234 276.583 20.4132C276.459 20.4013 276.315 20.4268 276.18 20.437C276.044 20.4455 275.9 20.4694 275.777 20.4575C275.654 20.4455 275.551 20.3945 275.44 20.3621C275.386 20.3468 275.32 20.3246 275.267 20.328C274.996 20.3417 274.724 20.3621 274.453 20.3808C274.149 20.4013 274.149 20.4013 273.717 20.2957C273.519 20.248 273.322 20.2855 273.129 20.2991C272.923 20.3127 272.73 20.3195 272.57 20.2514C272.463 20.2072 272.344 20.1799 272.216 20.1884C271.875 20.2089 271.538 20.2344 271.196 20.2548C271.139 20.2582 271.061 20.2497 271.015 20.2344C270.797 20.1629 270.584 20.1067 270.279 20.1424C270.016 20.1731 269.733 20.1748 269.469 20.2037C269.325 20.2191 269.26 20.2736 269.288 20.3161C269.305 20.3383 269.391 20.3638 269.449 20.3638C269.58 20.3655 269.724 20.34 269.848 20.3502C270.103 20.3706 270.23 20.5136 270.563 20.4745C270.76 20.4506 270.966 20.4421 271.172 20.4353C271.225 20.4336 271.283 20.466 271.34 20.483C271.505 20.529 271.649 20.5886 271.887 20.5579C272.084 20.5341 272.294 20.5273 272.496 20.5137C272.816 20.4915 272.816 20.4932 273.232 20.5971C273.429 20.6465 273.626 20.6073 273.82 20.5954C273.964 20.5869 274.099 20.5699 274.214 20.5937C274.391 20.6295 274.519 20.7112 274.737 20.7061C274.942 20.701 275.144 20.6771 275.349 20.6686C275.477 20.6635 275.596 20.6907 275.699 20.7367C275.806 20.7827 275.921 20.8031 276.061 20.7929C276.262 20.7793 276.468 20.7623 276.673 20.7537C276.731 20.752 276.797 20.7674 276.85 20.781C276.965 20.8116 277.076 20.8474 277.187 20.8798C277.389 20.8695 277.594 20.8661 277.792 20.8457C277.944 20.8304 278.051 20.8372 278.174 20.8713C278.33 20.9172 278.458 20.999 278.713 20.9598C278.84 20.9411 278.988 20.9462 279.116 20.9291C279.272 20.907 279.379 20.9155 279.49 20.9666C279.7 21.0637 279.963 21.0654 280.234 21.0279C280.53 20.987 280.752 21.0347 280.974 21.1096C281.209 21.188 281.209 21.1863 281.39 21.3753C281.443 21.4298 281.595 21.4553 281.723 21.4451C281.936 21.4281 282.121 21.4366 282.278 21.5013C282.442 21.5711 282.639 21.5626 282.841 21.5438C283.108 21.5183 283.376 21.4962 283.593 21.5949C283.7 21.6426 283.816 21.6545 283.959 21.6426C284.367 21.6119 284.778 21.5932 285.177 21.5558C285.419 21.5319 285.559 21.5864 285.723 21.6324C285.945 21.6954 286.188 21.7516 286.188 21.8861C286.188 21.9082 286.246 21.9338 286.295 21.9508C286.402 21.9866 286.517 22.0172 286.628 22.0513C286.793 22.1024 286.953 22.1449 287.179 22.1177C287.376 22.0955 287.586 22.0887 287.788 22.0734C287.989 22.0581 288.174 22.0496 288.355 22.1143C288.565 22.1875 288.787 22.2573 289.025 22.3118C289.194 22.351 289.416 22.2846 289.597 22.3374C289.708 22.3697 289.815 22.4072 289.934 22.4344C289.983 22.4463 290.061 22.4378 290.127 22.4344C290.263 22.4276 290.403 22.4225 290.534 22.4055C290.686 22.3867 290.802 22.3901 290.917 22.4293C291.024 22.4651 291.131 22.5144 291.254 22.5247C291.439 22.54 291.644 22.4719 291.829 22.5502C291.924 22.5894 292.043 22.6268 292.167 22.6388C292.29 22.6507 292.434 22.6251 292.566 22.6268C292.623 22.6268 292.693 22.6541 292.726 22.6762C292.746 22.6881 292.718 22.7205 292.689 22.7375C292.652 22.7579 292.598 22.7852 292.545 22.7886C292.138 22.8192 291.731 22.8448 291.324 22.8737C291.081 22.8908 291.081 22.8908 290.592 22.7835C290.477 22.7579 290.349 22.763 290.205 22.775C290.012 22.7903 289.815 22.8192 289.613 22.7886C289.35 22.6728 289.025 22.6626 288.68 22.7068C288.536 22.7256 288.404 22.7256 288.297 22.6932C288.071 22.6285 287.833 22.5689 287.631 22.4923C287.475 22.4327 287.401 22.4276 287.335 22.5093C287.315 22.5349 287.294 22.5621 287.298 22.586C287.323 22.6711 287.368 22.7545 287.393 22.8397C287.401 22.8635 287.368 22.8908 287.348 22.9163C287.282 22.9878 287.195 22.9827 287.052 22.9231C286.908 22.8635 286.735 22.8244 286.505 22.8516C286.307 22.8754 286.094 22.872 285.896 22.8976C285.592 22.935 285.378 22.8805 285.16 22.8073C285.115 22.792 285.037 22.7835 284.979 22.7869C284.367 22.8261 283.758 22.8703 283.145 22.9095C283.014 22.918 282.894 22.8925 282.792 22.8465C282.685 22.8005 282.565 22.7767 282.434 22.7852C281.891 22.8209 281.348 22.8533 280.806 22.8976C280.584 22.9163 280.407 22.8942 280.255 22.8346C280.14 22.7903 280.033 22.7767 279.889 22.7818C279.732 22.7869 279.621 22.8039 279.543 22.8533C279.469 22.901 279.523 22.9299 279.687 22.9674C279.864 23.0082 280.029 23.061 280.197 23.1087C280.333 23.1019 280.468 23.0883 280.6 23.09C280.658 23.09 280.711 23.1206 280.769 23.1377C280.933 23.187 281.085 23.2364 281.32 23.2092C281.517 23.1853 281.727 23.1802 281.928 23.1649C282.208 23.1462 282.208 23.1462 282.66 23.2535C282.775 23.2807 282.899 23.279 283.047 23.2637C283.174 23.2517 283.306 23.2756 283.396 23.3267C283.433 23.3471 283.421 23.3812 283.343 23.4936C283.343 23.577 283.429 23.5395 283.458 23.485C283.503 23.4067 283.417 23.3812 283.252 23.4237C283.137 23.4544 283.08 23.4987 283.108 23.5344C283.125 23.5532 283.203 23.577 283.343 23.4936C283.705 23.3914 283.98 23.3795 284.243 23.3522C284.399 23.3369 284.498 23.3437 284.621 23.388C284.769 23.4408 284.918 23.497 285.16 23.4697C285.423 23.4391 285.703 23.4356 285.97 23.4101C286.217 23.3863 286.344 23.4612 286.501 23.5055C286.69 23.5583 286.899 23.4987 287.072 23.5293C287.253 23.56 287.38 23.6349 287.59 23.6485C287.894 23.6025 288.088 23.6877 288.318 23.7439C288.499 23.7864 288.713 23.749 288.906 23.7302C289.124 23.7098 289.305 23.7285 289.457 23.7898C289.63 23.8597 289.823 23.8443 290.02 23.829C290.481 23.7949 290.497 23.7898 290.764 23.8835C290.958 23.9516 291.143 23.921 291.336 23.9124C291.505 23.9584 291.669 24.0078 291.846 24.0486C291.891 24.0589 291.978 24.0418 292.047 24.0367C292.249 24.0231 292.454 24.0095 292.656 23.9959C292.792 23.9874 292.936 23.9618 293.059 23.972C293.182 23.9839 293.285 24.0333 293.396 24.0657C293.507 24.098 293.622 24.1304 293.729 24.1644C293.894 24.2155 294.05 24.2581 294.28 24.2326C294.478 24.2104 294.683 24.2036 294.889 24.1883C295.148 24.1696 295.14 24.1747 295.621 24.2768C295.88 24.333 296.147 24.2649 296.41 24.2581C296.542 24.2547 296.669 24.2734 296.76 24.3228C296.797 24.3433 296.784 24.3773 296.797 24.4063C296.118 24.4522 295.436 24.4914 294.765 24.5476C294.506 24.5697 294.371 24.5084 294.231 24.4573C294.001 24.3756 293.696 24.4948 293.478 24.3892C293.347 24.3262 293.158 24.2905 292.931 24.3211C292.8 24.3381 292.66 24.3364 292.524 24.3517C292.179 24.3892 291.862 24.3909 291.587 24.2734C291.492 24.2326 291.357 24.2104 291.258 24.1713C291.143 24.1287 291.032 24.1048 290.896 24.1134C290.283 24.1542 289.675 24.1951 289.066 24.2394C289.013 24.2428 288.959 24.2683 288.914 24.287C288.799 24.3347 288.836 24.3722 289.021 24.4028C289.083 24.4131 289.132 24.4352 289.19 24.4522C289.301 24.4846 289.403 24.5357 289.527 24.5476C289.65 24.5595 289.794 24.5357 289.93 24.5271C290.066 24.5186 290.209 24.4931 290.333 24.5033C290.456 24.5152 290.559 24.5646 290.674 24.5953C290.728 24.6106 290.793 24.6361 290.847 24.6344C291.118 24.6242 291.385 24.6055 291.657 24.5901C291.825 24.6361 291.969 24.7025 292.171 24.7179C292.298 24.7281 292.434 24.7093 292.566 24.7127C292.623 24.7144 292.697 24.74 292.726 24.7621C292.742 24.7758 292.689 24.8098 292.648 24.8268C292.491 24.8915 292.278 24.8796 292.084 24.9C291.875 24.9222 291.686 24.9154 291.525 24.849C291.418 24.8047 291.299 24.7809 291.167 24.7894C290.826 24.8115 290.489 24.8371 290.148 24.8558C290.09 24.8592 290.02 24.8439 289.967 24.8319C289.535 24.7281 289.535 24.7247 289.231 24.7468C288.783 24.7792 288.783 24.7791 288.483 24.6889C288.425 24.6719 288.363 24.6395 288.314 24.6412C287.837 24.6685 287.364 24.6957 286.891 24.7349C286.735 24.7468 286.628 24.7468 286.513 24.7025C286.414 24.6651 286.299 24.6225 286.176 24.6123C286.048 24.6021 285.908 24.6276 285.773 24.6361C285.637 24.6446 285.493 24.6668 285.374 24.6531C285.251 24.6395 285.144 24.5919 285.037 24.5578C284.926 24.522 284.806 24.5237 284.654 24.5373C284.186 24.5765 284.181 24.5714 283.717 24.4658C283.663 24.4539 283.594 24.4403 283.536 24.4437C283.195 24.4641 282.858 24.4897 282.516 24.5101C282.385 24.5186 282.257 24.4965 282.167 24.4471C282.13 24.4267 282.142 24.3926 282.117 24.3262C282.089 24.3109 282.121 24.3381 282.13 24.3637C282.191 24.3603 282.265 24.3637 282.311 24.35C282.426 24.3177 282.483 24.2751 282.454 24.2394C282.438 24.2206 282.36 24.1968 282.311 24.1968C282.22 24.1968 282.142 24.2343 282.117 24.3262C281.858 24.3824 281.583 24.3943 281.315 24.4216C281.159 24.4386 281.061 24.4301 280.937 24.3858C280.789 24.3313 280.637 24.2785 280.394 24.3058C280.131 24.3364 279.852 24.3415 279.58 24.3654C279.268 24.3926 279.132 24.2394 278.869 24.2428C278.598 24.2462 278.326 24.2751 278.055 24.2956C277.816 24.3126 277.816 24.3126 277.323 24.2019C277.142 24.161 276.928 24.2206 276.751 24.1781C276.632 24.1508 276.529 24.11 276.414 24.081C276.365 24.0691 276.287 24.0691 276.225 24.0725C275.884 24.0929 275.538 24.1066 275.209 24.144C274.835 24.1883 274.552 24.1406 274.284 24.0401C273.947 24.0589 273.606 24.0691 273.273 24.1014C273.03 24.1253 272.89 24.0691 272.726 24.0231C272.668 24.0078 272.619 23.9823 272.557 23.9754C272.496 23.9686 272.422 23.9822 272.356 23.9874C272.084 24.0061 271.805 24.0146 271.542 24.0453C271.217 24.0844 271.093 23.9448 270.843 23.9278C270.674 24.0112 270.584 24.1253 270.251 24.1338C269.979 24.1406 269.708 24.1679 269.436 24.1866C269.301 24.1951 269.165 24.2053 269.029 24.2138C268.811 24.2292 268.709 24.2956 268.754 24.3977C268.779 24.4539 268.799 24.5101 268.82 24.5663C268.861 24.6668 268.758 24.7519 268.585 24.7638C268.108 24.7962 267.635 24.8302 267.158 24.8592C267.031 24.8677 266.908 24.8387 266.805 24.7928C266.698 24.7468 266.579 24.7264 266.447 24.7349C265.97 24.7672 265.497 24.8013 265.02 24.8302C264.967 24.8337 264.897 24.8166 264.844 24.803C264.728 24.7723 264.617 24.7366 264.506 24.7042C264.235 24.7196 263.968 24.7298 263.7 24.7502C263.269 24.7808 263.269 24.7826 262.952 24.6889C262.895 24.6719 262.837 24.6395 262.784 24.6412C262.578 24.648 262.376 24.6651 262.171 24.6804C261.566 24.7247 261.566 24.7247 261.39 24.6736C261.229 24.6259 261.085 24.568 260.843 24.5953C260.579 24.6259 260.3 24.6361 260.029 24.6531C259.827 24.6651 259.626 24.6787 259.424 24.6821C259.371 24.6838 259.313 24.6514 259.256 24.6344C259.091 24.5816 258.931 24.5391 258.704 24.568C258.573 24.585 258.433 24.5884 258.297 24.597C257.944 24.6208 257.944 24.6208 257.364 24.5186C257.306 24.5084 257.237 24.4965 257.179 24.5016C256.702 24.5322 256.229 24.5663 255.752 24.5953C255.695 24.5987 255.625 24.5884 255.567 24.5799C254.918 24.4812 254.918 24.4812 254.227 24.5288C253.964 24.5459 253.955 24.5527 253.68 24.4624C253.556 24.4233 253.454 24.4045 253.31 24.4165C252.767 24.4573 252.22 24.4846 251.682 24.5323C251.439 24.5527 251.299 24.5016 251.135 24.4556C251.077 24.4403 251.015 24.4063 250.966 24.408C250.423 24.4403 249.88 24.4795 249.338 24.5118C249.288 24.5152 249.227 24.4812 249.169 24.4658C249.058 24.4352 248.951 24.3892 248.828 24.379C248.7 24.3688 248.561 24.3943 248.421 24.4028C248.08 24.425 248.079 24.4233 247.685 24.3228C247.631 24.3092 247.561 24.2905 247.508 24.2939C246.965 24.3279 246.418 24.3569 245.88 24.4063C245.571 24.4335 245.362 24.3841 245.144 24.3126C245.098 24.2973 245.02 24.2905 244.963 24.2939C244.35 24.333 243.742 24.3773 243.129 24.4165C243.001 24.425 242.878 24.396 242.775 24.3517C242.611 24.2819 242.418 24.2904 242.212 24.3058C241.739 24.3415 241.735 24.3398 241.455 24.2581C241.398 24.2411 241.348 24.2189 241.287 24.2104C241.229 24.2019 241.155 24.207 241.094 24.2104C240.822 24.2275 240.551 24.2462 240.279 24.2649C240.008 24.2836 239.732 24.2939 239.465 24.3228C239.136 24.3586 238.98 24.2479 238.75 24.1968C238.413 24.2189 238.067 24.2326 237.734 24.2683C237.479 24.2956 237.36 24.2206 237.191 24.1815C237.134 24.1678 237.072 24.1389 237.019 24.1423C236.406 24.1798 235.793 24.2206 235.185 24.2666C235.037 24.2768 234.938 24.2632 234.815 24.2223C234.539 24.1304 234.527 24.1338 234.066 24.1679C233.865 24.1832 233.672 24.1968 233.499 24.127C233.347 24.064 233.162 24.0486 232.944 24.0691C232.677 24.0946 232.401 24.1083 232.13 24.1253C231.858 24.144 231.587 24.1695 231.316 24.1781C231.098 24.1866 230.966 24.1066 230.793 24.0657C230.74 24.0538 230.666 24.0521 230.604 24.0555C230.333 24.0708 230.053 24.0827 229.79 24.1117C229.469 24.1474 229.293 24.0538 229.066 23.9993C229.017 23.9874 228.935 23.9942 228.873 23.9993C228.396 24.0299 227.923 24.064 227.446 24.0963C227.278 24.0504 227.105 24.0061 226.936 23.9601C226.665 23.9771 226.394 23.9959 226.122 24.0129C225.917 24.0265 225.707 24.0316 225.514 24.0572C225.263 24.0912 225.14 24.0112 224.971 23.972C224.913 23.9584 224.852 23.9295 224.798 23.9329C224.457 23.9516 224.116 23.972 223.779 24.001C223.458 24.0299 223.33 23.8767 223.067 23.8784C222.796 23.8801 222.516 23.9022 222.253 23.9329C221.949 23.9686 221.735 23.9141 221.517 23.8409C221.472 23.8256 221.394 23.8171 221.336 23.8205C220.995 23.8409 220.658 23.8665 220.316 23.8869C220.259 23.8903 220.189 23.8818 220.131 23.8716C219.482 23.7711 219.482 23.7694 219.198 23.7898C218.997 23.8035 218.791 23.8205 218.585 23.829C218.528 23.8324 218.458 23.8171 218.404 23.8035C217.977 23.6996 217.977 23.6979 217.668 23.7183C217.397 23.737 217.126 23.7558 216.854 23.7745C216.686 23.7285 216.513 23.6843 216.344 23.6383C216.007 23.6604 215.662 23.6774 215.329 23.7081C215.172 23.7217 215.07 23.7166 214.95 23.674C214.802 23.623 214.654 23.5634 214.408 23.5923C214.145 23.623 213.865 23.6264 213.598 23.6519C213.277 23.6826 213.145 23.5276 212.886 23.5293C212.615 23.531 212.335 23.5531 212.072 23.5838C211.768 23.6195 211.554 23.5651 211.336 23.4919C211.291 23.4765 211.213 23.468 211.155 23.4714C210.407 23.5208 209.663 23.5702 208.914 23.6229C208.454 23.6553 208.454 23.657 207.578 23.5634C207.516 23.5565 207.45 23.5497 207.389 23.5532C207.117 23.5685 206.838 23.5804 206.575 23.6093C206.254 23.6451 206.077 23.5531 205.851 23.4969C205.802 23.485 205.723 23.4918 205.658 23.4952C205.452 23.5072 205.251 23.5225 205.045 23.5361C204.774 23.5549 204.502 23.5736 204.231 23.5923C204.062 23.548 203.89 23.5021 203.721 23.4578C203.384 23.4799 203.038 23.4918 202.705 23.5276C202.45 23.5548 202.331 23.4833 202.163 23.4425C202.105 23.4288 202.043 23.3999 201.99 23.4016C201.377 23.4391 200.765 23.4782 200.156 23.5259C199.905 23.5463 199.79 23.4697 199.622 23.4305C199.564 23.4186 199.498 23.3965 199.445 23.3999C199.038 23.4237 198.631 23.4527 198.224 23.4816C197.993 23.4987 197.993 23.4986 197.492 23.3931C197.434 23.3812 197.368 23.3692 197.311 23.3726C196.02 23.4578 194.733 23.548 193.441 23.6332C193.31 23.6417 193.191 23.6161 193.088 23.5702C192.981 23.5242 192.862 23.5004 192.73 23.5089C192.187 23.5446 191.64 23.577 191.102 23.6213C190.88 23.64 190.703 23.6178 190.551 23.5582C190.436 23.514 190.329 23.497 190.185 23.5072C189.913 23.5276 189.642 23.5446 189.371 23.5634C189.099 23.5821 188.828 23.6008 188.557 23.6196C188.285 23.6383 188.01 23.6485 187.742 23.6775C187.414 23.7132 187.253 23.6076 187.027 23.5549C186.62 23.5804 186.213 23.6059 185.81 23.6332C185.267 23.6689 184.724 23.7081 184.182 23.7422C184.132 23.7456 184.071 23.7149 184.013 23.6996C183.844 23.657 183.721 23.5974 183.47 23.6162C182.253 23.7064 181.028 23.783 179.807 23.8716C179.552 23.8903 179.441 23.8171 179.268 23.7779C179.21 23.766 179.145 23.7422 179.091 23.7456C178.413 23.7881 177.734 23.8358 177.056 23.8818C176.78 23.9005 176.78 23.9005 176.32 23.7949C176.266 23.783 176.196 23.7677 176.139 23.7711C175.255 23.829 174.375 23.8903 173.491 23.9499C173.359 23.9584 173.24 23.9346 173.133 23.8886C173.03 23.8426 172.907 23.8171 172.779 23.8256C171.965 23.8801 171.147 23.9329 170.337 23.9925C170.119 24.0095 169.938 23.9942 169.782 23.9329C169.671 23.8886 169.56 23.8699 169.42 23.8801C168.199 23.9635 166.978 24.0436 165.756 24.1321C165.522 24.1491 165.358 24.1168 165.21 24.0606C165.09 24.0163 164.987 24.0078 164.839 24.0146C164.683 24.0231 164.589 24.0418 164.502 24.0929C164.391 24.1593 164.321 24.2428 164.058 24.2479C163.787 24.253 163.511 24.2734 163.244 24.3024C162.989 24.3313 162.87 24.2547 162.71 24.2087C162.59 24.1764 162.479 24.1713 162.327 24.1866C162.187 24.2002 162.101 24.2291 162.019 24.2836C161.838 24.3994 161.821 24.3994 161.599 24.3262C161.48 24.287 161.373 24.2564 161.242 24.2632C160.699 24.2973 160.156 24.3347 159.613 24.3739C159.301 24.396 159.297 24.3994 159.062 24.3143C158.947 24.2717 158.836 24.2513 158.701 24.2615C157.208 24.3637 155.715 24.4624 154.223 24.5697C153.992 24.5867 153.836 24.551 153.672 24.4999C153.618 24.4829 153.565 24.459 153.503 24.4522C153.441 24.4454 153.372 24.4522 153.306 24.4556C152.22 24.5288 151.131 24.5987 150.049 24.6804C149.802 24.6991 149.671 24.6446 149.502 24.6004C149.445 24.585 149.395 24.5612 149.334 24.5544C149.272 24.5493 149.198 24.5612 149.132 24.5663C148.047 24.6395 146.957 24.7094 145.876 24.7911C145.617 24.8098 145.506 24.7383 145.337 24.7008C145.279 24.6872 145.218 24.6617 145.164 24.6651C144.823 24.6838 144.486 24.7093 144.145 24.7315C143.33 24.7877 142.516 24.8405 141.702 24.8984C141.39 24.9205 141.254 24.7689 140.991 24.7757C140.65 24.7843 140.312 24.8183 139.971 24.8422C139.7 24.8609 139.428 24.8779 139.157 24.8984C138.89 24.9171 138.89 24.9171 138.224 24.8183C138.166 24.8098 138.096 24.7979 138.039 24.8013C137.089 24.8643 136.135 24.9273 135.189 24.9954C134.971 25.0107 134.79 25.0022 134.634 24.9392C134.523 24.895 134.408 24.8728 134.272 24.883C132.845 24.9801 131.423 25.0772 129.996 25.1725C129.942 25.1759 129.872 25.1589 129.819 25.1453C129.704 25.1146 129.593 25.0789 129.482 25.0465C129.4 25.0857 129.293 25.1214 129.239 25.1657C129.165 25.2253 129.066 25.2423 128.91 25.2525C128.754 25.2628 128.655 25.2594 128.532 25.2151C128.384 25.1606 128.232 25.118 127.989 25.135C126.497 25.2423 125.004 25.3394 123.511 25.445C123.265 25.462 123.15 25.387 122.977 25.3479C122.919 25.336 122.853 25.3172 122.8 25.3207C122.187 25.3598 121.579 25.4024 120.966 25.4432C119.268 25.559 117.57 25.6697 115.876 25.7923C115.567 25.8145 115.358 25.7719 115.14 25.6987C115.094 25.6833 115.016 25.6748 114.959 25.6782C112.582 25.8383 110.205 26.0001 107.833 26.1618C107.705 26.1703 107.582 26.1431 107.479 26.0988C107.372 26.0528 107.253 26.0307 107.122 26.0392C106.036 26.1124 104.951 26.1857 103.865 26.2606C103.594 26.2793 103.59 26.281 103.31 26.1993C103.252 26.1822 103.191 26.1499 103.146 26.1533C103.051 26.1618 102.96 26.2044 102.895 26.2623C102.829 26.3236 102.726 26.3406 102.574 26.3525C102.418 26.3645 102.315 26.3594 102.196 26.3185C102.044 26.2674 101.904 26.218 101.657 26.2351C98.5361 26.453 95.4152 26.6624 92.2943 26.8787C92.0435 26.8957 91.9283 26.8242 91.7556 26.785C91.6981 26.7731 91.6405 26.7561 91.5788 26.7527C91.5131 26.7493 91.4432 26.7595 91.3774 26.7646C86.2869 27.1103 81.1965 27.4576 76.106 27.8033C75.8018 27.8238 75.8059 27.8238 75.4728 27.9804C75.4317 27.9991 75.3782 28.0247 75.3206 28.0281C73.7622 28.1371 72.1998 28.2426 70.6373 28.3482C69.9588 28.3942 69.2804 28.4419 68.6019 28.4861C68.3594 28.5015 68.3594 28.5015 67.7796 28.6854C67.7302 28.7007 67.6726 28.7211 67.615 28.7245C64.9012 28.9101 62.1874 29.0957 59.4695 29.2779C59.2557 29.2916 59.083 29.3222 58.9843 29.4039C58.9144 29.4618 58.824 29.4959 58.6883 29.5061C56.7886 29.6355 54.889 29.7666 52.9852 29.8926C52.759 29.908 52.6233 29.9557 52.5123 30.0272C52.4753 30.051 52.4423 30.0782 52.3889 30.0953C52.3396 30.1106 52.2656 30.1157 52.2039 30.1208C50.5756 30.2315 48.9474 30.3456 47.315 30.4512C47.0724 30.4665 46.9736 30.5295 46.8544 30.5959C46.8133 30.618 46.7845 30.6487 46.731 30.664C46.6775 30.6776 46.5994 30.6776 46.5336 30.681C45.1767 30.773 43.8199 30.8666 42.463 30.9586C42.1998 30.9501 42.1422 31.0488 42.0147 31.1084C41.9695 31.1289 41.9367 31.1561 41.8832 31.1697C41.8257 31.1834 41.7516 31.1817 41.6817 31.1851C40.5961 31.2583 39.5106 31.3366 38.421 31.4047C38.1702 31.4201 38.1208 31.5069 37.9851 31.5665C37.9399 31.5852 37.8947 31.6142 37.8413 31.6193C37.1628 31.6687 36.4844 31.7146 35.8059 31.7589C35.5798 31.7742 35.5798 31.7725 35.1809 31.9411C35.1357 31.9598 35.0822 31.9803 35.0246 31.9854C34.009 32.0569 32.9893 32.125 31.9695 32.1948C31.838 32.2033 31.7475 32.2442 31.6817 32.3021C31.6159 32.36 31.5214 32.3975 31.3898 32.406C30.5757 32.4622 29.7614 32.5201 28.9473 32.5711C28.7212 32.5848 28.5732 32.6273 28.4745 32.704C28.4005 32.7619 28.31 32.7908 28.1661 32.801C27.3519 32.8555 26.5378 32.9151 25.7196 32.9628C25.4811 32.9764 25.3577 33.0343 25.259 33.1058C25.1809 33.1637 25.0904 33.1842 24.9383 33.1944C23.4457 33.2931 21.949 33.3919 20.4605 33.5009C20.2097 33.5196 20.0822 33.46 19.9177 33.4174C19.6833 33.3578 19.4655 33.2931 19.4655 33.1603C19.4655 33.1399 19.3956 33.116 19.3462 33.099C18.9803 32.9713 18.9803 32.9713 18.9227 32.8351C18.8898 32.7516 18.8528 32.6665 18.824 32.5814C18.7706 32.4417 18.6389 32.406 18.2606 32.4315C18.1249 32.44 17.9893 32.4519 17.8536 32.4587C17.6521 32.4707 17.5 32.4145 17.463 32.3123C17.4424 32.2561 17.4178 32.1999 17.3972 32.1437C17.6028 32.1301 17.5986 32.1284 17.9605 31.9224C18.1126 31.8355 18.1127 31.8355 17.8207 31.7487C17.7097 31.7163 17.6028 31.6806 17.4835 31.6499C17.4301 31.6363 17.3602 31.6278 17.3026 31.6312C16.9614 31.6516 16.6242 31.6755 16.287 31.6993C15.7443 31.7368 15.7442 31.7368 15.1932 31.5631C15.148 31.5495 15.0781 31.5239 15.0863 31.5103C15.1315 31.4473 15.2425 31.42 15.3824 31.4132C15.5879 31.403 15.7894 31.386 15.9909 31.3724C16.1266 31.3639 16.2623 31.3537 16.398 31.3451C16.5254 31.2804 16.6571 31.2174 16.7763 31.151C16.9655 31.0488 16.9654 31.0454 16.7064 30.9739C16.5419 30.9262 16.3651 30.8837 16.1965 30.8394C15.995 30.853 15.7894 30.8683 15.5879 30.8803C15.333 30.8956 15.2302 30.8632 15.1644 30.7525C15.1068 30.6555 15.1768 30.5721 15.3741 30.5516C15.5756 30.5312 15.7648 30.5176 15.8676 30.4307C15.9663 30.3473 16.139 30.3149 16.3528 30.3081C16.4885 30.303 16.6242 30.2911 16.7599 30.2809C16.9367 30.2673 17.0313 30.1804 16.9943 30.0834C16.9737 30.0204 16.9326 29.9676 16.7722 29.9539C16.0609 29.8943 16.0526 29.896 15.699 29.7803C15.6661 29.77 15.6415 29.7394 15.6538 29.7241C15.6744 29.6985 15.7196 29.6611 15.7689 29.656C16.2418 29.6185 16.7146 29.5844 17.1875 29.5589C17.3438 29.5504 17.4589 29.5385 17.5124 29.4755C17.5864 29.3886 17.5535 29.3086 17.4096 29.249C17.3643 29.2303 17.2903 29.2064 17.2409 29.2081C16.6981 29.2388 16.1595 29.2779 15.6168 29.3086C15.5674 29.312 15.477 29.2831 15.4564 29.2609C15.4153 29.2201 15.477 29.1656 15.6209 29.1468C15.81 29.1213 16.0033 29.1196 16.1307 29.0344C16.3075 28.9135 16.5254 28.8029 16.7228 28.6871C16.7557 28.6666 16.8092 28.6275 16.7969 28.6241C16.6941 28.5866 16.5748 28.5576 16.4679 28.5219C16.287 28.4623 16.287 28.3789 16.3281 28.2988C16.361 28.2341 16.4843 28.2086 16.6365 28.2086C16.7023 28.2086 16.7845 28.2086 16.838 28.1933C16.9778 28.1558 17.023 28.1081 16.9531 28.0724C16.912 28.0519 16.838 28.023 16.7887 28.0264C15.9087 28.0826 15.0246 28.1371 14.1488 28.2069C13.8898 28.2273 13.7706 28.1626 13.6143 28.1166C13.4951 28.0809 13.384 28.0672 13.236 28.0928C13.0962 28.1166 12.9605 28.103 12.8742 28.0468C12.8043 28.0009 12.9276 27.9617 13.2607 27.9174C13.3224 27.9089 13.3922 27.9038 13.4375 27.8868C13.9144 27.7029 13.9144 27.7012 14.2434 27.6773C14.5641 27.6552 14.5642 27.6535 14.7327 27.5547C14.8109 27.5087 14.8972 27.4628 14.9712 27.4151C15 27.3963 15.0494 27.3623 15.0329 27.3521C14.9424 27.2993 14.819 27.2874 14.6751 27.2993C14.3544 27.3282 13.9762 27.3044 13.8076 27.4662C13.7418 27.5275 13.639 27.5445 13.491 27.5547C12.0025 27.6535 10.5139 27.7591 9.02135 27.8544C8.77875 27.8697 8.6678 27.9327 8.57322 28.0026C8.49099 28.0604 8.40051 28.0775 8.24426 28.0877C8.08801 28.0979 7.96459 28.103 7.87413 28.0468C7.82068 28.0128 7.86592 27.9651 7.98927 27.9174C8.16608 27.8493 8.13317 27.7642 8.07561 27.6841C8.03449 27.6313 7.90702 27.5939 7.77133 27.5973C7.56985 27.6041 7.37665 27.6228 7.20806 27.5547C7.10938 27.5156 6.986 27.4883 6.87498 27.4542C6.66117 27.3844 6.44734 27.3129 6.14718 27.3589C5.94159 27.3419 5.79767 27.2806 5.6332 27.2329C5.35771 27.1546 5.33303 27.1426 5.5304 27.0592C5.75244 26.9655 5.57971 26.8429 5.70307 26.751C5.83465 26.6522 6.01563 26.5654 6.17599 26.4734C6.21711 26.4496 6.25413 26.4275 6.29525 26.4036C6.20068 26.3696 6.11434 26.327 6.00332 26.3032C5.85941 26.2725 5.78539 26.2351 5.79362 26.1295C5.76483 26.1142 5.77708 26.1533 5.80998 26.1635C5.84699 26.1737 5.93751 26.1652 5.98274 26.1533C6.09788 26.121 6.15538 26.0784 6.1266 26.0426C6.11015 26.0239 6.03209 26.0001 5.98274 26.0001C5.89228 26.0001 5.81417 26.0375 5.7895 26.1295C5.32897 26.1993 4.85192 26.2334 4.37495 26.2606C4.32561 26.264 4.26397 26.2299 4.2064 26.2129C4.01726 26.155 4.01723 26.1567 3.46214 26.1397C3.40457 26.138 3.32649 26.1142 3.2977 26.0903C3.17846 25.9864 3.1826 25.8724 3.12504 25.7617C3.23195 25.6902 3.33877 25.6203 3.44979 25.5505C3.67183 25.4092 3.95972 25.2849 4.13242 25.1299C4.09541 25.0465 4.04606 24.9631 4.22698 24.895C4.74096 24.8098 4.73688 24.8098 4.87668 24.7281C5.27553 24.4965 5.67025 24.2632 6.08554 24.035C6.19656 23.9754 6.19658 23.9431 5.99921 23.9176C5.93753 23.9107 5.87165 23.909 5.80586 23.9124C5.60027 23.9244 5.39468 23.955 5.1932 23.9482C4.99172 23.9431 4.8437 23.8682 4.67922 23.8222C4.51064 23.7745 4.34206 23.7251 4.17348 23.6757C3.98022 23.6809 3.787 23.7285 3.59374 23.6519C3.44572 23.5923 3.2607 23.5497 3.09211 23.5004C3.21958 23.3709 3.4581 23.2722 3.64313 23.1581C3.81172 23.0542 3.81574 23.0559 4.26804 22.9759C4.48186 22.9384 4.55587 22.746 4.37495 22.6898C4.15702 22.6217 3.92681 22.5587 3.70477 22.494C3.51151 22.4991 3.31419 22.5451 3.12915 22.4685C2.98524 22.4106 2.82073 22.3714 2.58225 22.3935C2.17929 22.431 1.76811 22.4497 1.36104 22.4804C1.22124 22.4906 1.06906 22.4838 1.00738 22.4259C0.966262 22.385 1.08551 22.3288 1.2212 22.3169C1.4268 22.2999 1.61181 22.2795 1.7146 22.1943C1.81329 22.1092 1.99419 22.0836 2.208 22.0717C2.26557 22.0683 2.33141 22.0479 2.36019 22.0274C2.50822 21.9287 2.6727 21.8435 2.98931 21.8469C3.12089 21.8129 3.19075 21.7703 3.14963 21.7294C3.12496 21.7073 3.03866 21.6784 2.98931 21.6818C2.64803 21.6988 2.30676 21.7158 1.9737 21.7465C1.81745 21.7601 1.69815 21.7635 1.59946 21.7124C1.52956 21.6784 1.56656 21.6324 1.69814 21.583C1.81327 21.5404 1.8462 21.4911 1.83798 21.4332C1.81742 21.2986 1.69404 21.2595 1.2993 21.268C1.01559 21.2748 0.945683 21.2527 0.884005 21.1369C0.867558 21.1096 0.826512 21.0722 0.855295 21.0534C1.0321 20.9376 1.14724 20.7946 1.4803 20.7401C1.61188 20.7197 1.75163 20.7197 1.83386 20.6754C1.9161 20.6312 1.99015 20.5801 2.0765 20.5375C2.18341 20.4864 2.25735 20.4387 2.208 20.4064C2.12577 20.3485 1.99423 20.3434 1.8421 20.3638C1.71052 20.3808 1.57072 20.3825 1.43503 20.3928C1.19243 20.4115 0.995105 20.3672 0.966322 20.2923C0.888197 20.0948 0.805936 19.899 0.736035 19.7014C0.727811 19.6776 0.748314 19.6469 0.781209 19.6265C0.896341 19.555 1.01974 19.4869 1.13899 19.4171C1.27879 19.337 1.50087 19.3524 1.69001 19.337C1.95728 19.3149 1.95719 19.3166 2.31492 19.1531C2.45472 19.0884 2.69733 19.114 2.84124 19.0561C2.88647 19.0373 2.95638 19.0067 2.94404 18.9897C2.92759 18.9675 2.8454 18.9505 2.78372 18.9403C2.72616 18.93 2.65627 18.925 2.59459 18.9301C1.84624 18.9794 1.10202 19.0322 0.353662 19.0799C0.226195 19.0884 0.0863888 19.051 0.0411585 18.9982C-0.00407168 18.9488 0.00822368 18.8892 0 18.833C0.119243 18.7632 0.254882 18.6985 0.357678 18.6235C0.435803 18.5657 0.526279 18.5401 0.682529 18.5367C0.888121 18.5316 1.08962 18.5112 1.31988 18.4958C1.74752 18.2472 2.16689 17.9867 2.62742 17.7381C2.81245 17.6376 2.7673 17.5355 2.8043 17.4282C2.84131 17.3294 3.11679 17.3448 3.30182 17.3158C3.44984 17.292 3.49912 17.2375 3.44156 17.2C3.40866 17.1779 3.33469 17.1523 3.27712 17.1523C3.14143 17.1523 3.00575 17.1677 2.87006 17.1762C2.73436 17.1847 2.57812 17.1796 2.4671 17.2085C2.3602 17.2358 2.29025 17.2937 2.22035 17.343C2.14223 17.3975 2.0395 17.4163 1.88325 17.4197C1.68177 17.4231 1.48031 17.4384 1.27883 17.4503C1.05679 17.3839 0.826476 17.3192 0.61266 17.2494C0.571541 17.2358 0.563274 17.1966 0.567385 17.1711C0.575609 17.1047 0.513948 17.0638 0.378257 17.0314C0.263126 17.0042 0.168545 16.965 0.0616374 16.931C0.143874 16.885 0.234367 16.8407 0.300156 16.7913C0.444071 16.6875 0.625012 16.6126 0.937511 16.616C1.06087 16.5496 1.15952 16.4678 1.31988 16.4218C1.47202 16.3776 1.73108 16.4218 1.84621 16.3214C1.90378 16.272 1.99017 16.2158 2.10119 16.1954C2.278 16.163 2.50826 16.1801 2.61106 16.0847C2.67273 16.0302 2.76316 15.9808 2.8824 15.9672C3.01809 15.9519 3.15786 15.9485 3.25654 15.9161C3.31 15.8991 3.36757 15.8718 3.36757 15.848C3.36757 15.8327 3.2854 15.8088 3.22783 15.7986C3.17438 15.7867 3.1044 15.7782 3.04272 15.7816C2.83713 15.7918 2.63565 15.8105 2.43006 15.8208C2.37249 15.8242 2.30673 15.8122 2.24505 15.802C2.06413 15.7748 2.07644 15.7407 2.22035 15.6794C2.36427 15.6198 2.46712 15.5432 2.58636 15.4734C2.71794 15.4615 2.88239 15.4666 2.97285 15.4342C3.12499 15.3814 3.23187 15.3048 3.35522 15.2384C3.49091 15.2282 3.63071 15.2248 3.75818 15.2061C3.81163 15.1992 3.83632 15.1618 3.88155 15.1396C3.96379 15.0971 4.03375 15.0358 4.14477 15.0153C4.32569 14.9847 4.54772 14.9966 4.65463 14.9029C4.71631 14.8485 4.81084 14.7906 4.92597 14.7872C5.2467 14.7804 5.38239 14.6867 5.54687 14.5981C5.67022 14.5317 5.93339 14.5658 6.06908 14.4994C6.15954 14.4568 6.22537 14.404 6.31583 14.3632C6.35283 14.3461 6.43093 14.3376 6.49261 14.3325C6.82978 14.307 7.17105 14.2882 7.50822 14.261C7.56167 14.2559 7.61106 14.2304 7.65218 14.2099C7.73852 14.1656 7.79192 14.1043 7.89883 14.0754C8.00573 14.0464 8.15785 14.0465 8.28943 14.0379C8.71295 14.0124 8.74588 14.0192 8.93913 13.8745C9.09538 13.757 9.47783 13.8404 9.6053 13.711C9.67931 13.6361 9.81494 13.5748 10.0575 13.5663C10.3988 13.5543 10.736 13.522 11.0773 13.4998C11.3815 13.4794 11.3774 13.4794 11.7064 13.321C11.8544 13.2495 12.0724 13.2598 12.2656 13.2461C12.4712 13.2325 12.6604 13.2121 12.759 13.1269C12.8577 13.0435 13.0386 13.0162 13.2483 13.0043C13.4416 12.9924 13.6596 13.0009 13.8117 12.9328C14.1818 12.7694 14.1777 12.7676 14.4367 12.7506C14.8438 12.7234 15.2508 12.6961 15.6579 12.6672C15.9293 12.6484 16.213 12.645 16.4679 12.6076C16.653 12.5803 16.7352 12.485 16.8544 12.4186C17.1916 12.393 17.5287 12.3675 17.8659 12.3436C18.3388 12.3096 18.8157 12.2789 19.2927 12.2466C19.4983 12.1819 19.5272 12.0389 19.8725 12.032C20.0781 12.0286 20.2796 12.0065 20.4852 11.9929C20.8265 11.969 21.1637 11.9384 21.5049 11.9265C21.764 11.918 21.8091 11.826 21.9448 11.7681C21.9901 11.7477 22.0312 11.7187 22.0847 11.7136C22.6192 11.6659 23.1702 11.6557 23.6924 11.5859C23.7458 11.5791 23.7952 11.5433 23.8075 11.5178C23.8157 11.5042 23.7458 11.4786 23.7006 11.4667C23.6471 11.4531 23.5773 11.4395 23.5197 11.4429C21.8215 11.557 20.1234 11.6728 18.4252 11.7868C18.1867 11.8039 18.1867 11.8022 17.6069 11.9895C17.5576 12.0048 17.4999 12.0218 17.4383 12.0269C17.1669 12.0474 16.8914 12.0593 16.6241 12.0848C16.4062 12.1053 16.2253 12.0848 16.0691 12.0235C15.9581 11.9792 15.8429 11.9656 15.7031 11.969C15.5468 11.9741 15.4441 11.9929 15.3536 12.0389C15.2344 12.1019 15.1727 12.1836 14.9219 12.2006C13.7665 12.2738 12.611 12.3556 11.4596 12.4339C11.2993 12.4101 11.2212 12.3743 11.2623 12.3317C11.287 12.3062 11.3363 12.2721 11.3857 12.2687C11.8585 12.233 12.3355 12.2023 12.8083 12.1683C12.8741 12.1632 12.9646 12.1666 13.0016 12.1495C13.1825 12.0729 13.2484 11.9486 13.5896 11.9401C13.787 11.935 13.9885 11.9094 14.1776 11.8856C14.2311 11.8788 14.2804 11.843 14.2928 11.8175C14.2969 11.8039 14.2311 11.7783 14.1817 11.7664C14.0008 11.717 13.7911 11.7766 13.6102 11.7426C13.5485 11.7307 13.4621 11.7136 13.4498 11.6932C13.4416 11.6745 13.5115 11.6438 13.5608 11.6251C13.6061 11.608 13.6677 11.5927 13.7294 11.5876C14.2721 11.5484 14.815 11.5076 15.3578 11.4769C15.5798 11.465 15.736 11.4224 15.8347 11.3441C15.9087 11.2862 15.9992 11.2556 16.139 11.2471C17.0888 11.1841 18.0386 11.1142 18.9926 11.0563C19.231 11.0427 19.3544 10.9865 19.4531 10.9133C19.5313 10.8554 19.6217 10.835 19.7739 10.8248C21.1349 10.7362 22.4876 10.6375 23.8487 10.5523C24.0995 10.537 24.1735 10.4638 24.301 10.4008C24.3462 10.3786 24.3749 10.3514 24.4325 10.3378C24.4901 10.3241 24.5641 10.3258 24.634 10.3224C25.7195 10.2492 26.8051 10.1709 27.8947 10.1028C28.1497 10.0875 28.1989 10.0023 28.3305 9.94271C28.3758 9.92398 28.4169 9.89334 28.4704 9.88823C29.2845 9.83033 30.0986 9.77585 30.9128 9.71965C31.4555 9.68219 31.9983 9.64473 32.541 9.60897C32.8083 9.59194 32.8083 9.59023 33.1702 9.42846C33.2113 9.40973 33.2689 9.38759 33.3224 9.38248C34.8849 9.2735 36.4432 9.16965 38.0057 9.06238C38.1373 9.05386 38.2318 9.01468 38.2976 8.95678C38.3634 8.89889 38.4581 8.85973 38.5855 8.85121C39.8067 8.76607 41.0279 8.68264 42.2533 8.60261C42.4753 8.58899 42.6315 8.54812 42.7302 8.47149C42.8042 8.4136 42.8947 8.38296 43.0345 8.37444C44.2557 8.29271 45.477 8.20585 46.7023 8.12752C46.9367 8.1122 47.0518 8.05431 47.1669 7.9862C47.208 7.96236 47.2409 7.92319 47.2903 7.91979C47.8988 7.87211 48.5032 7.82273 49.1159 7.79037C49.3708 7.77675 49.4572 7.70523 49.56 7.63712C49.6422 7.58263 49.7368 7.5639 49.8931 7.55709C50.2344 7.54177 50.5715 7.51283 50.9046 7.48388C50.9539 7.47878 51.0156 7.44131 51.0197 7.41747C51.0279 7.3732 50.9333 7.34255 50.7771 7.32722C49.1488 7.4379 47.5164 7.54857 45.8882 7.65926C45.6209 7.67799 45.6209 7.678 45.259 7.83976C45.2179 7.85849 45.1603 7.88063 45.1027 7.88574C43.5402 7.99302 41.9819 8.09859 40.4194 8.20587C40.2878 8.21438 40.1933 8.25354 40.1275 8.31144C40.0617 8.36933 39.967 8.4085 39.8396 8.41701C38.347 8.51918 36.8544 8.62306 35.3577 8.72011C35.1357 8.73374 34.9794 8.77288 34.8808 8.85121C34.8067 8.90911 34.7163 8.93977 34.5765 8.94828C33.1497 9.04364 31.7269 9.14409 30.296 9.23605C30.1521 9.24456 30.0452 9.19518 30.0535 9.1492C30.0576 9.12536 30.1192 9.08622 30.1685 9.08281C30.9127 9.02662 31.653 8.96872 32.4013 8.92615C32.6521 8.91252 32.7261 8.8376 32.8535 8.77459C32.8947 8.75246 32.9276 8.72351 32.981 8.71159C33.0386 8.69797 33.1126 8.69968 33.1825 8.69627C34.9465 8.57537 36.7105 8.45278 38.4786 8.33869C38.7336 8.32166 38.7828 8.23821 38.9144 8.17862C38.9596 8.15818 39.0008 8.12754 39.0542 8.12414C39.597 8.08327 40.1397 8.04751 40.6825 8.01175C41.6323 7.94704 42.5821 7.88233 43.5361 7.81763C43.8116 7.79889 43.8116 7.79889 44.1652 7.63882C44.2063 7.62009 44.264 7.59627 44.3174 7.59287C46.8297 7.42088 49.3421 7.2489 51.8544 7.07862C51.986 7.0701 52.0806 7.03094 52.1464 6.97305C52.2122 6.91685 52.3067 6.87599 52.4342 6.86577C55.8305 6.63419 59.2228 6.4026 62.6192 6.17443C62.8412 6.1591 62.9975 6.12334 63.0961 6.04331C63.166 5.98541 63.2606 5.95477 63.4004 5.94455C67.134 5.69084 70.8675 5.43712 74.6052 5.1817C77.1175 5.01142 79.6299 4.83774 82.1422 4.67087C82.3725 4.65554 82.4958 4.60274 82.6109 4.53293C82.6479 4.50909 82.6849 4.46992 82.7343 4.46652C83.2729 4.42395 83.8116 4.38479 84.3502 4.34563C84.5188 4.3916 84.6874 4.43588 84.856 4.48186C84.9834 4.41715 85.1068 4.35074 85.2343 4.28603C86.0485 4.23665 86.8502 4.16002 87.6726 4.13619C87.7261 4.13448 87.7836 4.16684 87.8412 4.18387C88.2236 4.29115 88.4415 4.28263 88.6841 4.13959C88.7704 4.08851 88.8444 4.04254 88.976 4.03402C89.3831 4.00337 89.7944 3.98294 90.1973 3.94718C90.4153 3.92845 90.5961 3.94547 90.7524 4.00677C90.8634 4.05104 90.9786 4.06979 91.1143 4.05957C91.8626 4.00848 92.6068 3.9591 93.3552 3.90461C93.4086 3.9012 93.4579 3.87225 93.499 3.85181C93.5854 3.80754 93.6594 3.75987 93.7417 3.7139C93.8527 3.74284 93.9761 3.76498 94.0665 3.80244C94.1817 3.84672 94.2885 3.84671 94.4448 3.83479C97.43 3.62875 100.419 3.42782 103.405 3.22008C103.659 3.20305 103.77 3.27458 103.943 3.31204C104.001 3.32566 104.058 3.34268 104.12 3.34609C104.186 3.34949 104.256 3.33928 104.321 3.33418C106.562 3.18092 108.803 3.02937 111.044 2.87611C111.34 2.85568 111.34 2.85568 111.78 2.96125C111.834 2.97488 111.904 2.9902 111.961 2.9851C112.981 2.91869 114.001 2.84718 115.016 2.77906C115.148 2.77055 115.259 2.79779 115.378 2.83695C115.613 2.91358 115.629 2.91359 115.802 2.8012C115.884 2.74841 115.97 2.71605 116.106 2.70072C116.254 2.68369 116.373 2.68882 116.488 2.71947C116.653 2.76204 116.772 2.83355 117.023 2.81482C118.108 2.73478 119.198 2.66838 120.28 2.58665C120.526 2.56792 120.658 2.62581 120.822 2.66838C120.88 2.6837 120.933 2.70754 120.995 2.71265C121.057 2.71776 121.131 2.70583 121.196 2.70072C122.553 2.60877 123.914 2.51854 125.267 2.41978C125.522 2.40105 125.633 2.47425 125.806 2.51171C125.863 2.52534 125.929 2.54919 125.983 2.54578C126.797 2.493 127.615 2.43679 128.429 2.3806C128.721 2.36016 128.721 2.36186 129.165 2.46573C129.219 2.47936 129.289 2.49298 129.346 2.48958C130.296 2.42657 131.25 2.36187 132.2 2.29716C132.492 2.27673 132.492 2.27673 133.335 2.36528C133.396 2.37209 133.462 2.38232 133.524 2.37891C134.609 2.30569 135.699 2.23416 136.784 2.15584C137.002 2.14051 137.183 2.15413 137.34 2.21543C137.451 2.2597 137.566 2.27844 137.701 2.26823C138.923 2.18479 140.148 2.10476 141.365 2.01622C141.599 1.99919 141.751 2.03663 141.916 2.08602C141.969 2.10304 142.023 2.12689 142.085 2.1337C142.146 2.14051 142.216 2.13369 142.282 2.12858C143.503 2.04515 144.728 1.96682 145.946 1.87657C146.192 1.85784 146.324 1.91574 146.488 1.95831C146.546 1.97363 146.608 2.00428 146.657 2.00258C147.134 1.97363 147.611 1.9481 148.084 1.90553C148.339 1.88169 148.45 1.96001 148.622 1.99747C148.68 2.00939 148.746 2.03494 148.799 2.03153C149.819 1.96513 150.839 1.89532 151.854 1.8238C151.998 1.81358 152.105 1.82889 152.22 1.87317C152.372 1.93276 152.549 1.9566 152.771 1.93787C153.244 1.89871 153.721 1.87147 154.198 1.83912C154.478 1.82039 154.478 1.82039 155.333 1.90894C155.395 1.91575 155.46 1.92596 155.522 1.92255C156.336 1.86806 157.154 1.81528 157.964 1.75568C158.182 1.73866 158.363 1.75398 158.52 1.81528C158.631 1.85955 158.742 1.87829 158.881 1.86807C159.63 1.81699 160.374 1.7659 161.122 1.71482C161.394 1.69609 161.665 1.66373 161.937 1.66373C162.134 1.66543 162.278 1.74716 162.455 1.78803C162.504 1.79995 162.586 1.78634 162.652 1.78293C163.602 1.71823 164.556 1.65862 165.501 1.5854C165.748 1.56667 165.88 1.62456 166.044 1.66713C166.102 1.68246 166.163 1.71311 166.213 1.71141C166.554 1.69268 166.891 1.66713 167.233 1.645C167.64 1.61775 168.051 1.59732 168.454 1.55986C168.783 1.52921 168.906 1.67735 169.169 1.68245C169.371 1.68756 169.576 1.65862 169.778 1.645C170.185 1.61775 170.592 1.58711 170.999 1.56327C171.143 1.55475 171.254 1.5275 171.299 1.4662C171.307 1.45428 171.238 1.42874 171.192 1.41342C170.645 1.23973 170.645 1.23973 170.094 1.27719C169.753 1.30103 169.416 1.32487 169.075 1.3453C169.017 1.34871 168.951 1.33509 168.894 1.32487C168.729 1.29592 168.746 1.26187 168.886 1.20057C169.025 1.13927 169.132 1.06435 169.251 0.994539C169.42 1.03881 169.585 1.08307 169.753 1.12734C169.889 1.11883 170.025 1.10863 170.16 1.10011C170.839 1.05584 171.517 1.00986 172.196 0.968993C172.245 0.965587 172.307 0.999648 172.364 1.01668C172.529 1.06606 172.677 1.10862 172.915 1.08988C173.524 1.0405 174.136 1.00475 174.745 0.962175C175.012 0.943444 175.012 0.943446 175.481 1.04902C175.534 1.06094 175.604 1.07456 175.662 1.07116C176.274 1.03199 176.883 0.989427 177.496 0.94856C177.627 0.940046 177.755 0.962182 177.849 1.01156C177.886 1.032 177.878 1.06605 178.034 1.3453C178.52 1.57178 178.853 1.54795 179.19 1.52751C179.334 1.519 179.461 1.51048 179.556 1.47642C179.605 1.45769 179.667 1.43044 179.667 1.40831C179.667 1.39128 179.576 1.36403 179.519 1.36062C179.112 1.32657 178.725 1.39809 178.326 1.41342C178.141 1.42023 177.981 1.36063 177.948 1.26357C177.94 1.23633 177.927 1.20738 177.915 1.18014C177.903 1.15289 177.895 1.12395 177.882 1.0967C177.722 1.08819 177.627 1.11883 177.557 1.17673C177.5 1.22441 177.418 1.2789 177.307 1.30444C177.196 1.33168 177.043 1.32658 176.908 1.3351C176.776 1.34361 176.632 1.36575 176.509 1.35383C176.386 1.3402 176.287 1.29081 176.172 1.26016C176.118 1.24484 176.052 1.22271 175.999 1.22612C175.526 1.25506 175.057 1.284 174.589 1.32146C174.342 1.3419 174.219 1.27039 174.062 1.22612C173.939 1.19206 173.816 1.20056 173.795 1.27889C173.742 1.4662 173.931 1.54452 174.35 1.50877C174.696 1.47812 175.008 1.47302 175.279 1.58881C175.316 1.60414 175.403 1.61095 175.456 1.60754C175.793 1.58711 176.126 1.56156 176.464 1.54113C176.525 1.53772 176.591 1.54452 176.649 1.55134C177.488 1.64329 177.488 1.645 177.771 1.62456C177.907 1.61435 178.038 1.60583 178.026 1.34701C178.285 1.06945 178.696 1.05073 179.095 1.00986C179.354 0.984317 179.465 1.05924 179.634 1.09841C179.691 1.11203 179.753 1.13927 179.807 1.13586C180.691 1.07967 181.571 1.02007 182.45 0.957062C182.599 0.946845 182.705 0.957064 182.821 1.00134C182.969 1.05753 183.133 1.09329 183.367 1.07286C183.836 1.03199 184.313 1.00646 184.79 0.972402C185.033 0.955374 185.033 0.955357 185.522 1.06093C185.575 1.07285 185.645 1.08647 185.703 1.08307C186.18 1.05412 186.653 1.01837 187.126 0.987721C187.257 0.979207 187.376 1.00304 187.479 1.04902C187.582 1.09499 187.705 1.11883 187.833 1.11032C188.31 1.07967 188.783 1.04562 189.256 1.01497C189.313 1.01157 189.383 1.02348 189.436 1.0354C189.938 1.14098 189.938 1.14096 190.168 1.12393C190.506 1.09839 190.851 1.08648 191.184 1.05243C191.509 1.01837 191.677 1.11713 191.899 1.17162C192.508 1.13245 193.121 1.10011 193.725 1.05243C193.972 1.03199 194.103 1.08818 194.268 1.13245C194.325 1.14778 194.383 1.18014 194.436 1.17843C194.642 1.17162 194.844 1.15289 195.045 1.13927C195.247 1.12565 195.452 1.11203 195.654 1.09841C195.884 1.14779 196.036 1.26358 196.365 1.22441C196.562 1.20057 196.772 1.19546 196.974 1.18184C197.175 1.16822 197.381 1.1546 197.582 1.14098C197.718 1.13246 197.858 1.12735 197.989 1.11202C198.232 1.08648 198.351 1.16993 198.524 1.20739C198.581 1.21931 198.647 1.23973 198.7 1.23632C199.108 1.21248 199.519 1.19205 199.918 1.15289C200.226 1.12224 200.436 1.17333 200.654 1.24484C200.699 1.26017 200.777 1.26868 200.834 1.26528C201.311 1.23633 201.784 1.20056 202.257 1.16991C202.385 1.1614 202.508 1.18864 202.611 1.23291C202.718 1.27889 202.837 1.30104 202.969 1.29253C203.441 1.26188 203.918 1.22781 204.391 1.19716C204.449 1.19376 204.519 1.20738 204.572 1.221C205.033 1.32658 205.033 1.32828 205.304 1.30785C205.37 1.30274 205.44 1.29932 205.506 1.29421C205.843 1.27037 206.192 1.26187 206.521 1.221C206.899 1.17503 207.175 1.23293 207.442 1.32998C207.779 1.30955 208.125 1.29763 208.454 1.26357C208.7 1.23803 208.832 1.30273 208.997 1.3453C209.054 1.36063 209.116 1.39128 209.165 1.38787C209.642 1.35893 210.119 1.33339 210.588 1.29082C210.843 1.26698 210.954 1.3436 211.126 1.38276C211.184 1.39638 211.246 1.42023 211.299 1.41683C211.57 1.40321 211.842 1.38276 212.113 1.36403C212.43 1.3419 212.43 1.3436 212.849 1.44747C213.047 1.49685 213.244 1.45768 213.437 1.44576C213.643 1.43214 213.836 1.42193 214.001 1.49174C214.103 1.53601 214.227 1.56326 214.354 1.55645C214.626 1.54112 214.901 1.52581 215.168 1.50026C215.382 1.47983 215.567 1.49345 215.723 1.55645C215.834 1.60072 215.95 1.62287 216.085 1.61265C216.694 1.57179 217.307 1.5292 217.915 1.49004C217.969 1.48663 218.043 1.50196 218.092 1.51729C218.207 1.54794 218.318 1.58199 218.429 1.61604C218.696 1.60072 218.972 1.59392 219.235 1.57008C219.515 1.54625 219.77 1.53773 219.987 1.63138C220.033 1.65182 220.098 1.68075 220.152 1.67904C220.357 1.67223 220.559 1.65521 220.76 1.64159C220.962 1.62797 221.168 1.61435 221.369 1.60072C221.603 1.64329 221.751 1.76589 222.08 1.72673C222.278 1.70289 222.487 1.69778 222.689 1.68416C222.89 1.67054 223.096 1.65521 223.298 1.64329C223.363 1.63989 223.437 1.63137 223.495 1.63818C223.557 1.64499 223.61 1.66883 223.663 1.68586C223.828 1.73524 223.98 1.78463 224.214 1.75568C224.412 1.73184 224.622 1.72673 224.823 1.71141C225.098 1.69268 225.098 1.69268 225.555 1.79996C225.74 1.84423 225.95 1.78634 226.126 1.8238C226.246 1.84934 226.348 1.8919 226.464 1.92085C226.513 1.93277 226.591 1.93787 226.649 1.93446C226.92 1.91914 227.195 1.90382 227.463 1.87828C227.681 1.85785 227.862 1.87828 228.014 1.93958C228.125 1.98385 228.236 2.00259 228.376 1.99237C229.054 1.9447 229.733 1.90382 230.407 1.85103C230.637 1.8323 230.822 1.86125 230.95 1.92255C231.168 2.02813 231.476 1.90383 231.702 1.98897C231.842 2.04175 231.982 2.10306 232.237 2.07751C232.705 2.03324 233.182 2.00939 233.655 1.97874C233.824 2.02471 233.992 2.0707 234.165 2.11667C234.436 2.09794 234.708 2.0792 234.979 2.06217C235.181 2.04855 235.386 2.03323 235.588 2.02131C235.654 2.0179 235.723 2.01109 235.785 2.0196C235.847 2.02812 235.896 2.05026 235.954 2.06729C236.237 2.15072 236.237 2.15243 236.706 2.11838C236.908 2.10305 237.101 2.09284 237.27 2.16095C237.426 2.22395 237.611 2.23586 237.825 2.21713C238.228 2.18308 238.635 2.15754 239.046 2.1337C239.173 2.12518 239.293 2.15413 239.399 2.19841C239.56 2.26822 239.757 2.26141 239.959 2.24268C240.226 2.21884 240.489 2.19501 240.715 2.29036C240.76 2.3108 240.83 2.33973 240.88 2.33803C241.217 2.3244 241.558 2.31419 241.887 2.28184C242.216 2.24949 242.376 2.35506 242.603 2.40614C242.94 2.384 243.281 2.36187 243.618 2.33973C243.684 2.33462 243.762 2.31931 243.82 2.32782C244.062 2.36358 244.202 2.49128 244.535 2.45212C244.728 2.42998 244.938 2.42318 245.14 2.41807C245.193 2.41637 245.263 2.4453 245.3 2.46744C245.321 2.47936 245.3 2.51171 245.275 2.52874C245.201 2.57642 245.111 2.6207 245.045 2.67008C245.037 2.67689 245.115 2.70753 245.16 2.72115C245.271 2.7518 245.399 2.74671 245.547 2.73309C245.674 2.72117 245.806 2.745 245.896 2.79609C245.933 2.81652 245.921 2.85057 245.843 2.96296C245.843 3.0464 245.929 3.00893 245.958 2.95444C246.003 2.87611 245.917 2.85057 245.752 2.89314C245.637 2.92379 245.58 2.96807 245.608 3.00382C245.625 3.02255 245.703 3.0464 245.843 2.96296C246.204 2.86079 246.476 2.84207 246.747 2.82334C246.817 2.81823 246.899 2.80119 246.949 2.81141C247.126 2.85227 247.29 2.90166 247.463 2.94764C247.66 2.93742 247.845 2.91187 248.038 2.97828C248.31 3.07193 248.322 3.06342 248.585 3.04469C248.721 3.03447 248.857 3.02597 248.992 3.01746C249.128 3.00895 249.235 3.03448 249.354 3.07364C249.597 3.15368 249.617 3.15367 249.778 3.04469C249.872 2.97828 249.938 2.95615 250.057 2.9868C250.452 3.09067 250.456 3.09748 250.793 3.06683C251.073 3.04128 251.336 3.03447 251.542 3.13153C251.682 3.19964 251.727 3.18432 251.838 3.1128C252.134 2.92379 252.269 2.92719 252.825 3.06342C253.084 3.12812 253.351 3.05832 253.614 3.0498C253.836 3.04299 253.992 3.08385 254.009 3.19113C254.021 3.25754 254.058 3.30522 254.206 3.32736C254.264 3.33587 254.334 3.34779 254.391 3.34438C254.732 3.32395 255.07 3.30011 255.411 3.27627C255.584 3.26435 255.678 3.18433 255.645 3.07876C255.608 2.96637 255.674 2.92549 255.921 2.89314C256.069 2.87441 256.188 2.87783 256.307 2.90848C256.439 2.94253 256.402 2.97318 256.287 3.03448C256.011 3.18433 256.044 3.27626 256.398 3.38013C256.521 3.41589 256.62 3.44826 256.649 3.50105C256.665 3.52829 256.649 3.56405 256.686 3.58448C256.887 3.69857 257.167 3.7718 257.479 3.82629C257.779 3.78031 257.985 3.85692 258.215 3.91822C258.396 3.9659 258.61 3.92505 258.803 3.90802C259.021 3.88929 259.202 3.9029 259.358 3.96591C259.469 4.01018 259.584 4.03061 259.72 4.02209C259.991 4.00336 260.267 3.99145 260.534 3.9642C260.765 3.94036 260.937 3.97442 261.081 4.03232C261.262 4.10554 261.464 4.05615 261.653 4.06637C261.908 4.07828 262.035 4.22983 262.368 4.18896C262.566 4.16512 262.771 4.15661 262.977 4.1498C263.03 4.1481 263.096 4.17705 263.141 4.19748C263.359 4.29114 263.614 4.28603 263.894 4.25878C264.087 4.24005 264.276 4.22303 264.465 4.28774C264.778 4.39672 265.123 4.49208 265.452 4.59254C265.497 4.67087 265.464 4.76281 265.699 4.80878C265.822 4.83262 265.937 4.86839 266.032 4.90756C266.147 4.95353 266.254 4.96545 266.402 4.95354C266.669 4.9297 266.949 4.92457 267.212 4.89392C267.455 4.86668 267.607 4.92289 267.755 4.97567C267.874 5.01824 267.985 5.03867 268.129 5.00802C268.277 4.97907 268.384 4.99779 268.503 5.04377C268.672 5.10677 268.684 5.09997 269.243 5.1187C269.301 5.1204 269.371 5.14593 269.404 5.16807C269.42 5.17999 269.383 5.21406 269.354 5.23109C269.317 5.25152 269.26 5.27535 269.206 5.28046C268.598 5.32473 267.985 5.3639 267.376 5.40817C267.315 5.41328 267.249 5.42521 267.204 5.44224C267.154 5.46097 267.093 5.48649 267.093 5.51033C267.093 5.52736 267.175 5.5478 267.232 5.55972C267.413 5.59888 267.627 5.53929 267.804 5.58356C267.923 5.61251 268.022 5.65337 268.141 5.68061C268.19 5.69253 268.269 5.69083 268.33 5.68743C268.536 5.67551 268.737 5.65848 268.943 5.64827C269.001 5.64656 269.066 5.6636 269.12 5.67722C269.515 5.77939 269.515 5.77939 269.856 5.75725C269.992 5.74873 270.135 5.72319 270.263 5.73341C270.386 5.74362 270.493 5.7896 270.604 5.81855C270.835 5.87985 271.052 5.93944 271.069 6.07226C271.077 6.12335 271.213 6.16761 271.348 6.17102C271.48 6.17442 271.62 6.15571 271.755 6.14549C272.076 6.12506 272.076 6.12506 272.492 6.22893C272.607 6.25787 272.73 6.26127 272.878 6.24425C272.936 6.23743 273.006 6.24425 273.067 6.25277C273.269 6.27831 273.269 6.31065 273.137 6.37195C272.952 6.4622 272.968 6.47072 273.487 6.54735C273.684 6.5763 273.836 6.63079 274.001 6.67847C274.268 6.75509 274.264 6.75508 274.087 6.85554C274.046 6.87768 274.009 6.90152 273.968 6.92536C273.848 6.99177 273.754 7.06329 273.507 7.0701C273.236 7.07691 272.964 7.10416 272.693 7.12289C272.43 7.14162 272.36 7.18248 272.385 7.29826C272.413 7.43789 272.467 7.45322 272.94 7.45152C273.075 7.45152 273.195 7.46514 273.297 7.51111C273.248 7.5656 273.158 7.60817 273.026 7.61839C272.689 7.64393 272.348 7.66608 272.01 7.68821C271.739 7.70694 271.468 7.72567 271.196 7.7444C271.028 7.75632 270.921 7.84487 270.966 7.94363C270.991 7.99982 271.011 8.05601 271.032 8.11221C271.077 8.22459 271.163 8.25355 271.439 8.24844C271.509 8.24673 271.575 8.2331 271.64 8.23651C271.908 8.24843 272.035 8.38975 272.356 8.36081C272.623 8.33697 272.903 8.33186 273.166 8.30121C273.409 8.27397 273.544 8.33528 273.713 8.38126C273.77 8.39659 273.832 8.42892 273.881 8.42722C274.223 8.40849 274.564 8.38977 274.897 8.35742C275.053 8.3438 275.148 8.35401 275.271 8.39488C275.567 8.49364 275.575 8.48853 276.015 8.45788C276.336 8.43404 276.34 8.43744 276.751 8.54131C276.867 8.57026 276.99 8.57025 277.138 8.55663C277.331 8.5396 277.533 8.51236 277.734 8.5379C277.796 8.54472 277.874 8.56516 277.895 8.58729C277.907 8.60262 277.849 8.64008 277.8 8.652C277.438 8.74054 277.015 8.72522 276.62 8.76098C276.496 8.7712 276.373 8.73884 276.27 8.69286C276.163 8.64689 276.048 8.62817 275.908 8.63668C275.637 8.65541 275.362 8.66732 275.094 8.69457C274.864 8.71841 274.704 8.67924 274.543 8.62645C274.49 8.60942 274.428 8.57707 274.375 8.57877C273.766 8.61283 273.154 8.64689 272.549 8.69457C272.307 8.715 272.167 8.66052 272.002 8.61454C271.945 8.59922 271.887 8.56686 271.834 8.56856C271.628 8.57537 271.427 8.5941 271.221 8.60772C270.473 8.65881 269.728 8.70989 268.98 8.75757C268.931 8.76098 268.869 8.72521 268.811 8.70989C268.7 8.67924 268.585 8.65029 268.47 8.62134C268.265 8.63496 268.063 8.65199 267.857 8.6622C267.709 8.66902 267.578 8.69286 267.557 8.75757C267.545 8.80014 267.681 8.8393 267.825 8.83589C267.964 8.83249 268.104 8.81205 268.219 8.83419C268.791 8.94317 268.791 8.94487 269.149 8.92274C269.461 8.9023 269.428 8.88527 269.704 8.97892C269.823 9.01979 269.93 9.04364 270.066 9.03342C270.403 9.00958 270.744 8.98574 271.085 8.96531C271.139 8.9619 271.209 8.97894 271.262 8.99256C271.665 9.09473 271.665 9.09813 271.998 9.07258C272.434 9.04193 272.45 9.03342 272.742 9.13729C272.944 9.20881 273.129 9.15942 273.322 9.15602C273.544 9.22243 273.787 9.28203 273.988 9.35696C274.227 9.4455 274.478 9.43016 274.749 9.40462C274.95 9.38589 275.148 9.37908 275.312 9.44889C275.469 9.5136 275.658 9.52042 275.871 9.5034C276.065 9.48807 276.262 9.45571 276.464 9.49317C276.517 9.50339 276.599 9.52894 276.595 9.54426C276.591 9.5681 276.538 9.60216 276.484 9.61238C276.106 9.68219 275.691 9.68048 275.292 9.71284C275.238 9.71794 275.168 9.69921 275.115 9.68559C275 9.65493 274.889 9.61918 274.778 9.58683C274.576 9.59705 274.371 9.60044 274.173 9.62088C274.021 9.6362 273.906 9.63452 273.795 9.59365C273.692 9.55619 273.581 9.5102 273.458 9.49828C273.334 9.48636 273.191 9.51191 273.055 9.52212C272.919 9.53234 272.763 9.52722 272.656 9.55447C272.549 9.58171 272.483 9.64132 272.413 9.68899C272.335 9.74178 272.228 9.75882 272.072 9.76393C271.928 9.76904 271.813 9.76222 271.706 9.71454C271.661 9.69411 271.599 9.67877 271.538 9.66515C271.48 9.65323 271.414 9.6345 271.361 9.6379C270.748 9.67707 270.14 9.71965 269.527 9.76052C269.223 9.78095 269.227 9.78094 268.594 9.68047C268.536 9.67196 268.466 9.66004 268.408 9.66345C268.067 9.68388 267.73 9.70773 267.389 9.73156C267.043 9.7554 267.047 9.752 266.459 9.64472C266.353 9.62429 266.196 9.65154 266.069 9.64813C265.802 9.63962 265.67 9.49658 265.358 9.52383C265.09 9.54767 264.811 9.55277 264.543 9.58342C264.301 9.61067 264.161 9.55108 263.996 9.5051C263.939 9.48977 263.877 9.45572 263.828 9.45912C263.215 9.49658 262.607 9.53915 261.792 9.54426C261.591 9.54426 261.681 9.58002 261.813 9.59194C262.002 9.61067 262.064 9.57492 261.961 9.5068C261.887 9.45913 261.78 9.43527 261.694 9.44719C261.649 9.454 261.591 9.48637 261.792 9.54426C262.006 9.60897 261.994 9.64472 262.031 9.66515C262.121 9.71453 262.249 9.73497 262.381 9.72816C262.586 9.71624 262.788 9.69921 262.993 9.68899C263.051 9.68559 263.121 9.69751 263.174 9.71113C263.626 9.8167 263.631 9.82352 264.112 9.78266C264.264 9.77074 264.375 9.77074 264.494 9.80309C264.658 9.84736 264.778 9.92227 265.029 9.89843C265.362 9.86608 265.703 9.84737 266.044 9.82864C266.098 9.82523 266.155 9.85588 266.217 9.8695C266.385 9.91037 266.509 9.98699 266.76 9.95464C266.953 9.9291 267.163 9.92227 267.368 9.91716C267.422 9.91546 267.504 9.94271 267.529 9.96485C267.578 10.004 267.516 10.05 267.376 10.0823C267.319 10.096 267.241 10.0926 267.175 10.0977C266.904 10.1164 266.632 10.1368 266.361 10.1521C266.217 10.1607 266.081 10.1862 266.065 10.2492C266.052 10.2918 266.2 10.3292 266.34 10.3258C266.546 10.3207 266.751 10.3071 266.949 10.285C267.298 10.2475 267.603 10.2577 267.886 10.365C268.088 10.4399 268.075 10.4127 268.289 10.6341C268.343 10.6902 268.503 10.6953 268.643 10.6919C268.98 10.6834 269.136 10.709 269.107 10.7618C269.07 10.8265 268.951 10.8469 268.799 10.8554C268.528 10.869 268.256 10.8912 267.985 10.9099C267.919 10.915 267.845 10.9252 267.783 10.9218C267.722 10.9184 267.664 10.898 267.611 10.8827C267.496 10.8503 267.397 10.8009 267.274 10.789C267.15 10.7771 267.006 10.8026 266.871 10.8128C266.735 10.8213 266.591 10.8469 266.468 10.835C266.344 10.8231 266.242 10.772 266.13 10.7413C266.077 10.726 266.011 10.7022 265.958 10.7039C265.686 10.7175 265.415 10.7396 265.144 10.7566C264.811 10.7788 264.811 10.7788 264.408 10.6732C264.293 10.6426 264.173 10.6443 264.021 10.6579C263.692 10.6851 263.688 10.68 263.088 10.5813C263.03 10.571 262.96 10.5591 262.903 10.5642C262.29 10.6034 261.681 10.646 261.073 10.6868C260.551 10.7226 260.551 10.7226 260.263 10.8929C260.049 11.0189 260.045 11.0189 260.255 11.0768C260.423 11.1245 260.575 11.1943 260.76 11.2198C260.933 11.2436 261.147 11.167 261.336 11.2454C261.431 11.2845 261.554 11.3271 261.673 11.3339C261.862 11.3424 262.064 11.293 262.245 11.3679C262.335 11.4054 262.471 11.4446 262.586 11.4463C262.788 11.4497 262.993 11.4224 263.195 11.4105C263.256 11.4071 263.326 11.4071 263.384 11.4156C263.445 11.4258 263.499 11.4463 263.552 11.4633C263.717 11.5212 263.894 11.5484 264.108 11.5195C264.457 11.4718 264.77 11.4957 265.041 11.6046C265.078 11.62 265.168 11.6217 265.226 11.6149C265.374 11.5978 265.501 11.5961 265.612 11.6285C265.658 11.6421 265.723 11.6659 265.715 11.6813C265.703 11.7068 265.654 11.7409 265.6 11.7494C265.214 11.8073 264.798 11.8141 264.399 11.8447C264.346 11.8481 264.28 11.826 264.227 11.8107C264.112 11.78 264.013 11.7289 263.89 11.717C263.766 11.7051 263.622 11.7272 263.487 11.7358C263.351 11.7443 263.207 11.7698 263.084 11.7596C262.96 11.7477 262.845 11.7051 262.746 11.6676C262.631 11.6251 262.52 11.62 262.368 11.637C262.171 11.6591 261.965 11.6625 261.764 11.6745C261.653 11.6421 261.542 11.6063 261.427 11.5757C261.373 11.5604 261.307 11.5416 261.25 11.5433C260.978 11.557 260.707 11.5774 260.436 11.5961C260.164 11.6148 260.164 11.6149 259.704 11.5093C259.65 11.4974 259.58 11.4837 259.523 11.4872C259.181 11.5076 258.844 11.5331 258.503 11.5535C258.371 11.5621 258.252 11.5382 258.145 11.4922C258.043 11.4463 257.919 11.4207 257.792 11.4292C257.249 11.465 256.706 11.4991 256.163 11.5416C255.945 11.5587 255.76 11.5433 255.612 11.482C255.44 11.4122 255.246 11.4293 255.045 11.4429C254.589 11.4769 254.584 11.4752 254.293 11.3884C254.235 11.3714 254.177 11.339 254.124 11.3407C253.651 11.3662 253.174 11.3901 252.705 11.4309C252.459 11.4531 252.327 11.3935 252.163 11.3492C252.105 11.3339 252.043 11.3015 251.994 11.3049C251.653 11.3237 251.311 11.3407 250.978 11.3748C250.645 11.4088 250.518 11.2505 250.267 11.2522C249.926 11.2539 249.589 11.293 249.251 11.3169C248.98 11.3356 248.709 11.3543 248.437 11.3731C248.166 11.3918 247.895 11.4071 247.623 11.4292C247.479 11.4412 247.372 11.4258 247.253 11.3833C247.101 11.3271 246.92 11.2828 246.756 11.2317C246.505 11.1585 246.505 11.1585 246.2 11.1789C246.135 11.184 246.065 11.1874 245.999 11.1926C245.501 11.23 245.501 11.2266 244.868 11.1193C244.839 11.1142 244.765 11.133 244.737 11.1466C244.65 11.1909 244.572 11.2385 244.494 11.2845C244.383 11.2573 244.247 11.2419 244.173 11.2028C243.964 11.0921 243.635 11.2436 243.421 11.1347C243.343 11.0938 243.207 11.058 243.084 11.0478C242.956 11.0376 242.812 11.0614 242.681 11.0717C242.339 11.0972 242.339 11.0955 242.047 11.2471C241.899 11.322 241.686 11.3083 241.492 11.3254C241.291 11.3441 241.098 11.3543 240.929 11.2845C240.777 11.2215 240.592 11.2062 240.374 11.2266C240.107 11.2522 239.831 11.2675 239.56 11.2828C239.502 11.2862 239.432 11.2777 239.375 11.2675C238.746 11.167 238.746 11.1653 238.441 11.1875C238.306 11.1977 238.166 11.2011 238.034 11.2164C237.812 11.2436 237.644 11.2079 237.483 11.1534C237.43 11.1364 237.368 11.104 237.315 11.1057C237.043 11.1142 236.776 11.1296 236.509 11.1449C236.303 11.1568 236.098 11.1636 235.9 11.1875C235.571 11.2266 235.411 11.1159 235.185 11.0648C234.848 11.087 234.506 11.1023 234.169 11.133C234.013 11.1466 233.91 11.1415 233.791 11.1006C233.639 11.0495 233.499 10.9916 233.252 11.0172C232.923 11.0512 232.578 11.0632 232.241 11.0836C232.015 11.0308 231.85 10.9235 231.525 10.9627C231.328 10.9865 231.118 10.9916 230.917 11.0053C230.645 11.024 230.374 11.041 230.103 11.0615C229.811 11.0819 229.815 11.0768 229.367 10.9763C229.108 10.9167 228.84 10.9831 228.577 10.9933C228.371 11.0019 228.269 11.0802 228.318 11.1806C228.367 11.2811 228.256 11.3594 228.067 11.3731C227.594 11.4054 227.117 11.4395 226.645 11.4684C226.587 11.4718 226.517 11.4599 226.464 11.448C225.958 11.3407 225.958 11.3424 225.732 11.3577C225.395 11.3833 225.049 11.3969 224.716 11.4292C224.486 11.4514 224.317 11.4156 224.169 11.3577C224.054 11.3135 223.947 11.3032 223.799 11.3135C222.171 11.4276 220.543 11.5331 218.918 11.6506C218.676 11.6676 218.536 11.6183 218.372 11.5723C218.314 11.557 218.26 11.5246 218.203 11.5246C218.067 11.5246 217.932 11.5399 217.796 11.5502C217.187 11.591 216.579 11.6404 215.966 11.671C215.707 11.6847 215.637 11.763 215.526 11.8277C215.44 11.8771 215.341 11.8975 215.189 11.9043C215.041 11.9111 214.934 11.9026 214.819 11.8584C214.671 11.8005 214.502 11.7647 214.272 11.7885C214.005 11.8158 213.733 11.8277 213.458 11.8464C213.318 11.855 213.211 11.8856 213.166 11.9469C213.158 11.9571 213.244 11.9827 213.293 11.998C213.458 12.0491 213.614 12.1087 213.799 12.1444C213.988 12.1802 214.194 12.1393 214.391 12.1291C214.461 12.1257 214.527 12.1155 214.593 12.1172C214.654 12.1189 214.728 12.1274 214.774 12.1427C214.988 12.2194 215.214 12.2721 215.51 12.2262C215.765 12.2483 215.896 12.3896 216.221 12.3522C216.418 12.33 216.624 12.3198 216.83 12.3113C216.883 12.3096 216.941 12.3403 216.998 12.3556C217.163 12.3981 217.294 12.4663 217.541 12.4373C217.804 12.4067 218.084 12.4016 218.351 12.3777C218.499 12.3641 218.606 12.376 218.721 12.4203C218.869 12.4765 219.038 12.519 219.268 12.4918C219.465 12.4679 219.675 12.4628 219.876 12.4475C220.14 12.4288 220.14 12.4305 220.608 12.5361C220.662 12.548 220.732 12.5616 220.789 12.5582C221.131 12.5378 221.468 12.5122 221.809 12.4918C221.941 12.4833 222.068 12.5054 222.159 12.5548C222.196 12.5752 222.183 12.6093 222.195 12.6382C221.517 12.6842 220.839 12.7234 220.164 12.7796C219.909 12.8017 219.794 12.7319 219.626 12.6927C219.568 12.6791 219.506 12.6502 219.453 12.6536C218.976 12.6825 218.503 12.7132 218.03 12.7506C217.882 12.7625 217.771 12.7557 217.66 12.7063C217.376 12.5752 217.031 12.6467 216.71 12.6655C216.464 12.6791 216.386 12.7319 216.414 12.8443C216.451 12.9771 216.599 13.018 216.978 12.9941C217.113 12.9856 217.249 12.9737 217.385 12.9669C217.516 12.9601 217.636 12.9822 217.742 13.0282C217.845 13.0741 217.969 13.098 218.096 13.0912C218.367 13.0758 218.643 13.0605 218.906 13.035C219.124 13.0146 219.305 13.0316 219.457 13.0946C219.626 13.1644 219.823 13.1491 220.02 13.1337C220.481 13.0997 220.485 13.1014 220.773 13.1865C220.83 13.2036 220.888 13.2359 220.941 13.2342C221.414 13.2087 221.891 13.1865 222.356 13.1457C222.598 13.1252 222.738 13.1797 222.899 13.224C222.956 13.2393 223.014 13.2734 223.067 13.27C223.409 13.2512 223.75 13.2325 224.083 13.2002C224.239 13.1848 224.334 13.195 224.461 13.2359C224.765 13.3364 224.774 13.333 225.205 13.3006C225.337 13.2904 225.481 13.2717 225.604 13.2853C225.728 13.2989 225.826 13.3483 225.941 13.379C225.995 13.3926 226.061 13.4113 226.118 13.4079C226.39 13.3943 226.661 13.3738 226.932 13.3551C227.187 13.3364 227.187 13.3381 227.664 13.4437C227.857 13.4879 228.059 13.4505 228.252 13.4368C228.462 13.4215 228.651 13.4215 228.811 13.4879C228.972 13.5543 229.165 13.5509 229.371 13.5373C229.564 13.5237 229.761 13.4862 229.959 13.5322C230.411 13.6378 230.411 13.6395 230.691 13.619C231.098 13.5901 231.501 13.5628 231.912 13.5373C231.965 13.5339 232.035 13.5543 232.089 13.568C232.204 13.5986 232.302 13.6497 232.426 13.6616C232.549 13.6752 232.693 13.6548 232.825 13.6446C233.248 13.6122 233.277 13.6003 233.561 13.7127C233.799 13.8046 234.095 13.6718 234.317 13.7774C234.445 13.837 234.617 13.8847 234.856 13.8557C235.053 13.8319 235.259 13.8251 235.464 13.8115C235.789 13.7893 235.789 13.791 236.2 13.8932C236.254 13.9068 236.324 13.9238 236.377 13.9204C236.649 13.9068 236.924 13.8949 237.187 13.8642C237.496 13.8285 237.693 13.8932 237.923 13.9562C238.104 14.0056 238.318 13.9647 238.511 13.9477C238.721 13.9307 238.91 13.9358 239.066 14.0022C239.231 14.0703 239.424 14.0618 239.63 14.0481C239.823 14.0362 240.02 13.9971 240.218 14.0447C240.641 14.1503 240.641 14.1503 240.95 14.1299C241.221 14.1111 241.492 14.0907 241.764 14.0771C241.817 14.0737 241.883 14.0958 241.936 14.1111C242.052 14.1418 242.15 14.1929 242.274 14.2048C242.397 14.2167 242.541 14.1946 242.677 14.1861C242.812 14.1776 242.956 14.152 243.08 14.1622C243.203 14.1725 243.318 14.215 243.417 14.2525C243.532 14.2968 243.639 14.3019 243.795 14.2848C243.992 14.2627 244.198 14.2576 244.399 14.2457C244.51 14.278 244.626 14.3104 244.732 14.3461C244.844 14.3836 244.963 14.3802 245.115 14.3683C245.621 14.3274 245.625 14.3325 246.048 14.4381C246.242 14.4858 246.443 14.4466 246.636 14.4347C246.842 14.4211 247.035 14.4143 247.195 14.4824C247.352 14.5471 247.545 14.5556 247.751 14.5351C247.882 14.5215 248.022 14.513 248.158 14.5079C248.219 14.5062 248.293 14.513 248.339 14.5266C248.557 14.5982 248.77 14.6629 249.07 14.6169C249.334 14.6305 249.465 14.7701 249.782 14.7429C250.049 14.7191 250.329 14.7139 250.592 14.6833C250.834 14.656 251.007 14.7037 251.131 14.7633C251.353 14.8689 251.665 14.7259 251.887 14.8297C252.015 14.8893 252.179 14.937 252.426 14.9115C252.697 14.8842 252.783 14.92 252.862 15.0272C252.907 15.0885 252.899 15.1379 252.816 15.1856C252.734 15.235 252.644 15.2265 252.512 15.1703C252.36 15.1073 252.179 15.0954 251.961 15.109C251.747 15.1226 251.616 15.0341 251.439 15C251.262 14.9643 251.052 15.0239 250.867 14.9779C250.432 14.8706 250.432 14.8706 250.135 14.891C249.934 14.9047 249.724 14.9115 249.527 14.9353C249.293 14.9643 249.14 14.9115 248.98 14.8638C248.922 14.8468 248.865 14.8144 248.816 14.8161C248.343 14.8416 247.866 14.8655 247.397 14.9081C247.15 14.9302 247.019 14.8689 246.854 14.8263C246.797 14.811 246.735 14.7804 246.686 14.7838C246.279 14.8076 245.876 14.8382 245.469 14.8672C245.39 14.9132 245.304 14.9574 245.23 15.0068C245.152 15.0579 245.045 15.08 244.889 15.0783C244.63 15.0783 244.375 15.1499 244.116 15.0596C243.848 14.9677 243.828 14.9728 243.569 14.9949C243.24 15.0239 242.89 15.017 242.582 15.0835C242.529 15.0954 242.471 15.1277 242.471 15.1515C242.467 15.1669 242.553 15.189 242.607 15.2026C242.788 15.2435 242.997 15.1839 243.178 15.2265C243.297 15.2537 243.396 15.2946 243.515 15.3235C243.565 15.3355 243.639 15.3338 243.705 15.3321C243.774 15.3304 243.84 15.3184 243.906 15.3201C243.968 15.3218 244.034 15.332 244.083 15.3474C244.309 15.4121 244.547 15.4717 244.749 15.5483C244.946 15.6232 245.131 15.5722 245.329 15.5687C246.118 15.6879 246.118 15.6896 246.649 15.6522C246.78 15.6437 246.916 15.6335 247.052 15.6352C247.109 15.6352 247.163 15.6658 247.22 15.6828C247.385 15.7339 247.541 15.7799 247.771 15.7526C247.969 15.7288 248.178 15.7237 248.38 15.7084C248.651 15.6896 248.651 15.6896 249.112 15.7969C249.227 15.8242 249.35 15.8208 249.498 15.8071C249.626 15.7952 249.757 15.8208 249.848 15.8701C249.885 15.8906 249.872 15.9246 249.885 15.9536C249.478 15.9808 249.066 15.9996 248.672 16.0404C248.417 16.066 248.302 15.9927 248.133 15.9536C248.075 15.94 248.014 15.911 247.96 15.9144C247.557 15.94 247.154 15.9689 246.751 16.0029C246.702 16.0064 246.64 16.0455 246.636 16.0694C246.628 16.1136 246.731 16.1562 246.879 16.1545C247.076 16.1528 247.27 16.1238 247.446 16.1937C247.594 16.255 247.779 16.2822 247.997 16.255C248.129 16.2397 248.269 16.2396 248.4 16.226C248.75 16.1852 249.066 16.1937 249.329 16.3095C249.531 16.3401 249.728 16.3112 249.922 16.2958C250.066 16.2839 250.205 16.272 250.308 16.3043C250.526 16.3725 250.74 16.4406 251.04 16.3946C251.365 16.4423 251.612 16.5427 251.883 16.6245C252.01 16.6636 252.109 16.6858 252.257 16.6602C252.319 16.65 252.393 16.65 252.459 16.6449C252.594 16.6364 252.738 16.6108 252.862 16.6211C252.985 16.633 253.088 16.6824 253.199 16.713C253.252 16.7283 253.314 16.7539 253.367 16.7522C253.573 16.7437 253.774 16.7266 253.976 16.713C254.177 16.7011 254.379 16.6892 254.58 16.6773C254.749 16.7215 254.922 16.7658 255.09 16.8101C255.362 16.7914 255.633 16.7726 255.9 16.7556C256.2 16.7352 256.2 16.7369 256.632 16.8424C256.825 16.8901 257.031 16.8595 257.216 16.8373C257.524 16.8016 257.73 16.8663 257.948 16.9344C257.993 16.948 258.075 16.9565 258.129 16.9497C258.343 16.9259 258.528 16.9446 258.684 17.0076C258.795 17.0519 258.906 17.0723 259.042 17.0638C259.515 17.0315 259.987 16.9974 260.46 16.9684C260.518 16.965 260.584 16.9804 260.637 16.994C261.056 17.0979 261.061 17.103 261.369 17.0757C261.644 17.0519 261.899 17.0417 262.117 17.1353C262.163 17.1557 262.232 17.1847 262.282 17.183C262.619 17.166 262.96 17.1472 263.293 17.1183C263.446 17.1047 263.552 17.1098 263.672 17.1489C263.824 17.1983 263.959 17.2579 264.21 17.2358C264.905 17.1728 264.909 17.183 265.732 17.3005C265.789 17.309 265.867 17.2954 265.933 17.2886C266.073 17.2715 266.176 17.2954 266.299 17.3345C266.575 17.4231 266.583 17.418 266.846 17.3993C267.047 17.3839 267.257 17.3805 267.454 17.355C267.759 17.3175 267.96 17.3839 268.186 17.4469C268.367 17.4963 268.577 17.4554 268.77 17.4401C268.98 17.4231 269.169 17.4282 269.325 17.4929C269.432 17.5372 269.547 17.561 269.683 17.5525C270.156 17.5219 270.629 17.4878 271.102 17.4571C271.159 17.4537 271.229 17.4674 271.283 17.4793C271.751 17.5849 271.751 17.59 272.216 17.5508C272.364 17.5389 272.487 17.5355 272.598 17.5712C272.705 17.6053 272.82 17.6376 272.931 17.67C273.133 17.6581 273.339 17.6547 273.536 17.6342C273.688 17.6189 273.795 17.6257 273.914 17.6615C274.07 17.7075 274.202 17.7875 274.449 17.7483C274.576 17.7296 274.724 17.7347 274.852 17.7177C275.004 17.6955 275.107 17.7092 275.226 17.7534C275.374 17.8062 275.526 17.8607 275.765 17.8335C276.028 17.8028 276.307 17.7977 276.575 17.7739C276.723 17.7602 276.825 17.7739 276.945 17.8181C277.093 17.8743 277.261 17.9101 277.492 17.888C277.96 17.8454 277.964 17.8539 278.421 17.9612C278.536 17.9884 278.659 17.985 278.807 17.9714C278.935 17.9595 279.066 17.985 279.157 18.0344C279.243 18.0889 279.235 18.1229 279.243 18.1519ZM242.603 2.79438C242.467 2.8029 242.331 2.81311 242.134 2.66497C242.121 2.63943 242.13 2.60878 242.101 2.58665C242.035 2.54067 241.932 2.50832 241.809 2.50321C241.587 2.4964 241.32 2.55429 241.324 2.59856C241.328 2.63602 241.398 2.66837 241.533 2.69902C241.591 2.71094 241.636 2.73137 241.69 2.745C241.846 2.78416 241.969 2.8608 242.196 2.82163C242.154 2.71606 242.175 2.76885 242.196 2.82163C242.175 2.88634 242.237 2.93232 242.385 2.95105C242.426 2.95616 242.487 2.95274 242.52 2.94253C242.648 2.90506 242.668 2.85399 242.574 2.71947C242.557 2.74161 242.57 2.78076 242.607 2.79097C242.644 2.80119 242.734 2.79269 242.779 2.78077C242.894 2.74842 242.952 2.70584 242.923 2.67008C242.907 2.65135 242.829 2.62751 242.779 2.62751C242.693 2.62751 242.615 2.66497 242.603 2.79438ZM275.851 22.5417C275.551 22.574 275.205 22.5621 274.905 22.6285C274.852 22.6404 274.798 22.6711 274.794 22.6949C274.79 22.7103 274.872 22.7324 274.922 22.7443C275.033 22.7716 275.156 22.763 275.3 22.7545C275.518 22.7426 275.645 22.8209 275.814 22.8601C275.867 22.872 275.937 22.8805 275.995 22.8771C276.328 22.8567 276.657 22.8346 276.99 22.8107C277.047 22.8056 277.109 22.7937 277.158 22.7784C277.323 22.729 277.306 22.6966 277.146 22.6592C276.969 22.6183 276.83 22.5502 276.649 22.5178C276.39 22.4719 276.126 22.5332 275.851 22.5417ZM252.5 23.7847C252.298 23.7983 252.101 23.812 251.899 23.8256C251.834 23.8307 251.764 23.8324 251.702 23.8392C251.575 23.8511 251.48 23.8869 251.418 23.9431C251.513 23.9873 251.628 24.0129 251.756 24.0078C251.957 23.9976 252.154 23.9754 252.356 23.9703C252.574 23.9635 252.701 24.0401 252.87 24.0793C252.923 24.0912 252.989 24.0929 253.051 24.0946C253.355 24.1014 253.54 24.0129 253.482 23.8886C253.441 23.7915 253.285 23.7336 253.096 23.7456C252.899 23.7575 252.697 23.7711 252.5 23.7847ZM277.257 20.0249C277.307 19.996 277.36 19.9756 277.385 19.95C277.459 19.8632 277.43 19.7985 277.294 19.7304C277.13 19.6469 276.928 19.7031 276.743 19.7116C276.698 19.7133 276.649 19.7491 276.624 19.7712C276.607 19.7866 276.607 19.8189 276.632 19.8274C276.834 19.8955 277.047 19.9585 277.257 20.0249ZM241.587 14.9949C241.39 15.0085 241.188 15.0187 240.991 15.0375C240.941 15.0426 240.896 15.0749 240.867 15.0971C240.814 15.1379 240.871 15.1941 241.04 15.1992C241.233 15.206 241.435 15.1771 241.636 15.1635C241.891 15.1465 242.043 15.0834 241.949 15.029C241.858 14.9762 241.735 14.966 241.587 14.9949ZM25.1439 11.356C25.2754 11.3475 25.4111 11.3407 25.5427 11.3288C25.666 11.3169 25.7607 11.2794 25.8224 11.2232C25.7196 11.1789 25.6044 11.1551 25.4769 11.1602C25.2755 11.1704 25.0781 11.184 24.8807 11.2011C24.7574 11.2113 24.6382 11.2488 24.6094 11.3066C24.5806 11.3509 24.856 11.3765 25.1439 11.356ZM224.198 11.0938C224.251 11.1091 224.305 11.1398 224.358 11.1398C224.49 11.1398 224.626 11.1296 224.749 11.1125C224.802 11.1057 224.843 11.0751 224.868 11.0512C224.885 11.0359 224.881 11.0087 224.856 10.995C224.737 10.9133 224.26 10.9423 224.182 11.0359C224.173 11.0529 224.194 11.0751 224.198 11.0938ZM211.225 1.7693C211.237 1.79654 211.242 1.82378 211.258 1.85103C211.291 1.90211 211.381 1.93958 211.513 1.96512C211.616 1.92255 211.669 1.87488 211.665 1.8238C211.661 1.79655 211.649 1.76929 211.632 1.74205C211.599 1.69096 211.509 1.65352 211.377 1.62797C211.275 1.66884 211.225 1.71651 211.225 1.7693ZM286.76 24.081C286.723 24.1031 286.686 24.1253 286.644 24.1457C286.755 24.1951 286.858 24.2104 286.936 24.1832C286.986 24.1661 287.015 24.1406 287.052 24.1185C286.941 24.0691 286.842 24.0555 286.76 24.081ZM284.202 24.3126C284.255 24.3279 284.305 24.3484 284.362 24.3586C284.457 24.3756 284.543 24.3466 284.609 24.2853C284.556 24.27 284.506 24.2496 284.449 24.2394C284.354 24.2223 284.268 24.2513 284.202 24.3126ZM285.822 24.001C285.793 24.0419 285.851 24.0759 286.003 24.1049C286.04 24.0827 286.089 24.0623 286.114 24.0384C286.155 23.9993 286.085 23.9635 285.937 23.9363C285.896 23.9567 285.859 23.9788 285.822 24.001ZM277.142 22.1654C277.113 22.2062 277.171 22.2403 277.323 22.2692C277.36 22.2471 277.409 22.2267 277.434 22.2028C277.475 22.1637 277.405 22.1279 277.257 22.1007C277.216 22.1211 277.179 22.1432 277.142 22.1654ZM265.316 10.1164C265.279 10.1385 265.242 10.1607 265.201 10.1811C265.312 10.2305 265.415 10.2458 265.493 10.2186C265.542 10.2015 265.571 10.176 265.608 10.1539C265.497 10.1045 265.399 10.0909 265.316 10.1164ZM253.988 3.7241C254.087 3.73602 254.169 3.71219 254.239 3.64919C254.186 3.63386 254.136 3.61343 254.079 3.60321C253.984 3.58618 253.898 3.61514 253.832 3.67644C253.885 3.69347 253.939 3.70878 253.988 3.7241ZM247.973 3.32395C247.936 3.34609 247.899 3.36822 247.858 3.38866C247.969 3.43804 248.071 3.45336 248.149 3.42611C248.199 3.40909 248.228 3.38354 248.265 3.36141C248.154 3.31203 248.055 3.30011 247.973 3.32395ZM207.179 1.76759C207.142 1.78973 207.105 1.81187 207.064 1.8323C207.175 1.88168 207.278 1.897 207.356 1.86976C207.405 1.85273 207.434 1.82719 207.471 1.80505C207.36 1.75567 207.261 1.74375 207.179 1.76759ZM4.05833 15.6215C4.00488 15.6062 3.95147 15.5909 3.90213 15.5739C3.78289 15.6198 3.74589 15.6624 3.81168 15.6948C3.8528 15.7152 3.91443 15.7271 3.96788 15.7424C4.09124 15.6965 4.12001 15.6556 4.05833 15.6215Z" fill="#FFE492"/>
</svg>
