<svg width="343" height="32" viewBox="0 0 343 32" fill="none" xmlns="http://www.w3.org/2000/svg">
<path d="M321.509 15.5363C321.042 15.5649 320.57 15.5858 320.113 15.6266C319.817 15.6522 319.685 15.5858 319.483 15.5521C319.416 15.5404 319.344 15.5164 319.282 15.52C318.82 15.5486 318.358 15.5802 317.896 15.6118C317.758 15.673 317.674 15.7536 317.458 15.7847C317.247 15.8141 316.996 15.8163 316.76 15.8321C316.449 15.8517 316.138 15.8713 315.827 15.8893C315.671 15.8984 315.545 15.9286 315.497 15.9844C315.488 15.9937 315.593 16.0158 315.651 16.0291C315.844 16.0736 316.032 16.1242 316.242 16.1578C316.443 16.1899 316.686 16.1325 316.902 16.1736C317.386 16.2663 317.391 16.2647 317.754 16.2432C318.065 16.2236 318.376 16.2025 318.688 16.1875C318.749 16.1839 318.822 16.2063 318.889 16.2181C319.09 16.2502 319.223 16.3259 319.514 16.2942C319.735 16.2692 319.981 16.2625 320.212 16.2482C320.409 16.2911 320.593 16.3402 320.803 16.3738C321 16.4059 321.058 16.4315 320.957 16.477C320.865 16.5192 320.734 16.5373 320.559 16.5419C320.403 16.5447 320.247 16.5599 320.092 16.5689C320.012 16.5742 319.936 16.5779 319.861 16.5832C319.564 16.6026 319.564 16.6026 319.013 16.509C318.797 16.4724 318.559 16.5283 318.353 16.4932C318.215 16.4698 318.094 16.4339 317.959 16.4089C317.902 16.3987 317.812 16.3979 317.741 16.4016C317.505 16.4144 317.269 16.4241 317.043 16.446C316.883 16.4612 316.791 16.505 316.813 16.5479C316.819 16.5647 316.934 16.5883 317.001 16.5893C317.152 16.5911 317.312 16.5682 317.459 16.5777C317.602 16.5872 317.751 16.6167 317.857 16.6496C318.075 16.7184 318.312 16.6533 318.517 16.67C318.731 16.6882 318.91 16.7481 319.116 16.7832C319.169 16.792 319.267 16.7758 319.348 16.7705C319.579 16.7577 319.81 16.7465 320.041 16.7338C320.238 16.7767 320.449 16.8148 320.628 16.864C320.951 16.9534 321.294 16.9858 321.703 16.9378C321.933 16.9112 322.161 16.9185 322.35 16.9768C322.543 17.0366 322.761 17.0286 323.001 17.0142C323.223 17 323.448 16.9643 323.678 17.0053C324.176 17.0963 324.181 17.1009 324.761 17.0591C324.936 17.0468 325.068 17.0426 325.203 17.0768C325.328 17.108 325.462 17.1345 325.592 17.1641C325.823 17.1514 326.059 17.1386 326.29 17.1243C326.587 17.1049 326.754 17.1249 326.831 17.2103C326.877 17.2622 326.9 17.3097 327.006 17.3441C327.132 17.386 327.264 17.3834 327.443 17.3695C327.613 17.3573 327.735 17.3394 327.802 17.2835C327.829 17.2602 327.885 17.2382 327.935 17.2193C327.977 17.2051 328.042 17.1831 328.08 17.1858C328.151 17.1913 328.247 17.2074 328.272 17.2272C328.517 17.411 328.517 17.4126 328.757 17.4643C329.021 17.522 329.295 17.5734 329.536 17.639C329.753 17.697 329.964 17.6691 330.196 17.6671C330.371 17.6656 330.487 17.7046 330.476 17.7446C330.468 17.7678 330.404 17.8021 330.347 17.8057C329.886 17.8404 329.419 17.8705 328.952 17.896C328.895 17.8996 328.822 17.8725 328.755 17.8593C328.621 17.8328 328.5 17.7908 328.357 17.7828C328.214 17.7748 328.05 17.7993 327.895 17.8083C327.739 17.8173 327.575 17.8387 327.432 17.8276C327.289 17.8166 327.172 17.773 327.038 17.7449C326.975 17.7316 326.889 17.7124 326.837 17.7175C326.494 17.7573 326.235 17.7088 325.984 17.6433C325.931 17.6299 325.841 17.6215 325.775 17.6251C325.228 17.656 324.685 17.6913 324.138 17.7252C323.917 17.7394 323.733 17.6872 323.68 17.597C323.653 17.5465 323.602 17.4962 323.599 17.4456C323.592 17.3534 323.329 17.305 323.14 17.3173C322.829 17.3354 322.512 17.3504 322.206 17.376C321.957 17.3966 321.742 17.38 321.568 17.3262C321.365 17.2649 321.139 17.2792 320.913 17.298C320.743 17.3118 320.699 17.3629 320.717 17.4903C320.734 17.5931 320.656 17.626 320.349 17.6456C319.962 17.6704 319.571 17.6953 319.179 17.7155C319.118 17.7191 319.045 17.6936 318.983 17.6803C318.848 17.6538 318.727 17.6103 318.584 17.6023C318.442 17.5928 318.278 17.6172 318.122 17.6278C317.966 17.6368 317.802 17.6597 317.659 17.6502C317.517 17.6407 317.395 17.5956 317.266 17.5675C317.203 17.5542 317.126 17.5349 317.065 17.5385C316.753 17.5535 316.442 17.5746 316.131 17.5942C315.782 17.6156 315.782 17.6156 315.278 17.5246C315.048 17.4836 314.823 17.5193 314.602 17.5335C314.366 17.5478 314.144 17.5559 313.955 17.496C313.829 17.4572 313.691 17.4338 313.544 17.4427C313.153 17.4645 312.766 17.4909 312.375 17.5127C312.309 17.5163 312.218 17.5094 312.165 17.496C311.91 17.4337 311.66 17.3851 311.312 17.4204C311.011 17.4506 310.685 17.4549 310.384 17.4836C310.219 17.4989 310.147 17.5487 310.182 17.5868C310.203 17.6066 310.304 17.6288 310.37 17.6282C310.521 17.6285 310.685 17.604 310.828 17.612C311.123 17.6279 311.278 17.7557 311.659 17.7171C311.885 17.6936 312.121 17.6839 312.357 17.6757C312.419 17.6737 312.487 17.7023 312.554 17.7171C312.746 17.7569 312.916 17.8092 313.188 17.7792C313.414 17.7558 313.655 17.7476 313.886 17.7333C314.254 17.7102 314.254 17.7117 314.738 17.8013C314.968 17.8439 315.193 17.8066 315.415 17.794C315.58 17.7849 315.735 17.7682 315.869 17.7885C316.075 17.819 316.227 17.8915 316.477 17.8847C316.713 17.8781 316.944 17.8546 317.18 17.8449C317.326 17.839 317.465 17.8624 317.587 17.9029C317.712 17.9433 317.846 17.9606 318.006 17.95C318.238 17.9357 318.473 17.9183 318.709 17.9086C318.775 17.9065 318.852 17.9197 318.915 17.9314C319.049 17.958 319.179 17.9891 319.309 18.0172C319.54 18.006 319.776 18.0009 320.002 17.9805C320.177 17.9652 320.3 17.9703 320.444 17.9998C320.627 18.0397 320.778 18.1122 321.069 18.0743C321.215 18.0562 321.386 18.0593 321.531 18.0427C321.71 18.0212 321.833 18.0278 321.964 18.0728C322.212 18.1583 322.515 18.1572 322.825 18.1207C323.163 18.0809 323.422 18.1218 323.682 18.1872C323.956 18.2555 323.956 18.254 324.176 18.4227C324.241 18.4713 324.417 18.4928 324.563 18.4823C324.808 18.4649 325.022 18.4707 325.206 18.5275C325.399 18.5889 325.626 18.5793 325.857 18.5604C326.163 18.5347 326.469 18.5121 326.726 18.599C326.852 18.641 326.985 18.6506 327.15 18.6384C327.617 18.6067 328.089 18.5858 328.546 18.5481C328.824 18.5242 328.988 18.5719 329.18 18.6118C329.439 18.6664 329.722 18.7147 329.73 18.8361C329.732 18.856 329.799 18.8785 329.857 18.8934C329.982 18.9246 330.117 18.9511 330.247 18.9807C330.439 19.0251 330.626 19.062 330.885 19.0352C331.111 19.0132 331.352 19.005 331.583 18.9892C331.814 18.9734 332.026 18.9639 332.238 19.0205C332.484 19.0844 332.744 19.1452 333.022 19.192C333.218 19.2257 333.47 19.1636 333.681 19.2094C333.811 19.2375 333.936 19.2702 334.075 19.2936C334.133 19.3039 334.222 19.2954 334.298 19.2917C334.454 19.2842 334.614 19.2783 334.765 19.2616C334.939 19.2432 335.071 19.2451 335.206 19.2793C335.331 19.3105 335.458 19.354 335.6 19.362C335.814 19.374 336.047 19.3105 336.264 19.3794C336.376 19.4138 336.515 19.4464 336.658 19.4559C336.8 19.4654 336.965 19.441 337.116 19.4412C337.182 19.4406 337.264 19.4645 337.304 19.4842C337.328 19.4947 337.297 19.5242 337.265 19.5398C337.224 19.5586 337.164 19.5837 337.102 19.5873C336.636 19.619 336.169 19.6461 335.702 19.6762C335.424 19.6939 335.424 19.6939 334.854 19.602C334.72 19.5801 334.573 19.586 334.408 19.5981C334.187 19.6139 333.962 19.6419 333.728 19.6163C333.418 19.5144 333.043 19.5084 332.648 19.5518C332.484 19.5701 332.332 19.5714 332.207 19.5433C331.943 19.4871 331.665 19.4357 331.428 19.3686C331.245 19.3164 331.159 19.3125 331.089 19.3869C331.067 19.4101 331.045 19.4349 331.051 19.4564C331.084 19.5329 331.141 19.6077 331.175 19.6843C331.186 19.7057 331.15 19.7306 331.128 19.7539C331.056 19.819 330.957 19.8153 330.787 19.7629C330.618 19.7106 330.417 19.677 330.153 19.7038C329.928 19.7273 329.681 19.7263 329.456 19.7513C329.108 19.7881 328.858 19.7411 328.603 19.6772C328.55 19.6638 328.46 19.6569 328.394 19.6605C327.691 19.7019 326.993 19.7478 326.29 19.7892C326.139 19.7982 326 19.7763 325.879 19.7359C325.753 19.6955 325.615 19.6751 325.464 19.6841C324.841 19.7217 324.218 19.7563 323.596 19.8016C323.342 19.8207 323.137 19.8024 322.958 19.7502C322.823 19.7114 322.699 19.7002 322.534 19.7062C322.354 19.7123 322.228 19.7288 322.141 19.7741C322.058 19.8179 322.122 19.8434 322.313 19.8756C322.519 19.9107 322.712 19.9567 322.909 19.9981C323.064 19.9906 323.22 19.9769 323.371 19.9772C323.438 19.9766 323.501 20.0037 323.568 20.0185C323.761 20.0614 323.939 20.1045 324.207 20.0776C324.433 20.0541 324.674 20.0475 324.905 20.0316C325.225 20.012 325.225 20.012 325.752 20.1043C325.887 20.1277 326.029 20.125 326.198 20.1097C326.344 20.0977 326.497 20.1179 326.604 20.163C326.648 20.1811 326.636 20.212 326.553 20.3141C326.558 20.3894 326.655 20.3547 326.685 20.3053C326.732 20.2342 326.631 20.212 326.444 20.252C326.314 20.2808 326.25 20.3213 326.286 20.3533C326.306 20.37 326.397 20.3908 326.553 20.3141C326.963 20.2184 327.279 20.2049 327.581 20.1777C327.76 20.1624 327.874 20.1675 328.018 20.2062C328.192 20.2524 328.366 20.3016 328.643 20.2747C328.944 20.2444 329.266 20.2386 329.572 20.2129C329.855 20.1889 330.006 20.2553 330.188 20.2937C330.409 20.3394 330.647 20.2836 330.848 20.3095C331.058 20.3354 331.209 20.4017 331.451 20.4119C331.799 20.3674 332.026 20.4423 332.295 20.4908C332.506 20.5274 332.75 20.4915 332.971 20.4726C333.22 20.4521 333.43 20.4672 333.609 20.521C333.812 20.5823 334.033 20.5665 334.26 20.5507C334.788 20.5155 334.806 20.5107 335.119 20.5925C335.346 20.6521 335.557 20.6226 335.779 20.613C335.976 20.6528 336.168 20.6957 336.374 20.7308C336.427 20.7396 336.525 20.7234 336.606 20.7181C336.837 20.7038 337.072 20.6895 337.304 20.6752C337.459 20.6662 337.623 20.6417 337.766 20.6497C337.909 20.6593 338.03 20.7028 338.16 20.7309C338.289 20.759 338.424 20.787 338.549 20.8167C338.742 20.8611 338.924 20.898 339.187 20.8727C339.413 20.8508 339.649 20.8426 339.885 20.8267C340.182 20.8073 340.173 20.812 340.733 20.8994C341.035 20.9475 341.338 20.8834 341.641 20.8747C341.792 20.8703 341.94 20.886 342.047 20.9296C342.091 20.9477 342.079 20.9785 342.095 21.0045C341.316 21.0527 340.533 21.0947 339.765 21.152C339.468 21.1746 339.308 21.1206 339.144 21.0759C338.874 21.0045 338.531 21.115 338.274 21.0219C338.119 20.9664 337.899 20.936 337.64 20.9659C337.49 20.9825 337.329 20.9824 337.174 20.9975C336.778 21.0347 336.414 21.0394 336.09 20.9362C335.978 20.9002 335.821 20.8816 335.705 20.8472C335.57 20.81 335.441 20.7896 335.285 20.7986C334.582 20.8415 333.884 20.8844 333.186 20.9303C333.125 20.9339 333.065 20.9575 333.014 20.9748C332.885 21.019 332.929 21.0524 333.144 21.0782C333.216 21.0868 333.274 21.1063 333.341 21.1211C333.471 21.1492 333.593 21.1943 333.735 21.2038C333.878 21.2133 334.042 21.1904 334.198 21.1814C334.354 21.1724 334.518 21.1479 334.66 21.1559C334.803 21.1654 334.924 21.209 335.059 21.2355C335.121 21.2488 335.198 21.2711 335.26 21.2691C335.572 21.2572 335.878 21.2377 336.19 21.2211C336.386 21.261 336.556 21.3194 336.789 21.3313C336.936 21.3392 337.091 21.321 337.243 21.3228C337.309 21.3237 337.396 21.346 337.431 21.3657C337.45 21.3778 337.391 21.4091 337.345 21.4249C337.169 21.4848 336.922 21.4761 336.701 21.4965C336.461 21.5185 336.242 21.5142 336.054 21.4559C335.928 21.417 335.789 21.3967 335.638 21.4057C335.247 21.429 334.86 21.4554 334.469 21.4757C334.403 21.4793 334.321 21.4662 334.259 21.456C333.756 21.3665 333.755 21.3635 333.407 21.3864C332.893 21.42 332.893 21.42 332.542 21.3416C332.474 21.3268 332.401 21.2982 332.345 21.3003C331.797 21.3295 331.255 21.3588 330.713 21.3988C330.534 21.4111 330.411 21.4121 330.275 21.3733C330.16 21.3405 330.024 21.3033 329.882 21.2953C329.734 21.2873 329.575 21.3117 329.419 21.3207C329.264 21.3298 329.1 21.3511 328.961 21.34C328.819 21.329 328.693 21.287 328.567 21.2574C328.438 21.2262 328.3 21.2289 328.126 21.2427C327.589 21.2826 327.584 21.2781 327.043 21.1874C326.98 21.1772 326.899 21.1656 326.833 21.1693C326.441 21.1911 326.055 21.2174 325.663 21.2392C325.512 21.2482 325.364 21.2295 325.257 21.1859C325.213 21.1678 325.226 21.1369 325.193 21.0773C325.159 21.0637 325.198 21.088 325.209 21.111C325.28 21.1073 325.366 21.1096 325.417 21.0969C325.548 21.0666 325.611 21.0276 325.576 20.9956C325.556 20.9789 325.464 20.9582 325.408 20.9586C325.303 20.9595 325.216 20.9941 325.193 21.0773C324.898 21.1305 324.582 21.144 324.276 21.1712C324.097 21.1881 323.983 21.1814 323.838 21.1427C323.665 21.095 323.486 21.0489 323.209 21.0759C322.908 21.1061 322.586 21.1135 322.275 21.1377C321.917 21.1653 321.752 21.0284 321.449 21.0341C321.137 21.0399 320.826 21.0687 320.515 21.0898C320.242 21.1075 320.241 21.1075 319.667 21.0125C319.456 20.9774 319.214 21.0333 319.008 20.9967C318.869 20.9733 318.748 20.9374 318.613 20.9124C318.556 20.9022 318.466 20.9029 318.395 20.9066C318.004 20.9284 317.607 20.9441 317.231 20.9812C316.803 21.0248 316.473 20.9846 316.159 20.8966C315.772 20.9168 315.38 20.9294 314.999 20.9619C314.721 20.9858 314.557 20.9365 314.365 20.8967C314.297 20.8834 314.239 20.8608 314.168 20.8553C314.096 20.8498 314.012 20.8628 313.936 20.868C313.625 20.8876 313.304 20.8981 313.003 20.9283C312.631 20.9669 312.481 20.8421 312.191 20.8292C312.002 20.9062 311.905 21.01 311.522 21.0209C311.21 21.0298 310.899 21.057 310.588 21.0766C310.432 21.0856 310.277 21.0962 310.121 21.1052C309.871 21.1212 309.757 21.1821 309.815 21.2738C309.847 21.3242 309.874 21.3747 309.901 21.4252C309.955 21.5154 309.841 21.5932 309.643 21.6057C309.096 21.6396 308.554 21.675 308.007 21.7058C307.861 21.7147 307.717 21.6898 307.596 21.6494C307.47 21.609 307.331 21.5917 307.181 21.6007C306.633 21.6346 306.091 21.67 305.544 21.7008C305.483 21.7044 305.401 21.6897 305.339 21.678C305.204 21.6515 305.074 21.6203 304.945 21.5922C304.633 21.6087 304.326 21.6206 304.02 21.6416C303.525 21.6736 303.525 21.6751 303.155 21.5937C303.087 21.579 303.019 21.5504 302.958 21.5524C302.722 21.5606 302.491 21.5779 302.255 21.5938C301.562 21.6397 301.562 21.6397 301.355 21.5954C301.168 21.5539 300.999 21.5031 300.721 21.5301C300.42 21.5604 300.099 21.5723 299.787 21.5904C299.556 21.6031 299.325 21.6174 299.093 21.6225C299.032 21.6245 298.964 21.5959 298.896 21.5811C298.704 21.5351 298.517 21.4983 298.258 21.5266C298.108 21.5433 297.947 21.5478 297.791 21.5568C297.386 21.5818 297.386 21.5818 296.712 21.4953C296.645 21.4867 296.564 21.4766 296.498 21.4818C295.951 21.5142 295.409 21.5496 294.862 21.5804C294.796 21.584 294.714 21.5755 294.648 21.5684C293.894 21.4857 293.894 21.4857 293.102 21.5356C292.8 21.5535 292.791 21.5597 292.468 21.481C292.324 21.4469 292.204 21.4311 292.039 21.4432C291.417 21.4855 290.789 21.5154 290.172 21.5638C289.894 21.5846 289.73 21.5399 289.538 21.5C289.471 21.4868 289.398 21.4567 289.341 21.4587C288.718 21.4933 288.096 21.5339 287.473 21.5685C287.416 21.572 287.343 21.5419 287.276 21.5287C287.147 21.5021 287.021 21.4617 286.878 21.4537C286.731 21.4458 286.571 21.4702 286.411 21.4792C286.019 21.5026 286.019 21.501 285.559 21.4143C285.497 21.4026 285.415 21.3863 285.354 21.3899C284.731 21.426 284.103 21.4575 283.486 21.5074C283.133 21.535 282.889 21.4926 282.633 21.4302C282.58 21.4168 282.49 21.4114 282.424 21.4151C281.721 21.4565 281.023 21.5024 280.321 21.5438C280.174 21.5527 280.031 21.5278 279.909 21.4889C279.716 21.4276 279.494 21.4371 279.258 21.453C278.716 21.4899 278.711 21.4884 278.385 21.4175C278.317 21.4027 278.259 21.3832 278.188 21.3761C278.121 21.369 278.036 21.3744 277.965 21.378C277.654 21.3961 277.343 21.4157 277.031 21.4352C276.72 21.4548 276.404 21.4668 276.098 21.4955C275.721 21.531 275.535 21.4327 275.266 21.3889C274.88 21.4122 274.483 21.4279 274.102 21.4634C273.81 21.4905 273.668 21.4241 273.472 21.3905C273.405 21.3787 273.332 21.3532 273.271 21.3568C272.568 21.3967 271.865 21.4396 271.167 21.4871C270.998 21.4978 270.883 21.4864 270.739 21.4508C270.416 21.3706 270.402 21.3738 269.874 21.409C269.643 21.4249 269.421 21.4391 269.218 21.3778C269.039 21.3225 268.825 21.3105 268.576 21.331C268.27 21.3567 267.953 21.3717 267.642 21.3898C267.331 21.4094 267.02 21.4351 266.708 21.4454C266.458 21.4553 266.302 21.3844 266.1 21.3492C266.038 21.339 265.953 21.3382 265.882 21.3419C265.571 21.3584 265.249 21.3719 264.948 21.4006C264.581 21.436 264.372 21.3533 264.108 21.3064C264.051 21.2961 263.957 21.3031 263.886 21.3083C263.339 21.3406 262.797 21.376 262.249 21.4099C262.053 21.3701 261.851 21.3319 261.654 21.2921C261.343 21.3101 261.032 21.3297 260.72 21.3477C260.485 21.3621 260.243 21.3687 260.023 21.3937C259.736 21.4269 259.589 21.3559 259.393 21.3222C259.326 21.3105 259.253 21.285 259.192 21.2886C258.8 21.3089 258.408 21.3307 258.022 21.3601C257.654 21.3894 257.498 21.2524 257.196 21.2566C256.883 21.2608 256.563 21.2835 256.262 21.3138C255.914 21.349 255.664 21.302 255.409 21.2381C255.356 21.2247 255.266 21.2178 255.2 21.2214C254.808 21.2432 254.421 21.2696 254.03 21.2914C253.964 21.2951 253.883 21.2881 253.816 21.2794C253.062 21.1952 253.062 21.1937 252.737 21.2149C252.505 21.2292 252.27 21.2466 252.034 21.2563C251.968 21.2599 251.886 21.2468 251.824 21.235C251.325 21.1456 251.325 21.144 250.971 21.1655C250.66 21.1851 250.349 21.2047 250.038 21.2242C249.841 21.1844 249.639 21.1462 249.443 21.1064C249.056 21.1297 248.659 21.1485 248.278 21.1794C248.099 21.1932 247.98 21.1896 247.84 21.1524C247.667 21.1078 247.493 21.0555 247.211 21.0841C246.91 21.1143 246.588 21.1201 246.282 21.1458C245.915 21.1766 245.754 21.0382 245.456 21.0423C245.143 21.0465 244.823 21.0692 244.522 21.0994C244.174 21.1347 243.924 21.0877 243.669 21.0238C243.616 21.0104 243.526 21.0035 243.459 21.0071C242.601 21.0591 241.747 21.111 240.889 21.166C240.361 21.1997 240.361 21.2012 239.347 21.1254C239.276 21.1199 239.2 21.1144 239.129 21.1181C238.818 21.1346 238.496 21.1481 238.195 21.1768C237.828 21.2122 237.619 21.131 237.355 21.0826C237.298 21.0723 237.208 21.0792 237.133 21.0829C236.897 21.0957 236.666 21.1115 236.43 21.1259C236.119 21.1454 235.808 21.165 235.496 21.1846C235.3 21.1463 235.098 21.1065 234.901 21.0683C234.515 21.0916 234.118 21.1057 233.737 21.1413C233.445 21.1684 233.303 21.105 233.107 21.0698C233.04 21.0581 232.967 21.0326 232.905 21.0347C232.203 21.0745 231.5 21.1159 230.802 21.1649C230.515 21.1858 230.377 21.1178 230.181 21.0842C230.114 21.074 230.037 21.0547 229.976 21.0583C229.509 21.0838 229.042 21.1139 228.575 21.1441C228.311 21.1617 228.311 21.1617 227.727 21.0714C227.66 21.0612 227.584 21.0511 227.518 21.0548C226.037 21.1443 224.561 21.2385 223.08 21.328C222.929 21.337 222.79 21.3151 222.669 21.2747C222.543 21.2343 222.404 21.2139 222.253 21.2229C221.631 21.2605 221.003 21.2951 220.386 21.3404C220.131 21.3595 219.927 21.3412 219.748 21.289C219.613 21.2502 219.489 21.2359 219.324 21.2465C219.012 21.2676 218.701 21.2857 218.39 21.3052C218.079 21.3248 217.767 21.3444 217.456 21.364C217.145 21.3835 216.828 21.3955 216.523 21.4242C216.146 21.4597 215.955 21.3661 215.692 21.3207C215.225 21.3478 214.757 21.3748 214.295 21.4034C213.673 21.441 213.05 21.4817 212.428 21.5178C212.371 21.5213 212.298 21.4943 212.231 21.481C212.034 21.4443 211.889 21.3918 211.601 21.4111C210.206 21.5046 208.8 21.5858 207.4 21.6777C207.107 21.6971 206.975 21.6322 206.774 21.5986C206.707 21.5884 206.63 21.5675 206.569 21.5711C205.79 21.6162 205.012 21.6659 204.234 21.7141C203.918 21.7337 203.918 21.7337 203.381 21.643C203.319 21.6328 203.238 21.6197 203.172 21.6233C202.158 21.6843 201.149 21.7483 200.135 21.8107C199.984 21.8197 199.845 21.7994 199.719 21.759C199.598 21.7185 199.454 21.6967 199.308 21.7057C198.374 21.7628 197.436 21.8185 196.507 21.8803C196.257 21.8978 196.048 21.8858 195.864 21.832C195.734 21.7932 195.605 21.7774 195.445 21.788C194.044 21.8753 192.643 21.9596 191.243 22.0515C190.974 22.0692 190.783 22.0416 190.609 21.9924C190.469 21.9536 190.35 21.947 190.18 21.9546C190.001 21.9638 189.893 21.9816 189.797 22.0285C189.673 22.0895 189.598 22.1655 189.295 22.1727C188.983 22.18 188.667 22.2012 188.361 22.2299C188.07 22.2585 187.928 22.1906 187.74 22.1507C187.601 22.1227 187.473 22.1192 187.299 22.1345C187.139 22.1482 187.041 22.1751 186.95 22.2251C186.749 22.3313 186.73 22.3315 186.47 22.2676C186.33 22.2335 186.205 22.2069 186.054 22.2143C185.431 22.2504 184.809 22.2896 184.187 22.3303C183.828 22.3533 183.824 22.3564 183.549 22.282C183.414 22.2447 183.285 22.2273 183.129 22.2379C181.417 22.3448 179.705 22.4486 177.994 22.5601C177.73 22.5778 177.548 22.5471 177.355 22.5026C177.293 22.4878 177.23 22.4668 177.158 22.4613C177.087 22.4557 177.007 22.4626 176.931 22.4663C175.686 22.5431 174.436 22.6168 173.196 22.7012C172.914 22.7205 172.759 22.6727 172.562 22.6344C172.495 22.6212 172.437 22.6002 172.365 22.5946C172.294 22.5906 172.209 22.6021 172.134 22.6074C170.889 22.6841 169.639 22.7579 168.399 22.8423C168.102 22.8617 167.97 22.7983 167.774 22.7662C167.707 22.7545 167.634 22.732 167.573 22.7356C167.181 22.7559 166.794 22.7823 166.403 22.8056C165.469 22.8643 164.535 22.92 163.602 22.9803C163.243 23.0033 163.078 22.8679 162.775 22.8767C162.383 22.8877 161.997 22.9218 161.606 22.9467C161.294 22.9662 160.983 22.9843 160.672 23.0054C160.365 23.0249 160.365 23.0249 159.593 22.9424C159.526 22.9353 159.445 22.9252 159.379 22.9289C158.289 22.9951 157.195 23.0614 156.111 23.1321C155.861 23.1481 155.652 23.1422 155.468 23.0869C155.338 23.0481 155.204 23.0293 155.048 23.0398C153.412 23.1415 151.78 23.2431 150.144 23.3432C150.082 23.3468 150.001 23.3321 149.938 23.3203C149.804 23.2938 149.674 23.2627 149.544 23.2346C149.452 23.2707 149.331 23.304 149.272 23.3445C149.191 23.399 149.078 23.4153 148.899 23.4261C148.72 23.4368 148.606 23.4347 148.461 23.396C148.288 23.3483 148.11 23.3114 147.832 23.3292C146.12 23.4407 144.408 23.543 142.696 23.653C142.413 23.6708 142.276 23.6043 142.075 23.5707C142.008 23.5605 141.931 23.5443 141.87 23.5479C141.167 23.5893 140.469 23.6337 139.766 23.6766C137.819 23.7978 135.871 23.9144 133.928 24.0417C133.575 24.0647 133.331 24.0284 133.075 23.9645C133.022 23.9511 132.932 23.9442 132.866 23.9479C130.14 24.1157 127.414 24.2851 124.693 24.4545C124.547 24.4634 124.403 24.44 124.282 24.4011C124.156 24.3607 124.018 24.3419 123.867 24.3509C122.622 24.4277 121.377 24.5044 120.132 24.5828C119.821 24.6023 119.816 24.6039 119.489 24.5329C119.422 24.5181 119.349 24.4896 119.297 24.4931C119.189 24.5017 119.087 24.541 119.015 24.5939C118.943 24.6498 118.826 24.6662 118.651 24.6784C118.472 24.6907 118.353 24.6871 118.214 24.6515C118.036 24.6069 117.872 24.5637 117.589 24.5815C114.01 24.8089 110.43 25.0287 106.851 25.2546C106.563 25.2724 106.426 25.209 106.225 25.1754C106.158 25.1652 106.091 25.1504 106.02 25.148C105.944 25.1456 105.864 25.1555 105.788 25.1607C99.95 25.5228 94.1118 25.8864 88.2734 26.2485C87.9244 26.2699 87.9291 26.2699 87.5553 26.4145C87.5091 26.4318 87.449 26.4554 87.383 26.459C85.5958 26.5727 83.8038 26.6834 82.0117 26.794C81.2335 26.8422 80.4555 26.8919 79.6772 26.9385C79.3989 26.9548 79.3989 26.9548 78.7428 27.1264C78.6869 27.1407 78.6218 27.1597 78.5558 27.1633C75.4433 27.3576 72.3308 27.5518 69.2134 27.743C68.9681 27.7574 68.7712 27.7867 68.6626 27.8614C68.5856 27.9143 68.4836 27.9459 68.328 27.9565C66.1493 28.092 63.9707 28.229 61.787 28.3615C61.5276 28.3776 61.3742 28.4219 61.2508 28.4875C61.2097 28.5094 61.1734 28.5343 61.1129 28.5502C61.0571 28.5645 60.9722 28.5698 60.9015 28.575C59.034 28.6909 57.1667 28.8099 55.2942 28.9213C55.0159 28.9375 54.906 28.9953 54.7728 29.0564C54.7268 29.0768 54.6956 29.1047 54.635 29.1191C54.5743 29.1319 54.4843 29.1326 54.4088 29.1364C52.8525 29.2327 51.2964 29.3306 49.7401 29.4269C49.4367 29.4219 49.3764 29.5115 49.2333 29.5665C49.1825 29.5854 49.1463 29.6103 49.0856 29.6231C49.0202 29.636 48.9348 29.6352 48.8545 29.6389C47.6095 29.7157 46.3648 29.7971 45.1147 29.8693C44.8269 29.8856 44.7754 29.9644 44.6228 30.0195C44.5719 30.0368 44.5217 30.0634 44.4604 30.0685C43.6825 30.1198 42.9044 30.1679 42.1261 30.2146C41.8667 30.2306 41.8666 30.2291 41.4178 30.3851C41.3669 30.4025 41.3065 30.4214 41.2406 30.4266C40.0759 30.5011 38.9063 30.5726 37.7367 30.6457C37.5858 30.6547 37.4842 30.6924 37.412 30.7453C37.3398 30.7982 37.2332 30.8329 37.0823 30.8419C36.1486 30.9006 35.2149 30.9609 34.2809 31.015C34.0214 31.0295 33.8536 31.0694 33.7447 31.1395C33.663 31.1924 33.5606 31.2194 33.3956 31.2301C32.4618 31.2872 31.5283 31.3491 30.5894 31.4001C30.3157 31.4148 30.1772 31.4682 30.0679 31.5337C29.9815 31.5867 29.8786 31.606 29.7041 31.6167C27.992 31.7206 26.2753 31.8244 24.5686 31.9374C24.281 31.9568 24.1306 31.9043 23.9387 31.8675C23.6653 31.8161 23.4106 31.7599 23.4025 31.6401C23.4013 31.6216 23.3194 31.6008 23.2615 31.586C22.8325 31.4744 22.8325 31.4744 22.758 31.3521C22.715 31.2771 22.6673 31.2007 22.629 31.1242C22.5589 30.9988 22.4053 30.9678 21.9714 30.9946C21.8157 31.0036 21.6603 31.0157 21.5045 31.0232C21.2733 31.0359 21.0948 30.9867 21.046 30.8949C21.0189 30.8445 20.9871 30.794 20.96 30.7435C21.1958 30.7292 21.191 30.7277 21.5949 30.5383C21.7648 30.4585 21.7648 30.4585 21.4235 30.383C21.2938 30.3549 21.1685 30.3237 21.0294 30.2972C20.967 30.2855 20.8861 30.2785 20.82 30.2821C20.4284 30.3039 20.0418 30.3288 19.6551 30.3536C19.0326 30.3928 19.0326 30.3928 18.3878 30.2415C18.3349 30.2297 18.2529 30.2074 18.2615 30.195C18.3098 30.1377 18.4359 30.112 18.5964 30.1045C18.8324 30.0933 19.0633 30.0759 19.2944 30.0616C19.45 30.0526 19.6056 30.0421 19.7613 30.033C19.9041 29.9734 20.0518 29.9153 20.185 29.8542C20.3965 29.7602 20.3962 29.7571 20.0937 29.6952C19.9014 29.6538 19.6953 29.6171 19.4986 29.5788C19.2675 29.5931 19.0318 29.609 18.8006 29.6217C18.5081 29.6381 18.3878 29.6099 18.3053 29.5107C18.2332 29.4237 18.3086 29.3478 18.5345 29.3274C18.7652 29.307 18.9822 29.2928 19.0952 29.2135C19.2037 29.1372 19.4005 29.1063 19.6462 29.0981C19.8021 29.0921 19.9575 29.0801 20.1131 29.0695C20.3158 29.0555 20.4194 28.9762 20.3709 28.889C20.3434 28.8324 20.2929 28.7852 20.1074 28.7745C19.285 28.7277 19.2756 28.7293 18.8615 28.6284C18.823 28.6195 18.7928 28.5921 18.8061 28.5782C18.8282 28.5549 18.878 28.5207 18.9345 28.5156C19.4765 28.4771 20.0187 28.4417 20.5614 28.414C20.7408 28.4048 20.8726 28.3929 20.9303 28.3355C21.0102 28.2565 20.9675 28.1846 20.7982 28.1323C20.745 28.1158 20.6583 28.0951 20.6016 28.0971C19.9787 28.1301 19.3611 28.1707 18.7382 28.2037C18.6816 28.2073 18.5758 28.1821 18.5508 28.1623C18.5009 28.1259 18.5686 28.0761 18.7331 28.0578C18.9493 28.0329 19.1716 28.0294 19.3131 27.9514C19.5093 27.8406 19.7534 27.7386 19.9735 27.6322C20.0102 27.6134 20.0694 27.5776 20.055 27.5746C19.9344 27.5418 19.7953 27.5169 19.6701 27.4857C19.4582 27.4337 19.4531 27.3585 19.4956 27.2859C19.5295 27.2272 19.6699 27.2029 19.8451 27.2014C19.9208 27.2008 20.0155 27.2 20.076 27.1856C20.2347 27.1505 20.2839 27.107 20.2012 27.0754C20.1527 27.0574 20.0658 27.032 20.0092 27.0356C18.9997 27.095 17.9854 27.1528 16.9815 27.2245C16.6846 27.2455 16.5435 27.1883 16.3608 27.1483C16.2214 27.1173 16.0927 27.1061 15.9239 27.1306C15.7644 27.1535 15.6074 27.1425 15.5046 27.0927C15.4214 27.0519 15.5609 27.0154 15.9416 26.9721C16.0121 26.9638 16.0922 26.9585 16.1432 26.9427C16.6811 26.7721 16.681 26.7706 17.0581 26.7459C17.426 26.7227 17.426 26.7212 17.614 26.6304C17.7011 26.5882 17.7976 26.5459 17.8799 26.5021C17.9119 26.4849 17.9667 26.4537 17.9472 26.4447C17.8398 26.398 17.6971 26.3884 17.5321 26.4006C17.1647 26.4299 16.7279 26.4121 16.5437 26.5597C16.4717 26.6156 16.3544 26.632 16.1846 26.6427C14.4773 26.7465 12.7703 26.8564 11.0581 26.9572C10.7798 26.9734 10.6559 27.0313 10.5513 27.0952C10.4601 27.1483 10.357 27.1645 10.1778 27.1753C9.99854 27.186 9.85679 27.1919 9.74925 27.1421C9.68565 27.1119 9.73483 27.0684 9.87392 27.0242C10.0733 26.961 10.0302 26.8845 9.9591 26.8129C9.90857 26.7657 9.75957 26.7332 9.60359 26.7376C9.37209 26.7457 9.15084 26.7645 8.95264 26.7048C8.83667 26.6704 8.693 26.647 8.56313 26.6174C8.31277 26.5566 8.0623 26.4942 7.71959 26.5386C7.48191 26.5253 7.31253 26.4714 7.12031 26.43C6.79844 26.3621 6.76931 26.3516 6.99142 26.2744C7.24131 26.1877 7.03503 26.0788 7.17142 25.9946C7.31687 25.9042 7.51991 25.8241 7.69891 25.7396C7.74479 25.7177 7.78606 25.6974 7.83194 25.6755C7.72101 25.6457 7.61904 25.6081 7.4898 25.5877C7.32229 25.5615 7.23481 25.5284 7.23786 25.4331C7.20379 25.4196 7.22028 25.4548 7.25876 25.4637C7.30198 25.4725 7.40567 25.464 7.457 25.4528C7.58756 25.4224 7.65116 25.3835 7.61586 25.3515C7.59579 25.3348 7.50448 25.314 7.44768 25.3145C7.34356 25.3154 7.25592 25.35 7.23312 25.4332C6.70727 25.5007 6.16023 25.5361 5.61286 25.5654C5.55627 25.569 5.48325 25.5389 5.41595 25.5241C5.19472 25.4737 5.19479 25.4752 4.55481 25.4654C4.48844 25.4644 4.39711 25.4437 4.36253 25.4225C4.21896 25.3299 4.21679 25.227 4.1438 25.1277C4.2625 25.0621 4.38122 24.9981 4.50476 24.934C4.75175 24.8044 5.07557 24.6894 5.26493 24.5479C5.21726 24.473 5.15538 24.3983 5.35949 24.335C5.94593 24.2532 5.94124 24.2532 6.09719 24.1781C6.5422 23.9653 6.98235 23.7509 7.44651 23.541C7.57067 23.4861 7.56872 23.457 7.33999 23.4359C7.26858 23.4303 7.19265 23.4295 7.11712 23.4332C6.8812 23.446 6.64642 23.4756 6.41409 23.4715C6.18187 23.4689 6.00692 23.4027 5.81481 23.3629C5.61786 23.3216 5.42081 23.2787 5.22376 23.2358C5.00162 23.2423 4.78211 23.2872 4.555 23.22C4.38099 23.1677 4.16543 23.1311 3.96838 23.0883C4.10723 22.9703 4.37577 22.8788 4.58182 22.7741C4.76956 22.6787 4.77429 22.6802 5.29005 22.6036C5.53388 22.5677 5.60738 22.3934 5.39571 22.3445C5.14072 22.2852 4.8719 22.2306 4.61238 22.1745C4.39024 22.181 4.1659 22.2244 3.94826 22.1571C3.77909 22.1063 3.58735 22.0726 3.31418 22.0949C2.85263 22.1327 2.38049 22.1537 1.91379 22.1853C1.75349 22.1959 1.5779 22.1913 1.50339 22.1397C1.45357 22.1032 1.58742 22.0514 1.74288 22.0393C1.9785 22.0219 2.19021 22.0016 2.30336 21.9238C2.41177 21.846 2.61845 21.8212 2.86384 21.8083C2.92989 21.8047 3.00443 21.7856 3.03632 21.7669C3.2007 21.6763 3.38486 21.5979 3.7495 21.5979C3.89888 21.5659 3.9767 21.5268 3.92689 21.4903C3.89715 21.4706 3.79604 21.4453 3.73946 21.4489C3.34766 21.4676 2.95587 21.4863 2.57436 21.5173C2.39534 21.5311 2.25821 21.5354 2.14152 21.4903C2.05898 21.4602 2.09878 21.4184 2.24723 21.3725C2.37717 21.333 2.41207 21.2881 2.39908 21.236C2.36724 21.1149 2.22284 21.0808 1.76899 21.0923C1.44283 21.1013 1.36102 21.082 1.28298 20.9782C1.26239 20.9537 1.21287 20.9204 1.24486 20.9032C1.44134 20.797 1.56517 20.6668 1.94523 20.6144C2.09544 20.5947 2.2563 20.5933 2.34826 20.5525C2.44023 20.5118 2.52236 20.465 2.61916 20.4257C2.73911 20.3786 2.82132 20.3349 2.76256 20.3062C2.66438 20.2548 2.51267 20.2514 2.33879 20.2714C2.18837 20.288 2.02756 20.2909 1.87199 20.3015C1.59388 20.3208 1.36406 20.2828 1.32637 20.2155C1.22443 20.0381 1.11784 19.8623 1.02537 19.6848C1.01445 19.6634 1.03619 19.6355 1.07281 19.6168C1.20098 19.5511 1.33888 19.4885 1.47189 19.4243C1.62795 19.3508 1.8845 19.3624 2.10129 19.3467C2.40758 19.3241 2.40758 19.3256 2.80941 19.1746C2.96639 19.1149 3.2472 19.1355 3.40934 19.0819C3.46026 19.0645 3.53886 19.0362 3.52362 19.021C3.50335 19.0012 3.4077 18.9866 3.33608 18.978C3.2692 18.9694 3.18845 18.9654 3.11777 18.9707C2.25937 19.0226 1.40594 19.0776 0.547435 19.128C0.401231 19.1369 0.238027 19.1045 0.182755 19.0573C0.127689 19.0132 0.138216 18.9593 0.125333 18.9087C0.258343 18.8446 0.410536 18.7849 0.524304 18.7163C0.61071 18.6633 0.7133 18.6393 0.892946 18.6347C1.12928 18.6281 1.35998 18.6077 1.62409 18.5916C2.1012 18.3631 2.56809 18.124 3.08306 17.8952C3.28994 17.8027 3.23174 17.711 3.26782 17.6139C3.30441 17.5244 3.62243 17.5355 3.83365 17.5076C4.00259 17.4846 4.056 17.435 3.98746 17.4018C3.94825 17.3821 3.86155 17.3598 3.79529 17.3604C3.6391 17.3617 3.48385 17.3769 3.32818 17.3859C3.17251 17.3949 2.99235 17.3919 2.86632 17.4191C2.74492 17.4447 2.66794 17.4976 2.59048 17.5428C2.50387 17.5928 2.38677 17.6107 2.20712 17.6153C1.97541 17.6204 1.74444 17.6362 1.51325 17.6489C1.25363 17.5912 0.984596 17.5351 0.734236 17.4742C0.686078 17.4624 0.67418 17.4271 0.677359 17.404C0.682787 17.3441 0.609325 17.3078 0.451169 17.2799C0.316989 17.2565 0.20574 17.2221 0.0806122 17.1925C0.172476 17.1502 0.273945 17.1093 0.346669 17.0641C0.506006 16.969 0.709724 16.8997 1.06964 16.8997C1.20759 16.8385 1.31618 16.7638 1.49797 16.7208C1.67039 16.6793 1.97128 16.7167 2.09769 16.6249C2.16095 16.5798 2.25698 16.5283 2.38352 16.5088C2.58507 16.4778 2.85115 16.4909 2.96368 16.4039C3.03136 16.3541 3.13244 16.3087 3.26887 16.2952C3.42412 16.2801 3.5848 16.2756 3.69642 16.2455C3.75691 16.2296 3.82153 16.2044 3.82008 16.1829C3.81914 16.1691 3.72311 16.1484 3.65623 16.1398C3.59397 16.1295 3.5129 16.1226 3.44211 16.1262C3.20609 16.1375 2.97532 16.1564 2.73929 16.1676C2.67323 16.1713 2.5968 16.1612 2.52519 16.1525C2.31528 16.1298 2.32738 16.0989 2.48931 16.0422C2.65134 15.987 2.76507 15.9169 2.89808 15.8527C3.04881 15.8407 3.23841 15.8437 3.34057 15.8136C3.51248 15.7645 3.63084 15.6943 3.76879 15.6332C3.92436 15.6226 4.08506 15.6182 4.23064 15.6C4.29176 15.5933 4.3179 15.5593 4.36862 15.5389C4.46069 15.4997 4.53749 15.4437 4.66403 15.4242C4.87042 15.3947 5.12672 15.4033 5.24408 15.3178C5.31176 15.268 5.41706 15.2149 5.54938 15.2106C5.91813 15.2013 6.06863 15.1155 6.25256 15.034C6.39051 14.9729 6.6955 15.001 6.84765 14.9398C6.94919 14.9005 7.02175 14.8522 7.12339 14.8144C7.16495 14.7987 7.25433 14.7903 7.32501 14.7851C7.71156 14.7587 8.10325 14.7384 8.48969 14.7105C8.55091 14.7054 8.6062 14.6819 8.65229 14.663C8.74899 14.6222 8.80672 14.5664 8.92802 14.5392C9.04931 14.5121 9.22441 14.5106 9.37535 14.5016C9.86129 14.4744 9.8996 14.4802 10.1132 14.3477C10.286 14.2402 10.7313 14.3117 10.8701 14.1937C10.9507 14.1254 11.1031 14.0687 11.3819 14.0587C11.774 14.0445 12.1601 14.012 12.5516 13.9887C12.9006 13.9673 12.8959 13.9673 13.2649 13.8212C13.4309 13.7552 13.6824 13.7623 13.9041 13.7481C14.1399 13.7338 14.3563 13.7135 14.4647 13.6357C14.5733 13.5595 14.7798 13.5331 15.0205 13.5203C15.2422 13.5076 15.4936 13.5132 15.6646 13.4502C16.0806 13.2991 16.0758 13.2976 16.3729 13.2797C16.8398 13.2511 17.3067 13.2225 17.7735 13.1924C18.0848 13.1728 18.4111 13.1669 18.7023 13.1306C18.9136 13.1042 19.0025 13.0174 19.1357 12.9563C19.5222 12.9299 19.9088 12.9035 20.2954 12.8787C20.8376 12.8433 21.3848 12.811 21.9318 12.7771C22.1645 12.7167 22.1891 12.5874 22.5862 12.5778C22.8226 12.5727 23.0532 12.5508 23.289 12.5364C23.6804 12.5116 24.0666 12.4806 24.4588 12.4665C24.7564 12.4562 24.8028 12.3728 24.9555 12.3193C25.0063 12.3004 25.0519 12.2739 25.1131 12.2687C25.7255 12.2205 26.3591 12.2058 26.9559 12.1377C27.017 12.131 27.0717 12.0982 27.0843 12.0751C27.0929 12.0627 27.0109 12.0404 26.9581 12.0301C26.8958 12.0183 26.8145 12.0067 26.7485 12.0104C24.8007 12.13 22.8531 12.2513 20.9053 12.3709C20.6318 12.3887 20.6317 12.3871 19.9757 12.5618C19.9199 12.5761 19.8546 12.592 19.7839 12.5972C19.4728 12.6184 19.1564 12.6318 18.8503 12.6575C18.6007 12.6781 18.3913 12.6614 18.2077 12.6077C18.0772 12.5689 17.9438 12.5577 17.7831 12.5622C17.6035 12.5683 17.4864 12.5862 17.3851 12.6286C17.2517 12.6866 17.1856 12.7609 16.8979 12.7788C15.5724 12.8562 14.2474 12.9414 12.9269 13.0234C12.7409 13.0035 12.6488 12.972 12.6935 12.9332C12.7204 12.9099 12.7751 12.8787 12.8317 12.8751C13.3738 12.8382 13.921 12.8059 14.4632 12.7705C14.5386 12.7652 14.6429 12.7674 14.6845 12.7517C14.8881 12.6807 14.9563 12.568 15.3486 12.5569C15.5755 12.5504 15.8058 12.5253 16.0221 12.502C16.0832 12.4953 16.1378 12.4626 16.1505 12.4394C16.1544 12.4271 16.0771 12.4047 16.0196 12.3944C15.8083 12.3516 15.5706 12.4075 15.3603 12.3786C15.2886 12.3684 15.1881 12.3539 15.1726 12.3356C15.162 12.3188 15.2406 12.2904 15.2963 12.2731C15.3473 12.2573 15.4174 12.2428 15.488 12.2376C16.1104 12.1969 16.7328 12.1547 17.3557 12.1217C17.6105 12.1087 17.7877 12.0688 17.8966 11.9972C17.9782 11.9442 18.0805 11.9157 18.2409 11.9066C19.3304 11.8404 20.4194 11.768 21.514 11.7064C21.7876 11.6918 21.9263 11.6399 22.0354 11.5728C22.1218 11.5198 22.2247 11.5005 22.3992 11.4898C23.9604 11.3965 25.5115 11.294 27.073 11.2038C27.3607 11.1875 27.4415 11.1207 27.5844 11.0626C27.6351 11.0422 27.6665 11.0174 27.732 11.0045C27.7974 10.9916 27.8827 10.9924 27.9629 10.9887C29.208 10.9119 30.4528 10.8305 31.7029 10.7583C31.9954 10.742 32.0469 10.6647 32.1948 10.6096C32.2457 10.5923 32.2912 10.5643 32.3524 10.5591C33.286 10.4989 34.2198 10.4417 35.1535 10.3829C35.776 10.3438 36.3985 10.3046 37.021 10.267C37.3276 10.249 37.3275 10.2475 37.7342 10.098C37.7804 10.0807 37.8454 10.0601 37.9066 10.055C39.6985 9.94127 41.4859 9.8322 43.2779 9.72C43.4289 9.71102 43.5353 9.67474 43.6075 9.62187C43.6797 9.569 43.7863 9.53274 43.9325 9.5238C45.333 9.43494 46.7336 9.34762 48.1392 9.26333C48.3939 9.24885 48.5712 9.21044 48.6802 9.14035C48.7618 9.08739 48.8641 9.05886 49.0245 9.0498C50.4252 8.96401 51.8257 8.8736 53.2314 8.79085C53.5002 8.77471 53.6292 8.72135 53.7575 8.65878C53.8034 8.63687 53.8389 8.60121 53.8955 8.59766C54.5931 8.54864 55.2858 8.49812 55.9891 8.46289C56.2817 8.44808 56.3768 8.38272 56.4909 8.32026C56.5823 8.2703 56.69 8.25247 56.8695 8.24479C57.2614 8.22759 57.6477 8.19816 58.0293 8.16876C58.0858 8.16366 58.1545 8.12926 58.1578 8.10772C58.1646 8.0677 58.0538 8.04098 57.873 8.0287C56.0055 8.14462 54.1333 8.26058 52.2658 8.3765C51.9593 8.39603 51.9593 8.39604 51.5526 8.54553C51.5064 8.56283 51.4414 8.58337 51.3755 8.58855C49.5835 8.70075 47.7961 8.81137 46.0041 8.92357C45.8532 8.93255 45.7467 8.96881 45.6745 9.02168C45.6023 9.07455 45.4958 9.11082 45.3496 9.11975C43.6377 9.22665 41.926 9.33509 40.2091 9.43743C39.9544 9.45191 39.7769 9.48876 39.6681 9.56039C39.5864 9.61335 39.4842 9.6419 39.3238 9.65096C37.6872 9.75106 36.0557 9.85573 34.4142 9.9528C34.249 9.96191 34.1231 9.91842 34.1297 9.87686C34.133 9.85532 34.2015 9.8194 34.2581 9.81584C35.1114 9.7578 35.9599 9.69826 36.8187 9.65247C37.1065 9.63771 37.1871 9.56939 37.33 9.5113C37.376 9.49093 37.4121 9.46449 37.4729 9.45321C37.5384 9.44036 37.6236 9.44117 37.7039 9.43741C39.727 9.31093 41.75 9.18292 43.7783 9.06255C44.0707 9.04467 44.1223 8.96891 44.2701 8.91385C44.321 8.89497 44.3665 8.86693 44.4278 8.86333C45.0501 8.82111 45.6726 8.78348 46.2952 8.74587C47.3846 8.67812 48.4739 8.61037 49.568 8.54258C49.884 8.52296 49.884 8.52296 50.2813 8.37508C50.3275 8.35778 50.3924 8.33572 50.4537 8.33212C53.3351 8.15218 56.2165 7.97223 59.098 7.79382C59.2489 7.78484 59.3554 7.74858 59.4276 7.6957C59.4999 7.64437 59.6063 7.60657 59.7524 7.5961C63.6477 7.35366 67.5383 7.11125 71.4339 6.87189C71.6885 6.85587 71.8662 6.82207 71.9749 6.74891C72.0518 6.69599 72.1588 6.66742 72.3191 6.65682C76.6012 6.39109 80.8833 6.12535 85.1701 5.85804C88.0516 5.67963 90.9329 5.49815 93.8146 5.32281C94.0787 5.30671 94.2174 5.25787 94.3457 5.19376C94.3868 5.17189 94.4271 5.1362 94.4837 5.13264C95.1011 5.08892 95.7187 5.04828 96.3363 5.00763C96.5332 5.04743 96.7299 5.08571 96.9268 5.12552C97.0696 5.06589 97.2076 5.00477 97.3504 4.94514C98.2845 4.89256 99.2027 4.81552 100.148 4.78589C100.209 4.78383 100.277 4.81245 100.345 4.82724C100.791 4.92023 101.042 4.91039 101.312 4.77898C101.409 4.73204 101.491 4.68984 101.642 4.68086C102.109 4.6492 102.581 4.6267 103.042 4.59047C103.292 4.57142 103.501 4.58499 103.685 4.63874C103.815 4.67758 103.949 4.69334 104.105 4.68279C104.963 4.62932 105.817 4.57742 106.675 4.52088C106.736 4.51728 106.791 4.49067 106.837 4.47183C106.934 4.43104 107.016 4.38732 107.108 4.34503C107.238 4.37005 107.381 4.3888 107.487 4.4217C107.623 4.46049 107.746 4.45943 107.925 4.44713C111.348 4.2318 114.777 4.02103 118.2 3.80416C118.493 3.78628 118.625 3.8497 118.826 3.88179C118.893 3.89351 118.96 3.90829 119.032 3.91075C119.108 3.91317 119.187 3.90328 119.263 3.89802C121.833 3.73765 124.403 3.5788 126.973 3.41843C127.313 3.39708 127.313 3.39708 127.826 3.48796C127.888 3.49972 127.97 3.51286 128.036 3.50768C129.205 3.43771 130.375 3.36313 131.54 3.29166C131.691 3.28268 131.82 3.30615 131.96 3.3403C132.234 3.40711 132.253 3.40695 132.445 3.30387C132.536 3.25544 132.634 3.22539 132.789 3.21023C132.958 3.19341 133.096 3.19686 133.23 3.22337C133.422 3.26014 133.564 3.32346 133.851 3.30409C135.096 3.22118 136.346 3.15052 137.586 3.06611C137.869 3.04678 138.024 3.0977 138.216 3.13447C138.283 3.14773 138.346 3.16871 138.417 3.1727C138.489 3.1767 138.573 3.16521 138.648 3.15995C140.205 3.06361 141.766 2.96877 143.317 2.86633C143.609 2.84691 143.742 2.91185 143.943 2.94394C144.01 2.95566 144.087 2.97652 144.148 2.97292C145.082 2.91726 146.021 2.85848 146.954 2.79975C147.289 2.77844 147.289 2.77997 147.807 2.86928C147.869 2.88104 147.95 2.89264 148.016 2.889C149.106 2.82279 150.2 2.755 151.289 2.68725C151.624 2.66594 151.624 2.66594 152.6 2.73748C152.671 2.74302 152.748 2.7516 152.818 2.74792C154.063 2.67115 155.313 2.59587 156.558 2.51449C156.808 2.49851 157.017 2.50901 157.201 2.56276C157.331 2.6016 157.465 2.61737 157.62 2.60681C159.021 2.51949 160.427 2.4352 161.822 2.34331C162.091 2.32563 162.268 2.35791 162.46 2.40083C162.523 2.41566 162.586 2.43664 162.657 2.44217C162.729 2.44771 162.809 2.44087 162.884 2.43561C164.285 2.34829 165.691 2.26553 167.086 2.1721C167.369 2.15277 167.524 2.20369 167.716 2.24047C167.783 2.25372 167.856 2.28076 167.913 2.27874C168.46 2.24792 169.007 2.22017 169.549 2.1771C169.841 2.15308 169.974 2.22263 170.175 2.25471C170.242 2.2649 170.319 2.2873 170.38 2.2837C171.55 2.21372 172.719 2.14068 173.884 2.06614C174.049 2.0555 174.173 2.06826 174.308 2.10705C174.487 2.15931 174.692 2.17907 174.947 2.15998C175.488 2.11998 176.036 2.0907 176.583 2.05681C176.904 2.03715 176.904 2.03716 177.893 2.10858C177.965 2.11411 178.041 2.12267 178.112 2.11899C179.046 2.0618 179.984 2.00611 180.913 1.94435C181.163 1.92683 181.372 1.93887 181.556 1.99262C181.686 2.03146 181.815 2.04727 181.975 2.03667C182.834 1.9832 183.687 1.92976 184.546 1.87629C184.857 1.85672 185.167 1.82485 185.48 1.82217C185.707 1.82175 185.878 1.89405 186.084 1.92917C186.141 1.93944 186.235 1.92635 186.31 1.92263C187.4 1.85488 188.494 1.79169 189.578 1.71631C189.861 1.69698 190.016 1.74789 190.208 1.78467C190.275 1.79792 190.348 1.82496 190.405 1.82294C190.797 1.80267 191.183 1.7763 191.575 1.75296C192.041 1.72437 192.514 1.70188 192.975 1.6641C193.352 1.63321 193.503 1.76561 193.806 1.76762C194.038 1.77024 194.273 1.7421 194.504 1.72783C194.971 1.69923 195.438 1.66756 195.905 1.64204C196.07 1.63294 196.196 1.60726 196.245 1.55151C196.253 1.54068 196.171 1.51834 196.118 1.50497C195.478 1.3537 195.478 1.35369 194.846 1.39293C194.455 1.4178 194.068 1.44264 193.677 1.46444C193.611 1.46808 193.534 1.45644 193.467 1.4478C193.276 1.42331 193.293 1.39243 193.45 1.33575C193.607 1.27908 193.726 1.21045 193.859 1.14629C194.056 1.18456 194.248 1.22286 194.444 1.26113C194.6 1.25211 194.756 1.24157 194.911 1.23255C195.69 1.18591 196.468 1.13774 197.246 1.09417C197.303 1.09061 197.376 1.12073 197.443 1.13552C197.635 1.17844 197.808 1.21536 198.082 1.19611C198.779 1.14556 199.482 1.10725 200.18 1.06284C200.487 1.04331 200.487 1.04331 201.033 1.13391C201.095 1.14413 201.176 1.15573 201.242 1.15209C201.945 1.11071 202.643 1.06631 203.346 1.02339C203.497 1.01441 203.645 1.03312 203.757 1.07673C203.8 1.09479 203.793 1.12559 203.99 1.37594C204.562 1.57544 204.944 1.55065 205.331 1.52889C205.496 1.51979 205.642 1.51084 205.749 1.47919C205.805 1.46181 205.874 1.43662 205.873 1.41665C205.872 1.40129 205.766 1.3776 205.699 1.3751C205.229 1.3484 204.788 1.41674 204.33 1.4345C204.117 1.44247 203.929 1.3903 203.885 1.30307C203.874 1.27858 203.858 1.25259 203.843 1.22814C203.827 1.20368 203.816 1.17766 203.8 1.1532C203.615 1.14711 203.508 1.17568 203.431 1.2286C203.367 1.27217 203.276 1.32214 203.15 1.34627C203.023 1.37194 202.848 1.36885 202.692 1.37787C202.541 1.38685 202.377 1.40823 202.234 1.3987C202.092 1.38763 201.975 1.34405 201.841 1.31754C201.778 1.30425 201.701 1.28494 201.64 1.28854C201.097 1.31932 200.56 1.35005 200.022 1.38847C199.739 1.40934 199.593 1.34606 199.411 1.30767C199.267 1.27816 199.125 1.28705 199.106 1.35791C199.056 1.5274 199.278 1.59618 199.759 1.55978C200.155 1.52872 200.514 1.52104 200.834 1.62281C200.877 1.63626 200.977 1.64155 201.038 1.63795C201.425 1.61619 201.807 1.58986 202.194 1.5681C202.265 1.56442 202.341 1.5699 202.407 1.57548C203.379 1.65013 203.379 1.65168 203.704 1.63044C203.86 1.61989 204.01 1.61091 203.98 1.37756C204.262 1.12464 204.734 1.10369 205.191 1.06289C205.487 1.03729 205.619 1.10378 205.816 1.13744C205.883 1.14916 205.956 1.17312 206.017 1.16952C207.031 1.1101 208.04 1.04764 209.049 0.982122C209.219 0.971444 209.343 0.979606 209.478 1.0184C209.652 1.06763 209.843 1.09827 210.112 1.07752C210.649 1.03603 211.196 1.00828 211.743 0.972851C212.022 0.955095 212.022 0.95508 212.591 1.04548C212.654 1.0557 212.735 1.0673 212.801 1.06366C213.348 1.03284 213.89 0.995919 214.433 0.963601C214.584 0.954622 214.722 0.974946 214.843 1.0154C214.965 1.05586 215.108 1.07614 215.254 1.0672C215.801 1.03484 216.344 0.999462 216.886 0.967145C216.952 0.963504 217.033 0.973565 217.095 0.983789C217.679 1.07406 217.679 1.07405 217.943 1.05641C218.33 1.03004 218.727 1.01589 219.108 0.981884C219.48 0.947957 219.68 1.03537 219.939 1.08233C220.637 1.04099 221.34 1.00576 222.033 0.956786C222.316 0.935918 222.471 0.9853 222.663 1.02361C222.73 1.03687 222.798 1.06548 222.859 1.06342C223.096 1.05525 223.327 1.03636 223.558 1.02208C223.789 1.00781 224.025 0.99349 224.256 0.979212C224.524 1.02148 224.706 1.12442 225.082 1.08585C225.308 1.06239 225.549 1.05571 225.78 1.04144C226.011 1.02716 226.247 1.01284 226.478 0.998564C226.634 0.989544 226.794 0.983549 226.945 0.968426C227.222 0.94299 227.365 1.01708 227.566 1.04917C227.633 1.05935 227.71 1.07712 227.771 1.07352C228.238 1.048 228.71 1.02551 229.167 0.98624C229.52 0.955547 229.765 0.99956 230.02 1.06192C230.073 1.0753 230.163 1.0822 230.229 1.07856C230.777 1.04774 231.319 1.01081 231.861 0.978488C232.007 0.969549 232.151 0.992905 232.272 1.03182C232.398 1.07224 232.536 1.09105 232.687 1.08207C233.23 1.04975 233.777 1.01431 234.319 0.98199C234.385 0.978349 234.467 0.989949 234.529 1.00171C235.065 1.09239 235.065 1.09393 235.377 1.07282C235.452 1.06756 235.532 1.06378 235.608 1.05853C235.994 1.03369 236.396 1.02257 236.772 0.982459C237.205 0.937251 237.526 0.986755 237.839 1.07167C238.226 1.0499 238.623 1.03574 238.999 1.00177C239.282 0.976294 239.437 1.03336 239.629 1.07013C239.696 1.08339 239.769 1.11043 239.826 1.10687C240.373 1.07604 240.92 1.0483 241.457 1.00527C241.749 0.981252 241.882 1.04926 242.083 1.08288C242.15 1.0946 242.223 1.11551 242.284 1.11191C242.595 1.09694 242.907 1.07582 243.218 1.05624C243.581 1.03315 243.581 1.03468 244.07 1.12423C244.3 1.16683 244.525 1.12955 244.747 1.11689C244.983 1.10257 245.204 1.09145 245.398 1.1528C245.519 1.19172 245.663 1.21507 245.809 1.20767C246.12 1.19117 246.437 1.17463 246.743 1.14895C246.988 1.12841 247.201 1.13886 247.385 1.19415C247.516 1.23299 247.649 1.25183 247.805 1.24127C248.503 1.1984 249.206 1.15393 249.904 1.1126C249.965 1.109 250.051 1.1221 250.109 1.13543C250.243 1.16194 250.373 1.19156 250.503 1.22118C250.81 1.20472 251.126 1.19587 251.428 1.17177C251.748 1.1475 252.041 1.1373 252.298 1.21963C252.351 1.23761 252.428 1.26306 252.49 1.26099C252.726 1.25282 252.957 1.23547 253.188 1.2212C253.419 1.20692 253.655 1.1926 253.886 1.17832C254.158 1.21441 254.336 1.32353 254.713 1.28496C254.938 1.2615 255.179 1.25483 255.411 1.24055C255.642 1.22627 255.877 1.21042 256.109 1.19768C256.184 1.19395 256.269 1.18554 256.335 1.19111C256.407 1.19665 256.47 1.21763 256.532 1.23246C256.725 1.27538 256.903 1.31842 257.171 1.29C257.397 1.26655 257.638 1.25986 257.869 1.24405C258.185 1.22443 258.185 1.22444 258.716 1.31669C258.932 1.3548 259.17 1.30051 259.376 1.33256C259.515 1.35442 259.635 1.39179 259.77 1.41677C259.827 1.42703 259.917 1.43086 259.984 1.42722C260.295 1.41072 260.611 1.39418 260.917 1.3685C261.167 1.34792 261.376 1.36456 261.555 1.41835C261.686 1.45719 261.815 1.473 261.975 1.4624C262.753 1.41269 263.531 1.36912 264.304 1.31484C264.568 1.29567 264.783 1.31996 264.933 1.374C265.191 1.46707 265.538 1.3519 265.804 1.42647C265.968 1.4727 266.132 1.52662 266.424 1.50106C266.961 1.4565 267.509 1.43027 268.051 1.39795C268.248 1.43776 268.445 1.47757 268.647 1.51734C268.958 1.49776 269.269 1.47818 269.58 1.46014C269.811 1.44586 270.047 1.43001 270.278 1.41727C270.354 1.41354 270.434 1.40671 270.505 1.41378C270.577 1.42085 270.635 1.44033 270.702 1.45512C271.034 1.52758 271.034 1.52913 271.572 1.49378C271.803 1.47797 272.024 1.46684 272.223 1.52661C272.406 1.5819 272.62 1.59082 272.865 1.57181C273.327 1.53711 273.794 1.51005 274.266 1.48449C274.412 1.47555 274.551 1.50048 274.677 1.53936C274.865 1.60075 275.092 1.59266 275.323 1.57378C275.629 1.54963 275.931 1.52554 276.197 1.60932C276.25 1.6273 276.332 1.65271 276.389 1.65068C276.776 1.63507 277.168 1.62249 277.545 1.59005C277.922 1.55762 278.113 1.65126 278.376 1.69511C278.763 1.67181 279.154 1.64847 279.541 1.62517C279.617 1.61992 279.706 1.60533 279.772 1.61244C280.054 1.6423 280.222 1.75611 280.603 1.7175C280.825 1.69562 281.065 1.68741 281.297 1.68081C281.359 1.67875 281.441 1.70416 281.485 1.72376C281.509 1.73431 281.487 1.76369 281.46 1.7793C281.378 1.82303 281.276 1.86387 281.204 1.90907C281.195 1.91529 281.286 1.94216 281.339 1.954C281.469 1.98055 281.615 1.97469 281.785 1.96094C281.931 1.94893 282.084 1.96913 282.191 2.01432C282.235 2.03239 282.223 2.06323 282.14 2.16537C282.145 2.24063 282.242 2.20598 282.272 2.15655C282.319 2.08544 282.218 2.06326 282.031 2.10328C281.901 2.13207 281.837 2.17258 281.872 2.20455C281.892 2.22128 281.984 2.24201 282.14 2.16537C282.55 2.06964 282.861 2.05007 283.172 2.03049C283.253 2.0252 283.346 2.00901 283.404 2.01774C283.61 2.05286 283.802 2.09578 284.003 2.13555C284.23 2.12438 284.441 2.09951 284.668 2.1575C284.986 2.2393 285 2.2315 285.301 2.212C285.457 2.20145 285.613 2.19244 285.768 2.18342C285.924 2.1744 286.049 2.19638 286.188 2.23053C286.472 2.30032 286.496 2.30011 286.674 2.20023C286.779 2.13939 286.853 2.11878 286.992 2.14525C287.453 2.23504 287.458 2.24114 287.844 2.21016C288.165 2.18436 288.467 2.17562 288.71 2.26114C288.875 2.3212 288.926 2.30693 289.049 2.24132C289.379 2.06791 289.535 2.06963 290.182 2.18703C290.484 2.24284 290.788 2.17723 291.09 2.16695C291.345 2.15861 291.528 2.19392 291.553 2.29053C291.571 2.35031 291.617 2.39296 291.789 2.41146C291.855 2.41857 291.937 2.42863 292.003 2.42499C292.394 2.40319 292.781 2.37835 293.172 2.35348C293.37 2.34102 293.474 2.26791 293.43 2.173C293.381 2.072 293.454 2.03447 293.736 2.00285C293.905 1.98449 294.043 1.9864 294.182 2.01287C294.335 2.04229 294.295 2.0703 294.166 2.12673C293.858 2.26462 293.901 2.34722 294.315 2.43742C294.459 2.46846 294.574 2.49668 294.611 2.54401C294.631 2.56842 294.614 2.60084 294.658 2.61891C294.897 2.71983 295.223 2.78312 295.586 2.82918C295.929 2.78475 296.17 2.85182 296.439 2.90484C296.65 2.94606 296.894 2.9071 297.115 2.88983C297.365 2.87078 297.574 2.88127 297.758 2.93656C297.888 2.9754 298.022 2.99269 298.178 2.98367C298.489 2.96409 298.805 2.95063 299.111 2.92341C299.375 2.89963 299.576 2.92865 299.745 2.97945C299.958 3.04371 300.187 2.99717 300.405 3.00452C300.699 3.01275 300.855 3.14819 301.236 3.10803C301.462 3.08458 301.698 3.07487 301.934 3.0667C301.995 3.06464 302.073 3.0901 302.126 3.10809C302.383 3.19041 302.676 3.18328 302.996 3.15595C303.217 3.13714 303.434 3.11992 303.656 3.17642C304.022 3.27164 304.426 3.35424 304.81 3.44162C304.867 3.51182 304.835 3.59508 305.107 3.63423C305.251 3.65452 305.385 3.68565 305.497 3.72004C305.632 3.76037 305.756 3.77007 305.925 3.75786C306.232 3.73372 306.553 3.72633 306.854 3.69608C307.132 3.66911 307.31 3.71831 307.484 3.76447C307.624 3.80169 307.753 3.81901 307.917 3.78994C308.085 3.76237 308.209 3.77821 308.35 3.8185C308.547 3.87366 308.561 3.86741 309.206 3.87878C309.272 3.87975 309.354 3.90208 309.394 3.92173C309.413 3.93232 309.373 3.96342 309.341 3.97906C309.299 3.99786 309.234 4.01992 309.173 4.02505C308.475 4.071 307.773 4.11238 307.075 4.15832C307.004 4.16354 306.929 4.17495 306.878 4.19076C306.823 4.20814 306.753 4.23178 306.755 4.25328C306.756 4.26864 306.851 4.28627 306.918 4.29645C307.129 4.32999 307.372 4.27412 307.578 4.31231C307.717 4.33724 307.833 4.37312 307.972 4.39652C308.029 4.40679 308.119 4.40448 308.19 4.4008C308.426 4.38802 308.657 4.37067 308.893 4.35943C308.959 4.35732 309.036 4.37204 309.098 4.3838C309.559 4.47206 309.559 4.47205 309.95 4.44872C310.106 4.4397 310.27 4.41523 310.417 4.42319C310.56 4.43119 310.686 4.4716 310.815 4.49662C311.084 4.54964 311.338 4.60124 311.365 4.72088C311.378 4.76688 311.537 4.80547 311.693 4.8072C311.845 4.80897 312.005 4.79071 312.16 4.78016C312.528 4.75856 312.528 4.75856 313.013 4.84815C313.147 4.87312 313.289 4.87497 313.458 4.85815C313.524 4.85144 313.605 4.8569 313.677 4.86397C313.91 4.88502 313.912 4.91419 313.764 4.97079C313.557 5.05402 313.576 5.06154 314.177 5.12555C314.406 5.14971 314.585 5.19736 314.777 5.23874C315.089 5.30522 315.085 5.30525 314.887 5.39761C314.841 5.41799 314.8 5.43986 314.754 5.46177C314.621 5.52285 314.516 5.58829 314.233 5.59687C313.921 5.6057 313.61 5.63296 313.299 5.65254C312.997 5.67203 312.919 5.70957 312.955 5.81378C312.996 5.93944 313.059 5.95274 313.603 5.94653C313.759 5.94519 313.897 5.9563 314.018 5.99676C313.965 6.04639 313.863 6.08569 313.712 6.0962C313.326 6.12257 312.934 6.14591 312.548 6.16921C312.236 6.18879 311.925 6.20836 311.614 6.22793C311.421 6.24035 311.303 6.32128 311.361 6.40992C311.393 6.46037 311.42 6.51085 311.447 6.56133C311.506 6.66226 311.607 6.68753 311.924 6.6802C312.004 6.67797 312.079 6.66502 312.155 6.66744C312.463 6.67556 312.619 6.80178 312.986 6.7725C313.292 6.74836 313.614 6.74099 313.915 6.71074C314.192 6.68377 314.352 6.73774 314.549 6.77755C314.616 6.7908 314.689 6.81936 314.746 6.81734C315.138 6.79707 315.529 6.77682 315.911 6.74435C316.09 6.73051 316.199 6.73879 316.344 6.77444C316.691 6.8606 316.7 6.85591 317.204 6.82391C317.572 6.79924 317.577 6.80227 318.057 6.89191C318.191 6.91688 318.333 6.91566 318.502 6.90191C318.724 6.88464 318.954 6.85808 319.187 6.87913C319.259 6.88466 319.35 6.90233 319.375 6.92209C319.39 6.93579 319.326 6.97015 319.27 6.98139C318.859 7.06484 318.371 7.0552 317.918 7.09135C317.777 7.10179 317.633 7.07382 317.512 7.03336C317.386 6.99295 317.252 6.97719 317.092 6.98625C316.781 7.00583 316.464 7.0193 316.159 7.04651C315.895 7.07029 315.708 7.03654 315.52 6.99051C315.458 6.97568 315.385 6.9471 315.323 6.94917C314.625 6.9859 313.922 7.02268 313.229 7.07165C312.951 7.09248 312.787 7.04471 312.594 7.00487C312.527 6.99161 312.459 6.963 312.398 6.96506C312.161 6.97323 311.931 6.99212 311.695 7.00643C310.837 7.05991 309.983 7.11334 309.124 7.16373C309.068 7.16729 308.995 7.13564 308.927 7.12239C308.798 7.09584 308.663 7.07086 308.529 7.04589C308.293 7.0602 308.062 7.07755 307.826 7.0888C307.656 7.0964 307.506 7.11922 307.487 7.17779C307.475 7.21631 307.634 7.25029 307.799 7.24579C307.96 7.24134 308.12 7.22153 308.253 7.24036C308.918 7.33301 308.918 7.33455 309.329 7.31105C309.687 7.28954 309.648 7.27449 309.971 7.35625C310.111 7.39194 310.235 7.41239 310.391 7.40184C310.777 7.377 311.169 7.35213 311.56 7.33032C311.622 7.32672 311.703 7.3414 311.765 7.35316C312.236 7.44134 312.236 7.4444 312.618 7.41807C313.117 7.38612 313.136 7.37828 313.478 7.46909C313.714 7.53161 313.924 7.48524 314.147 7.48026C314.406 7.53797 314.689 7.58934 314.926 7.65493C315.206 7.73245 315.493 7.71613 315.804 7.69041C316.035 7.67152 316.262 7.66343 316.455 7.72478C316.639 7.78161 316.857 7.78589 317.102 7.76842C317.324 7.75269 317.549 7.72155 317.783 7.75335C317.845 7.76204 317.941 7.78427 317.938 7.79813C317.934 7.81968 317.875 7.85093 317.814 7.86067C317.383 7.92738 316.905 7.92994 316.448 7.96307C316.386 7.9682 316.305 7.95199 316.242 7.94023C316.108 7.91372 315.978 7.88257 315.848 7.85448C315.617 7.86569 315.381 7.87079 315.155 7.89117C314.98 7.90649 314.848 7.90611 314.717 7.87034C314.597 7.83757 314.466 7.79718 314.324 7.78765C314.181 7.77811 314.017 7.80258 313.861 7.81313C313.706 7.82369 313.526 7.82062 313.404 7.84625C313.283 7.87188 313.211 7.92629 313.133 7.96999C313.046 8.01838 312.924 8.0348 312.745 8.04095C312.579 8.04698 312.447 8.04197 312.321 8.00002C312.267 7.98203 312.195 7.96881 312.123 7.95714C312.056 7.94695 311.98 7.9307 311.918 7.9343C311.215 7.97568 310.518 8.0201 309.815 8.06302C309.466 8.08446 309.471 8.0844 308.736 8.00003C308.669 7.99292 308.588 7.98286 308.522 7.9865C308.13 8.00831 307.743 8.03314 307.352 8.05802C306.956 8.08293 306.96 8.07982 306.277 7.98886C306.153 7.97149 305.975 7.99761 305.828 7.99579C305.519 7.99075 305.359 7.86304 305.001 7.8907C304.695 7.91484 304.373 7.92221 304.068 7.95249C303.79 7.97947 303.626 7.92709 303.434 7.88725C303.366 7.87399 303.293 7.84388 303.237 7.84744C302.534 7.88728 301.836 7.93169 300.899 7.94434C300.667 7.94633 300.773 7.9777 300.926 7.98715C301.144 8.00218 301.213 7.96931 301.091 7.90889C301.003 7.86661 300.878 7.84615 300.779 7.85775C300.728 7.86434 300.664 7.89411 300.899 7.94434C301.149 8.00059 301.137 8.03297 301.181 8.05103C301.288 8.09468 301.436 8.11185 301.587 8.10441C301.823 8.09163 302.054 8.07428 302.29 8.06303C302.356 8.05939 302.437 8.06946 302.499 8.08122C303.026 8.17198 303.032 8.17809 303.583 8.13647C303.757 8.12422 303.885 8.12312 304.024 8.15113C304.216 8.18944 304.358 8.25583 304.645 8.23185C305.027 8.19938 305.419 8.17913 305.81 8.15886C305.872 8.15526 305.94 8.18234 306.011 8.19402C306.208 8.22921 306.355 8.29711 306.641 8.26545C306.862 8.2405 307.103 8.23227 307.34 8.22564C307.401 8.22357 307.497 8.24734 307.527 8.26706C307.586 8.3019 307.518 8.34399 307.359 8.37456C307.294 8.38741 307.204 8.38511 307.128 8.39037C306.817 8.40994 306.506 8.43105 306.194 8.44755C306.029 8.45665 305.875 8.48104 305.859 8.53803C305.848 8.57656 306.02 8.60888 306.181 8.60442C306.418 8.59779 306.653 8.58347 306.879 8.56155C307.279 8.52431 307.63 8.53051 307.963 8.62448C308.2 8.69007 308.184 8.66563 308.443 8.86319C308.508 8.91335 308.693 8.91637 308.854 8.91192C309.242 8.90091 309.423 8.92241 309.393 8.97031C309.354 9.02904 309.218 9.04864 309.044 9.05782C308.732 9.07279 308.421 9.09545 308.11 9.11502C308.034 9.12028 307.95 9.13022 307.879 9.12776C307.808 9.12529 307.74 9.10743 307.678 9.09414C307.543 9.06609 307.426 9.02252 307.284 9.01298C307.141 9.00345 306.977 9.02791 306.821 9.03847C306.666 9.04749 306.502 9.07195 306.359 9.06242C306.216 9.05288 306.095 9.00783 305.965 8.98128C305.903 8.96799 305.825 8.94712 305.764 8.94918C305.453 8.96415 305.141 8.98681 304.83 9.00485C304.448 9.0281 304.448 9.0281 303.978 8.93685C303.843 8.91034 303.706 8.91306 303.532 8.92685C303.155 8.95468 303.15 8.9501 302.453 8.86694C302.386 8.8583 302.305 8.84824 302.239 8.85342C301.536 8.89479 300.838 8.9392 300.14 8.98207C299.541 9.01949 299.541 9.0195 299.22 9.17594C298.982 9.29171 298.977 9.29174 299.222 9.3419C299.419 9.38324 299.598 9.44471 299.813 9.46592C300.013 9.48572 300.255 9.41449 300.477 9.48327C300.588 9.51767 300.733 9.55485 300.871 9.55982C301.089 9.56563 301.318 9.51909 301.531 9.58488C301.637 9.61778 301.796 9.65178 301.928 9.65218C302.16 9.65326 302.395 9.62664 302.626 9.6139C302.697 9.61022 302.778 9.60953 302.844 9.61665C302.916 9.62525 302.979 9.64316 303.041 9.65799C303.234 9.70859 303.439 9.73141 303.684 9.70319C304.083 9.65673 304.444 9.67515 304.763 9.77077C304.807 9.78423 304.911 9.78488 304.977 9.77817C305.146 9.76134 305.293 9.75854 305.423 9.78663C305.476 9.79847 305.553 9.81931 305.544 9.83322C305.532 9.85638 305.477 9.88759 305.416 9.8958C304.974 9.95184 304.497 9.96209 304.04 9.99368C303.978 9.99728 303.901 9.97795 303.839 9.96466C303.704 9.93814 303.588 9.89305 303.445 9.88352C303.302 9.87399 303.138 9.89537 302.982 9.90439C302.827 9.91341 302.663 9.93788 302.52 9.92988C302.377 9.92034 302.242 9.88308 302.126 9.85026C301.991 9.813 301.863 9.8095 301.689 9.82636C301.463 9.84828 301.227 9.85337 300.995 9.86612C300.866 9.83803 300.736 9.80686 300.601 9.78035C300.539 9.76705 300.462 9.75082 300.396 9.75292C300.084 9.76789 299.773 9.78899 299.462 9.80857C299.151 9.82814 299.151 9.82816 298.614 9.73748C298.552 9.72726 298.471 9.71566 298.405 9.7193C298.013 9.7411 297.626 9.76745 297.235 9.78926C297.084 9.79824 296.945 9.77791 296.819 9.7375C296.698 9.69704 296.555 9.67522 296.408 9.68416C295.786 9.72178 295.163 9.75786 294.541 9.80162C294.291 9.81913 294.077 9.80714 293.903 9.75331C293.7 9.69204 293.479 9.70931 293.248 9.72359C292.724 9.75882 292.72 9.75731 292.378 9.68186C292.311 9.66707 292.243 9.63845 292.181 9.64051C291.639 9.66822 291.091 9.69444 290.554 9.73593C290.271 9.75834 290.116 9.70588 289.924 9.66757C289.857 9.65432 289.784 9.62574 289.727 9.6293C289.336 9.64957 288.944 9.6683 288.563 9.70231C288.181 9.73632 288.025 9.59474 287.736 9.59875C287.344 9.60366 286.958 9.64232 286.571 9.66715C286.26 9.68673 285.949 9.7063 285.638 9.72587C285.326 9.74545 285.015 9.76195 284.704 9.78459C284.539 9.79677 284.415 9.784 284.275 9.74678C284.097 9.69759 283.886 9.65946 283.693 9.61501C283.4 9.55144 283.4 9.55143 283.051 9.57286C282.976 9.57812 282.895 9.58188 282.82 9.58714C282.25 9.62584 282.249 9.62278 281.514 9.53227C281.48 9.52794 281.396 9.54558 281.364 9.55815C281.267 9.59894 281.18 9.6427 281.093 9.68495C280.964 9.66147 280.807 9.64899 280.719 9.61439C280.471 9.51662 280.102 9.65657 279.849 9.56038C279.756 9.52429 279.598 9.49337 279.455 9.48538C279.308 9.47742 279.144 9.50035 278.993 9.51086C278.602 9.53727 278.602 9.53574 278.275 9.67533C278.109 9.74437 277.862 9.73419 277.641 9.75146C277.41 9.77034 277.188 9.78147 276.99 9.72016C276.811 9.66483 276.597 9.65284 276.347 9.67342C276.041 9.6991 275.725 9.71564 275.414 9.73214C275.348 9.73579 275.267 9.7288 275.2 9.72015C274.469 9.63575 274.469 9.63422 274.12 9.65719C273.965 9.66774 273.804 9.67218 273.654 9.68731C273.4 9.71408 273.203 9.68349 273.016 9.63592C272.953 9.62109 272.88 9.59253 272.819 9.59459C272.507 9.60495 272.2 9.62141 271.893 9.63788C271.657 9.65066 271.421 9.65883 271.195 9.68229C270.819 9.72086 270.628 9.62259 270.364 9.57875C269.978 9.60205 269.586 9.61924 269.2 9.65022C269.021 9.66405 268.902 9.66047 268.762 9.62478C268.584 9.58021 268.419 9.52937 268.137 9.55484C267.76 9.58881 267.364 9.60298 266.977 9.62474C266.713 9.57936 266.517 9.4842 266.146 9.52274C265.92 9.54619 265.679 9.55287 265.448 9.56715C265.137 9.58672 264.825 9.60478 264.514 9.62589C264.18 9.6472 264.184 9.64256 263.662 9.55636C263.36 9.50516 263.056 9.5677 262.754 9.57951C262.518 9.58922 262.405 9.66089 262.467 9.75103C262.53 9.84116 262.407 9.91291 262.19 9.92707C261.648 9.96092 261.101 9.99634 260.559 10.0271C260.493 10.0308 260.411 10.0207 260.349 10.0105C259.76 9.91871 259.761 9.92026 259.501 9.93632C259.115 9.96269 258.718 9.97837 258.336 10.0108C258.073 10.0331 257.877 10.0025 257.703 9.95175C257.567 9.91295 257.444 9.90479 257.274 9.91547C255.407 10.0345 253.539 10.1458 251.676 10.2678C251.398 10.2855 251.234 10.2424 251.042 10.2025C250.975 10.1893 250.911 10.1606 250.845 10.1612C250.689 10.1625 250.534 10.1777 250.378 10.1883C249.68 10.2311 248.983 10.2817 248.279 10.3154C247.982 10.3302 247.906 10.4016 247.782 10.461C247.686 10.5064 247.574 10.5258 247.399 10.5335C247.229 10.5411 247.106 10.5345 246.97 10.4957C246.796 10.4449 246.6 10.4143 246.337 10.4381C246.031 10.4653 245.719 10.4787 245.403 10.4984C245.243 10.5074 245.121 10.5361 245.073 10.5919C245.064 10.6012 245.165 10.6234 245.223 10.6367C245.415 10.6811 245.599 10.7334 245.814 10.7638C246.034 10.7942 246.268 10.7553 246.495 10.7441C246.575 10.7403 246.65 10.7305 246.726 10.7314C246.797 10.7323 246.883 10.7392 246.936 10.7526C247.186 10.8196 247.45 10.865 247.788 10.8206C248.083 10.8381 248.243 10.9643 248.614 10.9273C248.84 10.9053 249.076 10.8941 249.312 10.8844C249.374 10.8823 249.442 10.9094 249.509 10.9227C249.701 10.9594 249.857 11.0196 250.139 10.991C250.44 10.9608 250.761 10.9534 251.068 10.9293C251.237 10.9155 251.361 10.9252 251.496 10.964C251.67 11.0132 251.867 11.0499 252.13 11.0231C252.356 10.9996 252.597 10.993 252.828 10.9772C253.129 10.9577 253.13 10.9592 253.676 11.0498C253.738 11.06 253.819 11.0716 253.885 11.068C254.277 11.0462 254.663 11.0198 255.055 10.998C255.206 10.989 255.354 11.0077 255.461 11.0514C255.505 11.0694 255.493 11.1003 255.509 11.1263C254.73 11.1745 253.952 11.2165 253.179 11.2738C252.887 11.2963 252.75 11.2345 252.554 11.2008C252.487 11.1891 252.414 11.1636 252.353 11.1672C251.805 11.198 251.263 11.2303 250.721 11.2688C250.551 11.281 250.423 11.276 250.292 11.2325C249.958 11.117 249.565 11.185 249.197 11.205C248.913 11.2198 248.827 11.2681 248.867 11.3692C248.917 11.4887 249.09 11.5241 249.524 11.4988C249.68 11.4898 249.835 11.4777 249.991 11.4702C250.142 11.4628 250.281 11.4816 250.407 11.522C250.528 11.5625 250.671 11.5827 250.817 11.5753C251.129 11.5588 251.445 11.5423 251.746 11.5167C251.996 11.4961 252.205 11.5096 252.384 11.565C252.583 11.6263 252.809 11.6105 253.035 11.5947C253.563 11.5595 253.568 11.561 253.904 11.6349C253.972 11.6497 254.04 11.6783 254.101 11.6763C254.644 11.6486 255.192 11.6239 255.724 11.5824C256.002 11.5616 256.166 11.6094 256.354 11.6477C256.421 11.661 256.489 11.6911 256.551 11.6875C256.942 11.6673 257.334 11.647 257.715 11.6145C257.894 11.5991 258.004 11.6074 258.153 11.643C258.509 11.7306 258.518 11.7275 259.013 11.694C259.164 11.6835 259.329 11.6652 259.472 11.6763C259.614 11.6873 259.731 11.7309 259.865 11.7574C259.928 11.7692 260.005 11.7854 260.071 11.7818C260.382 11.7668 260.693 11.7457 261.005 11.7261C261.297 11.7067 261.297 11.7083 261.852 11.7988C262.078 11.8368 262.307 11.801 262.529 11.7868C262.769 11.7709 262.987 11.7691 263.176 11.8274C263.364 11.8857 263.587 11.8807 263.822 11.8664C264.044 11.8522 264.269 11.8165 264.499 11.856C265.026 11.9468 265.026 11.9483 265.347 11.9271C265.813 11.897 266.276 11.8684 266.747 11.8413C266.809 11.8377 266.89 11.8554 266.953 11.8672C267.087 11.8937 267.204 11.9388 267.347 11.9483C267.489 11.9594 267.654 11.9396 267.805 11.929C268.29 11.8957 268.323 11.8847 268.656 11.9832C268.936 12.0638 269.269 11.9411 269.531 12.0341C269.681 12.0866 269.883 12.1279 270.155 12.0994C270.381 12.076 270.617 12.0678 270.853 12.0535C271.226 12.0303 271.226 12.0319 271.705 12.12C271.768 12.1317 271.849 12.1464 271.911 12.1428C272.222 12.1278 272.539 12.1144 272.84 12.0841C273.192 12.0488 273.423 12.1052 273.692 12.1598C273.904 12.2025 274.147 12.1636 274.369 12.1463C274.609 12.1289 274.827 12.1316 275.011 12.1899C275.204 12.2498 275.426 12.2402 275.662 12.2259C275.884 12.2132 276.109 12.1759 276.339 12.217C276.833 12.308 276.833 12.308 277.186 12.2865C277.498 12.267 277.809 12.2459 278.12 12.2309C278.182 12.2273 278.259 12.2466 278.321 12.2599C278.456 12.2864 278.572 12.3315 278.715 12.3411C278.858 12.3506 279.022 12.3292 279.178 12.3202C279.333 12.3112 279.497 12.2867 279.64 12.2947C279.783 12.3027 279.918 12.34 280.034 12.3728C280.169 12.4116 280.292 12.4151 280.471 12.3982C280.697 12.3763 280.933 12.3697 281.164 12.3569C281.294 12.385 281.429 12.4131 281.554 12.4443C281.684 12.4769 281.821 12.4727 281.995 12.4604C282.575 12.4186 282.58 12.4232 283.074 12.5142C283.299 12.5553 283.529 12.518 283.751 12.5053C283.987 12.491 284.209 12.483 284.397 12.5428C284.581 12.5996 284.804 12.6054 285.039 12.5849C285.19 12.5713 285.35 12.5623 285.506 12.5563C285.577 12.5542 285.663 12.5596 285.716 12.5715C285.971 12.6338 286.221 12.6901 286.564 12.6456C286.867 12.6553 287.027 12.78 287.39 12.7523C287.696 12.7281 288.018 12.7207 288.319 12.6905C288.597 12.6635 288.798 12.7048 288.944 12.7574C289.206 12.8504 289.557 12.7183 289.819 12.8098C289.969 12.8623 290.161 12.9037 290.444 12.8782C290.754 12.851 290.856 12.8824 290.952 12.9783C291.008 13.0332 291.002 13.0778 290.91 13.1216C290.818 13.167 290.714 13.1602 290.559 13.1108C290.38 13.0555 290.171 13.0465 289.921 13.061C289.676 13.0754 289.519 12.9968 289.313 12.9678C289.107 12.9373 288.87 12.9932 288.654 12.9535C288.146 12.8611 288.146 12.8611 287.806 12.8824C287.575 12.8967 287.334 12.9049 287.108 12.9284C286.84 12.9568 286.662 12.9107 286.475 12.8692C286.407 12.8544 286.339 12.8258 286.282 12.8279C285.74 12.8556 285.192 12.8818 284.655 12.9248C284.372 12.9472 284.217 12.8932 284.025 12.8564C283.958 12.8432 283.885 12.8162 283.829 12.8197C283.362 12.8452 282.9 12.8769 282.433 12.907C282.346 12.9492 282.249 12.99 282.167 13.0353C282.08 13.0821 281.958 13.1032 281.778 13.1032C281.48 13.1057 281.191 13.1728 280.887 13.0939C280.574 13.0136 280.551 13.0184 280.254 13.041C279.877 13.0703 279.474 13.0676 279.123 13.1306C279.063 13.1419 278.998 13.1716 279 13.1931C278.996 13.207 279.097 13.2261 279.159 13.2378C279.37 13.2729 279.608 13.2171 279.818 13.2537C279.957 13.2771 280.073 13.313 280.212 13.3379C280.27 13.3482 280.355 13.3459 280.431 13.3437C280.511 13.3415 280.586 13.3301 280.662 13.331C280.733 13.3319 280.809 13.3405 280.867 13.3538C281.131 13.4099 281.409 13.4614 281.646 13.5285C281.878 13.5941 282.088 13.5462 282.315 13.5412C283.231 13.6409 283.231 13.6424 283.839 13.6034C283.99 13.5944 284.145 13.5839 284.302 13.5841C284.368 13.5835 284.431 13.6106 284.499 13.6254C284.691 13.6699 284.874 13.7098 285.137 13.6829C285.363 13.6595 285.604 13.6528 285.835 13.637C286.146 13.6174 286.146 13.6174 286.683 13.7096C286.817 13.7331 286.959 13.7288 287.128 13.7151C287.274 13.703 287.427 13.7248 287.534 13.7684C287.578 13.7865 287.566 13.8173 287.582 13.8433C287.115 13.8719 286.643 13.8929 286.191 13.9336C285.899 13.9592 285.762 13.8943 285.566 13.8606C285.499 13.8489 285.426 13.8234 285.365 13.827C284.902 13.854 284.44 13.8841 283.979 13.9188C283.922 13.9224 283.853 13.9583 283.85 13.9798C283.843 14.0199 283.964 14.0572 284.134 14.0542C284.362 14.0508 284.582 14.0227 284.79 14.084C284.964 14.1378 285.179 14.1606 285.428 14.1338C285.578 14.1187 285.74 14.1173 285.89 14.1037C286.29 14.0634 286.655 14.068 286.965 14.1698C287.199 14.1955 287.424 14.1674 287.646 14.1517C287.81 14.1395 287.971 14.1274 288.091 14.1555C288.346 14.2148 288.596 14.2742 288.939 14.2297C289.316 14.2695 289.606 14.3577 289.923 14.4287C290.072 14.4628 290.187 14.4818 290.356 14.4573C290.426 14.4475 290.512 14.4468 290.587 14.4415C290.743 14.4325 290.907 14.408 291.049 14.416C291.192 14.4255 291.313 14.4691 291.443 14.4956C291.506 14.5089 291.578 14.5313 291.639 14.5293C291.876 14.5196 292.106 14.5022 292.338 14.4879C292.569 14.4752 292.8 14.4625 293.031 14.4497C293.228 14.488 293.429 14.5262 293.626 14.5645C293.937 14.5449 294.249 14.5253 294.555 14.5073C294.9 14.4859 294.9 14.4875 295.403 14.5784C295.628 14.6195 295.863 14.5899 296.075 14.5681C296.428 14.5328 296.668 14.5891 296.923 14.6484C296.976 14.6602 297.071 14.6671 297.132 14.6604C297.377 14.6368 297.591 14.6519 297.775 14.7072C297.905 14.746 298.034 14.7634 298.19 14.7543C298.732 14.7205 299.274 14.6851 299.817 14.6543C299.883 14.6507 299.96 14.6638 300.022 14.6756C300.511 14.7651 300.516 14.7697 300.869 14.7421C301.185 14.7179 301.478 14.7061 301.735 14.7885C301.788 14.8064 301.87 14.8319 301.927 14.8298C302.314 14.8112 302.706 14.7909 303.087 14.7615C303.261 14.7477 303.385 14.7513 303.524 14.7854C303.703 14.8284 303.862 14.8809 304.15 14.8584C304.946 14.7947 304.951 14.8039 305.905 14.9017C305.972 14.9088 306.061 14.8958 306.136 14.889C306.296 14.8723 306.416 14.8928 306.56 14.9269C306.883 15.004 306.892 14.9993 307.194 14.9798C307.424 14.964 307.666 14.9589 307.891 14.9339C308.239 14.8971 308.475 14.955 308.739 15.0096C308.951 15.0524 309.189 15.0134 309.411 14.9977C309.651 14.9803 309.869 14.983 310.053 15.0398C310.179 15.0787 310.313 15.0991 310.469 15.09C311.011 15.0577 311.553 15.0223 312.096 14.99C312.162 14.9864 312.243 14.998 312.305 15.0082C312.851 15.0988 312.852 15.1034 313.384 15.0635C313.554 15.0513 313.695 15.047 313.825 15.0781C313.951 15.1078 314.085 15.1358 314.215 15.1639C314.446 15.1512 314.682 15.1461 314.908 15.1257C315.083 15.1104 315.206 15.1155 315.345 15.1466C315.528 15.1865 315.684 15.2574 315.966 15.2196C316.112 15.2014 316.282 15.2046 316.428 15.188C316.602 15.1665 316.721 15.1778 316.861 15.2165C317.034 15.2627 317.213 15.3103 317.486 15.2834C317.787 15.2532 318.108 15.2458 318.414 15.2216C318.584 15.2079 318.703 15.2192 318.843 15.2579C319.017 15.3072 319.213 15.3377 319.477 15.3155C320.014 15.2725 320.019 15.2801 320.551 15.3724C320.685 15.3958 320.827 15.3915 320.997 15.3778C321.143 15.3658 321.295 15.3875 321.403 15.4311C321.505 15.4794 321.498 15.5102 321.509 15.5363ZM278.4 2.04531C278.244 2.05433 278.088 2.06489 277.852 1.93321C277.837 1.91029 277.844 1.88257 277.81 1.86288C277.731 1.82206 277.611 1.7939 277.469 1.79051C277.213 1.78656 276.908 1.84141 276.916 1.8813C276.923 1.91506 277.005 1.94354 277.163 1.96985C277.23 1.98003 277.284 1.99802 277.346 2.00978C277.528 2.04356 277.675 2.11148 277.933 2.07391C277.879 1.97909 277.906 2.0265 277.933 2.07391C277.913 2.13248 277.987 2.17335 278.158 2.18878C278.206 2.19298 278.277 2.18929 278.314 2.17975C278.459 2.1447 278.479 2.09843 278.362 1.97802C278.344 1.99815 278.361 2.03335 278.404 2.0422C278.448 2.05105 278.551 2.04249 278.602 2.03129C278.733 2.00097 278.797 1.96199 278.761 1.93002C278.741 1.91329 278.65 1.89256 278.593 1.89305C278.494 1.8939 278.406 1.92846 278.4 2.04531ZM317.871 19.5295C317.528 19.5616 317.13 19.5543 316.788 19.6172C316.727 19.6284 316.668 19.6566 316.664 19.6782C316.661 19.692 316.757 19.7112 316.814 19.7215C316.944 19.7449 317.085 19.736 317.25 19.7269C317.5 19.714 317.652 19.7834 317.848 19.8171C317.91 19.8273 317.991 19.8343 318.057 19.8307C318.44 19.8089 318.817 19.7857 319.199 19.7609C319.265 19.7558 319.335 19.7444 319.391 19.7301C319.577 19.6839 319.556 19.6549 319.369 19.6227C319.163 19.5876 318.998 19.5275 318.788 19.5001C318.487 19.4612 318.188 19.5191 317.871 19.5295ZM291.069 20.8814C290.837 20.8957 290.611 20.9099 290.38 20.9242C290.305 20.9294 290.224 20.9317 290.154 20.9384C290.008 20.9504 289.901 20.9836 289.833 21.0349C289.945 21.0739 290.079 21.0958 290.225 21.0899C290.457 21.0787 290.683 21.0568 290.914 21.0502C291.165 21.0419 291.316 21.1098 291.512 21.1435C291.575 21.1537 291.65 21.1546 291.722 21.1555C292.072 21.1586 292.28 21.0769 292.206 20.9654C292.153 20.8782 291.969 20.8276 291.752 20.8402C291.526 20.8529 291.295 20.8672 291.069 20.8814ZM319.337 17.2454C319.392 17.2188 319.452 17.1999 319.479 17.1766C319.559 17.0975 319.522 17.0395 319.362 16.9794C319.167 16.9057 318.939 16.9584 318.726 16.9679C318.674 16.9699 318.62 17.0026 318.593 17.0228C318.575 17.0368 318.577 17.066 318.606 17.0735C318.842 17.1329 319.092 17.1876 319.337 17.2454ZM277.973 13.0605C277.746 13.0748 277.515 13.086 277.289 13.1048C277.233 13.1099 277.182 13.1395 277.151 13.1598C277.092 13.1972 277.161 13.2473 277.356 13.2502C277.578 13.2545 277.809 13.2264 278.04 13.2121C278.332 13.1942 278.503 13.1359 278.391 13.0877C278.284 13.0409 278.141 13.033 277.973 13.0605ZM28.6127 11.916C28.7636 11.907 28.9194 11.8995 29.0701 11.8875C29.2114 11.8755 29.318 11.8408 29.3856 11.7895C29.2646 11.7505 29.1306 11.7302 28.9842 11.736C28.7529 11.7473 28.5265 11.7615 28.3004 11.7788C28.159 11.7892 28.0241 11.8242 27.9945 11.8767C27.964 11.9169 28.2826 11.9373 28.6127 11.916ZM257.72 9.71338C257.782 9.72668 257.846 9.7538 257.907 9.75327C258.058 9.75197 258.214 9.74141 258.355 9.72483C258.416 9.71816 258.462 9.69011 258.489 9.66837C258.507 9.65438 258.5 9.62985 258.471 9.61781C258.329 9.54526 257.781 9.57608 257.697 9.66133C257.689 9.67677 257.714 9.69653 257.72 9.71338ZM242.22 1.43057C242.236 1.45503 242.242 1.47956 242.263 1.50397C242.304 1.54973 242.41 1.58263 242.563 1.60437C242.679 1.56496 242.738 1.52143 242.73 1.47539C242.724 1.45085 242.708 1.42639 242.687 1.40197C242.646 1.35622 242.54 1.32333 242.387 1.30159C242.271 1.33947 242.217 1.38296 242.22 1.43057ZM330.522 20.8103C330.48 20.8306 330.439 20.8509 330.393 20.8698C330.524 20.9132 330.643 20.926 330.731 20.9007C330.787 20.8848 330.819 20.8615 330.86 20.8412C330.729 20.7977 330.615 20.7864 330.522 20.8103ZM327.592 21.0444C327.654 21.0577 327.712 21.0757 327.779 21.0843C327.889 21.0987 327.987 21.0718 328.059 21.0158C327.996 21.0025 327.938 20.9846 327.871 20.9759C327.761 20.9615 327.664 20.9885 327.592 21.0444ZM329.438 20.7473C329.407 20.7845 329.475 20.8146 329.652 20.8392C329.693 20.8189 329.749 20.8 329.776 20.7782C329.821 20.7425 329.738 20.7109 329.566 20.6878C329.52 20.7067 329.479 20.727 329.438 20.7473ZM319.335 19.1773C319.304 19.2144 319.372 19.2446 319.549 19.2692C319.591 19.2489 319.646 19.2299 319.673 19.2082C319.718 19.1725 319.635 19.1409 319.463 19.1178C319.417 19.1366 319.376 19.157 319.335 19.1773ZM304.99 8.42562C304.949 8.44595 304.907 8.46628 304.861 8.48512C304.992 8.52857 305.111 8.54137 305.2 8.51602C305.255 8.50018 305.287 8.47685 305.328 8.45652C305.197 8.41307 305.083 8.40176 304.99 8.42562ZM291.562 2.77149C291.676 2.78127 291.769 2.75896 291.846 2.70144C291.784 2.68814 291.725 2.67019 291.659 2.66155C291.549 2.64712 291.451 2.67409 291.379 2.73004C291.442 2.74487 291.504 2.75815 291.562 2.77149ZM284.613 2.46996C284.572 2.49029 284.531 2.51062 284.485 2.52946C284.615 2.57291 284.735 2.58571 284.823 2.56036C284.879 2.54452 284.91 2.52119 284.952 2.50086C284.821 2.45741 284.706 2.44764 284.613 2.46996ZM237.563 1.469C237.522 1.48933 237.48 1.50967 237.434 1.5285C237.565 1.57195 237.684 1.58475 237.773 1.55941C237.828 1.54356 237.86 1.52024 237.901 1.4999C237.77 1.45646 237.656 1.44668 237.563 1.469ZM4.60141 15.9718C4.53895 15.9585 4.47654 15.9452 4.41871 15.9304C4.28425 15.973 4.24426 16.0118 4.32195 16.0403C4.37053 16.0583 4.44219 16.0685 4.50465 16.0818C4.64384 16.0391 4.67447 16.0019 4.60141 15.9718Z" fill="#FFE492"/>
</svg>
