<svg width="260" height="40" viewBox="0 0 260 40" fill="none" xmlns="http://www.w3.org/2000/svg">
<path d="M244.157 21.4344C243.801 21.4668 243.442 21.4891 243.093 21.5378C242.866 21.5682 242.769 21.479 242.618 21.4324C242.568 21.4162 242.514 21.3837 242.467 21.3878C242.115 21.4202 241.763 21.4567 241.41 21.4932C241.303 21.5723 241.234 21.6777 241.069 21.7162C240.907 21.7527 240.717 21.7527 240.537 21.771C240.3 21.7933 240.062 21.8156 239.825 21.8359C239.706 21.846 239.609 21.8845 239.57 21.9575C239.563 21.9697 239.642 22.0001 239.685 22.0184C239.829 22.0792 239.969 22.1481 240.127 22.1948C240.278 22.2394 240.465 22.1664 240.627 22.2231C240.99 22.3509 240.993 22.3489 241.27 22.3245C241.508 22.3022 241.745 22.2779 241.982 22.2617C242.029 22.2576 242.083 22.288 242.133 22.3043C242.284 22.3489 242.381 22.4502 242.604 22.4117C242.773 22.3813 242.96 22.3752 243.136 22.359C243.284 22.4178 243.42 22.4847 243.578 22.5313C243.726 22.576 243.769 22.6104 243.69 22.6692C243.618 22.724 243.517 22.7463 243.384 22.7503C243.266 22.7524 243.147 22.7706 243.028 22.7807C242.967 22.7868 242.91 22.7909 242.852 22.797C242.626 22.8193 242.626 22.8193 242.212 22.6895C242.05 22.6388 241.867 22.7098 241.712 22.6611C241.608 22.6287 241.518 22.58 241.418 22.5456C241.375 22.5314 241.306 22.5293 241.252 22.5334C241.073 22.5476 240.893 22.5577 240.72 22.5841C240.598 22.6023 240.526 22.6591 240.54 22.7159C240.544 22.7382 240.63 22.7706 240.681 22.7726C240.796 22.7767 240.918 22.7483 241.029 22.7625C241.137 22.7767 241.249 22.8172 241.328 22.8618C241.49 22.9551 241.673 22.872 241.827 22.8963C241.989 22.9227 242.122 23.0038 242.277 23.0525C242.316 23.0646 242.392 23.0443 242.453 23.0382C242.629 23.0241 242.805 23.0119 242.982 22.9977C243.129 23.0565 243.287 23.1092 243.42 23.1761C243.661 23.2978 243.92 23.3444 244.233 23.2856C244.409 23.2532 244.581 23.2653 244.722 23.3444C244.865 23.4255 245.031 23.4174 245.214 23.4012C245.383 23.385 245.556 23.3404 245.728 23.3971C246.102 23.5229 246.106 23.5289 246.548 23.4803C246.681 23.4661 246.782 23.462 246.882 23.5087C246.976 23.5512 247.076 23.5877 247.174 23.6283C247.35 23.6141 247.529 23.5999 247.706 23.5837C247.932 23.5614 248.058 23.5898 248.112 23.7033C248.144 23.7723 248.159 23.8351 248.238 23.8817C248.331 23.9385 248.432 23.9365 248.568 23.9203C248.698 23.9061 248.791 23.8838 248.845 23.8108C248.867 23.7804 248.91 23.752 248.95 23.7276C248.982 23.7094 249.032 23.681 249.061 23.6851C249.115 23.6932 249.187 23.7155 249.205 23.7418C249.381 23.9872 249.381 23.9892 249.561 24.0602C249.758 24.1393 249.963 24.2102 250.143 24.2994C250.305 24.3785 250.467 24.344 250.643 24.344C250.776 24.344 250.862 24.3968 250.851 24.4495C250.844 24.4799 250.794 24.5245 250.751 24.5285C250.398 24.5691 250.043 24.6036 249.687 24.632C249.643 24.636 249.59 24.5995 249.539 24.5813C249.439 24.5448 249.349 24.488 249.241 24.4758C249.133 24.4637 249.007 24.4941 248.888 24.5042C248.77 24.5144 248.644 24.5407 248.536 24.5245C248.428 24.5083 248.342 24.4495 248.241 24.4109C248.195 24.3927 248.13 24.3664 248.09 24.3724C247.828 24.4211 247.634 24.3542 247.447 24.265C247.407 24.2467 247.339 24.2346 247.289 24.2386C246.872 24.2731 246.458 24.3136 246.041 24.3521C245.872 24.3684 245.735 24.2974 245.7 24.1778C245.682 24.1109 245.646 24.0439 245.646 23.977C245.646 23.8554 245.448 23.7885 245.304 23.8027C245.067 23.8229 244.826 23.8392 244.592 23.8696C244.402 23.8939 244.24 23.8696 244.11 23.7966C243.959 23.7134 243.787 23.7297 243.614 23.752C243.485 23.7682 243.449 23.8351 243.456 24.0034C243.463 24.1392 243.402 24.1818 243.168 24.2041C242.874 24.2325 242.575 24.2609 242.277 24.2832C242.23 24.2873 242.176 24.2528 242.13 24.2345C242.029 24.1981 241.939 24.1392 241.831 24.1271C241.723 24.1129 241.597 24.1433 241.479 24.1555C241.36 24.1656 241.234 24.194 241.126 24.1798C241.019 24.1656 240.929 24.1048 240.832 24.0663C240.785 24.048 240.727 24.0216 240.681 24.0257C240.443 24.0419 240.206 24.0663 239.969 24.0886C239.703 24.1129 239.703 24.1129 239.325 23.9872C239.153 23.9304 238.98 23.975 238.811 23.9912C238.631 24.0075 238.462 24.0156 238.322 23.9345C238.229 23.8817 238.124 23.8493 238.013 23.8594C237.715 23.8838 237.42 23.9142 237.121 23.9385C237.071 23.9426 237.003 23.9324 236.963 23.9142C236.773 23.829 236.586 23.7621 236.32 23.8047C236.09 23.8412 235.842 23.8432 235.611 23.8777C235.486 23.8959 235.428 23.9608 235.453 24.0115C235.468 24.0379 235.543 24.0683 235.593 24.0683C235.708 24.0703 235.834 24.0399 235.942 24.0521C236.165 24.0764 236.277 24.2467 236.568 24.2001C236.74 24.1717 236.92 24.1615 237.1 24.1534C237.147 24.1514 237.197 24.1899 237.247 24.2102C237.391 24.265 237.517 24.3359 237.725 24.2994C237.898 24.271 238.081 24.2629 238.257 24.2467C238.538 24.2204 238.538 24.2224 238.901 24.3461C239.074 24.4049 239.246 24.3582 239.415 24.344C239.541 24.3339 239.66 24.3136 239.76 24.342C239.915 24.3846 240.026 24.4819 240.217 24.4758C240.397 24.4697 240.573 24.4414 240.753 24.4312C240.864 24.4251 240.968 24.4576 241.058 24.5123C241.152 24.5671 241.252 24.5914 241.374 24.5792C241.551 24.563 241.73 24.5427 241.91 24.5326C241.96 24.5306 242.018 24.5488 242.065 24.5651C242.165 24.6015 242.262 24.6441 242.36 24.6826C242.536 24.6705 242.716 24.6664 242.888 24.6421C243.021 24.6239 243.115 24.632 243.222 24.6725C243.359 24.7273 243.471 24.8246 243.693 24.778C243.805 24.7557 243.934 24.7617 244.046 24.7415C244.182 24.7151 244.276 24.7252 244.373 24.7861C244.556 24.9016 244.786 24.9037 245.024 24.859C245.283 24.8104 245.477 24.8672 245.671 24.9564C245.876 25.0497 245.876 25.0476 246.034 25.2727C246.081 25.3376 246.214 25.368 246.325 25.3558C246.512 25.3356 246.674 25.3457 246.81 25.4227C246.954 25.5059 247.127 25.4957 247.303 25.4734C247.537 25.443 247.77 25.4167 247.961 25.5343C248.054 25.591 248.155 25.6052 248.281 25.591C248.637 25.5545 248.996 25.5322 249.345 25.4876C249.557 25.4592 249.679 25.5241 249.823 25.5789C250.017 25.6539 250.229 25.7208 250.229 25.881C250.229 25.9073 250.28 25.9377 250.323 25.958C250.416 26.0006 250.517 26.0371 250.614 26.0776C250.758 26.1385 250.898 26.1892 251.096 26.1567C251.268 26.1304 251.452 26.1223 251.628 26.104C251.804 26.0858 251.966 26.0756 252.124 26.1527C252.308 26.2399 252.502 26.323 252.71 26.3879C252.858 26.4345 253.052 26.3554 253.21 26.4183C253.307 26.4568 253.4 26.5014 253.505 26.5339C253.548 26.5481 253.616 26.5379 253.674 26.5339C253.792 26.5257 253.915 26.5197 254.03 26.4994C254.163 26.4771 254.263 26.4812 254.364 26.5278C254.457 26.5704 254.551 26.6292 254.659 26.6413C254.821 26.6596 255 26.5785 255.162 26.6717C255.245 26.7184 255.349 26.763 255.457 26.7772C255.565 26.7914 255.691 26.761 255.806 26.763C255.856 26.763 255.917 26.7954 255.946 26.8218C255.964 26.836 255.939 26.8745 255.914 26.8948C255.881 26.9191 255.834 26.9516 255.788 26.9556C255.432 26.9921 255.076 27.0225 254.72 27.057C254.508 27.0773 254.508 27.0773 254.08 26.9495C253.979 26.9191 253.868 26.9252 253.742 26.9394C253.573 26.9576 253.4 26.9921 253.224 26.9556C252.994 26.8177 252.71 26.8056 252.408 26.8583C252.282 26.8806 252.167 26.8806 252.074 26.8421C251.876 26.765 251.668 26.6941 251.491 26.6028C251.355 26.5319 251.29 26.5258 251.233 26.6231C251.215 26.6535 251.197 26.6859 251.2 26.7143C251.222 26.8157 251.261 26.9151 251.283 27.0164C251.29 27.0448 251.261 27.0773 251.243 27.1077C251.186 27.1929 251.11 27.1868 250.985 27.1158C250.859 27.0448 250.708 26.9982 250.506 27.0306C250.334 27.059 250.147 27.055 249.974 27.0854C249.708 27.13 249.521 27.0651 249.331 26.9779C249.291 26.9597 249.223 26.9495 249.173 26.9536C248.637 27.0002 248.105 27.0529 247.569 27.0996C247.454 27.1097 247.35 27.0793 247.26 27.0246C247.166 26.9698 247.062 26.9414 246.947 26.9516C246.472 26.9941 245.998 27.0327 245.523 27.0854C245.329 27.1077 245.175 27.0813 245.042 27.0103C244.941 26.9576 244.847 26.9414 244.722 26.9475C244.585 26.9536 244.488 26.9739 244.42 27.0327C244.355 27.0894 244.402 27.1239 244.545 27.1685C244.7 27.2172 244.844 27.28 244.991 27.3368C245.11 27.3287 245.229 27.3125 245.344 27.3145C245.394 27.3145 245.441 27.351 245.491 27.3713C245.635 27.4301 245.768 27.4889 245.973 27.4564C246.145 27.428 246.329 27.422 246.505 27.4037C246.749 27.3814 246.749 27.3814 247.145 27.5092C247.245 27.5416 247.353 27.5396 247.483 27.5213C247.594 27.5071 247.709 27.5355 247.788 27.5963C247.821 27.6207 247.81 27.6612 247.742 27.7951C247.742 27.8944 247.817 27.8498 247.842 27.7849C247.882 27.6916 247.806 27.6612 247.662 27.7119C247.562 27.7484 247.512 27.8011 247.537 27.8437C247.551 27.866 247.619 27.8944 247.742 27.7951C248.058 27.6734 248.299 27.6592 248.529 27.6267C248.666 27.6085 248.752 27.6166 248.86 27.6693C248.989 27.7322 249.119 27.7991 249.331 27.7667C249.561 27.7302 249.805 27.7261 250.039 27.6957C250.255 27.6673 250.366 27.7565 250.503 27.8092C250.668 27.8721 250.851 27.8011 251.002 27.8376C251.161 27.8741 251.272 27.9633 251.455 27.9796C251.721 27.9248 251.89 28.0262 252.092 28.0931C252.25 28.1438 252.437 28.0992 252.606 28.0769C252.796 28.0525 252.955 28.0749 253.088 28.1479C253.239 28.231 253.408 28.2127 253.58 28.1945C253.983 28.1539 253.997 28.1478 254.231 28.2594C254.4 28.3405 254.562 28.304 254.731 28.2938C254.878 28.3486 255.022 28.4074 255.176 28.456C255.216 28.4682 255.292 28.4479 255.353 28.4419C255.529 28.4256 255.709 28.4094 255.885 28.3932C256.003 28.3831 256.129 28.3526 256.237 28.3648C256.345 28.379 256.435 28.4378 256.532 28.4763C256.629 28.5149 256.73 28.5534 256.823 28.5939C256.967 28.6548 257.103 28.7055 257.305 28.675C257.477 28.6487 257.657 28.6406 257.837 28.6223C258.063 28.6 258.056 28.6061 258.477 28.7278C258.703 28.7947 258.937 28.7136 259.167 28.7055C259.282 28.7014 259.394 28.7237 259.473 28.7825C259.505 28.8068 259.494 28.8474 259.505 28.8819C258.912 28.9366 258.315 28.9832 257.729 29.0501C257.503 29.0765 257.384 29.0035 257.262 28.9427C257.06 28.8453 256.794 28.9873 256.604 28.8616C256.489 28.7865 256.323 28.744 256.126 28.7805C256.011 28.8008 255.888 28.7987 255.77 28.817C255.468 28.8616 255.191 28.8636 254.95 28.7237C254.867 28.675 254.749 28.6487 254.662 28.602C254.562 28.5514 254.465 28.523 254.346 28.5331C253.81 28.5818 253.278 28.6304 252.746 28.6831C252.699 28.6872 252.653 28.7176 252.613 28.7399C252.512 28.7967 252.545 28.8413 252.707 28.8778C252.76 28.89 252.804 28.9163 252.854 28.9366C252.951 28.9751 253.041 29.0359 253.149 29.0501C253.257 29.0643 253.383 29.0359 253.501 29.0258C253.62 29.0157 253.746 28.9853 253.853 28.9974C253.961 29.0116 254.051 29.0704 254.152 29.1069C254.199 29.1252 254.256 29.1556 254.303 29.1536C254.54 29.1414 254.774 29.1191 255.011 29.1008C255.159 29.1556 255.284 29.2347 255.461 29.2529C255.572 29.2651 255.691 29.2428 255.806 29.2468C255.856 29.2488 255.921 29.2793 255.946 29.3056C255.96 29.3218 255.913 29.3624 255.878 29.3827C255.741 29.4597 255.554 29.4455 255.385 29.4698C255.202 29.4962 255.036 29.4881 254.896 29.409C254.803 29.3563 254.698 29.3279 254.583 29.3381C254.285 29.3644 253.99 29.3948 253.692 29.4172C253.641 29.4212 253.58 29.403 253.533 29.3888C253.156 29.2651 253.156 29.261 252.89 29.2874C252.498 29.3259 252.498 29.3259 252.236 29.2184C252.185 29.1981 252.131 29.1596 252.088 29.1617C251.671 29.1941 251.258 29.2265 250.844 29.2732C250.708 29.2874 250.614 29.2874 250.514 29.2347C250.427 29.1901 250.327 29.1394 250.219 29.1272C250.107 29.115 249.985 29.1454 249.866 29.1556C249.748 29.1657 249.622 29.1921 249.518 29.1759C249.41 29.1596 249.316 29.1029 249.223 29.0623C249.126 29.0197 249.022 29.0217 248.888 29.038C248.479 29.0846 248.475 29.0785 248.069 28.9528C248.022 28.9386 247.961 28.9224 247.911 28.9265C247.612 28.9508 247.317 28.9812 247.019 29.0055C246.904 29.0157 246.792 28.9893 246.713 28.9305C246.681 28.9062 246.692 28.8656 246.67 28.7865C246.645 28.7683 246.674 28.8008 246.681 28.8312C246.735 28.8271 246.8 28.8312 246.839 28.8149C246.94 28.7764 246.99 28.7257 246.965 28.6831C246.951 28.6608 246.882 28.6324 246.839 28.6324C246.76 28.6324 246.692 28.677 246.67 28.7865C246.444 28.8535 246.203 28.8677 245.969 28.9001C245.833 28.9204 245.746 28.9102 245.638 28.8575C245.509 28.7926 245.376 28.7298 245.164 28.7622C244.934 28.7987 244.689 28.8048 244.452 28.8332C244.179 28.8656 244.06 28.6831 243.83 28.6872C243.593 28.6912 243.355 28.7257 243.118 28.7501C242.91 28.7703 242.91 28.7703 242.478 28.6385C242.32 28.5899 242.133 28.6608 241.979 28.6101C241.874 28.5777 241.784 28.529 241.684 28.4946C241.641 28.4804 241.572 28.4804 241.518 28.4844C241.22 28.5088 240.918 28.525 240.63 28.5696C240.303 28.6223 240.055 28.5655 239.821 28.4459C239.527 28.4682 239.228 28.4804 238.937 28.5189C238.725 28.5473 238.603 28.4804 238.459 28.4256C238.408 28.4074 238.365 28.377 238.311 28.3689C238.258 28.3608 238.193 28.377 238.135 28.383C237.898 28.4053 237.653 28.4155 237.423 28.452C237.139 28.4986 237.031 28.3324 236.812 28.3121C236.665 28.4114 236.586 28.5473 236.294 28.5574C236.057 28.5655 235.82 28.598 235.583 28.6203C235.464 28.6304 235.345 28.6426 235.227 28.6527C235.036 28.671 234.946 28.7501 234.986 28.8717C235.007 28.9386 235.025 29.0055 235.043 29.0724C235.079 29.1921 234.989 29.2935 234.838 29.3077C234.421 29.3462 234.008 29.3867 233.591 29.4212C233.479 29.4313 233.372 29.3969 233.282 29.3421C233.188 29.2874 233.084 29.263 232.969 29.2732C232.552 29.3117 232.138 29.3523 231.721 29.3867C231.675 29.3908 231.614 29.3705 231.567 29.3543C231.466 29.3178 231.369 29.2752 231.272 29.2367C231.035 29.2549 230.801 29.2671 230.567 29.2914C230.19 29.3279 230.19 29.3299 229.913 29.2184C229.863 29.1981 229.812 29.1596 229.766 29.1617C229.586 29.1698 229.41 29.1901 229.23 29.2083C228.701 29.261 228.701 29.261 228.547 29.2002C228.407 29.1434 228.281 29.0745 228.069 29.1069C227.839 29.1434 227.594 29.1556 227.357 29.1759C227.181 29.19 227.004 29.2063 226.828 29.2103C226.782 29.2124 226.731 29.1738 226.681 29.1536C226.537 29.0907 226.397 29.04 226.199 29.0745C226.084 29.0947 225.962 29.0988 225.843 29.1089C225.534 29.1373 225.534 29.1373 225.027 29.0157C224.977 29.0035 224.916 28.9893 224.865 28.9954C224.448 29.0319 224.035 29.0725 223.618 29.1069C223.567 29.111 223.506 29.0988 223.456 29.0887C222.888 28.9711 222.888 28.9711 222.284 29.0278C222.054 29.0481 222.047 29.0562 221.806 28.9488C221.698 28.9021 221.608 28.8798 221.482 28.894C221.008 28.9427 220.53 28.9751 220.059 29.0319C219.846 29.0562 219.724 28.9954 219.58 28.9406C219.53 28.9224 219.476 28.8819 219.433 28.8839C218.958 28.9224 218.484 28.969 218.009 29.0076C217.966 29.0116 217.912 28.9711 217.862 28.9528C217.765 28.9163 217.671 28.8616 217.563 28.8494C217.452 28.8372 217.33 28.8677 217.208 28.8778C216.909 28.9042 216.909 28.9021 216.564 28.7825C216.517 28.7663 216.456 28.744 216.409 28.748C215.935 28.7886 215.457 28.8231 214.986 28.8819C214.716 28.9143 214.533 28.8555 214.342 28.7703C214.303 28.7521 214.234 28.744 214.184 28.748C213.648 28.7947 213.116 28.8474 212.581 28.894C212.469 28.9041 212.361 28.8697 212.271 28.817C212.128 28.7338 211.959 28.744 211.779 28.7622C211.365 28.8048 211.362 28.8028 211.117 28.7055C211.067 28.6852 211.024 28.6588 210.97 28.6487C210.92 28.6385 210.855 28.6446 210.801 28.6487C210.564 28.669 210.326 28.6912 210.089 28.7135C209.852 28.7359 209.611 28.748 209.377 28.7825C209.09 28.8251 208.953 28.6933 208.752 28.6324C208.457 28.6588 208.155 28.675 207.864 28.7176C207.641 28.75 207.537 28.6608 207.389 28.6142C207.339 28.598 207.285 28.5635 207.238 28.5676C206.702 28.6122 206.167 28.6608 205.635 28.7156C205.505 28.7277 205.419 28.7115 205.311 28.6629C205.07 28.5534 205.059 28.5574 204.657 28.598C204.481 28.6162 204.312 28.6325 204.161 28.5493C204.028 28.4743 203.866 28.456 203.675 28.4804C203.442 28.5108 203.201 28.527 202.963 28.5473C202.726 28.5696 202.489 28.6 202.252 28.6101C202.061 28.6203 201.946 28.525 201.795 28.4763C201.748 28.4621 201.684 28.4601 201.63 28.4642C201.392 28.4824 201.148 28.4966 200.918 28.5311C200.637 28.5736 200.483 28.4621 200.285 28.3973C200.242 28.3831 200.17 28.3912 200.116 28.3973C199.699 28.4338 199.285 28.4743 198.868 28.5128C198.721 28.4581 198.57 28.4054 198.423 28.3506C198.185 28.3709 197.948 28.3932 197.711 28.4135C197.531 28.4297 197.348 28.4358 197.179 28.4662C196.959 28.5067 196.852 28.4114 196.704 28.3648C196.654 28.3486 196.6 28.3141 196.553 28.3182C196.255 28.3405 195.956 28.3648 195.662 28.3993C195.381 28.4338 195.27 28.2512 195.04 28.2533C194.802 28.2553 194.558 28.2817 194.328 28.3182C194.062 28.3608 193.875 28.2959 193.684 28.2087C193.645 28.1904 193.576 28.1803 193.526 28.1843C193.228 28.2087 192.933 28.2391 192.634 28.2634C192.584 28.2675 192.523 28.2573 192.473 28.2452C191.905 28.1256 191.905 28.1235 191.657 28.1479C191.48 28.1641 191.301 28.1844 191.121 28.1945C191.071 28.1985 191.009 28.1803 190.963 28.1641C190.589 28.0404 190.589 28.0384 190.319 28.0627C190.082 28.085 189.844 28.1073 189.607 28.1296C189.46 28.0748 189.309 28.0221 189.161 27.9674C188.867 27.9938 188.565 28.014 188.273 28.0505C188.137 28.0667 188.047 28.0607 187.943 28.01C187.813 27.9491 187.684 27.8782 187.468 27.9126C187.238 27.9491 186.994 27.9532 186.76 27.9836C186.479 28.0201 186.364 27.8356 186.138 27.8376C185.901 27.8397 185.656 27.866 185.426 27.9025C185.16 27.9451 184.973 27.8802 184.782 27.793C184.743 27.7748 184.675 27.7646 184.624 27.7687C183.97 27.8275 183.319 27.8863 182.665 27.9491C182.262 27.9877 182.262 27.9897 181.496 27.8782C181.443 27.8701 181.385 27.862 181.331 27.866C181.094 27.8843 180.849 27.8985 180.619 27.9329C180.339 27.9755 180.184 27.866 179.986 27.7991C179.943 27.7849 179.875 27.793 179.817 27.7971C179.638 27.8113 179.462 27.8295 179.282 27.8457C179.045 27.8681 178.807 27.8903 178.57 27.9126C178.423 27.8599 178.272 27.8052 178.124 27.7525C177.829 27.7788 177.527 27.793 177.236 27.8356C177.013 27.868 176.909 27.7829 176.762 27.7342C176.711 27.718 176.657 27.6835 176.611 27.6856C176.075 27.7302 175.539 27.7768 175.007 27.8336C174.788 27.8579 174.687 27.7666 174.54 27.72C174.489 27.7058 174.432 27.6795 174.385 27.6835C174.029 27.7119 173.673 27.7464 173.317 27.7808C173.116 27.8011 173.116 27.8011 172.677 27.6754C172.627 27.6612 172.57 27.647 172.519 27.6511C171.39 27.7525 170.265 27.8599 169.136 27.9613C169.021 27.9714 168.917 27.941 168.827 27.8863C168.734 27.8315 168.629 27.8032 168.514 27.8133C168.04 27.8559 167.561 27.8944 167.09 27.9471C166.896 27.9694 166.742 27.9431 166.609 27.8721C166.508 27.8194 166.415 27.7991 166.289 27.8113C166.051 27.8356 165.814 27.8559 165.577 27.8782C165.34 27.9005 165.102 27.9228 164.865 27.9451C164.628 27.9674 164.387 27.9796 164.153 28.014C163.866 28.0566 163.725 27.9309 163.528 27.868C163.172 27.8985 162.816 27.9289 162.463 27.9613C161.989 28.0039 161.514 28.0505 161.04 28.0911C160.997 28.0951 160.943 28.0586 160.892 28.0404C160.745 27.9897 160.637 27.9187 160.418 27.941C159.354 28.0485 158.282 28.1397 157.214 28.2452C156.992 28.2675 156.895 28.1803 156.743 28.1337C156.693 28.1195 156.636 28.0911 156.589 28.0951C155.996 28.1458 155.403 28.2026 154.809 28.2573C154.568 28.2796 154.568 28.2796 154.166 28.1539C154.119 28.1397 154.058 28.1215 154.008 28.1255C153.235 28.1945 152.465 28.2675 151.692 28.3384C151.577 28.3486 151.473 28.3202 151.38 28.2655C151.29 28.2107 151.182 28.1803 151.07 28.1904C150.358 28.2553 149.643 28.3182 148.935 28.3891C148.744 28.4094 148.586 28.3912 148.449 28.3182C148.352 28.2655 148.255 28.2431 148.133 28.2553C147.065 28.3547 145.997 28.45 144.93 28.5554C144.725 28.5757 144.581 28.5372 144.452 28.4702C144.347 28.4175 144.257 28.4074 144.128 28.4155C143.991 28.4256 143.909 28.4479 143.833 28.5088C143.736 28.5878 143.675 28.6872 143.445 28.6933C143.208 28.6994 142.967 28.7237 142.733 28.7582C142.51 28.7926 142.406 28.7014 142.266 28.6466C142.161 28.6081 142.064 28.602 141.931 28.6203C141.809 28.6365 141.734 28.671 141.662 28.7358C141.503 28.8737 141.489 28.8737 141.295 28.7865C141.191 28.7399 141.097 28.7034 140.982 28.7115C140.508 28.7521 140.033 28.7967 139.558 28.8433C139.285 28.8697 139.282 28.8737 139.077 28.7724C138.976 28.7217 138.879 28.6973 138.76 28.7095C137.455 28.8311 136.15 28.9488 134.845 29.0765C134.644 29.0968 134.507 29.0542 134.363 28.9934C134.317 28.9731 134.27 28.9447 134.216 28.9366C134.162 28.9285 134.101 28.9366 134.043 28.9406C133.094 29.0278 132.142 29.111 131.196 29.2083C130.98 29.2306 130.865 29.1657 130.718 29.113C130.668 29.0948 130.624 29.0664 130.57 29.0583C130.517 29.0522 130.452 29.0664 130.394 29.0724C129.445 29.1596 128.492 29.2428 127.547 29.3401C127.32 29.3624 127.223 29.2772 127.076 29.2326C127.026 29.2164 126.972 29.186 126.925 29.19C126.627 29.2123 126.332 29.2428 126.033 29.2691C125.321 29.336 124.61 29.3989 123.898 29.4678C123.624 29.4942 123.506 29.3137 123.276 29.3218C122.977 29.332 122.683 29.3725 122.384 29.4009C122.147 29.4232 121.91 29.4435 121.672 29.4678C121.439 29.4901 121.439 29.4901 120.856 29.3725C120.806 29.3624 120.745 29.3482 120.694 29.3523C119.864 29.4273 119.03 29.5023 118.203 29.5834C118.012 29.6017 117.854 29.5915 117.718 29.5165C117.621 29.4638 117.52 29.4374 117.401 29.4496C116.154 29.5651 114.91 29.6807 113.662 29.7943C113.615 29.7983 113.554 29.7781 113.508 29.7618C113.407 29.7253 113.31 29.6828 113.213 29.6442C113.141 29.6909 113.047 29.7334 113.001 29.7862C112.936 29.8571 112.85 29.8774 112.713 29.8896C112.576 29.9017 112.49 29.8977 112.382 29.845C112.253 29.7801 112.12 29.7294 111.908 29.7497C110.603 29.8774 109.298 29.993 107.993 30.1187C107.777 30.139 107.676 30.0497 107.525 30.0031C107.475 29.9889 107.417 29.9666 107.371 29.9707C106.835 30.0173 106.303 30.068 105.767 30.1167C104.282 30.2545 102.798 30.3864 101.316 30.5323C101.047 30.5587 100.863 30.508 100.673 30.4208C100.633 30.4026 100.565 30.3924 100.515 30.3965C98.4366 30.5871 96.3585 30.7797 94.2841 30.9723C94.1727 30.9825 94.0648 30.95 93.9749 30.8973C93.8814 30.8426 93.7772 30.8162 93.6621 30.8263C92.713 30.9135 91.7639 31.0007 90.8148 31.0899C90.5775 31.1122 90.5739 31.1142 90.3294 31.0169C90.2791 30.9966 90.2252 30.9581 90.1856 30.9622C90.1029 30.9723 90.0238 31.023 89.9663 31.0919C89.9087 31.1649 89.8189 31.1852 89.6858 31.1994C89.5492 31.2136 89.4594 31.2075 89.3551 31.1589C89.2221 31.098 89.0998 31.0392 88.8841 31.0595C86.1554 31.3191 83.4266 31.5684 80.6978 31.8259C80.4785 31.8462 80.3778 31.7611 80.2268 31.7144C80.1765 31.7002 80.1262 31.68 80.0723 31.6759C80.0147 31.6718 79.9536 31.684 79.8961 31.6901C75.4453 32.1017 70.9944 32.5153 66.5436 32.9269C66.2775 32.9513 66.2811 32.9513 65.9899 33.1378C65.954 33.1601 65.9072 33.1905 65.8568 33.1946C64.4943 33.3243 63.1281 33.4501 61.7619 33.5758C61.1687 33.6305 60.5756 33.6873 59.9823 33.74C59.7702 33.7583 59.7702 33.7583 59.2633 33.9773C59.2202 33.9955 59.1698 34.0198 59.1194 34.0239C56.7466 34.2449 54.3738 34.4659 51.9973 34.6829C51.8104 34.6991 51.6594 34.7356 51.5731 34.8329C51.512 34.9019 51.4329 34.9424 51.3143 34.9546C49.6533 35.1087 47.9924 35.2648 46.3278 35.4148C46.13 35.4331 46.0113 35.4899 45.9143 35.575C45.8819 35.6034 45.8531 35.6358 45.8064 35.6561C45.7633 35.6744 45.6986 35.6804 45.6446 35.6865C44.2209 35.8183 42.7973 35.9542 41.37 36.0799C41.1579 36.0982 41.0715 36.1732 40.9673 36.2522C40.9313 36.2786 40.9061 36.3151 40.8594 36.3334C40.8127 36.3496 40.7444 36.3496 40.6868 36.3536C39.5004 36.4631 38.314 36.5746 37.1276 36.6841C36.8975 36.674 36.8472 36.7916 36.7357 36.8626C36.6962 36.8869 36.6675 36.9193 36.6207 36.9356C36.5704 36.9518 36.5056 36.9497 36.4445 36.9538C35.4954 37.041 34.5463 37.1343 33.5935 37.2154C33.3742 37.2336 33.3311 37.337 33.2124 37.408C33.1729 37.4303 33.1334 37.4648 33.0866 37.4708C32.4934 37.5296 31.9002 37.5844 31.307 37.6371C31.1093 37.6553 31.1093 37.6533 30.7605 37.8541C30.721 37.8764 30.6742 37.9007 30.6239 37.9068C29.7359 37.9919 28.8443 38.073 27.9527 38.1562C27.8376 38.1663 27.7586 38.215 27.701 38.2839C27.6435 38.3529 27.5608 38.3975 27.4458 38.4076C26.7339 38.4745 26.022 38.5434 25.3102 38.6043C25.1124 38.6205 24.983 38.6712 24.8968 38.7624C24.832 38.8314 24.7529 38.8658 24.6271 38.878C23.9153 38.9429 23.2034 39.0139 22.488 39.0706C22.2795 39.0869 22.1716 39.1558 22.0853 39.241C22.017 39.3099 21.9379 39.3342 21.8048 39.3464C20.4998 39.464 19.1912 39.5816 17.8897 39.7113C17.6704 39.7337 17.5589 39.6627 17.4151 39.612C17.2102 39.541 17.0197 39.464 17.0197 39.3058C17.0197 39.2815 16.9586 39.2531 16.9154 39.2328C16.5955 39.0808 16.5954 39.0808 16.5451 38.9186C16.5164 38.8192 16.484 38.7178 16.4588 38.6165C16.4121 38.4502 16.297 38.4076 15.9662 38.438C15.8476 38.4482 15.729 38.4623 15.6103 38.4704C15.4342 38.4846 15.3012 38.4177 15.2688 38.2961C15.2508 38.2292 15.2293 38.1623 15.2113 38.0953C15.3911 38.0791 15.3874 38.0771 15.7038 37.8318C15.8368 37.7284 15.8369 37.7284 15.5816 37.6249C15.4846 37.5864 15.3911 37.5438 15.2868 37.5073C15.2401 37.4911 15.179 37.481 15.1286 37.485C14.8302 37.5094 14.5354 37.5378 14.2406 37.5661C13.7661 37.6107 13.766 37.6107 13.2842 37.4039C13.2447 37.3877 13.1836 37.3573 13.1908 37.3411C13.2303 37.2661 13.3274 37.2336 13.4496 37.2255C13.6294 37.2133 13.8055 37.193 13.9817 37.1768C14.1003 37.1667 14.219 37.1545 14.3376 37.1444C14.4491 37.0674 14.5642 36.9923 14.6684 36.9132C14.8338 36.7916 14.8338 36.7875 14.6073 36.7024C14.4634 36.6456 14.3089 36.5949 14.1615 36.5422C13.9853 36.5584 13.8055 36.5766 13.6294 36.5908C13.4065 36.6091 13.3166 36.5706 13.2591 36.4388C13.2087 36.3232 13.2698 36.2239 13.4424 36.1995C13.6186 36.1752 13.784 36.159 13.8739 36.0556C13.9602 35.9562 14.1112 35.9177 14.2981 35.9096C14.4168 35.9035 14.5354 35.8893 14.654 35.8771C14.8086 35.8609 14.8913 35.7575 14.859 35.6419C14.841 35.5669 14.805 35.5041 14.6648 35.4878C14.0429 35.4169 14.0356 35.4189 13.7264 35.281C13.6977 35.2688 13.6762 35.2324 13.6869 35.2141C13.7049 35.1837 13.7445 35.1391 13.7876 35.133C14.2011 35.0884 14.6145 35.0478 15.028 35.0174C15.1646 35.0073 15.2652 34.9931 15.312 34.9181C15.3767 34.8146 15.3479 34.7194 15.2221 34.6484C15.1826 34.6261 15.1178 34.5977 15.0746 34.5997C14.6001 34.6362 14.1291 34.6829 13.6546 34.7194C13.6114 34.7234 13.5324 34.689 13.5144 34.6626C13.4784 34.6139 13.5323 34.549 13.6582 34.5267C13.8235 34.4963 13.9925 34.4943 14.104 34.3929C14.2586 34.2489 14.4491 34.1172 14.6216 33.9793C14.6504 33.955 14.6972 33.9083 14.6864 33.9042C14.5965 33.8596 14.4923 33.8252 14.3988 33.7826C14.2406 33.7116 14.2406 33.6123 14.2765 33.517C14.3053 33.4399 14.4131 33.4095 14.5462 33.4095C14.6037 33.4095 14.6756 33.4095 14.7223 33.3913C14.8446 33.3467 14.8841 33.2899 14.823 33.2473C14.787 33.223 14.7224 33.1885 14.6792 33.1926C13.9099 33.2595 13.1368 33.3244 12.371 33.4075C12.1446 33.4318 12.0404 33.3548 11.9037 33.3C11.7995 33.2574 11.7024 33.2412 11.5729 33.2716C11.4507 33.3 11.3321 33.2838 11.2566 33.2169C11.1955 33.1622 11.3033 33.1155 11.5945 33.0628C11.6484 33.0527 11.7095 33.0466 11.7491 33.0263C12.1661 32.8073 12.1661 32.8053 12.4537 32.7769C12.7342 32.7505 12.7342 32.7485 12.8816 32.6309C12.9499 32.5762 13.0254 32.5214 13.0901 32.4646C13.1153 32.4423 13.1585 32.4018 13.1441 32.3896C13.065 32.3268 12.9571 32.3126 12.8312 32.3268C12.5508 32.3612 12.2201 32.3329 12.0727 32.5255C12.0152 32.5985 11.9253 32.6188 11.7959 32.6309C10.4944 32.7485 9.1929 32.8742 7.88785 32.9878C7.67573 33.006 7.57872 33.0811 7.49603 33.1642C7.42412 33.2331 7.34501 33.2534 7.20839 33.2656C7.07177 33.2777 6.96387 33.2838 6.88477 33.2169C6.83803 33.1764 6.87759 33.1196 6.98545 33.0628C7.14004 32.9817 7.11127 32.8803 7.06093 32.785C7.02498 32.7222 6.91353 32.6776 6.79489 32.6816C6.61873 32.6897 6.4498 32.712 6.3024 32.6309C6.21611 32.5843 6.10823 32.5518 6.01116 32.5113C5.82421 32.4281 5.63726 32.343 5.37481 32.3977C5.19505 32.3775 5.06921 32.3045 4.92541 32.2477C4.68453 32.1544 4.66296 32.1402 4.83553 32.0409C5.02967 31.9294 4.87864 31.7834 4.9865 31.6739C5.10154 31.5563 5.25978 31.4529 5.4 31.3434C5.43595 31.315 5.46832 31.2886 5.50427 31.2603C5.42158 31.2197 5.3461 31.169 5.24903 31.1406C5.12319 31.1041 5.05848 31.0595 5.06567 30.9338C5.0405 30.9156 5.05121 30.9622 5.07997 30.9743C5.11233 30.9865 5.19149 30.9764 5.23103 30.9622C5.3317 30.9237 5.38198 30.873 5.35681 30.8304C5.34243 30.8081 5.27418 30.7797 5.23103 30.7797C5.15194 30.7797 5.08364 30.8243 5.06207 30.9338C4.65941 31.0169 4.2423 31.0575 3.82525 31.0899C3.78211 31.094 3.72821 31.0534 3.67788 31.0332C3.5125 30.9642 3.51248 30.9662 3.02713 30.946C2.9768 30.9439 2.90852 30.9156 2.88336 30.8872C2.7791 30.7635 2.78272 30.6276 2.73239 30.4958C2.82586 30.4107 2.91926 30.3275 3.01633 30.2444C3.21047 30.0761 3.46219 29.9281 3.61319 29.7436C3.58084 29.6442 3.53769 29.5449 3.69588 29.4638C4.14528 29.3624 4.14171 29.3624 4.26395 29.2651C4.61268 28.9893 4.9578 28.7115 5.32091 28.4398C5.41798 28.3689 5.418 28.3303 5.24543 28.2999C5.1915 28.2918 5.1339 28.2898 5.07638 28.2938C4.89662 28.308 4.71686 28.3445 4.54069 28.3364C4.36453 28.3303 4.2351 28.2411 4.09129 28.1864C3.94389 28.1296 3.7965 28.0708 3.64909 28.012C3.48012 28.0181 3.31118 28.0749 3.1422 27.9836C3.01277 27.9126 2.851 27.862 2.7036 27.8032C2.81505 27.6491 3.0236 27.5314 3.18539 27.3956C3.33279 27.2719 3.3363 27.274 3.73178 27.1787C3.91873 27.134 3.98344 26.9049 3.82525 26.838C3.63471 26.7569 3.43342 26.6819 3.23928 26.6048C3.0703 26.6109 2.89777 26.6657 2.73599 26.5744C2.61015 26.5055 2.46632 26.4588 2.2578 26.4852C1.90547 26.5298 1.54596 26.5521 1.19003 26.5886C1.0678 26.6008 0.934734 26.5927 0.880806 26.5237C0.844854 26.4751 0.949122 26.4082 1.06776 26.394C1.24752 26.3737 1.40929 26.3494 1.49917 26.248C1.58545 26.1466 1.74363 26.1162 1.93058 26.102C1.98091 26.0979 2.03847 26.0736 2.06364 26.0493C2.19307 25.9317 2.33689 25.8303 2.61372 25.8343C2.72876 25.7938 2.78984 25.7431 2.75389 25.6944C2.73232 25.6681 2.65686 25.6336 2.61372 25.6377C2.31532 25.6579 2.01692 25.6782 1.72571 25.7147C1.5891 25.7309 1.48478 25.735 1.39849 25.6742C1.33738 25.6336 1.36973 25.5789 1.48478 25.5201C1.58544 25.4694 1.61423 25.4106 1.60704 25.3416C1.58907 25.1814 1.48119 25.1348 1.13605 25.1449C0.887983 25.1531 0.826861 25.1267 0.772933 24.9888C0.758552 24.9564 0.722663 24.9118 0.74783 24.8895C0.902423 24.7516 1.0031 24.5813 1.29431 24.5164C1.40935 24.4921 1.53154 24.4921 1.60344 24.4393C1.67535 24.3866 1.74009 24.3258 1.81559 24.2751C1.90907 24.2143 1.97372 24.1575 1.93058 24.119C1.85867 24.05 1.74366 24.044 1.61064 24.0683C1.4956 24.0886 1.37336 24.0906 1.25472 24.1027C1.0426 24.1251 0.870073 24.0723 0.844907 23.9831C0.776598 23.7479 0.704673 23.5148 0.643555 23.2795C0.636364 23.2512 0.654291 23.2147 0.683053 23.1903C0.783718 23.1052 0.891617 23.0241 0.995877 22.9409C1.11811 22.8456 1.31229 22.8639 1.47767 22.8456C1.71135 22.8193 1.71127 22.8213 2.02406 22.6266C2.14629 22.5496 2.35842 22.58 2.48425 22.5111C2.5238 22.4888 2.58492 22.4523 2.57413 22.432C2.55975 22.4056 2.48789 22.3853 2.43396 22.3732C2.38362 22.361 2.32252 22.3549 2.26859 22.361C1.61427 22.4198 0.963552 22.4827 0.309226 22.5395C0.197775 22.5496 0.0755343 22.505 0.0359871 22.4421C-0.00356009 22.3833 0.0071904 22.3124 0 22.2454C0.104261 22.1623 0.222857 22.0853 0.312737 21.996C0.381046 21.9271 0.460154 21.8967 0.596772 21.8926C0.776532 21.8866 0.952714 21.8622 1.15404 21.844C1.52795 21.5479 1.89463 21.2377 2.29729 20.9417C2.45908 20.8221 2.41959 20.7004 2.45195 20.5727C2.48431 20.4551 2.72517 20.4733 2.88696 20.4389C3.01638 20.4105 3.05947 20.3456 3.00914 20.301C2.98037 20.2746 2.9157 20.2442 2.86536 20.2442C2.74672 20.2442 2.62808 20.2624 2.50944 20.2726C2.3908 20.2827 2.25419 20.2766 2.15712 20.3111C2.06364 20.3436 2.00249 20.4125 1.94137 20.4713C1.87306 20.5362 1.78325 20.5585 1.64663 20.5625C1.47046 20.5666 1.29431 20.5848 1.11815 20.599C0.924005 20.5199 0.722632 20.4429 0.535681 20.3598C0.499729 20.3436 0.4925 20.2969 0.496095 20.2665C0.503286 20.1874 0.449372 20.1388 0.33073 20.1002C0.230065 20.0678 0.147368 20.0212 0.0538929 19.9806C0.125797 19.9259 0.204919 19.8731 0.262443 19.8143C0.388275 19.6906 0.546481 19.6014 0.819716 19.6055C0.927572 19.5264 1.01383 19.4291 1.15404 19.3744C1.28707 19.3216 1.51358 19.3743 1.61424 19.2547C1.66457 19.1959 1.74012 19.129 1.83719 19.1047C1.99178 19.0661 2.19311 19.0864 2.28299 18.9729C2.33691 18.908 2.41598 18.8492 2.52024 18.833C2.63888 18.8147 2.76109 18.8107 2.84737 18.7722C2.89411 18.7519 2.94445 18.7194 2.94445 18.691C2.94445 18.6728 2.8726 18.6444 2.82227 18.6322C2.77553 18.618 2.71434 18.6079 2.66041 18.612C2.48065 18.6241 2.30449 18.6464 2.12473 18.6586C2.0744 18.6627 2.01689 18.6485 1.96296 18.6363C1.80478 18.6039 1.81554 18.5633 1.94137 18.4903C2.0672 18.4193 2.15713 18.3281 2.26139 18.245C2.37644 18.2308 2.52023 18.2368 2.59932 18.1983C2.73234 18.1355 2.8258 18.0442 2.93365 17.9651C3.05229 17.953 3.17452 17.9489 3.28597 17.9266C3.33271 17.9185 3.3543 17.8739 3.39385 17.8476C3.46575 17.7969 3.52692 17.7239 3.62399 17.6995C3.78218 17.663 3.97632 17.6772 4.06979 17.5657C4.12372 17.5008 4.20638 17.4319 4.30704 17.4278C4.58747 17.4197 4.70611 17.3082 4.84992 17.2028C4.95778 17.1237 5.18788 17.1642 5.30652 17.0852C5.38561 17.0345 5.44317 16.9716 5.52226 16.9229C5.55462 16.9027 5.62291 16.8925 5.67683 16.8865C5.97164 16.856 6.27003 16.8337 6.56484 16.8013C6.61158 16.7952 6.65475 16.7648 6.6907 16.7405C6.7662 16.6878 6.81289 16.6148 6.90636 16.5803C6.99984 16.5458 7.13284 16.5458 7.24789 16.5357C7.6182 16.5053 7.64699 16.5134 7.81596 16.341C7.95258 16.2011 8.28697 16.3005 8.39843 16.1464C8.46314 16.0572 8.58173 15.9842 8.79384 15.974C9.09225 15.9598 9.38704 15.9213 9.68545 15.895C9.95149 15.8706 9.94791 15.8706 10.2355 15.682C10.365 15.5969 10.5555 15.6091 10.7245 15.5928C10.9043 15.5766 11.0696 15.5523 11.1559 15.4509C11.2422 15.3516 11.4004 15.3191 11.5837 15.3049C11.7527 15.2907 11.9433 15.3009 12.0763 15.2198C12.3999 15.0251 12.3963 15.0231 12.6228 15.0028C12.9787 14.9704 13.3346 14.9379 13.6905 14.9034C13.9278 14.8811 14.1759 14.8771 14.3988 14.8325C14.5606 14.8 14.6325 14.6865 14.7367 14.6074C15.0315 14.577 15.3263 14.5466 15.6211 14.5182C16.0346 14.4776 16.4516 14.4412 16.8686 14.4026C17.0484 14.3256 17.0736 14.1553 17.3756 14.1471C17.5554 14.1431 17.7315 14.1167 17.9113 14.1005C18.2097 14.0721 18.5045 14.0356 18.8029 14.0214C19.0294 14.0113 19.0689 13.9018 19.1875 13.8329C19.2271 13.8085 19.2631 13.7741 19.3098 13.768C19.7772 13.7112 20.2589 13.699 20.7155 13.6159C20.7622 13.6078 20.8054 13.5652 20.8162 13.5348C20.8234 13.5186 20.7622 13.4882 20.7227 13.474C20.676 13.4578 20.6149 13.4415 20.5645 13.4456C19.0797 13.5815 17.5949 13.7193 16.1101 13.8552C15.9016 13.8755 15.9016 13.8734 15.3947 14.0965C15.3515 14.1147 15.3011 14.135 15.2472 14.1411C15.0099 14.1654 14.7691 14.1796 14.5354 14.21C14.3448 14.2343 14.1867 14.21 14.0501 14.137C13.953 14.0843 13.8523 14.0681 13.73 14.0721C13.5934 14.0782 13.5036 14.1005 13.4245 14.1553C13.3202 14.2303 13.2663 14.3276 13.047 14.3479C12.0367 14.4351 11.0264 14.5324 10.0198 14.6257C9.87956 14.5973 9.81126 14.5547 9.84721 14.504C9.86878 14.4736 9.91194 14.433 9.95509 14.429C10.3685 14.3864 10.7856 14.3499 11.199 14.3094C11.2565 14.3033 11.3356 14.3073 11.368 14.287C11.5262 14.1958 11.5838 14.0478 11.8822 14.0376C12.0547 14.0316 12.2309 14.0012 12.3962 13.9728C12.443 13.9647 12.4861 13.9221 12.4969 13.8917C12.5005 13.8754 12.443 13.845 12.3998 13.8308C12.2417 13.772 12.0583 13.843 11.9001 13.8025C11.8462 13.7883 11.7707 13.768 11.7599 13.7437C11.7527 13.7214 11.8138 13.6848 11.857 13.6625C11.8965 13.6423 11.9504 13.624 12.0043 13.6179C12.4789 13.5713 12.9535 13.5226 13.4281 13.4861C13.6222 13.4719 13.7588 13.4213 13.8451 13.328C13.9098 13.259 13.9889 13.2226 14.1112 13.2124C14.9416 13.1374 15.7721 13.0543 16.6062 12.9853C16.8147 12.9691 16.9226 12.9022 17.0089 12.815C17.0772 12.7461 17.1563 12.7217 17.2893 12.7096C18.4794 12.6041 19.6621 12.4865 20.8522 12.3852C21.0715 12.3669 21.1362 12.2797 21.2477 12.2047C21.2872 12.1783 21.3123 12.1459 21.3626 12.1297C21.413 12.1135 21.4777 12.1155 21.5388 12.1114C22.4879 12.0242 23.4371 11.931 24.3899 11.8499C24.6128 11.8316 24.6558 11.7302 24.7709 11.6593C24.8104 11.637 24.8464 11.6005 24.8932 11.5944C25.605 11.5254 26.3168 11.4606 27.0287 11.3937C27.5033 11.349 27.9778 11.3044 28.4524 11.2619C28.6861 11.2416 28.6861 11.2395 29.0024 11.0469C29.0384 11.0246 29.0888 10.9982 29.1355 10.9922C30.5017 10.8624 31.8642 10.7387 33.2304 10.611C33.3455 10.6009 33.4281 10.5542 33.4856 10.4853C33.5432 10.4163 33.6259 10.3697 33.7374 10.3595C34.8052 10.2582 35.8729 10.1588 36.9443 10.0635C37.1384 10.0473 37.275 9.99863 37.3613 9.90739C37.426 9.83845 37.5051 9.80197 37.6273 9.79183C38.6951 9.6945 39.7629 9.59108 40.8343 9.49781C41.0392 9.47956 41.1399 9.41063 41.2405 9.32953C41.2765 9.30114 41.3053 9.2545 41.3484 9.25045C41.8805 9.19367 42.409 9.13487 42.9446 9.09634C43.1675 9.08012 43.2431 8.99496 43.333 8.91385C43.4049 8.84897 43.4876 8.82667 43.6242 8.81856C43.9226 8.80031 44.2174 8.76586 44.5086 8.73139C44.5517 8.72531 44.6057 8.68069 44.6093 8.65231C44.6165 8.59959 44.5337 8.56309 44.3971 8.54484C42.9734 8.67663 41.5462 8.80842 40.1225 8.94021C39.8888 8.96252 39.8888 8.96253 39.5724 9.15515C39.5364 9.17746 39.4861 9.20382 39.4357 9.2099C38.0695 9.33764 36.707 9.46336 35.3408 9.5911C35.2258 9.60123 35.1431 9.64787 35.0856 9.71681C35.0281 9.78575 34.9453 9.83238 34.8339 9.84252C33.5288 9.96418 32.2238 10.0879 30.9151 10.2034C30.721 10.2197 30.5844 10.2663 30.4981 10.3595C30.4334 10.4285 30.3543 10.465 30.2321 10.4751C28.9845 10.5887 27.7405 10.7083 26.4894 10.8178C26.3636 10.8279 26.2702 10.7691 26.2773 10.7144C26.2809 10.686 26.3348 10.6394 26.3779 10.6353C27.0287 10.5684 27.6759 10.4995 28.3302 10.4488C28.5495 10.4326 28.6142 10.3433 28.7256 10.2683C28.7616 10.242 28.7903 10.2075 28.8371 10.1933C28.8874 10.1771 28.9521 10.1791 29.0132 10.1751C30.5556 10.0311 32.098 9.88511 33.6439 9.74926C33.8668 9.72898 33.9099 9.62961 34.0249 9.55865C34.0645 9.53432 34.1005 9.49783 34.1472 9.49377C34.6218 9.44511 35.0963 9.40252 35.5709 9.35995C36.4014 9.2829 37.2318 9.20584 38.0659 9.12879C38.3068 9.10649 38.3068 9.10648 38.616 8.91588C38.652 8.89358 38.7023 8.86521 38.7491 8.86116C40.9457 8.65637 43.1424 8.45158 45.3391 8.24881C45.4541 8.23868 45.5368 8.19204 45.5943 8.1231C45.6519 8.05619 45.7345 8.00753 45.846 7.99536C48.8156 7.71961 51.7817 7.44384 54.7513 7.17214C54.9454 7.15389 55.082 7.1113 55.1683 7.01601C55.2294 6.94707 55.3121 6.91058 55.4344 6.89841C58.6988 6.5963 61.9632 6.29419 65.2313 5.99004C67.4279 5.78728 69.6246 5.58047 71.8213 5.38176C72.0226 5.36351 72.1305 5.30064 72.2311 5.21751C72.2635 5.18912 72.2959 5.14249 72.339 5.13843C72.81 5.08774 73.2809 5.04111 73.7519 4.99448C73.8993 5.04922 74.0467 5.10195 74.1941 5.1567C74.3055 5.07965 74.4135 5.00057 74.5249 4.92352C75.2368 4.86471 75.9378 4.77347 76.6568 4.74508C76.7036 4.74306 76.7539 4.78159 76.8042 4.80186C77.1386 4.9296 77.3291 4.91946 77.5412 4.74914C77.6167 4.68831 77.6814 4.63357 77.7965 4.62343C78.1524 4.58693 78.512 4.5626 78.8643 4.52002C79.0549 4.49772 79.213 4.51799 79.3496 4.59098C79.4467 4.6437 79.5474 4.66602 79.6661 4.65385C80.3204 4.59302 80.9711 4.53421 81.6254 4.46933C81.6722 4.46528 81.7153 4.43079 81.7512 4.40646C81.8267 4.35374 81.8914 4.29698 81.9634 4.24224C82.0604 4.27671 82.1683 4.30307 82.2474 4.34768C82.3481 4.4004 82.4415 4.40038 82.5781 4.38619C85.1882 4.14085 87.802 3.90159 90.4121 3.65422C90.635 3.63395 90.7321 3.71912 90.8831 3.76372C90.9334 3.77994 90.9837 3.80021 91.0376 3.80427C91.0952 3.80832 91.1563 3.79617 91.2138 3.79008C93.1732 3.6076 95.1326 3.42713 97.092 3.24464C97.3508 3.22031 97.3509 3.22031 97.7355 3.34602C97.7823 3.36224 97.8434 3.3805 97.8937 3.37441C98.7853 3.29534 99.6769 3.21018 100.565 3.12908C100.68 3.11894 100.777 3.15138 100.881 3.19801C101.086 3.28925 101.101 3.28926 101.252 3.15544C101.323 3.09258 101.399 3.05404 101.518 3.03579C101.647 3.01551 101.751 3.02162 101.852 3.05812C101.996 3.10881 102.1 3.19395 102.319 3.17165C103.269 3.07635 104.221 2.99728 105.167 2.89996C105.382 2.87765 105.498 2.94659 105.641 2.99728C105.692 3.01553 105.738 3.04392 105.792 3.05C105.846 3.05608 105.911 3.04187 105.969 3.03579C107.155 2.9263 108.345 2.81886 109.528 2.70125C109.751 2.67895 109.848 2.76612 109.999 2.81073C110.049 2.82695 110.107 2.85535 110.153 2.8513C110.865 2.78844 111.581 2.72151 112.292 2.6546C112.548 2.63027 112.548 2.63229 112.936 2.75598C112.983 2.7722 113.044 2.78842 113.094 2.78437C113.925 2.70935 114.759 2.6323 115.589 2.55525C115.845 2.53092 115.845 2.53092 116.582 2.63636C116.635 2.64447 116.693 2.65665 116.747 2.65259C117.696 2.56541 118.649 2.48023 119.598 2.38696C119.788 2.36871 119.947 2.38493 120.083 2.45792C120.18 2.51064 120.281 2.53296 120.4 2.52079C121.467 2.42144 122.539 2.32615 123.603 2.22071C123.808 2.20043 123.941 2.24502 124.085 2.30382C124.131 2.3241 124.178 2.35249 124.232 2.3606C124.286 2.36871 124.347 2.3606 124.405 2.35451C125.472 2.25516 126.544 2.16189 127.608 2.05443C127.824 2.03213 127.939 2.10106 128.083 2.15175C128.133 2.17 128.187 2.2065 128.23 2.20447C128.647 2.17 129.064 2.1396 129.477 2.08891C129.7 2.06052 129.797 2.15378 129.948 2.19838C129.999 2.21258 130.056 2.24301 130.103 2.23895C130.995 2.15987 131.886 2.07675 132.774 1.99159C132.9 1.97942 132.994 1.99765 133.094 2.05037C133.227 2.12134 133.382 2.14973 133.576 2.12742C133.99 2.08079 134.407 2.04835 134.824 2.00983C135.068 1.98753 135.068 1.98753 135.816 2.09297C135.87 2.10108 135.927 2.11324 135.981 2.10918C136.693 2.0443 137.408 1.98144 138.117 1.91048C138.307 1.8902 138.466 1.90845 138.602 1.98144C138.699 2.03416 138.796 2.05647 138.918 2.04431C139.573 1.98348 140.224 1.92265 140.878 1.86182C141.115 1.83951 141.352 1.80098 141.59 1.80098C141.762 1.80301 141.888 1.90033 142.043 1.94899C142.086 1.96318 142.158 1.94698 142.215 1.94293C143.046 1.86588 143.88 1.7949 144.707 1.70772C144.923 1.68541 145.038 1.75435 145.181 1.80504C145.232 1.82329 145.286 1.85979 145.329 1.85776C145.627 1.83545 145.922 1.80504 146.22 1.77868C146.576 1.74624 146.936 1.7219 147.288 1.6773C147.576 1.6408 147.684 1.8172 147.914 1.82328C148.09 1.82936 148.27 1.7949 148.446 1.77868C148.802 1.74624 149.158 1.70974 149.514 1.68136C149.639 1.67122 149.736 1.63876 149.776 1.56577C149.783 1.55157 149.722 1.52117 149.683 1.50292C149.204 1.29611 149.204 1.2961 148.723 1.34071C148.424 1.36909 148.129 1.39748 147.831 1.42181C147.781 1.42587 147.723 1.40965 147.673 1.39748C147.529 1.36301 147.543 1.32247 147.666 1.24947C147.788 1.17648 147.881 1.08727 147.986 1.00414C148.133 1.05686 148.277 1.10956 148.424 1.16227C148.543 1.15214 148.662 1.13999 148.78 1.12985C149.373 1.07713 149.967 1.02238 150.56 0.973719C150.603 0.969664 150.657 1.01022 150.707 1.0305C150.851 1.0893 150.98 1.13998 151.189 1.11767C151.721 1.05887 152.257 1.01629 152.789 0.965601C153.022 0.943297 153.022 0.943299 153.432 1.06901C153.479 1.0832 153.54 1.09943 153.59 1.09537C154.126 1.04874 154.658 0.998052 155.194 0.949389C155.309 0.939251 155.42 0.965609 155.503 1.02441C155.536 1.04874 155.528 1.08929 155.665 1.42181C156.089 1.69149 156.38 1.66312 156.675 1.63878C156.801 1.62865 156.912 1.6185 156.995 1.57795C157.038 1.55564 157.092 1.52319 157.092 1.49684C157.092 1.47656 157.013 1.44411 156.963 1.44006C156.607 1.3995 156.269 1.48468 155.92 1.50292C155.758 1.51104 155.618 1.44007 155.589 1.32449C155.582 1.29205 155.571 1.25758 155.561 1.22514C155.55 1.1927 155.543 1.15823 155.532 1.12579C155.392 1.11565 155.309 1.15214 155.248 1.22108C155.198 1.27786 155.126 1.34274 155.029 1.37315C154.932 1.4056 154.799 1.39952 154.68 1.40966C154.565 1.4198 154.439 1.44616 154.331 1.43196C154.223 1.41574 154.137 1.35693 154.036 1.32043C153.99 1.30219 153.932 1.27584 153.885 1.27989C153.472 1.31436 153.062 1.34882 152.652 1.39343C152.436 1.41776 152.329 1.33261 152.192 1.27989C152.084 1.23934 151.976 1.24946 151.958 1.34273C151.912 1.56577 152.077 1.65904 152.444 1.61646C152.746 1.57996 153.019 1.5739 153.256 1.71178C153.289 1.73002 153.364 1.73813 153.411 1.73408C153.706 1.70974 153.997 1.67933 154.292 1.655C154.345 1.65094 154.403 1.65904 154.453 1.66715C155.187 1.77664 155.187 1.77868 155.435 1.75435C155.554 1.74218 155.669 1.73204 155.658 1.42384C155.884 1.09334 156.244 1.07104 156.593 1.02238C156.819 0.991966 156.916 1.08118 157.063 1.12782C157.114 1.14404 157.168 1.17648 157.214 1.17242C157.987 1.10551 158.757 1.03453 159.526 0.959512C159.656 0.947346 159.749 0.959514 159.85 1.01223C159.979 1.07914 160.123 1.12173 160.328 1.0974C160.738 1.04874 161.155 1.01833 161.572 0.977778C161.784 0.957502 161.784 0.957481 162.212 1.08319C162.259 1.09739 162.32 1.11361 162.37 1.10955C162.787 1.07508 163.201 1.03252 163.614 0.99602C163.729 0.985882 163.833 1.01427 163.923 1.06901C164.013 1.12376 164.121 1.15214 164.232 1.142C164.649 1.10551 165.063 1.06497 165.476 1.02847C165.527 1.02441 165.588 1.03861 165.634 1.0528C166.073 1.17851 166.073 1.17849 166.274 1.15821C166.569 1.1278 166.871 1.11362 167.162 1.07307C167.446 1.03252 167.594 1.15011 167.788 1.21499C168.32 1.16836 168.856 1.12984 169.384 1.07307C169.6 1.04874 169.715 1.11564 169.859 1.16836C169.909 1.18661 169.959 1.22514 170.006 1.22311C170.186 1.215 170.362 1.1927 170.538 1.17648C170.714 1.16026 170.894 1.14404 171.07 1.12782C171.272 1.18662 171.405 1.3245 171.692 1.27786C171.865 1.24948 172.048 1.24339 172.224 1.22717C172.401 1.21095 172.58 1.19473 172.757 1.17851C172.875 1.16837 172.997 1.16228 173.112 1.14403C173.325 1.11362 173.429 1.21298 173.58 1.25759C173.63 1.27178 173.688 1.2961 173.734 1.29204C174.09 1.26366 174.45 1.23933 174.799 1.19269C175.068 1.1562 175.252 1.21703 175.442 1.30219C175.482 1.32044 175.55 1.33058 175.6 1.32652C176.017 1.29205 176.431 1.24946 176.844 1.21296C176.956 1.20283 177.064 1.23527 177.153 1.28799C177.247 1.34273 177.351 1.36911 177.466 1.35897C177.88 1.32247 178.297 1.28191 178.71 1.24541C178.761 1.24136 178.822 1.25758 178.868 1.2738C179.271 1.39952 179.271 1.40154 179.508 1.37721C179.566 1.37113 179.627 1.36706 179.684 1.36098C179.979 1.33259 180.285 1.32247 180.572 1.2738C180.903 1.21906 181.144 1.288 181.378 1.40357C181.673 1.37924 181.975 1.36505 182.262 1.32449C182.478 1.29408 182.593 1.37112 182.737 1.42181C182.787 1.44006 182.841 1.47656 182.884 1.47251C183.301 1.43804 183.718 1.40763 184.128 1.35694C184.351 1.32856 184.448 1.41978 184.599 1.46642C184.649 1.48264 184.703 1.51104 184.75 1.50698C184.987 1.49076 185.225 1.46642 185.462 1.44412C185.739 1.41776 185.739 1.41978 186.105 1.54347C186.278 1.60227 186.451 1.55563 186.62 1.54144C186.799 1.52522 186.968 1.51305 187.112 1.59619C187.202 1.64891 187.31 1.68135 187.421 1.67324C187.659 1.65499 187.9 1.63675 188.133 1.60634C188.32 1.582 188.482 1.59822 188.619 1.67324C188.716 1.72596 188.816 1.75233 188.935 1.74016C189.467 1.6915 190.003 1.64079 190.535 1.59416C190.582 1.5901 190.646 1.60836 190.689 1.62661C190.79 1.6631 190.887 1.70365 190.984 1.7442C191.218 1.72595 191.459 1.71786 191.689 1.68947C191.933 1.66109 192.156 1.65095 192.347 1.76247C192.386 1.7868 192.444 1.82125 192.491 1.81922C192.67 1.81111 192.846 1.79084 193.023 1.77462C193.199 1.7584 193.379 1.74218 193.555 1.72596C193.76 1.77665 193.889 1.92263 194.177 1.876C194.349 1.84761 194.533 1.84153 194.709 1.82531C194.885 1.80909 195.065 1.79084 195.241 1.77665C195.298 1.77259 195.363 1.76245 195.413 1.77056C195.467 1.77867 195.514 1.80706 195.561 1.82734C195.705 1.88614 195.838 1.94495 196.043 1.91048C196.215 1.88209 196.399 1.87601 196.575 1.85776C196.816 1.83545 196.816 1.83546 197.215 1.9632C197.376 2.01592 197.56 1.94698 197.714 1.99159C197.819 2.022 197.909 2.07268 198.009 2.10715C198.052 2.12134 198.121 2.12742 198.171 2.12336C198.408 2.10511 198.649 2.08687 198.883 2.05646C199.073 2.03213 199.232 2.05646 199.365 2.12945C199.462 2.18217 199.559 2.20449 199.681 2.19232C200.274 2.13555 200.867 2.08687 201.457 2.02401C201.658 2.00171 201.82 2.03619 201.932 2.10918C202.122 2.23489 202.392 2.08688 202.589 2.18826C202.712 2.25112 202.834 2.32411 203.057 2.2937C203.467 2.24098 203.884 2.21258 204.297 2.17608C204.445 2.23083 204.592 2.28559 204.743 2.34033C204.98 2.31803 205.218 2.29571 205.455 2.27543C205.631 2.25921 205.811 2.24097 205.987 2.22677C206.044 2.22272 206.106 2.21461 206.16 2.22474C206.213 2.23488 206.257 2.26125 206.307 2.28152C206.555 2.38088 206.555 2.38291 206.965 2.34236C207.141 2.32411 207.31 2.31195 207.457 2.39305C207.594 2.46807 207.756 2.48226 207.943 2.45995C208.295 2.4194 208.651 2.38899 209.011 2.3606C209.122 2.35047 209.226 2.38494 209.32 2.43765C209.46 2.52079 209.633 2.51268 209.809 2.49037C210.042 2.46199 210.272 2.43361 210.47 2.54715C210.51 2.57148 210.571 2.60593 210.614 2.60391C210.909 2.58769 211.207 2.57553 211.495 2.537C211.782 2.49848 211.923 2.62419 212.12 2.68502C212.415 2.65866 212.714 2.6323 213.008 2.60594C213.066 2.59985 213.134 2.58162 213.185 2.59175C213.397 2.63433 213.519 2.7864 213.81 2.73977C213.979 2.71341 214.162 2.70531 214.339 2.69922C214.385 2.6972 214.446 2.73165 214.479 2.75801C214.497 2.7722 214.479 2.81072 214.457 2.831C214.393 2.88777 214.313 2.94051 214.256 2.99931C214.249 3.00742 214.317 3.0439 214.357 3.06012C214.454 3.09662 214.565 3.09055 214.695 3.07433C214.806 3.06014 214.921 3.08852 215 3.14935C215.032 3.17368 215.022 3.21423 214.953 3.34805C214.953 3.44741 215.029 3.40279 215.054 3.3379C215.094 3.24463 215.018 3.21422 214.874 3.26491C214.774 3.30141 214.723 3.35413 214.748 3.39671C214.763 3.41902 214.831 3.44741 214.953 3.34805C215.27 3.2264 215.507 3.2041 215.744 3.1818C215.805 3.17572 215.877 3.15543 215.921 3.16759C216.075 3.21625 216.219 3.27506 216.37 3.32981C216.542 3.31764 216.704 3.28722 216.873 3.36629C217.111 3.47781 217.121 3.46768 217.351 3.44537C217.47 3.43321 217.589 3.42309 217.707 3.41295C217.826 3.40281 217.919 3.43322 218.024 3.47985C218.236 3.57515 218.254 3.57514 218.394 3.44537C218.477 3.3663 218.534 3.33994 218.638 3.37644C218.984 3.50013 218.987 3.50823 219.282 3.47173C219.526 3.44132 219.757 3.43321 219.936 3.54878C220.059 3.62989 220.098 3.61164 220.195 3.52648C220.454 3.30142 220.573 3.30547 221.058 3.46767C221.284 3.54472 221.518 3.4616 221.748 3.45146C221.942 3.44335 222.079 3.49201 222.093 3.61975C222.104 3.69882 222.137 3.75561 222.266 3.78197C222.316 3.7921 222.377 3.80629 222.428 3.80224C222.726 3.77791 223.021 3.74951 223.319 3.72113C223.47 3.70693 223.553 3.61165 223.524 3.48594C223.492 3.35212 223.549 3.30344 223.765 3.26491C223.895 3.24261 223.999 3.24668 224.103 3.28318C224.218 3.32373 224.186 3.36023 224.085 3.43322C223.844 3.61165 223.873 3.72112 224.182 3.84481C224.29 3.88739 224.376 3.92593 224.402 3.98879C224.416 4.02123 224.402 4.06381 224.434 4.08814C224.61 4.22399 224.855 4.31118 225.128 4.37607C225.39 4.32132 225.57 4.41255 225.771 4.48554C225.93 4.54232 226.116 4.49367 226.285 4.47339C226.476 4.45109 226.634 4.4673 226.771 4.54232C226.868 4.59504 226.969 4.61936 227.087 4.60922C227.324 4.58692 227.565 4.57273 227.799 4.54029C228 4.51191 228.151 4.55246 228.277 4.6214C228.435 4.70859 228.612 4.64978 228.777 4.66194C229 4.67614 229.111 4.85659 229.403 4.80793C229.575 4.77954 229.755 4.76941 229.935 4.7613C229.981 4.75927 230.039 4.79374 230.078 4.81808C230.269 4.92959 230.492 4.92351 230.736 4.89107C230.905 4.86876 231.071 4.8485 231.236 4.92554C231.509 5.05531 231.811 5.16887 232.099 5.2885C232.138 5.38177 232.11 5.49124 232.315 5.54598C232.422 5.57437 232.523 5.61697 232.606 5.6636C232.706 5.71835 232.8 5.73254 232.929 5.71835C233.163 5.68996 233.408 5.68386 233.638 5.64736C233.85 5.61492 233.983 5.68185 234.112 5.74471C234.216 5.7954 234.314 5.81972 234.439 5.78322C234.569 5.74875 234.662 5.77105 234.767 5.8258C234.914 5.90082 234.925 5.89272 235.414 5.91502C235.464 5.91705 235.525 5.94745 235.554 5.97381C235.568 5.988 235.536 6.02858 235.511 6.04885C235.478 6.07318 235.428 6.10155 235.381 6.10764C234.849 6.16036 234.314 6.20699 233.781 6.25971C233.728 6.26579 233.67 6.28 233.63 6.30028C233.587 6.32258 233.533 6.35297 233.533 6.38136C233.533 6.40164 233.605 6.42598 233.656 6.44017C233.814 6.4868 234.001 6.41584 234.155 6.46856C234.26 6.50303 234.346 6.55168 234.45 6.58412C234.493 6.59832 234.562 6.5963 234.616 6.59224C234.795 6.57805 234.971 6.55778 235.151 6.54561C235.202 6.54358 235.259 6.56387 235.306 6.58009C235.651 6.70175 235.651 6.70174 235.949 6.67538C236.068 6.66524 236.194 6.63483 236.305 6.64699C236.413 6.65916 236.507 6.7139 236.604 6.74837C236.805 6.82137 236.996 6.89233 237.01 7.05048C237.017 7.11131 237.136 7.16402 237.254 7.16808C237.369 7.17213 237.492 7.14985 237.61 7.13768C237.891 7.11335 237.891 7.11335 238.254 7.23703C238.355 7.2715 238.462 7.27555 238.592 7.25528C238.642 7.24717 238.703 7.25529 238.757 7.26542C238.933 7.29584 238.933 7.33435 238.818 7.40735C238.657 7.51481 238.671 7.52496 239.124 7.6162C239.296 7.65067 239.429 7.71556 239.573 7.77233C239.807 7.86357 239.803 7.86355 239.649 7.98318C239.613 8.00954 239.581 8.03794 239.545 8.06632C239.44 8.1454 239.358 8.23056 239.142 8.23867C238.905 8.24678 238.667 8.27923 238.43 8.30153C238.2 8.32384 238.139 8.37248 238.16 8.51036C238.186 8.67662 238.232 8.69488 238.646 8.69285C238.764 8.69285 238.869 8.70907 238.959 8.76381C238.915 8.8287 238.836 8.87939 238.721 8.89155C238.426 8.92197 238.128 8.94833 237.833 8.97469C237.596 8.997 237.359 9.01929 237.121 9.0416C236.974 9.05579 236.881 9.16123 236.92 9.27884C236.942 9.34575 236.96 9.41266 236.978 9.47957C237.017 9.61339 237.093 9.64787 237.333 9.64179C237.395 9.63976 237.452 9.62352 237.51 9.62758C237.743 9.64177 237.855 9.81006 238.135 9.77559C238.369 9.7472 238.613 9.74113 238.844 9.70463C239.056 9.67219 239.174 9.7452 239.322 9.79995C239.372 9.8182 239.426 9.8567 239.469 9.85467C239.767 9.83237 240.066 9.81008 240.357 9.77156C240.494 9.75534 240.576 9.7675 240.684 9.81616C240.943 9.93376 240.95 9.92768 241.335 9.89118C241.615 9.86279 241.619 9.86685 241.979 9.99053C242.079 10.025 242.187 10.025 242.316 10.0088C242.485 9.9885 242.662 9.95606 242.838 9.98647C242.892 9.99458 242.96 10.0189 242.978 10.0453C242.989 10.0635 242.938 10.1081 242.895 10.1223C242.579 10.2278 242.209 10.2095 241.863 10.2521C241.756 10.2643 241.648 10.2257 241.558 10.171C241.464 10.1162 241.364 10.094 241.241 10.1041C241.004 10.1264 240.763 10.1406 240.53 10.173C240.328 10.2014 240.188 10.1548 240.048 10.0919C240.001 10.0716 239.947 10.0331 239.9 10.0351C239.368 10.0757 238.833 10.1162 238.304 10.173C238.092 10.1974 237.97 10.1325 237.826 10.0777C237.776 10.0595 237.725 10.021 237.679 10.023C237.499 10.0311 237.323 10.0534 237.143 10.0696C236.489 10.1304 235.838 10.1913 235.184 10.248C235.14 10.2521 235.087 10.2095 235.036 10.1913C234.939 10.1548 234.838 10.1203 234.738 10.0858C234.558 10.102 234.382 10.1223 234.202 10.1345C234.073 10.1426 233.958 10.171 233.94 10.248C233.929 10.2987 234.048 10.3454 234.173 10.3413C234.296 10.3372 234.418 10.3129 234.518 10.3393C235.018 10.469 235.018 10.4711 235.331 10.4447C235.604 10.4204 235.575 10.4001 235.816 10.5116C235.921 10.5603 236.014 10.5887 236.133 10.5765C236.428 10.5481 236.726 10.5197 237.024 10.4954C237.071 10.4914 237.132 10.5116 237.179 10.5279C237.531 10.6495 237.531 10.6536 237.822 10.6231C238.204 10.5866 238.218 10.5765 238.473 10.7002C238.649 10.7854 238.811 10.7266 238.98 10.7225C239.174 10.8016 239.386 10.8726 239.563 10.9618C239.771 11.0672 239.99 11.0489 240.228 11.0185C240.404 10.9962 240.576 10.9881 240.72 11.0712C240.857 11.1483 241.022 11.1564 241.209 11.1361C241.378 11.1179 241.551 11.0794 241.727 11.124C241.774 11.1361 241.845 11.1666 241.842 11.1848C241.838 11.2132 241.792 11.2537 241.745 11.2659C241.414 11.349 241.051 11.347 240.702 11.3855C240.655 11.3916 240.594 11.3693 240.548 11.3531C240.447 11.3166 240.35 11.274 240.253 11.2355C240.077 11.2477 239.897 11.2517 239.724 11.276C239.591 11.2943 239.491 11.2923 239.394 11.2436C239.304 11.199 239.207 11.1442 239.099 11.1301C238.991 11.1159 238.865 11.1463 238.746 11.1584C238.628 11.1706 238.491 11.1645 238.398 11.197C238.304 11.2294 238.247 11.3004 238.186 11.3571C238.117 11.42 238.024 11.4403 237.887 11.4464C237.761 11.4525 237.661 11.4443 237.567 11.3876C237.528 11.3632 237.474 11.345 237.42 11.3288C237.369 11.3146 237.312 11.2922 237.265 11.2963C236.729 11.3429 236.197 11.3937 235.662 11.4423C235.396 11.4666 235.399 11.4666 234.846 11.347C234.795 11.3369 234.734 11.3227 234.684 11.3267C234.385 11.3511 234.091 11.3794 233.792 11.4078C233.49 11.4362 233.494 11.4322 232.98 11.3044C232.886 11.2801 232.75 11.3125 232.638 11.3085C232.405 11.2983 232.289 11.128 232.016 11.1605C231.783 11.1889 231.538 11.1949 231.304 11.2314C231.092 11.2639 230.97 11.1929 230.826 11.1382C230.776 11.1199 230.722 11.0794 230.679 11.0834C230.143 11.128 229.611 11.1787 228.899 11.1848C228.723 11.1848 228.802 11.2274 228.917 11.2416C229.083 11.2639 229.136 11.2213 229.047 11.1402C228.982 11.0834 228.888 11.055 228.813 11.0692C228.773 11.0773 228.723 11.1159 228.899 11.1848C229.086 11.2619 229.075 11.3044 229.108 11.3288C229.187 11.3876 229.298 11.4119 229.413 11.4038C229.593 11.3896 229.769 11.3693 229.949 11.3571C229.999 11.3531 230.06 11.3673 230.107 11.3835C230.503 11.5092 230.506 11.5173 230.927 11.4687C231.06 11.4545 231.157 11.4545 231.261 11.493C231.405 11.5457 231.509 11.6349 231.729 11.6065C232.02 11.568 232.318 11.5457 232.617 11.5234C232.663 11.5194 232.714 11.5559 232.768 11.5721C232.915 11.6207 233.023 11.712 233.242 11.6735C233.411 11.6431 233.594 11.6349 233.774 11.6288C233.821 11.6268 233.893 11.6593 233.914 11.6856C233.958 11.7323 233.904 11.787 233.781 11.8255C233.731 11.8418 233.663 11.8377 233.605 11.8438C233.368 11.8661 233.131 11.8904 232.893 11.9087C232.768 11.9188 232.649 11.9492 232.635 12.0242C232.624 12.0749 232.753 12.1195 232.875 12.1155C233.055 12.1094 233.235 12.0932 233.408 12.0668C233.713 12.0222 233.979 12.0344 234.227 12.1621C234.403 12.2513 234.393 12.2189 234.58 12.4825C234.626 12.5494 234.767 12.5555 234.889 12.5514C235.184 12.5413 235.32 12.5717 235.295 12.6346C235.263 12.7116 235.158 12.7359 235.025 12.7461C234.788 12.7623 234.551 12.7887 234.314 12.811C234.256 12.817 234.191 12.8292 234.137 12.8251C234.083 12.8211 234.033 12.7968 233.986 12.7785C233.886 12.74 233.799 12.6812 233.692 12.667C233.584 12.6528 233.458 12.6832 233.339 12.6954C233.221 12.7055 233.095 12.7359 232.987 12.7217C232.879 12.7075 232.789 12.6467 232.692 12.6102C232.645 12.592 232.588 12.5636 232.541 12.5656C232.304 12.5818 232.067 12.6082 231.829 12.6285C231.538 12.6548 231.538 12.6548 231.186 12.5291C231.085 12.4926 230.981 12.4947 230.848 12.5109C230.56 12.5433 230.557 12.5372 230.032 12.4196C229.981 12.4074 229.92 12.3933 229.87 12.3993C229.334 12.446 228.802 12.4967 228.27 12.5453C227.813 12.5879 227.813 12.5879 227.562 12.7907C227.375 12.9407 227.371 12.9407 227.555 13.0097C227.702 13.0664 227.835 13.1496 227.997 13.18C228.148 13.2084 228.335 13.1171 228.5 13.2104C228.583 13.257 228.691 13.3077 228.795 13.3158C228.96 13.326 229.136 13.2672 229.295 13.3564C229.374 13.401 229.492 13.4476 229.593 13.4497C229.769 13.4537 229.949 13.4213 230.125 13.4071C230.179 13.403 230.24 13.403 230.291 13.4132C230.344 13.4253 230.391 13.4497 230.438 13.4699C230.582 13.5389 230.736 13.5713 230.923 13.5368C231.229 13.4801 231.502 13.5084 231.739 13.6382C231.772 13.6565 231.851 13.6585 231.901 13.6504C232.031 13.6301 232.142 13.6281 232.239 13.6666C232.279 13.6828 232.336 13.7112 232.329 13.7294C232.318 13.7599 232.275 13.8004 232.228 13.8106C231.89 13.8795 231.527 13.8876 231.179 13.9241C231.132 13.9282 231.074 13.9018 231.028 13.8835C230.927 13.8471 230.841 13.7862 230.733 13.772C230.625 13.7579 230.499 13.7842 230.38 13.7943C230.262 13.8045 230.136 13.8349 230.028 13.8227C229.92 13.8085 229.82 13.7578 229.733 13.7132C229.633 13.6625 229.536 13.6565 229.403 13.6768C229.23 13.7031 229.05 13.7072 228.874 13.7214C228.777 13.6828 228.68 13.6402 228.579 13.6037C228.532 13.5855 228.475 13.5632 228.425 13.5652C228.187 13.5814 227.95 13.6058 227.713 13.6281C227.475 13.6504 227.476 13.6504 227.073 13.5247C227.026 13.5105 226.965 13.4943 226.915 13.4983C226.616 13.5227 226.321 13.553 226.023 13.5774C225.908 13.5875 225.804 13.5591 225.71 13.5044C225.62 13.4496 225.512 13.4192 225.401 13.4294C224.926 13.4719 224.452 13.5125 223.977 13.5632C223.787 13.5835 223.625 13.5652 223.496 13.4922C223.345 13.4091 223.176 13.4294 222.999 13.4456C222.6 13.4862 222.597 13.4841 222.342 13.3807C222.291 13.3604 222.241 13.3219 222.194 13.3239C221.781 13.3543 221.364 13.3827 220.954 13.4314C220.738 13.4578 220.623 13.3868 220.479 13.3341C220.429 13.3158 220.375 13.2773 220.332 13.2814C220.033 13.3037 219.735 13.3239 219.444 13.3645C219.153 13.405 219.041 13.2165 218.822 13.2185C218.523 13.2205 218.229 13.2672 217.934 13.2956C217.697 13.3179 217.459 13.3402 217.222 13.3625C216.985 13.3848 216.747 13.403 216.51 13.4294C216.384 13.4436 216.291 13.4253 216.187 13.3746C216.054 13.3077 215.895 13.255 215.752 13.1942C215.532 13.107 215.532 13.107 215.266 13.1313C215.209 13.1374 215.148 13.1414 215.09 13.1475C214.655 13.1921 214.655 13.1881 214.101 13.0603C214.076 13.0543 214.011 13.0766 213.986 13.0928C213.911 13.1455 213.843 13.2023 213.774 13.257C213.677 13.2246 213.558 13.2063 213.494 13.1597C213.31 13.0279 213.023 13.2084 212.836 13.0786C212.768 13.0299 212.649 12.9873 212.541 12.9752C212.43 12.963 212.304 12.9914 212.189 13.0036C211.89 13.034 211.89 13.032 211.635 13.2124C211.506 13.3016 211.319 13.2854 211.15 13.3057C210.974 13.328 210.805 13.3402 210.657 13.257C210.524 13.182 210.362 13.1638 210.172 13.1881C209.938 13.2185 209.697 13.2367 209.46 13.255C209.41 13.259 209.348 13.2489 209.298 13.2367C208.748 13.1171 208.748 13.1151 208.482 13.1415C208.363 13.1536 208.241 13.1577 208.126 13.1759C207.932 13.2084 207.785 13.1658 207.644 13.1009C207.598 13.0806 207.544 13.0421 207.497 13.0441C207.26 13.0543 207.026 13.0725 206.792 13.0908C206.613 13.105 206.433 13.1131 206.26 13.1415C205.973 13.1881 205.832 13.0563 205.635 12.9955C205.34 13.0218 205.041 13.0401 204.747 13.0766C204.61 13.0928 204.52 13.0867 204.416 13.038C204.283 12.9772 204.161 12.9083 203.945 12.9387C203.657 12.9792 203.355 12.9934 203.06 13.0178C202.863 12.9549 202.719 12.8272 202.435 12.8738C202.262 12.9022 202.079 12.9083 201.903 12.9245C201.666 12.9468 201.428 12.9671 201.191 12.9914C200.936 13.0157 200.939 13.0097 200.547 12.89C200.321 12.8191 200.087 12.8981 199.857 12.9103C199.677 12.9204 199.588 13.0137 199.631 13.1333C199.674 13.253 199.577 13.3462 199.411 13.3625C198.998 13.401 198.581 13.4415 198.167 13.476C198.117 13.4801 198.056 13.4659 198.009 13.4517C197.567 13.3239 197.567 13.326 197.369 13.3442C197.074 13.3746 196.772 13.3908 196.481 13.4294C196.28 13.4557 196.132 13.4132 196.003 13.3442C195.902 13.2915 195.809 13.2793 195.68 13.2915C194.256 13.4274 192.832 13.5531 191.412 13.693C191.2 13.7132 191.078 13.6544 190.934 13.5997C190.884 13.5815 190.837 13.5429 190.786 13.5429C190.668 13.5429 190.549 13.5612 190.431 13.5733C189.898 13.622 189.366 13.6808 188.831 13.7173C188.604 13.7335 188.543 13.8268 188.446 13.9038C188.37 13.9626 188.284 13.987 188.151 13.9951C188.022 14.0032 187.928 13.993 187.828 13.9403C187.698 13.8714 187.551 13.8288 187.349 13.8572C187.116 13.8896 186.878 13.9038 186.638 13.9261C186.515 13.9363 186.422 13.9728 186.382 14.0458C186.375 14.0579 186.451 14.0884 186.494 14.1066C186.638 14.1674 186.774 14.2384 186.936 14.281C187.101 14.3236 187.281 14.2749 187.454 14.2627C187.515 14.2587 187.572 14.2465 187.63 14.2485C187.684 14.2506 187.749 14.2607 187.788 14.2789C187.975 14.3702 188.173 14.433 188.432 14.3783C188.654 14.4047 188.77 14.5729 189.054 14.5283C189.226 14.502 189.406 14.4898 189.586 14.4797C189.632 14.4777 189.683 14.5142 189.733 14.5324C189.877 14.5831 189.992 14.6642 190.208 14.6297C190.438 14.5932 190.682 14.5871 190.916 14.5588C191.045 14.5425 191.139 14.5567 191.239 14.6095C191.369 14.6764 191.516 14.727 191.718 14.6946C191.89 14.6662 192.074 14.6601 192.25 14.6419C192.48 14.6196 192.48 14.6216 192.89 14.7473C192.936 14.7615 192.997 14.7777 193.048 14.7737C193.346 14.7493 193.641 14.7189 193.939 14.6946C194.054 14.6845 194.166 14.7108 194.245 14.7696C194.277 14.7939 194.267 14.8345 194.277 14.869C193.684 14.9237 193.091 14.9704 192.501 15.0373C192.278 15.0636 192.178 14.9805 192.03 14.9339C191.98 14.9176 191.926 14.8832 191.879 14.8872C191.462 14.9217 191.049 14.9582 190.635 15.0028C190.506 15.017 190.409 15.0089 190.312 14.9501C190.064 14.794 189.762 14.8791 189.481 14.9014C189.266 14.9176 189.197 14.9805 189.223 15.1143C189.255 15.2725 189.384 15.3211 189.715 15.2928C189.834 15.2826 189.952 15.2684 190.071 15.2603C190.186 15.2522 190.29 15.2786 190.384 15.3333C190.474 15.388 190.581 15.4164 190.693 15.4083C190.93 15.3901 191.171 15.3718 191.401 15.3414C191.592 15.3171 191.75 15.3374 191.883 15.4124C192.03 15.4955 192.203 15.4773 192.376 15.459C192.778 15.4185 192.782 15.4205 193.033 15.5219C193.084 15.5422 193.134 15.5807 193.181 15.5787C193.594 15.5482 194.011 15.5219 194.418 15.4732C194.63 15.4489 194.752 15.5138 194.892 15.5665C194.943 15.5847 194.993 15.6253 195.04 15.6212C195.338 15.5989 195.636 15.5766 195.928 15.5381C196.064 15.5198 196.147 15.532 196.258 15.5807C196.524 15.7003 196.532 15.6962 196.909 15.6577C197.024 15.6455 197.15 15.6233 197.258 15.6395C197.366 15.6557 197.452 15.7145 197.553 15.751C197.599 15.7672 197.657 15.7895 197.707 15.7855C197.944 15.7692 198.182 15.7449 198.419 15.7226C198.642 15.7003 198.642 15.7023 199.059 15.8281C199.228 15.8808 199.404 15.8362 199.573 15.8199C199.757 15.8017 199.922 15.8017 200.062 15.8808C200.202 15.9598 200.371 15.9558 200.551 15.9396C200.72 15.9233 200.893 15.8787 201.065 15.9335C201.461 16.0592 201.461 16.0612 201.705 16.0369C202.061 16.0024 202.413 15.97 202.773 15.9396C202.82 15.9355 202.881 15.9598 202.927 15.9761C203.028 16.0126 203.114 16.0734 203.222 16.0876C203.33 16.1038 203.456 16.0795 203.571 16.0673C203.941 16.0288 203.966 16.0146 204.215 16.1484C204.423 16.2579 204.682 16.0997 204.876 16.2255C204.988 16.2964 205.138 16.3532 205.347 16.3187C205.52 16.2903 205.699 16.2822 205.879 16.266C206.163 16.2396 206.163 16.2417 206.523 16.3633C206.569 16.3796 206.63 16.3998 206.677 16.3958C206.914 16.3795 207.155 16.3654 207.386 16.3289C207.655 16.2863 207.828 16.3633 208.029 16.4384C208.187 16.4972 208.374 16.4485 208.543 16.4282C208.727 16.4079 208.892 16.414 209.028 16.4931C209.172 16.5742 209.341 16.5641 209.521 16.5478C209.69 16.5336 209.863 16.487 210.035 16.5438C210.405 16.6695 210.405 16.6695 210.675 16.6452C210.912 16.6229 211.15 16.5985 211.387 16.5823C211.434 16.5783 211.491 16.6046 211.538 16.6229C211.639 16.6594 211.725 16.7202 211.833 16.7344C211.941 16.7486 212.066 16.7222 212.185 16.7121C212.304 16.702 212.43 16.6715 212.537 16.6837C212.645 16.6959 212.746 16.7466 212.832 16.7912C212.933 16.8439 213.026 16.85 213.163 16.8297C213.336 16.8033 213.515 16.7972 213.691 16.7831C213.788 16.8216 213.889 16.8601 213.983 16.9027C214.08 16.9473 214.184 16.9432 214.317 16.929C214.759 16.8804 214.763 16.8865 215.133 17.0122C215.302 17.0689 215.478 17.0223 215.647 17.0081C215.827 16.9919 215.996 16.9838 216.136 17.0649C216.273 17.1419 216.442 17.1521 216.622 17.1277C216.737 17.1115 216.859 17.1014 216.977 17.0953C217.031 17.0933 217.096 17.1014 217.136 17.1176C217.326 17.2028 217.513 17.2798 217.776 17.2251C218.006 17.2413 218.121 17.4076 218.398 17.3751C218.631 17.3467 218.876 17.3406 219.106 17.3041C219.318 17.2717 219.469 17.3285 219.577 17.3995C219.771 17.5252 220.044 17.3549 220.238 17.4785C220.35 17.5495 220.494 17.6063 220.709 17.5759C220.947 17.5434 221.022 17.586 221.09 17.7137C221.13 17.7867 221.123 17.8455 221.051 17.9023C220.979 17.9611 220.9 17.951 220.785 17.8841C220.652 17.809 220.494 17.7948 220.303 17.811C220.116 17.8273 220.001 17.7218 219.846 17.6813C219.692 17.6387 219.509 17.7097 219.347 17.6549C218.966 17.5272 218.966 17.5272 218.707 17.5515C218.531 17.5677 218.347 17.5759 218.175 17.6042C217.97 17.6387 217.837 17.5759 217.697 17.5191C217.646 17.4988 217.596 17.4603 217.553 17.4623C217.139 17.4927 216.722 17.5211 216.312 17.5718C216.097 17.5982 215.982 17.5252 215.838 17.4745C215.788 17.4562 215.734 17.4197 215.69 17.4238C215.334 17.4522 214.982 17.4887 214.626 17.5231C214.558 17.5779 214.482 17.6306 214.418 17.6894C214.349 17.7502 214.256 17.7766 214.119 17.7746C213.893 17.7746 213.67 17.8597 213.443 17.7523C213.21 17.6428 213.192 17.6488 212.965 17.6752C212.678 17.7097 212.372 17.7016 212.102 17.7806C212.056 17.7948 212.005 17.8333 212.005 17.8617C212.002 17.88 212.077 17.9064 212.124 17.9226C212.282 17.9712 212.465 17.9003 212.624 17.951C212.728 17.9834 212.814 18.0321 212.919 18.0665C212.962 18.0807 213.026 18.0787 213.084 18.0767C213.145 18.0746 213.202 18.0605 213.26 18.0625C213.314 18.0645 213.372 18.0767 213.415 18.0949C213.612 18.172 213.821 18.2429 213.997 18.3342C214.17 18.4234 214.331 18.3626 214.504 18.3585C215.194 18.5004 215.194 18.5025 215.658 18.4579C215.773 18.4477 215.892 18.4356 216.01 18.4376C216.061 18.4376 216.107 18.4741 216.158 18.4943C216.302 18.5552 216.438 18.6099 216.64 18.5775C216.812 18.5491 216.995 18.543 217.172 18.5248C217.409 18.5025 217.409 18.5025 217.812 18.6302C217.912 18.6627 218.02 18.6586 218.15 18.6424C218.261 18.6282 218.376 18.6586 218.455 18.7174C218.487 18.7417 218.477 18.7823 218.487 18.8168C218.132 18.8492 217.772 18.8715 217.427 18.9202C217.204 18.9506 217.103 18.8634 216.956 18.8168C216.906 18.8005 216.852 18.7661 216.805 18.7701C216.453 18.8005 216.1 18.835 215.748 18.8755C215.705 18.8796 215.651 18.9262 215.647 18.9546C215.64 19.0073 215.73 19.058 215.859 19.056C216.032 19.054 216.201 19.0195 216.356 19.1026C216.485 19.1756 216.647 19.2081 216.837 19.1756C216.952 19.1574 217.075 19.1574 217.19 19.1412C217.495 19.0925 217.772 19.1026 218.002 19.2405C218.178 19.277 218.351 19.2426 218.52 19.2243C218.646 19.2101 218.768 19.1959 218.858 19.2344C219.048 19.3155 219.235 19.3967 219.498 19.3419C219.782 19.3987 219.997 19.5183 220.235 19.6156C220.346 19.6623 220.432 19.6886 220.562 19.6582C220.616 19.6461 220.681 19.646 220.738 19.64C220.857 19.6298 220.983 19.5994 221.09 19.6116C221.198 19.6258 221.288 19.6846 221.385 19.7211C221.432 19.7393 221.486 19.7697 221.533 19.7677C221.712 19.7576 221.889 19.7373 222.065 19.7211C222.241 19.7069 222.417 19.6927 222.593 19.6785C222.741 19.7312 222.892 19.7839 223.039 19.8367C223.276 19.8144 223.514 19.792 223.747 19.7718C224.01 19.7474 224.01 19.7495 224.387 19.8752C224.556 19.9319 224.736 19.8954 224.898 19.8691C225.167 19.8265 225.347 19.9036 225.538 19.9847C225.577 20.0009 225.649 20.011 225.696 20.0029C225.883 19.9745 226.045 19.9968 226.181 20.0718C226.278 20.1246 226.375 20.1489 226.494 20.1388C226.907 20.1002 227.321 20.0597 227.734 20.0252C227.785 20.0212 227.842 20.0394 227.889 20.0556C228.256 20.1793 228.259 20.1854 228.529 20.153C228.77 20.1246 228.993 20.1124 229.183 20.2239C229.223 20.2482 229.284 20.2827 229.327 20.2807C229.622 20.2604 229.92 20.2381 230.211 20.2036C230.344 20.1874 230.438 20.1935 230.542 20.2402C230.675 20.299 230.794 20.3699 231.013 20.3436C231.621 20.2685 231.624 20.2807 232.343 20.4206C232.394 20.4307 232.462 20.4145 232.52 20.4064C232.642 20.3861 232.732 20.4145 232.839 20.4612C233.08 20.5666 233.088 20.5605 233.318 20.5382C233.494 20.52 233.677 20.5159 233.85 20.4855C234.116 20.4409 234.292 20.52 234.49 20.595C234.648 20.6538 234.831 20.6051 235 20.5869C235.184 20.5666 235.349 20.5727 235.486 20.6497C235.579 20.7024 235.68 20.7308 235.798 20.7207C236.212 20.6842 236.625 20.6436 237.039 20.6071C237.089 20.6031 237.15 20.6193 237.197 20.6335C237.607 20.7592 237.607 20.7653 238.013 20.7187C238.142 20.7045 238.25 20.7004 238.347 20.743C238.441 20.7835 238.542 20.8221 238.639 20.8606C238.815 20.8464 238.994 20.8423 239.167 20.818C239.3 20.7998 239.394 20.8079 239.498 20.8505C239.634 20.9052 239.749 21.0005 239.965 20.9539C240.077 20.9315 240.206 20.9376 240.318 20.9174C240.451 20.891 240.54 20.9072 240.645 20.9599C240.774 21.0228 240.907 21.0877 241.116 21.0552C241.346 21.0187 241.59 21.0127 241.824 20.9843C241.953 20.9681 242.043 20.9843 242.147 21.037C242.277 21.1039 242.424 21.1465 242.626 21.1201C243.036 21.0694 243.039 21.0796 243.438 21.2073C243.539 21.2397 243.647 21.2357 243.776 21.2195C243.888 21.2053 244.003 21.2357 244.082 21.2945C244.157 21.3594 244.15 21.3999 244.157 21.4344ZM212.12 3.14732C212.002 3.15746 211.883 3.16962 211.71 2.99322C211.7 2.9628 211.707 2.92632 211.682 2.89996C211.624 2.84521 211.534 2.80669 211.427 2.80061C211.232 2.79249 210.999 2.86142 211.002 2.91414C211.006 2.95875 211.067 2.99726 211.186 3.03376C211.236 3.04795 211.276 3.07229 211.322 3.08851C211.459 3.13515 211.567 3.2264 211.764 3.17977C211.729 3.05406 211.746 3.11691 211.764 3.17977C211.746 3.25682 211.8 3.31157 211.93 3.33387C211.966 3.33995 212.02 3.33589 212.048 3.32372C212.16 3.27911 212.178 3.2183 212.095 3.05812C212.081 3.08448 212.092 3.13109 212.124 3.14326C212.156 3.15543 212.235 3.1453 212.275 3.13111C212.376 3.09258 212.426 3.04189 212.401 2.99931C212.386 2.977 212.318 2.94862 212.275 2.94862C212.199 2.94862 212.131 2.99322 212.12 3.14732ZM241.191 26.6616C240.929 26.7001 240.627 26.6859 240.364 26.765C240.318 26.7792 240.271 26.8157 240.267 26.8441C240.264 26.8623 240.336 26.8887 240.379 26.9029C240.476 26.9353 240.584 26.9252 240.709 26.9151C240.9 26.9009 241.011 26.9941 241.159 27.0408C241.206 27.055 241.267 27.0651 241.317 27.061C241.608 27.0367 241.896 27.0104 242.187 26.982C242.237 26.9759 242.291 26.9617 242.334 26.9434C242.478 26.8846 242.464 26.8461 242.324 26.8015C242.169 26.7529 242.047 26.6717 241.889 26.6332C241.662 26.5785 241.432 26.6515 241.191 26.6616ZM220.774 28.1418C220.598 28.158 220.425 28.1742 220.249 28.1904C220.192 28.1965 220.13 28.1985 220.077 28.2066C219.965 28.2208 219.882 28.2634 219.828 28.3303C219.911 28.383 220.012 28.4135 220.123 28.4074C220.299 28.3952 220.472 28.3689 220.648 28.3628C220.839 28.3547 220.95 28.4459 221.098 28.4925C221.144 28.5067 221.202 28.5088 221.256 28.5108C221.522 28.5189 221.684 28.4135 221.633 28.2655C221.597 28.1499 221.461 28.0809 221.295 28.0951C221.123 28.1093 220.947 28.1256 220.774 28.1418ZM242.421 23.6648C242.464 23.6303 242.511 23.606 242.532 23.5756C242.597 23.4722 242.572 23.3951 242.453 23.314C242.309 23.2146 242.133 23.2816 241.971 23.2917C241.932 23.2937 241.889 23.3363 241.867 23.3627C241.853 23.3809 241.853 23.4195 241.874 23.4296C242.05 23.5107 242.237 23.5857 242.421 23.6648ZM211.232 17.6752C211.06 17.6914 210.884 17.7036 210.711 17.7259C210.668 17.732 210.628 17.7705 210.603 17.7969C210.556 17.8455 210.607 17.9124 210.754 17.9185C210.923 17.9266 211.099 17.8922 211.275 17.8759C211.498 17.8557 211.631 17.7806 211.549 17.7157C211.47 17.6529 211.362 17.6407 211.232 17.6752ZM21.9846 13.3422C22.0997 13.3321 22.2183 13.3239 22.3333 13.3097C22.4412 13.2955 22.5239 13.2509 22.5779 13.184C22.488 13.1313 22.3873 13.1029 22.2758 13.109C22.0997 13.1212 21.9271 13.1374 21.7546 13.1577C21.6467 13.1698 21.5425 13.2144 21.5173 13.2834C21.4921 13.3361 21.7329 13.3665 21.9846 13.3422ZM196.028 13.0299C196.075 13.0482 196.122 13.0847 196.168 13.0847C196.283 13.0847 196.402 13.0725 196.51 13.0522C196.557 13.0441 196.593 13.0076 196.614 12.9792C196.629 12.961 196.625 12.9286 196.604 12.9123C196.499 12.815 196.082 12.8495 196.014 12.961C196.007 12.9813 196.025 13.0076 196.028 13.0299ZM184.685 1.92669C184.696 1.95913 184.7 1.99157 184.714 2.02401C184.743 2.08484 184.822 2.12946 184.937 2.15987C185.027 2.10918 185.074 2.05242 185.07 1.99159C185.066 1.95915 185.056 1.92668 185.041 1.89424C185.013 1.83341 184.934 1.78882 184.818 1.75841C184.729 1.80707 184.685 1.86383 184.685 1.92669ZM250.729 28.4946C250.697 28.5209 250.664 28.5473 250.629 28.5716C250.726 28.6304 250.816 28.6487 250.884 28.6162C250.927 28.596 250.952 28.5655 250.985 28.5392C250.887 28.4804 250.801 28.4642 250.729 28.4946ZM248.493 28.7703C248.54 28.7886 248.583 28.8129 248.633 28.8251C248.716 28.8454 248.791 28.8109 248.849 28.7379C248.802 28.7196 248.759 28.6953 248.709 28.6831C248.626 28.6629 248.551 28.6973 248.493 28.7703ZM249.909 28.3993C249.884 28.4479 249.935 28.4885 250.068 28.523C250.1 28.4966 250.143 28.4723 250.165 28.4439C250.201 28.3972 250.14 28.3547 250.01 28.3222C249.974 28.3466 249.942 28.3729 249.909 28.3993ZM242.32 26.2135C242.295 26.2622 242.345 26.3027 242.478 26.3372C242.511 26.3108 242.554 26.2865 242.575 26.2581C242.611 26.2115 242.55 26.1689 242.421 26.1365C242.385 26.1608 242.352 26.1871 242.32 26.2135ZM231.98 11.8661C231.948 11.8924 231.916 11.9188 231.88 11.9431C231.977 12.0019 232.067 12.0202 232.135 11.9877C232.178 11.9675 232.203 11.937 232.236 11.9107C232.138 11.8519 232.052 11.8357 231.98 11.8661ZM222.075 4.25439C222.162 4.26858 222.234 4.24021 222.295 4.16519C222.248 4.14694 222.205 4.1226 222.155 4.11044C222.072 4.09016 221.996 4.12464 221.939 4.19764C221.986 4.21791 222.032 4.23614 222.075 4.25439ZM216.816 3.77791C216.783 3.80427 216.751 3.83063 216.715 3.85496C216.812 3.91376 216.902 3.932 216.97 3.89956C217.013 3.87928 217.039 3.84887 217.071 3.82251C216.974 3.76371 216.888 3.74952 216.816 3.77791ZM181.148 1.92466C181.115 1.95102 181.083 1.97738 181.047 2.00171C181.144 2.06051 181.234 2.07875 181.302 2.04631C181.345 2.02604 181.371 1.99562 181.403 1.96926C181.306 1.91046 181.22 1.89627 181.148 1.92466ZM3.54842 18.4214C3.50168 18.4031 3.45498 18.3849 3.41184 18.3646C3.30758 18.4193 3.27523 18.47 3.33276 18.5086C3.36871 18.5329 3.42259 18.5471 3.46933 18.5653C3.57719 18.5106 3.60234 18.4619 3.54842 18.4214Z" fill="#FFE492"/>
</svg>
