<svg width="119" height="27" viewBox="0 0 119 27" fill="none" xmlns="http://www.w3.org/2000/svg">
<path d="M111.943 14.5936C111.78 14.6152 111.615 14.6301 111.455 14.6625C111.351 14.6828 111.307 14.6233 111.238 14.5923C111.215 14.5815 111.19 14.5598 111.168 14.5625C111.007 14.5841 110.845 14.6085 110.684 14.6328C110.634 14.6855 110.603 14.7557 110.527 14.7814C110.453 14.8057 110.366 14.8057 110.283 14.8179C110.174 14.8328 110.066 14.8476 109.957 14.8611C109.903 14.8679 109.858 14.8936 109.84 14.9422C109.837 14.9503 109.873 14.9706 109.893 14.9827C109.959 15.0233 110.023 15.0692 110.095 15.1003C110.165 15.13 110.25 15.0814 110.324 15.1192C110.491 15.2043 110.493 15.203 110.62 15.1867C110.728 15.1719 110.837 15.1557 110.946 15.1449C110.967 15.1422 110.992 15.1624 111.015 15.1732C111.084 15.203 111.129 15.2705 111.231 15.2449C111.309 15.2246 111.394 15.2205 111.475 15.2097C111.543 15.2489 111.605 15.2935 111.678 15.3246C111.745 15.3543 111.765 15.3773 111.729 15.4164C111.696 15.4529 111.65 15.4678 111.589 15.4705C111.534 15.4718 111.48 15.484 111.426 15.4907C111.398 15.4948 111.371 15.4975 111.345 15.5016C111.241 15.5164 111.241 15.5164 111.051 15.43C110.977 15.3962 110.893 15.4435 110.822 15.411C110.774 15.3894 110.733 15.357 110.687 15.334C110.667 15.3246 110.636 15.3232 110.611 15.3259C110.529 15.3354 110.446 15.3421 110.367 15.3597C110.311 15.3719 110.278 15.4097 110.285 15.4475C110.287 15.4624 110.326 15.484 110.349 15.4854C110.402 15.4881 110.458 15.4691 110.509 15.4786C110.559 15.488 110.61 15.5151 110.646 15.5448C110.72 15.6069 110.804 15.5516 110.875 15.5678C110.949 15.5853 111.01 15.6394 111.081 15.6718C111.099 15.6799 111.134 15.6664 111.162 15.6623C111.243 15.6529 111.323 15.6448 111.404 15.6353C111.472 15.6745 111.544 15.7096 111.605 15.7542C111.716 15.8353 111.834 15.8664 111.978 15.8272C112.059 15.8056 112.138 15.8137 112.202 15.8664C112.268 15.9204 112.344 15.915 112.428 15.9042C112.505 15.8934 112.584 15.8637 112.663 15.9015C112.835 15.9853 112.837 15.9893 113.039 15.9569C113.1 15.9474 113.146 15.9447 113.193 15.9758C113.235 16.0042 113.282 16.0285 113.326 16.0555C113.407 16.0461 113.489 16.0366 113.57 16.0258C113.674 16.0109 113.732 16.0298 113.756 16.1055C113.771 16.1514 113.778 16.1933 113.814 16.2244C113.857 16.2622 113.903 16.2609 113.966 16.2501C114.025 16.2406 114.068 16.2258 114.093 16.1771C114.102 16.1569 114.122 16.1379 114.14 16.1217C114.155 16.1096 114.178 16.0907 114.192 16.0934C114.216 16.0988 114.249 16.1136 114.257 16.1312C114.338 16.2947 114.338 16.296 114.421 16.3433C114.511 16.396 114.605 16.4433 114.688 16.5027C114.762 16.5554 114.836 16.5325 114.917 16.5325C114.978 16.5325 115.017 16.5676 115.012 16.6027C115.009 16.623 114.986 16.6527 114.966 16.6554C114.805 16.6824 114.642 16.7054 114.478 16.7243C114.459 16.727 114.434 16.7027 114.411 16.6905C114.365 16.6662 114.323 16.6284 114.274 16.6203C114.224 16.6122 114.167 16.6324 114.112 16.6392C114.058 16.6459 114 16.6635 113.951 16.6527C113.901 16.6419 113.862 16.6027 113.816 16.577C113.794 16.5649 113.765 16.5473 113.746 16.5514C113.626 16.5838 113.537 16.5392 113.451 16.4798C113.433 16.4676 113.402 16.4595 113.379 16.4622C113.188 16.4852 112.998 16.5122 112.807 16.5379C112.729 16.5487 112.667 16.5014 112.65 16.4217C112.642 16.3771 112.626 16.3325 112.626 16.2879C112.626 16.2068 112.535 16.1623 112.469 16.1717C112.36 16.1852 112.25 16.196 112.143 16.2163C112.055 16.2325 111.981 16.2163 111.922 16.1677C111.852 16.1123 111.773 16.1231 111.694 16.1379C111.635 16.1487 111.618 16.1933 111.622 16.3055C111.625 16.396 111.597 16.4244 111.49 16.4392C111.355 16.4581 111.218 16.4771 111.081 16.4919C111.06 16.4946 111.035 16.4717 111.013 16.4595C110.967 16.4352 110.926 16.396 110.877 16.3879C110.827 16.3784 110.77 16.3987 110.715 16.4068C110.661 16.4136 110.603 16.4325 110.554 16.423C110.504 16.4136 110.463 16.373 110.418 16.3474C110.397 16.3352 110.371 16.3176 110.349 16.3203C110.24 16.3311 110.132 16.3474 110.023 16.3622C109.901 16.3784 109.901 16.3784 109.728 16.2947C109.649 16.2568 109.57 16.2866 109.492 16.2974C109.41 16.3082 109.332 16.3136 109.268 16.2595C109.225 16.2244 109.177 16.2028 109.126 16.2095C108.989 16.2258 108.854 16.246 108.717 16.2622C108.694 16.2649 108.663 16.2582 108.645 16.246C108.557 16.1893 108.472 16.1447 108.35 16.1731C108.244 16.1974 108.131 16.1987 108.025 16.2217C107.967 16.2339 107.941 16.2771 107.952 16.3109C107.959 16.3284 107.994 16.3487 108.017 16.3487C108.07 16.3501 108.127 16.3298 108.177 16.3379C108.279 16.3541 108.33 16.4676 108.463 16.4365C108.543 16.4176 108.625 16.4109 108.707 16.4055C108.729 16.4041 108.752 16.4298 108.775 16.4433C108.841 16.4798 108.899 16.5271 108.994 16.5027C109.073 16.4838 109.157 16.4784 109.238 16.4676C109.367 16.4501 109.367 16.4514 109.533 16.5338C109.612 16.573 109.691 16.5419 109.769 16.5325C109.827 16.5257 109.881 16.5122 109.927 16.5311C109.998 16.5595 110.049 16.6243 110.137 16.6203C110.219 16.6162 110.3 16.5973 110.382 16.5906C110.433 16.5865 110.481 16.6081 110.522 16.6446C110.565 16.6811 110.611 16.6973 110.667 16.6892C110.748 16.6784 110.83 16.6649 110.913 16.6581C110.936 16.6568 110.962 16.6689 110.984 16.6797C111.03 16.7041 111.074 16.7324 111.119 16.7581C111.2 16.75 111.282 16.7473 111.361 16.7311C111.422 16.7189 111.465 16.7243 111.515 16.7513C111.577 16.7878 111.628 16.8527 111.731 16.8216C111.782 16.8067 111.841 16.8108 111.892 16.7973C111.955 16.7797 111.998 16.7865 112.042 16.827C112.126 16.904 112.232 16.9054 112.34 16.8756C112.459 16.8432 112.548 16.8811 112.637 16.9405C112.731 17.0027 112.731 17.0013 112.804 17.1513C112.825 17.1945 112.886 17.2148 112.937 17.2067C113.023 17.1932 113.097 17.1999 113.16 17.2513C113.226 17.3066 113.305 17.2999 113.385 17.285C113.493 17.2648 113.6 17.2472 113.687 17.3256C113.73 17.3634 113.776 17.3728 113.834 17.3634C113.997 17.3391 114.162 17.3242 114.322 17.2945C114.419 17.2756 114.475 17.3188 114.541 17.3553C114.63 17.4053 114.727 17.4499 114.727 17.5566C114.727 17.5742 114.75 17.5944 114.77 17.6079C114.813 17.6363 114.859 17.6606 114.904 17.6877C114.97 17.7282 115.034 17.762 115.124 17.7404C115.204 17.7228 115.288 17.7174 115.368 17.7052C115.449 17.6931 115.523 17.6863 115.596 17.7376C115.68 17.7957 115.769 17.8511 115.865 17.8944C115.932 17.9255 116.021 17.8728 116.094 17.9147C116.138 17.9403 116.181 17.97 116.229 17.9917C116.249 18.0011 116.28 17.9944 116.306 17.9917C116.361 17.9863 116.417 17.9822 116.47 17.9687C116.531 17.9538 116.577 17.9565 116.623 17.9876C116.666 18.016 116.709 18.0552 116.758 18.0633C116.832 18.0754 116.915 18.0214 116.989 18.0835C117.027 18.1146 117.074 18.1443 117.124 18.1538C117.173 18.1633 117.231 18.143 117.284 18.1443C117.307 18.1443 117.335 18.166 117.348 18.1835C117.356 18.193 117.345 18.2187 117.333 18.2322C117.318 18.2484 117.297 18.27 117.276 18.2727C117.112 18.297 116.949 18.3173 116.786 18.3403C116.689 18.3538 116.689 18.3538 116.493 18.2686C116.446 18.2484 116.395 18.2524 116.338 18.2619C116.26 18.274 116.181 18.297 116.1 18.2727C115.995 18.1808 115.865 18.1727 115.726 18.2078C115.668 18.2227 115.616 18.2227 115.573 18.197C115.482 18.1457 115.387 18.0984 115.306 18.0376C115.243 17.9903 115.214 17.9863 115.187 18.0511C115.179 18.0714 115.171 18.093 115.172 18.1119C115.182 18.1795 115.2 18.2457 115.21 18.3132C115.213 18.3321 115.2 18.3538 115.192 18.374C115.166 18.4308 115.131 18.4267 115.073 18.3794C115.016 18.3321 114.946 18.3011 114.854 18.3227C114.775 18.3416 114.689 18.3389 114.61 18.3592C114.488 18.3889 114.403 18.3457 114.315 18.2876C114.297 18.2754 114.266 18.2686 114.243 18.2714C113.997 18.3024 113.753 18.3376 113.507 18.3686C113.455 18.3754 113.407 18.3551 113.366 18.3186C113.323 18.2822 113.275 18.2632 113.222 18.27C113.005 18.2984 112.787 18.324 112.57 18.3592C112.481 18.374 112.41 18.3565 112.349 18.3092C112.303 18.274 112.26 18.2632 112.202 18.2673C112.139 18.2713 112.095 18.2849 112.063 18.324C112.034 18.3619 112.055 18.3848 112.121 18.4146C112.192 18.447 112.258 18.4889 112.326 18.5267C112.38 18.5213 112.434 18.5105 112.487 18.5118C112.51 18.5118 112.532 18.5362 112.555 18.5497C112.621 18.5889 112.682 18.628 112.776 18.6064C112.855 18.5875 112.939 18.5835 113.02 18.5713C113.132 18.5564 113.132 18.5564 113.313 18.6416C113.359 18.6632 113.409 18.6618 113.468 18.6497C113.519 18.6402 113.572 18.6591 113.608 18.6996C113.623 18.7159 113.618 18.7429 113.587 18.8321C113.587 18.8983 113.621 18.8685 113.633 18.8253C113.651 18.7632 113.616 18.7429 113.55 18.7767C113.504 18.801 113.481 18.8361 113.493 18.8645C113.499 18.8794 113.531 18.8983 113.587 18.8321C113.732 18.751 113.842 18.7415 113.948 18.7199C114.01 18.7078 114.05 18.7132 114.099 18.7483C114.159 18.7902 114.218 18.8348 114.315 18.8131C114.421 18.7888 114.533 18.7861 114.64 18.7658C114.739 18.7469 114.79 18.8064 114.853 18.8415C114.928 18.8834 115.012 18.8361 115.082 18.8604C115.154 18.8848 115.205 18.9442 115.289 18.955C115.411 18.9185 115.489 18.9861 115.581 19.0307C115.654 19.0645 115.739 19.0347 115.817 19.0199C115.904 19.0036 115.977 19.0185 116.038 19.0672C116.107 19.1226 116.184 19.1104 116.264 19.0982C116.448 19.0712 116.455 19.0671 116.562 19.1415C116.639 19.1955 116.714 19.1712 116.791 19.1644C116.859 19.2009 116.924 19.2401 116.995 19.2725C117.014 19.2806 117.048 19.2671 117.076 19.2631C117.157 19.2523 117.239 19.2414 117.32 19.2306C117.374 19.2239 117.432 19.2036 117.482 19.2117C117.531 19.2212 117.572 19.2604 117.617 19.286C117.661 19.3117 117.707 19.3374 117.75 19.3644C117.816 19.4049 117.879 19.4387 117.971 19.4184C118.05 19.4009 118.133 19.3955 118.215 19.3833C118.319 19.3685 118.316 19.3725 118.509 19.4536C118.612 19.4982 118.72 19.4441 118.825 19.4387C118.878 19.436 118.929 19.4509 118.965 19.4901C118.98 19.5063 118.975 19.5333 118.98 19.5563C118.708 19.5927 118.434 19.6238 118.166 19.6684C118.062 19.686 118.007 19.6373 117.951 19.5968C117.859 19.5319 117.737 19.6265 117.65 19.5427C117.597 19.4927 117.521 19.4644 117.431 19.4887C117.378 19.5022 117.322 19.5009 117.267 19.513C117.129 19.5427 117.002 19.5441 116.892 19.4509C116.854 19.4184 116.799 19.4009 116.76 19.3698C116.714 19.336 116.669 19.3171 116.615 19.3239C116.369 19.3563 116.125 19.3887 115.881 19.4238C115.86 19.4265 115.838 19.4468 115.82 19.4617C115.774 19.4995 115.789 19.5292 115.863 19.5536C115.888 19.5617 115.907 19.5792 115.931 19.5927C115.975 19.6184 116.016 19.6589 116.066 19.6684C116.115 19.6779 116.173 19.6589 116.227 19.6522C116.282 19.6454 116.339 19.6252 116.389 19.6333C116.438 19.6427 116.479 19.6819 116.526 19.7062C116.547 19.7184 116.573 19.7387 116.595 19.7373C116.704 19.7292 116.811 19.7143 116.92 19.7022C116.987 19.7387 117.045 19.7913 117.126 19.8035C117.177 19.8116 117.231 19.7967 117.284 19.7995C117.307 19.8008 117.337 19.8211 117.348 19.8386C117.355 19.8494 117.333 19.8765 117.317 19.89C117.254 19.9413 117.168 19.9319 117.091 19.9481C117.007 19.9656 116.931 19.9602 116.867 19.9075C116.824 19.8724 116.776 19.8535 116.723 19.8603C116.587 19.8778 116.451 19.8981 116.315 19.913C116.291 19.9157 116.263 19.9035 116.242 19.894C116.069 19.8116 116.069 19.8089 115.947 19.8265C115.767 19.8522 115.767 19.8521 115.647 19.7805C115.624 19.767 115.599 19.7414 115.579 19.7427C115.388 19.7643 115.199 19.7859 115.009 19.817C114.946 19.8265 114.904 19.8265 114.857 19.7914C114.818 19.7616 114.772 19.7278 114.722 19.7197C114.671 19.7116 114.615 19.7319 114.561 19.7387C114.506 19.7454 114.449 19.763 114.401 19.7522C114.351 19.7414 114.309 19.7035 114.266 19.6765C114.221 19.6481 114.173 19.6495 114.112 19.6603C113.924 19.6914 113.923 19.6873 113.737 19.6035C113.715 19.5941 113.687 19.5833 113.664 19.586C113.527 19.6022 113.392 19.6225 113.255 19.6387C113.203 19.6454 113.151 19.6279 113.115 19.5887C113.1 19.5725 113.105 19.5454 113.095 19.4927C113.084 19.4806 113.097 19.5022 113.1 19.5225C113.125 19.5198 113.155 19.5225 113.173 19.5117C113.219 19.486 113.242 19.4522 113.231 19.4238C113.224 19.409 113.193 19.3901 113.173 19.3901C113.137 19.3901 113.105 19.4198 113.095 19.4927C112.992 19.5373 112.881 19.5468 112.774 19.5684C112.711 19.5819 112.672 19.5752 112.622 19.54C112.563 19.4968 112.502 19.4549 112.405 19.4765C112.299 19.5009 112.187 19.5049 112.078 19.5238C111.953 19.5455 111.899 19.4238 111.793 19.4265C111.684 19.4292 111.576 19.4522 111.467 19.4684C111.371 19.4819 111.371 19.4819 111.173 19.3941C111.101 19.3617 111.015 19.409 110.944 19.3752C110.896 19.3536 110.855 19.3212 110.809 19.2982C110.789 19.2887 110.758 19.2887 110.733 19.2914C110.596 19.3076 110.458 19.3185 110.326 19.3482C110.176 19.3833 110.062 19.3455 109.955 19.2658C109.82 19.2806 109.683 19.2887 109.55 19.3144C109.453 19.3333 109.396 19.2887 109.331 19.2523C109.307 19.2401 109.288 19.2198 109.263 19.2144C109.238 19.209 109.209 19.2198 109.182 19.2239C109.073 19.2387 108.961 19.2455 108.856 19.2698C108.726 19.3009 108.676 19.1901 108.576 19.1766C108.508 19.2428 108.472 19.3333 108.338 19.3401C108.229 19.3455 108.121 19.3671 108.012 19.382C107.957 19.3887 107.903 19.3968 107.849 19.4036C107.761 19.4157 107.72 19.4684 107.738 19.5495C107.748 19.5941 107.756 19.6387 107.765 19.6833C107.781 19.763 107.74 19.8305 107.671 19.84C107.479 19.8657 107.29 19.8927 107.099 19.9156C107.048 19.9224 106.998 19.8994 106.957 19.863C106.914 19.8265 106.866 19.8103 106.813 19.817C106.622 19.8427 106.433 19.8697 106.241 19.8927C106.22 19.8954 106.192 19.8819 106.171 19.8711C106.124 19.8467 106.08 19.8184 106.035 19.7927C105.927 19.8049 105.82 19.813 105.712 19.8292C105.539 19.8535 105.539 19.8548 105.412 19.7805C105.389 19.767 105.366 19.7414 105.345 19.7427C105.262 19.7481 105.182 19.7616 105.099 19.7738C104.857 19.8089 104.857 19.8089 104.786 19.7684C104.722 19.7305 104.664 19.6846 104.567 19.7062C104.461 19.7306 104.349 19.7387 104.24 19.7522C104.16 19.7616 104.079 19.7724 103.998 19.7751C103.977 19.7765 103.954 19.7508 103.93 19.7373C103.865 19.6954 103.8 19.6616 103.71 19.6846C103.657 19.6981 103.601 19.7008 103.546 19.7076C103.405 19.7265 103.405 19.7265 103.172 19.6454C103.149 19.6373 103.121 19.6279 103.098 19.6319C102.907 19.6562 102.717 19.6833 102.526 19.7062C102.503 19.7089 102.475 19.7008 102.452 19.6941C102.191 19.6157 102.191 19.6157 101.915 19.6535C101.809 19.667 101.806 19.6725 101.695 19.6008C101.646 19.5698 101.605 19.5549 101.547 19.5644C101.329 19.5968 101.11 19.6184 100.894 19.6562C100.797 19.6725 100.741 19.6319 100.675 19.5954C100.652 19.5833 100.627 19.5563 100.607 19.5576C100.39 19.5833 100.172 19.6144 99.9546 19.64C99.9349 19.6427 99.9101 19.6157 99.8871 19.6035C99.8426 19.5792 99.7997 19.5427 99.7503 19.5346C99.6992 19.5265 99.6431 19.5468 99.5871 19.5536C99.4502 19.5711 99.4502 19.5698 99.292 19.4901C99.2706 19.4792 99.2426 19.4644 99.2211 19.4671C99.0035 19.4941 98.7843 19.5171 98.5684 19.5563C98.4448 19.5779 98.3607 19.5387 98.2733 19.4819C98.2552 19.4698 98.2239 19.4644 98.2008 19.4671C97.9552 19.4982 97.7113 19.5333 97.4657 19.5644C97.4146 19.5711 97.3651 19.5481 97.3239 19.513C97.2579 19.4576 97.1805 19.4644 97.0981 19.4765C96.9085 19.5049 96.9068 19.5036 96.7948 19.4387C96.7717 19.4252 96.7519 19.4076 96.7272 19.4009C96.7041 19.3941 96.6744 19.3982 96.6497 19.4009C96.5409 19.4144 96.4321 19.4292 96.3233 19.4441C96.2146 19.459 96.1041 19.4671 95.9969 19.4901C95.8651 19.5184 95.8024 19.4306 95.7101 19.3901C95.575 19.4076 95.4365 19.4184 95.303 19.4468C95.2008 19.4684 95.153 19.409 95.0854 19.3779C95.0624 19.3671 95.0376 19.3441 95.0162 19.3468C94.7706 19.3766 94.525 19.409 94.281 19.4455C94.2217 19.4536 94.1821 19.4428 94.1327 19.4103C94.0222 19.3374 94.0173 19.3401 93.8327 19.3671C93.7519 19.3793 93.6744 19.3901 93.6052 19.3347C93.5442 19.2847 93.47 19.2725 93.3827 19.2887C93.2755 19.309 93.1651 19.3198 93.0563 19.3333C92.9475 19.3482 92.8387 19.3684 92.7299 19.3752C92.6426 19.382 92.5898 19.3185 92.5206 19.286C92.4992 19.2766 92.4695 19.2752 92.4448 19.2779C92.336 19.2901 92.2239 19.2995 92.1184 19.3225C91.9898 19.3509 91.9189 19.2766 91.8283 19.2333C91.8085 19.2239 91.7755 19.2293 91.7508 19.2333C91.5596 19.2577 91.37 19.2847 91.1788 19.3104C91.1112 19.2739 91.042 19.2388 90.9744 19.2023C90.8656 19.2158 90.7568 19.2306 90.648 19.2441C90.5656 19.255 90.4816 19.259 90.4041 19.2793C90.3035 19.3063 90.2541 19.2428 90.1865 19.2117C90.1634 19.2009 90.1387 19.1779 90.1173 19.1806C89.9805 19.1955 89.8436 19.2117 89.7085 19.2347C89.5799 19.2577 89.5288 19.1361 89.4233 19.1374C89.3145 19.1388 89.2024 19.1563 89.0969 19.1806C88.975 19.209 88.8892 19.1658 88.8019 19.1077C88.7838 19.0955 88.7524 19.0888 88.7294 19.0915C88.5926 19.1077 88.4574 19.128 88.3206 19.1442C88.2975 19.1469 88.2695 19.1401 88.2464 19.132C87.986 19.0523 87.986 19.0509 87.8722 19.0672C87.7915 19.078 87.709 19.0915 87.6266 19.0982C87.6035 19.1009 87.5755 19.0888 87.5541 19.078C87.3826 18.9955 87.3826 18.9942 87.259 19.0104C87.1502 19.0253 87.0414 19.0401 86.9326 19.055C86.8651 19.0185 86.7958 18.9834 86.7282 18.9469C86.5931 18.9645 86.4546 18.978 86.3211 19.0023C86.2585 19.0131 86.2173 19.0091 86.1695 18.9753C86.1101 18.9347 86.0508 18.8875 85.9519 18.9104C85.8464 18.9347 85.7343 18.9374 85.6271 18.9577C85.4986 18.982 85.4458 18.8591 85.342 18.8604C85.2332 18.8618 85.1211 18.8793 85.0156 18.9037C84.8936 18.932 84.8079 18.8888 84.7206 18.8307C84.7024 18.8186 84.6711 18.8118 84.648 18.8145C84.348 18.8537 84.0497 18.8929 83.7497 18.9347C83.5651 18.9604 83.5651 18.9618 83.214 18.8874C83.1892 18.882 83.1628 18.8766 83.1381 18.8794C83.0293 18.8915 82.9172 18.901 82.8117 18.9239C82.6832 18.9523 82.6123 18.8793 82.5216 18.8348C82.5018 18.8253 82.4705 18.8307 82.4442 18.8334C82.3617 18.8429 82.281 18.855 82.1986 18.8658C82.0898 18.8807 81.981 18.8956 81.8722 18.9104C81.8046 18.8753 81.7354 18.8388 81.6678 18.8037C81.5326 18.8212 81.3942 18.8307 81.2607 18.8591C81.1585 18.8807 81.1106 18.824 81.0431 18.7915C81.02 18.7807 80.9953 18.7577 80.9738 18.7591C80.7282 18.7888 80.4826 18.8199 80.2387 18.8577C80.1381 18.8739 80.092 18.8131 80.0244 18.7821C80.0013 18.7726 79.9749 18.755 79.9535 18.7577C79.7903 18.7767 79.6271 18.7996 79.464 18.8226C79.3717 18.8361 79.3717 18.8361 79.1705 18.7523C79.1475 18.7429 79.1211 18.7334 79.098 18.7361C78.5804 18.8037 78.0645 18.8753 77.5469 18.9429C77.4942 18.9496 77.4464 18.9293 77.4052 18.8929C77.3623 18.8564 77.3145 18.8375 77.2617 18.8442C77.0442 18.8726 76.8249 18.8983 76.609 18.9334C76.52 18.9483 76.4491 18.9307 76.3881 18.8834C76.3419 18.8483 76.2991 18.8348 76.2414 18.8429C76.1326 18.8591 76.0238 18.8726 75.915 18.8874C75.8063 18.9023 75.6975 18.9172 75.5887 18.932C75.4799 18.9469 75.3694 18.955 75.2623 18.978C75.1304 19.0064 75.0661 18.9226 74.9755 18.8807C74.8123 18.901 74.6491 18.9212 74.4875 18.9429C74.27 18.9712 74.0524 19.0023 73.8348 19.0293C73.815 19.032 73.7903 19.0077 73.7672 18.9955C73.6996 18.9618 73.6502 18.9145 73.5496 18.9293C73.0617 19.001 72.5705 19.0618 72.081 19.132C71.9788 19.1469 71.9342 19.0888 71.865 19.0577C71.8419 19.0482 71.8156 19.0293 71.7942 19.032C71.5222 19.0658 71.2502 19.1036 70.9782 19.1401C70.8678 19.155 70.8678 19.155 70.6832 19.0712C70.6617 19.0617 70.6337 19.0496 70.6106 19.0523C70.2562 19.0982 69.9035 19.1469 69.5491 19.1942C69.4963 19.2009 69.4485 19.182 69.4057 19.1455C69.3645 19.109 69.315 19.0888 69.2639 19.0955C68.9375 19.1388 68.6095 19.1806 68.2848 19.2279C68.1974 19.2414 68.1249 19.2293 68.0623 19.1806C68.0177 19.1455 67.9733 19.1306 67.9172 19.1388C67.4277 19.205 66.9381 19.2685 66.4485 19.3387C66.3546 19.3522 66.2886 19.3266 66.2293 19.282C66.1815 19.2469 66.1403 19.2401 66.0809 19.2455C66.0183 19.2523 65.9804 19.2671 65.9458 19.3076C65.9013 19.3603 65.8733 19.4265 65.7678 19.4306C65.659 19.4347 65.5485 19.4509 65.4414 19.4738C65.3392 19.4968 65.2914 19.436 65.2271 19.3995C65.1793 19.3739 65.1348 19.3698 65.0738 19.382C65.0178 19.3928 64.9831 19.4157 64.9502 19.459C64.8776 19.5508 64.8711 19.5508 64.782 19.4927C64.7342 19.4617 64.6914 19.4374 64.6386 19.4428C64.421 19.4698 64.2035 19.4995 63.9859 19.5306C63.8606 19.5481 63.859 19.5509 63.765 19.4833C63.7189 19.4495 63.6743 19.4333 63.6199 19.4414C63.0216 19.5225 62.4233 19.6008 61.8249 19.686C61.7326 19.6995 61.6699 19.6711 61.604 19.6306C61.5826 19.6171 61.5612 19.5981 61.5364 19.5927C61.5117 19.5873 61.4837 19.5927 61.4573 19.5954C61.0222 19.6535 60.5853 19.7089 60.1518 19.7738C60.0529 19.7887 60.0002 19.7454 59.9326 19.7103C59.9095 19.6981 59.8897 19.6792 59.865 19.6738C59.8403 19.6698 59.8106 19.6792 59.7842 19.6833C59.349 19.7414 58.9122 19.7968 58.4787 19.8616C58.3749 19.8765 58.3304 19.8197 58.2628 19.79C58.2397 19.7792 58.215 19.7589 58.1936 19.7616C58.0568 19.7765 57.9216 19.7967 57.7848 19.8143C57.4584 19.8589 57.132 19.9008 56.8056 19.9467C56.6803 19.9643 56.626 19.844 56.5205 19.8494C56.3836 19.8562 56.2485 19.8832 56.1117 19.9021C56.0029 19.917 55.8941 19.9305 55.7853 19.9467C55.6782 19.9616 55.6782 19.9616 55.4111 19.8832C55.388 19.8765 55.36 19.867 55.337 19.8697C54.9562 19.9197 54.5738 19.9697 54.1947 20.0237C54.1073 20.0359 54.0347 20.0292 53.9721 19.9792C53.9276 19.944 53.8815 19.9265 53.8271 19.9346C53.2551 20.0116 52.6847 20.0886 52.1128 20.1643C52.0913 20.167 52.0633 20.1535 52.0419 20.1426C51.9957 20.1183 51.9512 20.09 51.9067 20.0643C51.8737 20.0954 51.8309 20.1237 51.8095 20.1589C51.7798 20.2061 51.7402 20.2197 51.6776 20.2278C51.615 20.2359 51.5754 20.2332 51.526 20.198C51.4666 20.1548 51.4056 20.121 51.3084 20.1345C50.71 20.2196 50.1117 20.2967 49.5133 20.3804C49.4144 20.3939 49.3683 20.3345 49.299 20.3034C49.276 20.294 49.2496 20.2791 49.2281 20.2818C48.9825 20.3129 48.7386 20.3467 48.493 20.3791C47.8122 20.471 47.1315 20.5588 46.4523 20.6561C46.3287 20.6736 46.2446 20.6399 46.1573 20.5818C46.1391 20.5696 46.1078 20.5628 46.0848 20.5655C45.132 20.6925 44.1792 20.8209 43.2281 20.9493C43.177 20.956 43.1276 20.9344 43.0864 20.8993C43.0435 20.8628 42.9957 20.8452 42.943 20.852C42.5078 20.9101 42.0727 20.9682 41.6375 21.0276C41.5287 21.0425 41.527 21.0438 41.4149 20.979C41.3919 20.9655 41.3672 20.9398 41.349 20.9425C41.3111 20.9493 41.2748 20.983 41.2485 21.029C41.2221 21.0776 41.1809 21.0911 41.1199 21.1006C41.0572 21.11 41.016 21.106 40.9682 21.0736C40.9073 21.033 40.8512 20.9938 40.7523 21.0074C39.5012 21.1803 38.2501 21.3465 36.999 21.5181C36.8984 21.5316 36.8523 21.4748 36.783 21.4438C36.76 21.4343 36.7369 21.4208 36.7122 21.4181C36.6858 21.4154 36.6578 21.4235 36.6314 21.4276C34.5907 21.7018 32.5501 21.9775 30.5094 22.2517C30.3875 22.2679 30.3891 22.2679 30.2556 22.3923C30.2391 22.4071 30.2177 22.4274 30.1946 22.4301C29.5698 22.5165 28.9435 22.6003 28.3171 22.6841C28.0451 22.7206 27.7732 22.7584 27.5012 22.7935C27.4039 22.8057 27.4039 22.8057 27.1715 22.9516C27.1517 22.9638 27.1286 22.98 27.1056 22.9827C26.0176 23.13 24.9297 23.2772 23.8402 23.4218C23.7544 23.4326 23.6852 23.4569 23.6457 23.5218C23.6176 23.5677 23.5814 23.5947 23.527 23.6028C22.7654 23.7055 22.0039 23.8096 21.2407 23.9095C21.1501 23.9217 21.0957 23.9595 21.0511 24.0163C21.0363 24.0352 21.0231 24.0568 21.0017 24.0703C20.9819 24.0825 20.9522 24.0865 20.9275 24.0906C20.2748 24.1784 19.622 24.2689 18.9676 24.3527C18.8704 24.3649 18.8308 24.4149 18.783 24.4676C18.7665 24.4851 18.755 24.5094 18.7336 24.5216C18.7121 24.5324 18.6808 24.5324 18.6544 24.5351C18.1105 24.6081 17.5665 24.6824 17.0226 24.7553C16.9171 24.7486 16.894 24.827 16.8429 24.8742C16.8248 24.8905 16.8116 24.9121 16.7902 24.9229C16.7671 24.9337 16.7374 24.9323 16.7094 24.935C16.2742 24.9931 15.839 25.0553 15.4022 25.1093C15.3017 25.1215 15.2819 25.1904 15.2275 25.2377C15.2094 25.2526 15.1913 25.2755 15.1698 25.2796C14.8978 25.3188 14.6259 25.3552 14.3539 25.3904C14.2632 25.4025 14.2632 25.4012 14.1033 25.5349C14.0852 25.5498 14.0638 25.566 14.0407 25.5701C13.6335 25.6268 13.2248 25.6809 12.816 25.7363C12.7632 25.743 12.727 25.7754 12.7006 25.8214C12.6742 25.8673 12.6363 25.897 12.5836 25.9038C12.2572 25.9484 11.9308 25.9943 11.6044 26.0348C11.5138 26.0457 11.4544 26.0794 11.4149 26.1402C11.3852 26.1862 11.3489 26.2091 11.2912 26.2172C10.9649 26.2605 10.6385 26.3078 10.3105 26.3456C10.2149 26.3564 10.1654 26.4024 10.1258 26.4591C10.0945 26.505 10.0583 26.5213 9.99726 26.5294C9.39891 26.6077 8.79893 26.6861 8.20222 26.7726C8.10167 26.7874 8.05056 26.7401 7.98463 26.7063C7.89067 26.6591 7.80333 26.6077 7.80333 26.5023C7.80333 26.4861 7.7753 26.4672 7.75552 26.4537C7.60882 26.3524 7.60881 26.3524 7.58574 26.2443C7.57255 26.1781 7.55772 26.1105 7.54618 26.043C7.52475 25.9322 7.47198 25.9038 7.32033 25.9241C7.26594 25.9308 7.21154 25.9403 7.15715 25.9457C7.07638 25.9551 7.0154 25.9105 7.00056 25.8295C6.99232 25.7849 6.98245 25.7403 6.9742 25.6957C7.05662 25.6849 7.05495 25.6836 7.20001 25.5201C7.261 25.4512 7.26102 25.4512 7.14399 25.3823C7.09948 25.3566 7.05662 25.3282 7.00881 25.3039C6.98738 25.2931 6.95937 25.2863 6.9363 25.289C6.79948 25.3052 6.66432 25.3242 6.52916 25.3431C6.31157 25.3728 6.31155 25.3728 6.09067 25.235C6.07254 25.2242 6.04451 25.2039 6.04781 25.1931C6.06594 25.1431 6.11044 25.1215 6.16649 25.1161C6.2489 25.108 6.32967 25.0945 6.41044 25.0837C6.46483 25.0769 6.51923 25.0688 6.57362 25.0621C6.62472 25.0107 6.6775 24.9607 6.7253 24.908C6.80113 24.827 6.8011 24.8242 6.69725 24.7675C6.63132 24.7297 6.56044 24.6959 6.49286 24.6608C6.41209 24.6716 6.32967 24.6837 6.2489 24.6932C6.14671 24.7053 6.10549 24.6797 6.07912 24.5919C6.05604 24.5148 6.08406 24.4486 6.16319 24.4324C6.24396 24.4162 6.31981 24.4054 6.36102 24.3365C6.40058 24.2703 6.4698 24.2446 6.55552 24.2392C6.60991 24.2352 6.66431 24.2257 6.7187 24.2176C6.78958 24.2068 6.8275 24.1379 6.81267 24.0609C6.80443 24.0109 6.78794 23.969 6.72365 23.9582C6.43849 23.9109 6.43517 23.9122 6.29341 23.8204C6.28023 23.8123 6.27036 23.7879 6.2753 23.7758C6.28354 23.7555 6.30168 23.7258 6.32146 23.7217C6.51102 23.692 6.70058 23.665 6.89014 23.6447C6.95277 23.638 6.99893 23.6285 7.02036 23.5785C7.05003 23.5096 7.03685 23.4461 6.97915 23.3988C6.96102 23.384 6.93133 23.365 6.91155 23.3664C6.69396 23.3907 6.47804 23.4218 6.26045 23.4461C6.24067 23.4488 6.20443 23.4259 6.19618 23.4083C6.1797 23.3759 6.20441 23.3326 6.2621 23.3178C6.33793 23.2975 6.4154 23.2961 6.4665 23.2286C6.53738 23.1327 6.62473 23.0448 6.70385 22.953C6.71704 22.9368 6.7385 22.9057 6.73355 22.903C6.69234 22.8732 6.64453 22.8503 6.60167 22.8219C6.52915 22.7746 6.52913 22.7084 6.54562 22.6449C6.5588 22.5936 6.60825 22.5733 6.66924 22.5733C6.69562 22.5733 6.72858 22.5733 6.75001 22.5611C6.80605 22.5314 6.82419 22.4936 6.79617 22.4652C6.77969 22.449 6.75003 22.426 6.73025 22.4287C6.3775 22.4733 6.02308 22.5165 5.67198 22.5719C5.56813 22.5882 5.52036 22.5368 5.45772 22.5003C5.40992 22.472 5.36539 22.4611 5.30605 22.4814C5.25 22.5003 5.19563 22.4895 5.16101 22.4449C5.13299 22.4085 5.18243 22.3774 5.31595 22.3423C5.34067 22.3355 5.36868 22.3314 5.38682 22.3179C5.57803 22.172 5.57802 22.1707 5.70989 22.1517C5.83846 22.1342 5.83849 22.1328 5.90607 22.0545C5.93739 22.018 5.97198 21.9815 6.00165 21.9437C6.01319 21.9288 6.03299 21.9018 6.0264 21.8937C5.99014 21.8518 5.94067 21.8423 5.88297 21.8518C5.7544 21.8748 5.60278 21.8559 5.53519 21.9842C5.50882 22.0329 5.46761 22.0464 5.40827 22.0545C4.81156 22.1328 4.21484 22.2166 3.61648 22.2923C3.51923 22.3044 3.47475 22.3544 3.43684 22.4098C3.40387 22.4558 3.3676 22.4693 3.30496 22.4774C3.24232 22.4855 3.19285 22.4895 3.15659 22.4449C3.13516 22.4179 3.15329 22.3801 3.20274 22.3423C3.27362 22.2882 3.26043 22.2207 3.23735 22.1572C3.22087 22.1153 3.16977 22.0855 3.11538 22.0882C3.03461 22.0937 2.95716 22.1085 2.88957 22.0545C2.85001 22.0234 2.80055 22.0018 2.75605 21.9747C2.67033 21.9193 2.58461 21.8626 2.46428 21.8991C2.38187 21.8856 2.32417 21.8369 2.25824 21.7991C2.1478 21.737 2.13791 21.7275 2.21703 21.6613C2.30604 21.587 2.2368 21.4897 2.28625 21.4167C2.339 21.3384 2.41155 21.2695 2.47583 21.1965C2.49232 21.1776 2.50716 21.16 2.52364 21.1411C2.48573 21.1141 2.45112 21.0803 2.40662 21.0614C2.34892 21.0371 2.31925 21.0074 2.32255 20.9236C2.31101 20.9114 2.31592 20.9425 2.32911 20.9506C2.34394 20.9587 2.38023 20.952 2.39837 20.9425C2.44452 20.9168 2.46757 20.8831 2.45603 20.8547C2.44944 20.8398 2.41815 20.8209 2.39837 20.8209C2.3621 20.8209 2.33079 20.8506 2.3209 20.9236C2.13628 20.979 1.94504 21.006 1.75383 21.0276C1.73405 21.0303 1.70934 21.0033 1.68626 20.9898C1.61044 20.9439 1.61043 20.9452 1.3879 20.9317C1.36483 20.9303 1.33352 20.9114 1.32198 20.8925C1.27418 20.8101 1.27584 20.7196 1.25277 20.6317C1.29562 20.575 1.33845 20.5196 1.38295 20.4642C1.47196 20.3521 1.58737 20.2534 1.65661 20.1305C1.64177 20.0643 1.62199 19.9981 1.69451 19.944C1.90056 19.8765 1.89892 19.8765 1.95497 19.8116C2.11486 19.6279 2.27309 19.4428 2.43957 19.2617C2.48408 19.2144 2.48409 19.1888 2.40497 19.1685C2.38024 19.1631 2.35383 19.1617 2.32746 19.1644C2.24504 19.1739 2.16262 19.1982 2.08185 19.1928C2.00108 19.1887 1.94174 19.1293 1.87581 19.0928C1.80823 19.055 1.74065 19.0158 1.67307 18.9766C1.59559 18.9807 1.51813 19.0185 1.44066 18.9577C1.38132 18.9104 1.30715 18.8766 1.23957 18.8375C1.29067 18.7348 1.38629 18.6564 1.46046 18.5659C1.52804 18.4835 1.52966 18.4848 1.71097 18.4213C1.79669 18.3916 1.82636 18.2389 1.75383 18.1943C1.66647 18.1403 1.57418 18.0903 1.48517 18.0389C1.4077 18.043 1.32859 18.0795 1.25442 18.0187C1.19672 17.9728 1.13078 17.9417 1.03517 17.9592C0.873634 17.989 0.708803 18.0038 0.545615 18.0281C0.489571 18.0362 0.428565 18.0309 0.403839 17.9849C0.387356 17.9525 0.435161 17.9079 0.489557 17.8984C0.571975 17.8849 0.646143 17.8687 0.687352 17.8012C0.726912 17.7336 0.799432 17.7133 0.885146 17.7039C0.908223 17.7012 0.934616 17.685 0.946155 17.6687C1.0055 17.5904 1.07143 17.5228 1.19836 17.5255C1.25111 17.4985 1.27911 17.4647 1.26263 17.4323C1.25274 17.4147 1.21814 17.3918 1.19836 17.3945C1.06154 17.408 0.924736 17.4215 0.791219 17.4458C0.728581 17.4566 0.680753 17.4593 0.641193 17.4188C0.613171 17.3918 0.628004 17.3553 0.680752 17.3161C0.726906 17.2823 0.740107 17.2431 0.73681 17.1972C0.728569 17.0905 0.679108 17.0594 0.520866 17.0662C0.407129 17.0716 0.379106 17.054 0.35438 16.9621C0.347787 16.9405 0.331332 16.9108 0.342871 16.8959C0.41375 16.804 0.459907 16.6905 0.593424 16.6473C0.646172 16.6311 0.702193 16.6311 0.73516 16.596C0.768127 16.5608 0.797812 16.5203 0.832428 16.4865C0.875285 16.446 0.904927 16.4082 0.885146 16.3825C0.852179 16.3366 0.799449 16.3325 0.73846 16.3487C0.685713 16.3622 0.62967 16.3636 0.575275 16.3717C0.478022 16.3865 0.398918 16.3514 0.38738 16.292C0.356061 16.1352 0.323084 15.9799 0.295062 15.8231C0.291765 15.8042 0.299985 15.7799 0.313172 15.7637C0.359326 15.7069 0.408796 15.6529 0.456598 15.5975C0.512642 15.534 0.601668 15.5462 0.677492 15.534C0.784635 15.5164 0.784598 15.5178 0.928005 15.3881C0.984049 15.3367 1.08131 15.357 1.139 15.3111C1.15713 15.2962 1.18515 15.2719 1.18021 15.2584C1.17361 15.2408 1.14067 15.2273 1.11594 15.2192C1.09286 15.2111 1.06485 15.207 1.04012 15.2111C0.740121 15.2503 0.441777 15.2921 0.141776 15.33C0.0906773 15.3367 0.0346316 15.307 0.0164997 15.2651C-0.00163226 15.2259 0.00329671 15.1786 0 15.1341C0.0478023 15.0787 0.102177 15.0273 0.143386 14.9679C0.174705 14.9219 0.210975 14.9017 0.273613 14.899C0.35603 14.8949 0.436808 14.8787 0.529116 14.8665C0.700545 14.6693 0.868666 14.4626 1.05328 14.2653C1.12746 14.1856 1.10935 14.1045 1.12419 14.0194C1.13903 13.941 1.24946 13.9532 1.32363 13.9302C1.38298 13.9113 1.40273 13.8681 1.37965 13.8383C1.36647 13.8208 1.33681 13.8005 1.31373 13.8005C1.25934 13.8005 1.20495 13.8127 1.15055 13.8194C1.09615 13.8262 1.03352 13.8221 0.989014 13.8451C0.946156 13.8667 0.918118 13.9126 0.890096 13.9518C0.858777 13.9951 0.817597 14.0099 0.75496 14.0126C0.67419 14.0153 0.593426 14.0275 0.512656 14.0369C0.423645 13.9843 0.331318 13.9329 0.245603 13.8775C0.22912 13.8667 0.225805 13.8356 0.227454 13.8154C0.230751 13.7627 0.206032 13.7302 0.151636 13.7046C0.105482 13.683 0.0675665 13.6519 0.0247092 13.6249C0.0576764 13.5884 0.0939531 13.5532 0.120327 13.5141C0.178019 13.4316 0.250555 13.3722 0.37583 13.3749C0.425281 13.3222 0.46483 13.2574 0.529116 13.2209C0.590105 13.1858 0.693956 13.2209 0.74011 13.1412C0.763187 13.102 0.797822 13.0574 0.842328 13.0412C0.913207 13.0155 1.00551 13.029 1.04672 12.9534C1.07145 12.9101 1.1077 12.8709 1.1555 12.8601C1.20989 12.848 1.26592 12.8453 1.30549 12.8196C1.32691 12.8061 1.34999 12.7845 1.34999 12.7656C1.34999 12.7534 1.31705 12.7345 1.29398 12.7264C1.27255 12.7169 1.24449 12.7102 1.21977 12.7129C1.13735 12.721 1.05658 12.7358 0.974164 12.7439C0.951087 12.7466 0.924721 12.7372 0.899996 12.7291C0.827468 12.7075 0.832404 12.6804 0.890096 12.6318C0.947789 12.5845 0.98902 12.5237 1.03682 12.4683C1.08957 12.4588 1.15549 12.4629 1.19176 12.4372C1.25275 12.3953 1.29559 12.3345 1.34504 12.2818C1.39944 12.2737 1.45548 12.271 1.50658 12.2562C1.52801 12.2508 1.53791 12.2211 1.55604 12.2035C1.58901 12.1697 1.61705 12.1211 1.66156 12.1049C1.73408 12.0805 1.82309 12.09 1.86595 12.0157C1.89068 11.9724 1.92857 11.9265 1.97473 11.9238C2.1033 11.9184 2.1577 11.8441 2.22363 11.7738C2.27308 11.7211 2.37858 11.7482 2.43298 11.6955C2.46924 11.6617 2.49563 11.6198 2.53189 11.5874C2.54673 11.5739 2.57804 11.5671 2.60276 11.5631C2.73793 11.5428 2.87473 11.5279 3.0099 11.5063C3.03133 11.5023 3.05112 11.482 3.06761 11.4658C3.10222 11.4307 3.12363 11.382 3.16649 11.359C3.20934 11.3361 3.27032 11.3361 3.32307 11.3293C3.49285 11.3091 3.50605 11.3145 3.58352 11.1996C3.64616 11.1064 3.79948 11.1726 3.85058 11.0699C3.88025 11.0105 3.93462 10.9618 4.03187 10.9551C4.16869 10.9456 4.30385 10.9199 4.44066 10.9024C4.56264 10.8862 4.561 10.8861 4.69286 10.7605C4.75221 10.7037 4.83959 10.7119 4.91706 10.7011C4.99948 10.6902 5.07529 10.674 5.11485 10.6065C5.15441 10.5403 5.22693 10.5186 5.311 10.5092C5.38847 10.4997 5.47585 10.5065 5.53684 10.4525C5.68519 10.3227 5.68355 10.3214 5.7874 10.3079C5.95058 10.2863 6.11377 10.2646 6.27695 10.2417C6.38574 10.2268 6.49948 10.2241 6.60167 10.1944C6.67585 10.1728 6.70881 10.0971 6.75661 10.0444C6.89178 10.0241 7.02693 10.0039 7.1621 9.98496C7.35166 9.95793 7.54286 9.93362 7.73407 9.90795C7.81649 9.85661 7.82806 9.74311 7.96652 9.73771C8.04893 9.73501 8.1297 9.71744 8.21212 9.70663C8.34893 9.68772 8.4841 9.6634 8.62091 9.65394C8.72476 9.64718 8.74286 9.57422 8.79726 9.52828C8.81539 9.51206 8.83189 9.4891 8.85331 9.48505C9.0676 9.44722 9.28847 9.43911 9.49781 9.38372C9.51923 9.37831 9.53902 9.34994 9.54397 9.32967C9.54726 9.31886 9.51924 9.2986 9.50111 9.28915C9.47968 9.27834 9.45166 9.26753 9.42859 9.27023C8.74782 9.36075 8.06706 9.45263 7.38629 9.54316C7.29069 9.55667 7.29069 9.55531 7.05827 9.70393C7.03849 9.71609 7.01539 9.7296 6.99066 9.73365C6.88187 9.74986 6.77144 9.75933 6.66429 9.7796C6.57693 9.79581 6.50443 9.77959 6.44179 9.73095C6.39728 9.69582 6.35111 9.68501 6.29506 9.68772C6.23242 9.69177 6.19124 9.70664 6.15498 9.74312C6.10717 9.79311 6.08244 9.85795 5.98189 9.87147C5.5187 9.92956 5.05549 9.99442 4.59395 10.0566C4.52966 10.0377 4.49835 10.0093 4.51483 9.9755C4.52472 9.95524 4.54451 9.92822 4.56429 9.92551C4.75385 9.89714 4.94505 9.87283 5.13461 9.8458C5.16099 9.84175 5.19725 9.84444 5.21208 9.83093C5.28461 9.77013 5.31101 9.6715 5.44782 9.66474C5.52695 9.66069 5.6077 9.64043 5.68353 9.62151C5.70496 9.61611 5.72474 9.58773 5.72969 9.56747C5.73134 9.55666 5.70496 9.53638 5.68518 9.52693C5.61265 9.48774 5.5286 9.53505 5.45607 9.50803C5.43135 9.49857 5.39671 9.48505 5.39177 9.46884C5.38847 9.45398 5.41649 9.42965 5.43628 9.41479C5.45441 9.40128 5.47912 9.38912 5.50384 9.38507C5.72143 9.35399 5.93904 9.32156 6.15663 9.29724C6.24564 9.28779 6.30826 9.254 6.34782 9.19185C6.37749 9.14592 6.41375 9.1216 6.4698 9.11485C6.85057 9.06486 7.23133 9.00946 7.61375 8.96352C7.70935 8.95271 7.75882 8.90813 7.79838 8.85003C7.8297 8.8041 7.86597 8.78788 7.92696 8.77977C8.47256 8.70951 9.01486 8.63115 9.56046 8.5636C9.66101 8.55144 9.6907 8.49334 9.7418 8.44335C9.75993 8.42578 9.77144 8.40416 9.79452 8.39336C9.8176 8.38255 9.84726 8.38389 9.87529 8.38118C10.3105 8.32309 10.7456 8.26095 11.1825 8.2069C11.2847 8.19474 11.3044 8.12718 11.3572 8.07989C11.3753 8.06503 11.3918 8.04071 11.4132 8.03666C11.7396 7.99072 12.066 7.94749 12.3923 7.9029C12.6099 7.87318 12.8275 7.84345 13.0451 7.81507C13.1522 7.80156 13.1522 7.8002 13.2973 7.67185C13.3138 7.65699 13.3369 7.63942 13.3583 7.63537C13.9847 7.54889 14.6094 7.46649 15.2357 7.38137C15.2885 7.37462 15.3264 7.34353 15.3528 7.29759C15.3791 7.25165 15.4171 7.22057 15.4682 7.21382C15.9577 7.14626 16.4473 7.08006 16.9385 7.01656C17.0275 7.00575 17.0901 6.97332 17.1297 6.91252C17.1594 6.86659 17.1956 6.84227 17.2517 6.83552C17.7412 6.77066 18.2308 6.70175 18.722 6.6396C18.816 6.62744 18.8621 6.5815 18.9083 6.52746C18.9248 6.50854 18.938 6.47747 18.9577 6.47476C19.2017 6.43693 19.444 6.39775 19.6896 6.37208C19.7918 6.36127 19.8264 6.30452 19.8676 6.25047C19.9006 6.20724 19.9385 6.19238 20.0012 6.18698C20.138 6.17482 20.2731 6.15186 20.4067 6.12889C20.4264 6.12483 20.4512 6.09511 20.4528 6.07619C20.4561 6.04106 20.4182 6.01674 20.3555 6.00458C19.7028 6.0924 19.0484 6.18022 18.3957 6.26804C18.2885 6.2829 18.2885 6.28291 18.1435 6.41127C18.127 6.42613 18.1039 6.44369 18.0808 6.44775C17.4544 6.53287 16.8297 6.61664 16.2033 6.70176C16.1506 6.70851 16.1127 6.73959 16.0863 6.78553C16.0599 6.83146 16.022 6.86254 15.9709 6.8693C15.3726 6.95036 14.7742 7.03278 14.1742 7.1098C14.0852 7.12061 14.0226 7.15167 13.983 7.21382C13.9533 7.25976 13.9171 7.28409 13.861 7.29084C13.2891 7.3665 12.7187 7.44621 12.1451 7.51917C12.0874 7.52593 12.0446 7.48674 12.0478 7.45026C12.0495 7.43135 12.0742 7.40029 12.094 7.39759C12.3923 7.353 12.6891 7.30705 12.9891 7.27328C13.0896 7.26247 13.1192 7.20302 13.1703 7.15303C13.1868 7.13546 13.2 7.11249 13.2215 7.10303C13.2445 7.09223 13.2742 7.09358 13.3022 7.09088C14.0094 6.99495 14.7165 6.89767 15.4253 6.80715C15.5275 6.79364 15.5473 6.72742 15.6 6.68014C15.6182 6.66392 15.6347 6.63961 15.6561 6.63691C15.8737 6.60448 16.0912 6.5761 16.3088 6.54773C16.6896 6.49639 17.0704 6.44504 17.4528 6.3937C17.5632 6.37884 17.5632 6.37883 17.705 6.25183C17.7215 6.23696 17.7446 6.21806 17.766 6.21536C18.7731 6.0789 19.7803 5.94243 20.7874 5.80732C20.8402 5.80057 20.8781 5.76949 20.9045 5.72355C20.9308 5.67897 20.9687 5.64654 21.0198 5.63843C22.3814 5.45468 23.7413 5.27092 25.1028 5.08987C25.1918 5.07771 25.2545 5.04934 25.294 4.98583C25.322 4.9399 25.3599 4.91558 25.416 4.90747C26.9127 4.70616 28.4094 4.50484 29.9078 4.30218C30.9149 4.16707 31.9221 4.02925 32.9292 3.89684C33.0215 3.88468 33.071 3.84279 33.1171 3.7874C33.1319 3.76848 33.1468 3.7374 33.1666 3.7347C33.3825 3.70092 33.5984 3.66985 33.8144 3.63878C33.8819 3.67526 33.9495 3.71039 34.0171 3.74687C34.0682 3.69553 34.1177 3.64283 34.1688 3.59149C34.4952 3.55231 34.8166 3.49151 35.1462 3.47259C35.1677 3.47124 35.1907 3.49692 35.2138 3.51043C35.3671 3.59555 35.4545 3.58879 35.5517 3.4753C35.5863 3.43476 35.616 3.39828 35.6688 3.39153C35.8319 3.36721 35.9968 3.35099 36.1584 3.32262C36.2457 3.30776 36.3182 3.32127 36.3809 3.36991C36.4254 3.40503 36.4715 3.4199 36.5259 3.4118C36.8259 3.37126 37.1243 3.33208 37.4243 3.28884C37.4457 3.28614 37.4655 3.26316 37.4819 3.24695C37.5166 3.21182 37.5462 3.174 37.5792 3.13752C37.6237 3.16049 37.6732 3.17805 37.7094 3.20778C37.7556 3.24291 37.7984 3.2429 37.8611 3.23344C39.0578 3.06996 40.2561 2.91053 41.4529 2.74569C41.5551 2.73218 41.5996 2.78893 41.6688 2.81866C41.6919 2.82947 41.7149 2.84297 41.7397 2.84567C41.766 2.84837 41.7941 2.84028 41.8204 2.83622C42.7188 2.71462 43.6172 2.59436 44.5155 2.47276C44.6342 2.45655 44.6342 2.45655 44.8106 2.54032C44.832 2.55113 44.86 2.56329 44.8831 2.55924C45.2919 2.50654 45.7007 2.4498 46.1078 2.39576C46.1606 2.389 46.2051 2.41061 46.2529 2.44169C46.3468 2.50249 46.3534 2.5025 46.4226 2.41332C46.4556 2.37144 46.4902 2.34575 46.5446 2.33359C46.604 2.32008 46.6518 2.32415 46.6979 2.34847C46.7639 2.38225 46.8117 2.43899 46.9122 2.42413C47.3474 2.36062 47.7842 2.30793 48.2177 2.24308C48.3166 2.22822 48.3694 2.27415 48.4353 2.30793C48.4584 2.32009 48.4798 2.33901 48.5045 2.34306C48.5293 2.34712 48.5589 2.33765 48.5853 2.33359C49.1292 2.26063 49.6748 2.18904 50.2172 2.11067C50.3193 2.09581 50.3639 2.1539 50.4331 2.18362C50.4562 2.19443 50.4825 2.21336 50.504 2.21066C50.8303 2.16877 51.1584 2.12417 51.4848 2.07958C51.6018 2.06337 51.6018 2.06472 51.7798 2.14714C51.8012 2.15795 51.8293 2.16876 51.8523 2.16606C52.2331 2.11607 52.6155 2.06472 52.9963 2.01338C53.1133 1.99717 53.1133 1.99717 53.4512 2.06743C53.476 2.07283 53.5023 2.08095 53.5271 2.07825C53.9622 2.02015 54.399 1.9634 54.8342 1.90124C54.9216 1.88908 54.9941 1.89989 55.0567 1.94853C55.1012 1.98366 55.1474 1.99853 55.2018 1.99042C55.6913 1.92422 56.1826 1.86072 56.6705 1.79046C56.7644 1.77695 56.8254 1.80666 56.8913 1.84584C56.9128 1.85936 56.9342 1.87828 56.959 1.88368C56.9837 1.88908 57.0117 1.88368 57.0381 1.87962C57.5276 1.81342 58.0188 1.75127 58.5067 1.67966C58.6056 1.6648 58.6584 1.71073 58.7243 1.74451C58.7474 1.75667 58.7721 1.78099 58.7919 1.77964C58.9831 1.75667 59.1743 1.73641 59.3639 1.70263C59.4661 1.68372 59.5106 1.74586 59.5798 1.77558C59.6029 1.78504 59.6293 1.80532 59.6507 1.80262C60.0595 1.74992 60.4683 1.69453 60.8754 1.63778C60.9331 1.62968 60.976 1.64183 61.0221 1.67696C61.0831 1.72424 61.154 1.74316 61.243 1.7283C61.4326 1.69722 61.6238 1.67561 61.815 1.64994C61.9271 1.63508 61.9271 1.63508 62.2699 1.70534C62.2947 1.71074 62.321 1.71885 62.3458 1.71614C62.6721 1.67291 63.0002 1.63103 63.3249 1.58374C63.4122 1.57023 63.4848 1.58238 63.5474 1.63102C63.5919 1.66615 63.6364 1.68102 63.6925 1.67291C63.9925 1.63238 64.2908 1.59184 64.5908 1.55131C64.6996 1.53645 64.8084 1.51077 64.9172 1.51077C64.9963 1.51212 65.054 1.57697 65.1249 1.6094C65.1447 1.61886 65.1777 1.60806 65.204 1.60536C65.5848 1.55402 65.9672 1.50672 66.3463 1.44862C66.4452 1.43376 66.498 1.4797 66.5639 1.51348C66.587 1.52564 66.6117 1.54996 66.6315 1.54861C66.7683 1.53374 66.9035 1.51348 67.0403 1.49591C67.2035 1.47429 67.3683 1.45808 67.5298 1.42835C67.6617 1.40403 67.7112 1.52158 67.8167 1.52563C67.8974 1.52968 67.9798 1.50672 68.0606 1.49591C68.2238 1.47429 68.387 1.44998 68.5502 1.43106C68.6079 1.4243 68.6524 1.40268 68.6705 1.35404C68.6738 1.34458 68.6458 1.32432 68.6277 1.31216C68.4084 1.17435 68.4084 1.17434 68.1875 1.20407C68.0507 1.22298 67.9156 1.2419 67.7787 1.25811C67.7557 1.26082 67.7293 1.25001 67.7062 1.2419C67.6403 1.21893 67.6469 1.19191 67.7029 1.14327C67.759 1.09463 67.8018 1.03519 67.8496 0.979792C67.9172 1.01492 67.9832 1.05004 68.0507 1.08517C68.1051 1.07841 68.1595 1.07032 68.2139 1.06356C68.4859 1.02843 68.7579 0.991949 69.0299 0.959522C69.0496 0.95682 69.0743 0.983846 69.0974 0.997357C69.1634 1.03654 69.2227 1.07031 69.3183 1.05545C69.5623 1.01626 69.8079 0.98789 70.0518 0.954112C70.159 0.93925 70.159 0.939251 70.3469 1.02302C70.3683 1.03248 70.3963 1.04329 70.4194 1.04059C70.665 1.00951 70.909 0.975736 71.1546 0.943309C71.2073 0.936554 71.2584 0.954118 71.2963 0.9933C71.3112 1.00951 71.3079 1.03653 71.3705 1.25811C71.565 1.43781 71.6985 1.4189 71.8337 1.40269C71.8914 1.39594 71.9425 1.38917 71.9804 1.36215C72.0002 1.34729 72.0249 1.32567 72.0249 1.3081C72.0249 1.29459 71.9887 1.27297 71.9656 1.27027C71.8024 1.24325 71.6474 1.3 71.4875 1.31216C71.4134 1.31757 71.3491 1.27028 71.3359 1.19326C71.3326 1.17164 71.3277 1.14868 71.3227 1.12706C71.3178 1.10544 71.3145 1.08247 71.3095 1.06086C71.2453 1.0541 71.2073 1.07842 71.1793 1.12435C71.1562 1.16219 71.1233 1.20542 71.0788 1.22569C71.0342 1.24731 70.9733 1.24326 70.9189 1.25001C70.8661 1.25677 70.8084 1.27433 70.759 1.26488C70.7095 1.25407 70.67 1.21488 70.6238 1.19056C70.6024 1.1784 70.576 1.16084 70.5546 1.16354C70.365 1.18651 70.1771 1.20947 69.9892 1.2392C69.8903 1.25541 69.8409 1.19867 69.7782 1.16354C69.7288 1.13652 69.6793 1.14327 69.6711 1.20542C69.6496 1.35404 69.7255 1.41619 69.8936 1.38781C70.0321 1.36349 70.1573 1.35945 70.2661 1.45133C70.281 1.46349 70.3156 1.46889 70.337 1.46619C70.4722 1.44998 70.6057 1.42971 70.7408 1.41349C70.7656 1.41079 70.792 1.41619 70.815 1.42159C71.1513 1.49455 71.1513 1.49591 71.265 1.4797C71.3194 1.47159 71.3722 1.46483 71.3672 1.25947C71.4711 1.03923 71.6359 1.02437 71.7958 0.991947C71.8997 0.971681 71.9441 1.03113 72.0117 1.06221C72.0348 1.07302 72.0595 1.09463 72.081 1.09193C72.4354 1.04734 72.7881 1.00005 73.1408 0.950055C73.2002 0.941948 73.243 0.950056 73.2892 0.985185C73.3485 1.02977 73.4145 1.05815 73.5084 1.04194C73.6963 1.00951 73.8875 0.989249 74.0788 0.962227C74.176 0.948716 74.176 0.948702 74.3722 1.03247C74.3936 1.04193 74.4216 1.05274 74.4447 1.05004C74.6359 1.02707 74.8255 0.998702 75.015 0.974382C75.0678 0.967627 75.1156 0.98654 75.1568 1.02302C75.198 1.0595 75.2475 1.07841 75.2986 1.07166C75.4898 1.04734 75.6793 1.02032 75.8689 0.996005C75.892 0.993303 75.92 1.00276 75.9414 1.01222C76.1425 1.09599 76.1425 1.09597 76.2348 1.08246C76.37 1.06219 76.5084 1.05275 76.642 1.02573C76.7722 0.998703 76.8398 1.07706 76.9288 1.1203C77.1727 1.08922 77.4183 1.06356 77.6606 1.02573C77.7595 1.00951 77.8123 1.05409 77.8782 1.08922C77.9013 1.10138 77.9244 1.12706 77.9458 1.12571C78.0282 1.1203 78.109 1.10544 78.1898 1.09463C78.2706 1.08382 78.353 1.07302 78.4337 1.06221C78.526 1.10139 78.587 1.19326 78.7189 1.16219C78.798 1.14327 78.8821 1.13922 78.9629 1.12841C79.0436 1.1176 79.126 1.10679 79.2068 1.09599C79.2612 1.08923 79.3172 1.08517 79.37 1.07301C79.4672 1.05274 79.5151 1.11896 79.5843 1.14868C79.6074 1.15814 79.6337 1.17434 79.6552 1.17164C79.8183 1.15272 79.9832 1.13651 80.1431 1.10544C80.2667 1.08112 80.3508 1.12166 80.4381 1.1784C80.4563 1.19056 80.4876 1.19732 80.5106 1.19461C80.7019 1.17165 80.8914 1.14326 81.081 1.11894C81.1321 1.11219 81.1815 1.13381 81.2227 1.16893C81.2656 1.20541 81.3134 1.22299 81.3661 1.21624C81.5557 1.19192 81.7469 1.16489 81.9365 1.14057C81.9596 1.13786 81.9876 1.14868 82.009 1.15948C82.1936 1.24325 82.1936 1.24461 82.3024 1.22839C82.3288 1.22434 82.3568 1.22163 82.3832 1.21757C82.5184 1.19866 82.6585 1.19191 82.7903 1.15948C82.942 1.123 83.0524 1.16894 83.1596 1.24596C83.2947 1.22974 83.4332 1.22028 83.565 1.19326C83.6639 1.173 83.7167 1.22434 83.7826 1.25811C83.8057 1.27027 83.8304 1.29459 83.8502 1.29189C84.0414 1.26892 84.2326 1.24866 84.4205 1.21488C84.5227 1.19597 84.5673 1.25676 84.6365 1.28783C84.6596 1.29864 84.6843 1.31757 84.7057 1.31487C84.8145 1.30406 84.9233 1.28784 85.0321 1.27297C85.159 1.25541 85.159 1.25676 85.3271 1.33918C85.4063 1.37836 85.4854 1.34728 85.5629 1.33782C85.6453 1.32702 85.7227 1.31891 85.7887 1.37431C85.8299 1.40944 85.8794 1.43105 85.9305 1.42565C86.0392 1.41349 86.1497 1.40134 86.2568 1.38107C86.3425 1.36486 86.4167 1.37566 86.4793 1.42565C86.5238 1.46078 86.57 1.47835 86.6244 1.47025C86.8684 1.43782 87.114 1.40403 87.3579 1.37295C87.3793 1.37025 87.409 1.38242 87.4288 1.39458C87.4749 1.4189 87.5195 1.44591 87.564 1.47294C87.6711 1.46078 87.7815 1.45538 87.887 1.43647C87.9991 1.41755 88.1013 1.4108 88.1887 1.48511C88.2068 1.50132 88.2332 1.52428 88.2546 1.52293C88.337 1.51752 88.4178 1.50401 88.4986 1.49321C88.5793 1.4824 88.6618 1.47159 88.7425 1.46078C88.8365 1.49456 88.8959 1.59184 89.0277 1.56076C89.1068 1.54185 89.1909 1.53779 89.2717 1.52698C89.3524 1.51617 89.4349 1.50402 89.5156 1.49456C89.542 1.49186 89.5717 1.4851 89.5947 1.4905C89.6195 1.49591 89.6409 1.51482 89.6623 1.52834C89.7282 1.56752 89.7893 1.60671 89.8832 1.58374C89.9623 1.56482 90.0464 1.56077 90.1272 1.54861C90.2376 1.53374 90.2376 1.53375 90.4206 1.61887C90.4948 1.654 90.5788 1.60806 90.6497 1.63778C90.6975 1.65805 90.7387 1.69182 90.7849 1.71479C90.8046 1.72425 90.8359 1.7283 90.859 1.72559C90.9678 1.71343 91.0783 1.70128 91.1854 1.68101C91.2728 1.6648 91.3453 1.68101 91.4063 1.72965C91.4508 1.76478 91.4953 1.77965 91.5513 1.77154C91.8233 1.73371 92.0953 1.70127 92.3656 1.65939C92.458 1.64453 92.5321 1.6675 92.5832 1.71614C92.6706 1.79991 92.7942 1.70128 92.8849 1.76884C92.9409 1.81072 92.997 1.85937 93.0992 1.8391C93.2871 1.80397 93.4783 1.78504 93.6678 1.76072C93.7354 1.7972 93.803 1.83369 93.8722 1.87017C93.981 1.85531 94.0898 1.84044 94.1986 1.82693C94.2794 1.81612 94.3618 1.80396 94.4426 1.7945C94.4689 1.7918 94.4969 1.78639 94.5217 1.79315C94.5464 1.7999 94.5662 1.81747 94.5893 1.83098C94.703 1.89719 94.703 1.89855 94.8909 1.87152C94.9717 1.85936 95.0492 1.85126 95.1167 1.9053C95.1794 1.95529 95.2535 1.96475 95.3392 1.94988C95.5008 1.92286 95.664 1.9026 95.8288 1.88368C95.8799 1.87692 95.9277 1.89989 95.9706 1.93502C96.0349 1.99042 96.114 1.98502 96.1948 1.97015C96.3019 1.95124 96.4074 1.93233 96.498 2.00799C96.5162 2.0242 96.5442 2.04716 96.564 2.04581C96.6992 2.035 96.836 2.0269 96.9678 2.00123C97.0997 1.97555 97.164 2.05932 97.2547 2.09985C97.3898 2.08229 97.5266 2.06472 97.6618 2.04716C97.6882 2.04311 97.7195 2.03095 97.7426 2.03771C97.8398 2.06608 97.8959 2.16741 98.0294 2.13634C98.1068 2.11877 98.1909 2.11338 98.2717 2.10932C98.2931 2.10797 98.3212 2.13093 98.336 2.14849C98.3442 2.15795 98.336 2.18362 98.3261 2.19713C98.2964 2.23496 98.2601 2.2701 98.2338 2.30928C98.2305 2.31469 98.2618 2.339 98.2799 2.34981C98.3244 2.37413 98.3755 2.37008 98.4349 2.35927C98.486 2.34982 98.5387 2.36873 98.575 2.40927C98.5898 2.42548 98.5849 2.4525 98.5535 2.54167C98.5535 2.60788 98.5882 2.57815 98.5997 2.53491C98.6178 2.47276 98.5832 2.45249 98.5173 2.48627C98.4711 2.51059 98.4481 2.54572 98.4596 2.5741C98.4662 2.58896 98.4975 2.60788 98.5535 2.54167C98.6986 2.4606 98.8074 2.44575 98.9162 2.43089C98.9442 2.42683 98.9772 2.41331 98.997 2.42142C99.0679 2.45385 99.1338 2.49304 99.203 2.52952C99.2821 2.52141 99.3563 2.50113 99.4338 2.55383C99.5426 2.62814 99.5475 2.62138 99.653 2.60652C99.7074 2.59842 99.7618 2.59167 99.8162 2.58492C99.8706 2.57816 99.9134 2.59842 99.9612 2.6295C100.058 2.693 100.067 2.69299 100.131 2.60652C100.169 2.55383 100.195 2.53627 100.243 2.56059C100.401 2.64301 100.403 2.64841 100.538 2.62409C100.65 2.60382 100.756 2.59842 100.838 2.67543C100.894 2.72948 100.912 2.71732 100.957 2.66057C101.076 2.5106 101.13 2.51329 101.352 2.62138C101.456 2.67273 101.563 2.61734 101.669 2.61058C101.758 2.60518 101.821 2.6376 101.827 2.72272C101.832 2.77541 101.847 2.81325 101.906 2.83081C101.929 2.83757 101.957 2.84702 101.98 2.84432C102.117 2.82811 102.252 2.80919 102.389 2.79027C102.458 2.78081 102.496 2.71732 102.483 2.63355C102.468 2.54438 102.495 2.51194 102.594 2.48627C102.653 2.47141 102.701 2.47412 102.749 2.49844C102.801 2.52547 102.787 2.54978 102.74 2.59842C102.63 2.71732 102.643 2.79027 102.785 2.87269C102.834 2.90106 102.874 2.92674 102.885 2.96863C102.892 2.99025 102.885 3.01862 102.9 3.03483C102.981 3.12536 103.093 3.18346 103.218 3.2267C103.339 3.19022 103.421 3.251 103.513 3.29964C103.586 3.33748 103.672 3.30506 103.749 3.29155C103.837 3.27668 103.909 3.28749 103.972 3.33748C104.016 3.37261 104.062 3.38882 104.117 3.38206C104.226 3.3672 104.336 3.35775 104.443 3.33613C104.535 3.31721 104.605 3.34424 104.662 3.39018C104.735 3.44827 104.816 3.40908 104.892 3.41719C104.994 3.42665 105.045 3.54689 105.178 3.51447C105.257 3.49555 105.34 3.4888 105.422 3.48339C105.444 3.48204 105.47 3.50502 105.488 3.52123C105.576 3.59554 105.678 3.59149 105.79 3.56987C105.867 3.55501 105.943 3.5415 106.019 3.59284C106.144 3.67931 106.283 3.75498 106.415 3.8347C106.433 3.89685 106.42 3.96979 106.513 4.00627C106.563 4.02519 106.609 4.05357 106.647 4.08465C106.693 4.12113 106.736 4.13059 106.795 4.12113C106.902 4.10222 107.015 4.09815 107.12 4.07383C107.217 4.05221 107.278 4.09681 107.338 4.1387C107.385 4.17248 107.43 4.18868 107.488 4.16436C107.547 4.14139 107.59 4.15625 107.638 4.19273C107.705 4.24272 107.71 4.23732 107.934 4.25219C107.957 4.25354 107.985 4.27379 107.999 4.29136C108.005 4.30082 107.99 4.32785 107.979 4.34137C107.964 4.35758 107.941 4.37648 107.92 4.38054C107.676 4.41567 107.43 4.44674 107.186 4.48187C107.161 4.48592 107.135 4.49539 107.117 4.5089C107.097 4.52376 107.072 4.54402 107.072 4.56293C107.072 4.57644 107.105 4.59266 107.128 4.60212C107.201 4.6332 107.287 4.58591 107.357 4.62104C107.405 4.64401 107.445 4.67643 107.493 4.69805C107.512 4.7075 107.544 4.70616 107.568 4.70345C107.651 4.694 107.732 4.68049 107.814 4.67238C107.837 4.67103 107.863 4.68455 107.885 4.69536C108.043 4.77642 108.043 4.77642 108.18 4.75885C108.234 4.7521 108.292 4.73183 108.343 4.73994C108.393 4.74804 108.435 4.78452 108.48 4.80749C108.572 4.85613 108.66 4.90342 108.666 5.00881C108.67 5.04934 108.724 5.08446 108.778 5.08717C108.831 5.08987 108.887 5.07502 108.941 5.06691C109.07 5.0507 109.07 5.0507 109.237 5.13312C109.283 5.15609 109.332 5.15878 109.391 5.14527C109.415 5.13987 109.443 5.14528 109.467 5.15203C109.548 5.1723 109.548 5.19797 109.495 5.24661C109.421 5.31821 109.428 5.32497 109.635 5.38577C109.715 5.40874 109.776 5.45198 109.841 5.48981C109.949 5.55061 109.947 5.5506 109.876 5.63032C109.86 5.64788 109.845 5.6668 109.828 5.68572C109.781 5.73841 109.743 5.79515 109.644 5.80056C109.535 5.80596 109.426 5.82759 109.317 5.84245C109.212 5.85731 109.184 5.88973 109.194 5.9816C109.205 6.09239 109.227 6.10456 109.416 6.10321C109.471 6.10321 109.518 6.11401 109.56 6.15049C109.54 6.19373 109.504 6.22751 109.451 6.23561C109.316 6.25588 109.179 6.27345 109.044 6.29101C108.935 6.30588 108.826 6.32073 108.717 6.33559C108.65 6.34505 108.607 6.41532 108.625 6.49368C108.635 6.53827 108.643 6.58285 108.651 6.62744C108.67 6.71661 108.704 6.73959 108.815 6.73554C108.843 6.73418 108.869 6.72337 108.895 6.72607C109.002 6.73553 109.054 6.84767 109.182 6.8247C109.289 6.80578 109.401 6.80173 109.507 6.77741C109.604 6.75579 109.659 6.80445 109.726 6.84093C109.749 6.85309 109.774 6.87874 109.794 6.87739C109.931 6.86253 110.067 6.84768 110.201 6.82201C110.263 6.8112 110.301 6.8193 110.351 6.85173C110.47 6.93009 110.473 6.92604 110.649 6.90172C110.778 6.8828 110.779 6.88551 110.944 6.96792C110.99 6.99089 111.04 6.99089 111.099 6.98008C111.177 6.96657 111.257 6.94495 111.338 6.96522C111.363 6.97062 111.394 6.98684 111.403 7.00441C111.407 7.01657 111.384 7.04629 111.365 7.05575C111.22 7.12601 111.05 7.11385 110.892 7.14222C110.842 7.15033 110.793 7.12465 110.751 7.08817C110.709 7.05169 110.662 7.03684 110.606 7.04359C110.498 7.05846 110.387 7.06791 110.28 7.08953C110.188 7.10844 110.123 7.07736 110.059 7.03548C110.038 7.02197 110.013 6.99629 109.992 6.99764C109.748 7.02467 109.502 7.0517 109.26 7.08953C109.162 7.10574 109.106 7.06251 109.04 7.02603C109.017 7.01387 108.994 6.98819 108.973 6.98955C108.89 6.99495 108.81 7.00981 108.727 7.02062C108.427 7.06115 108.129 7.10169 107.829 7.13952C107.809 7.14222 107.784 7.11384 107.761 7.10168C107.717 7.07736 107.671 7.05439 107.624 7.03142C107.542 7.04223 107.461 7.05574 107.379 7.06385C107.32 7.06925 107.267 7.08818 107.259 7.13952C107.254 7.1733 107.308 7.20437 107.366 7.20166C107.422 7.19896 107.478 7.18275 107.524 7.20031C107.753 7.28678 107.753 7.28814 107.896 7.27057C108.022 7.25436 108.009 7.24084 108.119 7.31515C108.167 7.34758 108.21 7.3665 108.264 7.3584C108.399 7.33948 108.536 7.32056 108.673 7.30435C108.694 7.30165 108.722 7.31516 108.744 7.32597C108.905 7.40704 108.905 7.40974 109.039 7.38947C109.213 7.36515 109.22 7.3584 109.337 7.44081C109.418 7.49756 109.492 7.45838 109.57 7.45567C109.659 7.50837 109.756 7.55566 109.837 7.61511C109.932 7.68537 110.033 7.6732 110.141 7.65293C110.222 7.63807 110.301 7.63267 110.367 7.68806C110.43 7.7394 110.506 7.74482 110.591 7.73131C110.669 7.71915 110.748 7.69347 110.829 7.72319C110.85 7.7313 110.883 7.75157 110.882 7.76373C110.88 7.78265 110.859 7.80967 110.837 7.81778C110.685 7.87318 110.519 7.87182 110.359 7.89749C110.338 7.90154 110.31 7.88668 110.288 7.87587C110.242 7.85155 110.198 7.82318 110.153 7.79751C110.072 7.80562 109.99 7.80831 109.911 7.82453C109.85 7.83669 109.804 7.83535 109.759 7.80292C109.718 7.7732 109.673 7.73671 109.624 7.72725C109.574 7.71779 109.517 7.73806 109.462 7.74617C109.408 7.75427 109.345 7.75021 109.303 7.77183C109.26 7.79345 109.233 7.84074 109.205 7.87857C109.174 7.92046 109.131 7.93398 109.068 7.93803C109.011 7.94208 108.965 7.93667 108.922 7.89884C108.904 7.88263 108.879 7.87046 108.854 7.85966C108.831 7.8502 108.805 7.83533 108.783 7.83803C108.538 7.86911 108.294 7.9029 108.048 7.93533C107.926 7.95154 107.928 7.95153 107.674 7.87181C107.651 7.86506 107.623 7.8556 107.6 7.8583C107.463 7.87452 107.328 7.89344 107.191 7.91235C107.052 7.93127 107.054 7.92856 106.818 7.84344C106.776 7.82723 106.713 7.84885 106.662 7.84615C106.555 7.83939 106.502 7.7259 106.377 7.74752C106.27 7.76643 106.157 7.77048 106.05 7.79481C105.953 7.81642 105.897 7.76914 105.831 7.73266C105.808 7.7205 105.783 7.69347 105.763 7.69618C105.518 7.7259 105.274 7.75968 104.948 7.76373C104.867 7.76373 104.903 7.79211 104.956 7.80157C105.032 7.81643 105.056 7.78806 105.015 7.73401C104.985 7.69618 104.943 7.67725 104.908 7.68671C104.89 7.69211 104.867 7.71779 104.948 7.76373C105.033 7.81507 105.028 7.84344 105.043 7.85966C105.079 7.89884 105.131 7.91505 105.183 7.90965C105.266 7.90019 105.346 7.88668 105.429 7.87857C105.452 7.87587 105.48 7.88533 105.501 7.89614C105.683 7.97991 105.684 7.98532 105.877 7.95289C105.938 7.94343 105.983 7.94343 106.031 7.9691C106.096 8.00423 106.144 8.06367 106.245 8.04476C106.378 8.01909 106.515 8.00424 106.652 7.98937C106.673 7.98667 106.696 8.01099 106.721 8.0218C106.789 8.05423 106.838 8.11503 106.939 8.08935C107.016 8.06909 107.1 8.06367 107.183 8.05962C107.204 8.05827 107.237 8.07989 107.247 8.09745C107.267 8.12853 107.242 8.16502 107.186 8.19069C107.163 8.2015 107.132 8.19879 107.105 8.20284C106.996 8.21771 106.888 8.23391 106.779 8.24607C106.721 8.25283 106.667 8.2731 106.66 8.3231C106.655 8.35687 106.715 8.38659 106.771 8.38389C106.853 8.37984 106.935 8.36903 107.015 8.35146C107.155 8.32174 107.277 8.32984 107.39 8.41496C107.471 8.47441 107.466 8.4528 107.552 8.62845C107.573 8.67304 107.638 8.67708 107.694 8.67438C107.829 8.66763 107.891 8.6879 107.88 8.72978C107.865 8.78112 107.817 8.79733 107.756 8.80408C107.648 8.81489 107.539 8.83247 107.43 8.84733C107.404 8.85138 107.374 8.85948 107.349 8.85678C107.324 8.85408 107.301 8.83787 107.28 8.82571C107.234 8.80003 107.194 8.76085 107.145 8.75139C107.095 8.74193 107.038 8.7622 106.983 8.77031C106.929 8.77706 106.871 8.79733 106.822 8.78787C106.772 8.77841 106.731 8.73789 106.687 8.71357C106.665 8.70141 106.639 8.68248 106.617 8.68383C106.509 8.69464 106.4 8.71221 106.291 8.72572C106.157 8.74329 106.157 8.74329 105.996 8.65952C105.95 8.6352 105.902 8.63656 105.841 8.64737C105.709 8.66898 105.707 8.66492 105.467 8.58656C105.444 8.57845 105.416 8.56899 105.393 8.57305C105.147 8.60412 104.903 8.6379 104.659 8.67032C104.45 8.6987 104.45 8.69871 104.334 8.83382C104.249 8.9338 104.247 8.9338 104.331 8.97974C104.399 9.01757 104.46 9.07296 104.534 9.09322C104.603 9.11214 104.689 9.05134 104.765 9.11349C104.802 9.14457 104.852 9.17835 104.9 9.18375C104.976 9.19051 105.056 9.15132 105.129 9.21077C105.165 9.24049 105.22 9.27158 105.266 9.27293C105.346 9.27563 105.429 9.25401 105.51 9.24455C105.534 9.24185 105.562 9.24185 105.585 9.24861C105.61 9.25671 105.632 9.27293 105.653 9.28644C105.719 9.33238 105.79 9.35399 105.876 9.33102C106.016 9.29319 106.141 9.31211 106.25 9.39858C106.265 9.41074 106.301 9.4121 106.324 9.40669C106.383 9.39318 106.434 9.39182 106.479 9.41749C106.497 9.4283 106.523 9.44721 106.52 9.45937C106.515 9.47964 106.495 9.50666 106.474 9.51342C106.319 9.55936 106.152 9.56477 105.993 9.58909C105.971 9.59179 105.945 9.57422 105.923 9.56206C105.877 9.53774 105.838 9.49721 105.788 9.48775C105.739 9.4783 105.681 9.49586 105.627 9.50262C105.572 9.50937 105.515 9.52964 105.465 9.52153C105.416 9.51208 105.37 9.47829 105.33 9.44857C105.284 9.41479 105.239 9.41075 105.178 9.42426C105.099 9.44182 105.017 9.44452 104.936 9.45398C104.892 9.42831 104.847 9.39992 104.801 9.3756C104.779 9.36344 104.753 9.34859 104.73 9.34994C104.621 9.36075 104.512 9.37695 104.404 9.39182C104.295 9.40668 104.295 9.40669 104.11 9.32292C104.089 9.31347 104.061 9.30266 104.038 9.30536C103.901 9.32157 103.766 9.34182 103.629 9.35804C103.576 9.36479 103.528 9.34588 103.485 9.3094C103.444 9.27292 103.395 9.25265 103.344 9.25941C103.126 9.28778 102.909 9.31481 102.691 9.34859C102.604 9.3621 102.529 9.34994 102.47 9.3013C102.401 9.2459 102.323 9.25942 102.243 9.27023C102.06 9.29725 102.058 9.29589 101.941 9.22698C101.918 9.21347 101.895 9.1878 101.873 9.18915C101.684 9.20941 101.493 9.22833 101.305 9.26076C101.206 9.27833 101.153 9.23104 101.087 9.19591C101.064 9.18375 101.039 9.15808 101.02 9.16078C100.883 9.17564 100.746 9.18916 100.612 9.21618C100.479 9.2432 100.428 9.11755 100.327 9.1189C100.19 9.12025 100.055 9.15133 99.92 9.17025C99.8112 9.18511 99.7025 9.19997 99.5937 9.21483C99.4849 9.22969 99.3761 9.24184 99.2673 9.25941C99.2096 9.26887 99.1668 9.2567 99.119 9.22293C99.058 9.17834 98.9854 9.14322 98.9195 9.10269C98.819 9.04459 98.8189 9.04459 98.697 9.0608C98.6706 9.06485 98.6426 9.06755 98.6162 9.0716C98.4167 9.10133 98.4167 9.09863 98.1629 9.01351C98.1514 9.00946 98.1217 9.02433 98.1101 9.03514C98.0755 9.07026 98.0442 9.10809 98.0129 9.14457C97.9684 9.12295 97.914 9.11079 97.8843 9.07972C97.8003 8.99189 97.6684 9.11214 97.5827 9.02567C97.5514 8.99324 97.4969 8.96487 97.4475 8.95676C97.3964 8.94865 97.3387 8.96757 97.286 8.97568C97.1491 8.99594 97.1491 8.9946 97.0321 9.11485C96.9728 9.1743 96.8871 9.16348 96.8096 9.17699C96.7288 9.19185 96.6513 9.19996 96.5838 9.14457C96.5228 9.09458 96.4486 9.08242 96.3613 9.09863C96.2541 9.1189 96.1437 9.13105 96.0349 9.14321C96.0118 9.14592 95.9838 9.13917 95.9607 9.13106C95.7085 9.05134 95.7085 9.05 95.5865 9.06756C95.5321 9.07567 95.4761 9.07836 95.4233 9.09052C95.3343 9.11214 95.2667 9.08376 95.2025 9.04053C95.181 9.02702 95.1563 9.00136 95.1348 9.00271C95.0261 9.00947 94.9189 9.02162 94.8118 9.03378C94.7294 9.04324 94.6469 9.04865 94.5678 9.06756C94.436 9.09864 94.3717 9.0108 94.281 8.97027C94.1459 8.98783 94.009 9 93.8739 9.02432C93.8112 9.03512 93.77 9.03108 93.7222 8.99865C93.6612 8.95812 93.6052 8.91218 93.5063 8.93245C93.3744 8.95947 93.236 8.96893 93.1008 8.98514C93.0101 8.94326 92.9442 8.85813 92.814 8.8892C92.7349 8.90812 92.6508 8.91217 92.57 8.92298C92.4613 8.93784 92.3525 8.95137 92.2437 8.96758C92.1266 8.98379 92.1283 8.97974 91.9486 8.90002C91.8448 8.85273 91.7376 8.90543 91.6321 8.91353C91.5497 8.92029 91.5085 8.98244 91.5283 9.06215C91.548 9.14187 91.5035 9.20402 91.4277 9.21483C91.2381 9.2405 91.0469 9.26751 90.8574 9.29048C90.8343 9.29318 90.8063 9.28373 90.7849 9.27427C90.5821 9.18915 90.5821 9.19051 90.4914 9.20267C90.3563 9.22294 90.2178 9.23374 90.0843 9.25941C89.992 9.27697 89.9244 9.24861 89.8651 9.20267C89.8189 9.16754 89.7761 9.15944 89.7167 9.16754C89.064 9.25807 88.4112 9.34183 87.7601 9.43506C87.6629 9.44857 87.6068 9.40939 87.5409 9.37291C87.5178 9.36075 87.4964 9.33508 87.4733 9.33508C87.4189 9.33508 87.3645 9.34724 87.3101 9.35535C87.0662 9.38778 86.8222 9.42695 86.5766 9.45127C86.4728 9.46208 86.4447 9.52424 86.4002 9.57558C86.3656 9.61476 86.3261 9.63097 86.2651 9.63637C86.2057 9.64178 86.1629 9.63502 86.1167 9.59989C86.0574 9.55395 85.9898 9.52558 85.8975 9.54449C85.7904 9.56611 85.6815 9.57558 85.5711 9.59044C85.515 9.5972 85.4722 9.62151 85.4541 9.67015C85.4508 9.67826 85.4854 9.69853 85.5052 9.71069C85.5711 9.75123 85.6337 9.79851 85.7079 9.82689C85.7837 9.85526 85.8661 9.82282 85.9453 9.81471C85.9733 9.81201 85.9997 9.80391 86.026 9.80526C86.0508 9.80661 86.0805 9.81337 86.0986 9.82553C86.1843 9.88633 86.2749 9.92822 86.3936 9.89174C86.4958 9.9093 86.5486 10.0214 86.6788 9.99172C86.7579 9.97415 86.8404 9.96605 86.9228 9.95929C86.9442 9.95794 86.9673 9.98226 86.9903 9.99442C87.0563 10.0282 87.109 10.0822 87.2079 10.0593C87.3134 10.035 87.4255 10.0309 87.5327 10.012C87.592 10.0012 87.6348 10.0106 87.681 10.0458C87.7403 10.0904 87.8079 10.1241 87.9002 10.1025C87.9794 10.0836 88.0634 10.0795 88.1442 10.0674C88.2497 10.0525 88.2497 10.0539 88.4376 10.1376C88.459 10.1471 88.487 10.1579 88.5101 10.1552C88.6469 10.139 88.7821 10.1187 88.9189 10.1025C88.9717 10.0957 89.0228 10.1133 89.059 10.1525C89.0739 10.1687 89.0689 10.1957 89.0738 10.2187C88.8019 10.2552 88.5299 10.2863 88.2596 10.3308C88.1574 10.3484 88.1112 10.293 88.0436 10.2619C88.0205 10.2511 87.9958 10.2282 87.9744 10.2309C87.7832 10.2538 87.5936 10.2781 87.4041 10.3079C87.3447 10.3173 87.3002 10.3119 87.2557 10.2727C87.142 10.1687 87.0035 10.2255 86.875 10.2403C86.7761 10.2511 86.7447 10.293 86.7563 10.3822C86.7711 10.4876 86.8304 10.52 86.9821 10.5011C87.0365 10.4943 87.0909 10.4849 87.1453 10.4795C87.198 10.4741 87.2458 10.4916 87.2887 10.5281C87.3299 10.5646 87.3793 10.5835 87.4304 10.5781C87.5392 10.5659 87.6497 10.5538 87.7552 10.5335C87.8425 10.5173 87.9151 10.5308 87.9761 10.5808C88.0436 10.6362 88.1228 10.624 88.2019 10.6119C88.3865 10.5849 88.3881 10.5862 88.5035 10.6538C88.5266 10.6673 88.5497 10.693 88.5711 10.6916C88.7607 10.6713 88.9519 10.6538 89.1382 10.6213C89.2354 10.6051 89.2915 10.6484 89.3557 10.6835C89.3788 10.6956 89.4019 10.7227 89.4233 10.72C89.5601 10.7051 89.6969 10.6902 89.8305 10.6646C89.8931 10.6524 89.931 10.6605 89.9821 10.6929C90.1041 10.7727 90.1074 10.77 90.2804 10.7443C90.3332 10.7362 90.3909 10.7213 90.4403 10.7321C90.4898 10.7429 90.5294 10.7821 90.5755 10.8064C90.5969 10.8173 90.6233 10.8321 90.6464 10.8294C90.7552 10.8186 90.864 10.8024 90.9728 10.7875C91.075 10.7727 91.075 10.774 91.2662 10.8578C91.3436 10.8929 91.4244 10.8632 91.5019 10.8524C91.586 10.8402 91.6618 10.8402 91.7261 10.8929C91.7904 10.9456 91.8678 10.9429 91.9503 10.9321C92.0277 10.9213 92.1068 10.8916 92.186 10.928C92.3673 11.0118 92.3673 11.0132 92.4794 10.9969C92.6426 10.974 92.8041 10.9524 92.9689 10.9321C92.9904 10.9294 93.0184 10.9456 93.0398 10.9564C93.086 10.9807 93.1255 11.0213 93.175 11.0307C93.2244 11.0415 93.2821 11.0253 93.3349 11.0172C93.5046 10.9915 93.5162 10.9821 93.6299 11.0713C93.7255 11.1442 93.8442 11.0388 93.9332 11.1226C93.9843 11.1699 94.0535 11.2077 94.1491 11.1847C94.2283 11.1658 94.3107 11.1604 94.3931 11.1496C94.5233 11.1321 94.5233 11.1334 94.6882 11.2145C94.7096 11.2253 94.7376 11.2388 94.759 11.2361C94.8678 11.2253 94.9783 11.2158 95.0838 11.1915C95.2074 11.1631 95.2865 11.2145 95.3788 11.2645C95.4513 11.3037 95.5371 11.2712 95.6145 11.2577C95.6986 11.2442 95.7744 11.2482 95.8371 11.3009C95.903 11.355 95.9805 11.3482 96.0629 11.3374C96.1404 11.328 96.2195 11.2969 96.2986 11.3347C96.4684 11.4185 96.4684 11.4185 96.592 11.4023C96.7008 11.3874 96.8096 11.3712 96.9184 11.3604C96.9398 11.3577 96.9662 11.3753 96.9876 11.3874C97.0338 11.4117 97.0733 11.4523 97.1228 11.4617C97.1722 11.4712 97.2299 11.4536 97.2843 11.4469C97.3387 11.4401 97.3964 11.4198 97.4458 11.428C97.4953 11.4361 97.5415 11.4698 97.581 11.4996C97.6272 11.5347 97.67 11.5387 97.7327 11.5252C97.8118 11.5077 97.8942 11.5036 97.975 11.4942C98.0195 11.5198 98.0656 11.5455 98.1085 11.5739C98.153 11.6036 98.2008 11.6009 98.2618 11.5914C98.4645 11.559 98.4662 11.5631 98.636 11.6468C98.7134 11.6847 98.7942 11.6536 98.8717 11.6441C98.9541 11.6333 99.0316 11.6279 99.0959 11.682C99.1585 11.7333 99.236 11.7401 99.3184 11.7238C99.3711 11.713 99.4272 11.7063 99.4816 11.7022C99.5063 11.7009 99.536 11.7063 99.5541 11.7171C99.6415 11.7738 99.7272 11.8252 99.8475 11.7887C99.953 11.7995 100.006 11.9103 100.133 11.8887C100.24 11.8698 100.352 11.8657 100.457 11.8414C100.555 11.8198 100.624 11.8576 100.673 11.9049C100.762 11.9887 100.888 11.8752 100.977 11.9576C101.028 12.0049 101.094 12.0427 101.193 12.0224C101.301 12.0008 101.336 12.0292 101.367 12.1143C101.385 12.163 101.382 12.2021 101.349 12.24C101.316 12.2792 101.28 12.2724 101.227 12.2278C101.166 12.1778 101.094 12.1684 101.006 12.1792C100.921 12.19 100.868 12.1197 100.797 12.0927C100.726 12.0643 100.642 12.1116 100.568 12.0751C100.393 11.99 100.393 11.99 100.274 12.0062C100.194 12.017 100.11 12.0224 100.031 12.0414C99.9365 12.0643 99.8755 12.0224 99.8113 11.9846C99.7882 11.9711 99.7651 11.9454 99.7453 11.9468C99.5557 11.967 99.3645 11.986 99.1766 12.0197C99.0777 12.0373 99.025 11.9887 98.9591 11.9549C98.936 11.9427 98.9112 11.9184 98.8915 11.9211C98.7283 11.94 98.5667 11.9643 98.4036 11.9873C98.3722 12.0238 98.3376 12.0589 98.3079 12.0981C98.2766 12.1386 98.2338 12.1562 98.1712 12.1549C98.0673 12.1549 97.9651 12.2116 97.8612 12.14C97.7541 12.067 97.7459 12.0711 97.642 12.0886C97.5102 12.1116 97.37 12.1062 97.2464 12.1589C97.225 12.1684 97.2019 12.194 97.2019 12.2129C97.2002 12.2251 97.2349 12.2427 97.2563 12.2535C97.3288 12.2859 97.4129 12.2386 97.4854 12.2724C97.5332 12.294 97.5728 12.3264 97.6206 12.3494C97.6404 12.3589 97.67 12.3575 97.6964 12.3562C97.7244 12.3548 97.7508 12.3454 97.7772 12.3467C97.8019 12.3481 97.8283 12.3562 97.8481 12.3683C97.9387 12.4197 98.0343 12.467 98.1151 12.5278C98.1942 12.5872 98.2684 12.5467 98.3475 12.544C98.664 12.6386 98.664 12.6399 98.8767 12.6102C98.9294 12.6034 98.9838 12.5953 99.0382 12.5967C99.0613 12.5967 99.0827 12.621 99.1058 12.6345C99.1717 12.675 99.2343 12.7115 99.3267 12.6899C99.4058 12.671 99.4898 12.6669 99.5706 12.6548C99.6794 12.6399 99.6794 12.6399 99.864 12.725C99.9102 12.7466 99.9596 12.7439 100.019 12.7331C100.07 12.7237 100.123 12.7439 100.159 12.7831C100.174 12.7993 100.169 12.8264 100.174 12.8493C100.011 12.8709 99.8459 12.8858 99.6876 12.9182C99.5854 12.9385 99.5393 12.8804 99.4717 12.8493C99.4486 12.8385 99.4239 12.8156 99.4025 12.8183C99.2409 12.8385 99.0794 12.8615 98.9179 12.8885C98.8981 12.8912 98.8734 12.9223 98.8717 12.9412C98.8684 12.9763 98.9096 13.0101 98.9689 13.0087C99.048 13.0074 99.1255 12.9844 99.1964 13.0398C99.2558 13.0885 99.3299 13.1101 99.4173 13.0885C99.47 13.0763 99.5261 13.0763 99.5788 13.0655C99.719 13.0331 99.8458 13.0398 99.9513 13.1317C100.032 13.156 100.111 13.1331 100.189 13.1209C100.246 13.1114 100.302 13.102 100.344 13.1276C100.431 13.1817 100.517 13.2357 100.637 13.1993C100.767 13.2371 100.866 13.3168 100.975 13.3817C101.026 13.4127 101.066 13.4303 101.125 13.41C101.15 13.4019 101.179 13.4019 101.206 13.3979C101.26 13.3911 101.318 13.3708 101.367 13.379C101.417 13.3884 101.458 13.4276 101.502 13.4519C101.524 13.4641 101.549 13.4843 101.57 13.483C101.652 13.4762 101.733 13.4627 101.814 13.4519C101.895 13.4425 101.976 13.433 102.056 13.4236C102.124 13.4587 102.193 13.4938 102.261 13.5289C102.369 13.5141 102.478 13.4992 102.585 13.4857C102.706 13.4695 102.706 13.4708 102.879 13.5546C102.956 13.5924 103.039 13.5681 103.113 13.5505C103.237 13.5222 103.319 13.5735 103.406 13.6276C103.424 13.6384 103.457 13.6451 103.479 13.6397C103.565 13.6208 103.639 13.6357 103.701 13.6857C103.746 13.7208 103.79 13.737 103.845 13.7303C104.034 13.7046 104.224 13.6776 104.413 13.6546C104.437 13.6519 104.463 13.664 104.484 13.6749C104.652 13.7573 104.654 13.7613 104.778 13.7397C104.888 13.7208 104.99 13.7127 105.078 13.787C105.096 13.8032 105.124 13.8262 105.144 13.8248C105.279 13.8113 105.416 13.7965 105.549 13.7735C105.61 13.7627 105.653 13.7667 105.701 13.7978C105.762 13.837 105.816 13.8843 105.917 13.8667C106.195 13.8167 106.197 13.8248 106.527 13.918C106.55 13.9248 106.581 13.914 106.607 13.9086C106.663 13.8951 106.705 13.914 106.754 13.9451C106.865 14.0153 106.868 14.0113 106.973 13.9964C107.054 13.9843 107.138 13.9816 107.217 13.9613C107.339 13.9316 107.42 13.9843 107.511 14.0343C107.583 14.0734 107.667 14.041 107.745 14.0288C107.829 14.0153 107.905 14.0194 107.967 14.0707C108.01 14.1059 108.056 14.1248 108.111 14.118C108.3 14.0937 108.49 14.0667 108.679 14.0424C108.702 14.0397 108.731 14.0505 108.752 14.0599C108.94 14.1437 108.94 14.1477 109.126 14.1167C109.185 14.1072 109.235 14.1045 109.279 14.1329C109.322 14.1599 109.368 14.1856 109.413 14.2112C109.494 14.2018 109.576 14.1991 109.655 14.1829C109.716 14.1707 109.759 14.1761 109.807 14.2045C109.87 14.241 109.922 14.3045 110.021 14.2734C110.072 14.2585 110.132 14.2626 110.183 14.2491C110.244 14.2315 110.285 14.2423 110.333 14.2774C110.392 14.3193 110.453 14.3626 110.549 14.3409C110.654 14.3166 110.766 14.3126 110.873 14.2937C110.933 14.2829 110.974 14.2937 111.022 14.3288C111.081 14.3734 111.149 14.4018 111.241 14.3842C111.429 14.3504 111.43 14.3572 111.613 14.4423C111.66 14.4639 111.709 14.4612 111.768 14.4504C111.82 14.4409 111.872 14.4612 111.909 14.5004C111.943 14.5436 111.94 14.5706 111.943 14.5936ZM97.2547 2.40791C97.2003 2.41467 97.1458 2.42277 97.0667 2.30523C97.0618 2.28496 97.0651 2.26065 97.0536 2.24308C97.0272 2.2066 96.986 2.18093 96.9365 2.17688C96.8475 2.17147 96.7403 2.2174 96.742 2.25253C96.7436 2.28226 96.7717 2.30792 96.8261 2.33224C96.8491 2.3417 96.8673 2.35792 96.8887 2.36873C96.9514 2.3998 97.0008 2.46061 97.0915 2.42954C97.075 2.34577 97.0832 2.38765 97.0915 2.42954C97.0832 2.48088 97.1079 2.51736 97.1673 2.53222C97.1838 2.53627 97.2085 2.53357 97.2217 2.52546C97.2728 2.49573 97.281 2.45521 97.2431 2.34847C97.2365 2.36604 97.2415 2.3971 97.2563 2.40521C97.2711 2.41331 97.3074 2.40657 97.3255 2.39711C97.3717 2.37144 97.3948 2.33766 97.3832 2.30928C97.3766 2.29442 97.3453 2.27551 97.3255 2.27551C97.2909 2.27551 97.2596 2.30523 97.2547 2.40791ZM110.583 18.0768C110.463 18.1025 110.324 18.093 110.204 18.1457C110.183 18.1551 110.161 18.1795 110.16 18.1984C110.158 18.2105 110.191 18.2281 110.211 18.2376C110.255 18.2592 110.305 18.2524 110.362 18.2457C110.45 18.2362 110.501 18.2984 110.568 18.3294C110.59 18.3389 110.618 18.3456 110.641 18.3429C110.774 18.3267 110.906 18.3092 111.04 18.2903C111.063 18.2862 111.088 18.2767 111.107 18.2646C111.173 18.2254 111.167 18.1997 111.102 18.17C111.032 18.1376 110.976 18.0835 110.903 18.0579C110.799 18.0214 110.694 18.07 110.583 18.0768ZM101.222 19.0631C101.141 19.0739 101.062 19.0847 100.982 19.0955C100.955 19.0996 100.927 19.1009 100.902 19.1063C100.851 19.1158 100.813 19.1442 100.789 19.1887C100.827 19.2239 100.873 19.2441 100.924 19.2401C101.005 19.232 101.084 19.2144 101.165 19.2104C101.252 19.205 101.303 19.2658 101.371 19.2968C101.392 19.3063 101.418 19.3076 101.443 19.309C101.565 19.3144 101.639 19.2441 101.616 19.1455C101.6 19.0685 101.537 19.0226 101.461 19.032C101.382 19.0415 101.301 19.0523 101.222 19.0631ZM111.147 16.0798C111.167 16.0569 111.188 16.0407 111.198 16.0204C111.228 15.9515 111.216 15.9001 111.162 15.8461C111.096 15.7799 111.015 15.8245 110.941 15.8312C110.923 15.8326 110.903 15.861 110.893 15.8785C110.887 15.8907 110.887 15.9164 110.896 15.9231C110.977 15.9772 111.063 16.0271 111.147 16.0798ZM96.8475 12.0886C96.7684 12.0995 96.6876 12.1076 96.6085 12.1224C96.5887 12.1265 96.5706 12.1521 96.5591 12.1697C96.5376 12.2021 96.5607 12.2467 96.6283 12.2508C96.7057 12.2562 96.7865 12.2332 96.8673 12.2224C96.9695 12.2089 97.0305 12.1589 96.9926 12.1157C96.9563 12.0738 96.9069 12.0657 96.8475 12.0886ZM10.0797 9.20132C10.1324 9.19456 10.1868 9.18915 10.2396 9.1797C10.289 9.17024 10.327 9.14052 10.3517 9.09593C10.3105 9.0608 10.2643 9.04188 10.2132 9.04594C10.1324 9.05404 10.0533 9.06485 9.9742 9.07836C9.92475 9.08647 9.87697 9.11619 9.86543 9.16213C9.85389 9.19726 9.9643 9.21753 10.0797 9.20132ZM89.8766 8.99324C89.898 9.0054 89.9194 9.02973 89.9409 9.02973C89.9936 9.02973 90.0481 9.02161 90.0975 9.0081C90.1189 9.0027 90.1354 8.97838 90.1453 8.95947C90.1519 8.9473 90.1503 8.92569 90.1404 8.91488C90.0926 8.85003 89.9013 8.873 89.87 8.94731C89.8667 8.96082 89.875 8.97838 89.8766 8.99324ZM84.676 1.59454C84.681 1.61616 84.6826 1.63777 84.6892 1.65939C84.7024 1.69992 84.7387 1.72965 84.7914 1.74992C84.8326 1.71614 84.8541 1.67832 84.8524 1.63778C84.8508 1.61617 84.8458 1.59453 84.8392 1.57292C84.826 1.53238 84.7898 1.50267 84.7371 1.4824C84.6958 1.51483 84.676 1.55265 84.676 1.59454ZM114.956 19.2982C114.941 19.3158 114.927 19.3333 114.91 19.3495C114.955 19.3887 114.996 19.4009 115.027 19.3793C115.047 19.3657 115.059 19.3455 115.073 19.3279C115.029 19.2887 114.989 19.2779 114.956 19.2982ZM113.931 19.4819C113.952 19.4941 113.972 19.5103 113.995 19.5184C114.033 19.5319 114.068 19.509 114.094 19.4603C114.073 19.4482 114.053 19.4319 114.03 19.4238C113.992 19.4103 113.957 19.4333 113.931 19.4819ZM114.581 19.2347C114.569 19.2671 114.592 19.2941 114.653 19.3171C114.668 19.2995 114.688 19.2833 114.698 19.2644C114.714 19.2333 114.686 19.205 114.627 19.1834C114.61 19.1996 114.595 19.2171 114.581 19.2347ZM111.101 17.7782C111.089 17.8106 111.112 17.8376 111.173 17.8606C111.188 17.843 111.208 17.8268 111.218 17.8079C111.234 17.7768 111.206 17.7485 111.147 17.7268C111.131 17.7431 111.116 17.7606 111.101 17.7782ZM106.36 8.2177C106.345 8.23527 106.33 8.25283 106.314 8.26905C106.359 8.30823 106.4 8.32039 106.431 8.29877C106.451 8.28526 106.462 8.26499 106.477 8.24743C106.433 8.20824 106.393 8.19744 106.36 8.2177ZM101.819 3.14562C101.859 3.15507 101.891 3.13617 101.92 3.08617C101.898 3.07401 101.878 3.0578 101.855 3.04969C101.817 3.03618 101.783 3.05916 101.756 3.1078C101.778 3.12131 101.799 3.13346 101.819 3.14562ZM99.4074 2.82811C99.3926 2.84567 99.3777 2.86324 99.3613 2.87945C99.4058 2.91863 99.447 2.93079 99.4783 2.90917C99.4981 2.89566 99.5096 2.87539 99.5244 2.85783C99.4799 2.81865 99.4404 2.80919 99.4074 2.82811ZM83.0541 1.59319C83.0392 1.61075 83.0244 1.62832 83.0079 1.64453C83.0524 1.68371 83.0936 1.69587 83.125 1.67425C83.1447 1.66074 83.1563 1.64047 83.1711 1.62291C83.1266 1.58372 83.0871 1.57427 83.0541 1.59319ZM1.62691 12.5859C1.60548 12.5737 1.58407 12.5615 1.56429 12.548C1.51649 12.5845 1.50166 12.6183 1.52803 12.644C1.54451 12.6602 1.56922 12.6696 1.59065 12.6818C1.6401 12.6453 1.65163 12.6129 1.62691 12.5859Z" fill="#FFE492"/>
</svg>
