<svg width="337" height="43" viewBox="0 0 337 43" fill="none" xmlns="http://www.w3.org/2000/svg">
<path d="M316.456 22.7387C315.994 22.7743 315.529 22.7987 315.077 22.852C314.783 22.8853 314.658 22.7876 314.462 22.7366C314.397 22.7188 314.327 22.6832 314.266 22.6877C313.81 22.7232 313.353 22.7632 312.897 22.8032C312.757 22.8898 312.669 23.0053 312.454 23.0475C312.245 23.0875 311.998 23.0875 311.765 23.1074C311.458 23.1319 311.15 23.1563 310.843 23.1785C310.689 23.1896 310.563 23.2318 310.512 23.3118C310.503 23.3251 310.605 23.3584 310.661 23.3784C310.847 23.445 311.029 23.5205 311.234 23.5716C311.43 23.6205 311.672 23.5405 311.882 23.6027C312.352 23.7427 312.357 23.7404 312.715 23.7138C313.023 23.6894 313.33 23.6627 313.638 23.6449C313.698 23.6405 313.768 23.6738 313.833 23.6916C314.029 23.7404 314.155 23.8515 314.443 23.8093C314.662 23.776 314.905 23.7693 315.133 23.7516C315.324 23.816 315.501 23.8892 315.706 23.9403C315.897 23.9892 315.953 24.027 315.85 24.0914C315.757 24.1513 315.627 24.1758 315.454 24.1802C315.3 24.1824 315.147 24.2024 314.993 24.2135C314.914 24.2202 314.839 24.2246 314.765 24.2313C314.471 24.2557 314.471 24.2557 313.936 24.1136C313.726 24.0581 313.489 24.1358 313.288 24.0825C313.153 24.0469 313.037 23.9937 312.906 23.9559C312.85 23.9403 312.762 23.9381 312.692 23.9426C312.459 23.9581 312.226 23.9692 312.003 23.9981C311.844 24.0181 311.751 24.0803 311.77 24.1425C311.774 24.1669 311.886 24.2024 311.951 24.2046C312.1 24.2091 312.259 24.178 312.403 24.1935C312.543 24.2091 312.687 24.2535 312.79 24.3024C312.999 24.4045 313.237 24.3135 313.437 24.3401C313.647 24.369 313.819 24.4578 314.019 24.5112C314.071 24.5245 314.169 24.5023 314.248 24.4956C314.476 24.48 314.704 24.4667 314.933 24.4512C315.124 24.5156 315.328 24.5733 315.501 24.6466C315.813 24.7799 316.148 24.831 316.554 24.7666C316.782 24.731 317.005 24.7443 317.187 24.831C317.373 24.9198 317.588 24.9109 317.825 24.8932C318.044 24.8754 318.268 24.8265 318.491 24.8887C318.976 25.0264 318.98 25.0331 319.553 24.9798C319.726 24.9642 319.856 24.9598 319.986 25.0109C320.108 25.0575 320.238 25.0975 320.364 25.1419C320.592 25.1264 320.825 25.1108 321.053 25.0931C321.347 25.0686 321.51 25.0997 321.579 25.2241C321.621 25.2996 321.64 25.3685 321.743 25.4195C321.864 25.4817 321.994 25.4795 322.171 25.4617C322.339 25.4462 322.46 25.4218 322.53 25.3418C322.558 25.3085 322.614 25.2774 322.665 25.2507C322.707 25.2308 322.772 25.1997 322.809 25.2041C322.879 25.213 322.972 25.2374 322.996 25.2663C323.224 25.535 323.224 25.5373 323.457 25.615C323.713 25.7016 323.978 25.7793 324.211 25.8771C324.421 25.9637 324.63 25.9259 324.859 25.9259C325.031 25.9259 325.143 25.9837 325.129 26.0414C325.12 26.0748 325.054 26.1236 324.998 26.128C324.542 26.1725 324.081 26.2102 323.62 26.2413C323.564 26.2458 323.494 26.2058 323.429 26.1858C323.298 26.1458 323.182 26.0836 323.042 26.0703C322.902 26.057 322.739 26.0903 322.586 26.1014C322.432 26.1125 322.269 26.1414 322.129 26.1236C321.989 26.1059 321.878 26.0414 321.747 25.9992C321.687 25.9792 321.603 25.9504 321.552 25.957C321.212 26.0104 320.96 25.937 320.718 25.8393C320.667 25.8193 320.578 25.806 320.513 25.8105C319.973 25.8482 319.437 25.8926 318.897 25.9348C318.678 25.9526 318.501 25.8748 318.454 25.7438C318.431 25.6705 318.384 25.5972 318.384 25.5239C318.384 25.3907 318.128 25.3174 317.942 25.3329C317.634 25.3551 317.322 25.3729 317.019 25.4062C316.772 25.4329 316.563 25.4062 316.395 25.3263C316.199 25.2352 315.976 25.253 315.752 25.2774C315.585 25.2952 315.538 25.3685 315.547 25.5528C315.557 25.7016 315.477 25.7483 315.175 25.7727C314.793 25.8038 314.406 25.8349 314.019 25.8593C313.959 25.8637 313.889 25.826 313.829 25.806C313.698 25.766 313.582 25.7016 313.442 25.6883C313.302 25.6727 313.139 25.7061 312.985 25.7194C312.832 25.7305 312.669 25.7616 312.529 25.746C312.389 25.7305 312.273 25.6639 312.147 25.6217C312.086 25.6017 312.012 25.5728 311.951 25.5772C311.644 25.595 311.336 25.6217 311.029 25.6461C310.684 25.6727 310.684 25.6727 310.195 25.535C309.972 25.4729 309.748 25.5217 309.529 25.5395C309.296 25.5573 309.077 25.5661 308.896 25.4773C308.775 25.4195 308.64 25.384 308.495 25.3951C308.109 25.4218 307.727 25.4551 307.34 25.4817C307.275 25.4862 307.186 25.4751 307.135 25.4551C306.888 25.3618 306.646 25.2885 306.301 25.3351C306.003 25.3751 305.682 25.3773 305.384 25.4151C305.221 25.4351 305.146 25.5062 305.179 25.5617C305.197 25.5906 305.295 25.6239 305.36 25.6239C305.509 25.6261 305.672 25.5928 305.812 25.6061C306.101 25.6328 306.245 25.8193 306.623 25.7682C306.846 25.7371 307.079 25.726 307.312 25.7172C307.373 25.7149 307.438 25.7571 307.503 25.7794C307.689 25.8393 307.852 25.917 308.122 25.8771C308.346 25.846 308.584 25.8371 308.812 25.8193C309.175 25.7905 309.175 25.7927 309.646 25.9282C309.869 25.9926 310.093 25.9415 310.312 25.9259C310.475 25.9148 310.628 25.8926 310.759 25.9237C310.959 25.9704 311.104 26.077 311.35 26.0703C311.583 26.0636 311.812 26.0325 312.044 26.0214C312.189 26.0148 312.324 26.0503 312.44 26.1103C312.562 26.1703 312.692 26.1969 312.85 26.1836C313.079 26.1658 313.311 26.1436 313.544 26.1325C313.61 26.1303 313.684 26.1503 313.745 26.168C313.875 26.208 314.001 26.2546 314.127 26.2968C314.355 26.2835 314.588 26.2791 314.811 26.2524C314.984 26.2324 315.105 26.2413 315.245 26.2858C315.422 26.3457 315.566 26.4523 315.855 26.4013C315.999 26.3768 316.167 26.3835 316.311 26.3613C316.488 26.3324 316.609 26.3435 316.735 26.4101C316.973 26.5367 317.271 26.5389 317.578 26.4901C317.914 26.4368 318.165 26.499 318.417 26.5967C318.682 26.6989 318.682 26.6966 318.887 26.9432C318.948 27.0142 319.12 27.0476 319.264 27.0342C319.507 27.012 319.716 27.0231 319.893 27.1075C320.08 27.1986 320.303 27.1875 320.531 27.1631C320.834 27.1297 321.137 27.1009 321.384 27.2297C321.505 27.2919 321.635 27.3074 321.798 27.2919C322.26 27.2519 322.725 27.2275 323.177 27.1786C323.452 27.1475 323.61 27.2186 323.797 27.2785C324.048 27.3607 324.323 27.434 324.323 27.6095C324.323 27.6384 324.388 27.6717 324.444 27.6939C324.565 27.7405 324.696 27.7805 324.822 27.8249C325.008 27.8915 325.189 27.9471 325.446 27.9115C325.669 27.8827 325.907 27.8738 326.135 27.8538C326.363 27.8338 326.573 27.8227 326.778 27.9071C327.015 28.0026 327.267 28.0937 327.537 28.1647C327.728 28.2158 327.98 28.1292 328.185 28.1981C328.31 28.2403 328.431 28.2891 328.566 28.3246C328.622 28.3402 328.711 28.3291 328.786 28.3246C328.939 28.3158 329.098 28.3091 329.247 28.2869C329.419 28.2625 329.549 28.2669 329.68 28.318C329.801 28.3646 329.922 28.429 330.062 28.4424C330.271 28.4624 330.504 28.3735 330.714 28.4757C330.821 28.5268 330.956 28.5756 331.096 28.5912C331.236 28.6067 331.399 28.5734 331.548 28.5756C331.613 28.5756 331.692 28.6112 331.729 28.64C331.753 28.6556 331.72 28.6978 331.687 28.72C331.646 28.7466 331.585 28.7822 331.524 28.7866C331.063 28.8266 330.602 28.8599 330.141 28.8977C329.866 28.9199 329.866 28.9199 329.312 28.78C329.181 28.7467 329.037 28.7533 328.874 28.7689C328.655 28.7888 328.432 28.8266 328.203 28.7866C327.905 28.6356 327.537 28.6223 327.146 28.68C326.983 28.7044 326.834 28.7044 326.713 28.6622C326.456 28.5778 326.186 28.5001 325.958 28.4002C325.781 28.3224 325.697 28.3158 325.623 28.4224C325.599 28.4557 325.576 28.4912 325.581 28.5223C325.609 28.6334 325.66 28.7422 325.688 28.8533C325.697 28.8843 325.66 28.9199 325.637 28.9532C325.562 29.0465 325.464 29.0398 325.301 28.9621C325.138 28.8843 324.943 28.8333 324.682 28.8688C324.458 28.8999 324.216 28.8955 323.992 28.9288C323.648 28.9776 323.405 28.9066 323.159 28.8111C323.107 28.7911 323.019 28.78 322.954 28.7844C322.26 28.8355 321.57 28.8932 320.876 28.9443C320.727 28.9554 320.592 28.9221 320.476 28.8621C320.354 28.8022 320.219 28.7711 320.07 28.7822C319.455 28.8288 318.841 28.871 318.226 28.9288C317.974 28.9532 317.774 28.9243 317.602 28.8466C317.471 28.7888 317.35 28.7711 317.187 28.7777C317.01 28.7844 316.884 28.8066 316.796 28.871C316.712 28.9332 316.772 28.971 316.959 29.0198C317.159 29.0731 317.345 29.142 317.536 29.2042C317.69 29.1953 317.844 29.1775 317.993 29.1797C318.058 29.1797 318.119 29.2197 318.184 29.2419C318.37 29.3063 318.542 29.3708 318.808 29.3352C319.032 29.3041 319.269 29.2975 319.497 29.2775C319.814 29.253 319.814 29.253 320.326 29.393C320.457 29.4285 320.597 29.4263 320.764 29.4063C320.909 29.3907 321.058 29.4218 321.16 29.4885C321.202 29.5151 321.188 29.5596 321.1 29.7061C321.1 29.815 321.197 29.7661 321.23 29.695C321.281 29.5929 321.184 29.5596 320.997 29.6151C320.867 29.6551 320.802 29.7128 320.834 29.7595C320.853 29.7839 320.941 29.815 321.1 29.7061C321.51 29.5729 321.822 29.5573 322.12 29.5218C322.297 29.5018 322.409 29.5107 322.548 29.5684C322.716 29.6373 322.884 29.7106 323.159 29.6751C323.457 29.6351 323.773 29.6306 324.076 29.5973C324.356 29.5662 324.5 29.6639 324.677 29.7217C324.891 29.7905 325.129 29.7128 325.325 29.7528C325.529 29.7928 325.674 29.8905 325.911 29.9082C326.256 29.8483 326.475 29.9593 326.736 30.0326C326.941 30.0882 327.183 30.0393 327.402 30.0148C327.649 29.9882 327.854 30.0126 328.026 30.0926C328.222 30.1837 328.441 30.1637 328.664 30.1437C329.186 30.0993 329.205 30.0926 329.507 30.2147C329.726 30.3036 329.936 30.2636 330.155 30.2525C330.346 30.3125 330.532 30.3769 330.733 30.4302C330.784 30.4435 330.882 30.4213 330.961 30.4146C331.189 30.3969 331.422 30.3791 331.65 30.3613C331.804 30.3502 331.967 30.3169 332.107 30.3302C332.246 30.3458 332.363 30.4102 332.489 30.4524C332.614 30.4946 332.745 30.5368 332.866 30.5812C333.052 30.6479 333.229 30.7034 333.49 30.6701C333.714 30.6412 333.947 30.6323 334.179 30.6123C334.473 30.5879 334.464 30.5946 335.009 30.7278C335.302 30.8011 335.605 30.7123 335.903 30.7034C336.052 30.6989 336.196 30.7234 336.299 30.7878C336.341 30.8144 336.327 30.8589 336.341 30.8966C335.572 30.9566 334.799 31.0077 334.04 31.081C333.746 31.1098 333.593 31.0299 333.434 30.9632C333.173 30.8566 332.829 31.0121 332.582 30.8744C332.433 30.7922 332.218 30.7456 331.962 30.7856C331.813 30.8078 331.655 30.8055 331.501 30.8255C331.11 30.8744 330.751 30.8766 330.439 30.7234C330.332 30.6701 330.178 30.6412 330.066 30.5901C329.936 30.5346 329.81 30.5035 329.656 30.5146C328.962 30.5679 328.273 30.6212 327.584 30.6789C327.523 30.6834 327.463 30.7167 327.411 30.7411C327.281 30.8033 327.323 30.8522 327.532 30.8922C327.602 30.9055 327.658 30.9344 327.723 30.9566C327.849 30.9988 327.966 31.0654 328.105 31.081C328.245 31.0965 328.408 31.0654 328.562 31.0543C328.716 31.0432 328.879 31.0099 329.018 31.0232C329.158 31.0388 329.275 31.1032 329.405 31.1431C329.466 31.1631 329.54 31.1964 329.601 31.1942C329.908 31.1809 330.211 31.1565 330.518 31.1365C330.709 31.1964 330.872 31.2831 331.101 31.3031C331.245 31.3164 331.399 31.2919 331.548 31.2964C331.613 31.2986 331.697 31.3319 331.729 31.3608C331.748 31.3786 331.687 31.423 331.641 31.4452C331.464 31.5296 331.222 31.514 331.003 31.5407C330.765 31.5696 330.551 31.5607 330.369 31.4741C330.248 31.4163 330.113 31.3852 329.964 31.3964C329.577 31.4252 329.195 31.4585 328.809 31.483C328.743 31.4874 328.664 31.4674 328.604 31.4519C328.115 31.3164 328.115 31.312 327.77 31.3408C327.262 31.383 327.262 31.383 326.922 31.2653C326.857 31.2431 326.787 31.2009 326.731 31.2031C326.191 31.2387 325.655 31.2742 325.12 31.3253C324.943 31.3408 324.822 31.3408 324.691 31.2831C324.579 31.2342 324.449 31.1787 324.309 31.1654C324.165 31.152 324.006 31.1853 323.853 31.1965C323.699 31.2076 323.536 31.2364 323.401 31.2187C323.261 31.2009 323.14 31.1387 323.019 31.0943C322.893 31.0477 322.758 31.0498 322.586 31.0676C322.055 31.1187 322.05 31.1121 321.524 30.9743C321.463 30.9588 321.384 30.941 321.319 30.9455C320.932 30.9721 320.55 31.0054 320.164 31.0321C320.014 31.0432 319.87 31.0143 319.768 30.9499C319.726 30.9233 319.74 30.8788 319.712 30.7922C319.679 30.7722 319.716 30.8078 319.726 30.8411C319.795 30.8367 319.879 30.8411 319.931 30.8233C320.061 30.7811 320.126 30.7256 320.094 30.6789C320.075 30.6545 319.987 30.6234 319.931 30.6234C319.828 30.6234 319.74 30.6723 319.712 30.7922C319.418 30.8655 319.106 30.8811 318.803 30.9166C318.626 30.9388 318.515 30.9277 318.375 30.87C318.207 30.7989 318.035 30.73 317.76 30.7656C317.462 30.8055 317.145 30.8122 316.838 30.8433C316.484 30.8789 316.33 30.6789 316.032 30.6834C315.724 30.6878 315.417 30.7256 315.109 30.7522C314.839 30.7745 314.839 30.7744 314.28 30.6301C314.075 30.5768 313.833 30.6545 313.633 30.599C313.498 30.5634 313.381 30.5102 313.251 30.4724C313.195 30.4568 313.107 30.4568 313.037 30.4613C312.65 30.4879 312.259 30.5057 311.886 30.5546C311.462 30.6123 311.141 30.5501 310.838 30.4191C310.456 30.4435 310.07 30.4568 309.692 30.499C309.417 30.5301 309.259 30.4569 309.073 30.3969C309.008 30.3769 308.952 30.3436 308.882 30.3347C308.812 30.3258 308.728 30.3436 308.653 30.3502C308.346 30.3747 308.029 30.3858 307.731 30.4258C307.363 30.4768 307.223 30.2947 306.939 30.2725C306.748 30.3813 306.646 30.5301 306.269 30.5412C305.961 30.5501 305.654 30.5857 305.346 30.6101C305.193 30.6212 305.039 30.6345 304.885 30.6456C304.638 30.6656 304.522 30.7522 304.573 30.8855C304.601 30.9588 304.624 31.0321 304.648 31.1054C304.694 31.2364 304.578 31.3475 304.382 31.363C303.842 31.4052 303.306 31.4496 302.766 31.4874C302.621 31.4985 302.482 31.4607 302.365 31.4008C302.244 31.3408 302.109 31.3142 301.96 31.3253C301.42 31.3675 300.884 31.4119 300.344 31.4497C300.283 31.4541 300.204 31.4319 300.143 31.4141C300.013 31.3741 299.887 31.3275 299.761 31.2853C299.454 31.3053 299.151 31.3186 298.848 31.3452C298.359 31.3852 298.359 31.3874 298.001 31.2653C297.935 31.2431 297.87 31.2009 297.81 31.2031C297.577 31.212 297.349 31.2342 297.116 31.2542C296.431 31.3119 296.431 31.3119 296.23 31.2453C296.049 31.1831 295.886 31.1076 295.611 31.1431C295.313 31.1831 294.996 31.1964 294.689 31.2187C294.46 31.2342 294.232 31.252 294.004 31.2564C293.943 31.2586 293.878 31.2164 293.813 31.1942C293.627 31.1254 293.445 31.0698 293.189 31.1076C293.04 31.1298 292.881 31.1343 292.728 31.1454C292.327 31.1765 292.327 31.1764 291.67 31.0432C291.605 31.0299 291.526 31.0143 291.461 31.021C290.92 31.061 290.385 31.1054 289.844 31.1431C289.779 31.1476 289.7 31.1342 289.635 31.1231C288.899 30.9943 288.899 30.9943 288.116 31.0565C287.818 31.0787 287.809 31.0876 287.497 30.9699C287.357 30.9188 287.241 30.8944 287.078 30.9099C286.463 30.9632 285.843 30.9988 285.233 31.061C284.958 31.0876 284.8 31.021 284.613 30.961C284.548 30.941 284.478 30.8966 284.422 30.8988C283.808 30.941 283.193 30.9921 282.578 31.0343C282.522 31.0388 282.452 30.9943 282.387 30.9743C282.261 30.9344 282.14 30.8744 282 30.8611C281.856 30.8477 281.697 30.8811 281.539 30.8922C281.152 30.921 281.152 30.9188 280.705 30.7878C280.645 30.77 280.566 30.7456 280.505 30.75C279.89 30.7944 279.271 30.8322 278.66 30.8966C278.311 30.9322 278.074 30.8677 277.827 30.7745C277.775 30.7545 277.687 30.7456 277.622 30.75C276.928 30.8011 276.238 30.8588 275.544 30.9099C275.4 30.921 275.26 30.8833 275.144 30.8255C274.957 30.7345 274.738 30.7456 274.506 30.7656C273.97 30.8122 273.965 30.81 273.648 30.7034C273.583 30.6812 273.527 30.6523 273.457 30.6412C273.392 30.6301 273.308 30.6368 273.239 30.6412C272.931 30.6634 272.624 30.6878 272.316 30.7123C272.009 30.7367 271.697 30.75 271.394 30.7878C271.021 30.8344 270.844 30.69 270.583 30.6234C270.201 30.6523 269.81 30.6701 269.433 30.7167C269.144 30.7522 269.009 30.6545 268.818 30.6034C268.753 30.5857 268.683 30.5479 268.622 30.5523C267.928 30.6012 267.234 30.6545 266.545 30.7145C266.377 30.7278 266.266 30.71 266.126 30.6567C265.814 30.5368 265.8 30.5412 265.278 30.5857C265.05 30.6057 264.831 30.6234 264.635 30.5324C264.463 30.4502 264.253 30.4302 264.006 30.4568C263.704 30.4901 263.391 30.5079 263.084 30.5301C262.777 30.5546 262.469 30.5879 262.162 30.599C261.915 30.6101 261.766 30.5057 261.57 30.4524C261.51 30.4369 261.426 30.4346 261.356 30.4391C261.048 30.4591 260.732 30.4746 260.434 30.5124C260.07 30.559 259.87 30.4369 259.614 30.3658C259.558 30.3502 259.465 30.3591 259.395 30.3658C258.854 30.4058 258.319 30.4502 257.779 30.4924C257.588 30.4324 257.392 30.3747 257.201 30.3147C256.893 30.3369 256.586 30.3613 256.279 30.3835C256.046 30.4013 255.808 30.408 255.589 30.4413C255.305 30.4857 255.165 30.3813 254.974 30.3302C254.909 30.3125 254.839 30.2747 254.779 30.2792C254.392 30.3036 254.006 30.3303 253.624 30.368C253.26 30.4058 253.116 30.2059 252.818 30.2081C252.51 30.2103 252.194 30.2392 251.895 30.2792C251.551 30.3258 251.309 30.2547 251.062 30.1592C251.01 30.1392 250.922 30.1281 250.857 30.1326C250.47 30.1592 250.088 30.1925 249.702 30.2192C249.636 30.2236 249.557 30.2125 249.492 30.1992C248.756 30.0682 248.756 30.066 248.435 30.0926C248.206 30.1104 247.973 30.1326 247.741 30.1437C247.675 30.1481 247.596 30.1281 247.535 30.1104C247.051 29.9749 247.051 29.9727 246.702 29.9993C246.394 30.0237 246.087 30.0482 245.779 30.0726C245.588 30.0126 245.393 29.9549 245.202 29.8949C244.82 29.9238 244.429 29.946 244.051 29.986C243.874 30.0037 243.758 29.9971 243.623 29.9416C243.455 29.8749 243.287 29.7972 243.008 29.835C242.71 29.8749 242.393 29.8794 242.09 29.9127C241.727 29.9527 241.578 29.7506 241.284 29.7528C240.977 29.755 240.66 29.7839 240.362 29.8238C240.017 29.8705 239.775 29.7994 239.528 29.7039C239.477 29.6839 239.389 29.6728 239.323 29.6773C238.476 29.7417 237.633 29.8061 236.785 29.8749C236.263 29.9171 236.263 29.9193 235.271 29.7972C235.201 29.7883 235.126 29.7794 235.057 29.7839C234.749 29.8039 234.432 29.8194 234.134 29.8572C233.771 29.9038 233.571 29.7839 233.315 29.7106C233.259 29.695 233.17 29.7039 233.096 29.7083C232.863 29.7239 232.634 29.7439 232.402 29.7617C232.094 29.7861 231.787 29.8105 231.479 29.835C231.288 29.7772 231.093 29.7172 230.902 29.6595C230.52 29.6884 230.128 29.7039 229.751 29.7506C229.462 29.7861 229.327 29.6928 229.136 29.6395C229.071 29.6217 229.001 29.584 228.941 29.5862C228.247 29.6351 227.553 29.6861 226.863 29.7483C226.579 29.775 226.449 29.675 226.258 29.6239C226.192 29.6084 226.118 29.5795 226.057 29.584C225.596 29.6151 225.135 29.6528 224.674 29.6906C224.413 29.7128 224.413 29.7128 223.845 29.5751C223.78 29.5595 223.705 29.544 223.64 29.5484C222.177 29.6595 220.719 29.7772 219.257 29.8883C219.108 29.8994 218.973 29.8661 218.856 29.8061C218.735 29.7461 218.6 29.715 218.451 29.7261C217.836 29.7728 217.216 29.815 216.606 29.8727C216.355 29.8972 216.154 29.8683 215.982 29.7905C215.852 29.7328 215.731 29.7106 215.568 29.7239C215.26 29.7506 214.953 29.7728 214.645 29.7972C214.338 29.8216 214.03 29.8461 213.723 29.8705C213.416 29.8949 213.103 29.9083 212.801 29.946C212.428 29.9927 212.246 29.855 211.99 29.7861C211.529 29.8194 211.068 29.8527 210.611 29.8883C209.996 29.9349 209.382 29.986 208.767 30.0304C208.711 30.0349 208.641 29.9949 208.576 29.9749C208.385 29.9194 208.245 29.8416 207.961 29.8661C206.582 29.9838 205.194 30.0837 203.811 30.1992C203.522 30.2236 203.396 30.1281 203.2 30.077C203.135 30.0615 203.061 30.0304 203 30.0349C202.232 30.0904 201.463 30.1526 200.694 30.2125C200.382 30.237 200.382 30.237 199.861 30.0992C199.8 30.0837 199.721 30.0637 199.656 30.0682C198.654 30.1437 197.657 30.2236 196.656 30.3014C196.507 30.3125 196.372 30.2814 196.251 30.2214C196.134 30.1614 195.994 30.1281 195.85 30.1392C194.928 30.2103 194.001 30.2792 193.083 30.3569C192.836 30.3791 192.631 30.3591 192.454 30.2792C192.329 30.2214 192.203 30.197 192.044 30.2103C190.661 30.3191 189.278 30.4235 187.894 30.539C187.629 30.5612 187.442 30.519 187.275 30.4457C187.14 30.388 187.023 30.3769 186.855 30.3858C186.678 30.3969 186.571 30.4213 186.474 30.4879C186.348 30.5745 186.269 30.6834 185.97 30.6901C185.663 30.6967 185.351 30.7234 185.048 30.7611C184.759 30.7989 184.624 30.6989 184.443 30.639C184.307 30.5968 184.182 30.5901 184.009 30.6101C183.851 30.6279 183.753 30.6656 183.66 30.7367C183.455 30.8877 183.436 30.8877 183.185 30.7922C183.05 30.7411 182.929 30.7011 182.78 30.71C182.165 30.7545 181.55 30.8033 180.935 30.8544C180.581 30.8833 180.576 30.8877 180.311 30.7767C180.181 30.7211 180.055 30.6945 179.901 30.7078C178.21 30.8411 176.519 30.9699 174.828 31.1098C174.568 31.132 174.391 31.0854 174.204 31.0188C174.144 30.9965 174.083 30.9654 174.013 30.9566C173.943 30.9477 173.864 30.9566 173.79 30.961C172.56 31.0565 171.326 31.1476 170.1 31.2542C169.821 31.2786 169.672 31.2076 169.481 31.1498C169.416 31.1298 169.36 31.0987 169.29 31.0898C169.22 31.0832 169.136 31.0987 169.062 31.1054C167.832 31.2009 166.598 31.292 165.373 31.3986C165.079 31.423 164.953 31.3297 164.762 31.2809C164.697 31.2631 164.627 31.2297 164.567 31.2342C164.18 31.2586 163.798 31.2919 163.412 31.3208C162.489 31.3941 161.567 31.463 160.645 31.5385C160.291 31.5674 160.137 31.3697 159.839 31.3786C159.452 31.3897 159.07 31.4341 158.684 31.4652C158.376 31.4896 158.069 31.5118 157.761 31.5385C157.459 31.5629 157.459 31.5629 156.704 31.4341C156.639 31.423 156.56 31.4074 156.494 31.4119C155.418 31.4941 154.338 31.5762 153.266 31.6651C153.02 31.6851 152.815 31.674 152.638 31.5918C152.512 31.5341 152.381 31.5052 152.228 31.5185C150.611 31.6451 149 31.7717 147.383 31.8961C147.323 31.9005 147.244 31.8783 147.183 31.8605C147.053 31.8206 146.927 31.7739 146.801 31.7317C146.708 31.7828 146.587 31.8294 146.526 31.8872C146.442 31.9649 146.331 31.9871 146.154 32.0005C145.977 32.0138 145.865 32.0094 145.725 31.9516C145.557 31.8805 145.385 31.825 145.11 31.8472C143.419 31.9871 141.728 32.1137 140.038 32.2514C139.758 32.2737 139.628 32.1759 139.432 32.1248C139.367 32.1093 139.292 32.0849 139.232 32.0893C138.538 32.1404 137.848 32.1959 137.154 32.2492C135.231 32.4002 133.307 32.5446 131.388 32.7045C131.038 32.7334 130.801 32.6779 130.554 32.5824C130.503 32.5624 130.414 32.5513 130.349 32.5557C127.657 32.7645 124.964 32.9755 122.277 33.1865C122.132 33.1976 121.992 33.1621 121.876 33.1043C121.755 33.0443 121.62 33.0155 121.471 33.0266C120.241 33.1221 119.011 33.2176 117.782 33.3153C117.474 33.3398 117.47 33.342 117.153 33.2353C117.088 33.2131 117.018 33.171 116.966 33.1754C116.859 33.1865 116.757 33.242 116.682 33.3175C116.608 33.3975 116.491 33.4197 116.319 33.4352C116.142 33.4508 116.026 33.4441 115.89 33.3908C115.718 33.3242 115.56 33.2598 115.28 33.282C111.745 33.5663 108.209 33.8395 104.674 34.1215C104.39 34.1437 104.259 34.0505 104.064 33.9994C103.998 33.9838 103.933 33.9616 103.863 33.9572C103.789 33.9527 103.71 33.9661 103.635 33.9727C97.8685 34.4236 92.1019 34.8767 86.3353 35.3276C85.9906 35.3542 85.9952 35.3542 85.618 35.5586C85.5714 35.583 85.5108 35.6163 85.4455 35.6207C83.6802 35.7629 81.9102 35.9006 80.1401 36.0383C79.3715 36.0983 78.603 36.1605 77.8344 36.2182C77.5596 36.2382 77.5596 36.2382 76.9028 36.4781C76.8469 36.4981 76.7816 36.5247 76.7164 36.5292C73.6421 36.7712 70.5678 37.0133 67.4888 37.251C67.2466 37.2688 67.051 37.3087 66.9392 37.4153C66.86 37.4909 66.7576 37.5353 66.6039 37.5486C64.4519 37.7174 62.2999 37.8884 60.1432 38.0528C59.887 38.0728 59.7333 38.135 59.6075 38.2282C59.5656 38.2593 59.5283 38.2949 59.4677 38.3171C59.4118 38.3371 59.328 38.3437 59.2581 38.3504C57.4136 38.4948 55.569 38.6436 53.7198 38.7813C53.445 38.8013 53.3331 38.8834 53.198 38.9701C53.1515 38.9989 53.1188 39.0389 53.0583 39.0589C52.9977 39.0767 52.9092 39.0767 52.8347 39.0811C51.2976 39.201 49.7605 39.3232 48.2233 39.4431C47.9252 39.432 47.8599 39.5609 47.7155 39.6386C47.6643 39.6652 47.6271 39.7008 47.5666 39.7185C47.5014 39.7363 47.4174 39.7341 47.3382 39.7385C46.1085 39.834 44.8788 39.9362 43.6444 40.0251C43.3603 40.045 43.3044 40.1583 43.1507 40.236C43.0994 40.2605 43.0482 40.2982 42.9877 40.3049C42.2191 40.3693 41.4506 40.4293 40.682 40.487C40.4258 40.507 40.4258 40.5048 39.974 40.7247C39.9227 40.7491 39.8621 40.7758 39.7969 40.7824C38.6464 40.8757 37.4912 40.9646 36.336 41.0556C36.187 41.0667 36.0845 41.12 36.01 41.1955C35.9355 41.2711 35.8283 41.3199 35.6793 41.331C34.757 41.4043 33.8346 41.4798 32.9123 41.5465C32.6561 41.5642 32.4885 41.6198 32.3767 41.7197C32.2929 41.7952 32.1904 41.833 32.0273 41.8463C31.1051 41.9174 30.1828 41.9951 29.2558 42.0573C28.9857 42.0751 28.8459 42.1506 28.7341 42.2439C28.6456 42.3194 28.5431 42.346 28.3708 42.3594C26.6799 42.4882 24.9844 42.617 23.2982 42.7591C23.0141 42.7836 22.8696 42.7058 22.6833 42.6503C22.4178 42.5726 22.171 42.4882 22.171 42.3149C22.171 42.2883 22.0918 42.2572 22.0359 42.235C21.6213 42.0684 21.6213 42.0684 21.5561 41.8907C21.5189 41.7819 21.4769 41.6708 21.4443 41.5598C21.3838 41.3777 21.2347 41.331 20.8061 41.3643C20.6524 41.3754 20.4987 41.391 20.345 41.3999C20.1167 41.4154 19.9444 41.3421 19.9025 41.2089C19.8792 41.1356 19.8513 41.0623 19.828 40.989C20.0609 40.9712 20.0562 40.969 20.4661 40.7003C20.6384 40.587 20.6385 40.587 20.3078 40.4737C20.182 40.4315 20.0609 40.3848 19.9258 40.3449C19.8653 40.3271 19.7861 40.316 19.7209 40.3204C19.3343 40.3471 18.9523 40.3782 18.5704 40.4093C17.9555 40.4581 17.9554 40.4581 17.3313 40.2316C17.28 40.2138 17.2008 40.1805 17.2101 40.1628C17.2614 40.0806 17.3871 40.045 17.5455 40.0361C17.7784 40.0228 18.0066 40.0006 18.2349 39.9828C18.3886 39.9717 18.5423 39.9584 18.696 39.9473C18.8404 39.8629 18.9896 39.7807 19.1246 39.6941C19.3389 39.5609 19.3388 39.5564 19.0454 39.4631C18.8591 39.4009 18.6588 39.3454 18.4678 39.2877C18.2395 39.3054 18.0066 39.3254 17.7784 39.341C17.4896 39.3609 17.3731 39.3187 17.2986 39.1744C17.2334 39.0478 17.3126 38.939 17.5362 38.9123C17.7644 38.8857 17.9788 38.8679 18.0952 38.7546C18.207 38.6458 18.4026 38.6036 18.6448 38.5947C18.7986 38.588 18.9523 38.5725 19.106 38.5592C19.3063 38.5414 19.4135 38.4281 19.3715 38.3015C19.3482 38.2193 19.3016 38.1505 19.12 38.1327C18.3141 38.055 18.3048 38.0572 17.9042 37.9062C17.8669 37.8929 17.839 37.8529 17.853 37.8329C17.8763 37.7996 17.9275 37.7507 17.9834 37.744C18.5191 37.6952 19.0548 37.6508 19.5904 37.6175C19.7674 37.6064 19.8979 37.5908 19.9584 37.5086C20.0423 37.3953 20.005 37.291 19.842 37.2132C19.7908 37.1888 19.7068 37.1577 19.6509 37.1599C19.0361 37.1999 18.4259 37.251 17.811 37.2909C17.7551 37.2954 17.6527 37.2577 17.6294 37.2288C17.5829 37.1755 17.6527 37.1044 17.8157 37.08C18.03 37.0466 18.2489 37.0444 18.3933 36.9334C18.5936 36.7757 18.8404 36.6313 19.064 36.4803C19.1013 36.4536 19.1619 36.4025 19.148 36.3981C19.0315 36.3492 18.8964 36.3115 18.7753 36.2648C18.5703 36.1871 18.5703 36.0783 18.6169 35.9739C18.6541 35.8895 18.7939 35.8562 18.9662 35.8562C19.0408 35.8562 19.1339 35.8562 19.1945 35.8362C19.3528 35.7873 19.4041 35.7251 19.3249 35.6785C19.2783 35.6518 19.1945 35.6141 19.1386 35.6185C18.1418 35.6918 17.1403 35.7629 16.1481 35.8539C15.8546 35.8806 15.7196 35.7962 15.5426 35.7362C15.4076 35.6896 15.2817 35.6718 15.114 35.7051C14.9557 35.7362 14.802 35.7185 14.7042 35.6452C14.625 35.5852 14.7647 35.5341 15.142 35.4764C15.2119 35.4653 15.291 35.4586 15.3423 35.4364C15.8826 35.1965 15.8826 35.1943 16.2552 35.1632C16.6185 35.1343 16.6186 35.1321 16.8096 35.0033C16.8981 34.9433 16.9959 34.8834 17.0797 34.8212C17.1123 34.7967 17.1683 34.7523 17.1496 34.739C17.0472 34.6701 16.9074 34.6546 16.7443 34.6701C16.381 34.7079 15.9525 34.6768 15.7616 34.8878C15.687 34.9678 15.5706 34.99 15.4029 35.0033C13.7167 35.1321 12.0304 35.2698 10.3396 35.3942C10.0647 35.4142 9.93904 35.4964 9.8319 35.5874C9.73874 35.6629 9.63624 35.6852 9.45924 35.6985C9.28223 35.7118 9.14242 35.7185 9.03995 35.6452C8.97939 35.6008 9.03064 35.5386 9.17038 35.4764C9.37068 35.3875 9.3334 35.2765 9.26818 35.1721C9.2216 35.1033 9.07721 35.0544 8.9235 35.0588C8.69525 35.0677 8.47638 35.0921 8.28541 35.0033C8.17361 34.9522 8.03384 34.9167 7.90808 34.8722C7.66586 34.7812 7.42363 34.6879 7.0836 34.7479C6.8507 34.7257 6.68767 34.6457 6.50134 34.5835C6.18926 34.4814 6.16131 34.4658 6.38489 34.357C6.63643 34.2348 6.44075 34.0749 6.58049 33.955C6.72955 33.8261 6.93457 33.7129 7.11624 33.593C7.16282 33.5619 7.20476 33.533 7.25134 33.5019C7.1442 33.4575 7.0464 33.4019 6.92064 33.3708C6.7576 33.3309 6.67376 33.282 6.68307 33.1443C6.65047 33.1243 6.66434 33.1754 6.70161 33.1887C6.74353 33.202 6.84608 33.1909 6.89732 33.1754C7.02775 33.1332 7.09289 33.0777 7.06029 33.031C7.04165 33.0066 6.95322 32.9755 6.89732 32.9755C6.79485 32.9755 6.70636 33.0244 6.67841 33.1443C6.15671 33.2354 5.61629 33.2798 5.07596 33.3153C5.02007 33.3198 4.95024 33.2753 4.88502 33.2531C4.67075 33.1776 4.67073 33.1798 4.04189 33.1576C3.97668 33.1554 3.88822 33.1243 3.85562 33.0932C3.72054 32.9577 3.72523 32.8089 3.66002 32.6646C3.78113 32.5713 3.90214 32.4802 4.02791 32.3891C4.27944 32.2048 4.60557 32.0427 4.80121 31.8406C4.75929 31.7317 4.70338 31.6229 4.90834 31.5341C5.49059 31.423 5.48597 31.423 5.64434 31.3164C6.09617 31.0143 6.54331 30.71 7.01377 30.4124C7.13954 30.3347 7.13956 30.2925 6.91597 30.2592C6.8461 30.2503 6.77147 30.2481 6.69695 30.2525C6.46404 30.2681 6.23115 30.308 6.0029 30.2991C5.77466 30.2925 5.60697 30.1948 5.42065 30.1348C5.22967 30.0726 5.0387 30.0082 4.84772 29.9438C4.6288 29.9505 4.40991 30.0126 4.19098 29.9127C4.02329 29.835 3.8137 29.7794 3.62272 29.715C3.76712 29.5462 4.03732 29.4174 4.24693 29.2686C4.43791 29.1331 4.44247 29.1353 4.95485 29.0309C5.19707 28.9821 5.28091 28.7311 5.07596 28.6578C4.82909 28.569 4.56829 28.4868 4.31676 28.4024C4.09783 28.409 3.87429 28.469 3.66468 28.3691C3.50165 28.2936 3.31529 28.2425 3.04513 28.2713C2.58864 28.3202 2.12285 28.3446 1.66171 28.3846C1.50333 28.3979 1.33094 28.3891 1.26107 28.3136C1.21449 28.2603 1.34958 28.187 1.50329 28.1714C1.73619 28.1492 1.94578 28.1226 2.06223 28.0115C2.17403 27.9004 2.37896 27.8671 2.62117 27.8516C2.68639 27.8471 2.76097 27.8205 2.79358 27.7938C2.96126 27.665 3.1476 27.554 3.50627 27.5584C3.65532 27.514 3.73446 27.4584 3.68788 27.4051C3.65993 27.3763 3.56216 27.3385 3.50627 27.343C3.11965 27.3652 2.73305 27.3874 2.35575 27.4274C2.17874 27.4451 2.04359 27.4496 1.93179 27.3829C1.85261 27.3385 1.89453 27.2785 2.04358 27.2141C2.17401 27.1586 2.21131 27.0942 2.202 27.0187C2.17871 26.8432 2.03894 26.7921 1.59177 26.8032C1.27036 26.8121 1.19117 26.7833 1.1213 26.6322C1.10267 26.5967 1.05617 26.5478 1.08878 26.5234C1.28907 26.3724 1.41951 26.1858 1.79681 26.1147C1.94586 26.0881 2.10417 26.0881 2.19733 26.0303C2.29049 25.9726 2.37438 25.9059 2.4722 25.8504C2.59331 25.7838 2.67707 25.7216 2.62117 25.6794C2.52801 25.6039 2.37901 25.5972 2.20666 25.6239C2.0576 25.6461 1.89923 25.6483 1.74552 25.6616C1.4707 25.6861 1.24716 25.6283 1.21455 25.5306C1.12605 25.273 1.03286 25.0175 0.953678 24.7599C0.944362 24.7288 0.967588 24.6888 1.00485 24.6622C1.13528 24.5689 1.27507 24.48 1.41016 24.389C1.56853 24.2846 1.8201 24.3046 2.03437 24.2846C2.33714 24.2557 2.33704 24.2579 2.74229 24.0447C2.90066 23.9603 3.1755 23.9936 3.33853 23.9181C3.38977 23.8937 3.46895 23.8537 3.45498 23.8315C3.43635 23.8026 3.34324 23.7804 3.27337 23.7671C3.20815 23.7538 3.12898 23.7471 3.05911 23.7538C2.21135 23.8182 1.36827 23.887 0.520513 23.9492C0.376114 23.9603 0.217737 23.9115 0.166499 23.8426C0.115261 23.7782 0.129189 23.7005 0.119873 23.6272C0.254956 23.5361 0.408611 23.4517 0.525062 23.354C0.613565 23.2785 0.716059 23.2451 0.893064 23.2407C1.12597 23.234 1.35423 23.2074 1.61508 23.1874C2.09952 22.8631 2.5746 22.5233 3.0963 22.1991C3.30591 22.068 3.25476 21.9347 3.29668 21.7948C3.3386 21.666 3.65067 21.686 3.86028 21.6482C4.02797 21.6171 4.08379 21.5461 4.01858 21.4972C3.98132 21.4683 3.89752 21.435 3.83231 21.435C3.67859 21.435 3.52488 21.455 3.37117 21.4661C3.21745 21.4772 3.04045 21.4706 2.91469 21.5083C2.79358 21.5438 2.71435 21.6193 2.63516 21.6838C2.54666 21.7548 2.43029 21.7793 2.25328 21.7837C2.02504 21.7882 1.79681 21.8081 1.56857 21.8237C1.31704 21.7371 1.05613 21.6527 0.813914 21.5616C0.767334 21.5438 0.757968 21.4928 0.762626 21.4595C0.771942 21.3728 0.70209 21.3195 0.548375 21.2773C0.41795 21.2418 0.310807 21.1907 0.189698 21.1463C0.282858 21.0863 0.385371 21.0286 0.4599 20.9641C0.622931 20.8287 0.827907 20.731 1.18192 20.7354C1.32166 20.6488 1.43342 20.5422 1.61508 20.4822C1.78743 20.4245 2.0809 20.4822 2.21132 20.3511C2.27653 20.2867 2.37441 20.2134 2.50017 20.1868C2.70047 20.1446 2.96131 20.1668 3.07776 20.0424C3.14763 19.9714 3.25007 19.9069 3.38515 19.8892C3.53887 19.8692 3.6972 19.8648 3.80899 19.8226C3.86955 19.8003 3.93477 19.7648 3.93477 19.7337C3.93477 19.7137 3.84168 19.6826 3.77647 19.6693C3.71591 19.6537 3.63664 19.6426 3.56677 19.6471C3.33386 19.6604 3.10563 19.6848 2.87273 19.6982C2.80751 19.7026 2.73301 19.6871 2.66314 19.6737C2.45818 19.6382 2.47213 19.5938 2.63516 19.5138C2.79819 19.4361 2.91471 19.3361 3.04979 19.2451C3.19885 19.2295 3.38514 19.2362 3.48762 19.194C3.65996 19.1251 3.78104 19.0252 3.92078 18.9386C4.0745 18.9252 4.23286 18.9208 4.37726 18.8964C4.43781 18.8875 4.46578 18.8386 4.51702 18.8098C4.61018 18.7542 4.68943 18.6743 4.8152 18.6476C5.02015 18.6076 5.27168 18.6232 5.39279 18.501C5.46266 18.43 5.56975 18.3545 5.70018 18.35C6.0635 18.3411 6.21722 18.219 6.40354 18.1035C6.54329 18.0168 6.84141 18.0613 6.99512 17.9746C7.0976 17.9191 7.17217 17.8503 7.27465 17.797C7.31657 17.7747 7.40504 17.7637 7.47491 17.757C7.85687 17.7237 8.24347 17.6992 8.62543 17.6637C8.68599 17.657 8.74193 17.6237 8.78851 17.5971C8.88633 17.5393 8.94681 17.4594 9.06792 17.4216C9.18903 17.3839 9.36135 17.3839 9.51041 17.3728C9.99019 17.3394 10.0275 17.3483 10.2464 17.1595C10.4234 17.0063 10.8567 17.1151 11.0011 16.9463C11.0849 16.8486 11.2386 16.7686 11.5134 16.7575C11.9 16.742 12.2819 16.6998 12.6686 16.6709C13.0133 16.6442 13.0086 16.6442 13.3813 16.4377C13.5489 16.3444 13.7959 16.3577 14.0148 16.34C14.2477 16.3222 14.4619 16.2956 14.5737 16.1845C14.6855 16.0757 14.8905 16.0401 15.128 16.0246C15.3469 16.009 15.5939 16.0201 15.7662 15.9313C16.1854 15.7181 16.1808 15.7159 16.4742 15.6936C16.9354 15.6581 17.3965 15.6226 17.8577 15.5848C18.1651 15.5604 18.4865 15.5559 18.7753 15.5071C18.9849 15.4715 19.078 15.3472 19.2131 15.2606C19.5951 15.2272 19.977 15.1939 20.359 15.1628C20.8946 15.1184 21.435 15.0784 21.9753 15.0362C22.2082 14.9518 22.2409 14.7653 22.6321 14.7564C22.865 14.7519 23.0933 14.7231 23.3262 14.7053C23.7128 14.6742 24.0948 14.6342 24.4814 14.6187C24.7748 14.6076 24.826 14.4876 24.9797 14.4121C25.0309 14.3855 25.0776 14.3477 25.1381 14.341C25.7437 14.2789 26.3678 14.2655 26.9594 14.1745C27.0199 14.1656 27.0758 14.1189 27.0898 14.0856C27.0991 14.0679 27.0199 14.0346 26.9687 14.019C26.9081 14.0012 26.829 13.9835 26.7638 13.9879C24.84 14.1367 22.9163 14.2878 20.9925 14.4366C20.7223 14.4588 20.7224 14.4565 20.0656 14.7008C20.0097 14.7208 19.9444 14.743 19.8745 14.7497C19.5671 14.7764 19.255 14.7919 18.9522 14.8252C18.7054 14.8519 18.5005 14.8252 18.3235 14.7453C18.1977 14.6875 18.0672 14.6698 17.9088 14.6742C17.7318 14.6809 17.6155 14.7053 17.513 14.7653C17.3779 14.8474 17.308 14.954 17.0239 14.9763C15.715 15.0718 14.406 15.1784 13.1017 15.2805C12.9201 15.2494 12.8316 15.2028 12.8782 15.1473C12.9061 15.114 12.962 15.0695 13.0179 15.0651C13.5536 15.0185 14.0939 14.9785 14.6296 14.9341C14.7041 14.9274 14.8066 14.9318 14.8485 14.9096C15.0534 14.8097 15.1281 14.6475 15.5147 14.6364C15.7383 14.6298 15.9665 14.5965 16.1807 14.5654C16.2413 14.5565 16.2972 14.5098 16.3112 14.4765C16.3158 14.4588 16.2413 14.4254 16.1854 14.4099C15.9804 14.3455 15.7429 14.4232 15.538 14.3788C15.4681 14.3633 15.3702 14.341 15.3563 14.3144C15.3469 14.29 15.4261 14.25 15.482 14.2255C15.5333 14.2033 15.6031 14.1834 15.673 14.1767C16.2878 14.1256 16.9028 14.0723 17.5176 14.0323C17.7692 14.0168 17.9461 13.9612 18.0579 13.8591C18.1418 13.7836 18.2442 13.7436 18.4026 13.7325C19.4786 13.6503 20.5546 13.5592 21.6353 13.4837C21.9054 13.466 22.0452 13.3927 22.157 13.2972C22.2455 13.2217 22.348 13.195 22.5204 13.1817C24.0622 13.0662 25.5946 12.9374 27.1364 12.8263C27.4206 12.8063 27.5044 12.7108 27.6488 12.6286C27.7001 12.5998 27.7326 12.5642 27.7978 12.5465C27.863 12.5287 27.9469 12.5309 28.0261 12.5265C29.2558 12.4309 30.4856 12.3288 31.72 12.24C32.0088 12.22 32.0646 12.1089 32.2136 12.0312C32.2649 12.0067 32.3115 11.9668 32.372 11.9601C33.2943 11.8846 34.2166 11.8135 35.1389 11.7402C35.7537 11.6914 36.3686 11.6425 36.9834 11.5959C37.2862 11.5736 37.2862 11.5714 37.6961 11.3604C37.7427 11.336 37.808 11.3071 37.8685 11.3004C39.6386 11.1583 41.4039 11.0228 43.174 10.8829C43.323 10.8718 43.4301 10.8207 43.5047 10.7452C43.5792 10.6697 43.6864 10.6186 43.8308 10.6075C45.2143 10.4964 46.5977 10.3876 47.9857 10.2832C48.2373 10.2654 48.4142 10.2121 48.526 10.1122C48.6099 10.0367 48.7124 9.99671 48.8707 9.9856C50.2542 9.87899 51.6377 9.76571 53.0258 9.66354C53.2913 9.64355 53.4216 9.56804 53.5521 9.4792C53.5986 9.44811 53.6359 9.39702 53.6918 9.39258C54.3812 9.33039 55.0659 9.26598 55.76 9.22378C56.0488 9.20601 56.1466 9.11272 56.2631 9.02388C56.3562 8.95281 56.4634 8.92838 56.6404 8.9195C57.027 8.89951 57.4089 8.86177 57.7862 8.82401C57.8421 8.81735 57.912 8.76848 57.9167 8.73738C57.926 8.67964 57.8188 8.63965 57.6418 8.61966C55.7972 8.76403 53.9481 8.90839 52.1035 9.05275C51.8007 9.07719 51.8007 9.0772 51.3908 9.2882C51.3442 9.31263 51.2789 9.34151 51.2137 9.34817C49.4437 9.48809 47.6783 9.6258 45.9083 9.76572C45.7592 9.77683 45.6521 9.82791 45.5776 9.90343C45.5031 9.97894 45.3958 10.03 45.2514 10.0411C43.5606 10.1744 41.8697 10.3099 40.1742 10.4365C39.9227 10.4542 39.7457 10.5053 39.6339 10.6075C39.5501 10.683 39.4476 10.723 39.2892 10.7341C37.6729 10.8585 36.0612 10.9895 34.4402 11.1094C34.2771 11.1205 34.1561 11.0561 34.1654 10.9962C34.1701 10.9651 34.2398 10.914 34.2957 10.9096C35.1388 10.8363 35.9774 10.7607 36.8251 10.7052C37.1093 10.6874 37.1931 10.5897 37.3374 10.5075C37.384 10.4787 37.4213 10.4409 37.4819 10.4254C37.5471 10.4076 37.6309 10.4098 37.7101 10.4054C39.7084 10.2477 41.7068 10.0878 43.7097 9.93897C43.9985 9.91676 44.0543 9.80792 44.2034 9.73018C44.2546 9.70353 44.3012 9.66356 44.3618 9.65912C44.9766 9.60581 45.5915 9.55916 46.2063 9.51252C47.2824 9.42812 48.3583 9.34372 49.439 9.25932C49.7511 9.23489 49.7511 9.23488 50.1517 9.0261C50.1983 9.00167 50.2635 8.9706 50.3241 8.96616C53.1701 8.74183 56.0162 8.5175 58.8623 8.2954C59.0113 8.2843 59.1185 8.23321 59.193 8.1577C59.2675 8.0844 59.3746 8.0311 59.519 8.01777C63.3665 7.71571 67.2094 7.41364 71.057 7.11602C71.3085 7.09603 71.4855 7.04939 71.5972 6.945C71.6764 6.86948 71.7836 6.82951 71.9419 6.81619C76.1714 6.48525 80.4009 6.15432 84.6351 5.82117C87.4811 5.59907 90.3272 5.37252 93.1732 5.15486C93.4341 5.13487 93.5738 5.06601 93.7042 4.97494C93.7461 4.94385 93.7881 4.89276 93.844 4.88832C94.4542 4.83279 95.0644 4.78172 95.6746 4.73064C95.8655 4.7906 96.0565 4.84836 96.2475 4.90833C96.3919 4.82393 96.5317 4.7373 96.6761 4.6529C97.5984 4.5885 98.5067 4.48855 99.4383 4.45745C99.4988 4.45523 99.564 4.49744 99.6292 4.51965C100.062 4.65957 100.309 4.64847 100.584 4.4619C100.682 4.39527 100.766 4.3353 100.915 4.3242C101.376 4.28422 101.842 4.25756 102.298 4.21092C102.545 4.18649 102.75 4.2087 102.927 4.28865C103.053 4.3464 103.183 4.37084 103.337 4.35752C104.185 4.29089 105.028 4.22647 105.876 4.1554C105.936 4.15095 105.992 4.11318 106.039 4.08653C106.136 4.02878 106.22 3.96661 106.314 3.90664C106.439 3.9444 106.579 3.97328 106.682 4.02214C106.812 4.07989 106.933 4.07987 107.11 4.06433C110.492 3.79558 113.878 3.5335 117.26 3.26254C117.549 3.24033 117.674 3.33362 117.87 3.38248C117.935 3.40025 118.001 3.42245 118.07 3.42689C118.145 3.43133 118.224 3.41802 118.299 3.41136C120.837 3.21146 123.376 3.01378 125.915 2.81388C126.25 2.78723 126.25 2.78723 126.748 2.92494C126.809 2.9427 126.888 2.9627 126.953 2.95603C128.108 2.86941 129.264 2.77614 130.414 2.6873C130.563 2.67619 130.689 2.71172 130.824 2.76281C131.09 2.86275 131.108 2.86276 131.304 2.71617C131.397 2.64732 131.495 2.6051 131.648 2.58511C131.816 2.5629 131.951 2.56959 132.082 2.60957C132.268 2.66509 132.403 2.75836 132.687 2.73393C133.917 2.62954 135.151 2.54293 136.376 2.43632C136.656 2.41189 136.805 2.4874 136.991 2.54293C137.057 2.56291 137.117 2.59401 137.187 2.60067C137.257 2.60734 137.341 2.59177 137.415 2.58511C138.952 2.46518 140.494 2.34748 142.027 2.21866C142.315 2.19423 142.441 2.28972 142.637 2.33858C142.702 2.35635 142.777 2.38746 142.837 2.38302C143.759 2.31417 144.686 2.24085 145.609 2.16756C145.939 2.1409 145.939 2.14313 146.442 2.27861C146.503 2.29638 146.582 2.31415 146.647 2.30971C147.723 2.22753 148.804 2.14313 149.88 2.05873C150.211 2.03208 150.211 2.03208 151.166 2.14758C151.236 2.15646 151.31 2.1698 151.38 2.16536C152.61 2.06986 153.844 1.97656 155.074 1.87439C155.321 1.8544 155.526 1.87217 155.703 1.95212C155.828 2.00987 155.959 2.03431 156.112 2.02099C157.496 1.91216 158.884 1.80777 160.263 1.69228C160.528 1.67007 160.701 1.71891 160.887 1.78332C160.947 1.80553 161.008 1.83663 161.078 1.84552C161.148 1.8544 161.227 1.84551 161.302 1.83885C162.685 1.73002 164.073 1.62785 165.452 1.51014C165.731 1.48571 165.88 1.56122 166.067 1.61675C166.132 1.63673 166.202 1.67672 166.258 1.67449C166.798 1.63674 167.338 1.60343 167.874 1.54791C168.163 1.51681 168.289 1.61896 168.484 1.66782C168.549 1.68337 168.624 1.7167 168.684 1.71226C169.84 1.62564 170.995 1.53459 172.145 1.4413C172.308 1.42798 172.43 1.44795 172.56 1.50569C172.732 1.58343 172.933 1.61453 173.184 1.59009C173.72 1.53901 174.26 1.50348 174.8 1.46128C175.117 1.43685 175.117 1.43686 176.086 1.55235C176.156 1.56124 176.23 1.57455 176.3 1.57011C177.223 1.49904 178.15 1.43019 179.067 1.35246C179.314 1.33025 179.519 1.35023 179.696 1.43019C179.822 1.48793 179.948 1.51238 180.106 1.49905C180.954 1.43242 181.797 1.36578 182.645 1.29915C182.952 1.27472 183.259 1.23251 183.567 1.23251C183.79 1.23473 183.954 1.34134 184.154 1.39464C184.21 1.41019 184.303 1.39244 184.377 1.388C185.453 1.3036 186.534 1.22586 187.605 1.13035C187.885 1.10592 188.034 1.18143 188.22 1.23696C188.285 1.25695 188.355 1.29693 188.411 1.29471C188.798 1.27028 189.18 1.23696 189.566 1.20808C190.028 1.17255 190.493 1.14589 190.95 1.09703C191.322 1.05705 191.462 1.25028 191.76 1.25694C191.989 1.2636 192.221 1.22585 192.45 1.20808C192.911 1.17255 193.372 1.13257 193.833 1.10148C193.996 1.09037 194.122 1.05482 194.173 0.974864C194.183 0.959317 194.103 0.926015 194.052 0.906026C193.433 0.679481 193.433 0.67947 192.808 0.728333C192.422 0.759427 192.04 0.790527 191.653 0.81718C191.588 0.821622 191.513 0.803854 191.448 0.790528C191.262 0.752771 191.281 0.708354 191.439 0.628397C191.597 0.54844 191.718 0.450723 191.853 0.359661C192.044 0.417408 192.231 0.475134 192.422 0.532881C192.576 0.521776 192.729 0.508469 192.883 0.497364C193.652 0.439617 194.42 0.379645 195.189 0.32634C195.245 0.321898 195.314 0.366325 195.38 0.388536C195.566 0.452946 195.734 0.508456 196.004 0.484025C196.693 0.419615 197.387 0.372973 198.077 0.317447C198.379 0.293016 198.379 0.293018 198.91 0.430722C198.971 0.446269 199.05 0.464039 199.115 0.459597C199.809 0.408513 200.499 0.352994 201.193 0.299689C201.342 0.288584 201.486 0.317456 201.593 0.381866C201.635 0.408518 201.626 0.45293 201.803 0.81718C202.353 1.11258 202.73 1.0815 203.112 1.05485C203.275 1.04374 203.419 1.03262 203.526 0.988203C203.582 0.963772 203.652 0.92823 203.652 0.899357C203.652 0.877146 203.55 0.841603 203.485 0.837161C203.023 0.792741 202.586 0.886037 202.134 0.906026C201.924 0.91491 201.743 0.837173 201.705 0.710574C201.696 0.675038 201.682 0.637282 201.668 0.601746C201.654 0.566209 201.645 0.528454 201.631 0.492918C201.449 0.481812 201.342 0.521784 201.263 0.5973C201.198 0.659488 201.104 0.730561 200.979 0.763877C200.853 0.799413 200.68 0.792762 200.527 0.803867C200.378 0.814973 200.215 0.843843 200.075 0.828295C199.935 0.810527 199.823 0.746106 199.693 0.706128C199.632 0.686139 199.558 0.657276 199.497 0.661718C198.962 0.699476 198.431 0.737219 197.9 0.786082C197.62 0.812734 197.48 0.719465 197.303 0.661718C197.164 0.617298 197.024 0.628389 197.001 0.730556C196.94 0.974869 197.154 1.07703 197.629 1.03039C198.021 0.990411 198.375 0.983769 198.682 1.1348C198.724 1.15479 198.822 1.16367 198.882 1.15923C199.264 1.13257 199.642 1.09926 200.024 1.0726C200.094 1.06816 200.168 1.07703 200.233 1.08592C201.184 1.20585 201.184 1.20808 201.505 1.18143C201.659 1.16811 201.808 1.157 201.794 0.819403C202.087 0.457375 202.553 0.432948 203.005 0.379643C203.298 0.346327 203.424 0.444057 203.615 0.495141C203.68 0.512909 203.75 0.548439 203.811 0.543997C204.812 0.470703 205.809 0.392956 206.806 0.310778C206.973 0.297452 207.095 0.31078 207.225 0.368527C207.393 0.441821 207.579 0.488472 207.844 0.46182C208.376 0.408515 208.916 0.375207 209.456 0.330787C209.731 0.308576 209.731 0.308554 210.285 0.446258C210.346 0.461805 210.425 0.479574 210.49 0.475132C211.031 0.437374 211.566 0.390747 212.102 0.350768C212.251 0.339663 212.386 0.370754 212.503 0.430722C212.619 0.49069 212.759 0.521781 212.903 0.510676C213.443 0.470698 213.979 0.426291 214.515 0.386312C214.58 0.38187 214.659 0.397417 214.72 0.412964C215.288 0.550668 215.288 0.550645 215.549 0.528435C215.931 0.495119 216.322 0.479589 216.699 0.435169C217.067 0.390748 217.258 0.519557 217.51 0.59063C218.199 0.539546 218.893 0.497358 219.578 0.435169C219.857 0.408516 220.007 0.481804 220.193 0.539551C220.258 0.55954 220.323 0.601744 220.384 0.599523C220.617 0.590639 220.845 0.566212 221.073 0.548443C221.302 0.530675 221.534 0.512909 221.763 0.495141C222.024 0.559551 222.196 0.710579 222.569 0.659495C222.792 0.628401 223.03 0.621737 223.258 0.603969C223.486 0.586201 223.719 0.568435 223.947 0.550667C224.101 0.539561 224.259 0.532889 224.408 0.512899C224.683 0.479584 224.818 0.588427 225.014 0.63729C225.079 0.652837 225.154 0.679472 225.214 0.67503C225.675 0.643936 226.141 0.617286 226.593 0.566202C226.942 0.526223 227.18 0.592863 227.427 0.686146C227.478 0.706136 227.567 0.71724 227.632 0.712798C228.172 0.67504 228.708 0.628385 229.243 0.588407C229.388 0.577302 229.528 0.612837 229.644 0.670584C229.765 0.730552 229.9 0.759447 230.049 0.748342C230.585 0.708363 231.125 0.663929 231.661 0.623951C231.726 0.619509 231.805 0.63728 231.866 0.655049C232.388 0.792752 232.388 0.794976 232.695 0.768323C232.77 0.76166 232.849 0.757201 232.923 0.750538C233.305 0.719443 233.701 0.708353 234.074 0.655049C234.502 0.595081 234.814 0.670599 235.117 0.797198C235.499 0.770545 235.89 0.754995 236.263 0.710574C236.543 0.677259 236.692 0.761654 236.878 0.81718C236.943 0.837169 237.013 0.877147 237.069 0.872705C237.609 0.834948 238.15 0.801644 238.681 0.746118C238.969 0.715024 239.095 0.814952 239.291 0.866036C239.356 0.883804 239.426 0.914915 239.486 0.910473C239.794 0.892704 240.101 0.866039 240.409 0.841608C240.767 0.812734 240.767 0.814953 241.243 0.950436C241.466 1.01485 241.69 0.96376 241.909 0.948213C242.142 0.930444 242.36 0.917123 242.547 1.00818C242.663 1.06593 242.803 1.10147 242.947 1.09259C243.255 1.0726 243.567 1.05262 243.87 1.0193C244.112 0.992649 244.321 1.01041 244.498 1.09259C244.624 1.15033 244.755 1.17922 244.908 1.1659C245.598 1.11259 246.292 1.05705 246.981 1.00596C247.042 1.00152 247.126 1.02152 247.181 1.04151C247.312 1.08148 247.438 1.1259 247.563 1.17032C247.866 1.15033 248.178 1.14147 248.476 1.11037C248.793 1.07928 249.082 1.06817 249.329 1.19032C249.38 1.21698 249.455 1.25471 249.515 1.25249C249.748 1.24361 249.976 1.22141 250.205 1.20364C250.433 1.18587 250.666 1.1681 250.894 1.15033C251.159 1.20586 251.327 1.36577 251.7 1.31469C251.923 1.28359 252.161 1.27693 252.389 1.25916C252.617 1.24139 252.85 1.22141 253.079 1.20586C253.153 1.20142 253.237 1.19031 253.302 1.19919C253.372 1.20807 253.433 1.23918 253.493 1.26139C253.679 1.3258 253.852 1.39021 254.117 1.35246C254.341 1.32136 254.578 1.3147 254.807 1.29471C255.119 1.27028 255.119 1.27028 255.636 1.4102C255.845 1.46795 256.083 1.39244 256.283 1.4413C256.418 1.47462 256.535 1.53013 256.665 1.56789C256.721 1.58344 256.81 1.59009 256.875 1.58565C257.182 1.56566 257.494 1.54568 257.797 1.51236C258.044 1.48571 258.249 1.51236 258.421 1.59232C258.547 1.65006 258.673 1.67451 258.831 1.66118C259.6 1.59899 260.368 1.54567 261.132 1.47682C261.393 1.45239 261.603 1.49016 261.747 1.57011C261.994 1.70782 262.343 1.54568 262.6 1.65674C262.758 1.72559 262.916 1.80555 263.205 1.77223C263.736 1.71449 264.276 1.68338 264.812 1.6434C265.003 1.70336 265.194 1.76335 265.39 1.82331C265.697 1.79888 266.005 1.77444 266.312 1.75223C266.54 1.73446 266.773 1.71447 267.001 1.69892C267.076 1.69448 267.155 1.68559 267.225 1.6967C267.295 1.7078 267.351 1.73668 267.416 1.75889C267.737 1.86773 267.737 1.86996 268.268 1.82554C268.497 1.80555 268.716 1.79222 268.907 1.88106C269.084 1.96324 269.293 1.97878 269.535 1.95435C269.992 1.90993 270.453 1.87661 270.919 1.84552C271.063 1.83441 271.198 1.87217 271.319 1.92992C271.501 2.02098 271.725 2.0121 271.953 1.98767C272.256 1.95657 272.554 1.92549 272.81 2.04986C272.861 2.07652 272.94 2.11425 272.996 2.11203C273.378 2.09426 273.765 2.08095 274.138 2.03875C274.51 1.99655 274.692 2.13425 274.948 2.20088C275.33 2.172 275.717 2.14313 276.099 2.11425C276.173 2.10759 276.262 2.08761 276.327 2.09872C276.602 2.14536 276.76 2.31193 277.137 2.26085C277.356 2.23198 277.594 2.2231 277.822 2.21644C277.883 2.21422 277.962 2.25196 278.004 2.28083C278.027 2.29638 278.004 2.33858 277.976 2.36079C277.892 2.42297 277.789 2.48074 277.715 2.54515C277.706 2.55403 277.794 2.59399 277.845 2.61176C277.971 2.65174 278.115 2.64509 278.283 2.62733C278.428 2.61178 278.577 2.64287 278.679 2.7095C278.721 2.73616 278.707 2.78057 278.618 2.92716C278.618 3.03599 278.716 2.98712 278.749 2.91604C278.8 2.81388 278.702 2.78056 278.516 2.83609C278.386 2.87607 278.32 2.93382 278.353 2.98046C278.372 3.00489 278.46 3.03599 278.618 2.92716C279.028 2.7939 279.336 2.76948 279.643 2.74505C279.723 2.73838 279.816 2.71616 279.872 2.72948C280.072 2.78279 280.258 2.84721 280.454 2.90718C280.677 2.89385 280.887 2.86052 281.106 2.94714C281.413 3.0693 281.427 3.0582 281.725 3.03376C281.879 3.02044 282.033 3.00935 282.187 2.99825C282.34 2.98714 282.461 3.02045 282.596 3.07153C282.871 3.17592 282.895 3.17591 283.076 3.03376C283.183 2.94714 283.258 2.91828 283.393 2.95826C283.84 3.09374 283.845 3.10262 284.227 3.06264C284.544 3.02932 284.842 3.02044 285.075 3.14704C285.233 3.23588 285.284 3.21589 285.41 3.12261C285.745 2.87608 285.899 2.88051 286.528 3.05819C286.821 3.14259 287.124 3.05154 287.422 3.04043C287.674 3.03155 287.851 3.08484 287.869 3.22477C287.883 3.31139 287.925 3.37359 288.093 3.40246C288.158 3.41357 288.237 3.42911 288.303 3.42467C288.689 3.39802 289.071 3.36692 289.458 3.33582C289.653 3.32027 289.761 3.21591 289.723 3.0782C289.681 2.93161 289.756 2.87829 290.035 2.83609C290.203 2.81166 290.338 2.81612 290.473 2.8561C290.622 2.90052 290.58 2.9405 290.45 3.02045C290.138 3.2159 290.175 3.33582 290.576 3.4713C290.715 3.51794 290.827 3.56016 290.86 3.62901C290.878 3.66455 290.86 3.71119 290.902 3.73784C291.13 3.88665 291.447 3.98216 291.801 4.05324C292.141 3.99327 292.374 4.0932 292.635 4.17315C292.839 4.23534 293.082 4.18205 293.301 4.15984C293.547 4.13541 293.752 4.15317 293.929 4.23535C294.055 4.2931 294.186 4.31974 294.339 4.30863C294.647 4.2842 294.959 4.26866 295.262 4.23313C295.522 4.20203 295.718 4.24646 295.881 4.32197C296.086 4.41748 296.314 4.35306 296.529 4.36638C296.817 4.38193 296.962 4.5796 297.339 4.52629C297.563 4.4952 297.796 4.4841 298.029 4.47521C298.089 4.47299 298.164 4.51075 298.215 4.53741C298.462 4.65956 298.751 4.6529 299.067 4.61736C299.286 4.59293 299.5 4.57073 299.715 4.65513C300.069 4.79727 300.46 4.92166 300.833 5.0527C300.884 5.15487 300.847 5.27478 301.112 5.33475C301.252 5.36584 301.382 5.4125 301.489 5.46359C301.62 5.52355 301.741 5.53911 301.909 5.52356C302.211 5.49246 302.528 5.48578 302.826 5.4458C303.101 5.41026 303.273 5.48358 303.441 5.55243C303.576 5.60796 303.702 5.6346 303.865 5.59462C304.033 5.55686 304.154 5.58129 304.289 5.64125C304.48 5.72343 304.494 5.71456 305.127 5.73899C305.193 5.74121 305.272 5.77451 305.309 5.80338C305.328 5.81893 305.286 5.86338 305.253 5.88559C305.211 5.91224 305.146 5.94332 305.085 5.94998C304.396 6.00773 303.702 6.05881 303.013 6.11656C302.943 6.12322 302.868 6.13878 302.817 6.16099C302.761 6.18543 302.691 6.21872 302.691 6.24981C302.691 6.27202 302.784 6.29869 302.85 6.31423C303.055 6.36532 303.297 6.28758 303.497 6.34533C303.632 6.38309 303.744 6.43638 303.879 6.47192C303.935 6.48746 304.023 6.48525 304.093 6.48081C304.326 6.46526 304.554 6.44306 304.787 6.42973C304.853 6.42751 304.927 6.44973 304.988 6.4675C305.435 6.60076 305.435 6.60075 305.821 6.57188C305.975 6.56077 306.138 6.52746 306.283 6.54078C306.422 6.55411 306.543 6.61408 306.669 6.65183C306.93 6.73179 307.177 6.80952 307.196 6.98276C307.205 7.0494 307.359 7.10713 307.512 7.11157C307.661 7.11602 307.82 7.09161 307.973 7.07828C308.337 7.05163 308.337 7.05163 308.807 7.18711C308.938 7.22487 309.077 7.2293 309.245 7.20709C309.31 7.19821 309.389 7.2071 309.459 7.21821C309.688 7.25152 309.688 7.29371 309.539 7.37367C309.329 7.49138 309.347 7.50249 309.934 7.60244C310.158 7.6402 310.33 7.71128 310.517 7.77346C310.819 7.87341 310.815 7.87339 310.615 8.00443C310.568 8.03331 310.526 8.06441 310.479 8.0955C310.344 8.18212 310.237 8.2754 309.958 8.28429C309.65 8.29317 309.343 8.32872 309.035 8.35315C308.737 8.37758 308.658 8.43087 308.686 8.5819C308.719 8.76402 308.779 8.78402 309.315 8.78179C309.469 8.78179 309.604 8.79956 309.72 8.85953C309.664 8.9306 309.562 8.98612 309.413 8.99945C309.031 9.03277 308.644 9.06165 308.262 9.09052C307.955 9.11495 307.647 9.13937 307.34 9.16381C307.149 9.17935 307.028 9.29486 307.079 9.42368C307.107 9.49697 307.13 9.57026 307.154 9.64356C307.205 9.79014 307.303 9.82791 307.615 9.82125C307.694 9.81903 307.768 9.80124 307.843 9.80569C308.146 9.82123 308.29 10.0056 308.653 9.96782C308.956 9.93672 309.273 9.93007 309.571 9.89009C309.846 9.85455 310 9.93453 310.191 9.9945C310.256 10.0145 310.326 10.0567 310.382 10.0544C310.768 10.03 311.155 10.0056 311.532 9.9634C311.709 9.94563 311.816 9.95895 311.956 10.0123C312.291 10.1411 312.301 10.1344 312.799 10.0944C313.162 10.0633 313.167 10.0678 313.633 10.2033C313.763 10.241 313.903 10.241 314.071 10.2232C314.29 10.201 314.518 10.1655 314.746 10.1988C314.816 10.2077 314.905 10.2344 314.928 10.2632C314.942 10.2832 314.877 10.3321 314.821 10.3476C314.411 10.4631 313.931 10.4431 313.484 10.4898C313.344 10.5031 313.204 10.4609 313.088 10.4009C312.967 10.341 312.836 10.3165 312.678 10.3277C312.371 10.3521 312.059 10.3676 311.756 10.4032C311.495 10.4343 311.313 10.3832 311.132 10.3143C311.071 10.2921 311.001 10.2499 310.941 10.2521C310.251 10.2965 309.557 10.341 308.872 10.4032C308.598 10.4298 308.439 10.3587 308.253 10.2988C308.188 10.2788 308.123 10.2366 308.062 10.2388C307.829 10.2477 307.601 10.2721 307.368 10.2899C306.52 10.3565 305.677 10.4231 304.829 10.4853C304.773 10.4898 304.703 10.4431 304.638 10.4231C304.513 10.3832 304.382 10.3454 304.252 10.3076C304.019 10.3254 303.79 10.3476 303.558 10.3609C303.39 10.3698 303.241 10.4009 303.218 10.4853C303.204 10.5409 303.357 10.5919 303.52 10.5875C303.679 10.5831 303.837 10.5564 303.968 10.5853C304.615 10.7274 304.615 10.7296 305.02 10.7008C305.374 10.6741 305.337 10.6519 305.649 10.7741C305.784 10.8274 305.905 10.8585 306.059 10.8451C306.441 10.814 306.828 10.7829 307.214 10.7563C307.275 10.7519 307.354 10.7741 307.414 10.7918C307.871 10.9251 307.871 10.9295 308.248 10.8962C308.742 10.8562 308.761 10.8451 309.091 10.9806C309.32 11.0739 309.529 11.0095 309.748 11.005C310 11.0917 310.275 11.1694 310.503 11.2671C310.773 11.3826 311.057 11.3626 311.364 11.3293C311.593 11.3049 311.816 11.296 312.003 11.3871C312.18 11.4715 312.394 11.4804 312.636 11.4581C312.855 11.4382 313.079 11.3959 313.307 11.4448C313.367 11.4581 313.461 11.4915 313.456 11.5115C313.451 11.5425 313.391 11.587 313.33 11.6003C312.902 11.6914 312.431 11.6891 311.979 11.7313C311.919 11.738 311.84 11.7136 311.779 11.6958C311.649 11.6558 311.523 11.6092 311.397 11.567C311.169 11.5803 310.936 11.5847 310.712 11.6114C310.54 11.6314 310.41 11.6292 310.284 11.5759C310.167 11.527 310.042 11.467 309.902 11.4515C309.762 11.4359 309.599 11.4692 309.445 11.4826C309.292 11.4959 309.115 11.4892 308.994 11.5248C308.872 11.5603 308.798 11.638 308.719 11.7002C308.63 11.7691 308.509 11.7913 308.332 11.798C308.169 11.8046 308.039 11.7957 307.918 11.7336C307.866 11.7069 307.796 11.6869 307.727 11.6691C307.661 11.6536 307.587 11.6291 307.526 11.6336C306.832 11.6847 306.143 11.7402 305.449 11.7935C305.104 11.8202 305.109 11.8202 304.391 11.6891C304.326 11.678 304.247 11.6625 304.182 11.6669C303.795 11.6936 303.413 11.7247 303.027 11.7558C302.635 11.7869 302.64 11.7824 301.974 11.6425C301.853 11.6158 301.676 11.6514 301.531 11.6469C301.229 11.6358 301.08 11.4493 300.726 11.4848C300.423 11.5159 300.106 11.5226 299.803 11.5625C299.528 11.5981 299.37 11.5203 299.184 11.4604C299.119 11.4404 299.049 11.396 298.993 11.4004C298.299 11.4493 297.609 11.5048 296.687 11.5115C296.459 11.5115 296.561 11.5581 296.71 11.5736C296.925 11.5981 296.995 11.5514 296.878 11.4626C296.794 11.4004 296.673 11.3693 296.575 11.3848C296.524 11.3937 296.459 11.4359 296.687 11.5115C296.929 11.5958 296.915 11.6425 296.957 11.6691C297.06 11.7335 297.204 11.7602 297.353 11.7513C297.586 11.7358 297.814 11.7136 298.047 11.7002C298.112 11.6958 298.192 11.7113 298.252 11.7291C298.765 11.8668 298.769 11.8757 299.314 11.8224C299.487 11.8069 299.612 11.8069 299.747 11.8491C299.934 11.9068 300.069 12.0045 300.353 11.9734C300.73 11.9312 301.117 11.9068 301.503 11.8824C301.564 11.8779 301.629 11.9179 301.699 11.9357C301.89 11.989 302.03 12.0889 302.314 12.0467C302.533 12.0134 302.77 12.0045 303.003 11.9978C303.064 11.9956 303.157 12.0312 303.185 12.06C303.241 12.1111 303.171 12.1711 303.013 12.2133C302.947 12.2311 302.859 12.2266 302.784 12.2333C302.477 12.2577 302.17 12.2844 301.862 12.3043C301.699 12.3155 301.545 12.3488 301.527 12.431C301.513 12.4865 301.68 12.5353 301.839 12.5309C302.072 12.5242 302.305 12.5065 302.528 12.4776C302.924 12.4287 303.269 12.4421 303.59 12.582C303.818 12.6797 303.804 12.6442 304.047 12.9329C304.107 13.0062 304.289 13.0129 304.447 13.0084C304.829 12.9973 305.006 13.0306 304.974 13.0995C304.932 13.1839 304.797 13.2105 304.624 13.2216C304.317 13.2394 304.009 13.2683 303.702 13.2927C303.627 13.2994 303.544 13.3127 303.474 13.3083C303.404 13.3038 303.339 13.2772 303.278 13.2572C303.148 13.215 303.036 13.1506 302.896 13.135C302.756 13.1195 302.593 13.1528 302.44 13.1661C302.286 13.1772 302.123 13.2105 301.983 13.195C301.843 13.1794 301.727 13.1128 301.601 13.0728C301.541 13.0529 301.466 13.0217 301.406 13.024C301.098 13.0417 300.791 13.0706 300.483 13.0928C300.106 13.1217 300.106 13.1217 299.65 12.984C299.519 12.944 299.384 12.9462 299.212 12.964C298.839 12.9996 298.834 12.9929 298.154 12.8641C298.089 12.8507 298.01 12.8352 297.945 12.8418C297.251 12.8929 296.561 12.9484 295.872 13.0018C295.28 13.0484 295.28 13.0484 294.954 13.2705C294.712 13.4349 294.707 13.4349 294.945 13.5104C295.136 13.5726 295.308 13.6636 295.518 13.6969C295.713 13.728 295.956 13.6281 296.17 13.7303C296.277 13.7813 296.417 13.8369 296.552 13.8458C296.766 13.8569 296.994 13.7924 297.199 13.8902C297.302 13.939 297.456 13.9901 297.586 13.9924C297.814 13.9968 298.047 13.9612 298.275 13.9457C298.345 13.9413 298.424 13.9413 298.49 13.9524C298.56 13.9657 298.62 13.9923 298.681 14.0146C298.867 14.0901 299.067 14.1256 299.31 14.0878C299.705 14.0257 300.059 14.0567 300.367 14.1989C300.409 14.2189 300.511 14.2211 300.576 14.2122C300.744 14.19 300.889 14.1878 301.014 14.23C301.066 14.2478 301.14 14.2788 301.131 14.2988C301.117 14.3321 301.061 14.3766 301 14.3877C300.562 14.4632 300.092 14.4721 299.64 14.5121C299.58 14.5165 299.505 14.4876 299.445 14.4676C299.314 14.4277 299.202 14.361 299.063 14.3455C298.923 14.3299 298.76 14.3588 298.606 14.3699C298.452 14.381 298.289 14.4143 298.15 14.401C298.01 14.3855 297.879 14.3299 297.768 14.2811C297.637 14.2255 297.512 14.2189 297.339 14.2411C297.116 14.27 296.883 14.2744 296.654 14.29C296.529 14.2478 296.403 14.2011 296.272 14.1611C296.212 14.1411 296.137 14.1167 296.072 14.1189C295.765 14.1367 295.457 14.1633 295.15 14.1878C294.842 14.2122 294.842 14.2122 294.321 14.0745C294.26 14.059 294.181 14.0412 294.116 14.0457C293.729 14.0723 293.347 14.1056 292.961 14.1323C292.812 14.1434 292.676 14.1123 292.555 14.0523C292.439 13.9923 292.299 13.959 292.155 13.9701C291.54 14.0168 290.925 14.0612 290.31 14.1167C290.063 14.1389 289.854 14.1189 289.686 14.039C289.49 13.9479 289.271 13.9701 289.043 13.9879C288.526 14.0323 288.521 14.0301 288.191 13.9168C288.126 13.8946 288.06 13.8524 288 13.8546C287.464 13.8879 286.924 13.919 286.393 13.9723C286.113 14.0012 285.964 13.9235 285.778 13.8657C285.713 13.8457 285.643 13.8035 285.587 13.808C285.2 13.8324 284.814 13.8546 284.436 13.8991C284.059 13.9435 283.915 13.7369 283.631 13.7392C283.244 13.7414 282.862 13.7925 282.48 13.8236C282.173 13.848 281.865 13.8724 281.558 13.8968C281.25 13.9213 280.943 13.9412 280.635 13.9701C280.472 13.9857 280.351 13.9657 280.216 13.9101C280.044 13.8369 279.839 13.7791 279.653 13.7125C279.369 13.617 279.368 13.617 279.024 13.6436C278.949 13.6503 278.87 13.6547 278.796 13.6614C278.232 13.7103 278.232 13.7058 277.515 13.5659C277.482 13.5592 277.398 13.5837 277.366 13.6014C277.268 13.6592 277.179 13.7214 277.091 13.7813C276.965 13.7458 276.811 13.7258 276.727 13.6747C276.49 13.5304 276.117 13.728 275.875 13.5859C275.786 13.5326 275.633 13.4859 275.493 13.4726C275.349 13.4593 275.186 13.4904 275.036 13.5037C274.65 13.537 274.65 13.5348 274.319 13.7325C274.151 13.8302 273.909 13.8124 273.69 13.8346C273.462 13.8591 273.243 13.8724 273.052 13.7813C272.88 13.6992 272.67 13.6792 272.423 13.7058C272.121 13.7391 271.809 13.7591 271.501 13.7791C271.436 13.7836 271.357 13.7725 271.291 13.7591C270.579 13.6281 270.579 13.6259 270.234 13.6548C270.08 13.6681 269.922 13.6725 269.773 13.6925C269.521 13.728 269.33 13.6814 269.149 13.6103C269.088 13.5881 269.018 13.5459 268.958 13.5481C268.65 13.5593 268.348 13.5792 268.045 13.5992C267.812 13.6148 267.579 13.6237 267.355 13.6548C266.983 13.7058 266.801 13.5614 266.545 13.4948C266.163 13.5237 265.776 13.5437 265.394 13.5837C265.217 13.6014 265.101 13.5948 264.966 13.5415C264.794 13.4748 264.635 13.3993 264.356 13.4326C263.983 13.4771 263.592 13.4926 263.21 13.5193C262.954 13.4504 262.767 13.3105 262.399 13.3616C262.176 13.3927 261.938 13.3993 261.71 13.4171C261.403 13.4415 261.095 13.4637 260.788 13.4904C260.457 13.517 260.462 13.5104 259.954 13.3793C259.66 13.3016 259.358 13.3882 259.059 13.4016C258.827 13.4127 258.71 13.5148 258.766 13.6459C258.822 13.7769 258.696 13.8791 258.482 13.8968C257.946 13.939 257.406 13.9834 256.87 14.0212C256.805 14.0256 256.726 14.0101 256.665 13.9945C256.092 13.8546 256.092 13.8569 255.836 13.8769C255.454 13.9102 255.063 13.9279 254.686 13.9701C254.425 13.999 254.234 13.9524 254.066 13.8769C253.936 13.8191 253.815 13.8058 253.647 13.8191C251.802 13.9679 249.958 14.1056 248.118 14.2589C247.843 14.2811 247.685 14.2167 247.498 14.1567C247.433 14.1367 247.372 14.0945 247.307 14.0945C247.154 14.0945 247 14.1145 246.846 14.1278C246.157 14.1811 245.467 14.2455 244.773 14.2855C244.48 14.3033 244.401 14.4055 244.275 14.4899C244.177 14.5543 244.065 14.5809 243.893 14.5898C243.725 14.5987 243.604 14.5876 243.474 14.5298C243.306 14.4543 243.115 14.4077 242.854 14.4388C242.551 14.4743 242.244 14.4899 241.932 14.5143C241.774 14.5254 241.652 14.5654 241.601 14.6453C241.592 14.6586 241.69 14.692 241.746 14.712C241.932 14.7786 242.109 14.8563 242.319 14.903C242.533 14.9496 242.766 14.8963 242.989 14.883C243.068 14.8785 243.143 14.8652 243.217 14.8674C243.287 14.8696 243.371 14.8808 243.423 14.9007C243.665 15.0007 243.921 15.0695 244.256 15.0096C244.545 15.0384 244.694 15.2228 245.062 15.1739C245.286 15.1451 245.519 15.1317 245.752 15.1206C245.812 15.1184 245.877 15.1584 245.942 15.1784C246.129 15.2339 246.278 15.3227 246.557 15.285C246.855 15.245 247.172 15.2383 247.475 15.2072C247.643 15.1895 247.764 15.205 247.894 15.2628C248.062 15.3361 248.253 15.3916 248.514 15.356C248.737 15.3249 248.975 15.3183 249.203 15.2983C249.501 15.2739 249.501 15.2761 250.032 15.4138C250.093 15.4293 250.172 15.4471 250.237 15.4427C250.624 15.416 251.006 15.3827 251.392 15.356C251.541 15.3449 251.686 15.3738 251.788 15.4382C251.83 15.4649 251.816 15.5093 251.83 15.5471C251.062 15.607 250.293 15.6581 249.529 15.7314C249.24 15.7603 249.11 15.6692 248.919 15.6181C248.854 15.6004 248.784 15.5626 248.723 15.5671C248.183 15.6048 247.647 15.6448 247.112 15.6936C246.944 15.7092 246.818 15.7003 246.692 15.6359C246.371 15.4649 245.98 15.5582 245.616 15.5826C245.337 15.6004 245.248 15.6692 245.281 15.8158C245.323 15.989 245.491 16.0424 245.919 16.0113C246.073 16.0002 246.227 15.9846 246.38 15.9757C246.529 15.9668 246.665 15.9957 246.786 16.0557C246.902 16.1156 247.042 16.1467 247.186 16.1378C247.494 16.1179 247.806 16.0979 248.104 16.0646C248.351 16.0379 248.556 16.0601 248.728 16.1423C248.919 16.2334 249.143 16.2134 249.366 16.1934C249.888 16.149 249.892 16.1512 250.219 16.2622C250.284 16.2844 250.349 16.3267 250.41 16.3244C250.945 16.2911 251.486 16.2622 252.012 16.2089C252.287 16.1823 252.445 16.2533 252.627 16.3111C252.692 16.3311 252.757 16.3755 252.818 16.3711C253.204 16.3466 253.591 16.3222 253.968 16.28C254.145 16.26 254.252 16.2733 254.397 16.3266C254.741 16.4577 254.751 16.4532 255.24 16.411C255.389 16.3977 255.552 16.3733 255.692 16.391C255.831 16.4088 255.943 16.4732 256.074 16.5132C256.134 16.531 256.209 16.5554 256.274 16.551C256.581 16.5332 256.889 16.5065 257.196 16.4821C257.485 16.4577 257.485 16.4599 258.025 16.5976C258.244 16.6554 258.473 16.6065 258.692 16.5887C258.929 16.5687 259.143 16.5687 259.325 16.6554C259.507 16.742 259.726 16.7375 259.959 16.7198C260.177 16.702 260.401 16.6531 260.625 16.7131C261.137 16.8508 261.137 16.853 261.454 16.8264C261.915 16.7886 262.371 16.7531 262.837 16.7198C262.898 16.7153 262.977 16.742 263.037 16.7597C263.168 16.7997 263.28 16.8663 263.419 16.8819C263.559 16.8997 263.722 16.873 263.871 16.8597C264.351 16.8175 264.384 16.8019 264.705 16.9485C264.975 17.0685 265.311 16.8952 265.562 17.0329C265.707 17.1107 265.902 17.1728 266.172 17.1351C266.396 17.104 266.629 17.0951 266.862 17.0773C267.23 17.0485 267.23 17.0507 267.695 17.184C267.756 17.2017 267.835 17.2239 267.896 17.2195C268.203 17.2017 268.515 17.1862 268.813 17.1462C269.163 17.0996 269.386 17.184 269.647 17.2661C269.852 17.3306 270.094 17.2772 270.313 17.255C270.551 17.2328 270.765 17.2395 270.942 17.3261C271.128 17.4149 271.347 17.4038 271.58 17.3861C271.799 17.3705 272.023 17.3194 272.246 17.3816C272.726 17.5193 272.726 17.5193 273.076 17.4927C273.383 17.4682 273.69 17.4416 273.998 17.4238C274.058 17.4194 274.133 17.4483 274.193 17.4682C274.324 17.5082 274.436 17.5749 274.575 17.5904C274.715 17.606 274.878 17.5771 275.032 17.566C275.186 17.5549 275.349 17.5216 275.488 17.5349C275.628 17.5482 275.759 17.6037 275.87 17.6526C276.001 17.7104 276.122 17.717 276.299 17.6948C276.522 17.6659 276.755 17.6593 276.984 17.6437C277.109 17.6859 277.24 17.7281 277.361 17.7747C277.487 17.8236 277.622 17.8192 277.794 17.8036C278.367 17.7503 278.372 17.757 278.851 17.8947C279.07 17.9569 279.299 17.9058 279.518 17.8902C279.75 17.8725 279.969 17.8636 280.151 17.9524C280.328 18.0368 280.547 18.0479 280.78 18.0213C280.929 18.0035 281.087 17.9924 281.241 17.9858C281.311 17.9835 281.395 17.9924 281.446 18.0102C281.693 18.1035 281.935 18.1879 282.275 18.1279C282.573 18.1457 282.722 18.3278 283.081 18.2923C283.384 18.2612 283.7 18.2545 283.999 18.2145C284.273 18.179 284.469 18.2412 284.609 18.3189C284.86 18.4566 285.214 18.2701 285.466 18.4055C285.61 18.4833 285.797 18.5455 286.076 18.5121C286.383 18.4766 286.481 18.5232 286.57 18.6632C286.621 18.7431 286.612 18.8075 286.519 18.8697C286.425 18.9341 286.323 18.923 286.174 18.8497C286.002 18.7676 285.797 18.752 285.55 18.7698C285.307 18.7875 285.158 18.6721 284.958 18.6276C284.758 18.581 284.52 18.6587 284.311 18.5988C283.817 18.4588 283.817 18.4588 283.482 18.4855C283.253 18.5033 283.016 18.5121 282.792 18.5432C282.527 18.581 282.354 18.5121 282.173 18.4499C282.107 18.4277 282.042 18.3855 281.986 18.3878C281.451 18.4211 280.91 18.4522 280.379 18.5077C280.1 18.5366 279.951 18.4566 279.764 18.4011C279.699 18.3811 279.629 18.3411 279.573 18.3456C279.112 18.3767 278.656 18.4166 278.195 18.4544C278.106 18.5144 278.008 18.5721 277.924 18.6365C277.836 18.7031 277.715 18.732 277.538 18.7298C277.244 18.7298 276.956 18.8231 276.662 18.7054C276.359 18.5854 276.336 18.5921 276.043 18.621C275.67 18.6587 275.274 18.6499 274.925 18.7365C274.864 18.752 274.799 18.7942 274.799 18.8253C274.794 18.8453 274.892 18.8742 274.953 18.8919C275.158 18.9452 275.395 18.8675 275.6 18.923C275.735 18.9586 275.847 19.0119 275.982 19.0496C276.038 19.0652 276.122 19.063 276.196 19.0607C276.276 19.0585 276.35 19.043 276.425 19.0452C276.494 19.0474 276.569 19.0607 276.625 19.0807C276.881 19.1651 277.151 19.2429 277.379 19.3428C277.603 19.4405 277.813 19.3739 278.036 19.3695C278.931 19.5249 278.931 19.5272 279.532 19.4783C279.681 19.4672 279.834 19.4539 279.988 19.4561C280.053 19.4561 280.114 19.496 280.179 19.5183C280.365 19.5849 280.542 19.6449 280.803 19.6093C281.027 19.5782 281.264 19.5716 281.493 19.5516C281.8 19.5271 281.8 19.5271 282.322 19.6671C282.452 19.7026 282.592 19.6982 282.76 19.6804C282.904 19.6649 283.053 19.6982 283.155 19.7626C283.197 19.7892 283.183 19.8337 283.197 19.8714C282.736 19.907 282.27 19.9314 281.823 19.9847C281.534 20.018 281.404 19.9225 281.213 19.8714C281.148 19.8536 281.078 19.8159 281.017 19.8203C280.561 19.8537 280.104 19.8914 279.648 19.9358C279.592 19.9402 279.522 19.9913 279.518 20.0224C279.508 20.0802 279.625 20.1357 279.792 20.1335C280.016 20.1313 280.235 20.0935 280.435 20.1846C280.603 20.2645 280.812 20.3001 281.059 20.2645C281.208 20.2446 281.367 20.2445 281.516 20.2268C281.912 20.1735 282.27 20.1846 282.568 20.3356C282.797 20.3756 283.02 20.3378 283.239 20.3178C283.402 20.3023 283.561 20.2867 283.677 20.3289C283.924 20.4178 284.166 20.5066 284.506 20.4467C284.874 20.5088 285.154 20.6399 285.461 20.7465C285.606 20.7976 285.717 20.8265 285.885 20.7931C285.955 20.7798 286.039 20.7798 286.113 20.7731C286.267 20.762 286.43 20.7287 286.57 20.742C286.71 20.7576 286.826 20.822 286.952 20.862C287.012 20.882 287.082 20.9153 287.143 20.9131C287.376 20.902 287.604 20.8798 287.832 20.862C288.06 20.8464 288.289 20.8309 288.517 20.8154C288.708 20.8731 288.903 20.9309 289.094 20.9886C289.402 20.9642 289.709 20.9397 290.012 20.9175C290.352 20.8909 290.352 20.8931 290.841 21.0308C291.06 21.093 291.293 21.053 291.503 21.0241C291.852 20.9775 292.085 21.0619 292.332 21.1507C292.383 21.1685 292.476 21.1796 292.537 21.1707C292.779 21.1396 292.988 21.164 293.165 21.2462C293.291 21.304 293.417 21.3306 293.571 21.3195C294.106 21.2773 294.642 21.2329 295.178 21.1951C295.243 21.1907 295.318 21.2107 295.378 21.2285C295.853 21.3639 295.858 21.3706 296.207 21.3351C296.519 21.304 296.808 21.2906 297.055 21.4128C297.106 21.4395 297.185 21.4772 297.241 21.475C297.623 21.4528 298.01 21.4284 298.387 21.3906C298.56 21.3728 298.681 21.3795 298.816 21.4306C298.988 21.495 299.142 21.5727 299.426 21.5439C300.213 21.4617 300.218 21.475 301.149 21.6282C301.215 21.6393 301.303 21.6216 301.378 21.6127C301.536 21.5905 301.652 21.6216 301.792 21.6727C302.104 21.7882 302.114 21.7815 302.412 21.7571C302.64 21.7371 302.878 21.7326 303.101 21.6993C303.446 21.6505 303.674 21.7371 303.93 21.8193C304.135 21.8837 304.373 21.8304 304.592 21.8104C304.829 21.7882 305.044 21.7948 305.221 21.8792C305.342 21.937 305.472 21.9681 305.626 21.957C306.161 21.917 306.697 21.8726 307.233 21.8326C307.298 21.8281 307.377 21.8459 307.438 21.8615C307.969 21.9992 307.969 22.0058 308.495 21.9547C308.663 21.9392 308.803 21.9348 308.928 21.9814C309.049 22.0258 309.18 22.068 309.306 22.1102C309.534 22.0947 309.767 22.0902 309.99 22.0636C310.163 22.0436 310.284 22.0525 310.419 22.0991C310.596 22.1591 310.745 22.2634 311.024 22.2124C311.169 22.1879 311.336 22.1946 311.481 22.1724C311.653 22.1435 311.77 22.1613 311.905 22.219C312.073 22.2879 312.245 22.359 312.515 22.3234C312.813 22.2834 313.13 22.2768 313.433 22.2457C313.6 22.2279 313.717 22.2457 313.852 22.3034C314.02 22.3767 314.211 22.4234 314.471 22.3945C315.002 22.339 315.007 22.3501 315.524 22.49C315.654 22.5255 315.794 22.5211 315.962 22.5033C316.106 22.4878 316.255 22.5211 316.358 22.5855C316.456 22.6566 316.446 22.701 316.456 22.7387ZM274.948 2.70728C274.794 2.71838 274.641 2.73171 274.417 2.53848C274.403 2.50516 274.412 2.46519 274.38 2.43632C274.305 2.37635 274.189 2.33415 274.049 2.32749C273.798 2.31861 273.495 2.39411 273.499 2.45186C273.504 2.50072 273.583 2.54291 273.737 2.58289C273.802 2.59844 273.853 2.62509 273.914 2.64286C274.091 2.69394 274.231 2.79391 274.487 2.74282C274.44 2.60512 274.464 2.67397 274.487 2.74282C274.464 2.82722 274.533 2.88719 274.701 2.91162C274.748 2.91829 274.818 2.91383 274.855 2.90051C274.999 2.85165 275.023 2.78503 274.915 2.60957C274.897 2.63844 274.911 2.68951 274.953 2.70283C274.995 2.71616 275.097 2.70507 275.148 2.68952C275.279 2.64732 275.344 2.59179 275.311 2.54515C275.293 2.52072 275.204 2.48962 275.148 2.48962C275.05 2.48962 274.962 2.53848 274.948 2.70728ZM312.613 28.4646C312.273 28.5068 311.882 28.4912 311.542 28.5778C311.481 28.5934 311.42 28.6334 311.416 28.6645C311.411 28.6845 311.504 28.7133 311.56 28.7289C311.686 28.7644 311.826 28.7533 311.989 28.7422C312.236 28.7267 312.38 28.8288 312.571 28.8799C312.631 28.8955 312.711 28.9066 312.776 28.9021C313.153 28.8755 313.526 28.8466 313.903 28.8155C313.968 28.8088 314.038 28.7933 314.094 28.7733C314.28 28.7089 314.262 28.6667 314.08 28.6178C313.88 28.5645 313.721 28.4757 313.516 28.4335C313.223 28.3735 312.925 28.4535 312.613 28.4646ZM286.16 30.0859C285.932 30.1037 285.708 30.1215 285.48 30.1392C285.405 30.1459 285.326 30.1481 285.256 30.157C285.112 30.1725 285.005 30.2192 284.935 30.2925C285.042 30.3502 285.172 30.3835 285.317 30.3769C285.545 30.3636 285.769 30.3347 285.997 30.328C286.244 30.3191 286.388 30.4191 286.579 30.4702C286.64 30.4857 286.714 30.4879 286.784 30.4902C287.129 30.499 287.338 30.3836 287.273 30.2214C287.227 30.0948 287.05 30.0193 286.835 30.0349C286.612 30.0504 286.384 30.0682 286.16 30.0859ZM314.206 25.1819C314.262 25.1441 314.322 25.1175 314.35 25.0842C314.434 24.9709 314.401 24.8865 314.248 24.7976C314.061 24.6888 313.833 24.7621 313.624 24.7732C313.572 24.7754 313.516 24.8221 313.489 24.851C313.47 24.8709 313.47 24.9132 313.498 24.9243C313.726 25.0131 313.968 25.0953 314.206 25.1819ZM273.798 18.621C273.574 18.6387 273.346 18.6521 273.122 18.6765C273.066 18.6832 273.015 18.7254 272.982 18.7542C272.922 18.8075 272.987 18.8808 273.178 18.8875C273.397 18.8964 273.625 18.8586 273.853 18.8409C274.142 18.8186 274.314 18.7365 274.207 18.6654C274.105 18.5965 273.965 18.5832 273.798 18.621ZM28.6037 13.8746C28.7527 13.8635 28.9064 13.8546 29.0555 13.8391C29.1952 13.8235 29.3024 13.7747 29.3723 13.7014C29.2558 13.6436 29.1254 13.6125 28.981 13.6192C28.7527 13.6325 28.5292 13.6503 28.3056 13.6725C28.1658 13.6858 28.0308 13.7347 27.9982 13.8102C27.9656 13.868 28.2776 13.9013 28.6037 13.8746ZM254.099 13.5326C254.159 13.5526 254.22 13.5926 254.28 13.5926C254.429 13.5926 254.583 13.5792 254.723 13.557C254.783 13.5481 254.83 13.5082 254.858 13.4771C254.877 13.4571 254.872 13.4215 254.844 13.4038C254.709 13.2972 254.169 13.3349 254.08 13.4571C254.071 13.4793 254.094 13.5082 254.099 13.5326ZM239.403 1.37021C239.417 1.40575 239.421 1.44128 239.44 1.47682C239.477 1.54345 239.58 1.59232 239.729 1.62564C239.845 1.57011 239.906 1.50793 239.901 1.4413C239.896 1.40577 239.882 1.37021 239.864 1.33467C239.826 1.26804 239.724 1.21919 239.575 1.18588C239.459 1.23918 239.403 1.30136 239.403 1.37021ZM324.971 30.4724C324.929 30.5013 324.887 30.5301 324.84 30.5568C324.966 30.6212 325.082 30.6412 325.171 30.6056C325.227 30.5834 325.259 30.5501 325.301 30.5212C325.176 30.4568 325.064 30.4391 324.971 30.4724ZM322.073 30.7745C322.134 30.7944 322.19 30.8211 322.255 30.8344C322.362 30.8566 322.46 30.8189 322.534 30.7389C322.474 30.7189 322.418 30.6923 322.353 30.6789C322.246 30.6567 322.148 30.6945 322.073 30.7745ZM323.908 30.368C323.876 30.4213 323.941 30.4657 324.113 30.5035C324.155 30.4746 324.211 30.448 324.239 30.4169C324.286 30.3658 324.207 30.3191 324.039 30.2836C323.992 30.3103 323.95 30.3391 323.908 30.368ZM314.075 27.9737C314.043 28.027 314.108 28.0715 314.28 28.1092C314.322 28.0803 314.378 28.0537 314.406 28.0226C314.453 27.9715 314.374 27.9249 314.206 27.8893C314.159 27.916 314.117 27.9449 314.075 27.9737ZM300.679 12.2577C300.637 12.2866 300.595 12.3155 300.549 12.3421C300.674 12.4065 300.791 12.4265 300.879 12.391C300.935 12.3688 300.968 12.3354 301.01 12.3066C300.884 12.2422 300.772 12.2244 300.679 12.2577ZM287.846 3.91995C287.958 3.9355 288.051 3.90442 288.13 3.82224C288.07 3.80225 288.014 3.7756 287.949 3.76227C287.841 3.74006 287.744 3.77783 287.669 3.85779C287.73 3.88 287.79 3.89996 287.846 3.91995ZM281.031 3.39802C280.99 3.42689 280.948 3.45576 280.901 3.48242C281.027 3.54683 281.143 3.56681 281.232 3.53127C281.288 3.50906 281.32 3.47575 281.362 3.44687C281.236 3.38246 281.125 3.36692 281.031 3.39802ZM234.819 1.36799C234.777 1.39686 234.735 1.42574 234.689 1.45239C234.815 1.5168 234.931 1.53678 235.019 1.50125C235.075 1.47904 235.108 1.44572 235.15 1.41685C235.024 1.35244 234.912 1.3369 234.819 1.36799ZM4.71728 19.4383C4.65673 19.4183 4.59623 19.3983 4.54033 19.3761C4.40525 19.4361 4.36334 19.4916 4.43787 19.5338C4.48445 19.5605 4.55427 19.576 4.61482 19.596C4.75456 19.536 4.78716 19.4827 4.71728 19.4383Z" fill="#FFE492"/>
</svg>
