<svg width="194" height="25" viewBox="0 0 194 25" fill="none" xmlns="http://www.w3.org/2000/svg">
<path d="M182.321 13.464C182.055 13.4844 181.787 13.4983 181.526 13.5288C181.357 13.5479 181.285 13.492 181.172 13.4628C181.134 13.4526 181.094 13.4323 181.059 13.4348C180.796 13.4551 180.533 13.478 180.27 13.5009C180.189 13.5505 180.138 13.6165 180.015 13.6407C179.894 13.6636 179.752 13.6636 179.618 13.675C179.44 13.689 179.263 13.703 179.086 13.7157C178.997 13.722 178.925 13.7462 178.895 13.7919C178.89 13.7995 178.949 13.8186 178.981 13.83C179.089 13.8682 179.193 13.9114 179.311 13.9406C179.424 13.9686 179.564 13.9228 179.685 13.9584C179.956 14.0385 179.959 14.0372 180.165 14.0219C180.342 14.008 180.52 13.9927 180.697 13.9826C180.732 13.98 180.772 13.9991 180.81 14.0092C180.922 14.0372 180.995 14.1007 181.161 14.0766C181.287 14.0575 181.427 14.0537 181.559 14.0435C181.669 14.0804 181.771 14.1223 181.889 14.1516C181.999 14.1795 182.031 14.2011 181.972 14.238C181.918 14.2723 181.843 14.2863 181.744 14.2888C181.655 14.2901 181.567 14.3015 181.478 14.3079C181.432 14.3117 181.389 14.3142 181.346 14.3181C181.177 14.332 181.177 14.332 180.869 14.2507C180.748 14.2189 180.611 14.2634 180.495 14.2329C180.418 14.2126 180.35 14.1821 180.275 14.1605C180.243 14.1516 180.192 14.1503 180.152 14.1528C180.018 14.1617 179.883 14.1681 179.754 14.1846C179.663 14.196 179.609 14.2316 179.62 14.2672C179.623 14.2812 179.687 14.3015 179.725 14.3028C179.811 14.3053 179.902 14.2876 179.985 14.2964C180.066 14.3053 180.149 14.3308 180.208 14.3587C180.329 14.4172 180.466 14.3651 180.581 14.3803C180.702 14.3968 180.801 14.4477 180.917 14.4782C180.946 14.4858 181.003 14.4731 181.048 14.4693C181.18 14.4604 181.312 14.4528 181.443 14.4439C181.553 14.4807 181.671 14.5138 181.771 14.5557C181.951 14.632 182.144 14.6612 182.377 14.6243C182.509 14.604 182.638 14.6116 182.742 14.6612C182.85 14.712 182.973 14.7069 183.11 14.6968C183.236 14.6866 183.365 14.6586 183.494 14.6942C183.773 14.773 183.776 14.7768 184.106 14.7463C184.206 14.7374 184.281 14.7349 184.356 14.7641C184.426 14.7908 184.501 14.8137 184.573 14.8391C184.705 14.8302 184.839 14.8213 184.971 14.8111C185.14 14.7972 185.234 14.815 185.274 14.8861C185.298 14.9293 185.309 14.9687 185.368 14.998C185.438 15.0335 185.513 15.0323 185.615 15.0221C185.712 15.0132 185.781 14.9992 185.822 14.9535C185.838 14.9344 185.87 14.9166 185.9 14.9014C185.924 14.8899 185.961 14.8721 185.983 14.8747C186.023 14.8798 186.077 14.8937 186.09 14.9103C186.222 15.064 186.222 15.0653 186.356 15.1098C186.504 15.1594 186.657 15.2038 186.791 15.2597C186.912 15.3093 187.033 15.2877 187.164 15.2877C187.263 15.2877 187.328 15.3208 187.32 15.3538C187.314 15.3729 187.277 15.4008 187.245 15.4034C186.982 15.4288 186.716 15.4504 186.45 15.4682C186.418 15.4707 186.378 15.4478 186.34 15.4364C186.265 15.4135 186.198 15.3779 186.117 15.3703C186.037 15.3627 185.943 15.3818 185.854 15.3881C185.765 15.3945 185.671 15.411 185.591 15.4008C185.51 15.3907 185.446 15.3538 185.371 15.3297C185.336 15.3182 185.288 15.3017 185.258 15.3055C185.062 15.336 184.917 15.2941 184.777 15.2382C184.748 15.2267 184.697 15.2191 184.659 15.2216C184.348 15.2432 184.039 15.2686 183.728 15.2928C183.602 15.303 183.5 15.2585 183.473 15.1835C183.459 15.1416 183.432 15.0996 183.432 15.0577C183.432 14.9814 183.285 14.9395 183.177 14.9484C183 14.9611 182.82 14.9713 182.646 14.9903C182.504 15.0056 182.383 14.9903 182.286 14.9446C182.173 14.8925 182.044 14.9026 181.916 14.9166C181.819 14.9268 181.792 14.9687 181.797 15.0742C181.803 15.1594 181.757 15.186 181.583 15.2C181.363 15.2178 181.14 15.2356 180.917 15.2496C180.882 15.2521 180.842 15.2305 180.807 15.2191C180.732 15.1962 180.665 15.1594 180.584 15.1517C180.503 15.1428 180.409 15.1619 180.321 15.1695C180.232 15.1759 180.138 15.1937 180.058 15.1848C179.977 15.1759 179.91 15.1378 179.838 15.1136C179.803 15.1022 179.76 15.0856 179.725 15.0882C179.548 15.0984 179.371 15.1136 179.193 15.1276C178.995 15.1428 178.995 15.1428 178.713 15.064C178.584 15.0285 178.455 15.0564 178.329 15.0666C178.195 15.0768 178.068 15.0818 177.964 15.031C177.894 14.998 177.816 14.9776 177.733 14.984C177.51 14.9992 177.29 15.0183 177.067 15.0335C177.03 15.0361 176.979 15.0297 176.949 15.0183C176.807 14.9649 176.667 14.923 176.468 14.9497C176.297 14.9725 176.111 14.9738 175.94 14.9954C175.846 15.0069 175.803 15.0475 175.821 15.0793C175.832 15.0958 175.889 15.1149 175.926 15.1149C176.012 15.1162 176.106 15.0971 176.187 15.1047C176.353 15.12 176.436 15.2267 176.654 15.1975C176.783 15.1797 176.917 15.1733 177.051 15.1683C177.086 15.167 177.123 15.1911 177.161 15.2038C177.268 15.2382 177.362 15.2826 177.518 15.2597C177.647 15.242 177.784 15.2369 177.915 15.2267C178.125 15.2102 178.125 15.2115 178.396 15.289C178.525 15.3258 178.654 15.2966 178.78 15.2877C178.874 15.2814 178.962 15.2687 179.038 15.2864C179.153 15.3131 179.236 15.3741 179.379 15.3703C179.513 15.3665 179.644 15.3487 179.779 15.3424C179.862 15.3385 179.94 15.3589 180.007 15.3932C180.077 15.4275 180.152 15.4428 180.243 15.4351C180.375 15.425 180.509 15.4123 180.643 15.4059C180.681 15.4046 180.724 15.4161 180.759 15.4262C180.834 15.4491 180.906 15.4758 180.979 15.4999C181.11 15.4923 181.244 15.4898 181.373 15.4745C181.473 15.4631 181.542 15.4682 181.623 15.4936C181.725 15.5279 181.808 15.5889 181.975 15.5597C182.058 15.5457 182.155 15.5495 182.238 15.5368C182.34 15.5203 182.41 15.5266 182.482 15.5648C182.619 15.6372 182.791 15.6385 182.968 15.6105C183.161 15.58 183.306 15.6156 183.451 15.6715C183.604 15.73 183.604 15.7287 183.722 15.8698C183.757 15.9104 183.857 15.9295 183.94 15.9219C184.079 15.9092 184.2 15.9155 184.302 15.9638C184.41 16.0159 184.538 16.0096 184.67 15.9956C184.845 15.9765 185.019 15.96 185.161 16.0337C185.231 16.0693 185.306 16.0782 185.4 16.0693C185.666 16.0464 185.935 16.0324 186.195 16.0045C186.353 15.9867 186.445 16.0274 186.552 16.0617C186.697 16.1087 186.855 16.1506 186.855 16.251C186.855 16.2675 186.893 16.2866 186.925 16.2993C186.995 16.326 187.07 16.3489 187.143 16.3743C187.25 16.4124 187.355 16.4442 187.502 16.4239C187.631 16.4073 187.768 16.4022 187.9 16.3908C188.031 16.3794 188.152 16.373 188.27 16.4213C188.407 16.476 188.552 16.5281 188.708 16.5687C188.818 16.598 188.963 16.5484 189.081 16.5878C189.153 16.6119 189.223 16.6399 189.301 16.6602C189.333 16.6691 189.384 16.6628 189.427 16.6602C189.516 16.6551 189.607 16.6513 189.693 16.6386C189.792 16.6247 189.868 16.6272 189.943 16.6564C190.013 16.6831 190.082 16.72 190.163 16.7276C190.284 16.739 190.418 16.6882 190.539 16.7467C190.6 16.7759 190.678 16.8038 190.759 16.8127C190.839 16.8216 190.933 16.8026 191.019 16.8038C191.057 16.8038 191.103 16.8242 191.124 16.8407C191.137 16.8496 191.119 16.8737 191.1 16.8864C191.076 16.9017 191.041 16.922 191.006 16.9246C190.74 16.9475 190.474 16.9665 190.209 16.9881C190.05 17.0008 190.05 17.0008 189.731 16.9208C189.655 16.9017 189.572 16.9055 189.478 16.9144C189.352 16.9258 189.223 16.9475 189.092 16.9246C188.92 16.8382 188.708 16.8305 188.482 16.8636C188.388 16.8775 188.302 16.8775 188.233 16.8534C188.085 16.8051 187.929 16.7606 187.798 16.7034C187.696 16.659 187.647 16.6552 187.604 16.7162C187.591 16.7352 187.578 16.7555 187.58 16.7733C187.596 16.8369 187.626 16.8992 187.642 16.9627C187.647 16.9805 187.626 17.0008 187.612 17.0199C187.57 17.0733 187.513 17.0694 187.419 17.025C187.325 16.9805 187.212 16.9513 187.062 16.9716C186.933 16.9894 186.794 16.9869 186.665 17.0059C186.466 17.0339 186.327 16.9932 186.184 16.9386C186.155 16.9271 186.104 16.9208 186.066 16.9233C185.666 16.9525 185.269 16.9856 184.869 17.0148C184.783 17.0212 184.705 17.0021 184.638 16.9678C184.568 16.9335 184.49 16.9157 184.404 16.922C184.05 16.9487 183.696 16.9729 183.341 17.0059C183.196 17.0199 183.081 17.0034 182.981 16.9589C182.906 16.9258 182.836 16.9157 182.742 16.9195C182.64 16.9233 182.568 16.936 182.517 16.9729C182.469 17.0085 182.504 17.03 182.611 17.058C182.726 17.0885 182.834 17.1279 182.944 17.1635C183.032 17.1584 183.121 17.1482 183.207 17.1495C183.244 17.1495 183.279 17.1724 183.317 17.1851C183.424 17.2219 183.524 17.2588 183.677 17.2385C183.806 17.2207 183.943 17.2169 184.074 17.2054C184.257 17.1915 184.257 17.1915 184.552 17.2715C184.627 17.2919 184.708 17.2906 184.804 17.2791C184.887 17.2702 184.973 17.288 185.033 17.3262C185.057 17.3414 185.049 17.3668 184.998 17.4507C184.998 17.513 185.054 17.485 185.073 17.4444C185.102 17.3859 185.046 17.3668 184.939 17.3986C184.863 17.4215 184.826 17.4545 184.845 17.4812C184.855 17.4952 184.906 17.513 184.998 17.4507C185.234 17.3745 185.414 17.3656 185.586 17.3452C185.688 17.3338 185.752 17.3389 185.833 17.3719C185.929 17.4113 186.026 17.4533 186.184 17.4329C186.356 17.41 186.539 17.4075 186.713 17.3884C186.874 17.3706 186.957 17.4266 187.059 17.4596C187.183 17.499 187.32 17.4545 187.433 17.4774C187.551 17.5003 187.634 17.5562 187.771 17.5663C187.97 17.532 188.096 17.5956 188.246 17.6375C188.364 17.6693 188.504 17.6413 188.63 17.6273C188.772 17.6121 188.89 17.6261 188.99 17.6718C189.102 17.7239 189.229 17.7125 189.358 17.7011C189.658 17.6756 189.669 17.6718 189.843 17.7417C189.97 17.7926 190.09 17.7697 190.217 17.7633C190.327 17.7976 190.434 17.8345 190.549 17.865C190.579 17.8726 190.635 17.8599 190.681 17.8561C190.813 17.8459 190.947 17.8358 191.078 17.8256C191.167 17.8193 191.261 17.8002 191.341 17.8078C191.422 17.8167 191.489 17.8536 191.562 17.8777C191.634 17.9019 191.709 17.926 191.779 17.9514C191.886 17.9895 191.988 18.0213 192.139 18.0023C192.268 17.9857 192.402 17.9807 192.536 17.9692C192.705 17.9552 192.7 17.959 193.014 18.0353C193.183 18.0772 193.358 18.0264 193.529 18.0213C193.615 18.0188 193.699 18.0328 193.758 18.0696C193.782 18.0849 193.774 18.1103 193.782 18.1319C193.339 18.1662 192.893 18.1954 192.456 18.2374C192.286 18.2539 192.198 18.2081 192.107 18.17C191.956 18.109 191.758 18.198 191.615 18.1192C191.529 18.0721 191.406 18.0455 191.258 18.0683C191.172 18.0811 191.081 18.0798 190.992 18.0912C190.767 18.1192 190.56 18.1204 190.38 18.0328C190.319 18.0023 190.23 17.9857 190.166 17.9565C190.09 17.9247 190.018 17.9069 189.929 17.9133C189.529 17.9438 189.132 17.9743 188.735 18.0073C188.7 18.0099 188.665 18.0289 188.635 18.0429C188.56 18.0785 188.584 18.1065 188.705 18.1293C188.745 18.137 188.778 18.1535 188.815 18.1662C188.888 18.1903 188.955 18.2285 189.035 18.2374C189.116 18.2463 189.21 18.2285 189.298 18.2221C189.387 18.2158 189.481 18.1967 189.562 18.2043C189.642 18.2132 189.709 18.2501 189.784 18.2729C189.819 18.2844 189.862 18.3034 189.897 18.3022C190.074 18.2946 190.249 18.2806 190.426 18.2691C190.536 18.3034 190.63 18.353 190.762 18.3644C190.845 18.3721 190.933 18.3581 191.019 18.3606C191.057 18.3619 191.105 18.381 191.124 18.3975C191.135 18.4077 191.1 18.4331 191.073 18.4458C190.971 18.4941 190.831 18.4852 190.705 18.5004C190.568 18.5169 190.445 18.5119 190.34 18.4623C190.27 18.4293 190.192 18.4115 190.106 18.4178C189.884 18.4343 189.664 18.4534 189.441 18.4674C189.403 18.4699 189.357 18.4585 189.323 18.4496C189.041 18.3721 189.041 18.3695 188.842 18.3861C188.549 18.4102 188.549 18.4102 188.353 18.3428C188.316 18.3301 188.276 18.306 188.243 18.3073C187.932 18.3276 187.623 18.3479 187.314 18.3772C187.212 18.386 187.143 18.3861 187.067 18.353C187.003 18.3251 186.928 18.2933 186.847 18.2857C186.764 18.278 186.673 18.2971 186.584 18.3034C186.496 18.3098 186.402 18.3263 186.324 18.3162C186.243 18.306 186.173 18.2704 186.104 18.245C186.031 18.2183 185.953 18.2196 185.854 18.2297C185.548 18.259 185.545 18.2552 185.242 18.1764C185.207 18.1675 185.161 18.1573 185.124 18.1598C184.901 18.1751 184.681 18.1942 184.458 18.2094C184.372 18.2158 184.289 18.1992 184.23 18.1624C184.206 18.1471 184.214 18.1217 184.198 18.0721C184.179 18.0607 184.2 18.0811 184.206 18.1001C184.246 18.0976 184.294 18.1001 184.324 18.0899C184.399 18.0658 184.436 18.034 184.418 18.0073C184.407 17.9934 184.356 17.9756 184.324 17.9756C184.265 17.9756 184.214 18.0035 184.198 18.0721C184.028 18.1141 183.849 18.123 183.674 18.1433C183.572 18.156 183.508 18.1497 183.427 18.1166C183.33 18.076 183.231 18.0366 183.073 18.0569C182.901 18.0798 182.718 18.0836 182.541 18.1014C182.337 18.1217 182.248 18.0073 182.077 18.0099C181.899 18.0124 181.722 18.034 181.545 18.0493C181.389 18.062 181.389 18.062 181.067 17.9794C180.949 17.9489 180.81 17.9934 180.694 17.9616C180.616 17.9412 180.549 17.9108 180.474 17.8892C180.442 17.8803 180.391 17.8802 180.35 17.8828C180.128 17.898 179.902 17.9082 179.687 17.9362C179.443 17.9692 179.258 17.9336 179.083 17.8587C178.863 17.8726 178.64 17.8803 178.423 17.9044C178.264 17.9222 178.173 17.8803 178.066 17.8459C178.028 17.8345 177.996 17.8154 177.956 17.8104C177.915 17.8053 177.867 17.8154 177.824 17.8192C177.647 17.8332 177.464 17.8396 177.293 17.8625C177.08 17.8917 177 17.7875 176.836 17.7748C176.726 17.837 176.667 17.9222 176.45 17.9285C176.272 17.9336 176.095 17.954 175.918 17.9679C175.829 17.9743 175.741 17.9819 175.652 17.9883C175.51 17.9997 175.443 18.0493 175.472 18.1255C175.489 18.1675 175.502 18.2094 175.515 18.2513C175.542 18.3263 175.475 18.3899 175.362 18.3988C175.051 18.4229 174.742 18.4483 174.431 18.4699C174.348 18.4763 174.267 18.4547 174.2 18.4204C174.13 18.386 174.052 18.3708 173.966 18.3772C173.655 18.4013 173.346 18.4267 173.035 18.4483C173 18.4509 172.954 18.4382 172.919 18.428C172.844 18.4051 172.772 18.3784 172.699 18.3543C172.522 18.3657 172.347 18.3733 172.173 18.3886C171.891 18.4115 171.891 18.4127 171.684 18.3428C171.647 18.3301 171.609 18.306 171.574 18.3073C171.44 18.3123 171.309 18.3251 171.174 18.3365C170.78 18.3695 170.78 18.3695 170.664 18.3314C170.559 18.2958 170.465 18.2526 170.307 18.2729C170.135 18.2958 169.953 18.3034 169.776 18.3162C169.644 18.3251 169.512 18.3352 169.381 18.3378C169.346 18.339 169.308 18.3149 169.271 18.3022C169.163 18.2628 169.059 18.231 168.911 18.2526C168.825 18.2653 168.734 18.2679 168.645 18.2742C168.414 18.292 168.414 18.292 168.036 18.2158C167.998 18.2081 167.953 18.1992 167.915 18.203C167.604 18.2259 167.295 18.2513 166.983 18.2729C166.946 18.2755 166.9 18.2679 166.863 18.2615C166.439 18.1878 166.439 18.1878 165.987 18.2234C165.816 18.2361 165.81 18.2412 165.63 18.1738C165.55 18.1446 165.483 18.1306 165.389 18.1395C165.034 18.17 164.677 18.1903 164.326 18.2259C164.167 18.2412 164.076 18.203 163.969 18.1687C163.931 18.1573 163.891 18.1319 163.859 18.1332C163.504 18.1573 163.15 18.1865 162.795 18.2107C162.763 18.2132 162.723 18.1878 162.685 18.1764C162.613 18.1535 162.543 18.1192 162.462 18.1115C162.379 18.1039 162.288 18.123 162.197 18.1293C161.974 18.1459 161.974 18.1446 161.716 18.0696C161.681 18.0595 161.636 18.0455 161.601 18.048C161.246 18.0734 160.889 18.095 160.538 18.1319C160.336 18.1522 160.199 18.1154 160.057 18.062C160.028 18.0505 159.977 18.0455 159.939 18.048C159.539 18.0772 159.142 18.1103 158.742 18.1395C158.658 18.1459 158.578 18.1243 158.511 18.0912C158.403 18.0391 158.277 18.0455 158.143 18.0569C157.834 18.0836 157.831 18.0823 157.649 18.0213C157.611 18.0086 157.579 17.9921 157.539 17.9857C157.501 17.9794 157.453 17.9832 157.413 17.9857C157.236 17.9984 157.058 18.0124 156.881 18.0264C156.704 18.0404 156.524 18.048 156.35 18.0696C156.135 18.0963 156.033 18.0137 155.882 17.9756C155.662 17.9921 155.437 18.0023 155.219 18.0289C155.053 18.0493 154.975 17.9934 154.865 17.9641C154.827 17.954 154.787 17.9324 154.752 17.9349C154.352 17.9629 153.952 17.9934 153.555 18.0277C153.458 18.0353 153.394 18.0251 153.313 17.9946C153.133 17.926 153.125 17.9285 152.825 17.954C152.693 17.9654 152.567 17.9756 152.454 17.9235C152.355 17.8764 152.234 17.865 152.092 17.8802C151.917 17.8993 151.737 17.9095 151.56 17.9222C151.383 17.9362 151.206 17.9552 151.029 17.9616C150.886 17.9679 150.8 17.9082 150.688 17.8777C150.653 17.8688 150.604 17.8675 150.564 17.8701C150.387 17.8815 150.204 17.8904 150.033 17.912C149.823 17.9387 149.708 17.8688 149.56 17.8282C149.528 17.8193 149.474 17.8243 149.434 17.8282C149.122 17.851 148.814 17.8764 148.502 17.9006C148.392 17.8663 148.279 17.8332 148.169 17.7989C147.992 17.8116 147.815 17.8256 147.638 17.8383C147.504 17.8485 147.367 17.8523 147.24 17.8714C147.077 17.8968 146.996 17.837 146.886 17.8078C146.848 17.7976 146.808 17.776 146.773 17.7786C146.551 17.7926 146.328 17.8078 146.108 17.8294C145.898 17.851 145.815 17.7366 145.643 17.7379C145.466 17.7392 145.283 17.7557 145.112 17.7786C144.913 17.8053 144.773 17.7646 144.631 17.71C144.601 17.6985 144.55 17.6922 144.513 17.6947C144.29 17.71 144.07 17.729 143.847 17.7443C143.809 17.7468 143.764 17.7405 143.726 17.7328C143.302 17.6579 143.302 17.6566 143.117 17.6718C142.985 17.682 142.851 17.6947 142.717 17.7011C142.679 17.7036 142.634 17.6922 142.599 17.682C142.319 17.6045 142.319 17.6032 142.118 17.6185C141.941 17.6324 141.764 17.6464 141.587 17.6604C141.476 17.6261 141.364 17.593 141.254 17.5587C141.033 17.5753 140.808 17.5879 140.591 17.6108C140.489 17.621 140.421 17.6172 140.344 17.5854C140.247 17.5473 140.15 17.5028 139.989 17.5244C139.817 17.5473 139.635 17.5498 139.46 17.5689C139.251 17.5918 139.165 17.4761 138.996 17.4774C138.819 17.4787 138.636 17.4952 138.464 17.5181C138.266 17.5447 138.126 17.5041 137.984 17.4494C137.954 17.438 137.903 17.4316 137.866 17.4342C137.377 17.471 136.891 17.5079 136.402 17.5473C136.102 17.5714 136.102 17.5727 135.53 17.5028C135.49 17.4977 135.447 17.4926 135.406 17.4952C135.229 17.5066 135.047 17.5155 134.875 17.5371C134.665 17.5638 134.55 17.4952 134.402 17.4532C134.37 17.4443 134.319 17.4494 134.276 17.452C134.142 17.4609 134.01 17.4723 133.876 17.4825C133.699 17.4965 133.522 17.5104 133.345 17.5244C133.235 17.4914 133.122 17.4571 133.012 17.424C132.792 17.4405 132.566 17.4494 132.349 17.4761C132.182 17.4965 132.104 17.4431 131.994 17.4126C131.957 17.4024 131.916 17.3808 131.882 17.3821C131.481 17.41 131.081 17.4393 130.684 17.4749C130.52 17.4901 130.445 17.4329 130.335 17.4037C130.298 17.3948 130.255 17.3783 130.22 17.3808C129.954 17.3986 129.688 17.4202 129.422 17.4418C129.272 17.4545 129.272 17.4545 128.944 17.3757C128.907 17.3668 128.864 17.3579 128.826 17.3605C127.983 17.424 127.143 17.4914 126.3 17.5549C126.214 17.5613 126.136 17.5422 126.069 17.5079C125.999 17.4736 125.922 17.4558 125.836 17.4621C125.481 17.4888 125.124 17.513 124.773 17.546C124.628 17.56 124.512 17.5435 124.413 17.499C124.338 17.4659 124.268 17.4532 124.174 17.4609C123.997 17.4761 123.819 17.4888 123.642 17.5028C123.465 17.5168 123.288 17.5308 123.111 17.5448C122.934 17.5587 122.754 17.5664 122.579 17.588C122.364 17.6146 122.26 17.5359 122.112 17.4965C121.846 17.5155 121.58 17.5346 121.317 17.5549C120.963 17.5816 120.609 17.6108 120.254 17.6363C120.222 17.6388 120.182 17.6159 120.144 17.6045C120.034 17.5727 119.954 17.5282 119.79 17.5422C118.995 17.6096 118.195 17.6668 117.398 17.7328C117.231 17.7468 117.159 17.6922 117.046 17.6629C117.008 17.654 116.966 17.6363 116.931 17.6388C116.488 17.6706 116.045 17.7061 115.602 17.7405C115.422 17.7544 115.422 17.7544 115.121 17.6756C115.086 17.6667 115.041 17.6553 115.003 17.6578C114.426 17.7011 113.851 17.7468 113.274 17.7913C113.188 17.7976 113.11 17.7799 113.041 17.7455C112.973 17.7112 112.893 17.6922 112.81 17.6985C112.278 17.7392 111.744 17.7786 111.215 17.8231C111.073 17.8358 110.955 17.8243 110.852 17.7786C110.78 17.7455 110.708 17.7316 110.616 17.7392C109.819 17.8015 109.022 17.8612 108.224 17.9273C108.071 17.94 107.964 17.9158 107.867 17.8739C107.789 17.8409 107.722 17.8345 107.626 17.8396C107.523 17.8459 107.462 17.8599 107.405 17.898C107.333 17.9476 107.287 18.0099 107.115 18.0137C106.938 18.0175 106.758 18.0328 106.584 18.0544C106.417 18.076 106.34 18.0188 106.235 17.9845C106.157 17.9603 106.085 17.9565 105.985 17.9679C105.894 17.9781 105.838 17.9997 105.784 18.0404C105.666 18.1268 105.655 18.1268 105.51 18.0721C105.432 18.0429 105.362 18.02 105.276 18.0251C104.922 18.0505 104.568 18.0785 104.213 18.1077C104.009 18.1243 104.007 18.1268 103.854 18.0633C103.778 18.0315 103.706 18.0162 103.617 18.0239C102.643 18.1001 101.668 18.1738 100.694 18.2539C100.543 18.2666 100.441 18.2399 100.334 18.2018C100.299 18.1891 100.264 18.1713 100.224 18.1662C100.184 18.1611 100.138 18.1662 100.095 18.1687C99.3863 18.2234 98.6749 18.2755 97.9688 18.3365C97.8077 18.3505 97.7218 18.3098 97.6118 18.2768C97.5742 18.2653 97.5419 18.2475 97.5017 18.2425C97.4614 18.2386 97.4131 18.2475 97.3701 18.2513C96.6614 18.306 95.9499 18.3581 95.2439 18.4191C95.0747 18.4331 95.0022 18.3797 94.8922 18.3517C94.8546 18.3416 94.8143 18.3225 94.7794 18.325C94.5566 18.339 94.3365 18.3581 94.1136 18.3746C93.5821 18.4165 93.0505 18.456 92.5189 18.4992C92.3149 18.5157 92.2263 18.4026 92.0545 18.4077C91.8316 18.414 91.6115 18.4394 91.3887 18.4572C91.2115 18.4712 91.0343 18.4839 90.8571 18.4992C90.6826 18.5131 90.6826 18.5131 90.2477 18.4394C90.2101 18.4331 90.1645 18.4242 90.1269 18.4267C89.5067 18.4737 88.8839 18.5208 88.2664 18.5716C88.1241 18.583 88.006 18.5767 87.904 18.5297C87.8315 18.4966 87.7564 18.4801 87.6678 18.4877C86.7362 18.5602 85.8072 18.6326 84.8757 18.7038C84.8408 18.7063 84.7951 18.6936 84.7602 18.6834C84.6851 18.6606 84.6126 18.6339 84.5401 18.6097C84.4864 18.639 84.4166 18.6656 84.3817 18.6987C84.3334 18.7432 84.269 18.7559 84.1669 18.7635C84.0649 18.7711 84.0005 18.7686 83.92 18.7355C83.8233 18.6949 83.724 18.6631 83.5656 18.6758C82.591 18.7559 81.6165 18.8283 80.6419 18.9071C80.4809 18.9198 80.4057 18.8639 80.293 18.8347C80.2554 18.8258 80.2124 18.8118 80.1775 18.8143C79.7775 18.8436 79.3802 18.8753 78.9802 18.9058C77.8714 18.9923 76.7626 19.0749 75.6566 19.1664C75.4552 19.1829 75.3183 19.1511 75.176 19.0965C75.1465 19.085 75.0955 19.0787 75.0579 19.0812C73.5062 19.2007 71.9544 19.3214 70.4053 19.4421C70.3221 19.4485 70.2416 19.4281 70.1744 19.3951C70.1046 19.3608 70.0268 19.3443 69.9409 19.3506C69.2322 19.4053 68.5234 19.4599 67.8147 19.5158C67.6375 19.5298 67.6348 19.5311 67.4522 19.4701C67.4146 19.4574 67.3744 19.4332 67.3449 19.4358C67.2831 19.4421 67.224 19.4739 67.1811 19.5171C67.1381 19.5629 67.071 19.5756 66.9716 19.5845C66.8696 19.5934 66.8025 19.5896 66.7247 19.5591C66.6254 19.5209 66.5341 19.4841 66.373 19.4968C64.3353 19.6595 62.2976 19.8158 60.26 19.9772C60.0962 19.9899 60.021 19.9365 59.9083 19.9073C59.8707 19.8984 59.8331 19.8857 59.7929 19.8831C59.7499 19.8806 59.7043 19.8882 59.6613 19.892C56.3377 20.15 53.0141 20.4092 49.6905 20.6672C49.4918 20.6825 49.4945 20.6825 49.277 20.7994C49.2502 20.8134 49.2153 20.8324 49.1777 20.835C48.1602 20.9163 47.14 20.9951 46.1199 21.0739C45.6769 21.1082 45.2339 21.1438 44.791 21.1768C44.6326 21.1883 44.6326 21.1883 44.254 21.3255C44.2218 21.337 44.1842 21.3522 44.1466 21.3548C42.3747 21.4933 40.6028 21.6318 38.8283 21.7678C38.6887 21.778 38.5759 21.8008 38.5115 21.8618C38.4659 21.905 38.4068 21.9305 38.3182 21.9381C37.0779 22.0347 35.8376 22.1325 34.5946 22.2266C34.447 22.238 34.3583 22.2736 34.2859 22.327C34.2617 22.3448 34.2402 22.3651 34.2053 22.3778C34.1731 22.3892 34.1248 22.393 34.0845 22.3969C33.0214 22.4795 31.9583 22.5646 30.8925 22.6434C30.7341 22.6549 30.6696 22.7019 30.5917 22.7514C30.5649 22.768 30.5461 22.7908 30.5112 22.8023C30.4763 22.8124 30.4253 22.8124 30.3823 22.815C29.4964 22.8836 28.6105 22.9535 27.7245 23.0221C27.5527 23.0158 27.5151 23.0895 27.4319 23.134C27.4024 23.1492 27.3809 23.1695 27.346 23.1797C27.3084 23.1899 27.2601 23.1886 27.2144 23.1911C26.5057 23.2458 25.7969 23.3043 25.0855 23.3551C24.9217 23.3665 24.8895 23.4313 24.8009 23.4758C24.7714 23.4898 24.7419 23.5114 24.707 23.5152C24.264 23.5521 23.8211 23.5864 23.3781 23.6194C23.2304 23.6309 23.2304 23.6296 22.97 23.7554C22.9405 23.7694 22.9055 23.7846 22.868 23.7885C22.2048 23.8418 21.5391 23.8927 20.8733 23.9448C20.7874 23.9511 20.7283 23.9816 20.6854 24.0248C20.6424 24.068 20.5807 24.096 20.4948 24.1024C19.9632 24.1443 19.4316 24.1875 18.9 24.2256C18.7524 24.2358 18.6557 24.2676 18.5913 24.3247C18.543 24.368 18.4839 24.3896 18.39 24.3972C17.8584 24.4378 17.3268 24.4823 16.7926 24.5179C16.6369 24.5281 16.5563 24.5713 16.4919 24.6247C16.4409 24.6679 16.3818 24.6831 16.2825 24.6908C15.3079 24.7645 14.3307 24.8382 13.3589 24.9195C13.1951 24.9335 13.1119 24.889 13.0045 24.8572C12.8515 24.8127 12.7092 24.7645 12.7092 24.6653C12.7092 24.6501 12.6636 24.6323 12.6314 24.6196C12.3924 24.5243 12.3924 24.5243 12.3548 24.4226C12.3334 24.3603 12.3092 24.2968 12.2904 24.2333C12.2555 24.129 12.1696 24.1024 11.9226 24.1214C11.834 24.1278 11.7454 24.1367 11.6568 24.1417C11.5252 24.1506 11.4259 24.1087 11.4018 24.0324C11.3883 23.9905 11.3723 23.9486 11.3588 23.9066C11.4931 23.8965 11.4903 23.8952 11.7266 23.7414C11.8259 23.6766 11.826 23.6766 11.6354 23.6118C11.5629 23.5877 11.4931 23.561 11.4152 23.5381C11.3803 23.5279 11.3347 23.5216 11.2971 23.5241C11.0743 23.5394 10.8541 23.5572 10.634 23.5749C10.2796 23.6029 10.2796 23.6029 9.91983 23.4733C9.89029 23.4631 9.84465 23.444 9.85002 23.4339C9.87955 23.3869 9.95203 23.3665 10.0433 23.3614C10.1775 23.3538 10.3091 23.3411 10.4406 23.3309C10.5292 23.3246 10.6178 23.317 10.7064 23.3106C10.7896 23.2623 10.8756 23.2153 10.9534 23.1657C11.0769 23.0895 11.0769 23.0869 10.9078 23.0336C10.8004 22.998 10.6849 22.9662 10.5749 22.9332C10.4433 22.9433 10.3091 22.9548 10.1775 22.9637C10.0111 22.9751 9.94397 22.9509 9.90101 22.8683C9.86343 22.7959 9.90907 22.7336 10.0379 22.7184C10.1695 22.7031 10.293 22.693 10.3601 22.6282C10.4246 22.5659 10.5373 22.5417 10.6769 22.5367C10.7655 22.5328 10.8541 22.524 10.9427 22.5163C11.0581 22.5062 11.1199 22.4413 11.0957 22.3689C11.0823 22.3219 11.0555 22.2825 10.9508 22.2723C10.4863 22.2278 10.4809 22.2291 10.25 22.1427C10.2286 22.1351 10.2125 22.1122 10.2205 22.1008C10.234 22.0817 10.2635 22.0537 10.2957 22.0499C10.6045 22.022 10.9132 21.9966 11.2219 21.9775C11.3239 21.9711 11.3991 21.9622 11.434 21.9152C11.4823 21.8504 11.4609 21.7907 11.3669 21.7462C11.3374 21.7322 11.289 21.7144 11.2568 21.7157C10.9024 21.7386 10.5507 21.7678 10.1964 21.7907C10.1641 21.7932 10.1051 21.7716 10.0917 21.7551C10.0648 21.7246 10.1051 21.6839 10.199 21.6699C10.3225 21.6509 10.4487 21.6496 10.5319 21.5861C10.6474 21.4958 10.7896 21.4132 10.9185 21.3268C10.94 21.3116 10.9749 21.2823 10.9669 21.2798C10.8998 21.2518 10.8219 21.2302 10.7521 21.2035C10.634 21.159 10.6339 21.0968 10.6608 21.0371C10.6823 20.9888 10.7628 20.9697 10.8621 20.9697C10.9051 20.9697 10.9588 20.9697 10.9937 20.9583C11.085 20.9303 11.1145 20.8947 11.0689 20.868C11.042 20.8528 10.9937 20.8312 10.9615 20.8337C10.387 20.8757 9.80974 20.9163 9.23791 20.9684C9.06878 20.9837 8.99097 20.9354 8.88896 20.9011C8.8111 20.8744 8.73857 20.8642 8.64192 20.8833C8.55064 20.9011 8.46208 20.8909 8.4057 20.849C8.36006 20.8147 8.44059 20.7854 8.65805 20.7524C8.69832 20.746 8.74394 20.7422 8.77347 20.7295C9.08489 20.5923 9.08488 20.591 9.29965 20.5732C9.50906 20.5567 9.50911 20.5554 9.61918 20.4817C9.67019 20.4474 9.72652 20.4131 9.77484 20.3775C9.79364 20.3635 9.82589 20.3381 9.81515 20.3305C9.75609 20.2911 9.67552 20.2822 9.58155 20.2911C9.37215 20.3127 9.1252 20.2949 9.01513 20.4156C8.97217 20.4614 8.90505 20.4741 8.8084 20.4817C7.83655 20.5554 6.86467 20.6342 5.89014 20.7054C5.73174 20.7168 5.6593 20.7638 5.59755 20.8159C5.54386 20.8591 5.48478 20.8718 5.38277 20.8795C5.28075 20.8871 5.20017 20.8909 5.14111 20.849C5.10621 20.8236 5.13575 20.788 5.21629 20.7524C5.33173 20.7015 5.31024 20.638 5.27265 20.5783C5.24581 20.5389 5.16259 20.5109 5.07399 20.5135C4.94244 20.5185 4.8163 20.5325 4.70623 20.4817C4.64179 20.4525 4.56124 20.4321 4.48875 20.4067C4.34915 20.3546 4.20954 20.3012 4.01356 20.3355C3.87933 20.3228 3.78537 20.2771 3.67798 20.2415C3.49811 20.183 3.482 20.1741 3.61086 20.1119C3.75583 20.042 3.64306 19.9505 3.7236 19.8818C3.80951 19.8081 3.92767 19.7433 4.03237 19.6747C4.05922 19.6569 4.08339 19.6404 4.11024 19.6226C4.04849 19.5972 3.99212 19.5654 3.91964 19.5476C3.82567 19.5247 3.77735 19.4968 3.78272 19.418C3.76392 19.4066 3.77192 19.4358 3.7934 19.4434C3.81756 19.451 3.87667 19.4447 3.9062 19.4358C3.98137 19.4116 4.01892 19.3799 4.00012 19.3532C3.98939 19.3392 3.93842 19.3214 3.9062 19.3214C3.84714 19.3214 3.79614 19.3494 3.78003 19.418C3.47935 19.4701 3.16788 19.4955 2.85646 19.5158C2.82424 19.5184 2.78399 19.493 2.74641 19.4803C2.62291 19.437 2.6229 19.4383 2.26047 19.4256C2.22288 19.4243 2.1719 19.4066 2.15311 19.3888C2.07525 19.3112 2.07796 19.2261 2.04037 19.1435C2.11017 19.0901 2.17992 19.038 2.25241 18.9859C2.39738 18.8804 2.58535 18.7876 2.6981 18.672C2.67394 18.6097 2.64172 18.5475 2.75984 18.4966C3.09543 18.4331 3.09276 18.4331 3.18404 18.3721C3.44445 18.1992 3.70217 18.0251 3.97332 17.8548C4.0458 17.8104 4.04581 17.7862 3.91695 17.7672C3.87668 17.7621 3.83367 17.7608 3.79071 17.7633C3.65648 17.7722 3.52225 17.7951 3.3907 17.79C3.25915 17.7862 3.1625 17.7303 3.05512 17.696C2.94505 17.6604 2.83498 17.6235 2.72491 17.5867C2.59873 17.5905 2.47257 17.6261 2.34639 17.5689C2.24975 17.5244 2.12894 17.4926 2.01887 17.4558C2.1021 17.3592 2.25783 17.2855 2.37864 17.2003C2.48871 17.1228 2.49134 17.1241 2.78665 17.0644C2.92625 17.0364 2.97458 16.8928 2.85646 16.8509C2.71417 16.8 2.56386 16.753 2.41889 16.7047C2.29271 16.7085 2.16387 16.7428 2.04306 16.6857C1.9491 16.6424 1.84169 16.6132 1.68598 16.6297C1.42288 16.6577 1.15442 16.6717 0.88864 16.6945C0.797361 16.7022 0.698 16.6971 0.65773 16.6539C0.630883 16.6234 0.708744 16.5814 0.797338 16.5725C0.931571 16.5598 1.05237 16.5446 1.11948 16.4811C1.18392 16.4175 1.30203 16.3984 1.44163 16.3895C1.47922 16.387 1.5222 16.3717 1.541 16.3565C1.63764 16.2828 1.74504 16.2193 1.95176 16.2218C2.03767 16.1964 2.08328 16.1646 2.05643 16.1341C2.04032 16.1176 1.98397 16.096 1.95176 16.0985C1.72893 16.1112 1.50611 16.1239 1.28865 16.1468C1.18664 16.157 1.10874 16.1595 1.04431 16.1214C0.998667 16.096 1.02283 16.0617 1.10874 16.0248C1.18391 15.993 1.20541 15.9562 1.20004 15.913C1.18661 15.8126 1.10606 15.7833 0.848331 15.7897C0.663089 15.7948 0.617447 15.7783 0.577177 15.6918C0.566438 15.6715 0.539639 15.6435 0.558431 15.6296C0.673872 15.5432 0.749048 15.4364 0.966506 15.3957C1.05242 15.3805 1.14366 15.3805 1.19735 15.3474C1.25104 15.3144 1.29939 15.2763 1.35577 15.2445C1.42557 15.2064 1.47385 15.1708 1.44163 15.1467C1.38794 15.1034 1.30206 15.0996 1.20272 15.1149C1.11682 15.1276 1.02554 15.1289 0.936946 15.1365C0.77855 15.1505 0.649715 15.1174 0.630923 15.0615C0.579914 14.9141 0.526205 14.7679 0.480566 14.6205C0.475196 14.6027 0.488583 14.5798 0.51006 14.5646C0.585231 14.5112 0.665802 14.4604 0.743658 14.4083C0.834936 14.3486 0.979932 14.36 1.10343 14.3486C1.27793 14.332 1.27787 14.3333 1.51144 14.2113C1.60271 14.163 1.76112 14.1821 1.85508 14.1389C1.88461 14.1249 1.93025 14.102 1.9222 14.0893C1.91146 14.0728 1.85779 14.0601 1.81752 14.0524C1.77994 14.0448 1.73431 14.041 1.69404 14.0448C1.20543 14.0817 0.719519 14.1211 0.23091 14.1567C0.147685 14.163 0.0564042 14.1351 0.0268729 14.0957C-0.00265845 14.0588 0.00536933 14.0143 0 13.9724C0.0778553 13.9203 0.166415 13.872 0.233532 13.8161C0.28454 13.7729 0.343614 13.7538 0.445631 13.7512C0.579864 13.7474 0.711426 13.7322 0.861767 13.7207C1.14097 13.5352 1.41479 13.3408 1.71547 13.1552C1.83628 13.0802 1.8068 13.004 1.83096 12.9239C1.85512 12.8502 2.03498 12.8617 2.15579 12.8401C2.25244 12.8223 2.28462 12.7816 2.24703 12.7536C2.22555 12.7371 2.17726 12.718 2.13967 12.718C2.05108 12.718 1.96249 12.7295 1.87389 12.7358C1.7853 12.7422 1.68329 12.7384 1.6108 12.76C1.541 12.7803 1.49533 12.8235 1.44969 12.8604C1.39868 12.901 1.33161 12.915 1.2296 12.9176C1.09805 12.9201 0.966508 12.9315 0.83496 12.9404C0.689988 12.8909 0.539615 12.8426 0.400013 12.7905C0.373166 12.7803 0.367768 12.7511 0.370452 12.732C0.375822 12.6825 0.335562 12.652 0.246968 12.6278C0.171798 12.6075 0.110045 12.5783 0.0402438 12.5528C0.0939371 12.5185 0.153021 12.4855 0.195975 12.4486C0.289939 12.3711 0.408077 12.3152 0.612112 12.3177C0.692652 12.2682 0.757065 12.2072 0.861767 12.1729C0.9611 12.1398 1.13024 12.1728 1.20541 12.0979C1.243 12.061 1.29941 12.0191 1.37189 12.0038C1.48733 11.9797 1.63767 11.9924 1.70479 11.9212C1.74506 11.8806 1.8041 11.8437 1.88195 11.8335C1.97055 11.8221 2.0618 11.8196 2.12623 11.7954C2.16113 11.7827 2.19873 11.7624 2.19873 11.7446C2.19873 11.7331 2.14507 11.7153 2.10749 11.7077C2.07259 11.6988 2.0269 11.6925 1.98663 11.695C1.85239 11.7026 1.72085 11.7166 1.58661 11.7242C1.54903 11.7268 1.50609 11.7179 1.46582 11.7103C1.34769 11.6899 1.35573 11.6645 1.44969 11.6188C1.54366 11.5743 1.61081 11.5171 1.68867 11.465C1.77457 11.4561 1.88195 11.4599 1.94101 11.4358C2.04034 11.3964 2.11012 11.3392 2.19066 11.2896C2.27926 11.282 2.37053 11.2794 2.45376 11.2655C2.48866 11.2604 2.50478 11.2324 2.53431 11.2159C2.588 11.1841 2.63368 11.1384 2.70616 11.1231C2.82429 11.1003 2.96926 11.1091 3.03906 11.0393C3.07933 10.9986 3.14105 10.9554 3.21622 10.9528C3.42563 10.9478 3.51422 10.8778 3.62161 10.8118C3.70215 10.7622 3.87397 10.7876 3.96257 10.7381C4.02163 10.7063 4.06461 10.6669 4.12367 10.6364C4.14784 10.6237 4.19883 10.6173 4.2391 10.6135C4.45924 10.5945 4.68206 10.5805 4.9022 10.5601C4.9371 10.5563 4.96934 10.5373 4.99619 10.522C5.05257 10.489 5.08743 10.4432 5.15723 10.4216C5.22703 10.4 5.32635 10.4 5.41226 10.3937C5.68878 10.3746 5.71028 10.3797 5.83646 10.2717C5.93848 10.184 6.18818 10.2462 6.27141 10.1497C6.31973 10.0937 6.40829 10.048 6.56668 10.0416C6.78951 10.0327 7.00965 10.0086 7.23247 9.99207C7.43114 9.97682 7.42846 9.97681 7.64323 9.85862C7.73988 9.80525 7.8822 9.81288 8.00838 9.80271C8.14261 9.79255 8.26609 9.7773 8.33052 9.71376C8.39496 9.65149 8.51307 9.63114 8.64998 9.62225C8.77616 9.61335 8.91848 9.61972 9.01781 9.56888C9.25943 9.44688 9.25675 9.4456 9.42589 9.43289C9.69167 9.41256 9.95744 9.39223 10.2232 9.37062C10.4004 9.35664 10.5856 9.3541 10.7521 9.32615C10.8729 9.30581 10.9266 9.23464 11.0044 9.18508C11.2246 9.16602 11.4447 9.14695 11.6649 9.12916C11.9736 9.10374 12.285 9.08087 12.5964 9.05672C12.7307 9.00843 12.7495 8.90168 12.975 8.8966C13.1092 8.89405 13.2408 8.87754 13.375 8.86737C13.5978 8.84958 13.818 8.8267 14.0408 8.8178C14.2099 8.81145 14.2394 8.74282 14.328 8.69961C14.3576 8.68436 14.3844 8.66276 14.4193 8.65895C14.7683 8.62336 15.1281 8.61574 15.469 8.56363C15.5039 8.55855 15.5361 8.53186 15.5442 8.5128C15.5496 8.50263 15.5039 8.48358 15.4744 8.47468C15.4395 8.46451 15.3939 8.45434 15.3563 8.45689C14.2475 8.54203 13.1388 8.62845 12.03 8.7136C11.8743 8.72631 11.8743 8.72503 11.4958 8.86483C11.4635 8.87626 11.4259 8.88897 11.3856 8.89278C11.2085 8.90803 11.0286 8.91694 10.8541 8.936C10.7118 8.95125 10.5937 8.93599 10.4917 8.89024C10.4192 8.85719 10.344 8.84703 10.2527 8.84958C10.1507 8.85339 10.0836 8.86737 10.0246 8.90168C9.94671 8.94871 9.90643 9.0097 9.74266 9.02241C8.98827 9.07706 8.23383 9.13806 7.48213 9.19652C7.37743 9.17872 7.32642 9.15204 7.35327 9.12027C7.36938 9.1012 7.40161 9.07579 7.43382 9.07325C7.74256 9.04656 8.05397 9.02369 8.36271 8.99827C8.40566 8.99446 8.46472 8.99699 8.48888 8.98428C8.607 8.92709 8.65 8.83432 8.87283 8.82796C9.0017 8.82415 9.13323 8.8051 9.25672 8.7873C9.29162 8.78222 9.32384 8.75553 9.3319 8.73647C9.33458 8.7263 9.29162 8.70723 9.25941 8.69834C9.14128 8.66148 9.00439 8.70597 8.88627 8.68056C8.846 8.67166 8.78958 8.65895 8.78153 8.6437C8.77616 8.62972 8.82181 8.60684 8.85402 8.59286C8.88355 8.58015 8.9238 8.56872 8.96407 8.56491C9.31844 8.53568 9.67288 8.50517 10.0273 8.4823C10.1722 8.4734 10.2742 8.44163 10.3386 8.38317C10.387 8.33996 10.446 8.31709 10.5373 8.31074C11.1575 8.26371 11.7776 8.21161 12.4005 8.1684C12.5562 8.15823 12.6367 8.1163 12.7012 8.06165C12.7522 8.01844 12.8112 8.00319 12.9106 7.99557C13.7992 7.92948 14.6824 7.85578 15.5711 7.79223C15.7348 7.7808 15.7832 7.72615 15.8664 7.67913C15.8959 7.6626 15.9147 7.64227 15.9523 7.6321C15.9898 7.62194 16.0382 7.6232 16.0838 7.62066C16.7926 7.56601 17.5014 7.50756 18.2128 7.45673C18.3792 7.44529 18.4114 7.38174 18.4973 7.33726C18.5268 7.32328 18.5537 7.30041 18.5886 7.2966C19.1202 7.25339 19.6517 7.21272 20.1833 7.17078C20.5377 7.14283 20.892 7.11486 21.2464 7.08818C21.4209 7.07547 21.4209 7.07419 21.6572 6.95346C21.684 6.93948 21.7216 6.92296 21.7565 6.91914C22.7767 6.83781 23.7942 6.7603 24.8143 6.68024C24.9003 6.67388 24.962 6.64464 25.0049 6.60143C25.0479 6.55822 25.1097 6.52899 25.1929 6.52264C25.9903 6.45909 26.7876 6.39683 27.5876 6.3371C27.7326 6.32693 27.8346 6.29643 27.899 6.23924C27.9473 6.19603 28.0064 6.17316 28.0977 6.16681C28.895 6.10581 29.6924 6.04098 30.4924 5.98252C30.6455 5.97109 30.7206 5.92788 30.7958 5.87705C30.8226 5.85926 30.8441 5.83003 30.8763 5.82748C31.2737 5.7919 31.6683 5.75504 32.0683 5.7309C32.2348 5.72073 32.2912 5.66735 32.3583 5.61652C32.412 5.57585 32.4737 5.56188 32.5758 5.55679C32.7986 5.54535 33.0187 5.52376 33.2362 5.50215C33.2684 5.49834 33.3087 5.47038 33.3113 5.45259C33.3167 5.41955 33.2549 5.39667 33.1529 5.38523C32.0898 5.46784 31.024 5.55044 29.9609 5.63304C29.7864 5.64702 29.7864 5.64703 29.5501 5.76776C29.5233 5.78174 29.4857 5.79826 29.4481 5.80207C28.4279 5.88214 27.4104 5.96093 26.3903 6.04099C26.3044 6.04735 26.2426 6.07658 26.1997 6.11979C26.1567 6.163 26.0949 6.19222 26.0117 6.19858C25.0372 6.27483 24.0627 6.35236 23.0854 6.42479C22.9405 6.43496 22.8385 6.46418 22.774 6.52264C22.7257 6.56585 22.6667 6.58873 22.5754 6.59508C21.6438 6.66625 20.7149 6.74123 19.7806 6.80985C19.6866 6.81621 19.6169 6.77935 19.6222 6.74504C19.6249 6.72724 19.6651 6.69803 19.6974 6.69549C20.1833 6.65355 20.6666 6.61033 21.1552 6.57856C21.3189 6.5684 21.3672 6.51248 21.4504 6.46546C21.4773 6.44893 21.4988 6.42733 21.5337 6.41843C21.5713 6.40827 21.6196 6.40954 21.6652 6.407C22.817 6.31677 23.9687 6.22527 25.1231 6.14012C25.2896 6.12742 25.3217 6.06514 25.4076 6.02066C25.4372 6.00541 25.464 5.98254 25.4989 5.98C25.8533 5.9495 26.2077 5.9228 26.5621 5.89612C27.1822 5.84782 27.8024 5.79953 28.4252 5.75124C28.6051 5.73726 28.6051 5.73725 28.836 5.61779C28.8628 5.60381 28.9004 5.58603 28.9353 5.58349C30.5757 5.45513 32.216 5.32678 33.8563 5.19969C33.9423 5.19334 34.004 5.16411 34.0469 5.1209C34.0899 5.07896 34.1516 5.04846 34.2349 5.04083C36.4524 4.868 38.6672 4.69516 40.8848 4.52486C41.0298 4.51342 41.1317 4.48673 41.1962 4.427C41.2418 4.38379 41.3036 4.36092 41.3948 4.3533C43.8325 4.16394 46.2702 3.97459 48.7106 3.78396C50.3509 3.65687 51.9912 3.52725 53.6316 3.4027C53.7819 3.39127 53.8624 3.35186 53.9376 3.29976C53.9618 3.28197 53.9859 3.25273 54.0181 3.25019C54.3698 3.21842 54.7215 3.1892 55.0732 3.15997C55.1833 3.19428 55.2933 3.22733 55.4034 3.26164C55.4866 3.21335 55.5672 3.16378 55.6504 3.11549C56.182 3.07863 56.7055 3.02145 57.2424 3.00365C57.2773 3.00238 57.3149 3.02653 57.3525 3.03924C57.6021 3.11931 57.7444 3.11295 57.9028 3.0062C57.9592 2.96807 58.0075 2.93376 58.0934 2.92741C58.3592 2.90453 58.6278 2.88928 58.8908 2.86259C59.0331 2.84861 59.1512 2.86132 59.2532 2.90707C59.3257 2.94011 59.4009 2.9541 59.4895 2.94647C59.9781 2.90835 60.464 2.87149 60.9527 2.83082C60.9876 2.82828 61.0197 2.80667 61.0466 2.79142C61.103 2.75837 61.1513 2.7228 61.205 2.68849C61.2775 2.71009 61.358 2.72661 61.4171 2.75457C61.4923 2.78761 61.562 2.78761 61.6641 2.77871C63.6131 2.62494 65.5649 2.47498 67.514 2.31993C67.6804 2.30723 67.7529 2.36061 67.8657 2.38857C67.9033 2.39873 67.9408 2.41143 67.9811 2.41398C68.024 2.41652 68.0697 2.4089 68.1126 2.40509C69.5758 2.29071 71.0389 2.1776 72.5021 2.06322C72.6954 2.04797 72.6954 2.04797 72.9827 2.12676C73.0176 2.13693 73.0632 2.14837 73.1008 2.14456C73.7666 2.09499 74.4323 2.04162 75.0955 1.99079C75.1814 1.98443 75.2539 2.00476 75.3317 2.03399C75.4848 2.09118 75.4954 2.09119 75.6082 2.00731C75.6619 1.96791 75.7183 1.94376 75.8069 1.93232C75.9035 1.91961 75.9814 1.92344 76.0566 1.94631C76.164 1.97808 76.2418 2.03145 76.4056 2.01747C77.1143 1.95774 77.8258 1.90818 78.5318 1.84718C78.6929 1.8332 78.7788 1.87641 78.8862 1.90818C78.9238 1.91962 78.9587 1.93741 78.999 1.94122C79.0392 1.94504 79.0876 1.93613 79.1305 1.93232C80.0164 1.86369 80.905 1.79635 81.7883 1.72264C81.9548 1.70866 82.0273 1.7633 82.14 1.79126C82.1776 1.80142 82.2205 1.81922 82.2554 1.81668C82.787 1.77729 83.3213 1.73534 83.8529 1.6934C84.0435 1.67815 84.0434 1.67942 84.3334 1.75694C84.3683 1.76711 84.4139 1.77728 84.4515 1.77473C85.0717 1.72771 85.6945 1.67942 86.3147 1.63113C86.5053 1.61588 86.5053 1.61588 87.0556 1.68196C87.0959 1.68705 87.1389 1.69468 87.1791 1.69214C87.8879 1.63749 88.5993 1.58411 89.3081 1.52565C89.4503 1.51421 89.5685 1.52438 89.6705 1.57013C89.743 1.60317 89.8181 1.61716 89.9067 1.60953C90.7041 1.54726 91.5041 1.48753 92.2988 1.42145C92.4518 1.40874 92.5511 1.43669 92.6585 1.47354C92.6934 1.48625 92.7284 1.50405 92.7686 1.50913C92.8089 1.51421 92.8545 1.50913 92.8975 1.50531C93.6948 1.44304 94.4948 1.38459 95.2895 1.31723C95.4506 1.30325 95.5365 1.34646 95.6439 1.37823C95.6815 1.38967 95.7217 1.41254 95.7539 1.41127C96.0654 1.38967 96.3768 1.37061 96.6855 1.33884C96.852 1.32105 96.9245 1.3795 97.0372 1.40746C97.0748 1.41635 97.1177 1.43542 97.1526 1.43288C97.8184 1.38332 98.4843 1.33122 99.1474 1.27784C99.2414 1.27022 99.3111 1.28164 99.3863 1.31469C99.4856 1.35917 99.6011 1.37696 99.7461 1.36298C100.055 1.33375 100.366 1.31342 100.678 1.28928C100.86 1.2753 100.86 1.2753 101.419 1.34138C101.459 1.34647 101.502 1.35409 101.542 1.35155C102.074 1.31088 102.608 1.27148 103.137 1.227C103.279 1.2143 103.397 1.22573 103.499 1.27148C103.572 1.30452 103.644 1.31851 103.735 1.31089C104.224 1.27276 104.71 1.23463 105.199 1.19651C105.376 1.18253 105.553 1.15837 105.73 1.15837C105.859 1.15964 105.953 1.22064 106.068 1.25114C106.101 1.26004 106.154 1.24988 106.197 1.24734C106.817 1.19905 107.44 1.15457 108.058 1.09992C108.219 1.08594 108.305 1.12915 108.412 1.16092C108.45 1.17236 108.49 1.19523 108.522 1.19396C108.745 1.17998 108.965 1.16092 109.188 1.1444C109.454 1.12406 109.722 1.10881 109.985 1.08085C110.2 1.05798 110.281 1.16854 110.452 1.17235C110.584 1.17616 110.718 1.15456 110.85 1.1444C111.116 1.12406 111.381 1.10119 111.647 1.0834C111.741 1.07704 111.814 1.0567 111.843 1.01095C111.849 1.00205 111.803 0.983 111.773 0.971562C111.416 0.841935 111.416 0.841929 111.057 0.869888C110.834 0.88768 110.614 0.905475 110.391 0.920725C110.353 0.923267 110.31 0.9131 110.273 0.905475C110.165 0.883871 110.176 0.858456 110.267 0.812705C110.359 0.766955 110.428 0.711042 110.506 0.658937C110.616 0.691979 110.724 0.72501 110.834 0.758052C110.922 0.751698 111.011 0.744084 111.1 0.737729C111.542 0.704687 111.985 0.670372 112.428 0.639871C112.461 0.63733 112.501 0.66275 112.538 0.675459C112.646 0.712314 112.743 0.744076 112.898 0.730097C113.296 0.693242 113.696 0.666554 114.093 0.634783C114.267 0.620804 114.267 0.620805 114.573 0.699598C114.608 0.708494 114.654 0.718661 114.692 0.716119C115.092 0.68689 115.489 0.655122 115.889 0.624622C115.975 0.618267 116.058 0.634788 116.12 0.671643C116.144 0.686893 116.139 0.712305 116.241 0.920725C116.557 1.08975 116.775 1.07196 116.995 1.05671C117.089 1.05036 117.172 1.044 117.234 1.01858C117.266 1.0046 117.306 0.984267 117.306 0.967746C117.306 0.955037 117.247 0.9347 117.21 0.932158C116.944 0.906741 116.692 0.960124 116.431 0.971562C116.31 0.976645 116.206 0.932165 116.184 0.859726C116.179 0.839393 116.171 0.817789 116.163 0.797456C116.155 0.777122 116.149 0.755519 116.141 0.735185C116.037 0.728831 115.975 0.751703 115.929 0.794912C115.892 0.830496 115.838 0.871163 115.765 0.890226C115.693 0.910559 115.594 0.906753 115.505 0.913108C115.419 0.919462 115.325 0.935981 115.245 0.927085C115.164 0.916918 115.1 0.880058 115.024 0.857182C114.99 0.845744 114.947 0.82923 114.912 0.831771C114.603 0.853376 114.297 0.874972 113.991 0.902931C113.83 0.918181 113.749 0.864813 113.647 0.831771C113.567 0.806354 113.486 0.8127 113.473 0.87116C113.438 1.01095 113.561 1.06941 113.835 1.04272C114.061 1.01985 114.265 1.01605 114.442 1.10246C114.466 1.1139 114.522 1.11898 114.557 1.11644C114.777 1.10119 114.995 1.08213 115.215 1.06688C115.255 1.06433 115.298 1.06941 115.336 1.07449C115.884 1.14312 115.884 1.1444 116.069 1.12915C116.157 1.12152 116.243 1.11517 116.235 0.921997C116.404 0.714848 116.673 0.700871 116.933 0.670371C117.102 0.651308 117.175 0.707228 117.285 0.736457C117.323 0.746624 117.363 0.766954 117.398 0.764412C117.975 0.722474 118.549 0.677988 119.124 0.630967C119.221 0.623342 119.29 0.630968 119.366 0.66401C119.462 0.705948 119.57 0.732642 119.723 0.717391C120.029 0.686891 120.34 0.667833 120.652 0.642416C120.81 0.629707 120.81 0.629694 121.129 0.708487C121.164 0.717383 121.21 0.72755 121.248 0.725009C121.559 0.703404 121.868 0.676724 122.176 0.653849C122.262 0.647495 122.34 0.665285 122.407 0.699598C122.474 0.733911 122.555 0.751701 122.638 0.745347C122.95 0.722471 123.258 0.697062 123.567 0.674187C123.605 0.671645 123.65 0.68054 123.685 0.689436C124.013 0.768229 124.013 0.768216 124.163 0.755508C124.383 0.736445 124.609 0.727559 124.826 0.702142C125.038 0.676725 125.148 0.750428 125.293 0.791095C125.691 0.761866 126.091 0.737726 126.485 0.702142C126.646 0.686892 126.732 0.728826 126.84 0.761868C126.877 0.773306 126.915 0.797455 126.95 0.796184C127.084 0.7911 127.216 0.777123 127.347 0.766957C127.479 0.75679 127.613 0.746624 127.744 0.736457C127.895 0.773312 127.994 0.859729 128.209 0.830499C128.338 0.812707 128.475 0.808895 128.606 0.798728C128.738 0.788561 128.872 0.778396 129.004 0.768229C129.092 0.761874 129.183 0.758056 129.269 0.746619C129.428 0.727556 129.506 0.789835 129.618 0.817794C129.656 0.82669 129.699 0.84193 129.734 0.839388C130 0.821596 130.268 0.806347 130.528 0.777118C130.73 0.754242 130.867 0.792373 131.009 0.845749C131.039 0.857187 131.09 0.86354 131.127 0.860998C131.439 0.839394 131.747 0.812699 132.056 0.789823C132.139 0.783469 132.22 0.803802 132.287 0.836844C132.357 0.871157 132.435 0.887691 132.52 0.881336C132.829 0.858461 133.141 0.833037 133.449 0.810161C133.487 0.80762 133.533 0.817788 133.567 0.827955C133.868 0.906748 133.868 0.90802 134.045 0.89277C134.088 0.888957 134.134 0.886406 134.177 0.882593C134.397 0.864801 134.625 0.858456 134.84 0.827955C135.087 0.793642 135.267 0.836853 135.441 0.909291C135.662 0.894041 135.887 0.885143 136.102 0.859726C136.263 0.840664 136.349 0.888953 136.456 0.920725C136.494 0.932162 136.534 0.955038 136.566 0.952496C136.878 0.930892 137.189 0.911836 137.495 0.880064C137.662 0.862272 137.734 0.91945 137.847 0.94868C137.884 0.958847 137.925 0.976648 137.96 0.974106C138.137 0.963939 138.314 0.948682 138.491 0.934702C138.698 0.918181 138.698 0.919451 138.972 0.996973C139.101 1.03383 139.229 1.0046 139.356 0.995701C139.49 0.985534 139.616 0.977911 139.723 1.03002C139.791 1.06306 139.871 1.08339 139.954 1.07831C140.131 1.06687 140.311 1.05544 140.486 1.03638C140.625 1.02113 140.746 1.03129 140.848 1.07831C140.921 1.11135 140.996 1.12788 141.085 1.12026C141.482 1.08976 141.882 1.05797 142.279 1.02874C142.314 1.0262 142.362 1.03764 142.395 1.04908C142.47 1.07196 142.542 1.09737 142.615 1.12279C142.789 1.11135 142.969 1.10628 143.141 1.08849C143.324 1.07069 143.49 1.06434 143.632 1.13423C143.662 1.14949 143.705 1.17108 143.74 1.16981C143.874 1.16472 144.005 1.15202 144.137 1.14185C144.269 1.13169 144.403 1.12152 144.534 1.11135C144.687 1.14312 144.784 1.23462 144.999 1.20539C145.128 1.1876 145.265 1.18379 145.396 1.17362C145.528 1.16346 145.662 1.15202 145.793 1.14312C145.836 1.14058 145.885 1.13422 145.922 1.13931C145.963 1.14439 145.997 1.16219 146.032 1.1749C146.14 1.21175 146.239 1.24861 146.392 1.227C146.521 1.20921 146.658 1.2054 146.789 1.19396C146.969 1.17998 146.969 1.17998 147.267 1.26005C147.388 1.29309 147.525 1.24988 147.64 1.27784C147.718 1.2969 147.785 1.32867 147.861 1.35027C147.893 1.35917 147.944 1.36298 147.981 1.36043C148.159 1.349 148.338 1.33757 148.513 1.3185C148.655 1.30325 148.773 1.3185 148.873 1.36425C148.945 1.39729 149.018 1.41128 149.109 1.40365C149.552 1.36807 149.995 1.33756 150.435 1.29816C150.586 1.28418 150.706 1.3058 150.79 1.35155C150.932 1.43034 151.133 1.33757 151.281 1.40111C151.372 1.44051 151.463 1.48626 151.63 1.4672C151.936 1.43416 152.247 1.41635 152.556 1.39348C152.666 1.42779 152.776 1.46211 152.889 1.49642C153.066 1.48245 153.243 1.46846 153.421 1.45575C153.552 1.44558 153.686 1.43415 153.818 1.42525C153.861 1.42271 153.906 1.41762 153.947 1.42398C153.987 1.43033 154.019 1.44686 154.057 1.45957C154.242 1.52184 154.242 1.52311 154.548 1.4977C154.68 1.48626 154.806 1.47863 154.916 1.52947C155.018 1.57649 155.139 1.58538 155.278 1.5714C155.541 1.54598 155.807 1.52692 156.076 1.50913C156.159 1.50278 156.237 1.52438 156.307 1.55742C156.411 1.60953 156.54 1.60445 156.672 1.59047C156.846 1.57267 157.018 1.55489 157.166 1.62605C157.195 1.6413 157.241 1.6629 157.273 1.66163C157.493 1.65146 157.716 1.64384 157.931 1.61969C158.146 1.59555 158.25 1.67434 158.398 1.71246C158.618 1.69594 158.841 1.67942 159.061 1.6629C159.104 1.65909 159.155 1.64766 159.193 1.65401C159.351 1.6807 159.442 1.77601 159.66 1.74678C159.786 1.73026 159.923 1.72518 160.054 1.72137C160.089 1.7201 160.135 1.74169 160.159 1.75821C160.173 1.76711 160.159 1.79125 160.143 1.80396C160.095 1.83955 160.036 1.8726 159.993 1.90945C159.987 1.91454 160.038 1.9374 160.068 1.94757C160.14 1.97044 160.223 1.96664 160.32 1.95647C160.403 1.94758 160.489 1.96537 160.548 2.00349C160.573 2.01874 160.564 2.04416 160.513 2.12803C160.513 2.19031 160.57 2.16234 160.589 2.12167C160.618 2.06322 160.562 2.04415 160.454 2.07593C160.379 2.0988 160.342 2.13185 160.36 2.15853C160.371 2.17251 160.422 2.19031 160.513 2.12803C160.75 2.05178 160.927 2.03781 161.104 2.02383C161.15 2.02002 161.203 2.0073 161.236 2.01493C161.351 2.04543 161.458 2.08229 161.571 2.1166C161.7 2.10898 161.821 2.0899 161.947 2.13947C162.124 2.20937 162.132 2.20301 162.304 2.18903C162.393 2.18141 162.481 2.17506 162.57 2.16871C162.659 2.16236 162.728 2.18141 162.806 2.21064C162.965 2.27037 162.978 2.27037 163.083 2.18903C163.144 2.13947 163.187 2.12295 163.265 2.14583C163.523 2.22335 163.526 2.22843 163.746 2.20555C163.928 2.18649 164.1 2.18141 164.234 2.25385C164.326 2.30468 164.355 2.29325 164.428 2.23987C164.621 2.09881 164.71 2.10134 165.072 2.20301C165.241 2.2513 165.416 2.1992 165.587 2.19285C165.732 2.18777 165.834 2.21826 165.845 2.29832C165.853 2.34789 165.877 2.38348 165.974 2.4C166.012 2.40635 166.057 2.41525 166.095 2.4127C166.318 2.39745 166.538 2.37966 166.761 2.36187C166.873 2.35297 166.935 2.29325 166.914 2.21446C166.89 2.13058 166.932 2.10007 167.094 2.07593C167.19 2.06195 167.268 2.0645 167.346 2.08737C167.432 2.11279 167.408 2.13567 167.333 2.18142C167.153 2.29325 167.174 2.36187 167.405 2.43939C167.486 2.46608 167.55 2.49023 167.569 2.52963C167.579 2.54996 167.569 2.57665 167.593 2.5919C167.724 2.67705 167.907 2.7317 168.111 2.77237C168.307 2.73805 168.441 2.79523 168.592 2.84098C168.71 2.87656 168.849 2.84607 168.975 2.83336C169.118 2.81938 169.236 2.82955 169.338 2.87657C169.41 2.90961 169.486 2.92486 169.574 2.9185C169.751 2.90452 169.931 2.89563 170.106 2.8753C170.256 2.8575 170.369 2.88292 170.463 2.92613C170.581 2.98078 170.713 2.94392 170.836 2.95154C171.002 2.96044 171.086 3.07354 171.303 3.04304C171.432 3.02525 171.566 3.0189 171.7 3.01382C171.735 3.01254 171.778 3.03415 171.808 3.0494C171.95 3.1193 172.117 3.11549 172.299 3.09515C172.425 3.08117 172.549 3.06847 172.672 3.11676C172.876 3.1981 173.102 3.26927 173.317 3.34425C173.346 3.40271 173.325 3.47132 173.478 3.50563C173.558 3.52343 173.633 3.55012 173.695 3.57935C173.77 3.61367 173.84 3.62257 173.937 3.61367C174.111 3.59588 174.294 3.59205 174.466 3.56918C174.624 3.54884 174.723 3.59079 174.82 3.63019C174.898 3.66196 174.97 3.67721 175.064 3.65433C175.161 3.63273 175.231 3.6467 175.309 3.68101C175.419 3.72803 175.427 3.72296 175.792 3.73694C175.829 3.73821 175.875 3.75726 175.897 3.77378C175.907 3.78268 175.883 3.80811 175.864 3.82082C175.84 3.83607 175.803 3.85385 175.768 3.85766C175.37 3.89071 174.97 3.91993 174.573 3.95298C174.533 3.95679 174.49 3.96569 174.46 3.9784C174.428 3.99238 174.388 4.01143 174.388 4.02923C174.388 4.04193 174.441 4.05719 174.479 4.06608C174.597 4.09531 174.737 4.05084 174.852 4.08388C174.93 4.10548 174.995 4.13598 175.072 4.15631C175.105 4.16521 175.156 4.16394 175.196 4.1614C175.33 4.1525 175.462 4.1398 175.596 4.13217C175.634 4.1309 175.676 4.14362 175.711 4.15378C175.969 4.23003 175.969 4.23003 176.192 4.21351C176.281 4.20715 176.374 4.18809 176.458 4.19571C176.538 4.20334 176.608 4.23765 176.681 4.25926C176.831 4.30501 176.973 4.34949 176.984 4.44861C176.989 4.48674 177.078 4.51977 177.166 4.52232C177.252 4.52486 177.344 4.51089 177.432 4.50327C177.642 4.48802 177.642 4.48801 177.913 4.56554C177.988 4.58714 178.068 4.58968 178.165 4.57697C178.203 4.57189 178.248 4.57698 178.289 4.58333C178.42 4.60239 178.42 4.62653 178.334 4.67228C178.213 4.73964 178.224 4.746 178.562 4.80319C178.691 4.82479 178.791 4.86546 178.898 4.90104C179.073 4.95823 179.07 4.95822 178.954 5.0332C178.928 5.04972 178.903 5.06752 178.877 5.08531C178.799 5.13487 178.737 5.18825 178.576 5.19333C178.399 5.19841 178.221 5.21875 178.044 5.23273C177.872 5.24671 177.827 5.2772 177.843 5.36362C177.862 5.46783 177.897 5.47927 178.205 5.478C178.294 5.478 178.372 5.48816 178.439 5.52248C178.407 5.56314 178.348 5.59492 178.262 5.60254C178.042 5.6216 177.819 5.63813 177.599 5.65465C177.421 5.66863 177.244 5.6826 177.067 5.69658C176.957 5.70548 176.887 5.77157 176.917 5.84528C176.933 5.88722 176.946 5.92915 176.96 5.97109C176.989 6.05497 177.046 6.07658 177.225 6.07277C177.271 6.0715 177.314 6.06132 177.357 6.06386C177.532 6.07276 177.615 6.17824 177.824 6.15663C177.999 6.13884 178.181 6.13503 178.353 6.11215C178.511 6.09182 178.6 6.13758 178.71 6.1719C178.748 6.18333 178.788 6.20747 178.82 6.2062C179.043 6.19222 179.266 6.17825 179.483 6.1541C179.585 6.14394 179.647 6.15156 179.728 6.18206C179.921 6.25577 179.926 6.25195 180.214 6.22908C180.423 6.21129 180.426 6.21383 180.694 6.29135C180.769 6.31295 180.85 6.31295 180.946 6.30278C181.073 6.29007 181.204 6.26974 181.336 6.2888C181.376 6.29389 181.427 6.30914 181.44 6.32566C181.449 6.3371 181.411 6.36506 181.379 6.37396C181.142 6.44004 180.866 6.42861 180.608 6.45529C180.528 6.46292 180.447 6.43877 180.38 6.40446C180.31 6.37014 180.235 6.35617 180.144 6.36252C179.967 6.3765 179.787 6.3854 179.612 6.40573C179.462 6.42352 179.357 6.39429 179.252 6.35489C179.217 6.34218 179.177 6.31803 179.142 6.3193C178.745 6.34472 178.345 6.37014 177.95 6.40573C177.792 6.42098 177.701 6.38032 177.593 6.346C177.556 6.33456 177.518 6.31042 177.483 6.31169C177.349 6.31677 177.217 6.33075 177.083 6.34091C176.595 6.37904 176.109 6.41717 175.62 6.45275C175.588 6.45529 175.548 6.4286 175.51 6.41716C175.438 6.39429 175.362 6.37268 175.287 6.35108C175.153 6.36124 175.021 6.37395 174.887 6.38157C174.79 6.38666 174.705 6.40446 174.691 6.45275C174.683 6.48452 174.772 6.51375 174.866 6.5112C174.957 6.50866 175.048 6.49341 175.123 6.50993C175.497 6.59127 175.497 6.59254 175.73 6.57602C175.934 6.56077 175.913 6.54805 176.093 6.61795C176.17 6.64845 176.24 6.66625 176.329 6.65863C176.549 6.64084 176.772 6.62304 176.995 6.60779C177.03 6.60525 177.075 6.61796 177.11 6.62813C177.373 6.70438 177.373 6.70692 177.591 6.68785C177.875 6.66498 177.886 6.65863 178.077 6.73615C178.208 6.78952 178.329 6.75267 178.455 6.75012C178.6 6.79969 178.758 6.84417 178.89 6.90009C179.046 6.96618 179.209 6.95473 179.387 6.93566C179.518 6.92168 179.647 6.9166 179.754 6.96871C179.856 7.017 179.98 7.02209 180.12 7.00938C180.246 6.99795 180.375 6.97379 180.506 7.00175C180.541 7.00938 180.595 7.02845 180.592 7.03988C180.589 7.05767 180.554 7.0831 180.52 7.09072C180.273 7.14283 180.001 7.14155 179.741 7.1657C179.706 7.16951 179.661 7.15552 179.626 7.14536C179.55 7.12248 179.478 7.0958 179.405 7.07165C179.274 7.07928 179.14 7.08181 179.011 7.09706C178.911 7.1085 178.836 7.10724 178.764 7.07674C178.697 7.04878 178.624 7.01446 178.544 7.00557C178.463 6.99667 178.369 7.01574 178.281 7.02336C178.192 7.03099 178.09 7.02717 178.02 7.0475C177.95 7.06783 177.907 7.11232 177.862 7.1479C177.811 7.1873 177.741 7.20002 177.639 7.20383C177.545 7.20764 177.47 7.20255 177.4 7.16697C177.37 7.15172 177.33 7.14028 177.29 7.13011C177.252 7.12121 177.209 7.10723 177.174 7.10977C176.774 7.139 176.377 7.17078 175.977 7.20128C175.778 7.21653 175.781 7.21652 175.368 7.14154C175.33 7.13519 175.284 7.12629 175.247 7.12884C175.024 7.14409 174.804 7.16188 174.581 7.17967C174.356 7.19747 174.358 7.19492 173.974 7.11486C173.905 7.09961 173.803 7.11994 173.719 7.1174C173.545 7.11105 173.459 7.0043 173.255 7.02463C173.08 7.04243 172.898 7.04623 172.723 7.06911C172.565 7.08944 172.474 7.04497 172.366 7.01066C172.329 6.99922 172.288 6.9738 172.256 6.97634C171.856 7.0043 171.459 7.03607 170.927 7.03988C170.796 7.03988 170.855 7.06657 170.941 7.07547C171.064 7.08945 171.104 7.06276 171.037 7.01193C170.989 6.97634 170.919 6.95854 170.863 6.96744C170.833 6.97252 170.796 6.99667 170.927 7.03988C171.067 7.08818 171.059 7.11486 171.083 7.13011C171.142 7.16696 171.225 7.18221 171.311 7.17713C171.445 7.16823 171.577 7.15553 171.711 7.1479C171.749 7.14536 171.794 7.15426 171.829 7.16442C172.125 7.24322 172.127 7.24831 172.441 7.21781C172.541 7.20891 172.613 7.20891 172.691 7.23306C172.798 7.2661 172.876 7.32201 173.04 7.30421C173.258 7.28007 173.48 7.2661 173.703 7.25212C173.738 7.24958 173.776 7.27245 173.816 7.28262C173.926 7.31312 174.007 7.37031 174.17 7.34616C174.297 7.3271 174.433 7.322 174.568 7.31819C174.603 7.31692 174.656 7.33726 174.672 7.35378C174.705 7.38301 174.664 7.41733 174.573 7.44148C174.535 7.45164 174.484 7.4491 174.441 7.45291C174.264 7.46689 174.087 7.48213 173.91 7.49357C173.816 7.49992 173.727 7.519 173.717 7.56602C173.709 7.59779 173.805 7.62574 173.897 7.6232C174.031 7.61939 174.165 7.60922 174.294 7.5927C174.522 7.56474 174.721 7.57236 174.906 7.65243C175.037 7.70834 175.029 7.68802 175.169 7.85323C175.204 7.89517 175.309 7.89898 175.4 7.89644C175.62 7.89008 175.722 7.90915 175.703 7.94855C175.679 7.99684 175.601 8.01208 175.502 8.01843C175.325 8.0286 175.148 8.04513 174.97 8.05911C174.927 8.06292 174.879 8.07054 174.839 8.068C174.799 8.06546 174.761 8.05021 174.726 8.03877C174.651 8.01463 174.586 7.97776 174.506 7.96887C174.425 7.95997 174.331 7.97904 174.243 7.98666C174.154 7.99302 174.06 8.01208 173.98 8.00318C173.899 7.99429 173.832 7.95617 173.76 7.9333C173.725 7.92186 173.682 7.90405 173.647 7.90533C173.47 7.91549 173.292 7.93202 173.115 7.94473C172.898 7.96125 172.898 7.96125 172.635 7.88246C172.56 7.85958 172.482 7.86086 172.382 7.87103C172.168 7.89136 172.165 7.88754 171.773 7.81383C171.735 7.8062 171.69 7.79731 171.652 7.80112C171.252 7.83035 170.855 7.86212 170.457 7.89262C170.116 7.91931 170.116 7.91932 169.929 8.0464C169.789 8.14045 169.786 8.14044 169.923 8.18365C170.033 8.21923 170.133 8.27133 170.253 8.2904C170.366 8.30819 170.506 8.251 170.629 8.30946C170.691 8.33869 170.772 8.37047 170.849 8.37555C170.973 8.3819 171.104 8.34504 171.223 8.40096C171.282 8.42892 171.37 8.45816 171.445 8.45943C171.577 8.46197 171.711 8.44163 171.843 8.43273C171.883 8.43019 171.929 8.43019 171.966 8.43655C172.007 8.44417 172.041 8.45943 172.076 8.47214C172.184 8.51535 172.299 8.53567 172.439 8.51407C172.667 8.47848 172.871 8.49628 173.048 8.57761C173.072 8.58905 173.131 8.59033 173.169 8.58524C173.266 8.57254 173.349 8.57126 173.421 8.59541C173.451 8.60557 173.494 8.62336 173.488 8.63479C173.48 8.65386 173.448 8.67928 173.413 8.68563C173.161 8.72884 172.89 8.73393 172.629 8.75681C172.594 8.75935 172.552 8.74282 172.517 8.73138C172.441 8.7085 172.377 8.67039 172.296 8.66149C172.216 8.6526 172.122 8.66912 172.033 8.67547C171.945 8.68182 171.851 8.70089 171.77 8.69326C171.69 8.68437 171.615 8.65259 171.55 8.62463C171.475 8.59286 171.402 8.58906 171.303 8.60177C171.174 8.61829 171.04 8.62082 170.909 8.62972C170.836 8.60557 170.764 8.57888 170.688 8.556C170.653 8.54456 170.611 8.53059 170.573 8.53186C170.396 8.54203 170.218 8.55727 170.041 8.57125C169.864 8.58523 169.864 8.58524 169.563 8.50645C169.529 8.49756 169.483 8.48739 169.445 8.48993C169.222 8.50518 169.002 8.52423 168.78 8.53948C168.694 8.54583 168.616 8.52804 168.546 8.49373C168.479 8.45942 168.398 8.44036 168.315 8.44671C167.961 8.4734 167.606 8.49882 167.252 8.53059C167.11 8.5433 166.989 8.53186 166.892 8.48611C166.779 8.43401 166.653 8.44672 166.522 8.45689C166.224 8.4823 166.221 8.48102 166.03 8.41621C165.993 8.4035 165.955 8.37935 165.92 8.38062C165.612 8.39969 165.3 8.41748 164.994 8.44798C164.833 8.4645 164.747 8.42003 164.64 8.38698C164.602 8.37555 164.562 8.3514 164.53 8.35394C164.307 8.36792 164.084 8.38063 163.867 8.40605C163.649 8.43147 163.566 8.31328 163.402 8.31455C163.179 8.31582 162.959 8.34505 162.739 8.36284C162.562 8.37682 162.385 8.3908 162.207 8.40478C162.03 8.41876 161.853 8.43019 161.676 8.44671C161.582 8.45561 161.512 8.44417 161.434 8.41239C161.335 8.37046 161.217 8.33743 161.109 8.2993C160.946 8.24466 160.946 8.24465 160.747 8.2599C160.704 8.26371 160.658 8.26625 160.615 8.27006C160.291 8.29802 160.291 8.29549 159.877 8.21542C159.858 8.21161 159.81 8.22559 159.791 8.23576C159.735 8.2688 159.684 8.30438 159.633 8.33869C159.56 8.31836 159.472 8.30692 159.424 8.27769C159.287 8.19509 159.072 8.30819 158.932 8.22685C158.881 8.19635 158.793 8.16967 158.712 8.16204C158.629 8.15442 158.535 8.17221 158.449 8.17983C158.226 8.1989 158.226 8.19763 158.035 8.31074C157.939 8.36665 157.799 8.35648 157.673 8.36919C157.542 8.38317 157.415 8.3908 157.305 8.33869C157.206 8.29167 157.085 8.28024 156.943 8.29549C156.768 8.31455 156.589 8.32598 156.411 8.33742C156.374 8.33996 156.328 8.33361 156.29 8.32598C155.88 8.251 155.88 8.24974 155.681 8.26626C155.592 8.27388 155.501 8.27642 155.415 8.28785C155.27 8.30819 155.16 8.2815 155.056 8.24083C155.021 8.22812 154.98 8.20399 154.945 8.20526C154.768 8.21161 154.594 8.22305 154.419 8.23449C154.285 8.24338 154.151 8.24847 154.022 8.26626C153.807 8.29549 153.702 8.21287 153.555 8.17475C153.335 8.19127 153.112 8.20271 152.892 8.22558C152.79 8.23575 152.723 8.23194 152.645 8.20144C152.545 8.16332 152.454 8.12011 152.293 8.13917C152.078 8.16459 151.853 8.17349 151.633 8.18874C151.485 8.14934 151.378 8.06927 151.165 8.0985C151.037 8.11629 150.9 8.1201 150.768 8.13027C150.591 8.14425 150.414 8.15697 150.237 8.17222C150.046 8.18747 150.049 8.18365 149.756 8.10867C149.587 8.06419 149.412 8.11375 149.241 8.12138C149.106 8.12773 149.039 8.18619 149.071 8.26117C149.104 8.33615 149.031 8.39461 148.908 8.40478C148.599 8.42892 148.287 8.45433 147.979 8.47594C147.941 8.47848 147.896 8.46958 147.861 8.46069C147.53 8.38062 147.53 8.38191 147.383 8.39334C147.163 8.41241 146.937 8.42256 146.72 8.44671C146.569 8.46323 146.459 8.43655 146.363 8.39334C146.287 8.3603 146.218 8.35268 146.121 8.3603C145.058 8.44545 143.995 8.52424 142.934 8.61193C142.776 8.62464 142.685 8.58779 142.577 8.55347C142.54 8.54204 142.505 8.51789 142.467 8.51789C142.379 8.51789 142.29 8.52933 142.201 8.53695C141.804 8.56745 141.407 8.6043 141.007 8.62718C140.838 8.63734 140.792 8.69581 140.719 8.7441C140.663 8.78096 140.599 8.7962 140.499 8.80128C140.403 8.80637 140.333 8.80001 140.258 8.76697C140.161 8.72376 140.051 8.69707 139.901 8.71486C139.726 8.73519 139.549 8.7441 139.369 8.75808C139.278 8.76443 139.208 8.7873 139.178 8.83305C139.173 8.84068 139.229 8.85975 139.262 8.87119C139.369 8.90931 139.471 8.95379 139.592 8.98048C139.715 9.00716 139.85 8.97665 139.978 8.96903C140.024 8.96649 140.067 8.95887 140.11 8.96014C140.15 8.96141 140.199 8.96777 140.228 8.9792C140.368 9.03639 140.515 9.07579 140.709 9.04148C140.875 9.058 140.961 9.16348 141.173 9.13552C141.302 9.119 141.436 9.11137 141.57 9.10502C141.605 9.10375 141.643 9.12662 141.681 9.13806C141.788 9.16983 141.874 9.22066 142.035 9.19906C142.207 9.17618 142.389 9.17237 142.564 9.15458C142.66 9.14442 142.73 9.15331 142.805 9.18635C142.902 9.22829 143.012 9.26005 143.162 9.23972C143.291 9.22193 143.428 9.21811 143.56 9.20668C143.732 9.1927 143.732 9.19397 144.038 9.27276C144.073 9.28166 144.118 9.29183 144.156 9.28929C144.379 9.27403 144.599 9.25497 144.822 9.23972C144.907 9.23337 144.991 9.24989 145.05 9.28674C145.074 9.30199 145.066 9.32742 145.074 9.34903C144.631 9.38334 144.188 9.41256 143.748 9.4545C143.581 9.47102 143.506 9.41892 143.396 9.38969C143.358 9.37952 143.318 9.35792 143.283 9.36046C142.972 9.38206 142.663 9.40493 142.354 9.43289C142.258 9.44179 142.185 9.4367 142.113 9.39985C141.928 9.30199 141.702 9.35537 141.493 9.36935C141.332 9.37952 141.281 9.41892 141.299 9.5028C141.323 9.60192 141.42 9.63242 141.667 9.61463C141.756 9.60828 141.844 9.59938 141.933 9.59429C142.019 9.58921 142.097 9.60573 142.166 9.64004C142.234 9.67435 142.314 9.69215 142.397 9.68706C142.574 9.67562 142.754 9.66419 142.926 9.64513C143.068 9.62988 143.187 9.64259 143.286 9.68961C143.396 9.74171 143.525 9.73027 143.654 9.71883C143.954 9.69342 143.957 9.6947 144.145 9.75824C144.183 9.77095 144.22 9.7951 144.255 9.79383C144.564 9.77476 144.875 9.75824 145.179 9.72774C145.337 9.71249 145.428 9.75315 145.533 9.78619C145.571 9.79763 145.608 9.82305 145.643 9.82051C145.866 9.80653 146.089 9.79255 146.306 9.7684C146.408 9.75696 146.47 9.76458 146.553 9.79508C146.752 9.87006 146.757 9.86752 147.039 9.84338C147.125 9.83575 147.219 9.82177 147.3 9.83194C147.38 9.84211 147.445 9.87897 147.52 9.90184C147.555 9.91201 147.598 9.92598 147.635 9.92344C147.812 9.91327 147.989 9.89803 148.167 9.88405C148.333 9.87007 148.333 9.87134 148.645 9.95014C148.771 9.98318 148.902 9.95522 149.028 9.94505C149.165 9.93361 149.289 9.93362 149.394 9.98318C149.498 10.0327 149.624 10.0302 149.759 10.02C149.885 10.0099 150.014 9.98191 150.143 10.0162C150.438 10.095 150.438 10.0963 150.62 10.081C150.886 10.0594 151.149 10.0391 151.418 10.02C151.453 10.0175 151.498 10.0327 151.533 10.0429C151.608 10.0658 151.673 10.1039 151.753 10.1128C151.834 10.123 151.928 10.1077 152.014 10.1001C152.29 10.0759 152.309 10.0671 152.494 10.1509C152.65 10.2196 152.843 10.1204 152.988 10.1992C153.072 10.2437 153.184 10.2793 153.34 10.2577C153.469 10.2399 153.603 10.2348 153.737 10.2246C153.949 10.2081 153.949 10.2094 154.218 10.2856C154.253 10.2958 154.298 10.3085 154.333 10.306C154.511 10.2958 154.69 10.2869 154.862 10.264C155.064 10.2373 155.192 10.2856 155.343 10.3327C155.461 10.3695 155.601 10.339 155.727 10.3263C155.864 10.3136 155.987 10.3174 156.089 10.367C156.196 10.4178 156.323 10.4114 156.457 10.4013C156.583 10.3924 156.712 10.3632 156.841 10.3987C157.117 10.4775 157.117 10.4775 157.319 10.4623C157.496 10.4483 157.673 10.4331 157.85 10.4229C157.885 10.4203 157.928 10.4369 157.963 10.4483C158.038 10.4712 158.103 10.5093 158.183 10.5182C158.264 10.5271 158.358 10.5106 158.446 10.5042C158.535 10.4979 158.629 10.4788 158.709 10.4864C158.79 10.4941 158.865 10.5258 158.93 10.5538C159.005 10.5868 159.074 10.5906 159.176 10.5779C159.305 10.5614 159.44 10.5576 159.571 10.5487C159.644 10.5729 159.719 10.597 159.789 10.6237C159.861 10.6516 159.939 10.6491 160.038 10.6402C160.368 10.6097 160.371 10.6135 160.648 10.6923C160.774 10.7279 160.905 10.6987 161.032 10.6898C161.166 10.6796 161.292 10.6745 161.397 10.7254C161.499 10.7736 161.625 10.78 161.759 10.7647C161.845 10.7546 161.936 10.7482 162.025 10.7444C162.065 10.7431 162.114 10.7482 162.143 10.7584C162.285 10.8118 162.425 10.8601 162.621 10.8258C162.793 10.8359 162.879 10.9401 163.085 10.9198C163.26 10.902 163.442 10.8982 163.614 10.8753C163.773 10.855 163.885 10.8906 163.966 10.935C164.111 11.0138 164.315 10.9071 164.46 10.9846C164.543 11.0291 164.65 11.0647 164.812 11.0456C164.989 11.0253 165.045 11.052 165.096 11.132C165.126 11.1778 165.12 11.2146 165.067 11.2502C165.013 11.2871 164.954 11.2807 164.868 11.2388C164.769 11.1918 164.651 11.1829 164.508 11.193C164.369 11.2032 164.283 11.1371 164.167 11.1117C164.052 11.085 163.915 11.1295 163.794 11.0952C163.51 11.0151 163.51 11.0151 163.316 11.0304C163.185 11.0405 163.048 11.0456 162.919 11.0634C162.766 11.085 162.667 11.0456 162.562 11.01C162.524 10.9973 162.487 10.9732 162.454 10.9744C162.146 10.9935 161.834 11.0113 161.528 11.0431C161.367 11.0596 161.281 11.0138 161.174 10.9821C161.136 10.9706 161.096 10.9478 161.064 10.9503C160.798 10.9681 160.535 10.991 160.269 11.0126C160.218 11.0469 160.162 11.0799 160.113 11.1168C160.062 11.1549 159.993 11.1714 159.891 11.1702C159.721 11.1702 159.555 11.2235 159.386 11.1562C159.211 11.0875 159.198 11.0914 159.029 11.1079C158.814 11.1295 158.586 11.1244 158.385 11.174C158.35 11.1829 158.312 11.207 158.312 11.2248C158.309 11.2362 158.366 11.2528 158.401 11.2629C158.519 11.2934 158.656 11.2489 158.774 11.2807C158.852 11.3011 158.916 11.3315 158.994 11.3531C159.026 11.362 159.074 11.3608 159.117 11.3595C159.163 11.3582 159.206 11.3493 159.249 11.3506C159.289 11.3519 159.332 11.3595 159.364 11.3709C159.512 11.4192 159.668 11.4637 159.799 11.5209C159.928 11.5768 160.049 11.5387 160.178 11.5362C160.693 11.6251 160.693 11.6264 161.04 11.5984C161.126 11.5921 161.214 11.5845 161.303 11.5857C161.34 11.5857 161.375 11.6086 161.413 11.6213C161.52 11.6594 161.622 11.6937 161.773 11.6734C161.901 11.6556 162.038 11.6518 162.17 11.6404C162.347 11.6264 162.347 11.6264 162.648 11.7064C162.723 11.7268 162.803 11.7242 162.9 11.7141C162.983 11.7052 163.069 11.7242 163.128 11.7611C163.152 11.7764 163.144 11.8018 163.152 11.8234C162.887 11.8437 162.618 11.8577 162.361 11.8882C162.194 11.9073 162.119 11.8526 162.009 11.8234C161.971 11.8132 161.931 11.7916 161.896 11.7941C161.633 11.8132 161.37 11.8348 161.107 11.8602C161.075 11.8628 161.034 11.892 161.032 11.9098C161.026 11.9428 161.093 11.9746 161.19 11.9733C161.319 11.9721 161.445 11.9504 161.56 12.0026C161.657 12.0483 161.778 12.0687 161.92 12.0483C162.006 12.0369 162.097 12.0369 162.183 12.0267C162.412 11.9962 162.618 12.0026 162.79 12.089C162.922 12.1119 163.05 12.0903 163.177 12.0788C163.271 12.0699 163.362 12.061 163.429 12.0852C163.571 12.136 163.711 12.1868 163.907 12.1525C164.119 12.1881 164.28 12.2631 164.457 12.3241C164.54 12.3533 164.605 12.3698 164.702 12.3508C164.742 12.3432 164.79 12.3431 164.833 12.3393C164.922 12.333 165.016 12.3139 165.096 12.3215C165.177 12.3304 165.244 12.3673 165.316 12.3902C165.351 12.4016 165.391 12.4207 165.426 12.4194C165.561 12.413 165.692 12.4003 165.824 12.3902C165.955 12.3813 166.087 12.3724 166.218 12.3635C166.328 12.3965 166.441 12.4296 166.551 12.4626C166.728 12.4486 166.906 12.4346 167.08 12.4219C167.276 12.4067 167.276 12.408 167.558 12.4868C167.684 12.5223 167.818 12.4995 167.939 12.4829C168.141 12.4563 168.275 12.5046 168.417 12.5554C168.447 12.5656 168.5 12.5719 168.535 12.5668C168.675 12.549 168.796 12.563 168.898 12.61C168.97 12.6431 169.043 12.6583 169.131 12.652C169.44 12.6278 169.749 12.6024 170.057 12.5808C170.095 12.5783 170.138 12.5897 170.173 12.5999C170.447 12.6774 170.449 12.6812 170.651 12.6609C170.831 12.6431 170.997 12.6354 171.139 12.7053C171.169 12.7206 171.214 12.7422 171.247 12.7409C171.467 12.7282 171.69 12.7142 171.907 12.6926C172.007 12.6825 172.076 12.6863 172.154 12.7155C172.253 12.7524 172.342 12.7969 172.506 12.7803C172.96 12.7333 172.962 12.7409 173.499 12.8286C173.537 12.835 173.588 12.8248 173.631 12.8197C173.722 12.807 173.789 12.8248 173.87 12.854C174.05 12.9201 174.055 12.9163 174.227 12.9023C174.358 12.8909 174.495 12.8883 174.624 12.8693C174.823 12.8413 174.954 12.8909 175.102 12.9379C175.22 12.9748 175.357 12.9443 175.483 12.9328C175.62 12.9201 175.744 12.9239 175.846 12.9722C175.915 13.0053 175.991 13.0231 176.079 13.0167C176.388 12.9938 176.697 12.9684 177.005 12.9455C177.043 12.943 177.089 12.9532 177.123 12.9621C177.43 13.0408 177.43 13.0447 177.733 13.0154C177.83 13.0065 177.91 13.004 177.983 13.0307C178.052 13.0561 178.128 13.0802 178.2 13.1044C178.332 13.0955 178.466 13.093 178.595 13.0777C178.694 13.0663 178.764 13.0714 178.842 13.098C178.944 13.1324 179.03 13.1921 179.191 13.1628C179.274 13.1489 179.371 13.1527 179.454 13.14C179.553 13.1235 179.62 13.1336 179.698 13.1667C179.795 13.2061 179.894 13.2467 180.05 13.2264C180.222 13.2035 180.404 13.1997 180.579 13.1819C180.675 13.1717 180.742 13.1819 180.82 13.215C180.917 13.2569 181.027 13.2836 181.177 13.2671C181.483 13.2353 181.486 13.2416 181.784 13.3217C181.859 13.342 181.94 13.3395 182.036 13.3293C182.12 13.3204 182.206 13.3395 182.265 13.3764C182.321 13.417 182.316 13.4424 182.321 13.464ZM158.398 2.00222C158.309 2.00858 158.221 2.0162 158.092 1.90564C158.084 1.88657 158.089 1.8637 158.07 1.84718C158.027 1.81287 157.96 1.78872 157.88 1.78491C157.735 1.77983 157.56 1.82303 157.563 1.85607C157.566 1.88403 157.611 1.90817 157.7 1.93105C157.737 1.93994 157.767 1.9552 157.802 1.96536C157.904 1.99459 157.985 2.05179 158.132 2.02256C158.105 1.94377 158.119 1.98316 158.132 2.02256C158.119 2.07085 158.159 2.10517 158.256 2.11915C158.282 2.12296 158.323 2.12041 158.344 2.11279C158.427 2.08483 158.441 2.04671 158.379 1.94631C158.368 1.96283 158.376 1.99205 158.401 1.99968C158.425 2.0073 158.484 2.00096 158.513 1.99206C158.589 1.96791 158.626 1.93614 158.607 1.90945C158.597 1.89547 158.546 1.87768 158.513 1.87768C158.457 1.87768 158.406 1.90564 158.398 2.00222ZM180.106 16.7403C179.91 16.7644 179.685 16.7555 179.489 16.8051C179.454 16.814 179.419 16.8369 179.416 16.8547C179.414 16.8661 179.467 16.8826 179.499 16.8915C179.572 16.9119 179.652 16.9055 179.746 16.8992C179.889 16.8903 179.972 16.9487 180.082 16.9779C180.117 16.9868 180.163 16.9932 180.2 16.9906C180.418 16.9754 180.632 16.9589 180.85 16.9411C180.887 16.9373 180.928 16.9284 180.96 16.9169C181.067 16.8801 181.057 16.8559 180.952 16.828C180.836 16.7975 180.745 16.7466 180.627 16.7225C180.458 16.6882 180.286 16.7339 180.106 16.7403ZM164.86 17.668C164.728 17.6782 164.599 17.6884 164.468 17.6985C164.425 17.7023 164.379 17.7036 164.339 17.7087C164.256 17.7176 164.194 17.7443 164.154 17.7862C164.216 17.8192 164.291 17.8383 164.374 17.8345C164.506 17.8269 164.634 17.8104 164.766 17.8065C164.908 17.8015 164.991 17.8586 165.102 17.8879C165.136 17.8968 165.179 17.898 165.22 17.8993C165.418 17.9044 165.539 17.8383 165.502 17.7455C165.475 17.6731 165.373 17.6299 165.249 17.6388C165.12 17.6477 164.989 17.6579 164.86 17.668ZM181.024 14.862C181.057 14.8404 181.091 14.8251 181.108 14.8061C181.156 14.7412 181.137 14.6929 181.048 14.6421C180.941 14.5798 180.81 14.6218 180.689 14.6281C180.659 14.6294 180.627 14.6561 180.611 14.6726C180.6 14.6841 180.6 14.7082 180.616 14.7146C180.748 14.7654 180.887 14.8124 181.024 14.862ZM157.735 11.1079C157.606 11.118 157.474 11.1257 157.346 11.1397C157.313 11.1435 157.284 11.1676 157.265 11.1841C157.23 11.2146 157.268 11.2566 157.378 11.2604C157.504 11.2655 157.635 11.2439 157.767 11.2337C157.933 11.221 158.033 11.174 157.971 11.1333C157.912 11.0939 157.831 11.0863 157.735 11.1079ZM16.4167 8.39207C16.5026 8.38572 16.5912 8.38063 16.6771 8.37173C16.7576 8.36284 16.8194 8.33488 16.8597 8.29294C16.7926 8.2599 16.7174 8.24211 16.6342 8.24592C16.5026 8.25355 16.3738 8.26371 16.2449 8.27642C16.1644 8.28405 16.0865 8.312 16.0677 8.35521C16.049 8.38825 16.2288 8.40732 16.4167 8.39207ZM146.381 8.19636C146.416 8.20779 146.451 8.23067 146.486 8.23067C146.572 8.23067 146.661 8.22304 146.741 8.21033C146.776 8.20525 146.803 8.18238 146.819 8.16458C146.83 8.15315 146.827 8.13282 146.811 8.12265C146.733 8.06165 146.422 8.08325 146.371 8.15315C146.365 8.16586 146.379 8.18238 146.381 8.19636ZM137.911 1.23717C137.919 1.2575 137.922 1.27783 137.933 1.29816C137.954 1.33629 138.013 1.36425 138.099 1.38332C138.166 1.35155 138.201 1.31597 138.199 1.27784C138.196 1.25751 138.188 1.23716 138.177 1.21683C138.156 1.1787 138.097 1.15075 138.011 1.13169C137.943 1.16219 137.911 1.19777 137.911 1.23717ZM187.229 17.8892C187.204 17.9057 187.18 17.9222 187.153 17.9374C187.226 17.9743 187.293 17.9857 187.344 17.9654C187.376 17.9527 187.395 17.9336 187.419 17.9171C187.347 17.8803 187.282 17.8701 187.229 17.8892ZM185.559 18.062C185.594 18.0734 185.626 18.0887 185.663 18.0963C185.725 18.109 185.782 18.0874 185.824 18.0416C185.79 18.0302 185.757 18.015 185.72 18.0073C185.658 17.9946 185.602 18.0162 185.559 18.062ZM186.616 17.8294C186.598 17.8599 186.635 17.8853 186.735 17.9069C186.759 17.8904 186.791 17.8752 186.807 17.8574C186.834 17.8281 186.788 17.8015 186.692 17.7811C186.665 17.7964 186.641 17.8129 186.616 17.8294ZM180.949 16.4594C180.93 16.4899 180.968 16.5154 181.067 16.537C181.091 16.5204 181.124 16.5052 181.14 16.4874C181.167 16.4582 181.121 16.4315 181.024 16.4111C180.997 16.4264 180.973 16.4429 180.949 16.4594ZM173.228 7.46689C173.204 7.48341 173.18 7.49993 173.153 7.51518C173.225 7.55204 173.292 7.56347 173.343 7.54314C173.376 7.53043 173.394 7.51136 173.419 7.49484C173.346 7.45799 173.282 7.44782 173.228 7.46689ZM165.832 2.6961C165.896 2.705 165.95 2.68721 165.996 2.64019C165.961 2.62875 165.928 2.6135 165.891 2.60588C165.829 2.59317 165.773 2.61478 165.73 2.66053C165.765 2.67324 165.8 2.68466 165.832 2.6961ZM161.904 2.39745C161.88 2.41398 161.856 2.4305 161.829 2.44575C161.901 2.4826 161.969 2.49404 162.02 2.4737C162.052 2.46099 162.071 2.44193 162.095 2.42541C162.022 2.38856 161.958 2.37966 161.904 2.39745ZM135.27 1.23589C135.245 1.25241 135.221 1.26894 135.194 1.28419C135.267 1.32104 135.334 1.33248 135.385 1.31214C135.417 1.29943 135.436 1.28037 135.46 1.26385C135.388 1.22699 135.323 1.2181 135.27 1.23589ZM2.64973 11.5755C2.61483 11.5641 2.57996 11.5527 2.54774 11.54C2.46989 11.5743 2.44574 11.6061 2.48869 11.6302C2.51554 11.6455 2.55578 11.6544 2.59068 11.6658C2.67122 11.6315 2.69 11.601 2.64973 11.5755Z" fill="#FFE492"/>
</svg>
