<svg width="274" height="31" viewBox="0 0 274 31" fill="none" xmlns="http://www.w3.org/2000/svg">
<path d="M257.795 16.382C257.419 16.4079 257.039 16.4257 256.671 16.4647C256.432 16.489 256.33 16.4177 256.17 16.3804C256.117 16.3674 256.06 16.3414 256.011 16.3447C255.639 16.3706 255.267 16.3998 254.895 16.429C254.781 16.4922 254.709 16.5765 254.534 16.6073C254.363 16.6365 254.162 16.6365 253.972 16.6511C253.722 16.6689 253.471 16.6868 253.221 16.703C253.095 16.7111 252.993 16.7419 252.951 16.8003C252.944 16.81 253.027 16.8343 253.073 16.8489C253.224 16.8976 253.372 16.9527 253.539 16.99C253.699 17.0256 253.896 16.9673 254.067 17.0127C254.451 17.1148 254.454 17.1132 254.747 17.0937C254.997 17.0759 255.248 17.0565 255.498 17.0435C255.548 17.0402 255.604 17.0646 255.658 17.0775C255.817 17.1132 255.92 17.1943 256.155 17.1635C256.333 17.1391 256.531 17.1343 256.717 17.1213C256.872 17.1683 257.017 17.2218 257.184 17.2591C257.339 17.2948 257.385 17.3224 257.301 17.3694C257.225 17.4131 257.119 17.431 256.979 17.4342C256.853 17.4358 256.728 17.4504 256.603 17.4585C256.538 17.4634 256.478 17.4667 256.417 17.4715C256.178 17.4893 256.178 17.4893 255.741 17.3856C255.57 17.345 255.377 17.4018 255.214 17.3629C255.103 17.3369 255.009 17.298 254.902 17.2705C254.857 17.2591 254.785 17.2575 254.728 17.2607C254.538 17.2721 254.348 17.2802 254.166 17.3013C254.037 17.3159 253.961 17.3613 253.976 17.4067C253.98 17.4245 254.071 17.4504 254.124 17.4521C254.245 17.4553 254.375 17.4326 254.492 17.4439C254.606 17.4553 254.724 17.4877 254.807 17.5234C254.978 17.598 255.172 17.5315 255.335 17.551C255.506 17.572 255.646 17.6369 255.809 17.6758C255.851 17.6855 255.931 17.6693 255.995 17.6644C256.181 17.6531 256.368 17.6434 256.554 17.632C256.709 17.679 256.876 17.7212 257.017 17.7747C257.271 17.872 257.544 17.9093 257.875 17.8622C258.061 17.8363 258.243 17.846 258.391 17.9093C258.543 17.9741 258.717 17.9676 258.911 17.9547C259.089 17.9417 259.271 17.906 259.454 17.9514C259.848 18.0519 259.852 18.0568 260.319 18.0179C260.46 18.0066 260.566 18.0033 260.672 18.0406C260.771 18.0746 260.877 18.1038 260.98 18.1363C261.166 18.1249 261.355 18.1136 261.541 18.1006C261.781 18.0828 261.913 18.1054 261.97 18.1962C262.005 18.2514 262.02 18.3016 262.103 18.3389C262.202 18.3843 262.308 18.3827 262.452 18.3697C262.589 18.3584 262.688 18.3405 262.745 18.2822C262.768 18.2579 262.813 18.2352 262.855 18.2157C262.889 18.2011 262.942 18.1784 262.973 18.1817C263.03 18.1881 263.105 18.206 263.124 18.227C263.31 18.4232 263.31 18.4249 263.5 18.4816C263.709 18.5448 263.925 18.6016 264.115 18.6729C264.286 18.7361 264.457 18.7086 264.643 18.7086C264.783 18.7086 264.874 18.7507 264.863 18.7929C264.855 18.8172 264.802 18.8529 264.757 18.8561C264.385 18.8885 264.009 18.9161 263.633 18.9388C263.587 18.942 263.531 18.9129 263.477 18.8983C263.371 18.8691 263.276 18.8237 263.162 18.814C263.048 18.8042 262.916 18.8286 262.79 18.8367C262.665 18.8448 262.532 18.8659 262.418 18.8529C262.304 18.8399 262.213 18.7929 262.107 18.7621C262.058 18.7475 261.989 18.7264 261.948 18.7313C261.671 18.7702 261.466 18.7167 261.268 18.6454C261.226 18.6308 261.154 18.621 261.101 18.6243C260.661 18.6518 260.224 18.6843 259.784 18.7151C259.606 18.728 259.461 18.6713 259.423 18.5756C259.404 18.5221 259.366 18.4686 259.366 18.4151C259.366 18.3178 259.158 18.2643 259.006 18.2757C258.755 18.2919 258.501 18.3049 258.254 18.3292C258.053 18.3486 257.882 18.3292 257.745 18.2708C257.586 18.2043 257.404 18.2173 257.222 18.2352C257.085 18.2481 257.047 18.3016 257.055 18.4362C257.062 18.5448 256.998 18.5789 256.751 18.5967C256.44 18.6194 256.125 18.6421 255.809 18.6599C255.76 18.6632 255.703 18.6356 255.654 18.621C255.548 18.5918 255.453 18.5448 255.339 18.5351C255.225 18.5237 255.092 18.5481 254.967 18.5578C254.841 18.5659 254.709 18.5886 254.595 18.5773C254.481 18.5659 254.386 18.5173 254.283 18.4865C254.234 18.4719 254.173 18.4508 254.124 18.454C253.873 18.467 253.623 18.4865 253.372 18.5043C253.092 18.5238 253.092 18.5238 252.693 18.4232C252.511 18.3778 252.329 18.4135 252.15 18.4265C251.96 18.4394 251.782 18.4459 251.634 18.3811C251.535 18.3389 251.425 18.313 251.307 18.3211C250.992 18.3405 250.681 18.3649 250.366 18.3843C250.313 18.3876 250.241 18.3795 250.199 18.3649C249.998 18.2968 249.8 18.2433 249.52 18.2773C249.277 18.3065 249.015 18.3081 248.772 18.3357C248.639 18.3503 248.578 18.4022 248.605 18.4427C248.62 18.4638 248.7 18.4881 248.753 18.4881C248.874 18.4897 249.007 18.4654 249.121 18.4751C249.356 18.4946 249.474 18.6308 249.781 18.5935C249.964 18.5708 250.153 18.5627 250.343 18.5562C250.393 18.5546 250.446 18.5854 250.499 18.6016C250.651 18.6454 250.784 18.7021 251.004 18.6729C251.186 18.6502 251.38 18.6437 251.566 18.6308C251.862 18.6097 251.862 18.6113 252.245 18.7102C252.427 18.7572 252.609 18.7199 252.788 18.7086C252.921 18.7005 253.046 18.6843 253.152 18.707C253.315 18.741 253.433 18.8188 253.634 18.814C253.824 18.8091 254.01 18.7864 254.2 18.7783C254.318 18.7734 254.428 18.7994 254.523 18.8432C254.621 18.8869 254.728 18.9064 254.857 18.8966C255.043 18.8837 255.232 18.8675 255.422 18.8594C255.475 18.8577 255.536 18.8723 255.586 18.8853C255.692 18.9145 255.794 18.9485 255.897 18.9793C256.083 18.9696 256.273 18.9664 256.455 18.9469C256.595 18.9323 256.694 18.9388 256.808 18.9712C256.952 19.015 257.07 19.0928 257.305 19.0556C257.423 19.0377 257.559 19.0426 257.677 19.0264C257.821 19.0053 257.92 19.0134 258.023 19.062C258.216 19.1544 258.459 19.1561 258.71 19.1204C258.983 19.0815 259.188 19.1269 259.393 19.1982C259.609 19.2728 259.609 19.2712 259.776 19.4512C259.826 19.503 259.966 19.5274 260.084 19.5176C260.281 19.5014 260.452 19.5095 260.596 19.5711C260.748 19.6376 260.93 19.6295 261.116 19.6117C261.363 19.5873 261.61 19.5663 261.811 19.6603C261.91 19.7057 262.016 19.717 262.149 19.7057C262.525 19.6765 262.904 19.6587 263.272 19.623C263.496 19.6003 263.625 19.6522 263.777 19.696C263.982 19.756 264.206 19.8095 264.206 19.9375C264.206 19.9586 264.259 19.9829 264.305 19.9992C264.404 20.0332 264.51 20.0624 264.612 20.0948C264.764 20.1435 264.912 20.184 265.121 20.158C265.303 20.137 265.497 20.1305 265.683 20.1159C265.869 20.1013 266.04 20.0932 266.207 20.1548C266.4 20.2245 266.605 20.291 266.825 20.3429C266.981 20.3802 267.186 20.3169 267.353 20.3672C267.456 20.398 267.554 20.4337 267.664 20.4596C267.71 20.471 267.782 20.4629 267.843 20.4596C267.968 20.4531 268.097 20.4483 268.219 20.4321C268.359 20.4142 268.465 20.4175 268.572 20.4548C268.67 20.4888 268.769 20.5358 268.883 20.5455C269.054 20.5601 269.244 20.4953 269.414 20.5699C269.502 20.6072 269.612 20.6428 269.726 20.6542C269.84 20.6655 269.972 20.6412 270.094 20.6428C270.147 20.6428 270.212 20.6688 270.242 20.6898C270.261 20.7012 270.234 20.732 270.208 20.7482C270.174 20.7677 270.124 20.7936 270.075 20.7969C269.699 20.826 269.323 20.8504 268.947 20.8779C268.724 20.8941 268.724 20.8941 268.272 20.792C268.165 20.7677 268.048 20.7725 267.915 20.7839C267.737 20.7985 267.554 20.826 267.368 20.7969C267.125 20.6866 266.826 20.6769 266.507 20.719C266.374 20.7369 266.252 20.7369 266.154 20.7061C265.945 20.6444 265.725 20.5877 265.539 20.5148C265.394 20.458 265.326 20.4531 265.265 20.531C265.246 20.5553 265.227 20.5812 265.231 20.6039C265.254 20.685 265.296 20.7644 265.318 20.8455C265.326 20.8682 265.296 20.8941 265.277 20.9185C265.216 20.9866 265.136 20.9817 265.003 20.9249C264.871 20.8682 264.711 20.8309 264.499 20.8568C264.316 20.8795 264.119 20.8763 263.937 20.9006C263.656 20.9363 263.458 20.8844 263.257 20.8147C263.216 20.8001 263.143 20.792 263.09 20.7952C262.525 20.8325 261.963 20.8747 261.397 20.912C261.276 20.9201 261.166 20.8958 261.071 20.852C260.972 20.8082 260.862 20.7855 260.74 20.7936C260.239 20.8277 259.738 20.8585 259.237 20.9006C259.032 20.9185 258.869 20.8974 258.729 20.8406C258.622 20.7985 258.524 20.7855 258.391 20.7904C258.246 20.7952 258.144 20.8115 258.072 20.8585C258.004 20.9039 258.053 20.9314 258.205 20.9671C258.368 21.006 258.52 21.0563 258.675 21.1017C258.801 21.0952 258.926 21.0822 259.047 21.0838C259.101 21.0838 259.15 21.113 259.203 21.1292C259.355 21.1762 259.495 21.2233 259.712 21.1973C259.894 21.1746 260.088 21.1698 260.274 21.1552C260.532 21.1373 260.532 21.1373 260.949 21.2395C261.056 21.2654 261.169 21.2638 261.306 21.2492C261.424 21.2378 261.545 21.2605 261.629 21.3092C261.663 21.3286 261.652 21.3611 261.579 21.4681C261.579 21.5475 261.659 21.5119 261.686 21.46C261.727 21.3854 261.648 21.3611 261.496 21.4016C261.39 21.4308 261.336 21.473 261.363 21.507C261.378 21.5248 261.45 21.5475 261.579 21.4681C261.914 21.3708 262.168 21.3595 262.411 21.3335C262.555 21.3189 262.646 21.3254 262.76 21.3676C262.897 21.4178 263.033 21.4713 263.257 21.4454C263.5 21.4162 263.758 21.413 264.005 21.3886C264.233 21.3659 264.351 21.4373 264.495 21.4794C264.669 21.5297 264.863 21.473 265.022 21.5021C265.189 21.5313 265.307 21.6026 265.501 21.6156C265.782 21.5718 265.96 21.6529 266.173 21.7064C266.34 21.747 266.537 21.7113 266.715 21.6934C266.917 21.674 267.084 21.6918 267.224 21.7502C267.384 21.8167 267.562 21.8021 267.744 21.7875C268.169 21.7551 268.184 21.7502 268.431 21.8394C268.61 21.9042 268.78 21.875 268.959 21.8669C269.115 21.9107 269.266 21.9577 269.43 21.9966C269.471 22.0064 269.551 21.9902 269.616 21.9853C269.802 21.9723 269.991 21.9593 270.177 21.9464C270.303 21.9383 270.436 21.9139 270.549 21.9237C270.663 21.935 270.758 21.9821 270.861 22.0129C270.963 22.0437 271.069 22.0745 271.168 22.1069C271.32 22.1555 271.464 22.1961 271.677 22.1717C271.859 22.1507 272.049 22.1442 272.239 22.1296C272.478 22.1118 272.47 22.1166 272.914 22.2139C273.153 22.2674 273.4 22.2026 273.643 22.1961C273.765 22.1928 273.882 22.2107 273.966 22.2577C274 22.2771 273.989 22.3096 274 22.3371C273.374 22.3809 272.743 22.4182 272.125 22.4717C271.886 22.4928 271.76 22.4344 271.631 22.3858C271.419 22.3079 271.138 22.4214 270.937 22.3209C270.815 22.2609 270.64 22.2269 270.432 22.2561C270.31 22.2723 270.181 22.2706 270.056 22.2852C269.737 22.3209 269.445 22.3225 269.19 22.2107C269.103 22.1717 268.978 22.1507 268.887 22.1134C268.78 22.0728 268.678 22.0501 268.553 22.0582C267.987 22.0972 267.425 22.1361 266.863 22.1782C266.814 22.1815 266.765 22.2058 266.723 22.2236C266.617 22.269 266.651 22.3047 266.822 22.3339C266.879 22.3436 266.924 22.3647 266.977 22.3809C267.08 22.4117 267.175 22.4603 267.289 22.4717C267.402 22.483 267.535 22.4603 267.661 22.4522C267.786 22.4441 267.919 22.4198 268.033 22.4295C268.147 22.4409 268.241 22.4879 268.348 22.5171C268.397 22.5317 268.458 22.556 268.507 22.5544C268.758 22.5446 269.004 22.5268 269.255 22.5122C269.411 22.556 269.543 22.6192 269.729 22.6338C269.847 22.6435 269.972 22.6257 270.094 22.629C270.147 22.6306 270.215 22.6549 270.242 22.676C270.257 22.6889 270.208 22.7214 270.17 22.7376C270.026 22.7992 269.828 22.7878 269.65 22.8073C269.456 22.8284 269.282 22.8219 269.133 22.7587C269.035 22.7165 268.925 22.6938 268.803 22.7019C268.488 22.723 268.177 22.7473 267.862 22.7652C267.809 22.7684 267.744 22.7538 267.695 22.7425C267.296 22.6436 267.296 22.6403 267.015 22.6614C266.602 22.6922 266.602 22.6922 266.324 22.6062C266.271 22.59 266.214 22.5592 266.169 22.5609C265.728 22.5868 265.292 22.6127 264.855 22.65C264.711 22.6614 264.612 22.6614 264.506 22.6192C264.415 22.5836 264.309 22.543 264.195 22.5333C264.077 22.5236 263.948 22.5479 263.823 22.556C263.698 22.5641 263.565 22.5852 263.455 22.5722C263.341 22.5592 263.242 22.5139 263.143 22.4814C263.041 22.4474 262.931 22.449 262.79 22.4619C262.358 22.4992 262.354 22.4944 261.925 22.3939C261.876 22.3825 261.811 22.3695 261.758 22.3728C261.443 22.3922 261.132 22.4166 260.816 22.436C260.695 22.4441 260.577 22.4231 260.494 22.376C260.46 22.3566 260.471 22.3241 260.448 22.2609C260.422 22.2463 260.452 22.2723 260.46 22.2966C260.516 22.2933 260.585 22.2966 260.627 22.2836C260.733 22.2528 260.786 22.2123 260.759 22.1782C260.744 22.1604 260.672 22.1377 260.627 22.1377C260.543 22.1377 260.471 22.1734 260.448 22.2609C260.209 22.3144 259.955 22.3258 259.708 22.3517C259.564 22.3679 259.473 22.3598 259.359 22.3177C259.222 22.2658 259.082 22.2155 258.858 22.2415C258.615 22.2706 258.357 22.2755 258.106 22.2982C257.818 22.3242 257.692 22.1782 257.449 22.1815C257.199 22.1847 256.948 22.2123 256.698 22.2317C256.478 22.2479 256.478 22.2479 256.022 22.1426C255.855 22.1036 255.658 22.1604 255.494 22.1199C255.384 22.0939 255.289 22.055 255.183 22.0274C255.138 22.0161 255.065 22.0161 255.009 22.0193C254.693 22.0388 254.375 22.0518 254.071 22.0874C253.725 22.1296 253.464 22.0842 253.217 21.9885C252.906 22.0064 252.59 22.0161 252.283 22.0469C252.059 22.0696 251.93 22.0161 251.778 21.9723C251.725 21.9577 251.679 21.9334 251.623 21.9269C251.566 21.9204 251.497 21.9334 251.436 21.9383C251.186 21.9561 250.928 21.9642 250.685 21.9934C250.385 22.0307 250.271 21.8977 250.04 21.8815C249.884 21.961 249.8 22.0696 249.493 22.0777C249.242 22.0842 248.992 22.1101 248.741 22.128C248.616 22.1361 248.491 22.1458 248.366 22.1539C248.164 22.1685 248.069 22.2317 248.111 22.329C248.134 22.3825 248.153 22.436 248.172 22.4895C248.21 22.5852 248.115 22.6662 247.956 22.6776C247.515 22.7084 247.079 22.7408 246.638 22.7684C246.521 22.7765 246.407 22.7489 246.312 22.7051C246.213 22.6614 246.103 22.6419 245.982 22.65C245.541 22.6808 245.105 22.7133 244.664 22.7408C244.615 22.7441 244.551 22.7279 244.501 22.7149C244.395 22.6857 244.292 22.6517 244.19 22.6209C243.939 22.6354 243.693 22.6452 243.446 22.6646C243.047 22.6938 243.047 22.6954 242.755 22.6062C242.702 22.59 242.649 22.5592 242.599 22.5609C242.41 22.5674 242.224 22.5836 242.034 22.5982C241.476 22.6403 241.476 22.6403 241.312 22.5917C241.164 22.5463 241.032 22.4911 240.808 22.5171C240.565 22.5463 240.307 22.556 240.056 22.5722C239.87 22.5836 239.684 22.5965 239.498 22.5998C239.449 22.6014 239.396 22.5706 239.342 22.5544C239.191 22.5041 239.042 22.4636 238.834 22.4911C238.712 22.5074 238.583 22.5106 238.458 22.5187C238.131 22.5414 238.131 22.5414 237.596 22.4441C237.543 22.4344 237.479 22.423 237.425 22.4279C236.985 22.4571 236.549 22.4895 236.108 22.5171C236.055 22.5203 235.991 22.5106 235.937 22.5025C235.338 22.4084 235.338 22.4085 234.7 22.4539C234.457 22.4701 234.449 22.4766 234.195 22.3906C234.081 22.3533 233.986 22.3355 233.853 22.3468C233.352 22.3858 232.847 22.4117 232.35 22.4571C232.126 22.4766 231.997 22.4279 231.845 22.3841C231.792 22.3695 231.735 22.3371 231.69 22.3387C231.189 22.3696 230.687 22.4068 230.186 22.4376C230.141 22.4409 230.084 22.4085 230.031 22.3939C229.928 22.3647 229.83 22.3209 229.716 22.3112C229.598 22.3014 229.469 22.3258 229.34 22.3339C229.025 22.355 229.025 22.3533 228.66 22.2577C228.611 22.2447 228.546 22.2269 228.497 22.2301C227.996 22.2625 227.491 22.2901 226.994 22.3371C226.709 22.3631 226.516 22.316 226.314 22.2479C226.273 22.2334 226.201 22.2269 226.147 22.2301C225.582 22.2674 225.02 22.3096 224.454 22.3468C224.337 22.3549 224.223 22.3274 224.128 22.2852C223.976 22.2188 223.798 22.2269 223.608 22.2415C223.171 22.2755 223.168 22.2739 222.909 22.1961C222.856 22.1799 222.811 22.1588 222.754 22.1507C222.701 22.1426 222.632 22.1474 222.575 22.1507C222.325 22.1669 222.074 22.1847 221.824 22.2025C221.573 22.2204 221.319 22.2301 221.072 22.2577C220.768 22.2917 220.624 22.1863 220.412 22.1377C220.1 22.1588 219.781 22.1717 219.474 22.2058C219.239 22.2317 219.129 22.1604 218.973 22.1231C218.92 22.1101 218.863 22.0826 218.814 22.0858C218.248 22.1215 217.682 22.1604 217.121 22.2042C216.984 22.2139 216.893 22.2009 216.779 22.162C216.525 22.0745 216.513 22.0777 216.088 22.1101C215.902 22.1247 215.724 22.1377 215.564 22.0712C215.424 22.0112 215.253 21.9966 215.052 22.0161C214.805 22.0404 214.551 22.0534 214.3 22.0696C214.05 22.0874 213.799 22.1117 213.548 22.1199C213.347 22.128 213.226 22.0518 213.066 22.0129C213.017 22.0015 212.949 21.9999 212.892 22.0031C212.641 22.0177 212.383 22.0291 212.14 22.0566C211.844 22.0907 211.681 22.0015 211.472 21.9496C211.427 21.9383 211.351 21.9448 211.294 21.9496C210.853 21.9788 210.417 22.0112 209.976 22.042C209.821 21.9983 209.661 21.9561 209.506 21.9123C209.255 21.9285 209.005 21.9464 208.754 21.9626C208.564 21.9756 208.371 21.9804 208.192 22.0047C207.961 22.0372 207.847 21.961 207.691 21.9237C207.638 21.9107 207.581 21.8831 207.532 21.8864C207.217 21.9042 206.902 21.9237 206.59 21.9512C206.294 21.9788 206.177 21.8329 205.934 21.8345C205.683 21.8361 205.425 21.8572 205.182 21.8864C204.901 21.9204 204.704 21.8685 204.503 21.7988C204.461 21.7842 204.389 21.7761 204.336 21.7794C204.02 21.7988 203.709 21.8232 203.394 21.8426C203.341 21.8459 203.277 21.8378 203.223 21.828C202.624 21.7324 202.624 21.7307 202.362 21.7502C202.176 21.7632 201.986 21.7794 201.796 21.7875C201.743 21.7907 201.678 21.7761 201.629 21.7632C201.234 21.6643 201.234 21.6626 200.949 21.6821C200.699 21.6999 200.448 21.7178 200.198 21.7356C200.042 21.6918 199.883 21.6497 199.727 21.6059C199.416 21.627 199.097 21.6432 198.79 21.6724C198.645 21.6853 198.55 21.6805 198.44 21.6399C198.304 21.5913 198.167 21.5346 197.939 21.5621C197.696 21.5913 197.438 21.5945 197.191 21.6189C196.895 21.6481 196.774 21.5005 196.535 21.5021C196.284 21.5038 196.026 21.5248 195.783 21.554C195.502 21.5881 195.305 21.5362 195.104 21.4665C195.062 21.4519 194.99 21.4438 194.937 21.447C194.246 21.494 193.559 21.541 192.868 21.5913C192.443 21.6221 192.443 21.6237 191.634 21.5346C191.577 21.5281 191.516 21.5216 191.459 21.5248C191.209 21.5394 190.951 21.5508 190.708 21.5783C190.412 21.6124 190.249 21.5248 190.04 21.4713C189.994 21.46 189.922 21.4665 189.861 21.4697C189.672 21.481 189.486 21.4957 189.296 21.5086C189.045 21.5265 188.795 21.5443 188.544 21.5621C188.388 21.52 188.229 21.4762 188.073 21.434C187.762 21.4551 187.443 21.4665 187.136 21.5005C186.9 21.5265 186.79 21.4584 186.635 21.4194C186.582 21.4065 186.525 21.3789 186.475 21.3805C185.91 21.4162 185.344 21.4535 184.782 21.4989C184.551 21.5183 184.444 21.4454 184.289 21.4081C184.236 21.3967 184.175 21.3757 184.126 21.3789C183.75 21.4016 183.374 21.4292 182.998 21.4567C182.786 21.4729 182.786 21.4729 182.322 21.3724C182.269 21.3611 182.209 21.3497 182.155 21.353C180.964 21.434 179.775 21.52 178.583 21.601C178.462 21.6091 178.352 21.5848 178.257 21.541C178.158 21.4973 178.048 21.4746 177.927 21.4827C177.426 21.5167 176.921 21.5475 176.423 21.5897C176.218 21.6075 176.055 21.5864 175.915 21.5297C175.808 21.4875 175.71 21.4713 175.577 21.4811C175.326 21.5005 175.076 21.5167 174.825 21.5346C174.575 21.5524 174.324 21.5702 174.074 21.5881C173.823 21.6059 173.569 21.6156 173.322 21.6432C173.018 21.6772 172.87 21.5767 172.662 21.5265C172.286 21.5508 171.91 21.5751 171.538 21.601C171.037 21.6351 170.536 21.6724 170.035 21.7048C169.989 21.708 169.932 21.6789 169.879 21.6643C169.724 21.6237 169.61 21.567 169.378 21.5848C168.254 21.6708 167.123 21.7437 165.996 21.828C165.76 21.8459 165.658 21.7761 165.499 21.7388C165.445 21.7275 165.385 21.7048 165.335 21.708C164.709 21.7486 164.083 21.794 163.456 21.8377C163.202 21.8556 163.202 21.8556 162.777 21.7551C162.727 21.7437 162.663 21.7291 162.61 21.7324C161.794 21.7875 160.981 21.8459 160.165 21.9026C160.044 21.9107 159.934 21.888 159.835 21.8442C159.74 21.8005 159.626 21.7761 159.508 21.7842C158.757 21.8361 158.001 21.8864 157.254 21.9431C157.052 21.9593 156.885 21.9448 156.741 21.8864C156.639 21.8442 156.536 21.8264 156.407 21.8361C155.28 21.9156 154.152 21.9918 153.025 22.0761C152.808 22.0923 152.657 22.0615 152.52 22.008C152.41 21.9658 152.315 21.9577 152.178 21.9642C152.034 21.9723 151.947 21.9901 151.867 22.0388C151.765 22.102 151.7 22.1815 151.457 22.1863C151.207 22.1912 150.952 22.2107 150.705 22.2382C150.47 22.2658 150.36 22.1928 150.212 22.149C150.102 22.1182 149.999 22.1134 149.859 22.128C149.73 22.1409 149.65 22.1685 149.574 22.2204C149.407 22.3306 149.392 22.3306 149.187 22.2609C149.077 22.2236 148.978 22.1944 148.857 22.2009C148.356 22.2333 147.855 22.269 147.354 22.3063C147.065 22.3274 147.061 22.3306 146.845 22.2496C146.739 22.209 146.636 22.1896 146.511 22.1993C145.133 22.2966 143.755 22.3906 142.377 22.4928C142.164 22.509 142.02 22.4749 141.868 22.4263C141.819 22.4101 141.77 22.3874 141.713 22.3809C141.656 22.3744 141.591 22.3809 141.531 22.3841C140.528 22.4538 139.522 22.5203 138.524 22.5982C138.296 22.616 138.175 22.5641 138.019 22.522C137.966 22.5074 137.92 22.4847 137.864 22.4782C137.807 22.4733 137.738 22.4847 137.678 22.4895C136.675 22.5592 135.669 22.6257 134.671 22.7035C134.432 22.7214 134.329 22.6533 134.174 22.6176C134.121 22.6046 134.064 22.5803 134.014 22.5835C133.699 22.6014 133.388 22.6257 133.073 22.6468C132.321 22.7003 131.57 22.7506 130.818 22.8057C130.53 22.8268 130.404 22.6825 130.161 22.6889C129.846 22.697 129.535 22.7295 129.22 22.7522C128.969 22.77 128.719 22.7862 128.468 22.8057C128.222 22.8235 128.222 22.8235 127.607 22.7295C127.554 22.7214 127.489 22.71 127.436 22.7133C126.559 22.7733 125.678 22.8332 124.805 22.8981C124.604 22.9127 124.437 22.9046 124.293 22.8446C124.19 22.8024 124.084 22.7814 123.959 22.7911C122.642 22.8835 121.328 22.9759 120.011 23.0667C119.962 23.07 119.897 23.0537 119.848 23.0408C119.741 23.0116 119.639 22.9776 119.536 22.9467C119.46 22.984 119.362 23.0181 119.312 23.0602C119.244 23.117 119.153 23.1332 119.009 23.1429C118.865 23.1526 118.773 23.1494 118.66 23.1073C118.523 23.0554 118.382 23.0148 118.158 23.031C116.781 23.1332 115.403 23.2256 114.025 23.3261C113.797 23.3423 113.691 23.271 113.531 23.2337C113.478 23.2224 113.417 23.2045 113.368 23.2078C112.802 23.2451 112.24 23.2856 111.675 23.3245C110.107 23.4348 108.539 23.5402 106.975 23.6569C106.691 23.678 106.497 23.6374 106.296 23.5677C106.254 23.5531 106.182 23.545 106.129 23.5483C103.935 23.7007 101.741 23.8547 99.5504 24.0087C99.4327 24.0168 99.3188 23.9909 99.2239 23.9487C99.1252 23.9049 99.0152 23.8839 98.8937 23.892C97.8916 23.9617 96.8895 24.0314 95.8873 24.1028C95.6368 24.1206 95.6329 24.1222 95.3748 24.0444C95.3217 24.0282 95.2648 23.9974 95.223 24.0006C95.1357 24.0087 95.0521 24.0492 94.9914 24.1044C94.9307 24.1627 94.8358 24.1789 94.6953 24.1903C94.5511 24.2016 94.4562 24.1968 94.3461 24.1579C94.2057 24.1092 94.0766 24.0622 93.8488 24.0784C90.9676 24.286 88.0865 24.4854 85.2053 24.6913C84.9737 24.7075 84.8674 24.6394 84.708 24.6021C84.6548 24.5908 84.6017 24.5745 84.5448 24.5713C84.484 24.5681 84.4195 24.5778 84.3588 24.5827C79.6593 24.9118 74.9599 25.2425 70.2604 25.5717C69.9795 25.5911 69.9833 25.5911 69.6758 25.7403C69.6379 25.7581 69.5885 25.7824 69.5353 25.7857C68.0966 25.8894 66.6542 25.99 65.2117 26.0905C64.5854 26.1343 63.959 26.1797 63.3327 26.2218C63.1087 26.2364 63.1087 26.2364 62.5735 26.4115C62.528 26.4261 62.4748 26.4456 62.4216 26.4488C59.9162 26.6255 57.4108 26.8023 54.9017 26.9757C54.7043 26.9887 54.5449 27.0179 54.4538 27.0957C54.3892 27.1508 54.3057 27.1833 54.1805 27.193C52.4267 27.3162 50.673 27.4411 48.9155 27.561C48.7067 27.5756 48.5814 27.621 48.4789 27.6891C48.4447 27.7118 48.4143 27.7378 48.365 27.754C48.3194 27.7686 48.2511 27.7734 48.1942 27.7783C46.6909 27.8837 45.1878 27.9923 43.6807 28.0928C43.4568 28.1074 43.3656 28.1674 43.2555 28.2306C43.2176 28.2517 43.191 28.2809 43.1416 28.2955C43.0923 28.3085 43.0202 28.3085 42.9594 28.3117C41.7068 28.3993 40.4541 28.4884 39.2014 28.576C38.9585 28.5679 38.9053 28.6619 38.7876 28.7187C38.7459 28.7381 38.7156 28.7641 38.6662 28.777C38.6131 28.79 38.5447 28.7884 38.4801 28.7916C37.478 28.8613 36.4759 28.9359 35.4699 29.0008C35.2384 29.0154 35.1928 29.0981 35.0675 29.1548C35.0258 29.1726 34.9841 29.2002 34.9347 29.2051C34.3084 29.2521 33.682 29.2959 33.0557 29.338C32.8469 29.3526 32.8469 29.351 32.4787 29.5115C32.4369 29.5293 32.3876 29.5488 32.3344 29.5537C31.3968 29.6218 30.4554 29.6866 29.514 29.7531C29.3925 29.7612 29.309 29.8001 29.2483 29.8552C29.1876 29.9103 29.1003 29.946 28.9788 29.9541C28.2272 30.0076 27.4755 30.0627 26.7239 30.1114C26.5151 30.1244 26.3785 30.1649 26.2874 30.2379C26.2191 30.293 26.1355 30.3205 26.0027 30.3303C25.2511 30.3821 24.4995 30.4389 23.7441 30.4843C23.5239 30.4973 23.41 30.5524 23.3189 30.6205C23.2468 30.6756 23.1632 30.6951 23.0228 30.7048C21.6448 30.7988 20.2631 30.8929 18.889 30.9966C18.6574 31.0145 18.5397 30.9577 18.3879 30.9172C18.1715 30.8604 17.9704 30.7988 17.9704 30.6724C17.9704 30.6529 17.9058 30.6302 17.8603 30.614C17.5224 30.4924 17.5224 30.4924 17.4693 30.3627C17.4389 30.2833 17.4047 30.2022 17.3782 30.1211C17.3288 29.9882 17.2073 29.9541 16.8581 29.9784C16.7328 29.9866 16.6075 29.9979 16.4823 30.0044C16.2963 30.0157 16.1558 29.9622 16.1217 29.8649C16.1027 29.8114 16.0799 29.7579 16.061 29.7044C16.2508 29.6915 16.2469 29.6899 16.581 29.4937C16.7214 29.411 16.7215 29.411 16.452 29.3283C16.3495 29.2975 16.2507 29.2634 16.1407 29.2342C16.0913 29.2213 16.0268 29.2132 15.9736 29.2164C15.6586 29.2359 15.3473 29.2586 15.036 29.2813C14.535 29.3169 14.5349 29.3169 14.0262 29.1516C13.9845 29.1386 13.92 29.1143 13.9275 29.1013C13.9693 29.0413 14.0718 29.0154 14.2008 29.0089C14.3906 28.9991 14.5766 28.9829 14.7627 28.97C14.8879 28.9619 15.0132 28.9521 15.1385 28.944C15.2561 28.8824 15.3777 28.8224 15.4877 28.7592C15.6624 28.6619 15.6623 28.6587 15.4232 28.5906C15.2713 28.5452 15.1081 28.5046 14.9525 28.4625C14.7664 28.4755 14.5767 28.49 14.3906 28.5014C14.1553 28.516 14.0604 28.4852 13.9996 28.3798C13.9465 28.2874 14.011 28.2079 14.1932 28.1885C14.3793 28.169 14.5539 28.1561 14.6488 28.0734C14.7399 27.9939 14.8994 27.9631 15.0967 27.9566C15.222 27.9518 15.3473 27.9404 15.4726 27.9307C15.6358 27.9177 15.7231 27.835 15.6889 27.7426C15.67 27.6826 15.632 27.6324 15.4839 27.6194C14.8272 27.5627 14.8196 27.5643 14.4931 27.454C14.4628 27.4443 14.4401 27.4151 14.4514 27.4005C14.4704 27.3762 14.5122 27.3405 14.5577 27.3357C14.9943 27.3 15.4308 27.2676 15.8674 27.2433C16.0116 27.2352 16.1179 27.2238 16.1672 27.1638C16.2356 27.0811 16.2052 27.0049 16.0723 26.9482C16.0306 26.9303 15.9622 26.9076 15.9167 26.9093C15.4156 26.9384 14.9183 26.9757 14.4172 27.0049C14.3717 27.0082 14.2882 26.9806 14.2692 26.9595C14.2313 26.9206 14.2882 26.8687 14.421 26.8509C14.5957 26.8266 14.7741 26.825 14.8917 26.7439C15.055 26.6288 15.2561 26.5234 15.4384 26.4131C15.4687 26.3937 15.5181 26.3564 15.5067 26.3531C15.4118 26.3175 15.3017 26.2899 15.203 26.2559C15.036 26.1991 15.036 26.1197 15.074 26.0435C15.1043 25.9819 15.2182 25.9575 15.3587 25.9575C15.4194 25.9575 15.4953 25.9575 15.5447 25.943C15.6737 25.9073 15.7155 25.8619 15.651 25.8278C15.613 25.8084 15.5447 25.7808 15.4991 25.7841C14.6868 25.8376 13.8706 25.8894 13.062 25.9559C12.8229 25.9754 12.7129 25.9138 12.5686 25.87C12.4586 25.8359 12.356 25.823 12.2193 25.8473C12.0903 25.87 11.9651 25.857 11.8853 25.8035C11.8208 25.7597 11.9347 25.7225 12.2421 25.6803C12.2991 25.6722 12.3636 25.6673 12.4053 25.6511C12.8457 25.476 12.8457 25.4744 13.1493 25.4517C13.4454 25.4306 13.4455 25.429 13.6011 25.335C13.6733 25.2912 13.7529 25.2474 13.8212 25.202C13.8478 25.1842 13.8934 25.1517 13.8782 25.142C13.7947 25.0917 13.6808 25.0804 13.5479 25.0918C13.2519 25.1193 12.9027 25.0966 12.747 25.2506C12.6863 25.309 12.5914 25.3252 12.4547 25.335C11.0806 25.429 9.70638 25.5295 8.32843 25.6203C8.10446 25.6349 8.00203 25.6949 7.91472 25.7614C7.8388 25.8165 7.75527 25.8327 7.61102 25.8424C7.46677 25.8522 7.35284 25.857 7.26933 25.8035C7.21998 25.7711 7.26175 25.7257 7.37563 25.6803C7.53885 25.6154 7.50847 25.5344 7.45533 25.4582C7.41737 25.4079 7.2997 25.3722 7.17443 25.3755C6.98842 25.382 6.81006 25.3998 6.65442 25.335C6.56332 25.2977 6.44941 25.2717 6.34692 25.2393C6.14953 25.1728 5.95213 25.1047 5.67502 25.1485C5.48522 25.1323 5.35236 25.0739 5.20052 25.0285C4.94619 24.9539 4.92341 24.9426 5.10562 24.8631C5.3106 24.774 5.15114 24.6572 5.26502 24.5697C5.38649 24.4756 5.55357 24.393 5.70162 24.3054C5.73958 24.2827 5.77376 24.2616 5.81172 24.2389C5.72441 24.2065 5.64471 24.166 5.54222 24.1433C5.40935 24.1141 5.34102 24.0784 5.34861 23.9779C5.32204 23.9633 5.33335 24.0006 5.36372 24.0103C5.39789 24.0201 5.48146 24.012 5.52322 24.0006C5.62951 23.9698 5.68259 23.9293 5.65602 23.8952C5.64084 23.8774 5.56877 23.8547 5.52322 23.8547C5.4397 23.8547 5.36759 23.8904 5.34482 23.9779C4.91966 24.0444 4.47925 24.0768 4.03892 24.1028C3.99336 24.106 3.93646 24.0736 3.88331 24.0574C3.7087 24.0022 3.70867 24.0038 3.19621 23.9876C3.14307 23.986 3.07098 23.9633 3.04441 23.9406C2.93432 23.8417 2.93815 23.7331 2.88501 23.6277C2.9837 23.5596 3.08232 23.4931 3.18481 23.4267C3.3898 23.2921 3.65558 23.1737 3.81501 23.0262C3.78085 22.9467 3.73529 22.8673 3.90231 22.8024C4.37681 22.7214 4.37305 22.7214 4.50211 22.6436C4.87032 22.4231 5.23472 22.2009 5.61812 21.9837C5.72061 21.9269 5.72062 21.8961 5.53842 21.8718C5.48148 21.8653 5.42066 21.8637 5.35992 21.8669C5.17012 21.8783 4.98032 21.9075 4.79432 21.901C4.60831 21.8961 4.47166 21.8248 4.31982 21.781C4.16418 21.7356 4.00855 21.6886 3.85292 21.6416C3.6745 21.6464 3.49612 21.6918 3.31771 21.6189C3.18105 21.5621 3.01025 21.5216 2.85461 21.4746C2.97229 21.3513 3.19249 21.2573 3.36331 21.1487C3.51894 21.0498 3.52266 21.0514 3.94022 20.9752C4.13761 20.9395 4.20594 20.7563 4.03892 20.7028C3.83773 20.638 3.6252 20.578 3.42021 20.5164C3.2418 20.5212 3.05963 20.565 2.88881 20.4921C2.75595 20.4369 2.60408 20.3996 2.38391 20.4207C2.0119 20.4564 1.63231 20.4742 1.2565 20.5034C1.12744 20.5131 0.986945 20.5066 0.930004 20.4515C0.892044 20.4126 1.00214 20.3591 1.1274 20.3477C1.31721 20.3315 1.48801 20.3121 1.58291 20.231C1.67401 20.15 1.84102 20.1256 2.03841 20.1143C2.09155 20.111 2.15234 20.0916 2.17891 20.0721C2.31556 19.9781 2.46742 19.897 2.75971 19.9003C2.88118 19.8678 2.94567 19.8273 2.90771 19.7884C2.88494 19.7673 2.80526 19.7398 2.75971 19.743C2.44464 19.7592 2.12958 19.7754 1.8221 19.8046C1.67786 19.8176 1.56771 19.8208 1.47661 19.7722C1.41208 19.7397 1.44624 19.696 1.56771 19.6489C1.674 19.6084 1.7044 19.5614 1.69681 19.5063C1.67783 19.3782 1.56392 19.3409 1.19951 19.349C0.937582 19.3555 0.873046 19.3344 0.816106 19.2242C0.800922 19.1982 0.763028 19.1626 0.7896 19.1447C0.952829 19.0345 1.05912 18.8983 1.3666 18.8464C1.48807 18.8269 1.61709 18.8269 1.69301 18.7848C1.76893 18.7426 1.83729 18.694 1.917 18.6535C2.0157 18.6048 2.08396 18.5594 2.03841 18.5286C1.96249 18.4735 1.84106 18.4686 1.70061 18.4881C1.57913 18.5043 1.45007 18.5059 1.3248 18.5156C1.10084 18.5335 0.918672 18.4913 0.8921 18.42C0.819976 18.2319 0.744033 18.0455 0.679501 17.8574C0.671909 17.8347 0.690837 17.8055 0.721205 17.786C0.827494 17.7179 0.941418 17.6531 1.0515 17.5866C1.18057 17.5104 1.38559 17.525 1.5602 17.5104C1.80694 17.4893 1.80686 17.491 2.13711 17.3353C2.26618 17.2737 2.49015 17.298 2.62301 17.2429C2.66477 17.2251 2.7293 17.1959 2.71791 17.1797C2.70273 17.1586 2.62685 17.1424 2.56991 17.1326C2.51676 17.1229 2.45225 17.1181 2.39531 17.1229C1.70443 17.1699 1.01737 17.2202 0.326498 17.2656C0.208821 17.2737 0.0797533 17.238 0.0379972 17.1878C-0.00375894 17.1408 0.00759202 17.084 0 17.0305C0.110084 16.964 0.235305 16.9024 0.330205 16.8311C0.402329 16.776 0.485856 16.7516 0.630105 16.7484C0.819905 16.7435 1.00593 16.7241 1.21851 16.7095C1.61329 16.4728 2.00046 16.2247 2.42561 15.988C2.59643 15.8923 2.55474 15.795 2.58891 15.6929C2.62307 15.5989 2.87739 15.6135 3.04821 15.5859C3.18487 15.5632 3.23036 15.5113 3.17721 15.4756C3.14685 15.4546 3.07855 15.4302 3.02541 15.4302C2.90014 15.4302 2.77488 15.4448 2.64961 15.4529C2.52434 15.4611 2.3801 15.4562 2.27761 15.4838C2.17891 15.5097 2.11434 15.5648 2.04981 15.6118C1.97769 15.6637 1.88285 15.6816 1.7386 15.6848C1.5526 15.688 1.36661 15.7026 1.1806 15.714C0.975616 15.6507 0.762995 15.5891 0.565602 15.5227C0.527642 15.5097 0.520009 15.4724 0.523805 15.4481C0.531397 15.3849 0.474472 15.3459 0.349203 15.3151C0.242915 15.2892 0.155599 15.2519 0.0569031 15.2195C0.132823 15.1757 0.216365 15.1335 0.277101 15.0865C0.409962 14.9876 0.577005 14.9163 0.865502 14.9195C0.979382 14.8563 1.07046 14.7785 1.21851 14.7347C1.35896 14.6926 1.59812 14.7347 1.70441 14.639C1.75755 14.592 1.83731 14.5385 1.9398 14.5191C2.10303 14.4883 2.3156 14.5045 2.41051 14.4137C2.46745 14.3618 2.55092 14.3148 2.66101 14.3018C2.78628 14.2872 2.91531 14.284 3.00641 14.2532C3.05576 14.237 3.10891 14.211 3.10891 14.1883C3.10891 14.1737 3.03305 14.151 2.97991 14.1413C2.93056 14.1299 2.86595 14.1218 2.80901 14.1251C2.61921 14.1348 2.43321 14.1526 2.24341 14.1624C2.19027 14.1656 2.12955 14.1543 2.07261 14.1445C1.90558 14.1186 1.91695 14.0862 2.04981 14.0278C2.18267 13.9711 2.27762 13.8981 2.38771 13.8316C2.50918 13.8203 2.661 13.8251 2.74451 13.7943C2.88496 13.7441 2.98363 13.6711 3.09751 13.6079C3.22278 13.5981 3.35184 13.5949 3.46951 13.5771C3.51886 13.5706 3.54166 13.5349 3.58341 13.5138C3.65933 13.4733 3.72392 13.4149 3.82641 13.3955C3.99343 13.3663 4.19842 13.3777 4.29711 13.2885C4.35405 13.2366 4.44133 13.1815 4.54762 13.1782C4.8437 13.1718 4.96898 13.0826 5.12082 12.9983C5.2347 12.935 5.47765 12.9675 5.60292 12.9042C5.68643 12.8637 5.7472 12.8134 5.83072 12.7745C5.86488 12.7583 5.93698 12.7502 5.99392 12.7453C6.30519 12.721 6.62025 12.7032 6.93152 12.6772C6.98087 12.6724 7.02646 12.6481 7.06442 12.6286C7.14414 12.5865 7.19343 12.5281 7.29213 12.5005C7.39082 12.473 7.53126 12.473 7.65273 12.4649C8.04372 12.4405 8.07411 12.447 8.25253 12.3092C8.39678 12.1973 8.74985 12.2768 8.86753 12.1535C8.93585 12.0822 9.06107 12.0238 9.28503 12.0157C9.6001 12.0044 9.91137 11.9736 10.2264 11.9525C10.5073 11.933 10.5036 11.933 10.8072 11.7823C10.9439 11.7142 11.1451 11.7239 11.3235 11.7109C11.5133 11.698 11.6879 11.6785 11.779 11.5974C11.8701 11.518 12.0371 11.492 12.2307 11.4807C12.4092 11.4693 12.6104 11.4775 12.7508 11.4126C13.0925 11.257 13.0887 11.2553 13.3278 11.2391C13.7036 11.2132 14.0794 11.1872 14.4552 11.1597C14.7058 11.1418 14.9677 11.1386 15.203 11.1029C15.3739 11.077 15.4498 10.9862 15.5599 10.923C15.8711 10.8986 16.1824 10.8743 16.4937 10.8516C16.9302 10.8192 17.3705 10.79 17.8109 10.7592C18.0007 10.6976 18.0273 10.5614 18.3462 10.5549C18.536 10.5517 18.722 10.5306 18.9118 10.5176C19.2268 10.4949 19.5381 10.4657 19.8532 10.4544C20.0923 10.4463 20.134 10.3587 20.2593 10.3036C20.301 10.2842 20.339 10.2566 20.3884 10.2517C20.8818 10.2063 21.3905 10.1966 21.8726 10.1301C21.9219 10.1236 21.9675 10.0896 21.9789 10.0653C21.9865 10.0523 21.9219 10.028 21.8802 10.0166C21.8308 10.0037 21.7663 9.9907 21.7132 9.99395C20.1454 10.1026 18.5777 10.2128 17.01 10.3215C16.7898 10.3377 16.7898 10.336 16.2546 10.5144C16.209 10.529 16.1558 10.5452 16.0989 10.5501C15.8483 10.5695 15.594 10.5809 15.3473 10.6052C15.1461 10.6246 14.9791 10.6052 14.8348 10.5468C14.7324 10.5047 14.626 10.4917 14.4969 10.4949C14.3527 10.4998 14.2579 10.5176 14.1743 10.5614C14.0643 10.6214 14.0073 10.6992 13.7757 10.7154C12.7091 10.7851 11.6423 10.863 10.5794 10.9376C10.4314 10.9149 10.3593 10.8808 10.3972 10.8403C10.42 10.816 10.4656 10.7835 10.5111 10.7803C10.9477 10.7462 11.388 10.7171 11.8245 10.6846C11.8853 10.6798 11.9688 10.683 12.0029 10.6668C12.17 10.5938 12.2308 10.4755 12.5458 10.4674C12.728 10.4625 12.914 10.4382 13.0886 10.4155C13.138 10.409 13.1836 10.375 13.1949 10.3506C13.1987 10.3377 13.138 10.3133 13.0924 10.302C12.9254 10.255 12.7319 10.3117 12.5648 10.2793C12.5079 10.268 12.4281 10.2517 12.4167 10.2323C12.4092 10.2144 12.4737 10.1853 12.5192 10.1674C12.561 10.1512 12.6179 10.1366 12.6748 10.1318C13.1759 10.0945 13.6771 10.0556 14.1781 10.0264C14.3831 10.015 14.5273 9.97448 14.6184 9.8999C14.6868 9.84477 14.7703 9.8156 14.8993 9.80749C15.7762 9.7475 16.6531 9.68103 17.5338 9.6259C17.7539 9.61293 17.8679 9.55943 17.959 9.48972C18.0311 9.43459 18.1146 9.41513 18.2551 9.4054C19.5115 9.3211 20.7604 9.22706 22.0169 9.146C22.2484 9.1314 22.3168 9.06168 22.4345 9.0017C22.4762 8.98062 22.5027 8.95468 22.5559 8.94171C22.609 8.92874 22.6773 8.93034 22.7419 8.9271C23.744 8.85738 24.7462 8.78282 25.7522 8.71796C25.9875 8.70337 26.033 8.62229 26.1545 8.56555C26.1962 8.54771 26.2342 8.51854 26.2836 8.51367C27.0352 8.45855 27.7868 8.40667 28.5384 8.35316C29.0395 8.31749 29.5405 8.28182 30.0416 8.24777C30.2883 8.23156 30.2884 8.22993 30.6224 8.0759C30.6604 8.05807 30.7136 8.03699 30.7629 8.03212C32.2054 7.92836 33.644 7.82948 35.0865 7.72733C35.208 7.71923 35.2953 7.68192 35.356 7.62679C35.4168 7.57167 35.5041 7.53438 35.6218 7.52627C36.7492 7.4452 37.8766 7.36577 39.0078 7.28956C39.2128 7.27659 39.357 7.23768 39.4481 7.16472C39.5165 7.10959 39.6 7.08042 39.729 7.07231C40.8564 6.99449 41.9839 6.91179 43.1151 6.83721C43.3315 6.82261 43.4378 6.7675 43.544 6.70264C43.582 6.67994 43.6124 6.64265 43.6579 6.63941C44.2198 6.59401 44.7777 6.54699 45.3433 6.51619C45.5787 6.50321 45.6584 6.43512 45.7533 6.37026C45.8293 6.31838 45.9166 6.30055 46.0608 6.29406C46.3759 6.27947 46.6872 6.25192 46.9947 6.22436C47.0402 6.21949 47.0972 6.18382 47.101 6.16112C47.1085 6.11897 47.0212 6.08978 46.877 6.07519C45.3737 6.18058 43.8668 6.28595 42.3635 6.39134C42.1168 6.40917 42.1168 6.40918 41.7827 6.56321C41.7448 6.58105 41.6916 6.60213 41.6384 6.60699C40.196 6.70913 38.7573 6.80966 37.3148 6.9118C37.1933 6.91991 37.1061 6.9572 37.0453 7.01232C36.9846 7.06745 36.8972 7.10474 36.7795 7.11284C35.4016 7.21012 34.0237 7.30903 32.6419 7.40144C32.4369 7.41442 32.2927 7.45169 32.2016 7.52627C32.1333 7.5814 32.0498 7.61059 31.9207 7.6187C30.6035 7.70949 29.29 7.80514 27.969 7.89269C27.8361 7.9008 27.7375 7.85378 27.7451 7.81C27.7489 7.7873 27.8057 7.75003 27.8513 7.74679C28.5384 7.69328 29.2217 7.63815 29.9126 7.59762C30.1442 7.58465 30.2124 7.51331 30.3301 7.45332C30.3681 7.43224 30.3985 7.40468 30.4478 7.39333C30.5009 7.38036 30.5693 7.38199 30.6338 7.37874C32.2623 7.26363 33.8908 7.1469 35.5231 7.03827C35.7585 7.02206 35.8039 6.9426 35.9254 6.88585C35.9672 6.8664 36.0052 6.83722 36.0545 6.83398C36.5556 6.79507 37.0567 6.76101 37.5577 6.72697C38.4346 6.66536 39.3115 6.60374 40.1921 6.54213C40.4465 6.5243 40.4465 6.52429 40.7729 6.37188C40.8109 6.35405 40.8641 6.33137 40.9134 6.32813C43.2328 6.16437 45.5522 6.00061 47.8716 5.83848C47.993 5.83037 48.0803 5.79308 48.1411 5.73796C48.2018 5.68446 48.2891 5.64554 48.4068 5.63582C51.5423 5.41531 54.674 5.1948 57.8095 4.97755C58.0145 4.96295 58.1587 4.9289 58.2498 4.8527C58.3143 4.79758 58.4016 4.7684 58.5307 4.75867C61.9775 4.51709 65.4242 4.27552 68.8748 4.03232C71.1942 3.87019 73.5136 3.70481 75.8329 3.54592C76.0455 3.53133 76.1594 3.48106 76.2657 3.41458C76.2998 3.39188 76.334 3.35459 76.3795 3.35135C76.8768 3.31082 77.3741 3.27353 77.8714 3.23624C78.027 3.28002 78.1826 3.32218 78.3383 3.36595C78.4559 3.30434 78.5699 3.24111 78.6876 3.1795C79.4392 3.13248 80.1794 3.05952 80.9386 3.03682C80.9879 3.0352 81.041 3.06601 81.0942 3.08222C81.4472 3.18437 81.6484 3.17626 81.8724 3.04007C81.9521 2.99143 82.0204 2.94765 82.1419 2.93954C82.5177 2.91036 82.8974 2.8909 83.2694 2.85686C83.4706 2.83902 83.6375 2.85523 83.7818 2.9136C83.8843 2.95575 83.9906 2.9736 84.1159 2.96387C84.8067 2.91523 85.4938 2.8682 86.1847 2.81632C86.234 2.81308 86.2795 2.78551 86.3175 2.76605C86.3972 2.7239 86.4656 2.67851 86.5415 2.63473C86.644 2.6623 86.7579 2.68338 86.8414 2.71905C86.9477 2.7612 87.0463 2.76119 87.1906 2.74984C89.9465 2.55366 92.7062 2.36235 95.4621 2.16454C95.6975 2.14833 95.8 2.21643 95.9594 2.2521C96.0126 2.26507 96.0657 2.28128 96.1226 2.28452C96.1833 2.28776 96.2479 2.27804 96.3086 2.27318C98.3774 2.12726 100.446 1.98295 102.515 1.83703C102.788 1.81758 102.788 1.81758 103.195 1.9181C103.244 1.93107 103.308 1.94566 103.362 1.9408C104.303 1.87757 105.244 1.80948 106.182 1.74463C106.304 1.73652 106.406 1.76246 106.516 1.79975C106.733 1.87271 106.748 1.87271 106.907 1.7657C106.983 1.71544 107.063 1.68462 107.188 1.67003C107.325 1.65382 107.435 1.6587 107.541 1.68788C107.693 1.72842 107.803 1.7965 108.035 1.77867C109.037 1.70247 110.043 1.63924 111.041 1.56142C111.269 1.54358 111.39 1.5987 111.542 1.63924C111.595 1.65383 111.645 1.67653 111.701 1.68139C111.758 1.68626 111.827 1.6749 111.887 1.67003C113.14 1.58248 114.397 1.49657 115.645 1.40253C115.881 1.38469 115.983 1.4544 116.143 1.49007C116.196 1.50304 116.257 1.52575 116.306 1.5225C117.058 1.47224 117.813 1.41872 118.565 1.36522C118.834 1.34576 118.834 1.34739 119.244 1.44629C119.293 1.45926 119.358 1.47223 119.411 1.46899C120.288 1.409 121.169 1.34739 122.046 1.28578C122.315 1.26632 122.315 1.26633 123.093 1.35063C123.15 1.35712 123.211 1.36686 123.268 1.36362C124.27 1.2939 125.276 1.2258 126.278 1.15121C126.479 1.13662 126.646 1.14959 126.791 1.20796C126.893 1.25011 126.999 1.26796 127.125 1.25823C128.252 1.17878 129.383 1.10258 130.507 1.01827C130.723 1.00206 130.864 1.03772 131.016 1.08473C131.065 1.10095 131.114 1.12365 131.171 1.13014C131.228 1.13662 131.293 1.13013 131.353 1.12527C132.481 1.04582 133.612 0.971244 134.736 0.885314C134.963 0.867479 135.085 0.922601 135.237 0.963135C135.29 0.977727 135.347 1.00691 135.392 1.00529C135.833 0.977728 136.273 0.953417 136.71 0.912884C136.945 0.890185 137.047 0.964753 137.207 1.00042C137.26 1.01177 137.321 1.0361 137.37 1.03286C138.311 0.969629 139.253 0.903159 140.191 0.835063C140.323 0.825335 140.422 0.839914 140.528 0.882068C140.669 0.938815 140.832 0.961514 141.037 0.943679C141.474 0.906389 141.914 0.880455 142.354 0.849649C142.612 0.831815 142.612 0.83182 143.402 0.91613C143.459 0.922615 143.52 0.932336 143.577 0.929093C144.328 0.87721 145.084 0.826953 145.831 0.770206C146.033 0.753993 146.2 0.768581 146.344 0.826949C146.446 0.869103 146.549 0.886947 146.678 0.877219C147.369 0.828579 148.056 0.779936 148.747 0.731296C148.997 0.713461 149.248 0.682648 149.498 0.682648C149.681 0.684269 149.813 0.76209 149.977 0.801002C150.022 0.812351 150.098 0.799395 150.159 0.796153C151.036 0.734542 151.916 0.67779 152.79 0.608073C153.017 0.590238 153.139 0.645361 153.291 0.685894C153.344 0.700486 153.401 0.729671 153.446 0.72805C153.761 0.710215 154.073 0.685893 154.388 0.664816C154.763 0.638874 155.143 0.619418 155.515 0.583749C155.819 0.554565 155.933 0.695616 156.176 0.70048C156.362 0.705344 156.551 0.677786 156.737 0.664816C157.113 0.638874 157.489 0.609694 157.865 0.586995C157.998 0.578888 158.1 0.552936 158.142 0.494568C158.15 0.483219 158.085 0.458909 158.043 0.444317C157.538 0.278942 157.538 0.278934 157.03 0.314603C156.715 0.337302 156.403 0.360004 156.088 0.37946C156.035 0.382703 155.974 0.369733 155.921 0.360005C155.769 0.332442 155.785 0.300019 155.914 0.241651C156.043 0.183283 156.141 0.111951 156.251 0.0454768C156.407 0.0876313 156.559 0.129771 156.715 0.171925C156.84 0.163819 156.965 0.154105 157.09 0.145998C157.717 0.103844 158.343 0.0600648 158.969 0.0211529C159.015 0.0179102 159.072 0.0503415 159.125 0.0665548C159.277 0.113573 159.414 0.154096 159.634 0.136261C160.196 0.0892423 160.761 0.0551944 161.323 0.0146612C161.57 -0.00317339 161.57 -0.00317181 162.002 0.0973506C162.052 0.1087 162.116 0.121671 162.169 0.118429C162.735 0.0811381 163.297 0.0406096 163.862 0.00169772C163.984 -0.00640893 164.102 0.0146676 164.189 0.0616861C164.223 0.081142 164.215 0.113562 164.36 0.37946C164.808 0.595097 165.115 0.572409 165.426 0.552953C165.559 0.544847 165.677 0.536732 165.764 0.504306C165.81 0.486471 165.867 0.460526 165.867 0.439449C165.867 0.423235 165.783 0.397289 165.73 0.394047C165.354 0.36162 164.997 0.429725 164.629 0.444317C164.458 0.450803 164.31 0.394055 164.28 0.30164C164.272 0.275698 164.261 0.248137 164.25 0.222196C164.238 0.196255 164.231 0.168694 164.219 0.142753C164.071 0.134646 163.984 0.163825 163.919 0.21895C163.866 0.264347 163.79 0.31623 163.688 0.34055C163.585 0.366491 163.445 0.361636 163.32 0.369743C163.198 0.377849 163.065 0.398924 162.951 0.387575C162.838 0.374604 162.746 0.327578 162.64 0.298394C162.591 0.283802 162.53 0.262732 162.481 0.265975C162.044 0.293538 161.611 0.32109 161.179 0.356759C160.951 0.376215 160.837 0.30813 160.693 0.265975C160.579 0.233549 160.465 0.241645 160.446 0.316226C160.397 0.494572 160.571 0.569149 160.959 0.535101C161.277 0.505917 161.566 0.501069 161.816 0.611319C161.851 0.625911 161.93 0.632394 161.98 0.629151C162.291 0.609695 162.598 0.585373 162.91 0.565917C162.967 0.562674 163.027 0.569149 163.081 0.575635C163.855 0.663186 163.855 0.664816 164.117 0.64536C164.242 0.635633 164.364 0.627525 164.352 0.381083C164.591 0.116807 164.971 0.0989751 165.339 0.0600632C165.578 0.0357432 165.681 0.107085 165.836 0.144375C165.889 0.157346 165.946 0.183283 165.996 0.18004C166.812 0.126536 167.624 0.0697816 168.437 0.00979248C168.573 6.45124e-05 168.672 0.00979407 168.778 0.0519486C168.915 0.105452 169.067 0.139508 169.283 0.120052C169.716 0.0811397 170.156 0.0568253 170.597 0.0243987C170.821 0.00818541 170.821 0.00816878 171.272 0.108691C171.322 0.12004 171.386 0.133012 171.439 0.129769C171.88 0.102207 172.316 0.068169 172.753 0.0389851C172.874 0.0308785 172.984 0.0535747 173.079 0.0973506C173.174 0.141126 173.288 0.163823 173.406 0.155716C173.846 0.126532 174.283 0.0941158 174.719 0.0649319C174.772 0.0616893 174.837 0.0730378 174.886 0.0843871C175.349 0.184909 175.349 0.184893 175.562 0.16868C175.873 0.14436 176.192 0.133023 176.499 0.100596C176.799 0.0681698 176.955 0.162199 177.16 0.214081C177.722 0.176791 178.287 0.145994 178.845 0.100596C179.073 0.0811405 179.195 0.13464 179.346 0.176794C179.4 0.191386 179.453 0.222194 179.502 0.220573C179.692 0.214088 179.878 0.196256 180.064 0.183286C180.25 0.170315 180.44 0.157346 180.626 0.144375C180.838 0.191394 180.979 0.301643 181.282 0.264352C181.465 0.241654 181.658 0.23679 181.844 0.223819C182.03 0.210848 182.22 0.197879 182.406 0.184909C182.531 0.176802 182.66 0.171931 182.782 0.157339C183.006 0.133019 183.116 0.212474 183.275 0.248143C183.328 0.259492 183.389 0.278935 183.439 0.275693C183.814 0.252994 184.194 0.23354 184.562 0.196249C184.847 0.167065 185.04 0.215712 185.242 0.283807C185.283 0.298399 185.355 0.306505 185.409 0.303262C185.849 0.2757 186.285 0.241642 186.722 0.212459C186.84 0.204352 186.954 0.230292 187.049 0.272447C187.147 0.316223 187.257 0.337316 187.379 0.329209C187.815 0.300025 188.256 0.267589 188.692 0.238405C188.745 0.235163 188.81 0.248136 188.859 0.261106C189.284 0.361629 189.284 0.363252 189.535 0.343796C189.596 0.338932 189.66 0.335676 189.721 0.330812C190.032 0.308114 190.355 0.300018 190.659 0.261106C191.008 0.21733 191.262 0.272458 191.509 0.364874C191.82 0.345418 192.139 0.334066 192.443 0.30164C192.67 0.27732 192.792 0.338927 192.944 0.37946C192.997 0.394052 193.054 0.423236 193.099 0.419993C193.54 0.392431 193.98 0.36812 194.413 0.327586C194.648 0.304888 194.751 0.377834 194.91 0.415125C194.963 0.428095 195.02 0.450806 195.069 0.447563C195.32 0.434592 195.571 0.415127 195.821 0.397292C196.113 0.376215 196.113 0.377835 196.501 0.476736C196.683 0.523754 196.865 0.486462 197.043 0.475113C197.233 0.462142 197.412 0.452418 197.563 0.518892C197.658 0.561047 197.772 0.586989 197.89 0.580503C198.14 0.565911 198.395 0.551327 198.642 0.527007C198.839 0.507551 199.01 0.520514 199.154 0.580503C199.256 0.622658 199.363 0.643748 199.488 0.63402C200.05 0.595108 200.615 0.55456 201.177 0.517269C201.227 0.514027 201.295 0.528624 201.34 0.543216C201.447 0.5724 201.549 0.604819 201.652 0.637246C201.898 0.622654 202.153 0.616185 202.396 0.593487C202.654 0.570788 202.889 0.562679 203.09 0.651852C203.132 0.671308 203.193 0.698856 203.242 0.697234C203.432 0.690749 203.618 0.67454 203.804 0.66157C203.99 0.648599 204.18 0.63563 204.366 0.62266C204.582 0.663193 204.719 0.779927 205.023 0.742636C205.205 0.719938 205.398 0.715074 205.584 0.702103C205.77 0.689132 205.96 0.674542 206.146 0.663193C206.207 0.65995 206.275 0.651839 206.328 0.658324C206.385 0.664809 206.435 0.687513 206.484 0.703726C206.636 0.750745 206.776 0.797769 206.993 0.770206C207.175 0.747507 207.369 0.742642 207.555 0.72805C207.809 0.710215 207.809 0.710218 208.23 0.812362C208.401 0.854517 208.595 0.799394 208.758 0.835063C208.868 0.859383 208.963 0.899908 209.069 0.92747C209.115 0.938819 209.187 0.943676 209.24 0.940434C209.491 0.925842 209.745 0.911257 209.992 0.886937C210.193 0.867481 210.36 0.886935 210.5 0.945302C210.603 0.987457 210.705 1.0053 210.834 0.995573C211.461 0.950176 212.087 0.911251 212.71 0.86099C212.922 0.843156 213.093 0.870725 213.211 0.929093C213.412 1.02962 213.697 0.911261 213.905 0.992327C214.034 1.04259 214.163 1.10096 214.399 1.07664C214.832 1.03448 215.272 1.01177 215.708 0.98259C215.864 1.02637 216.02 1.07015 216.179 1.11393C216.43 1.09609 216.68 1.07825 216.931 1.06203C217.117 1.04906 217.307 1.03447 217.493 1.02312C217.553 1.01988 217.618 1.01339 217.675 1.0215C217.732 1.02961 217.777 1.05069 217.83 1.0669C218.092 1.14635 218.092 1.14798 218.525 1.11555C218.711 1.10096 218.889 1.09123 219.045 1.15608C219.189 1.21607 219.36 1.22741 219.558 1.20958C219.93 1.17715 220.305 1.15283 220.685 1.13014C220.803 1.12203 220.913 1.14959 221.011 1.19175C221.159 1.25822 221.342 1.25174 221.528 1.2339C221.774 1.21121 222.017 1.18851 222.226 1.27931C222.268 1.29876 222.332 1.32631 222.378 1.32469C222.689 1.31172 223.004 1.302 223.308 1.27119C223.612 1.24039 223.76 1.3409 223.969 1.38954C224.28 1.36847 224.595 1.34739 224.906 1.32631C224.967 1.32145 225.039 1.30686 225.092 1.31497C225.316 1.34902 225.445 1.47061 225.753 1.43332C225.931 1.41225 226.125 1.40577 226.311 1.40091C226.36 1.39928 226.425 1.42683 226.459 1.44791C226.478 1.45926 226.459 1.49006 226.436 1.50628C226.368 1.55167 226.284 1.59384 226.223 1.64086C226.216 1.64734 226.288 1.67652 226.33 1.68949C226.432 1.71867 226.55 1.71382 226.686 1.70085C226.804 1.6895 226.926 1.7122 227.009 1.76084C227.043 1.78029 227.032 1.81271 226.96 1.91972C226.96 1.99917 227.039 1.96349 227.066 1.91161C227.108 1.83703 227.028 1.81271 226.876 1.85324C226.77 1.88243 226.717 1.92458 226.743 1.95863C226.759 1.97647 226.831 1.99917 226.96 1.91972C227.294 1.82244 227.544 1.80462 227.795 1.78678C227.859 1.78192 227.935 1.76569 227.981 1.77542C228.144 1.81433 228.296 1.86136 228.455 1.90514C228.638 1.89541 228.808 1.87108 228.987 1.93431C229.237 2.02348 229.249 2.01538 229.492 1.99754C229.617 1.98782 229.742 1.97972 229.868 1.97162C229.993 1.96351 230.091 1.98782 230.202 2.02511C230.426 2.10132 230.445 2.10131 230.593 1.99754C230.68 1.93431 230.741 1.91324 230.851 1.94242C231.215 2.04132 231.219 2.04781 231.53 2.01862C231.788 1.9943 232.031 1.98782 232.221 2.08023C232.35 2.14509 232.392 2.1305 232.494 2.0624C232.768 1.88243 232.893 1.88567 233.405 2.01538C233.645 2.07699 233.891 2.01052 234.134 2.00241C234.339 1.99593 234.483 2.03483 234.499 2.13698C234.51 2.20021 234.544 2.24561 234.681 2.26669C234.734 2.2748 234.799 2.28614 234.852 2.2829C235.167 2.26344 235.478 2.24074 235.793 2.21804C235.952 2.20669 236.04 2.1305 236.009 2.02998C235.975 1.92297 236.036 1.88405 236.264 1.85324C236.4 1.83541 236.511 1.83866 236.621 1.86785C236.742 1.90028 236.708 1.92946 236.602 1.98783C236.347 2.1305 236.378 2.21804 236.704 2.31694C236.818 2.35099 236.909 2.38181 236.936 2.43207C236.951 2.45801 236.936 2.49206 236.97 2.51151C237.156 2.62014 237.414 2.68986 237.702 2.74175C237.98 2.69797 238.169 2.77092 238.382 2.82929C238.549 2.87468 238.746 2.83578 238.925 2.81957C239.126 2.80173 239.293 2.8147 239.437 2.87469C239.54 2.91684 239.646 2.93629 239.771 2.92818C240.022 2.91035 240.276 2.89901 240.523 2.87306C240.735 2.85037 240.895 2.8828 241.028 2.93792C241.195 3.00764 241.381 2.96061 241.555 2.97034C241.791 2.98169 241.909 3.12598 242.216 3.08707C242.398 3.06437 242.588 3.05627 242.778 3.04978C242.827 3.04816 242.888 3.07573 242.93 3.09519C243.131 3.18436 243.366 3.17949 243.624 3.15355C243.803 3.13572 243.977 3.11951 244.152 3.18112C244.44 3.28489 244.759 3.37569 245.063 3.47135C245.105 3.54593 245.074 3.63346 245.291 3.67724C245.405 3.69994 245.511 3.734 245.598 3.77129C245.704 3.81506 245.803 3.82642 245.94 3.81507C246.187 3.79237 246.445 3.78749 246.688 3.7583C246.912 3.73236 247.052 3.78588 247.189 3.83614C247.299 3.87668 247.401 3.89612 247.534 3.86694C247.671 3.83938 247.77 3.85721 247.88 3.90098C248.035 3.96097 248.047 3.9545 248.563 3.97233C248.616 3.97395 248.681 3.99826 248.711 4.01934C248.726 4.03068 248.692 4.06313 248.665 4.07934C248.631 4.0988 248.578 4.12148 248.529 4.12635C247.967 4.1685 247.401 4.20579 246.84 4.24795C246.783 4.25281 246.722 4.26417 246.68 4.28039C246.635 4.29822 246.578 4.32253 246.578 4.34522C246.578 4.36144 246.653 4.3809 246.707 4.39225C246.874 4.42954 247.071 4.3728 247.234 4.41495C247.344 4.44251 247.435 4.48142 247.546 4.50736C247.591 4.51871 247.663 4.51709 247.72 4.51385C247.91 4.5025 248.096 4.48629 248.286 4.47656C248.339 4.47494 248.4 4.49116 248.449 4.50413C248.813 4.60141 248.813 4.60141 249.129 4.58033C249.254 4.57222 249.387 4.5479 249.504 4.55763C249.618 4.56736 249.717 4.61113 249.819 4.63869C250.032 4.69706 250.233 4.75381 250.248 4.88027C250.256 4.92891 250.381 4.97106 250.506 4.9743C250.628 4.97754 250.757 4.95972 250.882 4.95C251.178 4.93054 251.178 4.93054 251.562 5.02944C251.668 5.057 251.782 5.06024 251.919 5.04403C251.972 5.03754 252.036 5.04403 252.093 5.05214C252.279 5.07646 252.279 5.10726 252.158 5.16563C251.987 5.25156 252.002 5.25967 252.48 5.33263C252.663 5.36019 252.803 5.41208 252.955 5.45747C253.202 5.53043 253.198 5.53042 253.035 5.62608C252.997 5.64715 252.962 5.66986 252.925 5.69256C252.814 5.75579 252.727 5.82388 252.499 5.83037C252.249 5.83685 251.998 5.8628 251.748 5.88064C251.505 5.89847 251.44 5.93737 251.463 6.04762C251.49 6.18057 251.539 6.19516 251.976 6.19354C252.101 6.19354 252.211 6.20651 252.306 6.25029C252.26 6.30217 252.177 6.3427 252.055 6.35243C251.744 6.37675 251.429 6.39783 251.118 6.41891C250.867 6.43674 250.617 6.45457 250.366 6.47241C250.21 6.48376 250.112 6.56807 250.153 6.66211C250.176 6.71561 250.195 6.76911 250.214 6.82262C250.256 6.92963 250.336 6.9572 250.59 6.95233C250.654 6.95071 250.715 6.93773 250.776 6.94097C251.023 6.95232 251.14 7.08689 251.436 7.05933C251.683 7.03663 251.941 7.03177 252.184 7.00258C252.408 6.97664 252.533 7.03503 252.689 7.0788C252.742 7.09339 252.799 7.12418 252.845 7.12256C253.16 7.10473 253.475 7.08691 253.782 7.0561C253.927 7.04313 254.014 7.05285 254.128 7.09177C254.401 7.1858 254.409 7.18094 254.815 7.15175C255.111 7.12906 255.115 7.1323 255.494 7.2312C255.601 7.25876 255.715 7.25875 255.851 7.24578C256.03 7.22957 256.216 7.20363 256.402 7.22795C256.459 7.23444 256.531 7.2539 256.55 7.27498C256.561 7.28957 256.508 7.32524 256.462 7.33659C256.128 7.4209 255.737 7.40631 255.373 7.44035C255.259 7.45008 255.145 7.41927 255.05 7.3755C254.952 7.33172 254.845 7.31389 254.716 7.322C254.466 7.33984 254.211 7.35118 253.965 7.37712C253.752 7.39982 253.604 7.36252 253.456 7.31226C253.407 7.29605 253.35 7.26524 253.3 7.26686C252.739 7.29929 252.173 7.33172 251.615 7.37712C251.391 7.39658 251.262 7.3447 251.11 7.30092C251.057 7.28633 251.004 7.25552 250.954 7.25714C250.765 7.26363 250.579 7.28146 250.389 7.29443C249.698 7.34307 249.011 7.39171 248.32 7.43711C248.274 7.44035 248.217 7.4063 248.164 7.39171C248.062 7.36252 247.956 7.33496 247.849 7.30739C247.659 7.32037 247.473 7.33658 247.284 7.3463C247.147 7.35279 247.025 7.3755 247.007 7.43711C246.995 7.47764 247.12 7.51493 247.253 7.51168C247.382 7.50844 247.511 7.48898 247.618 7.51006C248.145 7.61383 248.145 7.61545 248.476 7.59437C248.764 7.57492 248.734 7.5587 248.988 7.64787C249.098 7.68678 249.197 7.70949 249.322 7.69976C249.633 7.67706 249.948 7.65436 250.264 7.63491C250.313 7.63166 250.377 7.64788 250.427 7.66085C250.799 7.75813 250.799 7.76137 251.106 7.73705C251.509 7.70787 251.524 7.69976 251.793 7.79866C251.979 7.86676 252.15 7.81974 252.329 7.81649C252.534 7.87973 252.758 7.93648 252.944 8.00782C253.164 8.09213 253.395 8.07752 253.646 8.0532C253.832 8.03537 254.014 8.02888 254.166 8.09536C254.31 8.15697 254.485 8.16347 254.682 8.14725C254.86 8.13266 255.043 8.10184 255.229 8.13751C255.278 8.14724 255.354 8.17157 255.35 8.18616C255.346 8.20886 255.297 8.24129 255.248 8.25102C254.898 8.31749 254.515 8.31587 254.147 8.34667C254.097 8.35154 254.033 8.3337 253.984 8.32073C253.877 8.29154 253.775 8.2575 253.672 8.2267C253.486 8.23642 253.297 8.23966 253.114 8.25911C252.974 8.27371 252.868 8.2721 252.765 8.23319C252.67 8.19752 252.568 8.15373 252.454 8.14238C252.34 8.13103 252.207 8.15536 252.082 8.16508C251.957 8.17481 251.812 8.16994 251.714 8.19588C251.615 8.22182 251.554 8.27857 251.49 8.32397C251.417 8.37423 251.319 8.39046 251.175 8.39532C251.042 8.40018 250.935 8.39369 250.837 8.3483C250.795 8.32884 250.738 8.31424 250.681 8.30127C250.628 8.28992 250.567 8.27208 250.518 8.27532C249.952 8.31261 249.39 8.35316 248.825 8.39207C248.544 8.41153 248.548 8.41152 247.963 8.31586C247.91 8.30775 247.845 8.2964 247.792 8.29965C247.477 8.3191 247.166 8.34181 246.851 8.3645C246.532 8.3872 246.536 8.38396 245.993 8.28181C245.894 8.26236 245.75 8.2883 245.632 8.28506C245.386 8.27695 245.264 8.14077 244.976 8.16671C244.729 8.18941 244.471 8.19427 244.224 8.22345C244 8.24939 243.871 8.19265 243.719 8.14887C243.666 8.13428 243.609 8.10185 243.563 8.1051C242.998 8.14077 242.436 8.1813 241.684 8.18616C241.498 8.18616 241.582 8.22021 241.703 8.23156C241.878 8.2494 241.935 8.21535 241.84 8.1505C241.772 8.1051 241.673 8.08239 241.593 8.09374C241.552 8.10022 241.498 8.13104 241.684 8.18616C241.882 8.24777 241.871 8.28181 241.905 8.30127C241.988 8.34829 242.106 8.36774 242.227 8.36126C242.417 8.34991 242.603 8.3337 242.793 8.32397C242.846 8.32073 242.911 8.33208 242.96 8.34505C243.378 8.44557 243.381 8.45206 243.826 8.41315C243.966 8.4018 244.068 8.4018 244.178 8.43261C244.33 8.47476 244.44 8.54609 244.672 8.52339C244.979 8.49259 245.295 8.47477 245.61 8.45693C245.659 8.45369 245.712 8.48287 245.769 8.49584C245.925 8.53475 246.039 8.60771 246.27 8.57691C246.449 8.55259 246.642 8.54609 246.832 8.54122C246.881 8.5396 246.957 8.56555 246.98 8.58663C247.025 8.62392 246.969 8.6677 246.84 8.69851C246.786 8.71148 246.714 8.70823 246.654 8.71309C246.403 8.73093 246.152 8.75038 245.902 8.76497C245.769 8.77307 245.644 8.79741 245.629 8.85739C245.617 8.89793 245.754 8.93359 245.883 8.93035C246.073 8.92548 246.262 8.91251 246.445 8.89144C246.767 8.85577 247.048 8.86549 247.31 8.96763C247.496 9.03897 247.485 9.01304 247.682 9.22382C247.732 9.27732 247.88 9.28218 248.009 9.27894C248.32 9.27083 248.464 9.29515 248.438 9.34542C248.403 9.40703 248.293 9.42647 248.153 9.43458C247.902 9.44755 247.652 9.46864 247.401 9.48647C247.341 9.49133 247.272 9.50105 247.215 9.49781C247.158 9.49457 247.105 9.47512 247.056 9.46052C246.95 9.42972 246.858 9.38269 246.745 9.37134C246.631 9.35999 246.498 9.38432 246.373 9.39404C246.247 9.40215 246.114 9.42647 246.001 9.41512C245.887 9.40377 245.792 9.35514 245.689 9.32596C245.64 9.31137 245.579 9.28866 245.53 9.29028C245.279 9.30325 245.029 9.32433 244.778 9.34055C244.471 9.36162 244.471 9.36163 244.099 9.2611C243.993 9.23192 243.882 9.23355 243.742 9.24652C243.438 9.27246 243.435 9.26758 242.88 9.17355C242.827 9.16382 242.763 9.15247 242.709 9.15734C242.144 9.19463 241.582 9.23516 241.02 9.27407C240.538 9.30812 240.538 9.30813 240.272 9.47026C240.075 9.59024 240.071 9.59023 240.265 9.64536C240.42 9.69075 240.561 9.75722 240.732 9.78154C240.891 9.80424 241.089 9.73129 241.263 9.80587C241.35 9.84316 241.464 9.88369 241.574 9.89018C241.749 9.89829 241.935 9.85126 242.102 9.9226C242.186 9.95827 242.311 9.99557 242.417 9.99719C242.603 10.0004 242.793 9.97448 242.979 9.96313C243.036 9.95989 243.1 9.95989 243.154 9.968C243.211 9.97773 243.26 9.99719 243.309 10.0134C243.461 10.0685 243.624 10.0945 243.822 10.0669C244.144 10.0215 244.433 10.0442 244.683 10.148C244.718 10.1626 244.801 10.1642 244.854 10.1577C244.991 10.1415 245.109 10.1399 245.211 10.1707C245.253 10.1836 245.313 10.2063 245.306 10.2209C245.295 10.2452 245.249 10.2777 245.2 10.2858C244.843 10.3409 244.459 10.3474 244.091 10.3766C244.042 10.3798 243.981 10.3587 243.932 10.3441C243.826 10.315 243.734 10.2663 243.62 10.255C243.507 10.2436 243.374 10.2647 243.248 10.2728C243.123 10.2809 242.99 10.3052 242.876 10.2955C242.763 10.2842 242.656 10.2436 242.565 10.208C242.459 10.1674 242.356 10.1626 242.216 10.1788C242.034 10.1999 241.844 10.2031 241.658 10.2144C241.555 10.1836 241.453 10.1496 241.347 10.1204C241.297 10.1058 241.237 10.088 241.183 10.0896C240.933 10.1026 240.682 10.122 240.432 10.1399C240.181 10.1577 240.181 10.1577 239.756 10.0572C239.707 10.0458 239.642 10.0329 239.589 10.0361C239.274 10.0556 238.963 10.0799 238.648 10.0993C238.526 10.1074 238.416 10.0847 238.317 10.041C238.223 9.99718 238.109 9.97286 237.991 9.98096C237.49 10.015 236.989 10.0474 236.488 10.088C236.287 10.1042 236.116 10.0896 235.979 10.0312C235.82 9.96476 235.641 9.98098 235.455 9.99395C235.034 10.0264 235.03 10.0247 234.761 9.94205C234.707 9.92584 234.654 9.89503 234.605 9.89665C234.168 9.92097 233.728 9.94368 233.295 9.98259C233.068 10.0037 232.946 9.94692 232.794 9.90477C232.741 9.89017 232.684 9.85937 232.639 9.86261C232.324 9.88045 232.008 9.89666 231.701 9.92909C231.393 9.96152 231.276 9.81074 231.044 9.81236C230.729 9.81398 230.418 9.85127 230.107 9.87397C229.856 9.89181 229.606 9.90963 229.355 9.92747C229.105 9.9453 228.854 9.95989 228.603 9.98096C228.471 9.99231 228.372 9.97772 228.262 9.93719C228.121 9.88368 227.954 9.84154 227.803 9.7929C227.571 9.72319 227.571 9.72318 227.29 9.74263C227.229 9.7475 227.165 9.75073 227.104 9.7556C226.645 9.79127 226.645 9.78803 226.06 9.68589C226.034 9.68103 225.965 9.69887 225.939 9.71184C225.859 9.75399 225.787 9.79938 225.715 9.84315C225.612 9.81721 225.487 9.80263 225.419 9.76534C225.225 9.65995 224.921 9.80424 224.724 9.70048C224.652 9.66157 224.527 9.62752 224.413 9.61779C224.295 9.60806 224.162 9.63076 224.041 9.64049C223.726 9.66481 223.726 9.66319 223.456 9.80749C223.319 9.87883 223.122 9.86585 222.944 9.88207C222.758 9.8999 222.579 9.90963 222.424 9.84315C222.283 9.78317 222.112 9.76858 221.911 9.78804C221.664 9.81236 221.41 9.82694 221.16 9.84153C221.106 9.84478 221.042 9.83667 220.989 9.82695C220.408 9.73129 220.408 9.72967 220.127 9.75075C220.002 9.76048 219.873 9.76371 219.751 9.7783C219.546 9.80424 219.391 9.77019 219.243 9.71831C219.193 9.7021 219.136 9.67131 219.087 9.67293C218.836 9.68103 218.59 9.69562 218.343 9.71021C218.153 9.72156 217.963 9.72805 217.781 9.75075C217.477 9.78804 217.329 9.68264 217.121 9.634C216.809 9.65508 216.494 9.66967 216.183 9.69885C216.039 9.71183 215.944 9.70697 215.834 9.66806C215.693 9.61942 215.564 9.5643 215.336 9.58862C215.033 9.62104 214.714 9.63239 214.403 9.65185C214.194 9.60159 214.042 9.49943 213.742 9.53672C213.56 9.55942 213.366 9.56428 213.18 9.57726C212.93 9.59509 212.679 9.61132 212.429 9.63077C212.159 9.65023 212.163 9.64536 211.749 9.54971C211.51 9.49296 211.263 9.55619 211.02 9.56591C210.83 9.57402 210.736 9.6486 210.781 9.74426C210.827 9.83992 210.724 9.9145 210.55 9.92747C210.113 9.95827 209.673 9.99069 209.236 10.0183C209.183 10.0215 209.119 10.0101 209.069 9.9988C208.602 9.89665 208.602 9.89829 208.393 9.91288C208.082 9.9372 207.763 9.95016 207.456 9.98096C207.243 10.002 207.088 9.96801 206.951 9.91288C206.845 9.87073 206.746 9.861 206.609 9.87072C205.106 9.97935 203.603 10.0799 202.103 10.1917C201.88 10.208 201.751 10.1609 201.599 10.1172C201.546 10.1026 201.496 10.0718 201.443 10.0718C201.318 10.0718 201.192 10.0864 201.067 10.0961C200.505 10.135 199.944 10.182 199.378 10.2112C199.139 10.2242 199.074 10.2988 198.972 10.3604C198.892 10.4074 198.801 10.4268 198.661 10.4333C198.524 10.4398 198.425 10.4317 198.319 10.3895C198.182 10.3344 198.027 10.3004 197.814 10.3231C197.567 10.349 197.317 10.3604 197.062 10.3782C196.933 10.3863 196.835 10.4155 196.793 10.4739C196.785 10.4836 196.865 10.5079 196.911 10.5225C197.062 10.5711 197.207 10.6279 197.377 10.6619C197.552 10.696 197.742 10.6571 197.924 10.6473C197.989 10.6441 198.049 10.6344 198.11 10.636C198.167 10.6376 198.235 10.6457 198.277 10.6603C198.475 10.7333 198.683 10.7835 198.957 10.7398C199.192 10.7608 199.313 10.8954 199.613 10.8597C199.796 10.8387 199.985 10.8289 200.175 10.8208C200.225 10.8192 200.278 10.8484 200.331 10.863C200.483 10.9035 200.604 10.9684 200.832 10.9408C201.075 10.9116 201.333 10.9068 201.58 10.8841C201.716 10.8711 201.815 10.8824 201.921 10.9246C202.058 10.9781 202.214 11.0186 202.426 10.9927C202.608 10.97 202.802 10.9651 202.988 10.9505C203.231 10.9327 203.231 10.9343 203.664 11.0348C203.713 11.0462 203.778 11.0591 203.831 11.0559C204.146 11.0364 204.457 11.0121 204.772 10.9927C204.894 10.9846 205.011 11.0056 205.095 11.0527C205.129 11.0721 205.117 11.1046 205.129 11.1321C204.503 11.1759 203.876 11.2132 203.254 11.2667C203.018 11.2878 202.912 11.2213 202.756 11.184C202.703 11.171 202.646 11.1435 202.597 11.1467C202.157 11.1743 201.72 11.2034 201.284 11.2391C201.147 11.2505 201.044 11.244 200.942 11.197C200.68 11.0721 200.361 11.1402 200.065 11.158C199.837 11.171 199.765 11.2213 199.792 11.3283C199.826 11.4548 199.963 11.4937 200.312 11.471C200.437 11.4629 200.562 11.4515 200.688 11.445C200.809 11.4385 200.919 11.4596 201.018 11.5034C201.113 11.5472 201.227 11.5699 201.344 11.5634C201.595 11.5488 201.849 11.5342 202.092 11.5099C202.293 11.4904 202.46 11.5066 202.601 11.5666C202.756 11.6331 202.939 11.6185 203.121 11.6039C203.546 11.5715 203.55 11.5731 203.815 11.6542C203.869 11.6704 203.922 11.7012 203.971 11.6996C204.408 11.6753 204.848 11.6542 205.277 11.6153C205.501 11.5958 205.63 11.6477 205.778 11.6899C205.831 11.7044 205.884 11.7369 205.934 11.7336C206.249 11.7158 206.564 11.698 206.871 11.6671C207.016 11.6526 207.103 11.6623 207.22 11.7012C207.501 11.7968 207.509 11.7936 207.908 11.7628C208.029 11.7531 208.162 11.7352 208.276 11.7482C208.39 11.7612 208.481 11.8082 208.587 11.8374C208.636 11.8504 208.697 11.8682 208.75 11.8649C209.001 11.852 209.251 11.8325 209.502 11.8147C209.737 11.7969 209.737 11.7985 210.178 11.899C210.356 11.9412 210.542 11.9055 210.72 11.8925C210.914 11.8779 211.089 11.8779 211.237 11.9412C211.385 12.0044 211.563 12.0011 211.753 11.9882C211.931 11.9752 212.114 11.9395 212.296 11.9833C212.713 12.0838 212.713 12.0854 212.971 12.066C213.347 12.0384 213.719 12.0125 214.099 11.9882C214.148 11.9849 214.213 12.0044 214.262 12.0174C214.368 12.0465 214.46 12.0952 214.573 12.1065C214.687 12.1195 214.82 12.1 214.942 12.0903C215.333 12.0595 215.359 12.0482 215.621 12.1552C215.841 12.2427 216.115 12.1163 216.32 12.2168C216.437 12.2735 216.597 12.3189 216.817 12.2914C216.999 12.2687 217.189 12.2622 217.379 12.2492C217.678 12.2281 217.679 12.2298 218.058 12.327C218.107 12.34 218.172 12.3562 218.221 12.353C218.472 12.34 218.726 12.3287 218.969 12.2995C219.254 12.2654 219.436 12.327 219.649 12.387C219.816 12.434 220.013 12.3951 220.192 12.3789C220.385 12.3627 220.56 12.3676 220.704 12.4308C220.856 12.4956 221.034 12.4875 221.224 12.4746C221.402 12.4632 221.585 12.4259 221.767 12.4713C222.158 12.5718 222.158 12.5718 222.443 12.5524C222.693 12.5346 222.944 12.5151 223.194 12.5021C223.243 12.4989 223.304 12.52 223.354 12.5346C223.46 12.5637 223.551 12.6124 223.665 12.6237C223.779 12.6351 223.912 12.614 224.037 12.6059C224.162 12.5978 224.295 12.5735 224.409 12.5832C224.523 12.5929 224.629 12.6335 224.72 12.6691C224.826 12.7113 224.925 12.7161 225.069 12.6999C225.252 12.6789 225.441 12.674 225.627 12.6626C225.73 12.6935 225.836 12.7243 225.935 12.7583C226.037 12.794 226.147 12.7907 226.288 12.7794C226.755 12.7405 226.759 12.7453 227.15 12.8459C227.328 12.8913 227.514 12.854 227.692 12.8426C227.882 12.8296 228.061 12.8232 228.209 12.888C228.353 12.9496 228.531 12.9577 228.721 12.9383C228.843 12.9253 228.972 12.9172 229.097 12.9123C229.154 12.9107 229.222 12.9172 229.264 12.9302C229.465 12.9983 229.663 13.0599 229.94 13.0161C230.183 13.0291 230.304 13.162 230.596 13.1361C230.843 13.1134 231.101 13.1085 231.344 13.0793C231.568 13.0534 231.728 13.0988 231.841 13.1555C232.046 13.2561 232.335 13.1199 232.54 13.2188C232.658 13.2755 232.809 13.3209 233.037 13.2966C233.288 13.2707 233.367 13.3047 233.44 13.4068C233.481 13.4652 233.474 13.5122 233.398 13.5576C233.322 13.6046 233.238 13.5965 233.117 13.543C232.977 13.483 232.809 13.4717 232.608 13.4847C232.411 13.4976 232.289 13.4133 232.126 13.3809C231.963 13.3469 231.769 13.4036 231.599 13.3598C231.196 13.2577 231.196 13.2577 230.923 13.2771C230.737 13.2901 230.543 13.2966 230.361 13.3193C230.145 13.3469 230.004 13.2966 229.856 13.2512C229.803 13.235 229.75 13.2042 229.704 13.2058C229.268 13.2301 228.827 13.2528 228.395 13.2933C228.167 13.3144 228.045 13.2561 227.894 13.2155C227.84 13.2009 227.783 13.1718 227.738 13.175C227.362 13.1977 226.99 13.2269 226.614 13.2544C226.542 13.2982 226.462 13.3404 226.394 13.3874C226.322 13.436 226.223 13.4571 226.079 13.4555C225.84 13.4555 225.605 13.5236 225.365 13.4376C225.119 13.3501 225.1 13.355 224.861 13.376C224.557 13.4036 224.234 13.3971 223.95 13.4603C223.9 13.4717 223.847 13.5025 223.847 13.5252C223.843 13.5398 223.923 13.5609 223.972 13.5738C224.139 13.6127 224.333 13.556 224.5 13.5965C224.61 13.6225 224.701 13.6614 224.811 13.6889C224.857 13.7003 224.925 13.6987 224.986 13.6971C225.05 13.6954 225.111 13.6841 225.172 13.6857C225.229 13.6873 225.29 13.6971 225.335 13.7116C225.544 13.7733 225.764 13.83 225.95 13.903C226.132 13.9743 226.303 13.9257 226.485 13.9224C227.214 14.0359 227.214 14.0375 227.704 14.0019C227.825 13.9938 227.951 13.984 228.076 13.9857C228.129 13.9857 228.178 14.0148 228.231 14.031C228.383 14.0797 228.528 14.1235 228.74 14.0975C228.922 14.0748 229.116 14.07 229.302 14.0554C229.552 14.0375 229.552 14.0375 229.978 14.1397C230.084 14.1656 230.198 14.1624 230.334 14.1494C230.452 14.1381 230.574 14.1624 230.657 14.2094C230.691 14.2289 230.68 14.2613 230.691 14.2888C230.315 14.3148 229.936 14.3326 229.571 14.3715C229.336 14.3959 229.23 14.3261 229.074 14.2888C229.021 14.2759 228.964 14.2483 228.915 14.2516C228.543 14.2759 228.171 14.3034 227.799 14.3359C227.753 14.3391 227.696 14.3764 227.692 14.3991C227.685 14.4412 227.78 14.4818 227.916 14.4802C228.099 14.4785 228.277 14.451 228.44 14.5174C228.577 14.5758 228.748 14.6018 228.949 14.5758C229.07 14.5612 229.199 14.5612 229.321 14.5483C229.644 14.5093 229.936 14.5174 230.179 14.6277C230.365 14.6569 230.547 14.6293 230.725 14.6147C230.858 14.6034 230.987 14.592 231.082 14.6228C231.283 14.6877 231.481 14.7525 231.758 14.7088C232.058 14.7542 232.286 14.8498 232.536 14.9276C232.654 14.9649 232.745 14.986 232.882 14.9617C232.939 14.952 233.007 14.952 233.068 14.9471C233.193 14.939 233.326 14.9147 233.44 14.9244C233.553 14.9357 233.648 14.9828 233.751 15.012C233.8 15.0265 233.857 15.0509 233.906 15.0492C234.096 15.0411 234.282 15.0249 234.468 15.012C234.654 15.0006 234.84 14.9893 235.026 14.9779C235.182 15.0201 235.341 15.0622 235.497 15.1044C235.748 15.0865 235.998 15.0687 236.245 15.0525C236.522 15.033 236.522 15.0347 236.92 15.1352C237.099 15.1806 237.289 15.1514 237.46 15.1303C237.744 15.0963 237.934 15.1579 238.135 15.2227C238.177 15.2357 238.253 15.2438 238.302 15.2373C238.5 15.2146 238.67 15.2324 238.815 15.2924C238.917 15.3346 239.02 15.3541 239.145 15.346C239.582 15.3151 240.018 15.2827 240.455 15.2552C240.508 15.2519 240.568 15.2665 240.618 15.2795C241.005 15.3784 241.009 15.3832 241.293 15.3573C241.548 15.3346 241.783 15.3249 241.984 15.414C242.026 15.4335 242.091 15.4611 242.136 15.4594C242.447 15.4432 242.763 15.4254 243.07 15.3978C243.211 15.3849 243.309 15.3897 243.419 15.427C243.56 15.474 243.685 15.5308 243.917 15.5097C244.558 15.4497 244.562 15.4594 245.321 15.5713C245.374 15.5794 245.446 15.5664 245.507 15.56C245.636 15.5437 245.731 15.5665 245.845 15.6037C246.099 15.688 246.107 15.6832 246.35 15.6654C246.536 15.6508 246.729 15.6475 246.912 15.6232C247.193 15.5875 247.379 15.6508 247.587 15.7108C247.754 15.7578 247.948 15.7189 248.126 15.7043C248.32 15.688 248.495 15.6929 248.639 15.7545C248.738 15.7967 248.844 15.8194 248.969 15.8113C249.406 15.7821 249.842 15.7497 250.279 15.7205C250.332 15.7172 250.396 15.7302 250.446 15.7415C250.878 15.8421 250.878 15.8469 251.307 15.8097C251.444 15.7983 251.558 15.7951 251.66 15.8291C251.759 15.8615 251.865 15.8923 251.968 15.9231C252.154 15.9118 252.344 15.9086 252.526 15.8891C252.666 15.8745 252.765 15.881 252.875 15.915C253.019 15.9588 253.141 16.035 253.369 15.9977C253.486 15.9799 253.623 15.9848 253.741 15.9685C253.881 15.9475 253.976 15.9604 254.086 16.0026C254.223 16.0528 254.363 16.1047 254.583 16.0788C254.826 16.0496 255.084 16.0447 255.331 16.022C255.468 16.0091 255.563 16.022 255.673 16.0642C255.809 16.1177 255.965 16.1517 256.178 16.1307C256.61 16.0901 256.614 16.0982 257.036 16.2004C257.142 16.2263 257.256 16.2231 257.392 16.2101C257.51 16.1988 257.632 16.2231 257.715 16.2701C257.795 16.322 257.787 16.3544 257.795 16.382ZM223.969 1.75921C223.843 1.76732 223.718 1.77705 223.536 1.63599C223.524 1.61167 223.532 1.58249 223.505 1.56142C223.445 1.51764 223.35 1.48684 223.236 1.48197C223.031 1.47549 222.784 1.5306 222.788 1.57276C222.792 1.60843 222.856 1.63922 222.982 1.66841C223.035 1.67976 223.076 1.69922 223.126 1.71219C223.27 1.74948 223.384 1.82245 223.593 1.78516C223.555 1.68464 223.574 1.7349 223.593 1.78516C223.574 1.84677 223.631 1.89055 223.767 1.90838C223.805 1.91325 223.862 1.91 223.893 1.90027C224.01 1.8646 224.029 1.81597 223.942 1.68788C223.927 1.70896 223.938 1.74624 223.972 1.75597C224.007 1.76569 224.09 1.7576 224.132 1.74625C224.238 1.71544 224.291 1.67491 224.265 1.64086C224.249 1.62302 224.177 1.60033 224.132 1.60033C224.052 1.60033 223.98 1.63599 223.969 1.75921ZM254.663 20.5618C254.386 20.5926 254.067 20.5812 253.79 20.6444C253.741 20.6558 253.691 20.685 253.688 20.7077C253.684 20.7223 253.76 20.7434 253.805 20.7547C253.908 20.7806 254.022 20.7725 254.154 20.7644C254.356 20.7531 254.473 20.8277 254.629 20.8649C254.678 20.8763 254.743 20.8844 254.796 20.8812C255.103 20.8617 255.407 20.8406 255.715 20.8179C255.768 20.8131 255.825 20.8017 255.87 20.7871C256.022 20.7401 256.007 20.7093 255.859 20.6736C255.696 20.6347 255.567 20.5699 255.4 20.5391C255.16 20.4953 254.917 20.5536 254.663 20.5618ZM233.106 21.7453C232.92 21.7583 232.737 21.7713 232.551 21.7842C232.491 21.7891 232.426 21.7907 232.369 21.7972C232.251 21.8086 232.164 21.8426 232.107 21.8961C232.194 21.9383 232.301 21.9626 232.418 21.9577C232.604 21.948 232.787 21.9269 232.973 21.9221C233.174 21.9156 233.292 21.9885 233.447 22.0258C233.497 22.0372 233.557 22.0388 233.614 22.0404C233.895 22.0469 234.066 21.9626 234.013 21.8442C233.975 21.7518 233.831 21.6967 233.656 21.708C233.474 21.7194 233.288 21.7324 233.106 21.7453ZM255.961 18.1654C256.007 18.1379 256.056 18.1184 256.079 18.0941C256.147 18.0114 256.121 17.9498 255.995 17.8849C255.844 17.8055 255.658 17.859 255.487 17.8671C255.445 17.8687 255.4 17.9028 255.377 17.9239C255.362 17.9384 255.362 17.9693 255.384 17.9774C255.57 18.0422 255.768 18.1022 255.961 18.1654ZM223.031 13.376C222.849 13.389 222.663 13.3987 222.481 13.4166C222.435 13.4214 222.393 13.4522 222.367 13.4733C222.317 13.5122 222.37 13.5657 222.526 13.5706C222.704 13.5771 222.89 13.5495 223.076 13.5365C223.312 13.5203 223.452 13.4603 223.365 13.4085C223.281 13.3582 223.168 13.3485 223.031 13.376ZM23.2126 9.91126C23.3341 9.90315 23.4593 9.89666 23.5808 9.88531C23.6947 9.87396 23.782 9.83829 23.839 9.78479C23.7441 9.74264 23.6378 9.71994 23.5201 9.7248C23.3341 9.73453 23.1519 9.7475 22.9697 9.76371C22.8558 9.77344 22.7457 9.80911 22.7192 9.86423C22.6926 9.90639 22.9469 9.93071 23.2126 9.91126ZM206.978 9.66157C207.027 9.67616 207.076 9.70535 207.126 9.70535C207.247 9.70535 207.372 9.69561 207.486 9.6794C207.536 9.67291 207.574 9.64373 207.596 9.62103C207.611 9.60644 207.608 9.58051 207.585 9.56754C207.475 9.48971 207.035 9.51727 206.962 9.60645C206.955 9.62266 206.974 9.64373 206.978 9.66157ZM195.001 0.78317C195.013 0.809111 195.016 0.835049 195.032 0.86099C195.062 0.90963 195.145 0.945306 195.267 0.969626C195.362 0.929093 195.411 0.883703 195.407 0.835063C195.404 0.809122 195.392 0.783164 195.377 0.757223C195.347 0.708583 195.263 0.672926 195.142 0.648606C195.047 0.687518 195.001 0.732908 195.001 0.78317ZM264.734 22.0274C264.7 22.0485 264.666 22.0696 264.628 22.0891C264.73 22.1361 264.825 22.1507 264.897 22.1247C264.943 22.1085 264.969 22.0842 265.003 22.0631C264.901 22.0161 264.81 22.0031 264.734 22.0274ZM262.373 22.2479C262.422 22.2625 262.468 22.282 262.521 22.2917C262.608 22.3079 262.688 22.2804 262.749 22.222C262.699 22.2074 262.654 22.1879 262.601 22.1782C262.513 22.162 262.434 22.1896 262.373 22.2479ZM263.868 21.9512C263.842 21.9902 263.895 22.0226 264.035 22.0501C264.07 22.0291 264.115 22.0096 264.138 21.9869C264.176 21.9496 264.111 21.9156 263.975 21.8896C263.937 21.9091 263.903 21.9302 263.868 21.9512ZM255.855 20.2034C255.828 20.2424 255.882 20.2748 256.022 20.3023C256.056 20.2813 256.102 20.2618 256.125 20.2391C256.163 20.2018 256.098 20.1678 255.961 20.1418C255.923 20.1613 255.889 20.1824 255.855 20.2034ZM244.938 8.73093C244.904 8.752 244.869 8.77308 244.831 8.79254C244.934 8.83956 245.029 8.85414 245.101 8.8282C245.146 8.81199 245.173 8.78767 245.207 8.76659C245.105 8.71957 245.014 8.70661 244.938 8.73093ZM234.48 2.64445C234.571 2.6558 234.647 2.63311 234.711 2.57312C234.662 2.55853 234.616 2.53907 234.563 2.52934C234.476 2.51313 234.396 2.5407 234.335 2.59907C234.385 2.61528 234.434 2.62986 234.48 2.64445ZM228.926 2.26344C228.892 2.28452 228.858 2.3056 228.82 2.32505C228.922 2.37207 229.017 2.38666 229.089 2.36072C229.135 2.34451 229.161 2.32019 229.196 2.29911C229.093 2.25209 229.002 2.24074 228.926 2.26344ZM191.266 0.781547C191.232 0.802624 191.198 0.823702 191.16 0.843158C191.262 0.890176 191.357 0.904764 191.429 0.878822C191.475 0.862609 191.501 0.838288 191.535 0.817211C191.433 0.770193 191.342 0.758848 191.266 0.781547ZM3.74662 13.9727C3.69727 13.9581 3.64796 13.9435 3.60241 13.9273C3.49233 13.9711 3.45817 14.0116 3.51891 14.0424C3.55687 14.0619 3.61377 14.0732 3.66311 14.0878C3.777 14.044 3.80356 14.0051 3.74662 13.9727Z" fill="#4F9CF9"/>
</svg>
