<svg width="190" height="24" viewBox="0 0 190 24" fill="none" xmlns="http://www.w3.org/2000/svg">
<path d="M178.673 12.7462C178.413 12.7651 178.15 12.7781 177.895 12.8065C177.729 12.8243 177.658 12.7722 177.547 12.745C177.511 12.7356 177.471 12.7166 177.437 12.719C177.179 12.7379 176.921 12.7592 176.663 12.7805C176.584 12.8266 176.534 12.8881 176.413 12.9106C176.295 12.9319 176.156 12.9319 176.024 12.9425C175.85 12.9556 175.677 12.9686 175.503 12.9804C175.416 12.9863 175.345 13.0088 175.316 13.0514C175.311 13.0585 175.369 13.0762 175.4 13.0868C175.506 13.1223 175.608 13.1625 175.724 13.1897C175.835 13.2158 175.971 13.1732 176.09 13.2063C176.356 13.2808 176.358 13.2796 176.561 13.2654C176.734 13.2524 176.908 13.2382 177.082 13.2288C177.116 13.2264 177.155 13.2441 177.192 13.2536C177.303 13.2796 177.374 13.3388 177.537 13.3163C177.661 13.2986 177.797 13.295 177.926 13.2855C178.034 13.3198 178.134 13.3589 178.25 13.3861C178.358 13.4121 178.389 13.4322 178.331 13.4665C178.279 13.4984 178.205 13.5115 178.108 13.5138C178.021 13.515 177.934 13.5256 177.847 13.5315C177.803 13.5351 177.76 13.5375 177.718 13.541C177.553 13.554 177.553 13.554 177.25 13.4783C177.132 13.4488 176.998 13.4902 176.884 13.4618C176.808 13.4428 176.742 13.4145 176.669 13.3944C176.637 13.3861 176.587 13.3849 176.548 13.3873C176.416 13.3955 176.285 13.4014 176.158 13.4168C176.069 13.4275 176.016 13.4606 176.027 13.4937C176.029 13.5067 176.092 13.5256 176.129 13.5268C176.213 13.5292 176.303 13.5126 176.384 13.5209C176.463 13.5292 176.545 13.5528 176.603 13.5789C176.721 13.6333 176.855 13.5848 176.969 13.599C177.087 13.6143 177.184 13.6617 177.297 13.69C177.326 13.6971 177.382 13.6853 177.426 13.6818C177.555 13.6735 177.684 13.6664 177.813 13.6581C177.921 13.6924 178.037 13.7232 178.134 13.7622C178.31 13.8332 178.5 13.8604 178.729 13.8261C178.858 13.8071 178.984 13.8142 179.086 13.8604C179.192 13.9077 179.313 13.9029 179.447 13.8935C179.571 13.884 179.697 13.858 179.823 13.8911C180.097 13.9644 180.099 13.968 180.423 13.9396C180.52 13.9313 180.594 13.929 180.668 13.9562C180.736 13.981 180.81 14.0023 180.881 14.0259C181.01 14.0177 181.141 14.0094 181.27 13.9999C181.436 13.9869 181.528 14.0035 181.567 14.0697C181.591 14.1099 181.602 14.1466 181.66 14.1738C181.728 14.2069 181.802 14.2057 181.902 14.1963C181.996 14.188 182.065 14.175 182.104 14.1324C182.12 14.1147 182.152 14.0981 182.18 14.0839C182.204 14.0733 182.241 14.0567 182.262 14.0591C182.301 14.0638 182.354 14.0768 182.367 14.0922C182.496 14.2353 182.496 14.2365 182.628 14.2779C182.772 14.324 182.922 14.3654 183.054 14.4174C183.172 14.4636 183.291 14.4435 183.42 14.4435C183.517 14.4435 183.58 14.4742 183.572 14.505C183.567 14.5227 183.53 14.5487 183.499 14.5511C183.241 14.5747 182.98 14.5948 182.72 14.6114C182.688 14.6138 182.649 14.5925 182.612 14.5818C182.538 14.5605 182.473 14.5274 182.394 14.5203C182.315 14.5132 182.223 14.531 182.136 14.5369C182.049 14.5428 181.957 14.5582 181.878 14.5487C181.799 14.5393 181.736 14.505 181.662 14.4825C181.628 14.4718 181.581 14.4565 181.552 14.46C181.36 14.4884 181.218 14.4494 181.081 14.3973C181.052 14.3867 181.002 14.3796 180.965 14.382C180.66 14.4021 180.357 14.4257 180.052 14.4482C179.928 14.4576 179.828 14.4162 179.802 14.3465C179.789 14.3074 179.763 14.2684 179.763 14.2294C179.763 14.1584 179.618 14.1194 179.513 14.1277C179.339 14.1395 179.163 14.1489 178.992 14.1667C178.852 14.1809 178.734 14.1667 178.639 14.1241C178.529 14.0756 178.402 14.0851 178.276 14.0981C178.181 14.1076 178.155 14.1466 178.16 14.2448C178.166 14.324 178.121 14.3488 177.95 14.3618C177.734 14.3784 177.516 14.395 177.297 14.408C177.263 14.4103 177.224 14.3902 177.19 14.3796C177.116 14.3583 177.05 14.324 176.971 14.3169C176.892 14.3086 176.8 14.3264 176.713 14.3335C176.627 14.3394 176.534 14.3559 176.456 14.3476C176.377 14.3394 176.311 14.3039 176.24 14.2814C176.206 14.2708 176.163 14.2554 176.129 14.2578C175.956 14.2672 175.782 14.2814 175.608 14.2944C175.414 14.3086 175.414 14.3086 175.137 14.2353C175.011 14.2022 174.885 14.2282 174.761 14.2377C174.63 14.2471 174.506 14.2519 174.403 14.2045C174.335 14.1738 174.259 14.1549 174.177 14.1608C173.959 14.175 173.743 14.1927 173.525 14.2069C173.488 14.2093 173.438 14.2034 173.409 14.1927C173.269 14.143 173.133 14.104 172.938 14.1288C172.77 14.1501 172.588 14.1513 172.42 14.1714C172.328 14.1821 172.285 14.2199 172.304 14.2495C172.314 14.2649 172.37 14.2826 172.406 14.2826C172.491 14.2838 172.583 14.266 172.662 14.2731C172.825 14.2873 172.906 14.3867 173.119 14.3595C173.246 14.3429 173.377 14.337 173.509 14.3323C173.543 14.3311 173.58 14.3536 173.617 14.3654C173.722 14.3973 173.814 14.4387 173.967 14.4174C174.093 14.4009 174.227 14.3962 174.356 14.3867C174.561 14.3713 174.561 14.3725 174.827 14.4446C174.953 14.4789 175.08 14.4517 175.203 14.4435C175.295 14.4375 175.382 14.4257 175.456 14.4423C175.569 14.4671 175.65 14.5239 175.79 14.5203C175.921 14.5168 176.05 14.5002 176.182 14.4943C176.263 14.4908 176.34 14.5097 176.406 14.5416C176.474 14.5736 176.548 14.5877 176.637 14.5806C176.766 14.5712 176.897 14.5594 177.029 14.5534C177.066 14.5523 177.108 14.5629 177.142 14.5724C177.216 14.5937 177.287 14.6185 177.358 14.641C177.487 14.6339 177.618 14.6315 177.745 14.6173C177.842 14.6067 177.91 14.6114 177.989 14.6351C178.089 14.667 178.171 14.7238 178.334 14.6966C178.416 14.6836 178.51 14.6871 178.592 14.6753C178.692 14.6599 178.76 14.6658 178.831 14.7013C178.965 14.7687 179.134 14.7699 179.307 14.7439C179.497 14.7155 179.639 14.7486 179.781 14.8007C179.931 14.8551 179.931 14.8539 180.047 14.9852C180.081 15.023 180.178 15.0407 180.26 15.0336C180.397 15.0218 180.515 15.0277 180.615 15.0727C180.72 15.1212 180.847 15.1153 180.975 15.1022C181.146 15.0845 181.318 15.0691 181.457 15.1377C181.525 15.1708 181.599 15.1791 181.691 15.1708C181.952 15.1495 182.215 15.1366 182.47 15.1105C182.625 15.094 182.715 15.1318 182.82 15.1637C182.962 15.2075 183.117 15.2465 183.117 15.34C183.117 15.3554 183.154 15.3731 183.186 15.3849C183.254 15.4098 183.328 15.431 183.399 15.4547C183.504 15.4902 183.606 15.5198 183.751 15.5008C183.877 15.4855 184.012 15.4807 184.141 15.4701C184.269 15.4594 184.388 15.4535 184.504 15.4985C184.638 15.5493 184.78 15.5978 184.932 15.6357C185.04 15.6629 185.182 15.6167 185.298 15.6534C185.369 15.6759 185.438 15.7019 185.514 15.7208C185.545 15.7291 185.595 15.7232 185.638 15.7208C185.724 15.7161 185.814 15.7125 185.898 15.7007C185.995 15.6877 186.069 15.6901 186.143 15.7173C186.211 15.7421 186.28 15.7764 186.358 15.7835C186.477 15.7942 186.608 15.7468 186.727 15.8013C186.787 15.8285 186.864 15.8545 186.943 15.8628C187.021 15.871 187.114 15.8533 187.198 15.8545C187.235 15.8545 187.279 15.8734 187.3 15.8888C187.313 15.8971 187.295 15.9195 187.277 15.9314C187.253 15.9455 187.219 15.9645 187.185 15.9668C186.924 15.9881 186.664 16.0059 186.403 16.026C186.248 16.0378 186.248 16.0378 185.935 15.9633C185.861 15.9455 185.78 15.9491 185.688 15.9574C185.564 15.968 185.438 15.9881 185.309 15.9668C185.14 15.8864 184.932 15.8793 184.711 15.9101C184.619 15.9231 184.535 15.9231 184.467 15.9006C184.322 15.8557 184.169 15.8143 184.041 15.761C183.941 15.7196 183.893 15.7161 183.851 15.7729C183.838 15.7906 183.825 15.8095 183.827 15.8261C183.843 15.8852 183.872 15.9432 183.888 16.0023C183.893 16.0189 183.872 16.0378 183.859 16.0555C183.817 16.1052 183.762 16.1017 183.67 16.0603C183.578 16.0189 183.467 15.9917 183.32 16.0106C183.193 16.0272 183.057 16.0248 182.93 16.0425C182.736 16.0686 182.599 16.0307 182.459 15.9798C182.43 15.9692 182.38 15.9633 182.344 15.9657C181.952 15.9929 181.562 16.0236 181.17 16.0508C181.086 16.0567 181.01 16.039 180.944 16.007C180.876 15.9751 180.799 15.9586 180.715 15.9645C180.368 15.9893 180.02 16.0118 179.673 16.0425C179.531 16.0555 179.418 16.0402 179.321 15.9988C179.247 15.968 179.179 15.9586 179.086 15.9621C178.986 15.9657 178.915 15.9775 178.865 16.0118C178.818 16.0449 178.852 16.065 178.958 16.091C179.071 16.1194 179.176 16.1561 179.284 16.1892C179.371 16.1845 179.457 16.175 179.542 16.1762C179.578 16.1762 179.613 16.1975 179.65 16.2093C179.755 16.2436 179.852 16.2779 180.002 16.259C180.128 16.2424 180.262 16.2389 180.391 16.2282C180.57 16.2152 180.57 16.2152 180.86 16.2897C180.933 16.3087 181.012 16.3075 181.107 16.2968C181.189 16.2885 181.273 16.3051 181.331 16.3406C181.354 16.3548 181.346 16.3784 181.296 16.4565C181.296 16.5145 181.352 16.4884 181.37 16.4506C181.399 16.3962 181.344 16.3784 181.239 16.408C181.165 16.4293 181.128 16.46 181.147 16.4849C181.157 16.4979 181.207 16.5145 181.296 16.4565C181.528 16.3855 181.704 16.3772 181.873 16.3583C181.973 16.3477 182.036 16.3524 182.115 16.3832C182.209 16.4198 182.304 16.4589 182.459 16.4399C182.628 16.4187 182.807 16.4163 182.978 16.3985C183.136 16.382 183.217 16.434 183.317 16.4648C183.438 16.5014 183.572 16.46 183.683 16.4813C183.798 16.5026 183.88 16.5547 184.014 16.5641C184.209 16.5322 184.333 16.5913 184.48 16.6304C184.596 16.6599 184.732 16.6339 184.856 16.6209C184.996 16.6067 185.111 16.6197 185.209 16.6623C185.319 16.7108 185.443 16.7001 185.569 16.6895C185.864 16.6658 185.874 16.6623 186.045 16.7273C186.169 16.7747 186.287 16.7534 186.411 16.7475C186.519 16.7794 186.624 16.8137 186.737 16.8421C186.766 16.8492 186.821 16.8373 186.866 16.8338C186.995 16.8243 187.127 16.8149 187.256 16.8054C187.342 16.7995 187.434 16.7817 187.513 16.7888C187.592 16.7971 187.658 16.8314 187.729 16.8539C187.8 16.8764 187.874 16.8988 187.942 16.9225C188.048 16.958 188.147 16.9876 188.295 16.9698C188.421 16.9544 188.553 16.9497 188.684 16.9391C188.85 16.926 188.845 16.9296 189.152 17.0006C189.318 17.0396 189.489 16.9923 189.658 16.9876C189.742 16.9852 189.823 16.9982 189.881 17.0325C189.905 17.0467 189.897 17.0703 189.905 17.0905C189.471 17.1224 189.034 17.1496 188.605 17.1886C188.439 17.204 188.353 17.1614 188.263 17.1259C188.116 17.0692 187.921 17.1519 187.782 17.0786C187.698 17.0349 187.577 17.01 187.432 17.0313C187.348 17.0431 187.258 17.042 187.171 17.0526C186.95 17.0786 186.748 17.0798 186.572 16.9982C186.511 16.9698 186.424 16.9544 186.361 16.9272C186.287 16.8977 186.216 16.8811 186.13 16.887C185.738 16.9154 185.348 16.9438 184.959 16.9745C184.925 16.9769 184.89 16.9946 184.861 17.0077C184.788 17.0408 184.811 17.0668 184.93 17.0881C184.969 17.0952 185.001 17.1105 185.038 17.1224C185.109 17.1448 185.174 17.1803 185.253 17.1886C185.332 17.1969 185.424 17.1803 185.511 17.1744C185.598 17.1685 185.69 17.1508 185.769 17.1579C185.848 17.1661 185.914 17.2004 185.987 17.2217C186.022 17.2324 186.064 17.2501 186.098 17.2489C186.272 17.2418 186.443 17.2288 186.616 17.2182C186.724 17.2501 186.816 17.2962 186.945 17.3069C187.027 17.314 187.114 17.301 187.198 17.3033C187.235 17.3045 187.282 17.3223 187.3 17.3376C187.311 17.3471 187.277 17.3708 187.25 17.3826C187.15 17.4275 187.014 17.4192 186.89 17.4334C186.756 17.4488 186.635 17.4441 186.532 17.398C186.464 17.3672 186.387 17.3507 186.303 17.3566C186.085 17.3719 185.869 17.3897 185.651 17.4027C185.614 17.4051 185.569 17.3944 185.535 17.3861C185.259 17.314 185.259 17.3116 185.064 17.327C184.777 17.3495 184.777 17.3495 184.585 17.2868C184.548 17.275 184.509 17.2525 184.477 17.2537C184.172 17.2726 183.87 17.2915 183.567 17.3187C183.467 17.327 183.399 17.327 183.325 17.2962C183.262 17.2702 183.188 17.2407 183.109 17.2336C183.028 17.2265 182.938 17.2442 182.851 17.2501C182.765 17.256 182.672 17.2714 182.596 17.2619C182.517 17.2525 182.449 17.2194 182.38 17.1957C182.309 17.1709 182.233 17.1721 182.136 17.1815C181.836 17.2087 181.833 17.2052 181.536 17.1318C181.502 17.1236 181.457 17.1141 181.42 17.1165C181.202 17.1307 180.986 17.1484 180.768 17.1626C180.683 17.1685 180.602 17.1531 180.544 17.1188C180.52 17.1046 180.528 17.081 180.512 17.0349C180.494 17.0242 180.515 17.0431 180.52 17.0609C180.56 17.0585 180.607 17.0609 180.636 17.0514C180.71 17.0289 180.747 16.9994 180.728 16.9745C180.718 16.9615 180.668 16.945 180.636 16.945C180.578 16.945 180.528 16.971 180.512 17.0349C180.347 17.0739 180.17 17.0822 179.999 17.1011C179.899 17.1129 179.836 17.107 179.757 17.0763C179.663 17.0384 179.565 17.0017 179.41 17.0207C179.242 17.042 179.063 17.0455 178.889 17.0621C178.689 17.081 178.602 16.9745 178.434 16.9769C178.26 16.9793 178.087 16.9994 177.913 17.0136C177.76 17.0254 177.76 17.0254 177.445 16.9485C177.329 16.9201 177.192 16.9615 177.079 16.932C177.003 16.913 176.937 16.8846 176.863 16.8645C176.832 16.8563 176.782 16.8563 176.742 16.8586C176.524 16.8728 176.303 16.8823 176.092 16.9083C175.853 16.9391 175.672 16.9059 175.501 16.8362C175.285 16.8492 175.066 16.8563 174.853 16.8787C174.698 16.8953 174.609 16.8563 174.503 16.8243C174.467 16.8137 174.435 16.7959 174.396 16.7912C174.356 16.7865 174.309 16.7959 174.267 16.7995C174.093 16.8125 173.914 16.8184 173.746 16.8397C173.538 16.8669 173.459 16.7699 173.298 16.7581C173.19 16.816 173.133 16.8953 172.92 16.9012C172.746 16.9059 172.572 16.9249 172.399 16.9379C172.312 16.9438 172.225 16.9509 172.138 16.9568C171.999 16.9674 171.933 17.0136 171.962 17.0845C171.978 17.1236 171.991 17.1626 172.004 17.2016C172.03 17.2714 171.964 17.3305 171.854 17.3388C171.549 17.3613 171.246 17.3849 170.941 17.4051C170.859 17.411 170.781 17.3909 170.715 17.3589C170.646 17.327 170.57 17.3128 170.486 17.3187C170.181 17.3412 169.878 17.3648 169.573 17.385C169.539 17.3873 169.494 17.3755 169.46 17.366C169.386 17.3447 169.315 17.3199 169.244 17.2974C169.07 17.3081 168.899 17.3152 168.728 17.3294C168.452 17.3506 168.452 17.3518 168.25 17.2868C168.213 17.275 168.176 17.2525 168.142 17.2537C168.01 17.2584 167.881 17.2702 167.75 17.2809C167.363 17.3116 167.363 17.3116 167.25 17.2761C167.147 17.243 167.055 17.2028 166.9 17.2217C166.731 17.243 166.553 17.2501 166.379 17.2619C166.25 17.2702 166.121 17.2797 165.992 17.2821C165.958 17.2832 165.921 17.2608 165.884 17.2489C165.779 17.2123 165.676 17.1827 165.532 17.2028C165.448 17.2146 165.358 17.217 165.271 17.2229C165.045 17.2395 165.045 17.2395 164.674 17.1685C164.637 17.1614 164.593 17.1531 164.556 17.1567C164.251 17.178 163.948 17.2016 163.643 17.2217C163.606 17.2241 163.561 17.217 163.524 17.2111C163.109 17.1425 163.109 17.1425 162.667 17.1756C162.498 17.1874 162.493 17.1922 162.317 17.1295C162.238 17.1023 162.172 17.0893 162.08 17.0975C161.733 17.1259 161.383 17.1449 161.038 17.178C160.883 17.1922 160.793 17.1567 160.688 17.1247C160.651 17.1141 160.612 17.0905 160.58 17.0916C160.233 17.1141 159.886 17.1413 159.538 17.1638C159.507 17.1661 159.467 17.1425 159.431 17.1318C159.36 17.1106 159.291 17.0786 159.212 17.0715C159.131 17.0644 159.041 17.0822 158.952 17.0881C158.733 17.1035 158.733 17.1023 158.481 17.0325C158.447 17.023 158.402 17.01 158.368 17.0124C158.02 17.036 157.671 17.0562 157.326 17.0905C157.129 17.1094 156.994 17.0751 156.855 17.0254C156.826 17.0148 156.776 17.01 156.739 17.0124C156.347 17.0396 155.958 17.0703 155.566 17.0975C155.484 17.1035 155.405 17.0833 155.339 17.0526C155.234 17.0041 155.111 17.01 154.979 17.0207C154.676 17.0455 154.674 17.0443 154.495 16.9876C154.458 16.9757 154.427 16.9603 154.387 16.9544C154.35 16.9485 154.303 16.9521 154.263 16.9544C154.09 16.9663 153.916 16.9793 153.743 16.9923C153.569 17.0053 153.393 17.0124 153.222 17.0325C153.011 17.0573 152.911 16.9804 152.764 16.945C152.548 16.9603 152.327 16.9698 152.114 16.9946C151.951 17.0136 151.875 16.9615 151.767 16.9343C151.73 16.9249 151.69 16.9048 151.656 16.9071C151.264 16.9331 150.872 16.9615 150.483 16.9935C150.388 17.0006 150.325 16.9911 150.246 16.9627C150.07 16.8988 150.062 16.9012 149.767 16.9249C149.638 16.9355 149.515 16.945 149.404 16.8965C149.307 16.8527 149.188 16.8421 149.049 16.8563C148.878 16.874 148.702 16.8835 148.528 16.8953C148.354 16.9083 148.181 16.926 148.007 16.932C147.868 16.9379 147.783 16.8823 147.673 16.8539C147.639 16.8456 147.591 16.8444 147.552 16.8468C147.378 16.8574 147.199 16.8657 147.031 16.8858C146.826 16.9107 146.713 16.8456 146.568 16.8078C146.536 16.7995 146.484 16.8042 146.444 16.8078C146.139 16.8291 145.836 16.8527 145.531 16.8752C145.423 16.8433 145.313 16.8125 145.205 16.7806C145.031 16.7924 144.858 16.8054 144.684 16.8172C144.553 16.8267 144.418 16.8302 144.295 16.848C144.134 16.8716 144.055 16.816 143.947 16.7888C143.911 16.7794 143.871 16.7593 143.837 16.7616C143.619 16.7747 143.4 16.7889 143.184 16.809C142.979 16.8291 142.898 16.7226 142.729 16.7238C142.556 16.725 142.377 16.7404 142.208 16.7616C142.014 16.7865 141.877 16.7486 141.737 16.6978C141.708 16.6871 141.659 16.6812 141.622 16.6836C141.403 16.6978 141.188 16.7155 140.969 16.7297C140.932 16.7321 140.888 16.7262 140.851 16.7191C140.435 16.6493 140.435 16.6481 140.254 16.6623C140.125 16.6718 139.993 16.6836 139.862 16.6895C139.825 16.6919 139.78 16.6812 139.746 16.6718C139.472 16.5996 139.472 16.5984 139.275 16.6126C139.101 16.6256 138.928 16.6386 138.754 16.6516C138.646 16.6197 138.536 16.589 138.428 16.557C138.212 16.5724 137.991 16.5842 137.778 16.6055C137.678 16.615 137.612 16.6114 137.536 16.5819C137.441 16.5464 137.346 16.505 137.189 16.5251C137.02 16.5464 136.841 16.5487 136.67 16.5665C136.465 16.5878 136.381 16.4802 136.215 16.4813C136.041 16.4825 135.863 16.4979 135.694 16.5192C135.499 16.544 135.363 16.5062 135.223 16.4553C135.194 16.4447 135.144 16.4388 135.107 16.4411C134.629 16.4754 134.152 16.5097 133.674 16.5464C133.379 16.5688 133.379 16.57 132.819 16.505C132.779 16.5003 132.737 16.4955 132.697 16.4979C132.524 16.5085 132.345 16.5168 132.177 16.5369C131.971 16.5618 131.858 16.4979 131.713 16.4589C131.682 16.4506 131.632 16.4553 131.59 16.4577C131.458 16.4659 131.329 16.4766 131.198 16.4861C131.024 16.4991 130.851 16.5121 130.677 16.5251C130.569 16.4943 130.459 16.4624 130.351 16.4317C130.135 16.447 129.914 16.4553 129.701 16.4801C129.538 16.4991 129.461 16.4494 129.354 16.421C129.317 16.4116 129.277 16.3914 129.243 16.3926C128.851 16.4186 128.459 16.4458 128.07 16.479C127.909 16.4932 127.835 16.4399 127.728 16.4127C127.691 16.4044 127.649 16.3891 127.614 16.3914C127.354 16.408 127.094 16.4281 126.833 16.4482C126.686 16.46 126.686 16.46 126.365 16.3867C126.328 16.3784 126.286 16.3701 126.249 16.3725C125.423 16.4317 124.599 16.4943 123.773 16.5535C123.689 16.5594 123.613 16.5417 123.547 16.5097C123.479 16.4778 123.402 16.4612 123.318 16.4671C122.971 16.492 122.621 16.5145 122.276 16.5452C122.134 16.5582 122.021 16.5428 121.924 16.5014C121.85 16.4707 121.782 16.4589 121.69 16.466C121.516 16.4802 121.342 16.492 121.169 16.505C120.995 16.518 120.821 16.531 120.648 16.544C120.474 16.557 120.298 16.5641 120.127 16.5842C119.916 16.6091 119.814 16.5357 119.669 16.4991C119.409 16.5168 119.148 16.5346 118.89 16.5535C118.543 16.5783 118.196 16.6055 117.848 16.6292C117.817 16.6315 117.777 16.6103 117.741 16.5996C117.633 16.57 117.554 16.5286 117.393 16.5417C116.614 16.6043 115.83 16.6576 115.049 16.7191C114.886 16.7321 114.815 16.6812 114.704 16.654C114.668 16.6457 114.625 16.6292 114.591 16.6315C114.157 16.6611 113.723 16.6942 113.289 16.7262C113.113 16.7392 113.113 16.7392 112.818 16.6658C112.784 16.6576 112.739 16.6469 112.702 16.6493C112.137 16.6895 111.574 16.7321 111.008 16.7735C110.924 16.7794 110.847 16.7628 110.779 16.7309C110.713 16.699 110.634 16.6812 110.553 16.6871C110.032 16.725 109.508 16.7616 108.99 16.803C108.851 16.8149 108.735 16.8042 108.635 16.7616C108.564 16.7309 108.493 16.7179 108.403 16.725C107.622 16.7829 106.84 16.8385 106.059 16.9C105.909 16.9119 105.804 16.8894 105.709 16.8504C105.633 16.8196 105.567 16.8137 105.472 16.8184C105.372 16.8243 105.312 16.8373 105.257 16.8728C105.186 16.9189 105.141 16.9769 104.972 16.9804C104.799 16.984 104.623 16.9982 104.452 17.0183C104.288 17.0384 104.212 16.9852 104.11 16.9532C104.033 16.9308 103.962 16.9272 103.865 16.9379C103.775 16.9473 103.72 16.9674 103.668 17.0053C103.552 17.0857 103.541 17.0857 103.399 17.0349C103.323 17.0076 103.254 16.9864 103.17 16.9911C102.823 17.0147 102.476 17.0408 102.128 17.068C101.928 17.0833 101.926 17.0857 101.776 17.0266C101.702 16.997 101.631 16.9828 101.544 16.9899C100.589 17.0609 99.6343 17.1295 98.6792 17.204C98.5319 17.2158 98.4319 17.191 98.3267 17.1555C98.2925 17.1437 98.2583 17.1271 98.2188 17.1224C98.1794 17.1176 98.1346 17.1224 98.0926 17.1247C97.398 17.1756 96.7007 17.2241 96.0088 17.2809C95.8509 17.2939 95.7668 17.256 95.6589 17.2253C95.6221 17.2146 95.5905 17.1981 95.551 17.1934C95.5115 17.1898 95.4642 17.1981 95.4221 17.2016C94.7275 17.2525 94.0303 17.301 93.3384 17.3578C93.1726 17.3708 93.1016 17.3211 92.9937 17.2951C92.9569 17.2856 92.9174 17.2679 92.8832 17.2702C92.6649 17.2832 92.4491 17.301 92.2308 17.3163C91.7098 17.3554 91.1889 17.3921 90.6679 17.4323C90.468 17.4476 90.3812 17.3424 90.2128 17.3471C89.9944 17.353 89.7787 17.3767 89.5603 17.3932C89.3867 17.4062 89.213 17.4181 89.0394 17.4323C88.8684 17.4453 88.8684 17.4453 88.4422 17.3767C88.4053 17.3708 88.3606 17.3625 88.3238 17.3648C87.716 17.4086 87.1057 17.4524 86.5005 17.4997C86.3611 17.5103 86.2453 17.5044 86.1453 17.4607C86.0743 17.4299 86.0007 17.4145 85.9138 17.4216C85.0009 17.489 84.0906 17.5565 83.1776 17.6227C83.1434 17.6251 83.0987 17.6132 83.0645 17.6038C82.9908 17.5825 82.9198 17.5576 82.8487 17.5352C82.7961 17.5624 82.7278 17.5872 82.6936 17.618C82.6462 17.6594 82.583 17.6712 82.4831 17.6783C82.3831 17.6854 82.32 17.683 82.241 17.6523C82.1463 17.6144 82.049 17.5848 81.8937 17.5967C80.9387 17.6712 79.9836 17.7386 79.0286 17.8119C78.8707 17.8238 78.7971 17.7717 78.6866 17.7445C78.6498 17.7362 78.6077 17.7232 78.5734 17.7256C78.1814 17.7528 77.7921 17.7824 77.4 17.8107C76.3135 17.8912 75.2269 17.9681 74.143 18.0532C73.9456 18.0686 73.8114 18.039 73.672 17.9882C73.6431 17.9775 73.5931 17.9716 73.5563 17.974C72.0356 18.0851 70.5149 18.1975 68.9968 18.3099C68.9152 18.3158 68.8363 18.2969 68.7705 18.2661C68.7021 18.2342 68.6258 18.2188 68.5416 18.2247C67.8471 18.2756 67.1525 18.3264 66.4579 18.3785C66.2843 18.3915 66.2816 18.3926 66.1027 18.3359C66.0659 18.324 66.0265 18.3016 65.9975 18.304C65.937 18.3099 65.8791 18.3394 65.837 18.3796C65.7949 18.4222 65.7291 18.434 65.6318 18.4423C65.5318 18.4506 65.4661 18.4471 65.3898 18.4187C65.2924 18.3832 65.2029 18.3489 65.0451 18.3607C63.0482 18.5121 61.0513 18.6576 59.0544 18.8078C58.8939 18.8196 58.8202 18.77 58.7097 18.7428C58.6729 18.7345 58.6361 18.7226 58.5966 18.7203C58.5545 18.7179 58.5098 18.725 58.4677 18.7286C55.2106 18.9687 51.9535 19.2099 48.6964 19.45C48.5017 19.4642 48.5043 19.4642 48.2912 19.573C48.2649 19.5861 48.2306 19.6038 48.1938 19.6061C47.1967 19.6818 46.1969 19.7552 45.1972 19.8285C44.7631 19.8604 44.329 19.8936 43.8949 19.9243C43.7397 19.935 43.7397 19.935 43.3687 20.0627C43.3371 20.0733 43.3002 20.0875 43.2634 20.0899C41.527 20.2188 39.7905 20.3477 38.0515 20.4743C37.9147 20.4838 37.8042 20.505 37.741 20.5618C37.6963 20.602 37.6384 20.6257 37.5516 20.6328C36.3361 20.7227 35.1206 20.8137 33.9025 20.9013C33.7578 20.9119 33.671 20.945 33.5999 20.9947C33.5762 21.0113 33.5552 21.0302 33.521 21.042C33.4894 21.0527 33.4421 21.0562 33.4026 21.0598C32.3607 21.1366 31.3189 21.2159 30.2744 21.2892C30.1192 21.2999 30.056 21.3436 29.9797 21.3897C29.9534 21.4051 29.935 21.4264 29.9008 21.4371C29.8666 21.4465 29.8166 21.4465 29.7745 21.4489C28.9063 21.5128 28.0381 21.5778 27.1699 21.6417C27.0015 21.6358 26.9646 21.7044 26.8831 21.7458C26.8541 21.7599 26.8331 21.7789 26.7989 21.7883C26.7621 21.7978 26.7147 21.7966 26.67 21.799C25.9754 21.8498 25.2808 21.9042 24.5836 21.9516C24.4231 21.9622 24.3916 22.0225 24.3047 22.0639C24.2758 22.0769 24.2469 22.097 24.2127 22.1006C23.7786 22.1349 23.3445 22.1668 22.9104 22.1976C22.7657 22.2082 22.7657 22.207 22.5105 22.3241C22.4815 22.3371 22.4473 22.3513 22.4105 22.3549C21.7606 22.4045 21.1082 22.4519 20.4557 22.5003C20.3715 22.5063 20.3136 22.5346 20.2715 22.5749C20.2294 22.6151 20.1689 22.6411 20.0847 22.647C19.5638 22.686 19.0428 22.7262 18.5219 22.7617C18.3772 22.7712 18.2825 22.8008 18.2194 22.854C18.172 22.8942 18.1141 22.9143 18.022 22.9214C17.5011 22.9592 16.9802 23.0007 16.4566 23.0338C16.304 23.0432 16.2251 23.0834 16.1619 23.1331C16.1119 23.1733 16.0541 23.1875 15.9567 23.1946C15.0017 23.2632 14.044 23.3318 13.0916 23.4075C12.9311 23.4205 12.8496 23.3791 12.7443 23.3496C12.5944 23.3082 12.455 23.2632 12.455 23.171C12.455 23.1568 12.4102 23.1402 12.3787 23.1284C12.1445 23.0397 12.1445 23.0397 12.1077 22.9451C12.0866 22.8871 12.0629 22.828 12.0445 22.7688C12.0103 22.6719 11.9261 22.647 11.684 22.6648C11.5972 22.6707 11.5104 22.6789 11.4236 22.6837C11.2947 22.6919 11.1973 22.6529 11.1737 22.582C11.1605 22.5429 11.1447 22.5039 11.1316 22.4649C11.2631 22.4554 11.2605 22.4542 11.492 22.3111C11.5893 22.2508 11.5894 22.2508 11.4026 22.1905C11.3315 22.168 11.2631 22.1431 11.1868 22.1219C11.1526 22.1124 11.1079 22.1065 11.0711 22.1089C10.8527 22.123 10.637 22.1396 10.4212 22.1562C10.074 22.1822 10.0739 22.1822 9.72137 22.0615C9.69243 22.0521 9.6477 22.0343 9.65296 22.0249C9.6819 21.9811 9.75293 21.9622 9.84238 21.9575C9.97393 21.9504 10.1028 21.9385 10.2318 21.9291C10.3186 21.9232 10.4054 21.9161 10.4922 21.9102C10.5738 21.8652 10.658 21.8214 10.7343 21.7753C10.8553 21.7044 10.8553 21.702 10.6895 21.6523C10.5843 21.6192 10.4712 21.5896 10.3633 21.5589C10.2344 21.5683 10.1028 21.579 9.97393 21.5873C9.81081 21.5979 9.74503 21.5754 9.70293 21.4985C9.6661 21.4311 9.71083 21.3732 9.83711 21.359C9.96603 21.3448 10.0871 21.3353 10.1529 21.275C10.216 21.2171 10.3265 21.1946 10.4633 21.1899C10.5501 21.1863 10.637 21.178 10.7238 21.1709C10.8369 21.1615 10.8974 21.1012 10.8738 21.0337C10.8606 20.99 10.8343 20.9533 10.7317 20.9438C10.2765 20.9024 10.2712 20.9036 10.045 20.8232C10.0239 20.8161 10.0082 20.7948 10.0161 20.7842C10.0292 20.7664 10.0582 20.7404 10.0897 20.7369C10.3923 20.7108 10.6948 20.6872 10.9974 20.6695C11.0974 20.6635 11.1711 20.6552 11.2053 20.6115C11.2526 20.5512 11.2316 20.4956 11.1395 20.4542C11.1105 20.4412 11.0631 20.4246 11.0316 20.4258C10.6843 20.4471 10.3396 20.4743 9.99236 20.4956C9.96079 20.4979 9.90294 20.4778 9.88978 20.4625C9.86347 20.4341 9.90291 20.3962 9.995 20.3832C10.116 20.3655 10.2397 20.3643 10.3212 20.3052C10.4344 20.2212 10.5738 20.1443 10.7001 20.0639C10.7211 20.0497 10.7554 20.0225 10.7475 20.0201C10.6817 19.9941 10.6054 19.974 10.537 19.9492C10.4212 19.9078 10.4212 19.8498 10.4475 19.7942C10.4686 19.7493 10.5475 19.7315 10.6448 19.7315C10.6869 19.7315 10.7395 19.7315 10.7737 19.7209C10.8632 19.6949 10.8921 19.6617 10.8474 19.6369C10.8211 19.6227 10.7738 19.6026 10.7422 19.605C10.1792 19.644 9.61349 19.6819 9.05309 19.7303C8.88734 19.7445 8.8111 19.6996 8.71112 19.6677C8.63482 19.6428 8.56374 19.6334 8.46903 19.6511C8.37958 19.6677 8.29279 19.6582 8.23754 19.6192C8.19281 19.5872 8.27172 19.56 8.48483 19.5293C8.52429 19.5234 8.569 19.5198 8.59794 19.508C8.90313 19.3802 8.90312 19.3791 9.1136 19.3625C9.31881 19.3471 9.31886 19.346 9.42673 19.2774C9.47672 19.2454 9.53193 19.2135 9.57928 19.1804C9.5977 19.1674 9.62931 19.1437 9.61879 19.1366C9.56091 19.0999 9.48195 19.0917 9.38986 19.0999C9.18465 19.1201 8.94264 19.1035 8.83477 19.2159C8.79267 19.2584 8.72689 19.2703 8.63218 19.2774C7.67977 19.346 6.72734 19.4193 5.7723 19.4855C5.61707 19.4962 5.54608 19.5399 5.48557 19.5884C5.43295 19.6286 5.37505 19.6405 5.27508 19.6476C5.1751 19.6547 5.09613 19.6582 5.03825 19.6192C5.00405 19.5955 5.033 19.5624 5.11193 19.5293C5.22506 19.482 5.204 19.4228 5.16717 19.3672C5.14086 19.3306 5.0593 19.3046 4.97248 19.3069C4.84356 19.3117 4.71994 19.3247 4.61207 19.2774C4.54893 19.2502 4.46999 19.2312 4.39895 19.2076C4.26214 19.1591 4.12532 19.1094 3.93326 19.1413C3.80172 19.1295 3.70963 19.0869 3.6044 19.0538C3.42812 18.9994 3.41234 18.9911 3.53862 18.9332C3.68069 18.8681 3.57017 18.783 3.6491 18.7191C3.73329 18.6505 3.84909 18.5902 3.9517 18.5263C3.97801 18.5098 4.0017 18.4944 4.02801 18.4778C3.9675 18.4542 3.91226 18.4246 3.84122 18.408C3.74914 18.3867 3.70178 18.3607 3.70704 18.2874C3.68862 18.2768 3.69646 18.3039 3.71751 18.311C3.74119 18.3181 3.79911 18.3122 3.82805 18.304C3.90172 18.2815 3.93851 18.2519 3.9201 18.2271C3.90957 18.2141 3.85962 18.1975 3.82805 18.1975C3.77017 18.1975 3.72019 18.2235 3.70441 18.2874C3.40974 18.3359 3.1045 18.3595 2.79931 18.3785C2.76774 18.3808 2.7283 18.3572 2.69146 18.3453C2.57044 18.3051 2.57042 18.3063 2.21524 18.2945C2.17841 18.2933 2.12845 18.2768 2.11003 18.2602C2.03373 18.188 2.03638 18.1088 1.99955 18.0319C2.06796 17.9822 2.13631 17.9338 2.20734 17.8853C2.34941 17.7871 2.53362 17.7008 2.64412 17.5931C2.62044 17.5352 2.58887 17.4772 2.70463 17.4299C3.0335 17.3708 3.03089 17.3708 3.12034 17.314C3.37554 17.1531 3.6281 16.9911 3.89383 16.8326C3.96486 16.7912 3.96487 16.7687 3.83859 16.751C3.79912 16.7463 3.75697 16.7451 3.71487 16.7475C3.58333 16.7557 3.45178 16.777 3.32287 16.7723C3.19395 16.7687 3.09923 16.7167 2.994 16.6848C2.88613 16.6516 2.77826 16.6173 2.67039 16.583C2.54674 16.5866 2.42311 16.6197 2.29945 16.5665C2.20474 16.5251 2.08635 16.4955 1.97848 16.4612C2.06004 16.3713 2.21266 16.3027 2.33105 16.2235C2.43892 16.1513 2.4415 16.1525 2.7309 16.0969C2.86771 16.0709 2.91507 15.9373 2.79931 15.8982C2.65987 15.8509 2.51256 15.8072 2.37049 15.7622C2.24684 15.7658 2.12058 15.7977 2.00219 15.7445C1.9101 15.7043 1.80484 15.6771 1.65225 15.6924C1.39441 15.7185 1.13133 15.7315 0.870862 15.7528C0.781409 15.7599 0.684035 15.7551 0.644571 15.7149C0.618262 15.6865 0.694564 15.6475 0.781386 15.6392C0.912934 15.6274 1.03131 15.6132 1.09709 15.5541C1.16023 15.4949 1.27598 15.4772 1.41279 15.4689C1.44962 15.4665 1.49175 15.4523 1.51017 15.4381C1.60488 15.3695 1.71013 15.3104 1.91271 15.3128C1.9969 15.2891 2.0416 15.2595 2.01529 15.2312C1.9995 15.2158 1.94428 15.1957 1.91271 15.1981C1.69434 15.2099 1.47598 15.2217 1.26287 15.243C1.16289 15.2525 1.08656 15.2548 1.02341 15.2193C0.978687 15.1957 1.00236 15.1637 1.08655 15.1294C1.16022 15.0999 1.18129 15.0656 1.17603 15.0254C1.16287 14.9319 1.08393 14.9047 0.831359 14.9106C0.649823 14.9154 0.605094 14.9 0.56563 14.8196C0.555106 14.8006 0.528843 14.7746 0.547259 14.7616C0.66039 14.6812 0.734062 14.5818 0.947169 14.544C1.03136 14.5298 1.12078 14.5298 1.1734 14.499C1.22601 14.4683 1.2734 14.4328 1.32865 14.4032C1.39705 14.3678 1.44436 14.3346 1.41279 14.3122C1.36017 14.272 1.27601 14.2684 1.17866 14.2826C1.09447 14.2944 1.00502 14.2956 0.918201 14.3027C0.762974 14.3157 0.636717 14.285 0.6183 14.2329C0.568312 14.0957 0.515677 13.9597 0.470951 13.8225C0.465689 13.806 0.478808 13.7847 0.499856 13.7705C0.573523 13.7208 0.652482 13.6735 0.72878 13.625C0.818232 13.5694 0.960327 13.58 1.08135 13.5694C1.25236 13.554 1.2523 13.5552 1.4812 13.4417C1.57065 13.3967 1.72588 13.4145 1.81797 13.3742C1.84691 13.3612 1.89163 13.3399 1.88374 13.3281C1.87322 13.3127 1.82063 13.3009 1.78116 13.2938C1.74433 13.2867 1.69961 13.2832 1.66015 13.2867C1.18131 13.321 0.705124 13.3577 0.22629 13.3908C0.144731 13.3967 0.0552757 13.3707 0.0263352 13.334C-0.00260526 13.2997 0.00526191 13.2583 0 13.2193C0.0762977 13.1708 0.163086 13.1259 0.22886 13.0738C0.278848 13.0336 0.336739 13.0159 0.436715 13.0135C0.568263 13.01 0.697193 12.9958 0.844526 12.9851C1.11815 12.8124 1.38648 12.6315 1.68115 12.4588C1.79954 12.389 1.77065 12.318 1.79433 12.2435C1.81801 12.1749 1.99427 12.1856 2.11266 12.1655C2.20738 12.1489 2.23891 12.1111 2.20208 12.085C2.18103 12.0697 2.1337 12.0519 2.09686 12.0519C2.01004 12.0519 1.92322 12.0626 1.8364 12.0685C1.74958 12.0744 1.64961 12.0709 1.57857 12.091C1.51017 12.1099 1.46542 12.1501 1.42069 12.1844C1.3707 12.2222 1.30497 12.2353 1.205 12.2376C1.07608 12.24 0.947172 12.2506 0.818255 12.2589C0.676184 12.2128 0.528819 12.1678 0.39201 12.1194C0.3657 12.1099 0.36041 12.0827 0.363041 12.065C0.368303 12.0188 0.328849 11.9904 0.242027 11.968C0.168361 11.949 0.107843 11.9218 0.0394386 11.8982C0.0920577 11.8662 0.149959 11.8355 0.192055 11.8012C0.284138 11.729 0.399913 11.677 0.599865 11.6794C0.678794 11.6332 0.741919 11.5765 0.844526 11.5445C0.941872 11.5138 1.10763 11.5445 1.1813 11.4747C1.21813 11.4404 1.27341 11.4014 1.34445 11.3872C1.45758 11.3648 1.60491 11.3766 1.67068 11.3104C1.71015 11.2725 1.768 11.2382 1.8443 11.2287C1.93112 11.2181 2.02055 11.2157 2.0837 11.1933C2.1179 11.1814 2.15474 11.1625 2.15474 11.146C2.15474 11.1353 2.10216 11.1187 2.06533 11.1116C2.03112 11.1034 1.98635 11.0975 1.94688 11.0998C1.81533 11.1069 1.68642 11.1199 1.55487 11.127C1.51804 11.1294 1.47596 11.1211 1.43649 11.114C1.32073 11.0951 1.32861 11.0714 1.42069 11.0289C1.51277 10.9875 1.57858 10.9342 1.65488 10.8857C1.73907 10.8775 1.84429 10.881 1.90218 10.8585C1.99952 10.8219 2.06791 10.7686 2.14684 10.7225C2.23366 10.7154 2.32311 10.7131 2.40466 10.7001C2.43887 10.6953 2.45467 10.6693 2.48361 10.6539C2.53623 10.6244 2.58099 10.5818 2.65202 10.5676C2.76779 10.5463 2.90985 10.5546 2.97826 10.4895C3.01772 10.4517 3.07821 10.4115 3.15188 10.4091C3.35709 10.4044 3.44392 10.3393 3.54916 10.2778C3.62808 10.2317 3.79647 10.2553 3.88329 10.2092C3.94117 10.1796 3.98329 10.143 4.04117 10.1146C4.06485 10.1028 4.11482 10.0968 4.15429 10.0933C4.37003 10.0756 4.58839 10.0625 4.80413 10.0436C4.83833 10.0401 4.86993 10.0223 4.89624 10.0081C4.95149 9.9774 4.98565 9.93481 5.05405 9.91471C5.12246 9.8946 5.21979 9.8946 5.30398 9.88869C5.57497 9.87095 5.59604 9.87567 5.71969 9.77513C5.81967 9.69352 6.06438 9.75148 6.14594 9.6616C6.1933 9.60955 6.28008 9.56698 6.43531 9.56106C6.65368 9.55278 6.86941 9.53031 7.08778 9.51494C7.28247 9.50074 7.27984 9.50074 7.49032 9.39074C7.58504 9.34107 7.7245 9.34817 7.84816 9.33871C7.97971 9.32924 8.10072 9.31506 8.16386 9.25592C8.227 9.19797 8.34275 9.17903 8.47693 9.17075C8.60058 9.16247 8.74006 9.1684 8.8374 9.12109C9.07419 9.00754 9.07156 9.00635 9.23731 8.99452C9.49778 8.9756 9.75823 8.95668 10.0187 8.93657C10.1923 8.92356 10.3739 8.9212 10.537 8.89518C10.6554 8.87625 10.708 8.81002 10.7843 8.76389C11 8.74615 11.2157 8.7284 11.4315 8.71184C11.734 8.68819 12.0392 8.66691 12.3444 8.64443C12.476 8.59949 12.4944 8.50014 12.7154 8.49541C12.847 8.49304 12.9759 8.47767 13.1074 8.4682C13.3258 8.45165 13.5415 8.43036 13.7599 8.42208C13.9257 8.41616 13.9546 8.35229 14.0414 8.31207C14.0703 8.29788 14.0966 8.27778 14.1308 8.27423C14.4729 8.24112 14.8254 8.23402 15.1595 8.18553C15.1937 8.1808 15.2253 8.15595 15.2332 8.13821C15.2385 8.12875 15.1937 8.11102 15.1648 8.10274C15.1306 8.09328 15.0859 8.08381 15.049 8.08618C13.9625 8.16542 12.8759 8.24585 11.7893 8.3251C11.6367 8.33692 11.6367 8.33573 11.2658 8.46584C11.2342 8.47648 11.1973 8.48831 11.1579 8.49185C10.9842 8.50605 10.8079 8.51434 10.6369 8.53208C10.4975 8.54627 10.3818 8.53207 10.2818 8.48949C10.2108 8.45873 10.1371 8.44928 10.0476 8.45164C9.94763 8.45519 9.88189 8.46821 9.82401 8.50014C9.74771 8.5439 9.70823 8.60067 9.54775 8.6125C8.80845 8.66335 8.06911 8.72013 7.33244 8.77453C7.22983 8.75797 7.17985 8.73314 7.20616 8.70357C7.22194 8.68583 7.25353 8.66218 7.2851 8.65981C7.58766 8.63497 7.89284 8.61369 8.1954 8.59003C8.23749 8.58648 8.29537 8.58884 8.31905 8.57701C8.43481 8.52378 8.47695 8.43745 8.69532 8.43153C8.8216 8.42798 8.9505 8.41025 9.07153 8.39369C9.10573 8.38896 9.13731 8.36412 9.1452 8.34638C9.14783 8.33692 9.10573 8.31917 9.07416 8.31089C8.9584 8.27659 8.82425 8.318 8.70849 8.29434C8.66902 8.28607 8.61374 8.27423 8.60584 8.26004C8.60058 8.24703 8.64531 8.22574 8.67688 8.21273C8.70582 8.2009 8.74527 8.19026 8.78473 8.18671C9.13202 8.15951 9.47936 8.13112 9.82664 8.10983C9.96871 8.10155 10.0687 8.07198 10.1318 8.01757C10.1792 7.97736 10.237 7.95607 10.3265 7.95016C10.9342 7.9064 11.542 7.85791 12.1524 7.81769C12.305 7.80823 12.3839 7.7692 12.4471 7.71835C12.4971 7.67813 12.5549 7.66394 12.6523 7.65684C13.5231 7.59534 14.3887 7.52674 15.2595 7.4676C15.42 7.45696 15.4674 7.4061 15.549 7.36234C15.5779 7.34696 15.5963 7.32804 15.6331 7.31858C15.6699 7.30911 15.7173 7.31029 15.762 7.30792C16.4566 7.25706 17.1512 7.20267 17.8484 7.15536C18.0115 7.14471 18.0431 7.08557 18.1273 7.04417C18.1562 7.03116 18.1825 7.00988 18.2167 7.00633C18.7377 6.96611 19.2586 6.92827 19.7795 6.88924C20.1268 6.86322 20.4741 6.83719 20.8214 6.81236C20.9924 6.80053 20.9924 6.79934 21.2239 6.68698C21.2502 6.67397 21.2871 6.65859 21.3213 6.65504C22.321 6.57934 23.3181 6.50721 24.3179 6.4327C24.4021 6.42678 24.4626 6.39957 24.5047 6.35935C24.5468 6.31914 24.6073 6.29194 24.6889 6.28602C25.4703 6.22689 26.2517 6.16894 27.0357 6.11335C27.1778 6.10388 27.2777 6.0755 27.3409 6.02227C27.3882 5.98206 27.4461 5.96078 27.5356 5.95486C28.3169 5.89809 29.0984 5.83776 29.8824 5.78335C30.0324 5.77271 30.106 5.7325 30.1797 5.68519C30.206 5.66863 30.227 5.64143 30.2586 5.63906C30.648 5.60595 31.0347 5.57165 31.4267 5.54917C31.5899 5.53971 31.6451 5.49003 31.7109 5.44272C31.7635 5.40487 31.8241 5.39187 31.924 5.38714C32.1424 5.37649 32.3581 5.35639 32.5712 5.33629C32.6028 5.33274 32.6423 5.30672 32.6449 5.29016C32.6502 5.25941 32.5896 5.23811 32.4897 5.22747C31.4478 5.30435 30.4033 5.38122 29.3615 5.4581C29.1905 5.47111 29.1905 5.47112 28.9589 5.58348C28.9326 5.59649 28.8958 5.61187 28.8589 5.61541C27.8592 5.68993 26.8621 5.76326 25.8623 5.83777C25.7781 5.84369 25.7176 5.87089 25.6755 5.9111C25.6334 5.95131 25.5729 5.97852 25.4913 5.98443C24.5363 6.0554 23.5812 6.12755 22.6236 6.19496C22.4815 6.20443 22.3816 6.23162 22.3184 6.28602C22.2711 6.32624 22.2132 6.34753 22.1237 6.35345C21.2108 6.41968 20.3004 6.48946 19.3849 6.55333C19.2928 6.55924 19.2244 6.52494 19.2297 6.493C19.2323 6.47645 19.2717 6.44926 19.3033 6.44689C19.7795 6.40786 20.2531 6.36764 20.7319 6.33807C20.8924 6.32861 20.9397 6.27657 21.0213 6.23281C21.0476 6.21743 21.0687 6.19732 21.1029 6.18904C21.1397 6.17958 21.1871 6.18077 21.2318 6.1784C22.3605 6.09443 23.4892 6.00927 24.6205 5.93003C24.7836 5.9182 24.8151 5.86024 24.8993 5.81884C24.9283 5.80465 24.9546 5.78337 24.9888 5.781C25.3361 5.75262 25.6834 5.72777 26.0307 5.70294C26.6384 5.65799 27.2461 5.61305 27.8565 5.5681C28.0328 5.55509 28.0328 5.55508 28.2591 5.44391C28.2854 5.4309 28.3222 5.41435 28.3564 5.41198C29.964 5.29253 31.5715 5.17307 33.179 5.05479C33.2632 5.04888 33.3237 5.02168 33.3658 4.98146C33.4079 4.94243 33.4684 4.91404 33.5499 4.90695C35.7231 4.74609 37.8937 4.58523 40.0668 4.42674C40.2089 4.4161 40.3088 4.39126 40.372 4.33567C40.4167 4.29546 40.4772 4.27417 40.5667 4.26708C42.9556 4.09085 45.3445 3.91462 47.736 3.73721C49.3435 3.61893 50.9511 3.49829 52.5586 3.38238C52.7059 3.37174 52.7848 3.33506 52.8585 3.28657C52.8822 3.27001 52.9059 3.24281 52.9374 3.24044C53.2821 3.21087 53.6267 3.18368 53.9714 3.15647C54.0793 3.18841 54.1871 3.21916 54.295 3.2511C54.3765 3.20615 54.4555 3.16002 54.5371 3.11508C55.058 3.08078 55.571 3.02756 56.0972 3.011C56.1314 3.00981 56.1682 3.03229 56.2051 3.04412C56.4497 3.11863 56.5892 3.11272 56.7444 3.01336C56.7997 2.97788 56.847 2.94595 56.9312 2.94003C57.1917 2.91875 57.4548 2.90455 57.7127 2.87971C57.8521 2.8667 57.9678 2.87853 58.0678 2.92111C58.1388 2.95186 58.2125 2.96488 58.2994 2.95778C58.7782 2.9223 59.2544 2.88799 59.7332 2.85014C59.7674 2.84778 59.7989 2.82767 59.8253 2.81347C59.8805 2.78272 59.9279 2.74961 59.9805 2.71768C60.0515 2.73778 60.1305 2.75316 60.1884 2.77918C60.262 2.80993 60.3304 2.80993 60.4304 2.80165C62.3405 2.65854 64.2532 2.51897 66.1633 2.37468C66.3264 2.36285 66.3974 2.41253 66.5079 2.43855C66.5448 2.44801 66.5816 2.45983 66.621 2.4622C66.6631 2.46456 66.7079 2.45747 66.7499 2.45393C68.1838 2.34748 69.6177 2.24221 71.0516 2.13576C71.241 2.12157 71.241 2.12157 71.5225 2.1949C71.5567 2.20436 71.6014 2.21501 71.6383 2.21146C72.2908 2.16533 72.9432 2.11566 73.5931 2.06835C73.6773 2.06243 73.7483 2.08135 73.8246 2.10856C73.9746 2.16178 73.9851 2.16179 74.0956 2.08372C74.1482 2.04706 74.2034 2.02458 74.2902 2.01393C74.385 2.0021 74.4613 2.00567 74.535 2.02696C74.6402 2.05652 74.7165 2.10619 74.877 2.09318C75.5716 2.03759 76.2688 1.99147 76.9607 1.9347C77.1186 1.92169 77.2028 1.9619 77.308 1.99147C77.3448 2.00211 77.379 2.01867 77.4185 2.02222C77.4579 2.02577 77.5053 2.01748 77.5474 2.01393C78.4156 1.95006 79.2864 1.88739 80.152 1.81879C80.3151 1.80578 80.3862 1.85663 80.4967 1.88265C80.5335 1.89211 80.5756 1.90868 80.6098 1.90631C81.1307 1.86965 81.6543 1.83061 82.1753 1.79157C82.3621 1.77738 82.362 1.77856 82.6462 1.85071C82.6804 1.86017 82.7251 1.86964 82.762 1.86727C83.3697 1.82351 83.9801 1.77857 84.5878 1.73362C84.7746 1.71943 84.7746 1.71943 85.314 1.78093C85.3534 1.78567 85.3955 1.79277 85.435 1.79041C86.1296 1.73955 86.8268 1.68986 87.5213 1.63546C87.6608 1.62481 87.7766 1.63427 87.8765 1.67685C87.9476 1.7076 88.0212 1.72062 88.108 1.71352C88.8894 1.65557 89.6735 1.59998 90.4522 1.53848C90.6022 1.52665 90.6995 1.55266 90.8047 1.58696C90.839 1.59879 90.8732 1.61535 90.9127 1.62008C90.9521 1.62481 90.9968 1.62008 91.0389 1.61653C91.8203 1.55858 92.6043 1.50417 93.3831 1.44149C93.541 1.42848 93.6252 1.46869 93.7304 1.49826C93.7672 1.5089 93.8067 1.53019 93.8382 1.52901C94.1434 1.5089 94.4486 1.49117 94.7512 1.4616C94.9143 1.44504 94.9854 1.49944 95.0959 1.52546C95.1327 1.53374 95.1748 1.55149 95.209 1.54912C95.8614 1.50299 96.514 1.4545 97.1638 1.40483C97.2559 1.39773 97.3243 1.40837 97.3979 1.43912C97.4953 1.48051 97.6084 1.49707 97.7505 1.48406C98.0531 1.45686 98.3583 1.43794 98.6634 1.41547C98.8424 1.40246 98.8424 1.40246 99.3896 1.46397C99.4291 1.4687 99.4711 1.47579 99.5106 1.47342C100.032 1.43557 100.555 1.39891 101.073 1.35751C101.213 1.34569 101.329 1.35633 101.429 1.39891C101.5 1.42966 101.571 1.44268 101.66 1.43558C102.139 1.4001 102.615 1.36461 103.094 1.32913C103.268 1.31612 103.441 1.29364 103.615 1.29364C103.741 1.29482 103.833 1.35159 103.946 1.37998C103.978 1.38826 104.031 1.37881 104.073 1.37644C104.68 1.3315 105.291 1.2901 105.896 1.23924C106.054 1.22623 106.138 1.26644 106.243 1.29601C106.28 1.30665 106.32 1.32795 106.351 1.32676C106.569 1.31375 106.785 1.29601 107.004 1.28063C107.264 1.26171 107.527 1.24752 107.785 1.2215C107.995 1.20021 108.074 1.3031 108.243 1.30665C108.372 1.3102 108.503 1.2901 108.632 1.28063C108.893 1.26171 109.153 1.24042 109.413 1.22386C109.506 1.21795 109.577 1.19902 109.606 1.15644C109.611 1.14816 109.566 1.13043 109.537 1.11978C109.187 0.999141 109.187 0.999135 108.835 1.02516C108.616 1.04171 108.401 1.05828 108.182 1.07247C108.145 1.07483 108.103 1.06537 108.066 1.05828C107.961 1.03817 107.972 1.01452 108.061 0.971937C108.151 0.929358 108.219 0.877322 108.295 0.828829C108.403 0.859581 108.508 0.890321 108.616 0.921073C108.703 0.915159 108.79 0.908073 108.877 0.902159C109.311 0.871408 109.745 0.839471 110.179 0.811085C110.211 0.80872 110.25 0.832378 110.287 0.844206C110.392 0.878505 110.487 0.908066 110.64 0.895056C111.029 0.860756 111.421 0.835918 111.81 0.80635C111.981 0.793339 111.981 0.79334 112.281 0.866671C112.315 0.87495 112.36 0.884413 112.397 0.882047C112.789 0.854844 113.178 0.825279 113.57 0.796893C113.655 0.790979 113.736 0.806354 113.797 0.840654C113.82 0.854847 113.815 0.878497 113.915 1.07247C114.226 1.22977 114.439 1.21322 114.654 1.19903C114.746 1.19312 114.828 1.1872 114.889 1.16354C114.92 1.15053 114.96 1.13161 114.96 1.11623C114.96 1.1044 114.902 1.08547 114.865 1.08311C114.604 1.05945 114.357 1.10914 114.102 1.11978C113.983 1.12451 113.881 1.08312 113.86 1.0157C113.855 0.996775 113.847 0.976669 113.839 0.957745C113.831 0.938821 113.826 0.918715 113.818 0.899791C113.715 0.893878 113.655 0.915164 113.61 0.955377C113.573 0.988494 113.52 1.02634 113.449 1.04408C113.378 1.06301 113.281 1.05947 113.194 1.06538C113.11 1.07129 113.018 1.08667 112.939 1.07839C112.86 1.06893 112.797 1.03462 112.723 1.01333C112.689 1.00269 112.647 0.987316 112.613 0.989682C112.31 1.00979 112.01 1.02989 111.71 1.05591C111.553 1.0701 111.474 1.02043 111.374 0.989682C111.295 0.966027 111.216 0.971933 111.203 1.02634C111.168 1.15644 111.289 1.21085 111.558 1.18601C111.779 1.16472 111.979 1.16118 112.152 1.24161C112.176 1.25225 112.231 1.25698 112.265 1.25462C112.481 1.24042 112.694 1.22268 112.91 1.20849C112.95 1.20612 112.992 1.21085 113.028 1.21558C113.565 1.27944 113.565 1.28063 113.747 1.26644C113.834 1.25934 113.918 1.25343 113.91 1.07365C114.076 0.880864 114.339 0.867856 114.594 0.83947C114.76 0.821729 114.831 0.873772 114.938 0.900975C114.975 0.910437 115.015 0.929358 115.049 0.926992C115.615 0.887962 116.178 0.84656 116.741 0.802798C116.835 0.795701 116.904 0.802799 116.977 0.833551C117.072 0.872581 117.177 0.897424 117.327 0.883231C117.627 0.854845 117.933 0.837108 118.238 0.813453C118.393 0.801626 118.393 0.801613 118.706 0.874944C118.74 0.883223 118.785 0.892686 118.822 0.89032C119.127 0.870213 119.43 0.845383 119.732 0.824094C119.816 0.81818 119.893 0.834737 119.958 0.866671C120.024 0.898605 120.103 0.915162 120.185 0.909248C120.49 0.887959 120.792 0.864311 121.095 0.843022C121.132 0.840656 121.177 0.848935 121.211 0.857214C121.532 0.930545 121.532 0.930533 121.679 0.918705C121.895 0.900964 122.116 0.892694 122.329 0.869039C122.537 0.845384 122.645 0.913977 122.787 0.951825C123.176 0.924622 123.568 0.902156 123.955 0.869039C124.113 0.854846 124.197 0.893873 124.302 0.924625C124.339 0.935269 124.376 0.957744 124.41 0.956561C124.541 0.95183 124.67 0.938822 124.799 0.92936C124.928 0.919898 125.06 0.910437 125.189 0.900975C125.336 0.935275 125.433 1.0157 125.644 0.988498C125.77 0.971939 125.904 0.968391 126.033 0.958929C126.162 0.949467 126.294 0.940006 126.423 0.930544C126.509 0.92463 126.599 0.921077 126.683 0.910432C126.838 0.892691 126.915 0.950653 127.025 0.976673C127.062 0.984952 127.104 0.999136 127.138 0.996771C127.399 0.980212 127.662 0.96602 127.917 0.938817C128.114 0.917527 128.249 0.953015 128.388 1.00269C128.417 1.01333 128.467 1.01925 128.504 1.01688C128.809 0.996776 129.111 0.971931 129.414 0.950642C129.496 0.944728 129.575 0.963651 129.64 0.994403C129.709 1.02634 129.785 1.04172 129.869 1.03581C130.172 1.01452 130.477 0.990859 130.78 0.96957C130.816 0.967204 130.861 0.976668 130.895 0.98613C131.19 1.05946 131.19 1.06064 131.364 1.04645C131.406 1.0429 131.45 1.04053 131.493 1.03698C131.708 1.02042 131.932 1.01452 132.142 0.98613C132.384 0.954196 132.561 0.994411 132.732 1.06183C132.947 1.04763 133.168 1.03935 133.379 1.0157C133.537 0.997957 133.621 1.0429 133.726 1.07247C133.763 1.08311 133.802 1.1044 133.834 1.10204C134.139 1.08193 134.444 1.0642 134.744 1.03463C134.907 1.01807 134.979 1.07128 135.089 1.09849C135.126 1.10795 135.165 1.12451 135.199 1.12215C135.373 1.11269 135.547 1.09849 135.72 1.08548C135.923 1.0701 135.923 1.07128 136.191 1.14343C136.318 1.17773 136.444 1.15053 136.568 1.14225C136.699 1.13278 136.823 1.12569 136.928 1.17418C136.994 1.20493 137.073 1.22386 137.154 1.21913C137.328 1.20848 137.504 1.19784 137.675 1.1801C137.812 1.16591 137.93 1.17537 138.03 1.21913C138.101 1.24988 138.175 1.26526 138.262 1.25817C138.651 1.22978 139.043 1.2002 139.433 1.173C139.467 1.17063 139.514 1.18128 139.546 1.19193C139.619 1.21322 139.691 1.23687 139.762 1.26052C139.933 1.24988 140.109 1.24516 140.277 1.2286C140.456 1.21204 140.619 1.20613 140.759 1.27118C140.788 1.28537 140.83 1.30547 140.864 1.30428C140.995 1.29955 141.124 1.28773 141.253 1.27827C141.382 1.2688 141.514 1.25934 141.643 1.24988C141.793 1.27945 141.887 1.36461 142.098 1.3374C142.224 1.32084 142.358 1.3173 142.487 1.30783C142.616 1.29837 142.748 1.28773 142.877 1.27945C142.919 1.27708 142.966 1.27117 143.003 1.2759C143.042 1.28063 143.077 1.29719 143.111 1.30902C143.216 1.34332 143.313 1.37762 143.463 1.35751C143.59 1.34096 143.724 1.33741 143.853 1.32676C144.029 1.31375 144.029 1.31375 144.321 1.38827C144.439 1.41902 144.574 1.37881 144.687 1.40483C144.763 1.42257 144.829 1.45213 144.902 1.47224C144.934 1.48052 144.984 1.48406 145.021 1.48169C145.195 1.47105 145.371 1.46041 145.542 1.44267C145.681 1.42848 145.797 1.44267 145.894 1.48525C145.965 1.516 146.036 1.52902 146.126 1.52192C146.56 1.4888 146.994 1.46041 147.426 1.42374C147.573 1.41073 147.691 1.43084 147.773 1.47342C147.912 1.54675 148.11 1.46041 148.254 1.51955C148.344 1.55622 148.433 1.5988 148.596 1.58106C148.896 1.5503 149.201 1.53374 149.504 1.51245C149.612 1.54438 149.72 1.57632 149.83 1.60826C150.004 1.59525 150.178 1.58223 150.351 1.5704C150.48 1.56094 150.612 1.5503 150.741 1.54202C150.783 1.53965 150.827 1.53492 150.867 1.54083C150.906 1.54675 150.938 1.56213 150.975 1.57395C151.156 1.63191 151.156 1.6331 151.456 1.60944C151.585 1.5988 151.709 1.5917 151.817 1.63901C151.917 1.68277 152.035 1.69105 152.172 1.67804C152.43 1.65438 152.69 1.63664 152.953 1.62008C153.035 1.61417 153.111 1.63428 153.179 1.66503C153.282 1.71352 153.408 1.70879 153.537 1.69578C153.708 1.67922 153.877 1.66267 154.021 1.7289C154.05 1.74309 154.095 1.76319 154.127 1.76201C154.342 1.75254 154.561 1.74545 154.771 1.72298C154.982 1.70051 155.084 1.77384 155.229 1.80932C155.445 1.79394 155.663 1.77857 155.879 1.76319C155.921 1.75964 155.971 1.749 156.008 1.75492C156.163 1.77975 156.252 1.86846 156.466 1.84126C156.589 1.82588 156.723 1.82115 156.852 1.81761C156.886 1.81642 156.931 1.83652 156.955 1.8519C156.968 1.86018 156.955 1.88265 156.939 1.89447C156.892 1.92759 156.834 1.95835 156.792 1.99265C156.786 1.99738 156.836 2.01866 156.865 2.02812C156.936 2.04941 157.018 2.04587 157.113 2.03641C157.194 2.02813 157.278 2.04469 157.336 2.08017C157.36 2.09437 157.352 2.11802 157.302 2.19608C157.302 2.25404 157.357 2.22801 157.376 2.19016C157.405 2.13575 157.35 2.11801 157.244 2.14758C157.171 2.16887 157.134 2.19963 157.152 2.22447C157.163 2.23748 157.213 2.25404 157.302 2.19608C157.534 2.12512 157.707 2.11211 157.881 2.0991C157.926 2.09555 157.978 2.08372 158.01 2.09081C158.123 2.1192 158.228 2.15351 158.339 2.18544C158.465 2.17834 158.583 2.16059 158.707 2.20672C158.881 2.27177 158.889 2.26586 159.057 2.25285C159.144 2.24575 159.231 2.23985 159.317 2.23394C159.404 2.22802 159.473 2.24576 159.549 2.27296C159.704 2.32855 159.717 2.32855 159.82 2.25285C159.88 2.20672 159.923 2.19135 159.999 2.21264C160.251 2.28479 160.254 2.28952 160.47 2.26823C160.649 2.25049 160.817 2.24575 160.949 2.31317C161.038 2.36048 161.067 2.34984 161.138 2.30016C161.328 2.16888 161.414 2.17124 161.77 2.26586C161.935 2.3108 162.106 2.26232 162.275 2.2564C162.417 2.25167 162.517 2.28005 162.527 2.35456C162.535 2.40069 162.559 2.43381 162.654 2.44919C162.69 2.4551 162.735 2.46338 162.772 2.46102C162.99 2.44682 163.206 2.43026 163.424 2.4137C163.535 2.40542 163.595 2.34984 163.574 2.27651C163.551 2.19845 163.593 2.17006 163.751 2.14758C163.845 2.13457 163.922 2.13695 163.998 2.15824C164.082 2.18189 164.058 2.20318 163.985 2.24576C163.809 2.34984 163.83 2.4137 164.056 2.48585C164.135 2.51069 164.198 2.53317 164.216 2.56983C164.227 2.58876 164.216 2.61359 164.24 2.62779C164.369 2.70703 164.548 2.75789 164.748 2.79574C164.94 2.76381 165.071 2.81702 165.219 2.8596C165.334 2.89272 165.471 2.86434 165.595 2.85251C165.734 2.8395 165.85 2.84896 165.95 2.89272C166.021 2.92347 166.095 2.93766 166.182 2.93175C166.355 2.91874 166.532 2.91046 166.703 2.89154C166.85 2.87498 166.96 2.89864 167.052 2.93885C167.168 2.98971 167.297 2.9554 167.418 2.9625C167.581 2.97078 167.663 3.07604 167.876 3.04765C168.002 3.0311 168.134 3.02518 168.265 3.02045C168.3 3.01927 168.342 3.03938 168.371 3.05357C168.51 3.11863 168.673 3.11508 168.852 3.09615C168.976 3.08314 169.097 3.07132 169.218 3.11626C169.418 3.19196 169.639 3.2582 169.849 3.32798C169.878 3.38239 169.857 3.44624 170.007 3.47818C170.086 3.49474 170.16 3.51958 170.22 3.54679C170.294 3.57872 170.362 3.587 170.457 3.57872C170.628 3.56216 170.807 3.5586 170.975 3.53731C171.13 3.51839 171.228 3.55743 171.323 3.5941C171.399 3.62367 171.47 3.63785 171.562 3.61656C171.657 3.59646 171.725 3.60946 171.801 3.6414C171.909 3.68516 171.917 3.68044 172.275 3.69345C172.312 3.69463 172.356 3.71236 172.378 3.72774C172.388 3.73601 172.364 3.75968 172.346 3.77151C172.322 3.7857 172.285 3.80225 172.251 3.8058C171.862 3.83655 171.47 3.86376 171.08 3.89451C171.041 3.89806 170.999 3.90634 170.97 3.91817C170.938 3.93118 170.899 3.94891 170.899 3.96547C170.899 3.9773 170.952 3.99149 170.988 3.99977C171.104 4.02698 171.241 3.98558 171.354 4.01633C171.43 4.03644 171.493 4.06482 171.57 4.08374C171.601 4.09202 171.651 4.09085 171.691 4.08848C171.822 4.0802 171.951 4.06838 172.083 4.06128C172.12 4.0601 172.162 4.07193 172.196 4.08139C172.449 4.15236 172.449 4.15235 172.667 4.13698C172.754 4.13106 172.846 4.11332 172.927 4.12042C173.006 4.12751 173.075 4.15945 173.146 4.17955C173.293 4.22213 173.433 4.26353 173.443 4.35578C173.448 4.39126 173.535 4.42201 173.622 4.42438C173.706 4.42674 173.796 4.41374 173.882 4.40665C174.088 4.39245 174.088 4.39245 174.353 4.4646C174.427 4.48471 174.506 4.48707 174.601 4.47524C174.637 4.47051 174.682 4.47525 174.722 4.48116C174.851 4.4989 174.851 4.52137 174.766 4.56395C174.648 4.62663 174.659 4.63255 174.99 4.68577C175.116 4.70588 175.214 4.74373 175.319 4.77685C175.49 4.83007 175.487 4.83006 175.374 4.89984C175.348 4.91522 175.324 4.93178 175.298 4.94834C175.222 4.99447 175.161 5.04414 175.003 5.04887C174.83 5.0536 174.656 5.07253 174.482 5.08554C174.314 5.09855 174.269 5.12693 174.285 5.20736C174.303 5.30434 174.338 5.31499 174.64 5.31381C174.727 5.31381 174.803 5.32327 174.869 5.3552C174.837 5.39305 174.78 5.42262 174.695 5.42971C174.48 5.44745 174.261 5.46283 174.046 5.47821C173.872 5.49122 173.698 5.50423 173.525 5.51724C173.417 5.52552 173.348 5.58702 173.377 5.65562C173.393 5.69465 173.406 5.73368 173.419 5.77271C173.448 5.85078 173.504 5.87089 173.68 5.86734C173.725 5.86616 173.767 5.85669 173.809 5.85905C173.98 5.86733 174.061 5.9655 174.267 5.94539C174.438 5.92883 174.617 5.92529 174.785 5.904C174.94 5.88507 175.027 5.92766 175.135 5.9596C175.172 5.97024 175.211 5.9927 175.243 5.99152C175.461 5.97851 175.679 5.96551 175.893 5.94304C175.992 5.93358 176.053 5.94067 176.132 5.96905C176.321 6.03765 176.327 6.03411 176.608 6.01282C176.813 5.99626 176.816 5.99862 177.079 6.07077C177.153 6.09088 177.232 6.09087 177.326 6.08141C177.45 6.06958 177.579 6.05066 177.708 6.0684C177.747 6.07313 177.797 6.08733 177.81 6.10271C177.818 6.11335 177.782 6.13937 177.75 6.14765C177.518 6.20915 177.247 6.19851 176.995 6.22335C176.916 6.23045 176.837 6.20797 176.771 6.17604C176.703 6.1441 176.629 6.1311 176.54 6.13701C176.366 6.15002 176.19 6.1583 176.019 6.17722C175.871 6.19378 175.769 6.16657 175.666 6.12991C175.632 6.11808 175.593 6.0956 175.558 6.09679C175.169 6.12044 174.777 6.1441 174.39 6.17722C174.235 6.19141 174.146 6.15357 174.04 6.12163C174.003 6.11099 173.967 6.08851 173.932 6.0897C173.801 6.09443 173.672 6.10744 173.54 6.1169C173.062 6.15238 172.585 6.18786 172.107 6.22098C172.075 6.22335 172.036 6.19851 171.999 6.18786C171.928 6.16657 171.854 6.14646 171.78 6.12636C171.649 6.13582 171.52 6.14764 171.388 6.15474C171.294 6.15947 171.209 6.17604 171.196 6.22098C171.188 6.25055 171.275 6.27775 171.367 6.27538C171.457 6.27302 171.546 6.25882 171.62 6.2742C171.986 6.3499 171.986 6.35108 172.214 6.3357C172.414 6.32151 172.393 6.30968 172.57 6.37473C172.646 6.40312 172.714 6.41968 172.801 6.41259C173.017 6.39603 173.235 6.37947 173.454 6.36527C173.488 6.36291 173.533 6.37474 173.567 6.3842C173.825 6.45517 173.825 6.45753 174.038 6.43979C174.317 6.4185 174.327 6.41258 174.514 6.48473C174.643 6.53441 174.761 6.50011 174.885 6.49774C175.027 6.54387 175.182 6.58527 175.311 6.63731C175.464 6.69881 175.624 6.68816 175.798 6.67042C175.927 6.65741 176.053 6.65268 176.158 6.70117C176.258 6.74611 176.379 6.75085 176.516 6.73903C176.64 6.72838 176.766 6.7059 176.895 6.73192C176.929 6.73902 176.982 6.75677 176.979 6.76741C176.976 6.78397 176.942 6.80763 176.908 6.81472C176.666 6.86322 176.4 6.86203 176.145 6.8845C176.111 6.88805 176.066 6.87504 176.032 6.86557C175.958 6.84428 175.887 6.81945 175.816 6.79698C175.687 6.80408 175.556 6.80644 175.429 6.82063C175.332 6.83127 175.258 6.8301 175.187 6.80171C175.122 6.77569 175.051 6.74375 174.972 6.73547C174.893 6.72719 174.801 6.74494 174.714 6.75203C174.627 6.75913 174.527 6.75558 174.459 6.7745C174.39 6.79342 174.348 6.83482 174.303 6.86794C174.253 6.90461 174.185 6.91644 174.085 6.91999C173.993 6.92354 173.919 6.9188 173.851 6.88569C173.822 6.87149 173.782 6.86084 173.743 6.85138C173.706 6.8431 173.664 6.83009 173.63 6.83245C173.238 6.85966 172.848 6.88924 172.456 6.91762C172.262 6.93182 172.264 6.9318 171.859 6.86202C171.822 6.85611 171.778 6.84783 171.741 6.8502C171.522 6.86439 171.307 6.88095 171.088 6.89751C170.867 6.91407 170.87 6.9117 170.494 6.83719C170.425 6.823 170.325 6.84192 170.244 6.83956C170.073 6.83364 169.989 6.73429 169.789 6.75322C169.618 6.76978 169.439 6.77332 169.268 6.79461C169.112 6.81354 169.023 6.77214 168.918 6.74021C168.881 6.72957 168.842 6.70591 168.81 6.70827C168.418 6.73429 168.029 6.76386 167.508 6.76741C167.379 6.76741 167.437 6.79225 167.521 6.80053C167.642 6.81354 167.681 6.7887 167.616 6.74139C167.568 6.70828 167.5 6.69171 167.444 6.69999C167.416 6.70472 167.379 6.7272 167.508 6.76741C167.644 6.81236 167.637 6.83719 167.66 6.85138C167.718 6.88568 167.8 6.89987 167.884 6.89514C168.015 6.88686 168.144 6.87504 168.276 6.86794C168.313 6.86558 168.357 6.87386 168.392 6.88332C168.681 6.95665 168.684 6.96138 168.992 6.933C169.089 6.92472 169.16 6.92472 169.236 6.94719C169.341 6.97794 169.418 7.02998 169.578 7.01342C169.791 6.99095 170.01 6.97795 170.228 6.96494C170.262 6.96257 170.299 6.98386 170.339 6.99332C170.446 7.02171 170.525 7.07493 170.686 7.05246C170.809 7.03472 170.944 7.02997 171.075 7.02643C171.109 7.02524 171.162 7.04417 171.178 7.05955C171.209 7.08675 171.17 7.11869 171.08 7.14116C171.044 7.15063 170.994 7.14826 170.952 7.1518C170.778 7.16481 170.604 7.179 170.431 7.18965C170.339 7.19556 170.252 7.21331 170.241 7.25707C170.233 7.28664 170.328 7.31265 170.417 7.31029C170.549 7.30674 170.681 7.29728 170.807 7.2819C171.03 7.25588 171.225 7.26298 171.407 7.33749C171.536 7.38953 171.528 7.37062 171.665 7.52437C171.699 7.5634 171.801 7.56695 171.891 7.56458C172.107 7.55867 172.207 7.57641 172.188 7.61308C172.164 7.65802 172.088 7.67221 171.991 7.67812C171.817 7.68758 171.643 7.70297 171.47 7.71598C171.428 7.71953 171.38 7.72662 171.341 7.72425C171.301 7.72189 171.265 7.7077 171.23 7.69705C171.157 7.67458 171.094 7.64027 171.015 7.63199C170.936 7.62371 170.844 7.64146 170.757 7.64855C170.67 7.65447 170.578 7.67221 170.499 7.66393C170.42 7.65565 170.354 7.62018 170.283 7.59889C170.249 7.58824 170.207 7.57167 170.173 7.57286C169.999 7.58232 169.826 7.5977 169.652 7.60953C169.439 7.6249 169.439 7.6249 169.181 7.55157C169.107 7.53028 169.031 7.53147 168.934 7.54093C168.723 7.55986 168.721 7.5563 168.336 7.4877C168.3 7.4806 168.255 7.47233 168.218 7.47588C167.826 7.50308 167.437 7.53265 167.047 7.56103C166.713 7.58587 166.713 7.58588 166.529 7.70415C166.392 7.79168 166.389 7.79167 166.524 7.83189C166.632 7.865 166.729 7.91349 166.847 7.93123C166.958 7.94779 167.095 7.89457 167.216 7.94898C167.276 7.97618 167.355 8.00575 167.431 8.01048C167.552 8.0164 167.681 7.98209 167.797 8.03413C167.855 8.06015 167.942 8.08736 168.015 8.08855C168.144 8.09091 168.276 8.07198 168.405 8.0637C168.444 8.06133 168.489 8.06134 168.526 8.06725C168.565 8.07435 168.599 8.08854 168.634 8.10037C168.739 8.14059 168.852 8.1595 168.989 8.1394C169.213 8.10628 169.412 8.12284 169.586 8.19853C169.61 8.20918 169.668 8.21037 169.704 8.20564C169.799 8.19381 169.881 8.19262 169.952 8.2151C169.981 8.22456 170.023 8.24111 170.018 8.25175C170.01 8.26949 169.978 8.29315 169.944 8.29907C169.697 8.33928 169.431 8.34402 169.176 8.36531C169.141 8.36767 169.099 8.35229 169.065 8.34164C168.992 8.32035 168.928 8.28488 168.849 8.2766C168.771 8.26832 168.678 8.2837 168.592 8.28961C168.505 8.29552 168.413 8.31327 168.334 8.30617C168.255 8.29789 168.181 8.26832 168.118 8.2423C168.044 8.21273 167.973 8.20919 167.876 8.22101C167.75 8.23639 167.618 8.23875 167.489 8.24703C167.418 8.22456 167.347 8.19971 167.273 8.17842C167.239 8.16778 167.197 8.15477 167.16 8.15596C166.987 8.16542 166.813 8.17961 166.639 8.19262C166.466 8.20563 166.466 8.20564 166.171 8.13231C166.137 8.12403 166.092 8.11457 166.055 8.11693C165.837 8.13112 165.621 8.14885 165.403 8.16305C165.319 8.16896 165.242 8.1524 165.174 8.12047C165.108 8.08854 165.029 8.07079 164.948 8.07671C164.6 8.10155 164.253 8.12521 163.906 8.15477C163.766 8.1666 163.648 8.15596 163.553 8.11338C163.443 8.06489 163.319 8.07672 163.19 8.08618C162.898 8.10983 162.896 8.10864 162.709 8.04832C162.672 8.0365 162.635 8.01402 162.601 8.0152C162.298 8.03294 161.993 8.04951 161.693 8.07789C161.535 8.09327 161.451 8.05187 161.346 8.02112C161.309 8.01048 161.27 7.988 161.238 7.99037C161.02 8.00338 160.801 8.01521 160.588 8.03887C160.375 8.06252 160.294 7.95253 160.133 7.95371C159.915 7.9549 159.699 7.9821 159.483 7.99866C159.31 8.01167 159.136 8.02467 158.962 8.03768C158.789 8.05069 158.615 8.06133 158.441 8.07671C158.349 8.08499 158.281 8.07434 158.205 8.04477C158.107 8.00574 157.992 7.975 157.886 7.93952C157.726 7.88866 157.726 7.88865 157.531 7.90285C157.489 7.9064 157.444 7.90876 157.402 7.9123C157.084 7.93832 157.084 7.93597 156.679 7.86145C156.66 7.85791 156.613 7.87092 156.594 7.88038C156.539 7.91113 156.489 7.94424 156.439 7.97618C156.368 7.95725 156.281 7.94661 156.234 7.91941C156.1 7.84253 155.889 7.94779 155.753 7.87209C155.703 7.84371 155.616 7.81887 155.537 7.81177C155.455 7.80468 155.363 7.82124 155.279 7.82833C155.061 7.84608 155.061 7.8449 154.874 7.95016C154.779 8.0022 154.642 7.99273 154.519 8.00456C154.39 8.01757 154.266 8.02467 154.158 7.97618C154.061 7.93242 153.942 7.92177 153.803 7.93597C153.632 7.95371 153.456 7.96435 153.282 7.97499C153.245 7.97736 153.2 7.97145 153.164 7.96435C152.761 7.89457 152.761 7.89339 152.566 7.90877C152.48 7.91586 152.39 7.91822 152.306 7.92886C152.164 7.94779 152.056 7.92295 151.953 7.8851C151.919 7.87328 151.88 7.85081 151.846 7.852C151.672 7.85791 151.501 7.86855 151.33 7.8792C151.198 7.88748 151.067 7.89221 150.941 7.90877C150.73 7.93597 150.627 7.85908 150.483 7.8236C150.267 7.83897 150.049 7.84962 149.833 7.87091C149.733 7.88037 149.667 7.87683 149.591 7.84845C149.494 7.81296 149.404 7.77275 149.246 7.79049C149.036 7.81415 148.815 7.82243 148.599 7.83662C148.454 7.79996 148.349 7.72543 148.141 7.75264C148.015 7.76919 147.881 7.77274 147.752 7.7822C147.578 7.79522 147.405 7.80705 147.231 7.82124C147.044 7.83544 147.047 7.83189 146.76 7.76211C146.594 7.72071 146.423 7.76684 146.255 7.77393C146.123 7.77985 146.057 7.83425 146.089 7.90403C146.121 7.97381 146.05 8.02822 145.929 8.03768C145.626 8.06015 145.321 8.0838 145.018 8.10391C144.981 8.10627 144.937 8.098 144.902 8.08972C144.579 8.0152 144.579 8.0164 144.434 8.02704C144.218 8.04478 143.997 8.05424 143.784 8.07671C143.637 8.09208 143.529 8.06726 143.434 8.02704C143.361 7.99629 143.292 7.98919 143.198 7.99629C142.156 8.07553 141.114 8.14886 140.075 8.23047C139.919 8.2423 139.83 8.208 139.725 8.17607C139.688 8.16542 139.654 8.14295 139.617 8.14295C139.53 8.14295 139.443 8.1536 139.356 8.16069C138.967 8.18908 138.578 8.22337 138.186 8.24466C138.02 8.25413 137.975 8.30854 137.904 8.35348C137.849 8.38778 137.786 8.40197 137.688 8.4067C137.594 8.41143 137.525 8.40551 137.452 8.37476C137.357 8.33455 137.249 8.30971 137.102 8.32627C136.931 8.34519 136.757 8.35348 136.581 8.36649C136.491 8.3724 136.423 8.39369 136.394 8.43627C136.389 8.44336 136.444 8.46111 136.476 8.47176C136.581 8.50724 136.681 8.54863 136.799 8.57347C136.92 8.59831 137.052 8.56991 137.178 8.56282C137.223 8.56045 137.265 8.55336 137.307 8.55454C137.346 8.55573 137.394 8.56164 137.423 8.57229C137.56 8.62551 137.704 8.66218 137.894 8.63024C138.057 8.64562 138.141 8.74378 138.349 8.71776C138.475 8.70239 138.607 8.69529 138.738 8.68938C138.772 8.6882 138.809 8.70949 138.846 8.72013C138.951 8.7497 139.035 8.79701 139.193 8.7769C139.362 8.75561 139.541 8.75207 139.712 8.73551C139.806 8.72605 139.875 8.73432 139.948 8.76508C140.043 8.80411 140.151 8.83367 140.298 8.81474C140.425 8.79818 140.559 8.79463 140.688 8.78399C140.856 8.77098 140.856 8.77216 141.156 8.8455C141.19 8.85377 141.235 8.86324 141.272 8.86087C141.49 8.84668 141.706 8.82894 141.924 8.81474C142.008 8.80883 142.09 8.8242 142.148 8.8585C142.172 8.8727 142.164 8.89637 142.172 8.91647C141.737 8.94841 141.303 8.9756 140.872 9.01463C140.709 9.03001 140.635 8.98152 140.527 8.95431C140.49 8.94485 140.451 8.92475 140.417 8.92711C140.111 8.94722 139.809 8.9685 139.506 8.99452C139.412 9.0028 139.341 8.99807 139.27 8.96377C139.088 8.8727 138.867 8.92237 138.662 8.93538C138.504 8.94485 138.454 8.98152 138.472 9.05958C138.496 9.15183 138.591 9.18022 138.833 9.16366C138.92 9.15775 139.006 9.14947 139.093 9.14473C139.178 9.14 139.254 9.15538 139.322 9.18731C139.388 9.21925 139.467 9.2358 139.548 9.23107C139.722 9.22043 139.898 9.20979 140.067 9.19205C140.206 9.17785 140.322 9.18968 140.419 9.23344C140.527 9.28193 140.654 9.27129 140.78 9.26064C141.074 9.23699 141.077 9.23818 141.261 9.29731C141.298 9.30914 141.335 9.33162 141.369 9.33043C141.672 9.31269 141.977 9.29731 142.274 9.26893C142.429 9.25474 142.519 9.29258 142.621 9.32333C142.658 9.33397 142.695 9.35763 142.729 9.35527C142.948 9.34226 143.166 9.32924 143.379 9.30677C143.479 9.29613 143.54 9.30322 143.621 9.3316C143.816 9.40139 143.821 9.39902 144.097 9.37655C144.182 9.36945 144.274 9.35645 144.353 9.36591C144.432 9.37537 144.495 9.40968 144.568 9.43096C144.603 9.44043 144.645 9.45343 144.681 9.45106C144.855 9.4416 145.029 9.42741 145.202 9.4144C145.365 9.40139 145.366 9.40258 145.671 9.47591C145.794 9.50666 145.923 9.48064 146.047 9.47117C146.181 9.46053 146.302 9.46054 146.405 9.50666C146.507 9.55279 146.631 9.55041 146.763 9.54095C146.886 9.53149 147.013 9.50548 147.139 9.53742C147.428 9.61075 147.428 9.61191 147.607 9.59772C147.868 9.57762 148.125 9.55869 148.388 9.54095C148.423 9.53859 148.467 9.55279 148.502 9.56225C148.575 9.58354 148.638 9.61901 148.717 9.62729C148.796 9.63675 148.888 9.62256 148.973 9.61547C149.244 9.59299 149.262 9.58472 149.444 9.66278C149.596 9.72665 149.786 9.63439 149.928 9.70772C150.009 9.74912 150.12 9.78223 150.272 9.76213C150.399 9.74557 150.53 9.74084 150.662 9.73137C150.869 9.716 150.869 9.71719 151.133 9.78816C151.167 9.79762 151.211 9.80944 151.246 9.80707C151.419 9.79761 151.596 9.78934 151.764 9.76805C151.961 9.74321 152.088 9.78816 152.235 9.83192C152.351 9.86622 152.488 9.83783 152.611 9.826C152.745 9.81417 152.866 9.81771 152.966 9.86384C153.072 9.91115 153.195 9.90524 153.327 9.89578C153.45 9.8875 153.577 9.86029 153.703 9.89341C153.974 9.96674 153.974 9.96674 154.171 9.95255C154.345 9.93954 154.519 9.92535 154.692 9.91589C154.726 9.91352 154.769 9.92889 154.803 9.93954C154.876 9.96083 154.94 9.99632 155.018 10.0046C155.097 10.0129 155.189 9.9975 155.276 9.99159C155.363 9.98567 155.455 9.96793 155.534 9.97503C155.613 9.98212 155.687 10.0117 155.75 10.0377C155.824 10.0685 155.892 10.072 155.992 10.0602C156.118 10.0448 156.25 10.0413 156.379 10.033C156.45 10.0555 156.523 10.0779 156.592 10.1028C156.663 10.1288 156.739 10.1264 156.836 10.1181C157.16 10.0897 157.163 10.0933 157.434 10.1666C157.557 10.1997 157.686 10.1725 157.81 10.1643C157.942 10.1548 158.065 10.1501 158.168 10.1974C158.268 10.2423 158.391 10.2482 158.523 10.234C158.607 10.2246 158.697 10.2187 158.783 10.2151C158.823 10.2139 158.87 10.2187 158.899 10.2281C159.039 10.2778 159.175 10.3228 159.367 10.2908C159.536 10.3003 159.62 10.3973 159.823 10.3783C159.994 10.3618 160.173 10.3582 160.341 10.3369C160.496 10.318 160.607 10.3511 160.686 10.3925C160.828 10.4659 161.028 10.3665 161.17 10.4387C161.251 10.4801 161.356 10.5132 161.514 10.4954C161.688 10.4765 161.743 10.5013 161.793 10.5759C161.822 10.6184 161.817 10.6527 161.764 10.6859C161.712 10.7202 161.654 10.7143 161.57 10.6752C161.472 10.6315 161.356 10.6232 161.217 10.6326C161.08 10.6421 160.996 10.5806 160.883 10.5569C160.77 10.5321 160.636 10.5735 160.517 10.5416C160.238 10.4671 160.238 10.4671 160.049 10.4812C159.92 10.4907 159.786 10.4954 159.66 10.512C159.51 10.5321 159.412 10.4954 159.31 10.4623C159.273 10.4505 159.236 10.428 159.204 10.4292C158.902 10.4469 158.597 10.4635 158.297 10.4931C158.139 10.5084 158.055 10.4659 157.949 10.4363C157.913 10.4257 157.873 10.4044 157.841 10.4067C157.581 10.4233 157.323 10.4446 157.063 10.4647C157.013 10.4966 156.957 10.5274 156.91 10.5617C156.86 10.5971 156.792 10.6125 156.692 10.6113C156.526 10.6113 156.363 10.661 156.197 10.5983C156.026 10.5345 156.013 10.538 155.847 10.5534C155.637 10.5735 155.413 10.5688 155.216 10.6149C155.182 10.6232 155.145 10.6456 155.145 10.6622C155.142 10.6728 155.197 10.6882 155.232 10.6977C155.347 10.7261 155.482 10.6847 155.597 10.7142C155.674 10.7332 155.737 10.7615 155.813 10.7817C155.845 10.7899 155.892 10.7888 155.934 10.7876C155.979 10.7864 156.021 10.7781 156.063 10.7793C156.102 10.7805 156.145 10.7876 156.176 10.7982C156.321 10.8432 156.473 10.8846 156.602 10.9378C156.729 10.9898 156.847 10.9543 156.973 10.952C157.478 11.0348 157.478 11.036 157.818 11.0099C157.902 11.004 157.989 10.9969 158.076 10.9981C158.113 10.9981 158.147 11.0194 158.184 11.0312C158.289 11.0667 158.389 11.0986 158.536 11.0797C158.662 11.0632 158.797 11.0596 158.925 11.049C159.099 11.0359 159.099 11.036 159.394 11.1105C159.467 11.1294 159.546 11.127 159.641 11.1176C159.723 11.1093 159.807 11.127 159.865 11.1613C159.888 11.1755 159.88 11.1992 159.888 11.2193C159.628 11.2382 159.365 11.2512 159.112 11.2796C158.949 11.2973 158.875 11.2465 158.768 11.2193C158.731 11.2098 158.691 11.1897 158.657 11.1921C158.399 11.2098 158.141 11.2299 157.884 11.2536C157.852 11.2559 157.813 11.2831 157.81 11.2997C157.805 11.3305 157.87 11.36 157.965 11.3588C158.091 11.3577 158.215 11.3375 158.328 11.386C158.423 11.4286 158.541 11.4476 158.681 11.4286C158.765 11.418 158.854 11.418 158.939 11.4085C159.162 11.3801 159.365 11.386 159.533 11.4665C159.662 11.4878 159.788 11.4677 159.912 11.457C160.004 11.4487 160.094 11.4404 160.159 11.4629C160.299 11.5102 160.436 11.5575 160.628 11.5256C160.836 11.5587 160.993 11.6285 161.167 11.6853C161.249 11.7125 161.312 11.7279 161.406 11.7101C161.446 11.703 161.493 11.703 161.535 11.6995C161.622 11.6936 161.714 11.6758 161.793 11.6829C161.872 11.6912 161.938 11.7255 162.009 11.7468C162.043 11.7574 162.083 11.7752 162.117 11.774C162.248 11.7681 162.377 11.7562 162.506 11.7468C162.635 11.7385 162.764 11.7302 162.893 11.722C163.001 11.7527 163.111 11.7835 163.219 11.8142C163.393 11.8012 163.566 11.7882 163.738 11.7764C163.93 11.7622 163.93 11.7633 164.206 11.8367C164.329 11.8698 164.461 11.8485 164.579 11.8331C164.777 11.8083 164.908 11.8532 165.048 11.9005C165.077 11.91 165.129 11.9159 165.163 11.9112C165.3 11.8946 165.419 11.9076 165.519 11.9514C165.59 11.9821 165.661 11.9964 165.748 11.9904C166.05 11.968 166.353 11.9443 166.655 11.9242C166.692 11.9218 166.734 11.9325 166.768 11.9419C167.037 12.0141 167.039 12.0176 167.237 11.9987C167.413 11.9822 167.576 11.9751 167.715 12.0401C167.744 12.0543 167.789 12.0744 167.821 12.0732C168.036 12.0614 168.255 12.0484 168.468 12.0283C168.565 12.0188 168.634 12.0224 168.71 12.0496C168.807 12.0839 168.894 12.1253 169.055 12.1099C169.499 12.0661 169.502 12.0732 170.028 12.1548C170.065 12.1607 170.115 12.1513 170.157 12.1466C170.246 12.1347 170.312 12.1513 170.391 12.1785C170.567 12.24 170.573 12.2364 170.741 12.2234C170.87 12.2128 171.004 12.2104 171.13 12.1927C171.325 12.1667 171.454 12.2128 171.599 12.2566C171.715 12.2909 171.849 12.2625 171.972 12.2518C172.107 12.24 172.228 12.2435 172.328 12.2885C172.396 12.3192 172.47 12.3358 172.556 12.3299C172.859 12.3086 173.162 12.2849 173.464 12.2636C173.501 12.2613 173.546 12.2707 173.58 12.279C173.88 12.3524 173.88 12.3559 174.177 12.3287C174.272 12.3204 174.351 12.3181 174.422 12.3429C174.49 12.3665 174.564 12.389 174.635 12.4115C174.764 12.4032 174.895 12.4008 175.022 12.3867C175.119 12.376 175.187 12.3807 175.264 12.4056C175.364 12.4375 175.448 12.4931 175.606 12.4659C175.687 12.4529 175.782 12.4564 175.864 12.4446C175.961 12.4292 176.027 12.4387 176.103 12.4694C176.198 12.5061 176.295 12.544 176.448 12.525C176.616 12.5037 176.795 12.5002 176.966 12.4836C177.061 12.4742 177.126 12.4836 177.203 12.5144C177.297 12.5534 177.405 12.5783 177.553 12.5629C177.853 12.5333 177.855 12.5392 178.147 12.6137C178.221 12.6327 178.3 12.6303 178.395 12.6208C178.476 12.6126 178.56 12.6303 178.618 12.6646C178.673 12.7024 178.668 12.7261 178.673 12.7462ZM155.229 2.07899C155.142 2.0849 155.055 2.092 154.929 1.9891C154.921 1.97136 154.926 1.95007 154.908 1.9347C154.866 1.90276 154.8 1.88029 154.721 1.87674C154.579 1.87201 154.408 1.91222 154.411 1.94297C154.413 1.96899 154.458 1.99146 154.545 2.01275C154.582 2.02103 154.611 2.03522 154.645 2.04469C154.745 2.07189 154.824 2.12512 154.969 2.09792C154.942 2.02459 154.955 2.06125 154.969 2.09792C154.955 2.14286 154.995 2.1748 155.09 2.18781C155.116 2.19136 155.155 2.18898 155.176 2.18189C155.258 2.15587 155.271 2.12039 155.211 2.02696C155.2 2.04233 155.208 2.06953 155.232 2.07662C155.255 2.08372 155.313 2.07781 155.342 2.06953C155.416 2.04706 155.453 2.01749 155.434 1.99265C155.424 1.97964 155.374 1.96308 155.342 1.96308C155.287 1.96308 155.237 1.9891 155.229 2.07899ZM176.503 15.7953C176.311 15.8178 176.09 15.8095 175.898 15.8557C175.864 15.8639 175.829 15.8852 175.827 15.9018C175.824 15.9124 175.877 15.9278 175.908 15.9361C175.979 15.955 176.058 15.9491 176.15 15.9432C176.29 15.9349 176.371 15.9893 176.479 16.0165C176.513 16.0248 176.558 16.0307 176.595 16.0283C176.808 16.0141 177.019 15.9988 177.232 15.9822C177.268 15.9787 177.308 15.9704 177.34 15.9597C177.445 15.9254 177.434 15.903 177.332 15.877C177.219 15.8486 177.129 15.8012 177.013 15.7788C176.848 15.7468 176.679 15.7894 176.503 15.7953ZM161.562 16.6587C161.433 16.6682 161.306 16.6777 161.178 16.6871C161.135 16.6907 161.091 16.6919 161.051 16.6966C160.97 16.7049 160.909 16.7297 160.87 16.7687C160.93 16.7995 161.004 16.8172 161.085 16.8137C161.214 16.8066 161.341 16.7912 161.47 16.7877C161.609 16.7829 161.691 16.8362 161.798 16.8634C161.833 16.8716 161.875 16.8728 161.914 16.874C162.109 16.8787 162.227 16.8172 162.19 16.7309C162.164 16.6635 162.064 16.6233 161.943 16.6315C161.817 16.6398 161.688 16.6493 161.562 16.6587ZM177.403 14.0472C177.434 14.0271 177.468 14.0129 177.484 13.9952C177.532 13.9349 177.513 13.8899 177.426 13.8426C177.321 13.7847 177.192 13.8237 177.074 13.8296C177.045 13.8308 177.013 13.8556 176.997 13.871C176.987 13.8816 176.987 13.9041 177.003 13.91C177.132 13.9573 177.268 14.0011 177.403 14.0472ZM154.579 10.5534C154.453 10.5629 154.324 10.57 154.198 10.583C154.166 10.5865 154.137 10.609 154.119 10.6244C154.085 10.6527 154.121 10.6918 154.229 10.6953C154.353 10.7 154.482 10.6799 154.611 10.6705C154.774 10.6587 154.871 10.6149 154.811 10.577C154.753 10.5404 154.674 10.5333 154.579 10.5534ZM16.0883 8.02586C16.1725 8.01994 16.2593 8.01521 16.3435 8.00693C16.4224 7.99865 16.4829 7.97263 16.5224 7.9336C16.4566 7.90285 16.3829 7.88629 16.3014 7.88984C16.1725 7.89694 16.0462 7.9064 15.9199 7.91822C15.841 7.92532 15.7647 7.95134 15.7463 7.99155C15.7279 8.02231 15.9041 8.04005 16.0883 8.02586ZM143.453 7.84371C143.487 7.85435 143.521 7.87565 143.555 7.87565C143.64 7.87565 143.726 7.86855 143.805 7.85672C143.84 7.85199 143.866 7.8307 143.882 7.81414C143.892 7.8035 143.89 7.78458 143.874 7.77512C143.798 7.71834 143.492 7.73845 143.442 7.8035C143.437 7.81533 143.45 7.8307 143.453 7.84371ZM135.152 1.36697C135.16 1.3859 135.163 1.40482 135.173 1.42374C135.194 1.45922 135.252 1.48525 135.336 1.50299C135.402 1.47342 135.436 1.44031 135.434 1.40483C135.431 1.3859 135.423 1.36697 135.413 1.34804C135.392 1.31256 135.334 1.28655 135.25 1.26881C135.184 1.29719 135.152 1.33031 135.152 1.36697ZM183.483 16.8645C183.459 16.8799 183.435 16.8953 183.409 16.9095C183.48 16.9438 183.546 16.9544 183.596 16.9355C183.628 16.9237 183.646 16.9059 183.67 16.8906C183.599 16.8563 183.535 16.8468 183.483 16.8645ZM181.846 17.0254C181.881 17.036 181.912 17.0502 181.949 17.0573C182.009 17.0692 182.065 17.049 182.107 17.0065C182.073 16.9958 182.041 16.9816 182.004 16.9745C181.944 16.9627 181.888 16.9828 181.846 17.0254ZM182.883 16.809C182.864 16.8373 182.901 16.861 182.999 16.8811C183.022 16.8657 183.054 16.8515 183.07 16.835C183.096 16.8078 183.051 16.7829 182.957 16.764C182.93 16.7782 182.907 16.7936 182.883 16.809ZM177.329 15.5339C177.311 15.5623 177.347 15.586 177.445 15.6061C177.468 15.5907 177.5 15.5765 177.516 15.56C177.542 15.5328 177.497 15.5079 177.403 15.489C177.376 15.5032 177.353 15.5186 177.329 15.5339ZM169.762 7.16481C169.739 7.18019 169.715 7.19556 169.689 7.20976C169.76 7.24406 169.826 7.2547 169.875 7.23577C169.907 7.22395 169.925 7.20621 169.949 7.19083C169.878 7.15653 169.815 7.14707 169.762 7.16481ZM162.514 2.72477C162.577 2.73305 162.63 2.71649 162.675 2.67273C162.64 2.66209 162.609 2.64789 162.572 2.6408C162.511 2.62897 162.456 2.64908 162.414 2.69166C162.448 2.70349 162.482 2.71412 162.514 2.72477ZM158.665 2.44682C158.641 2.4622 158.618 2.47757 158.591 2.49177C158.662 2.52607 158.728 2.53671 158.778 2.51778C158.81 2.50596 158.828 2.48822 158.852 2.47284C158.781 2.43854 158.718 2.43026 158.665 2.44682ZM132.563 1.36579C132.54 1.38116 132.516 1.39654 132.49 1.41073C132.561 1.44503 132.626 1.45567 132.676 1.43675C132.708 1.42492 132.726 1.40718 132.75 1.3918C132.679 1.35751 132.616 1.34923 132.563 1.36579ZM2.59672 10.9886C2.56252 10.978 2.52835 10.9674 2.49677 10.9555C2.42048 10.9875 2.39681 11.017 2.4389 11.0395C2.46521 11.0537 2.50464 11.062 2.53885 11.0726C2.61777 11.0407 2.63618 11.0123 2.59672 10.9886Z" fill="#FFE492"/>
</svg>
