<svg width="155" height="52" viewBox="0 0 155 52" fill="none" xmlns="http://www.w3.org/2000/svg">
<path d="M145.429 27.4141C145.218 27.4565 145.004 27.4856 144.797 27.5492C144.663 27.5889 144.605 27.4724 144.516 27.4115C144.486 27.3903 144.454 27.3479 144.426 27.3532C144.217 27.3956 144.008 27.4433 143.799 27.4909C143.735 27.5942 143.694 27.732 143.596 27.7823C143.5 27.83 143.387 27.83 143.281 27.8538C143.14 27.8829 142.999 27.9121 142.858 27.9386C142.788 27.9518 142.73 28.0021 142.707 28.0975C142.703 28.1134 142.749 28.1531 142.775 28.1769C142.86 28.2564 142.944 28.3464 143.037 28.4073C143.127 28.4656 143.238 28.3703 143.334 28.4444C143.549 28.6113 143.552 28.6086 143.716 28.5768C143.857 28.5477 143.997 28.5159 144.138 28.4948C144.166 28.4895 144.198 28.5292 144.228 28.5504C144.317 28.6086 144.375 28.7411 144.507 28.6907C144.607 28.651 144.718 28.6431 144.823 28.6219C144.91 28.6987 144.991 28.7861 145.085 28.847C145.173 28.9053 145.198 28.9503 145.151 29.0271C145.109 29.0986 145.049 29.1278 144.97 29.1331C144.9 29.1357 144.829 29.1595 144.759 29.1728C144.723 29.1807 144.689 29.186 144.654 29.194C144.52 29.2231 144.52 29.2231 144.275 29.0536C144.179 28.9874 144.07 29.0801 143.978 29.0165C143.916 28.9741 143.863 28.9106 143.803 28.8656C143.778 28.847 143.737 28.8443 143.705 28.8496C143.598 28.8682 143.492 28.8814 143.389 28.9159C143.317 28.9397 143.274 29.0139 143.283 29.088C143.285 29.1172 143.336 29.1595 143.366 29.1622C143.434 29.1675 143.507 29.1304 143.573 29.1489C143.637 29.1675 143.703 29.2204 143.75 29.2787C143.846 29.4005 143.955 29.292 144.046 29.3237C144.142 29.3582 144.221 29.4641 144.313 29.5277C144.337 29.5436 144.381 29.5171 144.418 29.5091C144.522 29.4906 144.627 29.4747 144.731 29.4562C144.819 29.533 144.913 29.6018 144.991 29.6892C145.134 29.8482 145.288 29.909 145.474 29.8322C145.578 29.7899 145.68 29.8058 145.764 29.9091C145.849 30.015 145.947 30.0044 146.056 29.9832C146.156 29.962 146.259 29.9038 146.361 29.9779C146.583 30.1421 146.585 30.1501 146.847 30.0865C146.926 30.068 146.986 30.0627 147.046 30.1236C147.101 30.1792 147.161 30.2269 147.218 30.2799C147.323 30.2613 147.43 30.2428 147.534 30.2216C147.669 30.1925 147.743 30.2295 147.775 30.3778C147.794 30.4679 147.803 30.55 147.85 30.6109C147.905 30.6851 147.965 30.6824 148.046 30.6612C148.123 30.6427 148.178 30.6136 148.21 30.5182C148.223 30.4785 148.249 30.4414 148.272 30.4096C148.291 30.3858 148.321 30.3487 148.338 30.354C148.37 30.3646 148.413 30.3937 148.424 30.4282C148.528 30.7486 148.528 30.7513 148.635 30.844C148.752 30.9473 148.874 31.04 148.98 31.1565C149.076 31.2598 149.172 31.2148 149.277 31.2148C149.356 31.2148 149.407 31.2837 149.401 31.3525C149.396 31.3922 149.367 31.4505 149.341 31.4558C149.132 31.5088 148.921 31.5538 148.71 31.5909C148.684 31.5962 148.652 31.5485 148.622 31.5246C148.562 31.477 148.509 31.4028 148.445 31.3869C148.381 31.371 148.306 31.4108 148.236 31.424C148.166 31.4372 148.091 31.4717 148.027 31.4505C147.963 31.4293 147.912 31.3525 147.852 31.3022C147.824 31.2783 147.786 31.2439 147.762 31.2519C147.607 31.3154 147.492 31.228 147.381 31.1115C147.357 31.0877 147.317 31.0718 147.287 31.0771C147.039 31.1221 146.794 31.175 146.547 31.2254C146.446 31.2466 146.365 31.1539 146.344 30.9976C146.333 30.9102 146.312 30.8228 146.312 30.7354C146.312 30.5765 146.195 30.4891 146.109 30.5076C145.968 30.5341 145.826 30.5553 145.687 30.595C145.574 30.6268 145.478 30.595 145.401 30.4997C145.311 30.3911 145.209 30.4123 145.107 30.4414C145.03 30.4626 145.008 30.55 145.013 30.7698C145.017 30.9473 144.981 31.0029 144.842 31.032C144.667 31.0691 144.49 31.1062 144.313 31.1353C144.285 31.1406 144.253 31.0956 144.226 31.0718C144.166 31.0241 144.113 30.9473 144.049 30.9314C143.985 30.9128 143.91 30.9526 143.84 30.9685C143.769 30.9817 143.694 31.0188 143.63 31.0002C143.566 30.9817 143.513 30.9023 143.456 30.8519C143.428 30.8281 143.394 30.7937 143.366 30.799C143.225 30.8201 143.084 30.8519 142.944 30.8811C142.786 30.9129 142.786 30.9129 142.562 30.7486C142.459 30.6745 142.357 30.7328 142.257 30.754C142.15 30.7751 142.05 30.7857 141.967 30.6798C141.911 30.6109 141.849 30.5685 141.783 30.5818C141.606 30.6136 141.431 30.6533 141.254 30.6851C141.224 30.6904 141.184 30.6771 141.16 30.6533C141.047 30.5421 140.936 30.4547 140.778 30.5103C140.642 30.5579 140.495 30.5606 140.358 30.6056C140.284 30.6295 140.249 30.7142 140.264 30.7804C140.273 30.8149 140.318 30.8546 140.348 30.8546C140.416 30.8572 140.49 30.8175 140.554 30.8334C140.687 30.8652 140.753 31.0876 140.926 31.0267C141.028 30.9896 141.135 30.9764 141.241 30.9658C141.269 30.9632 141.299 31.0135 141.329 31.04C141.414 31.1115 141.489 31.2042 141.612 31.1565C141.715 31.1194 141.824 31.1089 141.928 31.0877C142.095 31.0532 142.095 31.0559 142.31 31.2174C142.412 31.2943 142.515 31.2333 142.615 31.2148C142.69 31.2015 142.76 31.1751 142.82 31.2121C142.912 31.2678 142.978 31.3949 143.091 31.3869C143.197 31.379 143.302 31.3419 143.409 31.3287C143.475 31.3207 143.537 31.3631 143.59 31.4346C143.645 31.5061 143.705 31.5379 143.778 31.522C143.882 31.5008 143.989 31.4743 144.095 31.4611C144.125 31.4584 144.16 31.4823 144.187 31.5035C144.247 31.5511 144.305 31.6068 144.362 31.6571C144.467 31.6412 144.573 31.6359 144.676 31.6041C144.755 31.5803 144.81 31.5909 144.874 31.6439C144.955 31.7154 145.021 31.8425 145.154 31.7816C145.22 31.7524 145.296 31.7604 145.363 31.7339C145.444 31.6995 145.499 31.7127 145.557 31.7922C145.666 31.9431 145.802 31.9458 145.943 31.8875C146.096 31.8239 146.212 31.8981 146.327 32.0147C146.448 32.1365 146.448 32.1338 146.542 32.4278C146.57 32.5126 146.649 32.5523 146.715 32.5364C146.826 32.5099 146.922 32.5231 147.003 32.6238C147.088 32.7324 147.191 32.7191 147.295 32.69C147.434 32.6503 147.573 32.6159 147.686 32.7695C147.741 32.8436 147.801 32.8621 147.876 32.8436C148.087 32.7959 148.3 32.7668 148.507 32.7086C148.633 32.6715 148.705 32.7562 148.791 32.8277C148.906 32.9257 149.032 33.0131 149.032 33.2224C149.032 33.2568 149.062 33.2965 149.087 33.323C149.143 33.3786 149.202 33.4263 149.26 33.4793C149.345 33.5587 149.428 33.6249 149.546 33.5826C149.648 33.5481 149.757 33.5375 149.861 33.5137C149.966 33.4899 150.062 33.4766 150.156 33.5773C150.265 33.6911 150.38 33.7997 150.504 33.8845C150.591 33.9454 150.706 33.8421 150.8 33.9242C150.858 33.9746 150.913 34.0328 150.975 34.0752C151.001 34.0937 151.041 34.0805 151.075 34.0752C151.146 34.0646 151.218 34.0567 151.286 34.0302C151.365 34.001 151.425 34.0063 151.485 34.0673C151.54 34.1229 151.596 34.1997 151.66 34.2156C151.756 34.2394 151.862 34.1335 151.958 34.2553C152.007 34.3162 152.069 34.3745 152.133 34.393C152.197 34.4116 152.272 34.3718 152.34 34.3745C152.37 34.3745 152.406 34.4169 152.423 34.4513C152.434 34.4698 152.419 34.5201 152.404 34.5466C152.385 34.5784 152.357 34.6208 152.33 34.6261C152.118 34.6738 151.907 34.7135 151.696 34.7585C151.57 34.785 151.57 34.785 151.316 34.6181C151.257 34.5784 151.19 34.5863 151.116 34.6049C151.016 34.6287 150.913 34.6738 150.809 34.6261C150.672 34.446 150.504 34.4301 150.324 34.4989C150.25 34.5281 150.181 34.5281 150.126 34.4778C150.009 34.3771 149.885 34.2844 149.78 34.1653C149.699 34.0726 149.661 34.0646 149.627 34.1917C149.616 34.2315 149.606 34.2738 149.608 34.3109C149.62 34.4433 149.644 34.5731 149.657 34.7055C149.661 34.7426 149.644 34.785 149.633 34.8247C149.599 34.936 149.554 34.928 149.48 34.8353C149.405 34.7426 149.315 34.6817 149.196 34.7241C149.094 34.7612 148.983 34.7559 148.88 34.7956C148.722 34.8539 148.611 34.7691 148.498 34.6552C148.475 34.6314 148.434 34.6181 148.405 34.6234C148.087 34.6844 147.771 34.7532 147.453 34.8141C147.385 34.8274 147.323 34.7876 147.27 34.7161C147.214 34.6446 147.152 34.6076 147.084 34.6208C146.802 34.6764 146.521 34.7267 146.239 34.7956C146.124 34.8247 146.032 34.7903 145.954 34.6976C145.894 34.6287 145.838 34.6075 145.764 34.6155C145.683 34.6234 145.625 34.6499 145.584 34.7267C145.546 34.8009 145.574 34.8459 145.659 34.9042C145.751 34.9677 145.836 35.0499 145.924 35.124C145.994 35.1134 146.064 35.0922 146.133 35.0949C146.163 35.0949 146.19 35.1425 146.22 35.169C146.305 35.2458 146.384 35.3227 146.506 35.2803C146.608 35.2432 146.717 35.2352 146.822 35.2114C146.967 35.1823 146.967 35.1823 147.201 35.3491C147.261 35.3915 147.325 35.3888 147.402 35.365C147.468 35.3465 147.536 35.3835 147.583 35.463C147.602 35.4948 147.596 35.5478 147.556 35.7226C147.556 35.8524 147.6 35.7941 147.615 35.7093C147.639 35.5875 147.594 35.5478 147.509 35.614C147.449 35.6617 147.419 35.7305 147.434 35.7862C147.442 35.8153 147.483 35.8524 147.556 35.7226C147.743 35.5637 147.886 35.5451 148.023 35.5027C148.104 35.4789 148.155 35.4895 148.219 35.5583C148.296 35.6405 148.373 35.7279 148.498 35.6855C148.635 35.6378 148.78 35.6325 148.919 35.5928C149.047 35.5557 149.113 35.6723 149.194 35.7411C149.292 35.8232 149.401 35.7305 149.49 35.7782C149.584 35.8259 149.65 35.9424 149.759 35.9636C149.917 35.8921 150.017 36.0245 150.137 36.1119C150.231 36.1781 150.341 36.1198 150.442 36.0907C150.555 36.0589 150.649 36.0881 150.728 36.1834C150.817 36.292 150.917 36.2682 151.02 36.2443C151.259 36.1914 151.267 36.1834 151.406 36.3291C151.506 36.435 151.602 36.3874 151.702 36.3741C151.79 36.4456 151.875 36.5224 151.967 36.586C151.99 36.6019 152.035 36.5754 152.071 36.5675C152.176 36.5463 152.283 36.5251 152.387 36.5039C152.458 36.4907 152.532 36.4509 152.596 36.4668C152.66 36.4853 152.714 36.5622 152.771 36.6125C152.829 36.6628 152.889 36.7131 152.944 36.7661C153.029 36.8456 153.11 36.9118 153.23 36.872C153.332 36.8376 153.439 36.827 153.545 36.8032C153.68 36.774 153.676 36.782 153.925 36.9409C154.06 37.0283 154.198 36.9224 154.335 36.9118C154.403 36.9065 154.469 36.9356 154.516 37.0124C154.535 37.0442 154.529 37.0972 154.535 37.1422C154.183 37.2137 153.829 37.2746 153.481 37.362C153.347 37.3964 153.277 37.3011 153.204 37.2216C153.085 37.0945 152.927 37.2799 152.814 37.1157C152.746 37.0177 152.647 36.9621 152.53 37.0098C152.462 37.0363 152.389 37.0336 152.319 37.0574C152.14 37.1157 151.975 37.1184 151.833 36.9356C151.783 36.872 151.713 36.8376 151.662 36.7767C151.602 36.7105 151.545 36.6734 151.474 36.6866C151.156 36.7502 150.841 36.8138 150.525 36.8826C150.497 36.8879 150.469 36.9276 150.446 36.9568C150.386 37.0309 150.405 37.0892 150.501 37.1369C150.533 37.1528 150.559 37.1872 150.589 37.2137C150.647 37.264 150.7 37.3435 150.764 37.362C150.828 37.3806 150.903 37.3435 150.973 37.3302C151.043 37.317 151.118 37.2773 151.182 37.2931C151.246 37.3117 151.299 37.3885 151.359 37.4362C151.387 37.46 151.421 37.4997 151.449 37.4971C151.589 37.4812 151.728 37.4521 151.869 37.4282C151.956 37.4997 152.031 37.603 152.135 37.6269C152.202 37.6428 152.272 37.6136 152.34 37.6189C152.37 37.6216 152.408 37.6613 152.423 37.6957C152.432 37.7169 152.404 37.7699 152.383 37.7964C152.302 37.897 152.191 37.8785 152.091 37.9102C151.982 37.9447 151.884 37.9341 151.801 37.8308C151.745 37.7619 151.683 37.7249 151.615 37.7381C151.438 37.7725 151.263 37.8123 151.086 37.8414C151.056 37.8467 151.02 37.8229 150.992 37.8043C150.768 37.6428 150.768 37.6375 150.61 37.6719C150.378 37.7222 150.378 37.7222 150.222 37.5818C150.192 37.5553 150.16 37.505 150.135 37.5077C149.887 37.5501 149.642 37.5924 149.396 37.6533C149.315 37.6719 149.26 37.6719 149.2 37.603C149.149 37.5448 149.089 37.4785 149.025 37.4627C148.959 37.4468 148.887 37.4865 148.816 37.4997C148.746 37.513 148.671 37.5474 148.609 37.5262C148.545 37.505 148.49 37.4309 148.434 37.3779C148.377 37.3223 148.315 37.3249 148.236 37.3461C147.993 37.407 147.991 37.3991 147.75 37.2349C147.722 37.2163 147.686 37.1952 147.656 37.2005C147.479 37.2322 147.304 37.272 147.127 37.3038C147.059 37.317 146.992 37.2826 146.945 37.2058C146.926 37.174 146.933 37.121 146.92 37.0177C146.905 36.9939 146.922 37.0363 146.926 37.076C146.958 37.0707 146.997 37.076 147.02 37.0548C147.08 37.0045 147.11 36.9382 147.095 36.8826C147.086 36.8535 147.046 36.8164 147.02 36.8164C146.973 36.8164 146.933 36.8747 146.92 37.0177C146.785 37.1051 146.643 37.1236 146.504 37.166C146.423 37.1925 146.372 37.1793 146.308 37.1104C146.231 37.0257 146.152 36.9435 146.026 36.9859C145.889 37.0336 145.744 37.0416 145.604 37.0786C145.442 37.121 145.371 36.8826 145.235 36.8879C145.094 36.8932 144.953 36.9383 144.812 36.97C144.689 36.9965 144.689 36.9965 144.433 36.8244C144.339 36.7608 144.228 36.8535 144.136 36.7873C144.074 36.7449 144.021 36.6813 143.961 36.6363C143.936 36.6178 143.895 36.6178 143.863 36.6231C143.686 36.6548 143.507 36.676 143.336 36.7343C143.142 36.8032 142.995 36.729 142.856 36.5728C142.681 36.6019 142.504 36.6178 142.331 36.6681C142.206 36.7052 142.133 36.6178 142.048 36.5463C142.018 36.5224 141.992 36.4827 141.96 36.4721C141.928 36.4615 141.89 36.4827 141.856 36.4906C141.715 36.5198 141.57 36.533 141.433 36.5807C141.265 36.6416 141.201 36.4244 141.071 36.3979C140.983 36.5277 140.936 36.7052 140.763 36.7184C140.623 36.729 140.482 36.7714 140.341 36.8005C140.271 36.8138 140.2 36.8297 140.13 36.8429C140.017 36.8667 139.964 36.97 139.987 37.1289C140 37.2163 140.01 37.3037 140.021 37.3911C140.042 37.5474 139.989 37.6798 139.9 37.6984C139.652 37.7487 139.407 37.8017 139.159 37.8467C139.093 37.8599 139.029 37.8149 138.976 37.7434C138.92 37.6719 138.859 37.6401 138.79 37.6533C138.543 37.7037 138.298 37.7566 138.05 37.8017C138.022 37.807 137.986 37.7805 137.958 37.7593C137.899 37.7116 137.841 37.656 137.783 37.6057C137.643 37.6295 137.504 37.6454 137.365 37.6772C137.141 37.7248 137.141 37.7275 136.977 37.5818C136.947 37.5553 136.917 37.505 136.89 37.5077C136.783 37.5183 136.678 37.5448 136.572 37.5686C136.258 37.6375 136.258 37.6375 136.166 37.558C136.083 37.4838 136.009 37.3938 135.883 37.4362C135.746 37.4839 135.601 37.4997 135.46 37.5262C135.356 37.5448 135.251 37.566 135.147 37.5713C135.119 37.5739 135.089 37.5236 135.059 37.4971C134.974 37.415 134.891 37.3488 134.773 37.3938C134.705 37.4203 134.633 37.4256 134.562 37.4388C134.379 37.4759 134.379 37.4759 134.078 37.317C134.048 37.3011 134.012 37.2826 133.982 37.2905C133.735 37.3382 133.489 37.3912 133.242 37.4362C133.212 37.4415 133.176 37.4256 133.146 37.4123C132.809 37.2587 132.809 37.2587 132.45 37.3329C132.314 37.3594 132.31 37.37 132.167 37.2296C132.103 37.1687 132.049 37.1395 131.975 37.1581C131.693 37.2216 131.409 37.264 131.13 37.3382C131.004 37.37 130.932 37.2905 130.846 37.219C130.816 37.1951 130.784 37.1422 130.759 37.1448C130.477 37.1952 130.196 37.2561 129.914 37.3064C129.888 37.3117 129.857 37.2587 129.827 37.2349C129.769 37.1872 129.714 37.1157 129.65 37.0998C129.583 37.0839 129.511 37.1236 129.438 37.1369C129.261 37.1713 129.261 37.1687 129.057 37.0124C129.029 36.9912 128.993 36.9621 128.965 36.9674C128.683 37.0204 128.4 37.0654 128.12 37.1422C127.96 37.1846 127.851 37.1077 127.738 36.9965C127.715 36.9727 127.674 36.9621 127.644 36.9674C127.327 37.0283 127.011 37.0972 126.693 37.1581C126.627 37.1713 126.563 37.1263 126.51 37.0574C126.424 36.9488 126.324 36.9621 126.217 36.9859C125.972 37.0415 125.97 37.0389 125.825 36.9118C125.795 36.8853 125.769 36.8508 125.737 36.8376C125.707 36.8244 125.669 36.8323 125.637 36.8376C125.496 36.8641 125.356 36.8932 125.215 36.9223C125.074 36.9515 124.931 36.9674 124.792 37.0124C124.622 37.068 124.541 36.8959 124.421 36.8164C124.246 36.8508 124.067 36.872 123.894 36.9277C123.762 36.97 123.7 36.8535 123.613 36.7926C123.583 36.7714 123.551 36.7264 123.523 36.7317C123.205 36.7899 122.887 36.8535 122.572 36.925C122.495 36.9409 122.444 36.9197 122.38 36.8561C122.237 36.7131 122.23 36.7184 121.991 36.7714C121.887 36.7952 121.787 36.8164 121.697 36.7078C121.618 36.6098 121.522 36.586 121.409 36.6178C121.27 36.6575 121.128 36.6787 120.987 36.7052C120.846 36.7343 120.705 36.774 120.564 36.7873C120.451 36.8005 120.383 36.6761 120.293 36.6125C120.266 36.594 120.227 36.5913 120.195 36.5966C120.055 36.6204 119.91 36.6389 119.773 36.684C119.607 36.7396 119.515 36.5939 119.398 36.5092C119.372 36.4907 119.329 36.5012 119.297 36.5092C119.05 36.5569 118.804 36.6098 118.557 36.6601C118.47 36.5886 118.38 36.5198 118.293 36.4483C118.152 36.4748 118.011 36.5039 117.87 36.5304C117.763 36.5516 117.655 36.5595 117.554 36.5992C117.424 36.6522 117.36 36.5277 117.273 36.4668C117.243 36.4456 117.211 36.4006 117.183 36.4059C117.006 36.435 116.829 36.4668 116.654 36.5118C116.488 36.5569 116.422 36.3185 116.285 36.3211C116.144 36.3238 115.999 36.3582 115.863 36.4059C115.705 36.4615 115.594 36.3768 115.481 36.2629C115.458 36.239 115.417 36.2258 115.387 36.2311C115.21 36.2629 115.035 36.3026 114.858 36.3344C114.828 36.3397 114.792 36.3264 114.762 36.3106C114.425 36.1543 114.425 36.1516 114.278 36.1834C114.173 36.2046 114.067 36.2311 113.96 36.2443C113.93 36.2496 113.894 36.2258 113.866 36.2046C113.644 36.043 113.644 36.0404 113.484 36.0722C113.344 36.1013 113.203 36.1304 113.062 36.1596C112.974 36.0881 112.885 36.0192 112.797 35.9477C112.623 35.9821 112.443 36.0086 112.271 36.0563C112.189 36.0775 112.136 36.0695 112.074 36.0033C111.998 35.9239 111.921 35.8312 111.793 35.8762C111.656 35.9239 111.511 35.9292 111.372 35.9689C111.206 36.0166 111.138 35.7756 111.003 35.7782C110.863 35.7808 110.718 35.8153 110.581 35.8629C110.423 35.9186 110.312 35.8338 110.199 35.7199C110.176 35.6961 110.135 35.6829 110.105 35.6882C109.717 35.765 109.331 35.8417 108.943 35.9238C108.704 35.9742 108.704 35.9768 108.25 35.8312C108.218 35.8206 108.183 35.81 108.151 35.8153C108.011 35.8391 107.866 35.8576 107.729 35.9027C107.563 35.9583 107.471 35.8153 107.354 35.7279C107.328 35.7093 107.287 35.7199 107.253 35.7252C107.147 35.7437 107.042 35.7676 106.935 35.7888C106.795 35.8179 106.654 35.8471 106.513 35.8762C106.426 35.8073 106.336 35.7358 106.249 35.6669C106.074 35.7014 105.894 35.7199 105.722 35.7755C105.589 35.8179 105.528 35.7067 105.44 35.6431C105.41 35.6219 105.378 35.5769 105.351 35.5796C105.033 35.6378 104.715 35.6987 104.399 35.7729C104.269 35.8047 104.209 35.6855 104.122 35.6246C104.092 35.606 104.058 35.5716 104.03 35.5769C103.819 35.614 103.608 35.659 103.397 35.704C103.277 35.7305 103.277 35.7305 103.017 35.5663C102.987 35.5478 102.953 35.5292 102.923 35.5345C102.253 35.6669 101.585 35.8073 100.916 35.9398C100.847 35.953 100.786 35.9133 100.732 35.8418C100.677 35.7702 100.615 35.7332 100.547 35.7464C100.265 35.802 99.9813 35.8524 99.7019 35.9212C99.5867 35.9504 99.4949 35.9159 99.416 35.8232C99.3563 35.7543 99.3008 35.7279 99.2262 35.7438C99.0854 35.7755 98.9446 35.802 98.8038 35.8312C98.663 35.8603 98.5222 35.8894 98.3814 35.9186C98.2406 35.9477 98.0977 35.9636 97.9591 36.0086C97.7884 36.0642 97.7052 35.9 97.5879 35.8179C97.3767 35.8577 97.1655 35.8974 96.9564 35.9398C96.6748 35.9954 96.3933 36.0563 96.1117 36.1093C96.0861 36.1146 96.0541 36.0669 96.0242 36.043C95.9368 35.9768 95.8728 35.8841 95.7426 35.9133C95.1112 36.0536 94.4756 36.1728 93.842 36.3106C93.7097 36.3397 93.6521 36.2258 93.5625 36.1649C93.5327 36.1463 93.4986 36.1093 93.4708 36.1146C93.1189 36.1808 92.7669 36.2549 92.4149 36.3264C92.272 36.3556 92.272 36.3556 92.0331 36.1914C92.0053 36.1728 91.969 36.149 91.9392 36.1543C91.4805 36.2443 91.024 36.3397 90.5654 36.4324C90.4971 36.4456 90.4353 36.4085 90.3799 36.337C90.3265 36.2655 90.2625 36.2258 90.1964 36.239C89.774 36.3238 89.3495 36.4059 88.9293 36.4986C88.8162 36.5251 88.7223 36.5012 88.6413 36.4059C88.5837 36.337 88.5261 36.3079 88.4536 36.3238C87.82 36.4536 87.1864 36.5781 86.5529 36.7158C86.4313 36.7423 86.346 36.6919 86.2692 36.6045C86.2073 36.5357 86.154 36.5224 86.0772 36.533C85.9961 36.5463 85.9471 36.5754 85.9023 36.6548C85.8447 36.7581 85.8084 36.8879 85.6719 36.8959C85.5311 36.9038 85.3882 36.9356 85.2495 36.9806C85.1173 37.0257 85.0554 36.9065 84.9722 36.835C84.9103 36.7846 84.8528 36.7767 84.7738 36.8005C84.7013 36.8217 84.6565 36.8667 84.6139 36.9515C84.52 37.1316 84.5115 37.1316 84.3963 37.0177C84.3344 36.9568 84.2789 36.9091 84.2107 36.9197C83.9291 36.9727 83.6475 37.0309 83.3659 37.0919C83.2038 37.1263 83.2017 37.1316 83.0801 36.9992C83.0204 36.933 82.9628 36.9012 82.8924 36.917C82.118 37.076 81.3437 37.2296 80.5693 37.3964C80.4499 37.4229 80.3688 37.3673 80.2835 37.2878C80.2558 37.2614 80.228 37.2243 80.196 37.2137C80.164 37.2031 80.1278 37.2137 80.0937 37.219C79.5305 37.3329 78.9652 37.4415 78.4041 37.5686C78.2761 37.5977 78.2079 37.513 78.1205 37.4441C78.0906 37.4203 78.065 37.3832 78.033 37.3726C78.001 37.3647 77.9626 37.3832 77.9284 37.3911C77.3653 37.505 76.8 37.6136 76.239 37.7408C76.1046 37.7699 76.047 37.6587 75.9595 37.6004C75.9296 37.5792 75.8977 37.5394 75.8699 37.5447C75.6929 37.5739 75.518 37.6136 75.3409 37.648C74.9185 37.7354 74.4961 37.8176 74.0738 37.9076C73.9116 37.9421 73.8413 37.7063 73.7047 37.7169C73.5277 37.7301 73.3528 37.7831 73.1757 37.8202C73.0349 37.8493 72.8941 37.8758 72.7533 37.9076C72.6147 37.9368 72.6147 37.9367 72.2691 37.7831C72.2392 37.7699 72.203 37.7513 72.1731 37.7566C71.6804 37.8546 71.1855 37.9526 70.6948 38.0586C70.5818 38.0824 70.4879 38.0692 70.4068 37.9712C70.3492 37.9023 70.2895 37.8679 70.2191 37.8838C69.4789 38.0347 68.7408 38.1857 68.0006 38.334C67.9729 38.3393 67.9366 38.3128 67.9089 38.2916C67.8492 38.244 67.7915 38.1884 67.734 38.138C67.6913 38.199 67.6359 38.2546 67.6081 38.3234C67.5697 38.4161 67.5185 38.4426 67.4375 38.4585C67.3564 38.4744 67.3052 38.4691 67.2412 38.4002C67.1644 38.3155 67.0855 38.2493 66.9596 38.2757C66.1853 38.4426 65.4109 38.5936 64.6366 38.7578C64.5086 38.7843 64.4489 38.6677 64.3593 38.6068C64.3294 38.5883 64.2953 38.5592 64.2675 38.5645C63.9497 38.6254 63.634 38.6916 63.3161 38.7551C62.4351 38.9352 61.5542 39.1074 60.6753 39.2981C60.5153 39.3325 60.4065 39.2663 60.2934 39.1524C60.27 39.1286 60.2295 39.1153 60.1996 39.1206C58.9666 39.3696 57.7336 39.6212 56.5028 39.8728C56.4366 39.8861 56.3726 39.8437 56.3193 39.7748C56.2638 39.7033 56.202 39.6689 56.1337 39.6821C55.5706 39.796 55.0074 39.9099 54.4443 40.0264C54.3035 40.0556 54.3013 40.0582 54.1563 39.9311C54.1264 39.9046 54.0944 39.8543 54.071 39.8596C54.0219 39.8728 53.9749 39.939 53.9408 40.0291C53.9067 40.1244 53.8533 40.1509 53.7744 40.1694C53.6934 40.188 53.64 40.18 53.5782 40.1165C53.4993 40.037 53.4267 39.9602 53.2987 39.9867C51.6796 40.3257 50.0605 40.6515 48.4415 40.9878C48.3113 41.0143 48.2516 40.9031 48.162 40.8422C48.1321 40.8236 48.1023 40.7971 48.0703 40.7918C48.0362 40.7865 47.9999 40.8025 47.9658 40.8104C45.3249 41.348 42.684 41.8883 40.0432 42.426C39.8853 42.4578 39.8874 42.4578 39.7146 42.7015C39.6933 42.7306 39.6655 42.7703 39.6357 42.7756C38.8272 42.9451 38.0166 43.1093 37.206 43.2735C36.854 43.345 36.5021 43.4192 36.1501 43.4881C36.0242 43.5119 36.0242 43.5119 35.7235 43.7979C35.6979 43.8218 35.668 43.8536 35.6381 43.8589C34.2302 44.1475 32.8223 44.4362 31.4123 44.7196C31.3013 44.7408 31.2117 44.7885 31.1606 44.9156C31.1243 45.0057 31.0774 45.0586 31.007 45.0745C30.0214 45.2758 29.0359 45.4797 28.0483 45.6757C27.9309 45.6996 27.8605 45.7737 27.8029 45.885C27.7837 45.9221 27.7666 45.9644 27.7389 45.9909C27.7133 46.0147 27.6749 46.0227 27.6429 46.0306C26.7982 46.2028 25.9535 46.3803 25.1066 46.5445C24.9807 46.5683 24.9295 46.6663 24.8677 46.7696C24.8463 46.804 24.8314 46.8517 24.8037 46.8755C24.7759 46.8967 24.7354 46.8967 24.7013 46.902C23.9973 47.045 23.2934 47.1907 22.5894 47.3337C22.4529 47.3205 22.423 47.4741 22.3569 47.5668C22.3334 47.5986 22.3164 47.6409 22.2887 47.6621C22.2588 47.6833 22.2204 47.6807 22.1841 47.686C21.6209 47.7999 21.0578 47.9217 20.4925 48.0276C20.3624 48.0515 20.3368 48.1865 20.2664 48.2792C20.2429 48.3084 20.2195 48.3534 20.1917 48.3614C19.8398 48.4382 19.4878 48.5097 19.1358 48.5785C19.0185 48.6024 19.0185 48.5997 18.8116 48.8619C18.7881 48.8911 18.7604 48.9228 18.7305 48.9308C18.2036 49.042 17.6746 49.148 17.1456 49.2566C17.0773 49.2698 17.0304 49.3334 16.9962 49.4234C16.9621 49.5135 16.9131 49.5717 16.8448 49.585C16.4224 49.6724 16 49.7624 15.5776 49.8419C15.4603 49.8631 15.3835 49.9293 15.3323 50.0485C15.294 50.1385 15.247 50.1835 15.1724 50.1994C14.75 50.2842 14.3276 50.3769 13.9031 50.451C13.7794 50.4722 13.7154 50.5623 13.6642 50.6735C13.6237 50.7636 13.5767 50.7953 13.4978 50.8112C12.7234 50.9649 11.947 51.1184 11.1748 51.288C11.0447 51.3171 10.9785 51.2244 10.8932 51.1582C10.7716 51.0655 10.6586 50.9648 10.6586 50.7582C10.6586 50.7265 10.6223 50.6894 10.5967 50.6629C10.4068 50.4643 10.4068 50.4643 10.377 50.2524C10.3599 50.1226 10.3407 49.9902 10.3258 49.8578C10.298 49.6406 10.2298 49.585 10.0335 49.6247C9.96311 49.6379 9.89272 49.6565 9.82232 49.6671C9.71779 49.6856 9.63888 49.5982 9.61968 49.4393C9.60901 49.3519 9.59623 49.2645 9.58557 49.1771C9.69223 49.1559 9.69006 49.1533 9.87778 48.8328C9.95671 48.6977 9.95675 48.6977 9.80529 48.5626C9.74769 48.5123 9.69222 48.4567 9.63035 48.409C9.60262 48.3878 9.56637 48.3746 9.53651 48.3799C9.35945 48.4117 9.18454 48.4487 9.00962 48.4858C8.72804 48.5441 8.728 48.5441 8.44216 48.2739C8.41869 48.2527 8.38243 48.213 8.38669 48.1918C8.41016 48.0938 8.46775 48.0514 8.54028 48.0409C8.64693 48.025 8.75146 47.9985 8.85598 47.9773C8.92638 47.9641 8.99677 47.9482 9.06717 47.9349C9.13329 47.8343 9.20159 47.7363 9.26345 47.633C9.36158 47.4741 9.36154 47.4688 9.22715 47.3575C9.14183 47.2834 9.0501 47.2172 8.96264 47.1483C8.85812 47.1695 8.75146 47.1933 8.64693 47.2119C8.51468 47.2357 8.46134 47.1854 8.42721 47.0132C8.39735 46.8623 8.43361 46.7325 8.53601 46.7007C8.64053 46.6689 8.7387 46.6478 8.79203 46.5127C8.84322 46.3829 8.9328 46.3326 9.04373 46.322C9.11412 46.314 9.18452 46.2955 9.25491 46.2796C9.34664 46.2584 9.39572 46.1233 9.37652 45.9724C9.36585 45.8744 9.34451 45.7923 9.26132 45.7711C8.89228 45.6784 8.88799 45.681 8.70453 45.5009C8.68747 45.485 8.6747 45.4374 8.6811 45.4135C8.69176 45.3738 8.71524 45.3155 8.74083 45.3076C8.98615 45.2493 9.23146 45.1964 9.47677 45.1566C9.55783 45.1434 9.61757 45.1248 9.6453 45.0268C9.6837 44.8918 9.66663 44.7673 9.59197 44.6746C9.56851 44.6455 9.53008 44.6084 9.50448 44.611C9.2229 44.6587 8.94346 44.7196 8.66188 44.7673C8.63628 44.7726 8.58938 44.7276 8.57871 44.6931C8.55738 44.6296 8.58936 44.5448 8.66402 44.5157C8.76214 44.476 8.8624 44.4733 8.92853 44.3409C9.02026 44.1528 9.1333 43.9807 9.23569 43.8006C9.25276 43.7688 9.28053 43.7079 9.27413 43.7026C9.2208 43.6443 9.15893 43.5993 9.10347 43.5437C9.0096 43.451 9.00959 43.3212 9.03092 43.1967C9.04798 43.0961 9.11198 43.0563 9.19091 43.0563C9.22504 43.0563 9.2677 43.0564 9.29543 43.0325C9.36796 42.9742 9.39143 42.9001 9.35517 42.8444C9.33383 42.8127 9.29546 42.7677 9.26986 42.773C8.81336 42.8604 8.35469 42.9451 7.90032 43.0537C7.76593 43.0855 7.70411 42.9848 7.62305 42.9133C7.56119 42.8577 7.50355 42.8365 7.42676 42.8762C7.35423 42.9133 7.28386 42.8921 7.23907 42.8047C7.2028 42.7332 7.26678 42.6723 7.43957 42.6035C7.47157 42.5902 7.50782 42.5823 7.53128 42.5558C7.77873 42.2697 7.77873 42.2671 7.94938 42.23C8.11577 42.1956 8.11581 42.1929 8.20327 42.0393C8.2438 41.9678 8.28856 41.8963 8.32696 41.8221C8.34189 41.793 8.36752 41.74 8.35899 41.7241C8.31206 41.642 8.24804 41.6235 8.17337 41.642C8.00699 41.6871 7.81076 41.65 7.7233 41.9016C7.68917 41.9969 7.63584 42.0234 7.55904 42.0393C6.78683 42.1929 6.01459 42.3571 5.24025 42.5055C5.11439 42.5293 5.05683 42.6273 5.00776 42.7359C4.9651 42.8259 4.91816 42.8524 4.8371 42.8683C4.75604 42.8842 4.69201 42.8921 4.64508 42.8047C4.61735 42.7518 4.64082 42.6776 4.70482 42.6035C4.79654 42.4975 4.77947 42.3651 4.74961 42.2406C4.72827 42.1585 4.66215 42.1002 4.59175 42.1055C4.48723 42.1161 4.38699 42.1453 4.29953 42.0393C4.24834 41.9784 4.18433 41.936 4.12673 41.883C4.01581 41.7744 3.90488 41.6632 3.74916 41.7347C3.6425 41.7082 3.56784 41.6129 3.48251 41.5387C3.33958 41.4169 3.32679 41.3984 3.42918 41.2686C3.54437 41.1229 3.45476 40.9322 3.51876 40.7892C3.58702 40.6356 3.68091 40.5005 3.7641 40.3575C3.78543 40.3204 3.80464 40.286 3.82597 40.2489C3.77691 40.1959 3.73212 40.1297 3.67453 40.0927C3.59986 40.045 3.56147 39.9867 3.56573 39.8225C3.5508 39.7987 3.55715 39.8596 3.57422 39.8755C3.59342 39.8913 3.64038 39.8781 3.66385 39.8596C3.72358 39.8093 3.75341 39.743 3.73848 39.6874C3.72995 39.6583 3.68945 39.6212 3.66385 39.6212C3.61692 39.6212 3.5764 39.6795 3.5636 39.8225C3.32468 39.9311 3.07719 39.9841 2.82974 40.0264C2.80414 40.0317 2.77216 39.9788 2.7423 39.9523C2.64417 39.8622 2.64416 39.8649 2.35618 39.8384C2.32632 39.8357 2.28581 39.7987 2.27088 39.7616C2.20901 39.6 2.21116 39.4226 2.1813 39.2504C2.23676 39.1392 2.29218 39.0306 2.34978 38.922C2.46497 38.7022 2.61432 38.5088 2.70392 38.2678C2.68472 38.138 2.65912 38.0083 2.75298 37.9023C3.01962 37.7699 3.01751 37.7699 3.09004 37.6428C3.29695 37.2826 3.50173 36.9197 3.71718 36.5648C3.77478 36.4721 3.77478 36.4218 3.67239 36.3821C3.64039 36.3715 3.60622 36.3688 3.57209 36.3741C3.46543 36.3927 3.35877 36.4403 3.25424 36.4297C3.14972 36.4218 3.07292 36.3052 2.9876 36.2337C2.90013 36.1596 2.81268 36.0828 2.72522 36.006C2.62496 36.0139 2.52472 36.0881 2.42446 35.9689C2.34766 35.8762 2.25168 35.81 2.16422 35.7332C2.23034 35.5319 2.35409 35.3783 2.45008 35.2008C2.53754 35.0392 2.53963 35.0419 2.77428 34.9174C2.8852 34.8592 2.9236 34.5599 2.82974 34.4725C2.71668 34.3665 2.59725 34.2685 2.48206 34.1679C2.3818 34.1758 2.27943 34.2474 2.18343 34.1282C2.10877 34.0381 2.02343 33.9772 1.8997 34.0116C1.69065 34.0699 1.47734 34.099 1.26615 34.1467C1.19363 34.1626 1.11468 34.152 1.08268 34.062C1.06135 33.9984 1.12321 33.911 1.19361 33.8924C1.30027 33.866 1.39625 33.8342 1.44958 33.7018C1.50078 33.5693 1.59462 33.5296 1.70555 33.511C1.73541 33.5057 1.76957 33.474 1.7845 33.4422C1.8613 33.2886 1.94663 33.1562 2.11089 33.1615C2.17915 33.1085 2.21539 33.0423 2.19406 32.9787C2.18126 32.9443 2.13648 32.8993 2.11089 32.9046C1.93383 32.931 1.75678 32.9575 1.584 33.0052C1.50294 33.0264 1.44104 33.0317 1.38984 32.9522C1.35358 32.8992 1.37278 32.8277 1.44104 32.7509C1.50077 32.6847 1.51785 32.6079 1.51358 32.5178C1.50292 32.3086 1.43891 32.2477 1.23413 32.2609C1.08694 32.2715 1.05067 32.2371 1.01867 32.057C1.01014 32.0146 0.988845 31.9564 1.00378 31.9272C1.0955 31.7471 1.15524 31.5247 1.32803 31.4399C1.39629 31.4081 1.46879 31.4081 1.51145 31.3393C1.55411 31.2704 1.59253 31.1909 1.63733 31.1247C1.69279 31.0453 1.73115 30.9711 1.70555 30.9208C1.66289 30.8308 1.59465 30.8228 1.51572 30.8546C1.44746 30.8811 1.37493 30.8837 1.30454 30.8996C1.17868 30.9287 1.07631 30.8599 1.06138 30.7433C1.02085 30.4361 0.978171 30.1315 0.941907 29.8243C0.93764 29.7872 0.948277 29.7395 0.965342 29.7078C1.02507 29.5965 1.08909 29.4906 1.15095 29.382C1.22348 29.2575 1.33869 29.2814 1.43682 29.2575C1.57548 29.2231 1.57543 29.2257 1.76102 28.9715C1.83354 28.8708 1.95941 28.9106 2.03407 28.8205C2.05753 28.7914 2.0938 28.7437 2.0874 28.7172C2.07887 28.6828 2.03622 28.6563 2.00423 28.6404C1.97436 28.6245 1.93811 28.6166 1.90611 28.6245C1.51787 28.7013 1.13177 28.7834 0.743535 28.8576C0.677407 28.8708 0.604876 28.8126 0.581411 28.7305C0.557946 28.6537 0.564325 28.5609 0.560059 28.4735C0.621921 28.365 0.692289 28.2643 0.745618 28.1478C0.786149 28.0577 0.833087 28.018 0.914148 28.0127C1.02081 28.0048 1.12534 27.973 1.2448 27.9491C1.46665 27.5625 1.68422 27.1572 1.92314 26.7706C2.01913 26.6143 1.99571 26.4554 2.0149 26.2885C2.0341 26.1349 2.17702 26.1588 2.27301 26.1137C2.3498 26.0766 2.37537 25.9919 2.34551 25.9336C2.32844 25.8992 2.29006 25.8594 2.2602 25.8594C2.1898 25.8594 2.11941 25.8833 2.04902 25.8965C1.97862 25.9098 1.89756 25.9018 1.83997 25.9469C1.78451 25.9892 1.74822 26.0793 1.71196 26.1561C1.67143 26.2408 1.61813 26.27 1.53707 26.2753C1.43255 26.2806 1.32803 26.3044 1.2235 26.3229C1.10831 26.2196 0.988826 26.119 0.877901 26.0104C0.856569 25.9892 0.85228 25.9283 0.854413 25.8886C0.858679 25.7853 0.82669 25.7217 0.756295 25.6714C0.696566 25.629 0.647498 25.5681 0.592035 25.5152C0.634699 25.4436 0.681646 25.3748 0.715777 25.298C0.790438 25.1364 0.884309 25.0199 1.04643 25.0252C1.11043 24.9219 1.16161 24.7948 1.2448 24.7233C1.32373 24.6544 1.45813 24.7232 1.51786 24.567C1.54772 24.4902 1.59254 24.4028 1.65014 24.371C1.74186 24.3207 1.86132 24.3472 1.91465 24.1988C1.94665 24.1141 1.99356 24.0373 2.05542 24.0161C2.12582 23.9922 2.19833 23.987 2.24952 23.9366C2.27725 23.9102 2.30712 23.8678 2.30712 23.8307C2.30712 23.8069 2.26449 23.7698 2.23463 23.7539C2.2069 23.7353 2.17059 23.7221 2.13859 23.7274C2.03193 23.7433 1.92741 23.7724 1.82075 23.7883C1.79089 23.7936 1.75677 23.7751 1.72477 23.7592C1.63091 23.7168 1.63729 23.6638 1.71196 23.5685C1.78662 23.4758 1.83998 23.3566 1.90184 23.248C1.9701 23.2295 2.05542 23.2374 2.10235 23.1871C2.18127 23.105 2.23672 22.9858 2.30072 22.8825C2.37111 22.8666 2.44364 22.8613 2.50976 22.8322C2.5375 22.8216 2.55031 22.7633 2.57377 22.7289C2.61643 22.6627 2.65273 22.5673 2.71032 22.5356C2.80418 22.4879 2.91937 22.5064 2.97484 22.3608C3.00683 22.276 3.05588 22.186 3.11561 22.1807C3.282 22.1701 3.35239 22.0244 3.43772 21.8867C3.50172 21.7834 3.63824 21.8363 3.70864 21.7331C3.75557 21.6668 3.78972 21.5847 3.83665 21.5212C3.85585 21.4947 3.89636 21.4814 3.92836 21.4735C4.10328 21.4338 4.28033 21.4046 4.45525 21.3623C4.48298 21.3543 4.5086 21.3146 4.52993 21.2828C4.57473 21.214 4.60243 21.1186 4.65789 21.0736C4.71336 21.0285 4.79227 21.0286 4.86054 21.0153C5.08025 20.9756 5.09734 20.9862 5.1976 20.761C5.27866 20.5783 5.47707 20.7081 5.5432 20.5068C5.58159 20.3902 5.65196 20.2949 5.77781 20.2817C5.95487 20.2631 6.12979 20.2128 6.30684 20.1784C6.46469 20.1466 6.46257 20.1466 6.63322 19.9003C6.71002 19.789 6.8231 19.8049 6.92336 19.7837C7.03002 19.7626 7.12813 19.7308 7.17933 19.5984C7.23053 19.4686 7.32437 19.4262 7.43317 19.4076C7.53343 19.3891 7.64651 19.4024 7.72544 19.2964C7.91742 19.0422 7.91529 19.0395 8.04969 19.013C8.26087 18.9706 8.47205 18.9283 8.68323 18.8832C8.82402 18.8541 8.97121 18.8488 9.10347 18.7905C9.19946 18.7482 9.24211 18.5999 9.30397 18.4966C9.47889 18.4568 9.6538 18.4171 9.82873 18.38C10.074 18.327 10.3215 18.2794 10.5689 18.2291C10.6756 18.1284 10.6906 17.9059 10.8697 17.8953C10.9764 17.89 11.0809 17.8556 11.1876 17.8344C11.3646 17.7974 11.5396 17.7497 11.7166 17.7311C11.851 17.7179 11.8744 17.5749 11.9448 17.4848C11.9683 17.453 11.9896 17.408 12.0174 17.4001C12.2947 17.3259 12.5805 17.31 12.8514 17.2014C12.8792 17.1908 12.9048 17.1352 12.9112 17.0955C12.9154 17.0743 12.8792 17.0346 12.8557 17.016C12.828 16.9949 12.7917 16.9737 12.7619 16.979C11.8808 17.1564 10.9999 17.3365 10.1189 17.514C9.99514 17.5405 9.99514 17.5378 9.69436 17.8291C9.66876 17.853 9.63886 17.8794 9.60687 17.8874C9.46608 17.9192 9.32316 17.9377 9.1845 17.9775C9.07144 18.0092 8.97761 17.9774 8.89655 17.8821C8.83896 17.8132 8.7792 17.7921 8.70667 17.7973C8.62561 17.8053 8.57231 17.8344 8.52538 17.9059C8.46352 18.0039 8.43151 18.1311 8.30139 18.1575C7.70196 18.2714 7.1025 18.3986 6.50521 18.5204C6.42202 18.4833 6.38149 18.4277 6.40282 18.3615C6.41562 18.3218 6.44123 18.2688 6.46683 18.2635C6.71214 18.2079 6.95959 18.1602 7.2049 18.1072C7.23903 18.0993 7.28596 18.1046 7.30515 18.0781C7.39901 17.9589 7.43318 17.7656 7.61024 17.7523C7.71263 17.7444 7.81714 17.7047 7.91527 17.6676C7.943 17.657 7.9686 17.6014 7.975 17.5616C7.97714 17.5404 7.943 17.5007 7.9174 17.4822C7.82354 17.4053 7.71477 17.4981 7.62091 17.4451C7.58892 17.4266 7.54409 17.4001 7.53769 17.3683C7.53342 17.3392 7.56969 17.2915 7.59529 17.2623C7.61876 17.2359 7.65073 17.212 7.68273 17.2041C7.96431 17.1432 8.24594 17.0796 8.52752 17.0319C8.64271 17.0134 8.72375 16.9472 8.77495 16.8253C8.81334 16.7353 8.86027 16.6876 8.9328 16.6744C9.42556 16.5764 9.91832 16.4678 10.4132 16.3777C10.5369 16.3566 10.601 16.2692 10.6522 16.1553C10.6927 16.0652 10.7396 16.0334 10.8186 16.0175C11.5246 15.8798 12.2264 15.7262 12.9325 15.5938C13.0626 15.57 13.1011 15.4561 13.1672 15.3581C13.1907 15.3236 13.2055 15.2813 13.2354 15.2601C13.2653 15.2389 13.3037 15.2415 13.3399 15.2362C13.9031 15.1223 14.4663 15.0005 15.0316 14.8946C15.1638 14.8707 15.1894 14.7383 15.2577 14.6456C15.2811 14.6165 15.3025 14.5688 15.3302 14.5609C15.7526 14.4708 16.1749 14.3861 16.5973 14.2987C16.8789 14.2404 17.1605 14.1821 17.442 14.1265C17.5807 14.1 17.5807 14.0973 17.7684 13.8457C17.7898 13.8166 17.8196 13.7822 17.8474 13.7742C18.658 13.6047 19.4664 13.4432 20.2771 13.2763C20.3453 13.2631 20.3944 13.2021 20.4285 13.1121C20.4626 13.022 20.5117 12.9611 20.5779 12.9479C21.2114 12.8155 21.845 12.6857 22.4806 12.5612C22.5958 12.54 22.6769 12.4764 22.7281 12.3573C22.7665 12.2672 22.8134 12.2196 22.8859 12.2063C23.5195 12.0792 24.1531 11.9441 24.7888 11.8223C24.9104 11.7984 24.9701 11.7084 25.0298 11.6024C25.0511 11.5654 25.0682 11.5044 25.0938 11.4991C25.4095 11.425 25.7231 11.3482 26.0409 11.2979C26.1732 11.2767 26.218 11.1654 26.2713 11.0595C26.314 10.9747 26.3631 10.9456 26.4441 10.935C26.6212 10.9112 26.7961 10.8662 26.9689 10.8211C26.9945 10.8132 27.0265 10.7549 27.0286 10.7178C27.0329 10.649 26.9838 10.6013 26.9027 10.5775C26.058 10.7496 25.2111 10.9218 24.3664 11.0939C24.2277 11.123 24.2277 11.1231 24.04 11.3747C24.0187 11.4038 23.9888 11.4382 23.9589 11.4462C23.1483 11.613 22.3399 11.7773 21.5293 11.9441C21.461 11.9574 21.4119 12.0183 21.3778 12.1083C21.3437 12.1984 21.2946 12.2593 21.2284 12.2725C20.4541 12.4314 19.6798 12.593 18.9033 12.744C18.7881 12.7652 18.7071 12.826 18.6559 12.9479C18.6175 13.0379 18.5705 13.0856 18.498 13.0989C17.7578 13.2472 17.0197 13.4034 16.2773 13.5465C16.2027 13.5597 16.1472 13.4829 16.1515 13.4114C16.1536 13.3743 16.1856 13.3134 16.2112 13.3081C16.5973 13.2207 16.9813 13.1306 17.3695 13.0644C17.4997 13.0432 17.538 12.9267 17.6042 12.8287C17.6255 12.7943 17.6426 12.7493 17.6703 12.7307C17.7002 12.7095 17.7386 12.7122 17.7748 12.7069C18.69 12.5188 19.6051 12.3282 20.5224 12.1507C20.6547 12.1242 20.6802 11.9944 20.7485 11.9017C20.7719 11.8699 20.7933 11.8223 20.821 11.817C21.1026 11.7534 21.3842 11.6978 21.6658 11.6422C22.1585 11.5415 22.6513 11.4409 23.1462 11.3402C23.2891 11.3111 23.2891 11.3111 23.4726 11.0621C23.4939 11.033 23.5238 10.9959 23.5515 10.9906C24.8549 10.7231 26.1583 10.4556 27.4616 10.1908C27.5299 10.1775 27.579 10.1166 27.6131 10.0266C27.6472 9.93918 27.6963 9.87561 27.7624 9.85972C29.5244 9.49952 31.2843 9.13931 33.0463 8.78441C33.1615 8.76057 33.2425 8.70494 33.2937 8.58046C33.33 8.49041 33.3791 8.44275 33.4516 8.42686C35.3885 8.03223 37.3254 7.63761 39.2645 7.24033C40.5679 6.97547 41.8713 6.70532 43.1746 6.44577C43.2941 6.42193 43.3581 6.33981 43.4178 6.23122C43.437 6.19414 43.4562 6.13322 43.4818 6.12793C43.7613 6.06171 44.0407 6.00081 44.3201 5.93989C44.4076 6.0114 44.4951 6.08028 44.5825 6.15179C44.6486 6.05114 44.7127 5.94784 44.7788 5.8472C45.2012 5.77039 45.6171 5.65121 46.0438 5.61413C46.0715 5.61148 46.1013 5.66181 46.1312 5.68829C46.3296 5.85515 46.4427 5.84191 46.5685 5.61943C46.6133 5.53997 46.6517 5.46846 46.72 5.45522C46.9312 5.40755 47.1445 5.37576 47.3536 5.32014C47.4666 5.29101 47.5605 5.31749 47.6415 5.41284C47.6991 5.4817 47.7589 5.51085 47.8293 5.49496C48.2175 5.4155 48.6036 5.33868 48.9918 5.25393C49.0196 5.24863 49.0451 5.20359 49.0665 5.17181C49.1113 5.10295 49.1497 5.02881 49.1923 4.9573C49.2499 5.00232 49.3139 5.03676 49.3609 5.09503C49.4206 5.16389 49.4761 5.16387 49.5571 5.14533C51.1058 4.82486 52.6566 4.51234 54.2053 4.18922C54.3376 4.16273 54.3952 4.27398 54.4848 4.33225C54.5146 4.35344 54.5445 4.37991 54.5765 4.38521C54.6106 4.3905 54.6469 4.37463 54.681 4.36668C55.8436 4.12831 57.0062 3.89258 58.1688 3.65421C58.3224 3.62243 58.3224 3.62243 58.5506 3.78664C58.5784 3.80783 58.6146 3.83167 58.6445 3.82372C59.1735 3.72043 59.7025 3.6092 60.2294 3.50326C60.2977 3.49002 60.3553 3.53238 60.4172 3.5933C60.5388 3.71248 60.5473 3.71249 60.6369 3.53769C60.6795 3.45559 60.7243 3.40524 60.7947 3.38141C60.8715 3.35492 60.9334 3.36289 60.9931 3.41057C61.0785 3.47678 61.1403 3.588 61.2705 3.55887C61.8336 3.43439 62.3989 3.3311 62.9599 3.20397C63.0879 3.17484 63.1562 3.26489 63.2415 3.3311C63.2714 3.35494 63.2991 3.39202 63.3311 3.39996C63.3631 3.40791 63.4015 3.38935 63.4356 3.38141C64.1396 3.23838 64.8456 3.09804 65.5474 2.94442C65.6797 2.91529 65.7373 3.02916 65.8269 3.08742C65.8568 3.10861 65.8909 3.14571 65.9186 3.14041C66.341 3.05831 66.7655 2.97088 67.1879 2.88348C67.3394 2.8517 67.3393 2.85435 67.5697 3.01591C67.5974 3.0371 67.6337 3.05829 67.6636 3.05299C68.1564 2.955 68.6512 2.85435 69.144 2.75371C69.2955 2.72192 69.2955 2.72193 69.7328 2.85965C69.7648 2.87025 69.7989 2.88616 69.8309 2.88086C70.3941 2.76698 70.9593 2.65572 71.5225 2.53389C71.6355 2.51005 71.7294 2.53123 71.8105 2.62658C71.8681 2.69544 71.9278 2.72459 71.9982 2.7087C72.6317 2.57892 73.2675 2.45445 73.8989 2.31672C74.0205 2.29024 74.0994 2.34848 74.1847 2.42529C74.2124 2.45178 74.2402 2.48886 74.2722 2.49946C74.3042 2.51005 74.3404 2.49945 74.3746 2.4915C75.0081 2.36173 75.6438 2.2399 76.2752 2.09953C76.4032 2.07039 76.4715 2.16044 76.5568 2.22665C76.5867 2.25049 76.6187 2.29816 76.6443 2.29552C76.8917 2.25049 77.1392 2.21078 77.3845 2.14456C77.5167 2.10748 77.5743 2.2293 77.6639 2.28756C77.6938 2.3061 77.7279 2.34585 77.7556 2.34055C78.2847 2.23726 78.8137 2.12868 79.3406 2.01744C79.4153 2.00155 79.4707 2.02536 79.5305 2.09423C79.6094 2.18692 79.7011 2.224 79.8163 2.19487C80.0616 2.13395 80.3091 2.09159 80.5565 2.04127C80.7016 2.01213 80.7016 2.01214 81.1453 2.14987C81.1773 2.16046 81.2114 2.17634 81.2434 2.17104C81.6658 2.08629 82.0903 2.00419 82.5105 1.91149C82.6236 1.88501 82.7175 1.90884 82.7985 2.00418C82.8561 2.07305 82.9137 2.1022 82.9862 2.0863C83.3744 2.00685 83.7606 1.92739 84.1488 1.84793C84.2896 1.8188 84.4304 1.76846 84.5712 1.76846C84.6736 1.77111 84.7483 1.89823 84.84 1.9618C84.8656 1.98034 84.9082 1.95918 84.9424 1.95388C85.4351 1.85323 85.93 1.76053 86.4207 1.64664C86.5486 1.61751 86.6169 1.70755 86.7022 1.77376C86.7321 1.7976 86.7641 1.84528 86.7897 1.84263C86.9667 1.81349 87.1417 1.77376 87.3187 1.73933C87.5299 1.69696 87.7432 1.66517 87.9523 1.60691C88.1229 1.55923 88.1869 1.78965 88.3234 1.79759C88.428 1.80554 88.5346 1.76052 88.6391 1.73933C88.8503 1.69696 89.0615 1.64929 89.2727 1.61221C89.3474 1.59897 89.405 1.55657 89.4285 1.46122C89.4327 1.44268 89.3965 1.40297 89.373 1.37914C89.0893 1.10899 89.0892 1.10897 88.8034 1.16724C88.6263 1.20432 88.4514 1.24141 88.2744 1.27319C88.2445 1.27849 88.2104 1.2573 88.1805 1.24141C88.0952 1.19638 88.1037 1.14342 88.1763 1.04807C88.2488 0.952723 88.3042 0.836199 88.3661 0.727609C88.4535 0.796471 88.5389 0.865308 88.6264 0.93417C88.6968 0.920927 88.7672 0.905059 88.8376 0.891816C89.1895 0.822955 89.5415 0.751439 89.8935 0.687875C89.9191 0.682578 89.9511 0.735556 89.9809 0.762041C90.0662 0.838848 90.1431 0.905043 90.2668 0.87591C90.5825 0.799102 90.9003 0.743483 91.216 0.67727C91.3547 0.648136 91.3547 0.648139 91.5979 0.812348C91.6256 0.830887 91.6619 0.852077 91.6917 0.84678C92.0096 0.785864 92.3253 0.719658 92.6431 0.656094C92.7114 0.642851 92.7775 0.677281 92.8266 0.754088C92.8458 0.78587 92.8415 0.83883 92.9226 1.27319C93.1743 1.62544 93.3471 1.58838 93.522 1.5566C93.5967 1.54336 93.6628 1.5301 93.7119 1.47713C93.7374 1.448 93.7695 1.40561 93.7695 1.37118C93.7695 1.3447 93.7226 1.30231 93.6927 1.29702C93.4815 1.24405 93.281 1.3553 93.074 1.37914C92.978 1.38973 92.8949 1.29703 92.8778 1.14606C92.8735 1.10369 92.8671 1.05867 92.8607 1.01629C92.8543 0.973913 92.8501 0.928891 92.8437 0.886514C92.7605 0.873271 92.7114 0.920937 92.6752 1.01099C92.6453 1.08515 92.6026 1.1699 92.545 1.20963C92.4874 1.252 92.4085 1.24407 92.3381 1.25731C92.2698 1.27056 92.1952 1.30498 92.1312 1.28644C92.0672 1.26526 92.016 1.18844 91.9563 1.14076C91.9285 1.11693 91.8944 1.08251 91.8667 1.0878C91.6214 1.13283 91.3782 1.17784 91.135 1.23611C91.007 1.26789 90.943 1.15667 90.862 1.0878C90.798 1.03483 90.7339 1.04806 90.7233 1.16989C90.6955 1.46123 90.7937 1.58306 91.0113 1.52744C91.1905 1.47976 91.3526 1.47184 91.4934 1.65194C91.5126 1.67578 91.5574 1.68637 91.5851 1.68107C91.76 1.64929 91.9328 1.60956 92.1077 1.57778C92.1397 1.57248 92.1739 1.58306 92.2037 1.59365C92.6389 1.73667 92.6389 1.73933 92.7861 1.70755C92.8565 1.69166 92.9247 1.67842 92.9183 1.27584C93.0527 0.84413 93.266 0.815001 93.473 0.751437C93.6074 0.711709 93.6649 0.828249 93.7524 0.889165C93.7822 0.910353 93.8143 0.952722 93.842 0.947425C94.3006 0.860024 94.7571 0.767312 95.2136 0.669317C95.2904 0.653426 95.3459 0.669319 95.4056 0.738181C95.4824 0.825583 95.5677 0.881213 95.6893 0.849431C95.9325 0.785866 96.1799 0.746147 96.4274 0.693177C96.5533 0.666692 96.5533 0.666664 96.8071 0.830873C96.8348 0.849413 96.8711 0.870602 96.901 0.865305C97.1484 0.82028 97.3938 0.764678 97.6391 0.717005C97.7073 0.703762 97.7692 0.740837 97.8225 0.812348C97.8758 0.883858 97.9398 0.920933 98.006 0.907691C98.2534 0.860017 98.4987 0.807064 98.744 0.75939C98.7739 0.754093 98.8102 0.772631 98.8379 0.791171C99.0981 0.95538 99.0982 0.955353 99.2176 0.928867C99.3925 0.889139 99.5717 0.87062 99.7445 0.81765C99.913 0.764679 100 0.918281 100.116 1.00303C100.431 0.942118 100.749 0.891809 101.063 0.81765C101.191 0.785868 101.259 0.873261 101.344 0.942123C101.374 0.96596 101.404 1.01629 101.432 1.01364C101.538 1.00304 101.643 0.973915 101.748 0.952727C101.852 0.931539 101.959 0.910353 102.063 0.889165C102.183 0.965973 102.262 1.14607 102.432 1.08515C102.535 1.04807 102.644 1.04013 102.748 1.01894C102.853 0.997752 102.959 0.976567 103.064 0.955378C103.134 0.942136 103.207 0.934179 103.275 0.910342C103.401 0.870614 103.463 1.00041 103.552 1.05867C103.582 1.07721 103.616 1.10898 103.644 1.10368C103.855 1.0666 104.068 1.03482 104.275 0.973904C104.435 0.92623 104.544 1.0057 104.657 1.11693C104.681 1.14077 104.721 1.15401 104.751 1.14872C104.999 1.10369 105.244 1.04806 105.489 1.00038C105.555 0.98714 105.619 1.02952 105.673 1.09838C105.728 1.16989 105.79 1.20434 105.858 1.1911C106.104 1.14343 106.351 1.09044 106.596 1.04277C106.626 1.03747 106.662 1.05866 106.69 1.07985C106.929 1.24406 106.929 1.24671 107.07 1.21493C107.104 1.20698 107.14 1.20167 107.174 1.19372C107.349 1.15664 107.531 1.14342 107.701 1.07985C107.898 1.00834 108.04 1.09839 108.179 1.24936C108.354 1.21758 108.533 1.19904 108.704 1.14606C108.832 1.10634 108.9 1.20698 108.985 1.27319C109.015 1.29703 109.047 1.3447 109.073 1.3394C109.32 1.29438 109.568 1.25466 109.811 1.18845C109.943 1.15137 110.001 1.27053 110.09 1.33145C110.12 1.35264 110.152 1.38974 110.18 1.38444C110.321 1.36325 110.462 1.33145 110.602 1.30232C110.767 1.26789 110.767 1.27053 110.984 1.43209C111.087 1.5089 111.189 1.44798 111.289 1.42944C111.396 1.40825 111.496 1.39237 111.582 1.50096C111.635 1.56982 111.699 1.6122 111.765 1.6016C111.906 1.57777 112.049 1.55394 112.187 1.51421C112.298 1.48243 112.394 1.50361 112.475 1.6016C112.533 1.67046 112.593 1.70492 112.663 1.68903C112.979 1.62546 113.297 1.55922 113.612 1.49831C113.64 1.49301 113.678 1.51686 113.704 1.54069C113.764 1.58837 113.821 1.64132 113.879 1.6943C114.018 1.67046 114.161 1.65989 114.297 1.62281C114.442 1.58573 114.574 1.57249 114.687 1.71816C114.711 1.74994 114.745 1.79494 114.773 1.79229C114.879 1.7817 114.984 1.75522 115.088 1.73403C115.193 1.71284 115.3 1.69166 115.404 1.67047C115.526 1.73668 115.603 1.92737 115.773 1.86646C115.876 1.82938 115.984 1.82143 116.089 1.80024C116.193 1.77905 116.3 1.75522 116.405 1.73668C116.439 1.73138 116.477 1.71813 116.507 1.72873C116.539 1.73932 116.567 1.77641 116.595 1.80289C116.68 1.8797 116.759 1.95652 116.88 1.91149C116.983 1.87441 117.092 1.86647 117.196 1.84263C117.339 1.81349 117.339 1.8135 117.576 1.98036C117.672 2.04922 117.781 1.95917 117.872 2.01744C117.934 2.05717 117.987 2.12337 118.047 2.16839C118.073 2.18693 118.113 2.19487 118.143 2.18957C118.284 2.16573 118.427 2.14191 118.566 2.10218C118.679 2.0704 118.772 2.10217 118.851 2.19752C118.909 2.26638 118.967 2.29553 119.039 2.27964C119.391 2.20548 119.743 2.1419 120.093 2.05979C120.212 2.03066 120.308 2.0757 120.374 2.17104C120.488 2.33525 120.648 2.14191 120.765 2.27434C120.837 2.35644 120.91 2.4518 121.042 2.41207C121.285 2.34321 121.533 2.30611 121.778 2.25843C121.866 2.32994 121.953 2.40147 122.043 2.47298C122.183 2.44385 122.324 2.41469 122.465 2.38821C122.57 2.36702 122.676 2.34319 122.781 2.32465C122.815 2.31935 122.851 2.30875 122.883 2.32199C122.915 2.33524 122.941 2.36968 122.971 2.39616C123.118 2.52594 123.118 2.5286 123.361 2.47563C123.465 2.45179 123.566 2.4359 123.653 2.54184C123.734 2.63984 123.83 2.65837 123.941 2.62923C124.15 2.57626 124.361 2.53654 124.575 2.49946C124.641 2.48622 124.703 2.53124 124.758 2.6001C124.841 2.70869 124.944 2.6981 125.048 2.66897C125.187 2.63189 125.323 2.59482 125.441 2.74313C125.464 2.77492 125.501 2.81992 125.526 2.81727C125.701 2.79608 125.878 2.7802 126.049 2.72988C126.219 2.67956 126.303 2.84376 126.42 2.92322C126.595 2.88878 126.772 2.85435 126.947 2.81992C126.981 2.81197 127.022 2.78815 127.051 2.80139C127.177 2.85701 127.25 3.05565 127.423 2.99473C127.523 2.9603 127.632 2.94972 127.736 2.94177C127.764 2.93912 127.8 2.98413 127.819 3.01856C127.83 3.0371 127.819 3.08742 127.807 3.1139C127.768 3.18806 127.721 3.25694 127.687 3.33375C127.683 3.34434 127.723 3.392 127.747 3.41319C127.804 3.46086 127.871 3.45293 127.947 3.43174C128.013 3.4132 128.082 3.45028 128.129 3.52974C128.148 3.56152 128.141 3.61449 128.101 3.78929C128.101 3.91907 128.146 3.86079 128.161 3.77603C128.184 3.6542 128.139 3.61448 128.054 3.68069C127.994 3.72836 127.964 3.79723 127.979 3.85285C127.988 3.88198 128.028 3.91907 128.101 3.78929C128.289 3.63038 128.429 3.60126 128.57 3.57212C128.606 3.56418 128.649 3.53767 128.675 3.55357C128.766 3.61713 128.852 3.69395 128.941 3.76546C129.044 3.74957 129.14 3.70982 129.24 3.81312C129.381 3.95879 129.387 3.94555 129.524 3.91641C129.594 3.90052 129.665 3.8873 129.735 3.87406C129.805 3.86082 129.861 3.90053 129.923 3.96145C130.048 4.08593 130.059 4.08592 130.142 3.91641C130.191 3.81312 130.226 3.7787 130.287 3.82637C130.492 3.98793 130.494 3.99852 130.669 3.95085C130.814 3.91112 130.951 3.90052 131.057 4.05149C131.13 4.15743 131.153 4.1336 131.211 4.02236C131.365 3.72837 131.435 3.73366 131.723 3.94554C131.857 4.04619 131.996 3.93761 132.133 3.92437C132.248 3.91377 132.329 3.97733 132.337 4.14418C132.344 4.24747 132.363 4.32165 132.44 4.35608C132.47 4.36932 132.506 4.38785 132.536 4.38256C132.713 4.35077 132.888 4.31369 133.065 4.27661C133.154 4.25807 133.203 4.13361 133.186 3.9694C133.167 3.7946 133.201 3.73101 133.329 3.68069C133.406 3.65156 133.468 3.65688 133.53 3.70455C133.598 3.75752 133.579 3.80519 133.519 3.90054C133.376 4.13361 133.393 4.2766 133.577 4.43816C133.641 4.49378 133.692 4.54413 133.707 4.62623C133.715 4.66861 133.707 4.72423 133.726 4.75601C133.831 4.93346 133.976 5.04736 134.138 5.13211C134.294 5.0606 134.4 5.17976 134.52 5.27511C134.614 5.34927 134.724 5.28572 134.825 5.25923C134.938 5.2301 135.032 5.25128 135.113 5.34927C135.17 5.41814 135.23 5.44991 135.3 5.43666C135.441 5.40753 135.584 5.389 135.723 5.34662C135.842 5.30954 135.932 5.36252 136.006 5.45257C136.1 5.56646 136.205 5.48964 136.303 5.50553C136.435 5.52407 136.501 5.75978 136.674 5.69621C136.777 5.65914 136.883 5.6459 136.99 5.6353C137.018 5.63266 137.052 5.67769 137.075 5.70947C137.188 5.85514 137.321 5.84719 137.466 5.80481C137.566 5.77568 137.664 5.74921 137.762 5.84985C137.924 6.01936 138.103 6.16768 138.274 6.32395C138.298 6.44578 138.28 6.58877 138.402 6.66028C138.466 6.69736 138.526 6.753 138.575 6.81392C138.635 6.88543 138.69 6.90397 138.767 6.88543C138.905 6.84835 139.051 6.84038 139.187 6.79271C139.313 6.75033 139.392 6.83776 139.469 6.91987C139.53 6.98608 139.588 7.01785 139.663 6.97017C139.74 6.92515 139.795 6.95427 139.857 7.02578C139.944 7.12378 139.951 7.1132 140.241 7.14233C140.271 7.14498 140.307 7.18469 140.324 7.21912C140.333 7.23766 140.313 7.29066 140.298 7.31714C140.279 7.34893 140.249 7.38598 140.222 7.39393C139.906 7.46279 139.588 7.52371 139.272 7.59257C139.24 7.60051 139.206 7.61907 139.183 7.64556C139.157 7.67469 139.125 7.71439 139.125 7.75147C139.125 7.77796 139.168 7.80975 139.198 7.82829C139.292 7.88921 139.403 7.79651 139.494 7.86538C139.556 7.9104 139.607 7.97395 139.669 8.01633C139.695 8.03487 139.735 8.03223 139.767 8.02693C139.874 8.00839 139.978 7.98191 140.085 7.96602C140.115 7.96337 140.149 7.98987 140.177 8.01106C140.382 8.16997 140.382 8.16996 140.559 8.13553C140.629 8.12229 140.704 8.08256 140.77 8.09845C140.834 8.11434 140.889 8.18585 140.947 8.23087C141.066 8.32622 141.179 8.41892 141.188 8.6255C141.192 8.70496 141.263 8.77381 141.333 8.7791C141.401 8.7844 141.474 8.75529 141.544 8.7394C141.711 8.70762 141.711 8.70762 141.926 8.86918C141.986 8.9142 142.05 8.91949 142.127 8.893C142.156 8.88241 142.193 8.89302 142.225 8.90626C142.329 8.94599 142.329 8.9963 142.261 9.09164C142.165 9.23202 142.173 9.24527 142.442 9.36445C142.545 9.40947 142.624 9.49423 142.709 9.56839C142.848 9.68758 142.845 9.68755 142.754 9.84382C142.732 9.87825 142.713 9.91534 142.692 9.95241C142.63 10.0557 142.581 10.1669 142.453 10.1775C142.312 10.1881 142.171 10.2305 142.031 10.2597C141.894 10.2888 141.858 10.3523 141.871 10.5324C141.886 10.7496 141.913 10.7734 142.159 10.7708C142.229 10.7708 142.291 10.792 142.344 10.8635C142.319 10.9482 142.272 11.0145 142.203 11.0304C142.028 11.0701 141.851 11.1045 141.676 11.1389C141.536 11.1681 141.395 11.1972 141.254 11.2263C141.167 11.2449 141.111 11.3826 141.135 11.5362C141.147 11.6236 141.158 11.711 141.169 11.7984C141.192 11.9732 141.237 12.0183 141.38 12.0103C141.416 12.0077 141.45 11.9865 141.484 11.9918C141.623 12.0103 141.689 12.2301 141.856 12.1851C141.994 12.148 142.139 12.1401 142.276 12.0924C142.402 12.05 142.472 12.1454 142.56 12.2169C142.589 12.2408 142.621 12.291 142.647 12.2884C142.824 12.2593 143.001 12.2302 143.174 12.1798C143.255 12.1586 143.304 12.1745 143.368 12.2381C143.522 12.3917 143.526 12.3838 143.754 12.3361C143.921 12.299 143.923 12.3043 144.136 12.4659C144.196 12.5109 144.26 12.5109 144.337 12.4897C144.437 12.4632 144.541 12.4208 144.646 12.4606C144.678 12.4712 144.718 12.5029 144.729 12.5374C144.735 12.5612 144.706 12.6195 144.68 12.638C144.492 12.7757 144.273 12.7519 144.068 12.8075C144.004 12.8234 143.94 12.7731 143.886 12.7016C143.831 12.6301 143.771 12.601 143.699 12.6142C143.558 12.6433 143.415 12.6619 143.276 12.7042C143.157 12.7413 143.074 12.6804 142.991 12.5983C142.963 12.5718 142.931 12.5215 142.903 12.5241C142.587 12.5771 142.27 12.6301 141.956 12.7042C141.83 12.736 141.758 12.6513 141.672 12.5798C141.642 12.5559 141.613 12.5056 141.585 12.5082C141.478 12.5188 141.374 12.548 141.267 12.5692C140.879 12.6486 140.493 12.7281 140.104 12.8022C140.079 12.8075 140.047 12.7519 140.017 12.7281C139.959 12.6804 139.9 12.6354 139.84 12.5903C139.733 12.6115 139.629 12.638 139.522 12.6539C139.445 12.6645 139.377 12.7016 139.366 12.8022C139.36 12.8684 139.43 12.9294 139.505 12.9241C139.577 12.9188 139.65 12.887 139.71 12.9214C140.006 13.0909 140.006 13.0936 140.192 13.0591C140.354 13.0273 140.337 13.0009 140.48 13.1465C140.542 13.2101 140.597 13.2472 140.667 13.2313C140.842 13.1942 141.019 13.1571 141.197 13.1253C141.224 13.12 141.26 13.1465 141.288 13.1677C141.497 13.3266 141.497 13.3319 141.67 13.2922C141.896 13.2445 141.905 13.2313 142.056 13.3928C142.161 13.5041 142.257 13.4273 142.357 13.422C142.472 13.5253 142.598 13.618 142.703 13.7345C142.826 13.8722 142.956 13.8484 143.097 13.8087C143.202 13.7795 143.304 13.7689 143.389 13.8775C143.47 13.9782 143.569 13.9888 143.68 13.9623C143.78 13.9385 143.882 13.8881 143.987 13.9464C144.014 13.9623 144.057 14.002 144.055 14.0259C144.053 14.0629 144.025 14.1159 143.997 14.1318C143.801 14.2404 143.586 14.2377 143.379 14.2881C143.351 14.296 143.315 14.2669 143.287 14.2457C143.227 14.198 143.17 14.1424 143.112 14.0921C143.008 14.108 142.901 14.1132 142.799 14.145C142.72 14.1689 142.66 14.1662 142.602 14.1027C142.549 14.0444 142.491 13.9729 142.427 13.9543C142.363 13.9358 142.289 13.9755 142.218 13.9914C142.148 14.0073 142.067 13.9993 142.011 14.0417C141.956 14.0841 141.922 14.1768 141.886 14.251C141.845 14.3331 141.79 14.3596 141.708 14.3675C141.634 14.3755 141.574 14.3649 141.519 14.2907C141.495 14.2589 141.463 14.2351 141.431 14.2139C141.401 14.1953 141.367 14.1662 141.339 14.1715C141.022 14.2324 140.706 14.2987 140.388 14.3622C140.23 14.394 140.232 14.394 139.904 14.2377C139.874 14.2245 139.838 14.2059 139.808 14.2112C139.631 14.243 139.456 14.2801 139.279 14.3172C139.1 14.3543 139.102 14.349 138.797 14.1821C138.741 14.1503 138.66 14.1927 138.594 14.1874C138.455 14.1742 138.387 13.9517 138.225 13.9941C138.086 14.0311 137.941 14.0391 137.803 14.0868C137.677 14.1291 137.604 14.0364 137.519 13.9649C137.489 13.9411 137.457 13.8881 137.431 13.8934C137.114 13.9517 136.798 14.0179 136.376 14.0259C136.271 14.0259 136.318 14.0815 136.386 14.1C136.484 14.1292 136.516 14.0735 136.463 13.9676C136.425 13.8934 136.369 13.8563 136.324 13.8749C136.301 13.8855 136.271 13.9358 136.376 14.0259C136.486 14.1265 136.48 14.1821 136.499 14.2139C136.546 14.2907 136.612 14.3225 136.681 14.3119C136.787 14.2933 136.892 14.2669 136.998 14.251C137.028 14.2457 137.065 14.2642 137.092 14.2854C137.327 14.4496 137.329 14.4602 137.579 14.3967C137.658 14.3781 137.715 14.3781 137.777 14.4284C137.862 14.4973 137.924 14.6138 138.054 14.5767C138.227 14.5264 138.404 14.4973 138.581 14.4682C138.609 14.4629 138.639 14.5105 138.671 14.5317C138.758 14.5953 138.822 14.7145 138.952 14.6642C139.053 14.6244 139.161 14.6138 139.268 14.6059C139.296 14.6032 139.338 14.6456 139.351 14.68C139.377 14.7409 139.345 14.8125 139.272 14.8628C139.243 14.884 139.202 14.8787 139.168 14.8866C139.027 14.9158 138.886 14.9475 138.745 14.9714C138.671 14.9846 138.6 15.0243 138.592 15.1223C138.586 15.1886 138.662 15.2468 138.735 15.2415C138.841 15.2336 138.948 15.2124 139.051 15.178C139.232 15.1197 139.39 15.1356 139.537 15.3024C139.641 15.419 139.635 15.3766 139.746 15.7209C139.774 15.8083 139.857 15.8163 139.929 15.811C140.104 15.7977 140.185 15.8374 140.17 15.9196C140.151 16.0202 140.089 16.052 140.01 16.0652C139.87 16.0864 139.729 16.1208 139.588 16.15C139.554 16.1579 139.516 16.1738 139.484 16.1685C139.452 16.1632 139.422 16.1314 139.394 16.1076C139.334 16.0573 139.283 15.9804 139.219 15.9619C139.155 15.9434 139.08 15.9831 139.01 15.999C138.94 16.0122 138.865 16.052 138.801 16.0334C138.737 16.0149 138.684 15.9354 138.626 15.8878C138.598 15.8639 138.564 15.8268 138.536 15.8295C138.396 15.8507 138.255 15.8851 138.114 15.9116C137.941 15.946 137.941 15.946 137.732 15.7818C137.673 15.7342 137.611 15.7368 137.532 15.758C137.361 15.8004 137.359 15.7924 137.047 15.6388C137.018 15.6229 136.981 15.6044 136.951 15.6123C136.634 15.6732 136.318 15.7394 136.002 15.803C135.731 15.8586 135.731 15.8586 135.582 16.1235C135.471 16.3195 135.469 16.3195 135.578 16.4095C135.665 16.4837 135.744 16.5923 135.84 16.632C135.93 16.6691 136.041 16.5499 136.139 16.6717C136.188 16.7326 136.252 16.7989 136.314 16.8095C136.412 16.8227 136.516 16.7459 136.61 16.8624C136.657 16.9207 136.728 16.9816 136.787 16.9843C136.892 16.9896 136.998 16.9472 137.103 16.9286C137.135 16.9233 137.171 16.9233 137.201 16.9366C137.233 16.9525 137.261 16.9843 137.289 17.0107C137.374 17.1008 137.466 17.1432 137.577 17.0981C137.758 17.024 137.92 17.0611 138.061 17.2306C138.08 17.2544 138.127 17.2571 138.157 17.2465C138.234 17.22 138.3 17.2173 138.357 17.2676C138.381 17.2888 138.415 17.3259 138.411 17.3497C138.404 17.3895 138.379 17.4424 138.351 17.4557C138.15 17.5457 137.935 17.5563 137.728 17.604C137.7 17.6093 137.666 17.5749 137.638 17.551C137.579 17.5033 137.527 17.4239 137.463 17.4054C137.399 17.3868 137.325 17.4213 137.254 17.4345C137.184 17.4477 137.109 17.4875 137.045 17.4716C136.981 17.453 136.922 17.3868 136.87 17.3286C136.811 17.2623 136.753 17.2544 136.674 17.2809C136.572 17.3153 136.465 17.3206 136.361 17.3392C136.303 17.2888 136.245 17.2332 136.186 17.1855C136.158 17.1617 136.124 17.1326 136.094 17.1352C135.953 17.1564 135.812 17.1882 135.672 17.2173C135.531 17.2464 135.531 17.2465 135.292 17.0823C135.264 17.0637 135.228 17.0425 135.198 17.0478C135.021 17.0796 134.846 17.1193 134.669 17.1511C134.601 17.1643 134.539 17.1273 134.483 17.0557C134.43 16.9842 134.366 16.9445 134.3 16.9578C134.018 17.0134 133.737 17.0664 133.455 17.1326C133.342 17.1591 133.246 17.1352 133.169 17.0399C133.08 16.9313 132.979 16.9578 132.875 16.979C132.638 17.0319 132.636 17.0293 132.485 16.8942C132.455 16.8677 132.425 16.8174 132.397 16.82C132.152 16.8598 131.904 16.8968 131.661 16.9604C131.533 16.9948 131.465 16.9021 131.38 16.8333C131.35 16.8094 131.318 16.7591 131.292 16.7644C131.115 16.7936 130.938 16.82 130.765 16.873C130.592 16.926 130.526 16.6797 130.396 16.6823C130.219 16.685 130.044 16.7459 129.869 16.783C129.729 16.8121 129.588 16.8412 129.447 16.8704C129.306 16.8995 129.165 16.9233 129.025 16.9578C128.95 16.9763 128.894 16.9525 128.833 16.8862C128.754 16.7988 128.66 16.73 128.574 16.6505C128.444 16.5367 128.444 16.5366 128.286 16.5684C128.252 16.5764 128.216 16.5817 128.182 16.5896C127.924 16.6479 127.924 16.6426 127.595 16.4757C127.58 16.4678 127.542 16.4969 127.527 16.5181C127.482 16.587 127.442 16.6611 127.401 16.7326C127.344 16.6903 127.273 16.6664 127.235 16.6055C127.126 16.4334 126.955 16.6691 126.844 16.4996C126.804 16.436 126.734 16.3804 126.67 16.3645C126.603 16.3486 126.529 16.3857 126.46 16.4016C126.283 16.4413 126.283 16.4387 126.132 16.6744C126.055 16.7909 125.944 16.7697 125.844 16.7962C125.739 16.8253 125.639 16.8412 125.552 16.7326C125.473 16.6346 125.377 16.6108 125.264 16.6426C125.125 16.6823 124.982 16.7061 124.841 16.73C124.812 16.7353 124.775 16.722 124.745 16.7062C124.419 16.5499 124.419 16.5473 124.261 16.5817C124.191 16.5976 124.118 16.6029 124.05 16.6267C123.935 16.6691 123.847 16.6134 123.764 16.5287C123.736 16.5022 123.704 16.4519 123.677 16.4546C123.536 16.4678 123.397 16.4916 123.259 16.5155C123.152 16.534 123.045 16.5446 122.943 16.5817C122.772 16.6426 122.689 16.4704 122.572 16.391C122.397 16.4254 122.22 16.4492 122.045 16.4969C121.964 16.5181 121.91 16.5102 121.849 16.4466C121.77 16.3672 121.697 16.2771 121.569 16.3168C121.398 16.3698 121.219 16.3883 121.044 16.4201C120.927 16.338 120.842 16.1711 120.673 16.2321C120.571 16.2691 120.462 16.2771 120.357 16.2983C120.217 16.3274 120.076 16.3539 119.935 16.3857C119.784 16.4175 119.786 16.4095 119.553 16.2533C119.419 16.1606 119.28 16.2639 119.144 16.2797C119.037 16.293 118.984 16.4148 119.009 16.5711C119.035 16.7273 118.977 16.8492 118.879 16.8704C118.634 16.9207 118.386 16.9736 118.141 17.0187C118.111 17.024 118.075 17.0054 118.047 16.9869C117.785 16.82 117.785 16.8227 117.668 16.8465C117.493 16.8863 117.313 16.9074 117.141 16.9578C117.021 16.9922 116.934 16.9366 116.857 16.8465C116.797 16.7777 116.742 16.7618 116.665 16.7777C115.82 16.9551 114.975 17.1193 114.133 17.3021C114.007 17.3286 113.934 17.2518 113.849 17.1803C113.819 17.1564 113.791 17.1061 113.762 17.1061C113.691 17.1061 113.621 17.1299 113.55 17.1458C113.235 17.2094 112.919 17.2862 112.601 17.3339C112.467 17.355 112.431 17.4769 112.373 17.5775C112.328 17.6543 112.277 17.6861 112.198 17.6967C112.121 17.7073 112.066 17.694 112.006 17.6252C111.929 17.5351 111.842 17.4795 111.722 17.5166C111.584 17.559 111.443 17.5775 111.3 17.6067C111.227 17.6199 111.172 17.6676 111.148 17.7629C111.144 17.7788 111.189 17.8185 111.215 17.8424C111.3 17.9218 111.381 18.0145 111.477 18.0702C111.575 18.1258 111.682 18.0622 111.784 18.0463C111.82 18.041 111.855 18.0251 111.889 18.0278C111.921 18.0304 111.959 18.0437 111.983 18.0675C112.094 18.1867 112.211 18.2688 112.364 18.1973C112.497 18.2317 112.565 18.4515 112.733 18.3933C112.836 18.3588 112.943 18.3429 113.049 18.3297C113.077 18.3271 113.107 18.3747 113.137 18.3986C113.222 18.4648 113.29 18.5707 113.418 18.5257C113.555 18.478 113.7 18.4701 113.838 18.433C113.915 18.4118 113.971 18.4304 114.03 18.4992C114.107 18.5866 114.195 18.6528 114.314 18.6104C114.417 18.5734 114.525 18.5654 114.63 18.5416C114.766 18.5124 114.766 18.5151 115.01 18.6793C115.037 18.6978 115.074 18.719 115.103 18.7137C115.28 18.6819 115.455 18.6422 115.632 18.6104C115.701 18.5972 115.767 18.6316 115.814 18.7084C115.833 18.7402 115.827 18.7932 115.833 18.8382C115.481 18.9097 115.129 18.9706 114.779 19.058C114.647 19.0925 114.587 18.9839 114.5 18.923C114.47 18.9018 114.438 18.8568 114.41 18.8621C114.163 18.9071 113.917 18.9547 113.672 19.013C113.595 19.0316 113.538 19.021 113.48 18.9441C113.333 18.7402 113.154 18.8515 112.987 18.8806C112.859 18.9018 112.819 18.9839 112.834 19.1587C112.853 19.3653 112.93 19.4288 113.126 19.3918C113.196 19.3785 113.267 19.36 113.337 19.3494C113.405 19.3388 113.467 19.3732 113.523 19.4447C113.576 19.5162 113.64 19.5533 113.706 19.5427C113.847 19.5189 113.99 19.4951 114.126 19.4553C114.239 19.4235 114.333 19.45 114.412 19.548C114.5 19.6566 114.602 19.6328 114.705 19.6089C114.943 19.556 114.946 19.5586 115.095 19.6911C115.125 19.7175 115.155 19.7679 115.182 19.7652C115.428 19.7255 115.675 19.6911 115.916 19.6275C116.042 19.5957 116.115 19.6804 116.198 19.7493C116.228 19.7731 116.257 19.8261 116.285 19.8208C116.462 19.7917 116.639 19.7625 116.812 19.7122C116.893 19.6884 116.942 19.7043 117.008 19.7678C117.166 19.9241 117.17 19.9188 117.394 19.8685C117.463 19.8526 117.537 19.8235 117.601 19.8447C117.665 19.8658 117.717 19.9427 117.776 19.9903C117.804 20.0115 117.838 20.0406 117.868 20.0353C118.009 20.0142 118.15 19.9824 118.29 19.9533C118.423 19.9241 118.423 19.9268 118.67 20.091C118.77 20.1598 118.875 20.1016 118.975 20.0804C119.084 20.0565 119.182 20.0566 119.265 20.1598C119.348 20.2631 119.449 20.2578 119.555 20.2366C119.656 20.2154 119.758 20.1572 119.86 20.2287C120.095 20.3929 120.095 20.3955 120.24 20.3638C120.451 20.3187 120.66 20.2764 120.874 20.2366C120.901 20.2313 120.938 20.2631 120.965 20.2843C121.025 20.332 121.076 20.4114 121.14 20.43C121.204 20.4512 121.279 20.4194 121.347 20.4035C121.567 20.3532 121.582 20.3346 121.729 20.5094C121.853 20.6525 122.006 20.4459 122.122 20.6101C122.188 20.7028 122.277 20.7769 122.401 20.7319C122.503 20.6948 122.61 20.6842 122.717 20.663C122.885 20.6286 122.885 20.6313 123.099 20.7902C123.126 20.8114 123.163 20.8378 123.19 20.8325C123.331 20.8114 123.474 20.7928 123.611 20.7452C123.771 20.6895 123.873 20.7902 123.992 20.8882C124.086 20.965 124.197 20.9014 124.297 20.8749C124.406 20.8484 124.504 20.8564 124.585 20.9597C124.671 21.0656 124.771 21.0524 124.878 21.0312C124.978 21.0126 125.08 20.9517 125.183 21.0259C125.402 21.1901 125.402 21.1901 125.562 21.1583C125.703 21.1292 125.844 21.0974 125.985 21.0762C126.013 21.0709 126.047 21.1053 126.074 21.1292C126.134 21.1769 126.185 21.2563 126.249 21.2749C126.313 21.2934 126.388 21.259 126.458 21.2457C126.529 21.2325 126.603 21.1928 126.667 21.2087C126.731 21.2245 126.791 21.2908 126.842 21.349C126.902 21.4179 126.957 21.4258 127.039 21.3993C127.141 21.3649 127.248 21.357 127.352 21.3384C127.41 21.3887 127.469 21.4391 127.525 21.4947C127.583 21.5529 127.644 21.5477 127.723 21.5291C127.986 21.4655 127.988 21.4735 128.208 21.6377C128.308 21.7119 128.412 21.6509 128.513 21.6324C128.619 21.6112 128.72 21.6006 128.803 21.7066C128.884 21.8072 128.984 21.8204 129.091 21.7887C129.159 21.7675 129.231 21.7543 129.302 21.7463C129.334 21.7437 129.372 21.7543 129.396 21.7754C129.509 21.8867 129.62 21.9873 129.775 21.9158C129.912 21.937 129.98 22.1542 130.144 22.1118C130.283 22.0747 130.428 22.0668 130.565 22.0191C130.691 21.9767 130.78 22.0509 130.844 22.1436C130.959 22.3078 131.122 22.0853 131.237 22.2469C131.303 22.3396 131.388 22.4137 131.516 22.374C131.657 22.3316 131.702 22.3872 131.742 22.5541C131.766 22.6494 131.761 22.7263 131.719 22.8004C131.676 22.8772 131.629 22.864 131.561 22.7766C131.482 22.6786 131.388 22.66 131.275 22.6812C131.164 22.7024 131.096 22.5647 131.004 22.5117C130.912 22.4561 130.804 22.5488 130.708 22.4773C130.482 22.3104 130.482 22.3104 130.328 22.3422C130.223 22.3634 130.115 22.374 130.012 22.4111C129.891 22.4561 129.812 22.374 129.729 22.2998C129.699 22.2734 129.669 22.223 129.643 22.2257C129.398 22.2654 129.15 22.3025 128.907 22.3687C128.779 22.4031 128.711 22.3078 128.626 22.2416C128.596 22.2177 128.564 22.1701 128.538 22.1754C128.327 22.2125 128.118 22.2601 127.907 22.3051C127.866 22.3767 127.821 22.4455 127.783 22.5223C127.743 22.6018 127.687 22.6362 127.606 22.6336C127.472 22.6336 127.339 22.7448 127.205 22.6044C127.066 22.4614 127.056 22.4694 126.921 22.5038C126.751 22.5488 126.569 22.5382 126.409 22.6415C126.382 22.6601 126.352 22.7103 126.352 22.7474C126.35 22.7713 126.394 22.8057 126.422 22.8269C126.516 22.8905 126.625 22.7978 126.719 22.864C126.78 22.9064 126.832 22.9699 126.894 23.0149C126.919 23.0335 126.958 23.0308 126.992 23.0282C127.028 23.0255 127.062 23.007 127.096 23.0097C127.128 23.0123 127.162 23.0282 127.188 23.052C127.305 23.1527 127.429 23.2454 127.533 23.3646C127.636 23.4811 127.732 23.4016 127.834 23.3963C128.244 23.5817 128.244 23.5844 128.519 23.5261C128.587 23.5129 128.658 23.497 128.728 23.4996C128.758 23.4996 128.786 23.5473 128.816 23.5738C128.901 23.6532 128.982 23.7247 129.101 23.6824C129.204 23.6453 129.313 23.6373 129.417 23.6135C129.558 23.5844 129.558 23.5844 129.797 23.7512C129.857 23.7936 129.921 23.7883 129.997 23.7671C130.063 23.7486 130.132 23.7883 130.179 23.8651C130.198 23.8969 130.191 23.9499 130.198 23.9949C129.987 24.0373 129.773 24.0664 129.569 24.13C129.436 24.1697 129.377 24.0558 129.289 23.9949C129.259 23.9737 129.227 23.9287 129.199 23.934C128.99 23.9737 128.781 24.0187 128.572 24.0717C128.547 24.077 128.515 24.1379 128.513 24.175C128.508 24.2438 128.562 24.3101 128.638 24.3074C128.741 24.3048 128.841 24.2597 128.933 24.3683C129.01 24.4637 129.106 24.5061 129.219 24.4637C129.287 24.4399 129.359 24.4399 129.428 24.4187C129.609 24.3551 129.773 24.3683 129.91 24.5484C130.014 24.5961 130.117 24.5511 130.217 24.5273C130.292 24.5087 130.364 24.4902 130.418 24.5405C130.531 24.6464 130.642 24.7524 130.797 24.6809C130.966 24.755 131.094 24.9113 131.235 25.0384C131.301 25.0993 131.352 25.1338 131.429 25.0941C131.461 25.0782 131.499 25.0781 131.533 25.0702C131.604 25.0569 131.678 25.0172 131.742 25.0331C131.806 25.0516 131.86 25.1285 131.917 25.1761C131.945 25.2 131.977 25.2397 132.005 25.237C132.111 25.2238 132.216 25.1973 132.32 25.1761C132.425 25.1576 132.529 25.1391 132.634 25.1205C132.721 25.1894 132.811 25.2583 132.898 25.3271C133.039 25.298 133.18 25.2688 133.319 25.2424C133.474 25.2106 133.474 25.2132 133.698 25.3774C133.799 25.4516 133.905 25.4039 134.001 25.3695C134.161 25.3139 134.268 25.4145 134.381 25.5205C134.404 25.5416 134.447 25.5549 134.475 25.5443C134.586 25.5072 134.682 25.5363 134.763 25.6343C134.82 25.7032 134.878 25.735 134.948 25.7218C135.194 25.6714 135.439 25.6184 135.684 25.5734C135.714 25.5681 135.748 25.592 135.776 25.6132C135.994 25.7747 135.996 25.7827 136.156 25.7403C136.299 25.7032 136.431 25.6873 136.544 25.833C136.568 25.8647 136.604 25.9098 136.629 25.9071C136.804 25.8806 136.981 25.8515 137.154 25.8065C137.233 25.7853 137.289 25.7933 137.35 25.8542C137.429 25.931 137.5 26.0237 137.63 25.9893C137.99 25.8913 137.992 25.9071 138.419 26.0899C138.449 26.1031 138.49 26.0819 138.524 26.0713C138.596 26.0449 138.649 26.0819 138.713 26.1429C138.856 26.2806 138.861 26.2726 138.997 26.2435C139.102 26.2197 139.211 26.2144 139.313 26.1746C139.471 26.1164 139.575 26.2197 139.693 26.3177C139.786 26.3945 139.895 26.3309 139.996 26.3071C140.104 26.2806 140.202 26.2885 140.284 26.3892C140.339 26.458 140.399 26.4951 140.469 26.4819C140.714 26.4342 140.96 26.3812 141.205 26.3335C141.235 26.3282 141.271 26.3494 141.299 26.368C141.542 26.5322 141.542 26.5401 141.783 26.4792C141.86 26.4607 141.924 26.4554 141.982 26.511C142.037 26.564 142.097 26.6143 142.154 26.6646C142.259 26.6461 142.365 26.6408 142.468 26.609C142.547 26.5852 142.602 26.5958 142.664 26.6514C142.745 26.7229 142.813 26.8473 142.941 26.7864C143.008 26.7573 143.084 26.7653 143.15 26.7388C143.229 26.7043 143.283 26.7255 143.345 26.7944C143.421 26.8765 143.5 26.9612 143.624 26.9189C143.761 26.8712 143.906 26.8632 144.044 26.8262C144.121 26.805 144.174 26.8262 144.236 26.895C144.313 26.9824 144.401 27.0381 144.52 27.0036C144.763 26.9374 144.765 26.9506 145.002 27.1175C145.062 27.1599 145.126 27.1546 145.203 27.1334C145.269 27.1149 145.337 27.1546 145.384 27.2314C145.429 27.3162 145.424 27.3691 145.429 27.4141ZM126.42 3.52709C126.35 3.54033 126.279 3.55622 126.177 3.3258C126.17 3.28607 126.175 3.23841 126.16 3.20397C126.126 3.13246 126.072 3.08215 126.008 3.0742C125.893 3.06361 125.754 3.15364 125.757 3.2225C125.759 3.28077 125.795 3.33108 125.865 3.37875C125.895 3.39729 125.919 3.42908 125.946 3.45027C126.027 3.51119 126.091 3.63039 126.209 3.56947C126.187 3.40526 126.198 3.48737 126.209 3.56947C126.198 3.67012 126.23 3.74163 126.307 3.77076C126.328 3.77871 126.36 3.7734 126.377 3.75751C126.443 3.69924 126.454 3.6198 126.405 3.41057C126.396 3.445 126.403 3.50589 126.422 3.52179C126.441 3.53768 126.488 3.52445 126.512 3.50591C126.571 3.45559 126.601 3.38937 126.586 3.33375C126.578 3.30462 126.537 3.26754 126.512 3.26754C126.467 3.26754 126.426 3.3258 126.42 3.52709ZM143.669 34.242C143.513 34.2924 143.334 34.2738 143.178 34.3771C143.151 34.3957 143.123 34.4433 143.121 34.4804C143.119 34.5042 143.161 34.5387 143.187 34.5572C143.244 34.5996 143.308 34.5863 143.383 34.5731C143.496 34.5546 143.562 34.6764 143.65 34.7373C143.677 34.7559 143.714 34.7691 143.744 34.7638C143.916 34.732 144.087 34.6976 144.26 34.6605C144.29 34.6526 144.322 34.634 144.347 34.6102C144.433 34.5334 144.424 34.4831 144.341 34.4248C144.249 34.3612 144.177 34.2553 144.083 34.205C143.948 34.1334 143.812 34.2288 143.669 34.242ZM131.555 36.1755C131.45 36.1967 131.348 36.2178 131.243 36.239C131.209 36.247 131.173 36.2496 131.141 36.2602C131.075 36.2788 131.025 36.3344 130.993 36.4218C131.043 36.4906 131.102 36.5304 131.168 36.5224C131.273 36.5065 131.375 36.4721 131.48 36.4642C131.593 36.4536 131.659 36.5728 131.747 36.6337C131.774 36.6522 131.808 36.6548 131.84 36.6575C131.998 36.6681 132.094 36.5304 132.064 36.337C132.043 36.1861 131.962 36.096 131.864 36.1146C131.761 36.1331 131.657 36.1543 131.555 36.1755ZM144.398 30.3275C144.424 30.2825 144.452 30.2507 144.465 30.211C144.503 30.0759 144.488 29.9753 144.418 29.8693C144.332 29.7395 144.228 29.8269 144.132 29.8402C144.108 29.8428 144.083 29.8985 144.07 29.9329C144.061 29.9567 144.061 30.0071 144.074 30.0203C144.179 30.1262 144.29 30.2242 144.398 30.3275ZM125.893 22.5038C125.791 22.525 125.686 22.5409 125.584 22.57C125.558 22.5779 125.535 22.6283 125.52 22.6627C125.492 22.7263 125.522 22.8137 125.609 22.8216C125.71 22.8322 125.814 22.7872 125.919 22.766C126.051 22.7395 126.13 22.6415 126.081 22.5567C126.034 22.4746 125.97 22.4588 125.893 22.5038ZM13.6044 16.8439C13.6727 16.8306 13.7431 16.82 13.8114 16.8015C13.8754 16.783 13.9245 16.7247 13.9565 16.6373C13.9031 16.5684 13.8434 16.5314 13.7772 16.5393C13.6727 16.5552 13.5703 16.5764 13.4679 16.6029C13.404 16.6188 13.3421 16.677 13.3272 16.7671C13.3122 16.8359 13.4551 16.8757 13.6044 16.8439ZM116.872 16.436C116.9 16.4598 116.927 16.5075 116.955 16.5075C117.023 16.5075 117.094 16.4916 117.158 16.4651C117.185 16.4545 117.207 16.4069 117.22 16.3698C117.228 16.346 117.226 16.3036 117.213 16.2824C117.151 16.1553 116.904 16.2003 116.863 16.346C116.859 16.3724 116.87 16.4069 116.872 16.436ZM110.142 1.93267C110.148 1.97505 110.15 2.01742 110.159 2.05979C110.176 2.13925 110.223 2.19753 110.291 2.23726C110.344 2.17104 110.372 2.0969 110.37 2.01744C110.368 1.97506 110.361 1.93266 110.353 1.89028C110.336 1.81083 110.289 1.75258 110.221 1.71285C110.167 1.77642 110.142 1.85056 110.142 1.93267ZM149.328 36.6363C149.309 36.6707 149.29 36.7052 149.268 36.737C149.326 36.8138 149.379 36.8376 149.42 36.7952C149.446 36.7687 149.46 36.729 149.48 36.6946C149.422 36.6178 149.371 36.5966 149.328 36.6363ZM148.001 36.9965C148.029 37.0204 148.055 37.0521 148.085 37.068C148.134 37.0945 148.178 37.0495 148.213 36.9541C148.185 36.9303 148.159 36.8985 148.129 36.8826C148.08 36.8561 148.035 36.9012 148.001 36.9965ZM148.842 36.5118C148.827 36.5754 148.857 36.6284 148.936 36.6734C148.955 36.639 148.981 36.6072 148.993 36.5701C149.015 36.5092 148.978 36.4536 148.902 36.4112C148.88 36.443 148.861 36.4774 148.842 36.5118ZM144.339 33.6567C144.324 33.7203 144.354 33.7733 144.433 33.8183C144.452 33.7839 144.477 33.7521 144.49 33.715C144.511 33.6541 144.475 33.5985 144.398 33.5561C144.377 33.5879 144.358 33.6223 144.339 33.6567ZM138.204 14.9158C138.184 14.9502 138.165 14.9846 138.144 15.0164C138.202 15.0932 138.255 15.117 138.295 15.0747C138.321 15.0482 138.336 15.0084 138.355 14.974C138.298 14.8972 138.246 14.876 138.204 14.9158ZM132.327 4.97317C132.378 4.99171 132.421 4.95465 132.457 4.85665C132.429 4.83282 132.404 4.80103 132.374 4.78514C132.325 4.75865 132.28 4.80369 132.246 4.89904C132.273 4.92552 132.301 4.94934 132.327 4.97317ZM129.206 4.35078C129.187 4.38521 129.167 4.41964 129.146 4.45142C129.204 4.52823 129.257 4.55206 129.298 4.50968C129.323 4.4832 129.338 4.44347 129.357 4.40903C129.3 4.33223 129.249 4.3137 129.206 4.35078ZM108.043 1.93002C108.023 1.96445 108.004 1.99888 107.983 2.03066C108.04 2.10747 108.094 2.1313 108.134 2.08892C108.16 2.06244 108.175 2.02271 108.194 1.98828C108.136 1.91147 108.085 1.89294 108.043 1.93002ZM2.66548 23.4784C2.63775 23.4546 2.61004 23.4308 2.58445 23.4043C2.52258 23.4758 2.50339 23.542 2.53752 23.5923C2.55885 23.6241 2.59083 23.6427 2.61856 23.6665C2.68255 23.595 2.69748 23.5314 2.66548 23.4784Z" fill="#FFE492"/>
</svg>
