<svg width="517" height="39" viewBox="0 0 517 39" fill="none" xmlns="http://www.w3.org/2000/svg">
<path d="M482.818 19.3685C482.116 19.4011 481.406 19.4242 480.718 19.4721C480.272 19.502 480.079 19.4187 479.78 19.3757C479.68 19.3608 479.573 19.3306 479.481 19.3347C478.786 19.3673 478.091 19.4037 477.395 19.4401C477.184 19.5151 477.05 19.6147 476.724 19.6519C476.405 19.6872 476.029 19.6884 475.674 19.7066C475.206 19.729 474.738 19.7514 474.27 19.7719C474.036 19.7821 473.844 19.8189 473.767 19.8878C473.753 19.8993 473.91 19.9274 473.995 19.9443C474.28 20.0007 474.558 20.0647 474.871 20.1076C475.17 20.1487 475.538 20.0789 475.858 20.1313C476.577 20.2493 476.584 20.2474 477.131 20.2229C477.599 20.2005 478.067 20.1762 478.535 20.1595C478.627 20.1554 478.734 20.1837 478.834 20.1987C479.133 20.2397 479.326 20.3345 479.766 20.297C480.099 20.2673 480.468 20.2605 480.815 20.2442C481.107 20.2986 481.378 20.3608 481.691 20.4037C481.983 20.4448 482.068 20.4769 481.913 20.5327C481.772 20.5846 481.573 20.6062 481.311 20.6108C481.077 20.6134 480.843 20.6313 480.608 20.6415C480.488 20.6476 480.374 20.6518 480.261 20.6578C479.814 20.6802 479.814 20.6802 478.996 20.5606C478.675 20.5139 478.315 20.5817 478.009 20.5368C477.802 20.5069 477.624 20.4617 477.425 20.4299C477.339 20.4168 477.204 20.4153 477.098 20.4194C476.743 20.4338 476.388 20.4444 476.048 20.4703C475.807 20.4882 475.666 20.542 475.695 20.5953C475.702 20.6163 475.873 20.6463 475.973 20.6479C476.2 20.651 476.441 20.6236 476.661 20.6363C476.874 20.649 477.095 20.6864 477.252 20.7279C477.573 20.8147 477.933 20.7354 478.239 20.7574C478.559 20.7812 478.823 20.8567 479.129 20.9016C479.207 20.9128 479.356 20.8932 479.476 20.8872C479.824 20.8728 480.172 20.8603 480.519 20.8459C480.811 20.9003 481.124 20.949 481.388 21.0111C481.865 21.1241 482.377 21.1664 482.994 21.1092C483.341 21.0777 483.682 21.0881 483.96 21.1616C484.245 21.2371 484.572 21.2285 484.934 21.2121C485.267 21.1959 485.607 21.1529 485.949 21.2052C486.689 21.3213 486.696 21.327 487.568 21.2786C487.831 21.2644 488.03 21.26 488.229 21.3033C488.414 21.3428 488.614 21.3765 488.806 21.4141C489.153 21.3997 489.508 21.3853 489.856 21.369C490.303 21.3466 490.552 21.3726 490.66 21.4791C490.725 21.5437 490.754 21.6027 490.911 21.6461C491.096 21.699 491.295 21.6965 491.564 21.6804C491.82 21.6663 492.004 21.6448 492.109 21.5758C492.152 21.547 492.236 21.5201 492.314 21.497C492.378 21.4796 492.477 21.4526 492.534 21.4562C492.64 21.4636 492.782 21.4841 492.818 21.5088C493.17 21.7385 493.17 21.7404 493.526 21.8061C493.917 21.8793 494.323 21.9448 494.679 22.0277C495 22.1011 495.319 22.0677 495.667 22.0667C495.929 22.0659 496.1 22.1149 496.08 22.1646C496.066 22.1932 495.967 22.2355 495.882 22.2396C495.187 22.2798 494.485 22.3143 493.782 22.3432C493.697 22.3472 493.59 22.3132 493.491 22.2963C493.291 22.2626 493.113 22.2097 492.9 22.1989C492.687 22.1881 492.439 22.2175 492.205 22.2277C491.971 22.238 491.722 22.2635 491.509 22.2489C491.296 22.2343 491.125 22.1795 490.925 22.1439C490.833 22.127 490.705 22.1026 490.627 22.1085C490.109 22.1559 489.725 22.0941 489.355 22.0113C489.276 21.9944 489.141 21.9833 489.042 21.9874C488.219 22.0223 487.403 22.0629 486.58 22.1016C486.247 22.1179 485.976 22.052 485.903 21.9397C485.867 21.8768 485.795 21.8141 485.794 21.7512C485.792 21.6368 485.401 21.575 485.117 21.5892C484.649 21.6097 484.173 21.6264 483.712 21.6564C483.336 21.6804 483.016 21.6585 482.76 21.5906C482.461 21.5133 482.12 21.5296 481.78 21.5516C481.524 21.5676 481.454 21.6307 481.471 21.789C481.487 21.9167 481.367 21.9571 480.906 21.9795C480.324 22.008 479.735 22.0364 479.146 22.0592C479.054 22.0633 478.947 22.0312 478.855 22.0143C478.655 21.9806 478.477 21.9258 478.264 21.915C478.051 21.9023 477.803 21.9316 477.568 21.9438C477.334 21.954 477.086 21.9815 476.873 21.9688C476.66 21.9561 476.482 21.8994 476.289 21.8637C476.197 21.8469 476.083 21.8224 475.991 21.8265C475.522 21.8432 475.054 21.8675 474.586 21.8898C474.061 21.9143 474.061 21.9143 473.314 21.7983C472.972 21.7459 472.632 21.7889 472.299 21.8052C471.944 21.8215 471.61 21.8301 471.332 21.7547C471.147 21.7057 470.941 21.6758 470.721 21.686C470.132 21.7106 469.55 21.741 468.961 21.7657C468.862 21.7698 468.727 21.7606 468.649 21.7437C468.271 21.6647 467.901 21.6029 467.376 21.6445C466.923 21.6802 466.433 21.6836 465.979 21.7174C465.731 21.7353 465.618 21.7967 465.668 21.8442C465.697 21.8689 465.847 21.8971 465.946 21.8968C466.173 21.898 466.421 21.8687 466.635 21.8795C467.075 21.901 467.298 22.0606 467.872 22.015C468.212 21.9872 468.567 21.9766 468.922 21.9679C469.014 21.9657 469.114 22.0017 469.214 22.0205C469.498 22.0711 469.748 22.1371 470.159 22.1015C470.5 22.0738 470.861 22.0651 471.209 22.0488C471.762 22.0223 471.762 22.0242 472.481 22.1384C472.823 22.1927 473.163 22.1478 473.496 22.1334C473.745 22.1232 473.979 22.1034 474.178 22.1295C474.484 22.1686 474.705 22.2595 475.081 22.2526C475.436 22.2458 475.784 22.2181 476.138 22.2075C476.358 22.2011 476.565 22.231 476.743 22.282C476.928 22.3329 477.127 22.3552 477.369 22.343C477.716 22.3267 478.071 22.3066 478.426 22.296C478.525 22.2937 478.639 22.3106 478.732 22.3256C478.931 22.3593 479.123 22.3988 479.315 22.4344C479.663 22.4219 480.018 22.417 480.358 22.3931C480.621 22.3752 480.805 22.3823 481.019 22.4198C481.29 22.4704 481.511 22.5613 481.951 22.5161C482.17 22.4945 482.426 22.4994 482.646 22.4797C482.915 22.4541 483.1 22.4631 483.292 22.5197C483.656 22.6273 484.11 22.6279 484.578 22.5845C485.089 22.5372 485.473 22.5894 485.858 22.6722C486.264 22.7587 486.264 22.7568 486.579 22.9675C486.672 23.0283 486.935 23.0561 487.155 23.044C487.524 23.0238 487.844 23.0324 488.115 23.104C488.4 23.1814 488.74 23.1708 489.088 23.1488C489.549 23.1188 490.01 23.0926 490.388 23.2021C490.573 23.255 490.772 23.2677 491.021 23.2536C491.723 23.2171 492.432 23.194 493.12 23.15C493.539 23.1221 493.781 23.1823 494.066 23.233C494.45 23.3024 494.87 23.3641 494.872 23.5147C494.873 23.5395 494.973 23.5678 495.058 23.5866C495.243 23.6261 495.443 23.6599 495.635 23.6974C495.92 23.7538 496.197 23.8006 496.587 23.7689C496.928 23.7431 497.289 23.7344 497.637 23.7162C497.985 23.698 498.304 23.6875 498.617 23.759C498.981 23.8399 499.365 23.917 499.778 23.9768C500.07 24.0198 500.452 23.9442 500.765 24.0024C500.957 24.0381 501.143 24.0795 501.349 24.1093C501.434 24.1224 501.569 24.1125 501.683 24.1083C501.917 24.1 502.158 24.0936 502.385 24.0738C502.647 24.052 502.846 24.0553 503.046 24.0985C503.231 24.138 503.416 24.1928 503.629 24.2036C503.949 24.2198 504.303 24.1424 504.624 24.2292C504.788 24.2726 504.994 24.3139 505.207 24.3266C505.42 24.3393 505.668 24.3099 505.896 24.3112C505.995 24.3109 506.116 24.341 506.173 24.3657C506.209 24.3789 506.16 24.4153 506.111 24.4345C506.047 24.4576 505.955 24.4884 505.863 24.4925C505.161 24.5289 504.458 24.5596 503.756 24.5942C503.337 24.6145 503.337 24.6145 502.491 24.4969C502.292 24.4689 502.072 24.4753 501.823 24.4894C501.49 24.5075 501.15 24.541 500.801 24.5077C500.345 24.3794 499.784 24.3696 499.188 24.421C498.94 24.4427 498.713 24.4434 498.528 24.4077C498.136 24.3365 497.724 24.271 497.374 24.1862C497.104 24.1202 496.976 24.1149 496.864 24.2068C496.829 24.2355 496.794 24.2661 496.801 24.2928C496.845 24.388 496.925 24.4812 496.969 24.5765C496.983 24.6031 496.927 24.6338 496.892 24.6625C496.78 24.743 496.63 24.7377 496.381 24.6717C496.131 24.6057 495.833 24.5627 495.436 24.5944C495.095 24.6222 494.726 24.6195 494.386 24.6491C493.861 24.6926 493.491 24.6327 493.113 24.5519C493.035 24.5349 492.9 24.5258 492.801 24.5299C491.744 24.577 490.694 24.6297 489.637 24.6768C489.41 24.687 489.203 24.659 489.025 24.608C488.84 24.5571 488.633 24.531 488.406 24.5412C487.47 24.5841 486.533 24.6232 485.597 24.6756C485.214 24.6977 484.908 24.6738 484.645 24.6079C484.445 24.5589 484.26 24.5442 484.012 24.5507C483.742 24.5572 483.551 24.5768 483.417 24.6326C483.29 24.6863 483.383 24.7185 483.667 24.7596C483.973 24.8044 484.258 24.8627 484.55 24.9152C484.784 24.9069 485.018 24.8909 485.245 24.8921C485.345 24.8918 485.438 24.9259 485.537 24.9447C485.822 24.9991 486.086 25.0536 486.49 25.0219C486.83 24.9942 487.192 24.9874 487.54 24.9692C488.022 24.9467 488.022 24.9467 488.805 25.0645C489.004 25.0944 489.217 25.0919 489.472 25.0739C489.692 25.0599 489.92 25.0859 490.077 25.1427C490.141 25.1654 490.12 25.2036 489.987 25.3299C489.989 25.4233 490.137 25.3809 490.186 25.3197C490.263 25.2318 490.113 25.2036 489.83 25.2522C489.632 25.2871 489.533 25.337 489.583 25.3769C489.612 25.3978 489.747 25.4241 489.987 25.3299C490.61 25.2136 491.086 25.1988 491.54 25.1669C491.809 25.1489 491.98 25.156 492.193 25.205C492.45 25.2633 492.706 25.3255 493.125 25.2937C493.579 25.258 494.061 25.2527 494.522 25.2228C494.948 25.1948 495.169 25.278 495.44 25.3268C495.767 25.3849 496.128 25.3171 496.427 25.3505C496.74 25.3839 496.961 25.4672 497.323 25.4813C497.848 25.4283 498.183 25.5226 498.581 25.5844C498.894 25.6311 499.263 25.588 499.596 25.566C499.972 25.542 500.285 25.5621 500.549 25.6299C500.848 25.7072 501.181 25.6891 501.522 25.6709C502.316 25.6303 502.345 25.6245 502.808 25.728C503.142 25.8033 503.462 25.768 503.795 25.7575C504.087 25.8081 504.372 25.8625 504.678 25.9074C504.756 25.9186 504.905 25.8991 505.025 25.893C505.373 25.8767 505.728 25.8604 506.075 25.8441C506.309 25.8338 506.557 25.8045 506.77 25.8153C506.984 25.828 507.162 25.8827 507.354 25.9184C507.546 25.9541 507.746 25.9897 507.931 26.0273C508.216 26.0836 508.486 26.1305 508.883 26.1007C509.224 26.0749 509.579 26.0662 509.933 26.048C510.38 26.0256 510.366 26.0314 511.198 26.1433C511.647 26.2049 512.107 26.1272 512.561 26.1182C512.788 26.1137 513.009 26.1341 513.166 26.1889C513.23 26.2116 513.209 26.2498 513.231 26.2821C512.06 26.3372 510.883 26.3846 509.726 26.451C509.279 26.4771 509.044 26.4092 508.802 26.3527C508.403 26.2623 507.88 26.3974 507.502 26.2803C507.273 26.2104 506.946 26.1714 506.556 26.2069C506.329 26.2266 506.088 26.2255 505.854 26.2433C505.258 26.2871 504.712 26.2906 504.234 26.1605C504.07 26.1152 503.836 26.0911 503.665 26.0478C503.465 26.0007 503.273 25.9745 503.039 25.9848C501.982 26.0337 500.932 26.0827 499.882 26.1354C499.79 26.1395 499.698 26.1684 499.62 26.1896C499.422 26.2436 499.487 26.2854 499.807 26.3188C499.913 26.3299 499.999 26.3544 500.099 26.3732C500.291 26.4088 500.469 26.4655 500.682 26.4782C500.895 26.4909 501.144 26.4635 501.378 26.4533C501.612 26.443 501.86 26.4137 502.073 26.4245C502.286 26.4372 502.464 26.492 502.664 26.5257C502.756 26.5426 502.87 26.5708 502.963 26.5686C503.431 26.5558 503.892 26.5334 504.36 26.5148C504.652 26.5655 504.902 26.6391 505.25 26.6552C505.47 26.666 505.704 26.6443 505.931 26.6474C506.031 26.649 506.159 26.6773 506.209 26.7019C506.238 26.7171 506.146 26.7555 506.075 26.7748C505.807 26.8481 505.437 26.8358 505.104 26.8597C504.742 26.8856 504.416 26.879 504.138 26.8054C503.952 26.7564 503.746 26.7303 503.519 26.7405C502.93 26.7671 502.348 26.7975 501.759 26.8202C501.66 26.8243 501.539 26.8075 501.447 26.7945C500.7 26.6804 500.699 26.6766 500.174 26.7029C499.401 26.7415 499.401 26.7415 498.882 26.642C498.782 26.6232 498.675 26.5873 498.59 26.5895C497.767 26.6224 496.951 26.6554 496.135 26.7017C495.865 26.7159 495.681 26.7165 495.481 26.6675C495.31 26.626 495.111 26.5789 494.898 26.5681C494.677 26.5574 494.436 26.5867 494.202 26.5969C493.968 26.6072 493.72 26.6327 493.514 26.6181C493.301 26.6035 493.115 26.5506 492.93 26.513C492.738 26.4736 492.532 26.4761 492.27 26.4921C491.461 26.5384 491.454 26.5327 490.65 26.4169C490.557 26.4038 490.437 26.389 490.337 26.3931C489.748 26.4177 489.167 26.4481 488.578 26.4727C488.351 26.483 488.13 26.4588 487.973 26.404C487.909 26.3813 487.93 26.3431 487.886 26.2688C487.836 26.2518 487.893 26.2822 487.908 26.3107C488.014 26.3066 488.142 26.31 488.22 26.2945C488.418 26.2577 488.517 26.2097 488.467 26.1698C488.438 26.1489 488.303 26.1226 488.218 26.1229C488.061 26.1234 487.927 26.1657 487.886 26.2688C487.44 26.3331 486.964 26.3479 486.503 26.3798C486.234 26.3997 486.063 26.3907 485.85 26.3417C485.593 26.2815 485.33 26.2231 484.911 26.2549C484.457 26.2906 483.975 26.2978 483.507 26.3259C482.968 26.3581 482.731 26.1871 482.276 26.1923C481.808 26.1975 481.34 26.2314 480.872 26.2556C480.46 26.276 480.46 26.2759 479.606 26.1546C479.293 26.1097 478.925 26.1776 478.619 26.1308C478.413 26.1009 478.235 26.0557 478.035 26.0239C477.95 26.0108 477.815 26.0112 477.709 26.0153C477.12 26.04 476.524 26.057 475.957 26.1007C475.311 26.1522 474.821 26.1003 474.358 25.9892C473.776 26.0119 473.187 26.0251 472.612 26.0631C472.194 26.0911 471.951 26.0289 471.667 25.9782C471.567 25.9614 471.481 25.933 471.375 25.9257C471.268 25.9184 471.141 25.934 471.027 25.9401C470.559 25.9625 470.076 25.9735 469.622 26.0092C469.062 26.0547 468.847 25.899 468.414 25.8812C468.124 25.9755 467.97 26.1038 467.395 26.115C466.927 26.1241 466.458 26.156 465.99 26.1784C465.756 26.1886 465.522 26.2008 465.288 26.211C464.912 26.2293 464.736 26.3042 464.815 26.4184C464.859 26.4812 464.895 26.5441 464.932 26.6069C465.005 26.7192 464.829 26.8151 464.531 26.8294C463.708 26.8681 462.892 26.9087 462.069 26.9436C461.849 26.9538 461.635 26.922 461.457 26.871C461.272 26.8201 461.066 26.7978 460.839 26.8081C460.016 26.8468 459.2 26.8874 458.377 26.9223C458.285 26.9264 458.164 26.9077 458.071 26.8927C457.872 26.859 457.68 26.8195 457.487 26.7838C457.019 26.8024 456.558 26.8152 456.097 26.8395C455.352 26.8761 455.352 26.878 454.804 26.7747C454.704 26.756 454.604 26.72 454.512 26.7222C454.157 26.7309 453.809 26.751 453.455 26.7693C452.412 26.822 452.412 26.822 452.106 26.7657C451.828 26.7131 451.579 26.649 451.16 26.6808C450.706 26.7165 450.224 26.7294 449.756 26.7499C449.408 26.7643 449.06 26.7806 448.713 26.7855C448.62 26.7876 448.52 26.7517 448.421 26.7329C448.136 26.6747 447.858 26.6278 447.468 26.6614C447.241 26.6812 447 26.6857 446.766 26.696C446.156 26.7245 446.156 26.7245 445.153 26.6131C445.054 26.6019 444.933 26.5889 444.833 26.595C444.01 26.6318 443.195 26.6724 442.372 26.7073C442.272 26.7114 442.152 26.7003 442.052 26.6911C440.929 26.5838 440.929 26.5839 439.737 26.6408C439.283 26.6613 439.269 26.669 438.791 26.5693C438.578 26.5261 438.4 26.5056 438.152 26.5197C437.215 26.5683 436.272 26.6017 435.343 26.6579C434.924 26.682 434.682 26.6255 434.397 26.5749C434.297 26.558 434.19 26.5202 434.105 26.5224C433.169 26.5615 432.232 26.6081 431.296 26.6472C431.211 26.6513 431.104 26.6134 431.004 26.5966C430.812 26.5628 430.626 26.5119 430.413 26.5011C430.193 26.4903 429.952 26.5196 429.711 26.5299C429.122 26.5565 429.122 26.5546 428.439 26.4441C428.346 26.4291 428.225 26.4085 428.133 26.4126C427.196 26.4536 426.253 26.4888 425.324 26.5469C424.792 26.5791 424.429 26.5248 424.051 26.4459C423.973 26.4289 423.838 26.4217 423.739 26.4258C422.682 26.4729 421.632 26.5256 420.575 26.5727C420.355 26.5829 420.141 26.5511 419.963 26.502C419.678 26.4247 419.344 26.4352 418.99 26.4535C418.174 26.496 418.167 26.4941 417.683 26.404C417.583 26.3853 417.497 26.3607 417.391 26.3515C417.291 26.3423 417.164 26.3484 417.057 26.3525C416.589 26.373 416.121 26.3954 415.652 26.4178C415.184 26.4401 414.709 26.453 414.248 26.4869C413.68 26.5286 413.409 26.4054 413.01 26.3494C412.429 26.376 411.833 26.393 411.258 26.4348C410.818 26.4667 410.611 26.3834 410.32 26.3404C410.22 26.3254 410.113 26.2933 410.021 26.2974C408.964 26.3426 407.907 26.3915 406.857 26.4462C406.601 26.4584 406.431 26.4436 406.217 26.3985C405.74 26.2969 405.719 26.3008 404.924 26.3414C404.576 26.3596 404.243 26.3759 403.944 26.2986C403.68 26.2288 403.36 26.2126 402.984 26.2366C402.523 26.2666 402.048 26.2833 401.58 26.3038C401.112 26.3262 400.643 26.3562 400.175 26.3671C399.799 26.3778 399.57 26.2888 399.272 26.244C399.179 26.2309 399.051 26.2294 398.945 26.2335C398.477 26.2521 397.994 26.2669 397.54 26.3007C396.987 26.3424 396.68 26.2384 396.289 26.1786C396.203 26.1655 396.061 26.1735 395.955 26.1796C395.132 26.2164 394.316 26.257 393.493 26.2957C393.202 26.2451 392.903 26.1964 392.611 26.1458C392.143 26.1663 391.674 26.1886 391.206 26.2091C390.851 26.2255 390.489 26.2323 390.156 26.2619C389.724 26.3013 389.509 26.2123 389.218 26.1693C389.118 26.1544 389.011 26.1223 388.919 26.1264C388.33 26.1491 387.741 26.1738 387.159 26.208C386.606 26.2421 386.384 26.0711 385.929 26.0743C385.461 26.0777 384.978 26.1039 384.525 26.1396C384 26.1813 383.63 26.1213 383.252 26.0405C383.174 26.0235 383.039 26.0144 382.94 26.0185C382.351 26.0432 381.769 26.0735 381.18 26.0982C381.081 26.1023 380.96 26.0931 380.86 26.082C379.737 25.9729 379.737 25.971 379.248 25.9953C378.9 26.0116 378.545 26.0318 378.191 26.0424C378.091 26.0465 377.97 26.0297 377.878 26.0147C377.138 25.9006 377.137 25.8987 376.605 25.9232C376.137 25.9456 375.669 25.9679 375.201 25.9903C374.909 25.9397 374.61 25.891 374.318 25.8404C373.736 25.867 373.14 25.8878 372.566 25.9239C372.296 25.9399 372.119 25.9348 371.912 25.8877C371.656 25.8313 371.399 25.7653 370.974 25.799C370.52 25.8347 370.037 25.84 369.576 25.87C369.023 25.9059 368.793 25.7331 368.346 25.7363C367.878 25.7397 367.395 25.7659 366.941 25.8016C366.417 25.8432 366.047 25.7833 365.669 25.7025C365.591 25.6855 365.456 25.6764 365.356 25.6805C364.065 25.7397 362.781 25.7989 361.49 25.8619C360.696 25.9005 360.696 25.9024 359.182 25.8021C359.075 25.7948 358.961 25.7875 358.855 25.7916C358.387 25.8102 357.904 25.825 357.45 25.8588C356.897 25.9005 356.59 25.7984 356.199 25.7367C356.114 25.7236 355.979 25.7316 355.865 25.7358C355.511 25.7502 355.163 25.7684 354.808 25.7848C354.34 25.8071 353.872 25.8295 353.404 25.8519C353.112 25.8032 352.813 25.7526 352.521 25.7039C351.939 25.7304 351.343 25.7456 350.769 25.7874C350.329 25.8192 350.122 25.7397 349.83 25.6948C349.731 25.6799 349.624 25.6478 349.531 25.65C348.474 25.6951 347.417 25.7422 346.367 25.7987C345.935 25.8229 345.735 25.7377 345.443 25.6947C345.343 25.6816 345.229 25.6572 345.137 25.6613C344.435 25.6901 343.732 25.7247 343.03 25.7592C342.633 25.7795 342.633 25.7795 341.765 25.6638C341.665 25.6508 341.552 25.6378 341.452 25.6419C339.225 25.7439 337.004 25.8517 334.777 25.9538C334.549 25.964 334.343 25.936 334.165 25.8851C333.98 25.8341 333.773 25.8081 333.546 25.8183C332.61 25.8612 331.666 25.9002 330.737 25.9526C330.354 25.9748 330.048 25.9509 329.785 25.8849C329.585 25.8359 329.4 25.8174 329.152 25.8296C328.684 25.8539 328.216 25.8744 327.747 25.8968C327.279 25.9192 326.811 25.9416 326.343 25.964C325.875 25.9863 325.399 25.9992 324.938 26.033C324.371 26.0748 324.092 25.9574 323.701 25.8994C322.998 25.9302 322.296 25.9609 321.601 25.9935C320.664 26.0364 319.728 26.0831 318.791 26.124C318.706 26.1281 318.599 26.0941 318.5 26.0772C318.208 26.0304 317.994 25.9643 317.561 25.9866C315.461 26.094 313.347 26.1862 311.24 26.2917C310.8 26.314 310.607 26.2326 310.309 26.1896C310.209 26.1766 310.095 26.1502 310.003 26.1543C308.832 26.2055 307.662 26.2624 306.491 26.3174C306.016 26.3399 306.016 26.3399 305.219 26.224C305.127 26.2109 305.005 26.1941 304.906 26.1982C303.381 26.2677 301.863 26.3409 300.337 26.4123C300.11 26.4225 299.904 26.3964 299.719 26.3455C299.541 26.2945 299.327 26.2666 299.107 26.2768C297.703 26.342 296.291 26.4054 294.893 26.4764C294.517 26.4966 294.205 26.4803 293.934 26.4125C293.741 26.3635 293.549 26.3431 293.308 26.3552C291.201 26.4551 289.094 26.5511 286.987 26.6566C286.583 26.6769 286.298 26.6415 286.042 26.5793C285.835 26.5303 285.658 26.5213 285.402 26.5297C285.133 26.5401 284.97 26.5616 284.821 26.6192C284.631 26.6942 284.512 26.788 284.057 26.7951C283.589 26.8022 283.114 26.8265 282.653 26.8604C282.213 26.8941 282.006 26.8089 281.728 26.7582C281.522 26.7226 281.33 26.7175 281.068 26.7354C280.827 26.7514 280.678 26.7843 280.537 26.8457C280.227 26.9764 280.198 26.9764 279.814 26.8956C279.607 26.8523 279.422 26.8186 279.195 26.8269C278.258 26.8679 277.322 26.9126 276.385 26.9593C275.846 26.9857 275.839 26.9896 275.433 26.8954C275.234 26.8484 275.042 26.826 274.808 26.8382C272.232 26.9604 269.657 27.0788 267.082 27.2067C266.685 27.227 266.414 27.1877 266.13 27.1314C266.037 27.1126 265.944 27.0861 265.838 27.0788C265.731 27.0715 265.611 27.0795 265.497 27.0837C263.624 27.1713 261.744 27.2552 259.878 27.3524C259.453 27.3746 259.225 27.3143 258.933 27.2656C258.833 27.2487 258.748 27.2223 258.641 27.215C258.534 27.2096 258.407 27.2233 258.293 27.2293C256.42 27.317 254.54 27.4009 252.675 27.498C252.228 27.5204 252.035 27.4408 251.743 27.3998C251.644 27.3848 251.537 27.3565 251.445 27.3606C250.856 27.3833 250.274 27.4137 249.685 27.4403C248.28 27.5074 246.876 27.5708 245.471 27.6399C244.932 27.6663 244.695 27.4973 244.241 27.5063C243.652 27.5176 243.07 27.5575 242.481 27.5859C242.013 27.6083 241.545 27.6288 241.077 27.6531C240.616 27.6755 240.616 27.6755 239.464 27.5683C239.364 27.5591 239.244 27.5461 239.144 27.5502C237.505 27.6257 235.86 27.7013 234.228 27.7825C233.852 27.8008 233.539 27.7922 233.269 27.7224C233.076 27.6734 232.877 27.6492 232.643 27.6614C230.181 27.7775 227.727 27.8936 225.265 28.0078C225.173 28.0119 225.052 27.9932 224.959 27.9782C224.76 27.9445 224.567 27.905 224.375 27.8694C224.234 27.9137 224.05 27.9543 223.959 28.0041C223.832 28.0713 223.662 28.0908 223.392 28.1031C223.123 28.1154 222.952 28.1121 222.738 28.0631C222.482 28.0029 222.218 27.9559 221.8 27.9763C219.225 28.1042 216.649 28.2207 214.074 28.3467C213.649 28.367 213.449 28.2837 213.15 28.2407C213.05 28.2277 212.936 28.2071 212.844 28.2112C211.787 28.2582 210.737 28.3091 209.68 28.358C206.75 28.4965 203.82 28.6293 200.897 28.7755C200.365 28.8019 200.003 28.7553 199.625 28.6744C199.547 28.6575 199.412 28.6483 199.312 28.6524C195.212 28.8441 191.111 29.0376 187.018 29.2311C186.798 29.2413 186.585 29.2114 186.406 29.1624C186.221 29.1115 186.015 29.0873 185.788 29.0975C183.915 29.1852 182.042 29.2728 180.169 29.3624C179.701 29.3848 179.694 29.3867 179.21 29.2966C179.11 29.2778 179.003 29.2419 178.925 29.246C178.762 29.256 178.606 29.3041 178.494 29.3693C178.381 29.4383 178.204 29.4579 177.942 29.4721C177.672 29.4862 177.495 29.4811 177.288 29.4359C177.024 29.3795 176.782 29.3249 176.357 29.3453C170.972 29.6056 165.587 29.8564 160.203 30.1148C159.77 30.1352 159.57 30.0557 159.271 30.0128C159.172 29.9997 159.072 29.9809 158.966 29.9774C158.852 29.974 158.732 29.9858 158.618 29.9918C149.835 30.4055 141.053 30.821 132.27 31.2346C131.745 31.2591 131.752 31.2591 131.18 31.4363C131.109 31.4574 131.017 31.4863 130.918 31.4904C128.229 31.6206 125.533 31.747 122.838 31.8733C121.667 31.9283 120.497 31.9853 119.326 32.0384C118.907 32.0568 118.907 32.0568 117.91 32.2658C117.825 32.2832 117.726 32.3064 117.626 32.3105C112.944 32.5325 108.262 32.7545 103.572 32.9727C103.204 32.9891 102.906 33.0243 102.737 33.1164C102.617 33.1816 102.462 33.2202 102.228 33.2323C98.9501 33.3872 95.6727 33.5439 92.388 33.6949C91.9978 33.7133 91.7642 33.7674 91.5738 33.8481C91.5103 33.8749 91.4539 33.9056 91.3619 33.925C91.277 33.9424 91.1494 33.9485 91.0429 33.9545C88.2336 34.087 85.4244 34.2232 82.6079 34.35C82.1894 34.3684 82.02 34.4395 81.8152 34.5145C81.7446 34.5395 81.6954 34.5739 81.6034 34.5914C81.5113 34.6069 81.3765 34.6073 81.2629 34.6115C78.9218 34.7215 76.5808 34.8335 74.2397 34.9435C73.7852 34.9354 73.6875 35.0463 73.4684 35.1137C73.3907 35.1368 73.3345 35.1675 73.2424 35.183C73.1433 35.1986 73.0153 35.197 72.8947 35.2012C71.0218 35.2889 69.149 35.3823 67.269 35.4642C66.8362 35.4827 66.7524 35.5802 66.5192 35.6476C66.4414 35.6689 66.3639 35.7015 66.2717 35.7075C65.1012 35.7664 63.9307 35.8214 62.7601 35.8745C62.3699 35.8928 62.3699 35.8909 61.6842 36.0818C61.6064 36.103 61.5144 36.1262 61.4151 36.1322C59.6628 36.2176 57.9035 36.2992 56.1441 36.3827C55.9171 36.3929 55.7617 36.4391 55.6491 36.5043C55.5365 36.5695 55.3739 36.612 55.1468 36.6222C53.7422 36.6894 52.3374 36.7584 50.9327 36.8199C50.5425 36.8363 50.2877 36.8848 50.1187 36.9711C49.9919 37.0363 49.8362 37.0692 49.5879 37.0814C48.1832 37.1467 46.7787 37.2177 45.3668 37.2753C44.9553 37.2918 44.7432 37.3573 44.574 37.4379C44.4402 37.5032 44.2843 37.5265 44.0218 37.5387C41.4466 37.6571 38.8643 37.7755 36.2963 37.9053C35.8636 37.9276 35.6424 37.8615 35.3577 37.8147C34.9521 37.7491 34.5748 37.6778 34.5726 37.529C34.5722 37.5062 34.4511 37.4798 34.3656 37.461C33.7316 37.3199 33.7316 37.3199 33.6299 37.1676C33.5717 37.0743 33.5063 36.9792 33.4552 36.884C33.3605 36.7279 33.1326 36.6885 32.48 36.7191C32.2458 36.7293 32.0118 36.7434 31.7776 36.7517C31.43 36.7661 31.1664 36.7039 31.1007 36.5897C31.0643 36.5269 31.0208 36.4641 30.9843 36.4012C31.3391 36.3849 31.3318 36.383 31.953 36.1504C32.2142 36.0523 32.2143 36.0523 31.7088 35.9566C31.5166 35.9209 31.3313 35.8814 31.1249 35.8477C31.0324 35.8327 30.9116 35.8236 30.8123 35.8277C30.2234 35.8523 29.6418 35.8808 29.06 35.9093C28.1236 35.954 28.1235 35.954 27.1693 35.7624C27.0909 35.7473 26.9698 35.7191 26.9838 35.7038C27.0608 35.633 27.252 35.6019 27.4932 35.5936C27.848 35.581 28.1955 35.5609 28.5432 35.5446C28.7773 35.5344 29.0114 35.5222 29.2455 35.512C29.4645 35.4389 29.6907 35.3676 29.8954 35.2926C30.2202 35.1772 30.22 35.1734 29.7716 35.0946C29.4868 35.0421 29.1808 34.9953 28.889 34.9466C28.5414 34.9629 28.1867 34.9811 27.8391 34.9955C27.3992 35.014 27.2211 34.9783 27.1057 34.8547C27.0046 34.7463 27.1239 34.6525 27.4643 34.6286C27.8118 34.6047 28.1382 34.5884 28.3142 34.4906C28.4832 34.3967 28.7807 34.3595 29.1498 34.3508C29.384 34.3443 29.618 34.3303 29.8521 34.3181C30.1571 34.302 30.319 34.2042 30.2534 34.0957C30.2168 34.0252 30.1449 33.9663 29.8678 33.9519C28.6387 33.8889 28.6244 33.8908 28.0119 33.763C27.955 33.7517 27.9119 33.7175 27.933 33.7003C27.968 33.6715 28.0455 33.6293 28.1306 33.6234C28.9464 33.579 29.7621 33.5384 30.5781 33.5073C30.8477 33.4969 31.0463 33.483 31.1375 33.4121C31.2638 33.3145 31.2056 33.225 30.9562 33.159C30.8777 33.1383 30.7494 33.112 30.6643 33.1141C29.7277 33.1513 28.7985 33.1979 27.8619 33.2351C27.7768 33.2392 27.6202 33.2072 27.5843 33.1825C27.5126 33.137 27.6181 33.0756 27.8663 33.0539C28.1924 33.0243 28.526 33.0214 28.7446 32.9254C29.0478 32.789 29.4221 32.664 29.7609 32.5333C29.8173 32.5102 29.9091 32.466 29.8877 32.4623C29.7096 32.4209 29.5032 32.3891 29.318 32.3496C29.0046 32.2838 29.0032 32.1903 29.0728 32.1005C29.1285 32.0278 29.341 31.9986 29.6037 31.9978C29.7172 31.9974 29.8592 31.997 29.9512 31.9796C30.192 31.9369 30.2693 31.8832 30.148 31.8436C30.0766 31.8209 29.9484 31.7889 29.8633 31.7929C28.3451 31.8604 26.8196 31.9261 25.3087 32.0088C24.8618 32.033 24.655 31.9612 24.3844 31.9105C24.1779 31.8711 23.9859 31.8564 23.7308 31.8858C23.4898 31.9132 23.2554 31.8987 23.1053 31.8362C22.9839 31.7851 23.1961 31.7405 23.7704 31.6892C23.8767 31.6794 23.9973 31.6733 24.0751 31.654C24.8954 31.4455 24.8954 31.4436 25.4629 31.4152C26.0162 31.3887 26.0163 31.3868 26.3057 31.2753C26.4398 31.2234 26.588 31.1715 26.7149 31.1177C26.7643 31.0966 26.849 31.0582 26.8205 31.0468C26.6634 30.9882 26.4501 30.9755 26.2019 30.9896C25.6486 31.0237 24.9952 30.9989 24.7069 31.181C24.5944 31.25 24.4172 31.2696 24.1618 31.2818C21.5936 31.4002 19.0255 31.5261 16.4502 31.6407C16.0316 31.6591 15.8411 31.7303 15.679 31.809C15.538 31.8742 15.3821 31.8938 15.1125 31.906C14.8429 31.9183 14.63 31.9246 14.4728 31.8622C14.3799 31.8243 14.4572 31.7707 14.6694 31.7166C14.9735 31.6394 14.9152 31.5442 14.8145 31.4549C14.7426 31.396 14.5219 31.3547 14.2877 31.3592C13.9399 31.3679 13.6067 31.3899 13.3144 31.3145C13.1434 31.2711 12.9299 31.2412 12.7377 31.2037C12.3673 31.1266 11.9969 31.0476 11.4795 31.1007C11.1243 31.0827 10.8747 31.0148 10.59 30.9622C10.113 30.8759 10.0702 30.8627 10.4095 30.7682C10.7913 30.6622 10.491 30.5257 10.7023 30.4221C10.9278 30.3108 11.2388 30.2126 11.5141 30.1088C11.5847 30.0819 11.6482 30.0569 11.7188 30.03C11.5549 29.9923 11.4052 29.9451 11.2131 29.919C10.9641 29.8854 10.8357 29.8438 10.8481 29.7256C10.7981 29.7085 10.8199 29.7523 10.8769 29.7636C10.941 29.7749 11.0971 29.7649 11.175 29.7513C11.3732 29.7144 11.4718 29.6665 11.4215 29.6266C11.3927 29.6057 11.2576 29.5794 11.1724 29.5796C11.0162 29.5801 10.882 29.6225 10.8409 29.7256C10.047 29.8062 9.22401 29.8468 8.40099 29.8798C8.31586 29.8839 8.20886 29.846 8.10918 29.8273C7.78163 29.7634 7.78162 29.7653 6.82296 29.7491C6.72354 29.7475 6.58832 29.7212 6.53822 29.6947C6.33058 29.579 6.33578 29.4511 6.2345 29.3275C6.41785 29.2468 6.60109 29.1681 6.79157 29.0893C7.1725 28.9299 7.66741 28.7891 7.96292 28.6147C7.8976 28.5214 7.81098 28.4282 8.12217 28.351C9.00809 28.253 9.00105 28.253 9.24102 28.1607C9.92566 27.8993 10.6031 27.636 11.3162 27.3782C11.5069 27.3109 11.5064 27.2747 11.1652 27.2471C11.0586 27.2398 10.9448 27.2382 10.8313 27.2424C10.4765 27.2568 10.1221 27.2922 9.77414 27.2856C9.42621 27.2809 9.16936 27.1978 8.88461 27.1472C8.59274 27.0946 8.30085 27.0402 8.00894 26.9858C7.67537 26.9925 7.3426 27.0469 7.00763 26.9621C6.75105 26.8961 6.43088 26.8494 6.13898 26.795C6.35684 26.6493 6.76695 26.5375 7.08446 26.4087C7.37374 26.2915 7.38071 26.2934 8.16024 26.2014C8.52874 26.1584 8.65324 25.9425 8.33993 25.8805C7.96251 25.8053 7.56397 25.736 7.17952 25.6646C6.84595 25.6714 6.50605 25.7239 6.18529 25.639C5.93583 25.5749 5.65114 25.5319 5.23978 25.558C4.54471 25.602 3.83515 25.6251 3.13287 25.6616C2.89168 25.6737 2.62882 25.6669 2.52135 25.6024C2.44966 25.5568 2.65458 25.4933 2.88865 25.4792C3.24331 25.4591 3.56238 25.4352 3.7384 25.3393C3.90732 25.2435 4.21921 25.2139 4.58815 25.1995C4.68748 25.1953 4.8008 25.1721 4.85014 25.1491C5.10402 25.0377 5.38654 24.9415 5.93323 24.9437C6.15981 24.9048 6.27969 24.8568 6.208 24.8112C6.16503 24.7866 6.01553 24.7546 5.9304 24.7587C5.34148 24.7795 4.75257 24.8004 4.17807 24.8364C3.90854 24.8525 3.70262 24.8569 3.53137 24.8002C3.4101 24.7624 3.4732 24.7107 3.69952 24.6548C3.89757 24.6065 3.95358 24.551 3.93839 24.4862C3.90059 24.3356 3.68691 24.2924 3.00555 24.304C2.51583 24.3131 2.39476 24.2887 2.2863 24.1593C2.25744 24.1289 2.18593 24.0871 2.2353 24.066C2.53858 23.9354 2.73492 23.7746 3.30901 23.7119C3.53583 23.6883 3.7771 23.6876 3.91832 23.6375C4.05955 23.5875 4.18652 23.5299 4.33487 23.4818C4.51857 23.424 4.64541 23.3703 4.55967 23.3343C4.4167 23.2699 4.18952 23.2648 3.92721 23.2885C3.70033 23.3083 3.459 23.3109 3.22491 23.323C2.80638 23.3453 2.46495 23.2967 2.41397 23.2129C2.27572 22.9921 2.13034 22.7732 2.00628 22.5524C1.99168 22.5257 2.02655 22.4913 2.08299 22.4682C2.28054 22.3875 2.49243 22.3106 2.69711 22.2318C2.93711 22.1414 3.32078 22.1574 3.64707 22.1393C4.10813 22.1131 4.108 22.115 4.72282 21.93C4.96308 21.8568 5.38238 21.8842 5.62986 21.8186C5.70763 21.7974 5.82779 21.7627 5.8062 21.7437C5.77742 21.719 5.63523 21.7003 5.52857 21.6892C5.42901 21.6781 5.30826 21.6727 5.20187 21.6788C3.91069 21.738 2.6267 21.801 1.33549 21.8582C1.11557 21.8684 0.873554 21.8272 0.794562 21.7683C0.715628 21.7133 0.735837 21.6464 0.720678 21.5835C0.925355 21.5047 1.15843 21.4315 1.33462 21.3471C1.46851 21.2818 1.62428 21.2528 1.89399 21.2481C2.24885 21.2414 2.59639 21.2174 2.99367 21.1991C3.72772 20.9184 4.44732 20.6244 5.23816 20.3436C5.55589 20.2301 5.47618 20.1159 5.53824 19.9956C5.60044 19.8847 6.07631 19.9005 6.39527 19.8671C6.65043 19.8396 6.73457 19.7783 6.63455 19.7367C6.57738 19.7121 6.44923 19.6838 6.34984 19.6841C6.11557 19.6848 5.88157 19.7027 5.64745 19.713C5.41333 19.7232 5.14349 19.7183 4.95231 19.7513C4.76821 19.7824 4.64844 19.8476 4.5286 19.9032C4.39465 19.9647 4.21762 19.9862 3.94792 19.9908C3.60012 19.9957 3.25255 20.0139 2.90491 20.0283C2.52042 19.9551 2.12169 19.8838 1.75134 19.8067C1.68012 19.7917 1.66518 19.7479 1.67184 19.7192C1.6849 19.6448 1.57774 19.5993 1.34292 19.5638C1.14368 19.5339 0.979723 19.4905 0.794566 19.4529C0.935761 19.401 1.09124 19.351 1.20398 19.2953C1.45067 19.1782 1.76178 19.0934 2.30136 19.0956C2.5132 19.0206 2.68213 18.9285 2.9582 18.8762C3.22011 18.8258 3.66813 18.874 3.86518 18.7609C3.96372 18.7053 4.11193 18.6419 4.30325 18.6184C4.60795 18.5813 5.00578 18.5992 5.18163 18.4918C5.28718 18.4305 5.44245 18.3747 5.64809 18.3588C5.8821 18.341 6.12335 18.3364 6.29317 18.2997C6.38517 18.2803 6.4841 18.2495 6.48369 18.2228C6.48343 18.2056 6.34115 18.1794 6.24159 18.1682C6.1491 18.1551 6.02813 18.146 5.92171 18.1501C5.56693 18.1626 5.2194 18.1847 4.86463 18.1972C4.7653 18.2013 4.65155 18.1883 4.54488 18.1772C4.23206 18.1476 4.25273 18.1094 4.50015 18.04C4.7476 17.9725 4.92386 17.8861 5.12854 17.8073C5.3555 17.7933 5.63951 17.7981 5.79514 17.7614C6.0569 17.7015 6.24011 17.6151 6.45195 17.5401C6.68604 17.528 6.92734 17.5234 7.14709 17.5018C7.23926 17.4939 7.28125 17.4518 7.35896 17.4268C7.50021 17.3786 7.61994 17.3096 7.81127 17.2862C8.1231 17.2509 8.50664 17.2631 8.68962 17.1576C8.79517 17.0963 8.9574 17.031 9.15611 17.0266C9.70972 17.0173 9.94239 16.9116 10.2248 16.8116C10.4367 16.7366 10.8916 16.7734 11.1247 16.6983C11.2802 16.6501 11.3929 16.5907 11.5484 16.5444C11.612 16.5252 11.7467 16.5152 11.8531 16.5092C12.4348 16.4788 13.0237 16.4561 13.6053 16.4238C13.6975 16.4178 13.7823 16.389 13.853 16.3659C14.0013 16.3158 14.0924 16.2469 14.2765 16.2139C14.4606 16.1809 14.7232 16.1801 14.9503 16.1699C15.681 16.1391 15.738 16.1465 16.0692 15.9834C16.3369 15.851 16.9986 15.9425 17.2165 15.7969C17.343 15.7126 17.5761 15.6432 17.9948 15.6324C18.5838 15.6173 19.1654 15.5793 19.7542 15.5528C20.2792 15.5283 20.2721 15.5283 20.8373 15.3492C21.0917 15.2683 21.4682 15.2787 21.8016 15.2624C22.1563 15.2461 22.4825 15.2222 22.6514 15.1263C22.8203 15.0324 23.1322 15.0009 23.494 14.9865C23.8275 14.9721 24.204 14.9805 24.4655 14.9035C25.1016 14.7184 25.0945 14.7165 25.5414 14.6961C26.2438 14.6635 26.9461 14.6309 27.6484 14.5963C28.1166 14.5739 28.6064 14.5687 29.0459 14.5254C29.3648 14.4939 29.5052 14.3867 29.7099 14.3117C30.2916 14.2813 30.8732 14.2509 31.4549 14.2225C32.2707 14.1819 33.0937 14.1451 33.9166 14.1064C34.2705 14.0328 34.3178 13.8725 34.914 13.863C35.2689 13.8582 35.6164 13.8323 35.9711 13.816C36.5599 13.7875 37.1415 13.7514 37.7305 13.7363C38.1776 13.7254 38.254 13.6222 38.4873 13.5567C38.565 13.5335 38.6356 13.5009 38.7278 13.4949C39.6498 13.4387 40.6009 13.4244 41.5013 13.3435C41.5934 13.3356 41.678 13.2953 41.6989 13.2666C41.7128 13.2513 41.5917 13.2231 41.5134 13.21C41.4209 13.195 41.3 13.1801 41.2007 13.1842C38.2708 13.3208 35.3409 13.4593 32.411 13.596C31.9995 13.6163 31.9995 13.6144 31.0017 13.8272C30.9168 13.8446 30.8176 13.8639 30.7112 13.87C30.243 13.8943 29.7676 13.9091 29.3066 13.9391C28.9307 13.9631 28.6181 13.9411 28.3473 13.8733C28.1549 13.8243 27.9557 13.8096 27.7144 13.8142C27.4448 13.8207 27.2677 13.8422 27.1123 13.8942C26.9075 13.9654 26.8024 14.0572 26.3697 14.0776C24.3761 14.1656 22.3825 14.2632 20.3961 14.3569C20.1189 14.331 19.9834 14.2914 20.0537 14.2435C20.0958 14.2148 20.1805 14.1764 20.2656 14.1723C21.0814 14.1298 21.9043 14.093 22.7201 14.0524C22.8336 14.0463 22.9898 14.0496 23.0534 14.0304C23.3645 13.9436 23.476 13.804 24.0651 13.7927C24.4058 13.786 24.7532 13.7563 25.0793 13.7287C25.1715 13.7207 25.2561 13.6804 25.2769 13.6518C25.2838 13.6365 25.1698 13.6082 25.0844 13.5951C24.7712 13.5408 24.4102 13.6086 24.0973 13.5714C23.9906 13.5584 23.8411 13.5398 23.8195 13.5169C23.805 13.496 23.9251 13.4613 24.01 13.4401C24.0878 13.4208 24.194 13.4033 24.3003 13.3972C25.2368 13.3505 26.1733 13.3019 27.1098 13.2648C27.493 13.2503 27.7619 13.2018 27.931 13.1136C28.0578 13.0483 28.2134 13.0135 28.4546 13.0033C30.0934 12.9278 31.7321 12.8446 33.3781 12.7748C33.7896 12.7583 34.0017 12.6948 34.1708 12.6122C34.3047 12.547 34.4605 12.5236 34.723 12.5114C37.0713 12.4052 39.4051 12.2875 41.7534 12.1851C42.1862 12.1666 42.3128 12.0842 42.5318 12.013C42.6095 11.988 42.6586 11.9573 42.7578 11.9417C42.8569 11.9262 42.9847 11.9277 43.1053 11.9235C44.9782 11.8359 46.8512 11.7425 48.7312 11.6605C49.1711 11.6421 49.2547 11.5464 49.4809 11.479C49.5586 11.4578 49.6292 11.4232 49.7214 11.4172C51.126 11.3482 52.5306 11.2829 53.9353 11.2157C54.8717 11.171 55.8081 11.1262 56.7446 11.0833C57.2057 11.0628 57.2057 11.0609 57.8276 10.8779C57.8983 10.8567 57.9974 10.8316 58.0896 10.8256C60.7854 10.6954 63.4741 10.571 66.1699 10.4427C66.3969 10.4325 66.5595 10.3881 66.6721 10.3229C66.7846 10.2577 66.9474 10.2134 67.1673 10.2032C69.2743 10.1015 71.3812 10.0017 73.4953 9.90566C73.8785 9.88925 74.1475 9.84266 74.3165 9.75632C74.4433 9.6911 74.599 9.65631 74.8402 9.64605C76.9472 9.54815 79.0542 9.44452 81.1684 9.35042C81.5728 9.33204 81.7705 9.2666 81.9681 9.18972C82.0387 9.16281 82.0948 9.11877 82.18 9.1147C83.2298 9.05813 84.2725 8.99968 85.3297 8.96026C85.7696 8.94367 85.9175 8.86312 86.0938 8.7863C86.2349 8.72484 86.3979 8.70338 86.6675 8.69494C87.2565 8.676 87.8381 8.64184 88.4126 8.60768C88.4977 8.6017 88.6036 8.55942 88.6103 8.5327C88.6237 8.48307 88.4598 8.44923 88.1898 8.43288C85.3805 8.56531 82.5641 8.69776 79.7548 8.83019C79.2937 8.85256 79.2937 8.85257 78.6717 9.03563C78.6011 9.05682 78.502 9.08192 78.4027 9.08794C75.7069 9.21622 73.0182 9.34256 70.3224 9.47084C70.0954 9.48106 69.9328 9.52542 69.8202 9.5906C69.7076 9.65579 69.5449 9.70014 69.325 9.71034C66.7498 9.83253 64.1747 9.95663 61.5923 10.0731C61.2092 10.0895 60.9401 10.1342 60.7711 10.2224C60.6443 10.2877 60.4886 10.3225 60.2474 10.3327C57.7857 10.447 55.331 10.5669 52.8621 10.6773C52.6138 10.6876 52.4285 10.6328 52.4419 10.5813C52.4486 10.5546 52.5543 10.5104 52.6394 10.5063C53.9234 10.4395 55.2003 10.3708 56.4916 10.3193C56.9244 10.3027 57.0508 10.2184 57.2698 10.1472C57.3404 10.1222 57.3968 10.0896 57.4889 10.0759C57.588 10.0604 57.7158 10.0619 57.8364 10.0577C60.8799 9.91315 63.9233 9.76667 66.974 9.6297C67.4138 9.6093 67.4974 9.51558 67.7236 9.44815C67.8013 9.42502 67.8719 9.39049 67.9641 9.3864C68.9005 9.33781 69.8369 9.29493 70.7734 9.25205C72.4121 9.17464 74.0509 9.09723 75.6967 9.0198C76.172 8.99738 76.1721 8.99738 76.7798 8.81626C76.8505 8.79507 76.9496 8.76809 77.0418 8.764C81.3764 8.55831 85.711 8.35262 90.0456 8.14884C90.2726 8.13862 90.4352 8.09427 90.5478 8.02908C90.6604 7.9658 90.8229 7.91954 91.0428 7.90743C96.9027 7.6304 102.755 7.35337 108.615 7.08015C108.998 7.06183 109.267 7.02097 109.437 6.93082C109.556 6.86561 109.719 6.8308 109.96 6.81863C116.402 6.51505 122.843 6.21147 129.292 5.90596C133.627 5.70218 137.961 5.49458 142.296 5.29462C142.693 5.27626 142.905 5.21648 143.103 5.13769C143.166 5.1108 143.229 5.06674 143.314 5.06267C144.244 5.01219 145.173 4.96553 146.102 4.91886C146.394 4.96948 146.686 5.0182 146.978 5.06881C147.197 4.99568 147.409 4.92065 147.628 4.84752C149.032 4.78798 150.415 4.69799 151.835 4.66701C151.927 4.66482 152.027 4.70077 152.127 4.71954C152.789 4.8377 153.165 4.82703 153.581 4.66557C153.729 4.6079 153.856 4.55603 154.083 4.54581C154.786 4.50936 155.495 4.48433 156.19 4.44219C156.566 4.42008 156.879 4.4382 157.15 4.50605C157.342 4.55506 157.541 4.57545 157.775 4.5633C159.067 4.50219 160.351 4.44301 161.642 4.37809C161.734 4.374 161.819 4.34131 161.889 4.31821C162.038 4.26817 162.165 4.2144 162.306 4.16248C162.498 4.19432 162.711 4.21848 162.868 4.25996C163.068 4.30895 163.252 4.30838 163.522 4.29422C168.672 4.04793 173.83 3.80735 178.98 3.55915C179.42 3.53875 179.613 3.61828 179.912 3.65934C180.011 3.6743 180.111 3.69306 180.217 3.69656C180.331 3.70003 180.452 3.68823 180.565 3.68217C184.431 3.49887 188.298 3.31747 192.164 3.13417C192.675 3.10974 192.675 3.10974 193.436 3.2257C193.529 3.24068 193.65 3.25748 193.749 3.25146C195.509 3.17178 197.268 3.08638 199.02 3.00482C199.247 2.9946 199.439 3.02453 199.646 3.06777C200.052 3.15237 200.08 3.1523 200.376 3.02553C200.517 2.96598 200.666 2.92928 200.9 2.91141C201.155 2.89156 201.361 2.89669 201.561 2.93042C201.845 2.97724 202.052 3.05671 202.485 3.03442C204.358 2.93914 206.238 2.8591 208.104 2.76194C208.529 2.73967 208.757 2.80383 209.042 2.85065C209.142 2.86752 209.234 2.89394 209.341 2.89934C209.448 2.90474 209.575 2.891 209.689 2.88493C212.03 2.77489 214.378 2.66675 216.712 2.5491C217.152 2.5268 217.345 2.60821 217.643 2.64927C217.743 2.66423 217.857 2.6906 217.949 2.68651C219.354 2.62315 220.766 2.55594 222.17 2.48877C222.674 2.46437 222.674 2.46628 223.442 2.5803C223.535 2.59528 223.656 2.61018 223.755 2.60606C225.394 2.53056 227.04 2.45313 228.679 2.37572C229.182 2.35131 229.182 2.35132 230.639 2.4461C230.746 2.45341 230.86 2.46453 230.966 2.46039C232.839 2.37274 234.719 2.28696 236.592 2.19359C236.968 2.17529 237.28 2.1896 237.551 2.25745C237.744 2.30646 237.943 2.32685 238.177 2.3147C240.284 2.2149 242.398 2.11889 244.498 2.01339C244.902 1.9931 245.165 2.03425 245.45 2.0887C245.543 2.1075 245.635 2.13392 245.742 2.14123C245.849 2.14854 245.969 2.14054 246.083 2.13448C248.19 2.03468 250.304 1.94058 252.404 1.83317C252.829 1.81091 253.057 1.87506 253.342 1.92189C253.442 1.93875 253.549 1.97276 253.634 1.9706C254.457 1.9357 255.28 1.90462 256.096 1.85448C256.535 1.82645 256.728 1.91359 257.027 1.95465C257.127 1.9677 257.241 1.99598 257.333 1.99189C259.092 1.9122 260.852 1.82871 262.604 1.74333C262.852 1.73114 263.037 1.74773 263.237 1.79672C263.5 1.86268 263.806 1.88846 264.189 1.86633C265.005 1.82 265.828 1.78702 266.651 1.7483C267.133 1.72587 267.133 1.72587 268.611 1.8206C268.718 1.82791 268.832 1.839 268.938 1.83486C270.343 1.7696 271.754 1.70623 273.152 1.63527C273.528 1.61506 273.841 1.63128 274.111 1.69912C274.304 1.74813 274.496 1.76855 274.737 1.75638C276.028 1.69527 277.312 1.63418 278.603 1.57307C279.072 1.55068 279.54 1.51303 280.008 1.51161C280.349 1.5125 280.599 1.60329 280.905 1.64814C280.99 1.66123 281.132 1.64556 281.245 1.64141C282.884 1.564 284.53 1.49228 286.162 1.40535C286.587 1.38309 286.815 1.44725 287.1 1.49407C287.2 1.51094 287.307 1.54495 287.392 1.54278C287.981 1.52003 288.562 1.48966 289.151 1.4631C289.854 1.43047 290.563 1.40544 291.258 1.36139C291.826 1.32535 292.041 1.49062 292.496 1.49498C292.843 1.49965 293.198 1.46617 293.546 1.44986C294.248 1.41723 294.95 1.38079 295.653 1.35197C295.901 1.34169 296.092 1.31058 296.169 1.24169C296.183 1.2283 296.062 1.20006 295.984 1.18313C295.037 0.99145 295.037 0.991441 294.086 1.03626C293.497 1.06474 292.915 1.0932 292.327 1.11786C292.227 1.12197 292.113 1.10706 292.014 1.09591C291.729 1.06435 291.757 1.02612 291.997 0.956738C292.238 0.887354 292.421 0.802891 292.626 0.724078C292.918 0.772787 293.202 0.821499 293.494 0.870208C293.728 0.859967 293.962 0.847835 294.197 0.837594C295.367 0.784479 296.538 0.729454 297.708 0.680155C297.793 0.676084 297.9 0.713912 298 0.732684C298.285 0.787136 298.541 0.834031 298.953 0.811813C300.003 0.75334 301.06 0.710104 302.11 0.659261C302.571 0.636892 302.571 0.636894 303.382 0.752699C303.474 0.765771 303.595 0.780666 303.694 0.776553C304.752 0.729502 305.801 0.678664 306.859 0.629706C307.086 0.619486 307.306 0.643615 307.47 0.698431C307.534 0.721124 307.521 0.759302 307.795 1.07126C308.637 1.32239 309.212 1.29397 309.793 1.26933C310.042 1.25905 310.261 1.24884 310.424 1.2102C310.509 1.18897 310.615 1.15813 310.615 1.13334C310.614 1.11426 310.458 1.08422 310.358 1.0807C309.655 1.04467 308.989 1.1268 308.3 1.14603C307.981 1.15463 307.703 1.08871 307.645 0.980172C307.63 0.9497 307.608 0.917345 307.587 0.886895C307.565 0.856444 307.55 0.824067 307.528 0.793617C307.251 0.784915 307.089 0.81973 306.969 0.884937C306.87 0.938636 306.729 1.00009 306.538 1.02928C306.347 1.06037 306.084 1.05545 305.85 1.06569C305.623 1.07591 305.375 1.10145 305.162 1.08874C304.949 1.07412 304.777 1.01932 304.578 0.985592C304.485 0.968705 304.372 0.944264 304.279 0.948356C303.463 0.983237 302.655 1.01808 301.846 1.06248C301.42 1.08665 301.206 1.0072 300.936 0.958428C300.722 0.920926 300.509 0.931091 300.475 1.01893C300.386 1.22899 300.714 1.31573 301.437 1.2735C302.033 1.23738 302.573 1.23005 303.043 1.35832C303.107 1.37529 303.256 1.38247 303.349 1.37838C303.93 1.35374 304.505 1.3234 305.087 1.29876C305.193 1.29462 305.307 1.3019 305.407 1.30923C306.856 1.40785 306.856 1.40977 307.346 1.38541C307.58 1.37326 307.807 1.36304 307.781 1.07321C308.224 0.761002 308.933 0.737888 309.621 0.690042C310.068 0.660088 310.261 0.743429 310.553 0.786417C310.652 0.801375 310.759 0.831562 310.851 0.82747C312.377 0.759937 313.895 0.688601 315.413 0.613461C315.668 0.601248 315.853 0.612137 316.053 0.661124C316.309 0.72329 316.594 0.762493 316.998 0.738388C317.807 0.690179 318.63 0.659098 319.453 0.618474C319.871 0.598141 319.871 0.598122 320.718 0.71382C320.81 0.726892 320.931 0.741787 321.03 0.737673C321.853 0.702771 322.669 0.660274 323.485 0.623486C323.712 0.613266 323.918 0.639343 324.097 0.690302C324.275 0.74126 324.488 0.767316 324.708 0.757117C325.531 0.720308 326.347 0.679718 327.163 0.64293C327.262 0.638817 327.383 0.651802 327.476 0.664874C328.344 0.780509 328.344 0.780489 328.741 0.76022C329.322 0.729859 329.919 0.714728 330.493 0.674853C331.053 0.635021 331.346 0.744749 331.73 0.804623C332.78 0.757594 333.837 0.718182 334.88 0.661638C335.306 0.637469 335.534 0.699715 335.819 0.748446C335.918 0.765311 336.018 0.801251 336.11 0.799066C336.465 0.790368 336.813 0.768345 337.161 0.75204C337.508 0.735735 337.863 0.71941 338.21 0.703105C338.609 0.757215 338.874 0.886108 339.441 0.840533C339.781 0.812807 340.143 0.805995 340.491 0.78969C340.838 0.773385 341.193 0.75706 341.541 0.740755C341.775 0.730514 342.016 0.724057 342.243 0.706208C342.661 0.676339 342.869 0.769181 343.167 0.81024C343.267 0.82329 343.381 0.845819 343.473 0.841727C344.176 0.81291 344.885 0.787888 345.573 0.741949C346.105 0.706017 346.468 0.762148 346.845 0.841115C346.924 0.858044 347.059 0.867173 347.158 0.863059C347.981 0.828157 348.797 0.785637 349.613 0.748849C349.833 0.73865 350.046 0.768522 350.224 0.817573C350.41 0.86851 350.616 0.892702 350.843 0.882482C351.659 0.845694 352.482 0.805059 353.298 0.768271C353.397 0.764157 353.518 0.779054 353.61 0.794033C354.407 0.909881 354.407 0.91179 354.875 0.887493C354.989 0.88143 355.11 0.877237 355.223 0.871173C355.805 0.84272 356.408 0.83138 356.975 0.783897C357.628 0.730437 358.104 0.79385 358.567 0.901168C359.149 0.876528 359.745 0.861379 360.313 0.821526C360.738 0.791635 360.966 0.863419 361.251 0.910242C361.351 0.927107 361.458 0.961115 361.543 0.957045C362.366 0.922142 363.189 0.891065 363.997 0.840949C364.437 0.812923 364.63 0.898151 364.929 0.941117C365.029 0.956075 365.135 0.982469 365.228 0.978376C365.696 0.961708 366.164 0.937399 366.632 0.915009C367.179 0.88857 367.179 0.890475 367.904 1.00463C368.246 1.05891 368.586 1.01402 368.92 0.999663C369.274 0.983337 369.608 0.970893 369.893 1.04823C370.071 1.09728 370.285 1.12716 370.505 1.11886C370.973 1.10029 371.448 1.0817 371.909 1.0517C372.278 1.0277 372.598 1.04199 372.869 1.11174C373.061 1.16075 373.26 1.18496 373.494 1.17281C374.544 1.12388 375.601 1.07299 376.651 1.02596C376.744 1.02187 376.871 1.03866 376.957 1.05557C377.156 1.0893 377.349 1.12685 377.541 1.16442C378.002 1.14586 378.477 1.13682 378.931 1.10875C379.414 1.0806 379.854 1.06974 380.232 1.17349C380.31 1.19615 380.424 1.22821 380.516 1.22602C380.871 1.21732 381.219 1.19721 381.566 1.18091C381.914 1.1646 382.269 1.14828 382.616 1.13197C383.022 1.17843 383.279 1.31497 383.847 1.2694C384.187 1.24167 384.549 1.23486 384.897 1.21856C385.244 1.20225 385.599 1.18402 385.947 1.16962C386.06 1.16546 386.188 1.15554 386.287 1.16287C386.394 1.17017 386.486 1.1966 386.579 1.2154C386.864 1.26985 387.127 1.32437 387.532 1.29073C387.872 1.263 388.234 1.25619 388.581 1.23798C389.057 1.21557 389.057 1.21557 389.847 1.33335C390.167 1.38197 390.528 1.31604 390.834 1.35708C391.04 1.38506 391.218 1.4322 391.418 1.46402C391.503 1.47711 391.638 1.48242 391.737 1.47831C392.205 1.45973 392.681 1.44114 393.142 1.41115C393.518 1.38713 393.83 1.40907 394.094 1.47694C394.287 1.52594 394.479 1.54636 394.72 1.53419C395.89 1.47726 397.061 1.42794 398.224 1.36531C398.622 1.34314 398.941 1.37461 399.163 1.4426C399.541 1.55971 400.071 1.41889 400.463 1.51307C400.705 1.57146 400.948 1.6394 401.387 1.60946C402.196 1.55744 403.019 1.52825 403.835 1.49146C404.127 1.54207 404.418 1.5927 404.717 1.6433C405.186 1.62091 405.654 1.5985 406.122 1.57802C406.47 1.56172 406.824 1.54348 407.172 1.52909C407.285 1.52493 407.406 1.51694 407.513 1.52615C407.619 1.53537 407.705 1.55991 407.805 1.57868C408.296 1.67065 408.296 1.67257 409.105 1.63199C409.452 1.61378 409.786 1.60133 410.078 1.67674C410.349 1.74649 410.668 1.75887 411.037 1.73678C411.732 1.69654 412.435 1.66582 413.144 1.63698C413.364 1.62678 413.57 1.65858 413.756 1.70761C414.034 1.78497 414.375 1.77632 414.722 1.75429C415.183 1.7262 415.637 1.69814 416.029 1.80376C416.107 1.82642 416.229 1.85846 416.314 1.85629C416.896 1.83928 417.485 1.82607 418.052 1.78813C418.62 1.75018 418.898 1.86758 419.29 1.92362C419.871 1.89708 420.46 1.87051 421.042 1.84396C421.155 1.8379 421.29 1.82034 421.389 1.82957C421.809 1.86836 422.052 2.01067 422.627 1.96507C422.96 1.93927 423.322 1.93056 423.67 1.92379C423.762 1.92161 423.883 1.95365 423.948 1.97825C423.983 1.99149 423.948 2.02783 423.906 2.04703C423.779 2.10082 423.624 2.15089 423.511 2.20654C423.497 2.21421 423.632 2.24812 423.71 2.26314C423.903 2.29689 424.123 2.29052 424.378 2.27449C424.598 2.26048 424.825 2.28649 424.983 2.34324C425.047 2.36593 425.026 2.40414 424.893 2.53041C424.894 2.62386 425.043 2.58145 425.092 2.52027C425.168 2.43231 425.019 2.40415 424.736 2.45268C424.537 2.48761 424.439 2.5375 424.489 2.5774C424.518 2.59829 424.653 2.62459 424.893 2.53041C425.516 2.4141 425.984 2.39172 426.453 2.36933C426.573 2.36325 426.715 2.34374 426.8 2.35492C427.106 2.39977 427.391 2.45424 427.69 2.50483C428.03 2.49236 428.349 2.46278 428.684 2.53615C429.154 2.63963 429.176 2.63004 429.63 2.60769C429.864 2.59554 430.098 2.58532 430.332 2.57507C430.566 2.56483 430.751 2.59288 430.957 2.63612C431.378 2.7245 431.413 2.72438 431.688 2.60149C431.85 2.52662 431.964 2.50149 432.17 2.5352C432.853 2.64948 432.86 2.65708 433.442 2.621C433.924 2.59094 434.379 2.58194 434.735 2.68958C434.978 2.76514 435.056 2.74774 435.246 2.66707C435.754 2.45383 435.988 2.45693 436.949 2.60662C437.397 2.67774 437.858 2.59817 438.312 2.58726C438.695 2.57848 438.965 2.62343 438.996 2.7435C439.018 2.81781 439.083 2.87103 439.339 2.89505C439.438 2.90429 439.559 2.91727 439.658 2.91316C440.247 2.8885 440.829 2.86004 441.418 2.83156C441.716 2.81731 441.878 2.7272 441.819 2.60913C441.753 2.48345 441.866 2.43732 442.292 2.3998C442.547 2.37805 442.753 2.38126 442.959 2.41497C443.187 2.45243 443.124 2.48695 442.926 2.55621C442.453 2.72547 442.511 2.82827 443.123 2.94276C443.337 2.98217 443.508 3.01791 443.558 3.07688C443.587 3.10731 443.56 3.14744 443.624 3.17014C443.974 3.29687 444.458 3.37743 444.998 3.43683C445.515 3.38378 445.872 3.46852 446.27 3.53598C446.584 3.58844 446.952 3.54156 447.285 3.52149C447.661 3.49938 447.974 3.51369 448.245 3.58344C448.437 3.63245 448.636 3.65473 448.87 3.64448C449.339 3.62209 449.814 3.60732 450.275 3.57541C450.672 3.54752 450.971 3.58477 451.22 3.64886C451.534 3.72993 451.881 3.67356 452.208 3.68402C452.648 3.69604 452.871 3.86511 453.445 3.81761C453.785 3.78988 454.14 3.77928 454.495 3.77058C454.587 3.7684 454.701 3.80048 454.78 3.82313C455.158 3.92689 455.598 3.91984 456.08 3.88788C456.413 3.86589 456.74 3.84585 457.067 3.91733C457.609 4.03777 458.207 4.14278 458.776 4.25359C458.856 4.34108 458.8 4.44422 459.206 4.49449C459.419 4.52055 459.619 4.56002 459.783 4.60339C459.982 4.65428 460.167 4.66708 460.422 4.65296C460.883 4.62487 461.366 4.61768 461.82 4.58198C462.238 4.5502 462.502 4.61237 462.758 4.67072C462.965 4.71778 463.157 4.74008 463.405 4.705C463.66 4.67181 463.845 4.69222 464.051 4.7431C464.344 4.81278 464.365 4.8051 465.331 4.82317C465.43 4.82478 465.551 4.85301 465.608 4.87763C465.637 4.8909 465.574 4.92925 465.524 4.94847C465.461 4.97155 465.362 4.99854 465.269 5.00454C464.219 5.05729 463.162 5.10434 462.112 5.15709C462.006 5.16313 461.893 5.17684 461.815 5.19614C461.73 5.21738 461.624 5.24629 461.624 5.27299C461.625 5.29206 461.767 5.31453 461.867 5.32758C462.18 5.3705 462.548 5.30264 462.854 5.35131C463.06 5.38311 463.231 5.42836 463.437 5.45825C463.523 5.47134 463.658 5.46904 463.764 5.4649C464.119 5.45048 464.467 5.43037 464.821 5.41786C464.921 5.41565 465.035 5.43439 465.127 5.44937C465.81 5.56174 465.81 5.56174 466.399 5.53517C466.633 5.52493 466.881 5.49557 467.102 5.50635C467.315 5.51715 467.5 5.56809 467.692 5.59993C468.091 5.66739 468.468 5.73301 468.499 5.88168C468.514 5.93885 468.749 5.98772 468.983 5.99083C469.21 5.99396 469.451 5.97227 469.686 5.96013C470.239 5.93557 470.239 5.93557 470.958 6.04975C471.157 6.08157 471.37 6.08473 471.625 6.06489C471.725 6.05697 471.845 6.06424 471.952 6.07345C472.3 6.10101 472.301 6.13724 472.075 6.20658C471.757 6.30862 471.785 6.31808 472.681 6.40121C473.022 6.4326 473.286 6.49284 473.571 6.54539C474.033 6.62982 474.026 6.62982 473.723 6.74327C473.652 6.76827 473.589 6.79517 473.518 6.82209C473.313 6.89708 473.151 6.97767 472.726 6.98658C472.257 6.99562 471.789 7.02756 471.321 7.04995C470.867 7.0723 470.747 7.11841 470.791 7.24797C470.843 7.40421 470.936 7.4211 471.752 7.41673C471.987 7.41603 472.193 7.43066 472.371 7.48162C472.287 7.5429 472.131 7.59105 471.904 7.60318C471.323 7.63354 470.734 7.66012 470.152 7.68666C469.684 7.70905 469.216 7.73143 468.747 7.75382C468.457 7.76805 468.274 7.86779 468.353 7.97817C468.397 8.04097 468.433 8.1038 468.47 8.16663C468.55 8.29227 468.699 8.32425 469.175 8.31709C469.295 8.31482 469.409 8.29921 469.522 8.30268C469.984 8.31464 470.207 8.47227 470.76 8.43818C471.221 8.41009 471.704 8.40292 472.157 8.36722C472.576 8.33545 472.811 8.40342 473.103 8.45403C473.203 8.4709 473.31 8.50679 473.395 8.50463C473.984 8.48188 474.573 8.45914 475.147 8.42117C475.417 8.4051 475.58 8.41605 475.794 8.46118C476.307 8.57025 476.321 8.56449 477.08 8.52787C477.633 8.4995 477.64 8.50329 478.352 8.61749C478.551 8.64931 478.764 8.64867 479.019 8.63264C479.353 8.61256 479.7 8.581 480.048 8.60856C480.155 8.61587 480.29 8.63836 480.326 8.66304C480.348 8.68014 480.249 8.7224 480.164 8.73601C479.541 8.83706 478.809 8.8221 478.128 8.8642C477.916 8.87629 477.702 8.84069 477.524 8.78973C477.338 8.73879 477.139 8.71842 476.898 8.72869C476.43 8.75108 475.955 8.76585 475.494 8.79776C475.096 8.82565 474.819 8.78262 474.541 8.72433C474.449 8.70554 474.342 8.66962 474.249 8.6718C473.199 8.71311 472.142 8.75445 471.099 8.81099C470.681 8.83514 470.438 8.77484 470.154 8.72421C470.054 8.70734 469.954 8.6714 469.862 8.67359C469.507 8.68228 469.16 8.70431 468.805 8.72063C467.514 8.78174 466.23 8.84283 464.938 8.90012C464.853 8.90419 464.746 8.86445 464.647 8.84759C464.454 8.81384 464.255 8.78201 464.056 8.75019C463.701 8.76651 463.353 8.78663 462.999 8.79914C462.743 8.80754 462.516 8.83494 462.482 8.90752C462.462 8.95526 462.697 8.99841 462.945 8.99385C463.186 8.98931 463.427 8.96569 463.626 8.98989C464.615 9.10897 464.615 9.11088 465.232 9.08423C465.771 9.05972 465.714 9.04081 466.192 9.14427C466.398 9.18942 466.583 9.21558 466.817 9.20343C467.399 9.17498 467.988 9.1465 468.577 9.12183C468.669 9.11774 468.79 9.13646 468.882 9.15144C469.58 9.26377 469.58 9.26758 470.154 9.23724C470.906 9.20064 470.935 9.19102 471.441 9.30584C471.79 9.38489 472.108 9.32862 472.442 9.3238C472.826 9.39703 473.246 9.46252 473.595 9.54539C474.009 9.64332 474.441 9.62484 474.909 9.59482C475.257 9.57279 475.598 9.56414 475.883 9.64148C476.154 9.71314 476.48 9.71979 476.849 9.69961C477.182 9.68144 477.523 9.64417 477.871 9.68508C477.964 9.69624 478.106 9.72443 478.099 9.74162C478.093 9.76834 478.001 9.80676 477.909 9.81848C477.257 9.89864 476.54 9.89889 475.852 9.9372C475.76 9.9432 475.639 9.92258 475.546 9.9076C475.347 9.87387 475.154 9.8344 474.962 9.79875C474.615 9.81124 474.26 9.81611 473.919 9.84002C473.657 9.85798 473.458 9.85669 473.266 9.81149C473.087 9.77007 472.895 9.71914 472.682 9.70643C472.469 9.69373 472.221 9.72308 471.987 9.73523C471.753 9.74738 471.483 9.74246 471.299 9.77353C471.115 9.8046 471.002 9.8717 470.882 9.92547C470.748 9.98499 470.564 10.0046 470.294 10.0112C470.046 10.0176 469.847 10.0106 469.661 9.95776C469.583 9.93511 469.476 9.91825 469.369 9.90332C469.27 9.89027 469.156 9.86962 469.064 9.87372C468.007 9.92077 466.957 9.97163 465.9 10.0206C465.375 10.0451 465.382 10.045 464.287 9.93579C464.187 9.92655 464.066 9.91357 463.967 9.91768C463.378 9.94234 462.797 9.9708 462.208 9.99928C461.612 10.0278 461.619 10.0239 460.602 9.90684C460.417 9.88451 460.148 9.91584 459.928 9.91269C459.466 9.90455 459.236 9.74503 458.697 9.77717C458.236 9.80526 457.753 9.81243 457.293 9.84815C456.874 9.87993 456.632 9.81391 456.347 9.76328C456.248 9.74641 456.14 9.70858 456.055 9.71265C454.998 9.7578 453.948 9.80864 452.543 9.8186C452.195 9.81964 452.352 9.85923 452.579 9.8719C452.906 9.89189 453.012 9.85152 452.833 9.77577C452.705 9.72275 452.52 9.69659 452.371 9.71039C452.293 9.71825 452.194 9.7548 452.543 9.8186C452.913 9.88996 452.892 9.93006 452.957 9.95276C453.114 10.0076 453.334 10.0298 453.561 10.0215C453.916 10.0071 454.263 9.98697 454.618 9.97446C454.718 9.97034 454.838 9.98333 454.931 9.99831C455.714 10.1142 455.721 10.1218 456.551 10.0735C456.813 10.0594 457.005 10.0588 457.211 10.0944C457.496 10.1432 457.703 10.2265 458.136 10.1984C458.71 10.1605 459.299 10.1377 459.888 10.115C459.98 10.1109 460.08 10.1449 460.187 10.1599C460.479 10.2048 460.693 10.2899 461.125 10.2524C461.459 10.2228 461.821 10.214 462.175 10.2073C462.268 10.2051 462.41 10.2352 462.453 10.2598C462.539 10.3034 462.433 10.3553 462.192 10.3922C462.093 10.4078 461.958 10.4044 461.845 10.4104C461.377 10.4328 460.908 10.4571 460.44 10.4757C460.192 10.486 459.958 10.5153 459.931 10.5859C459.91 10.6337 460.166 10.6749 460.408 10.6703C460.762 10.6635 461.117 10.6472 461.458 10.6214C462.06 10.5776 462.586 10.5875 463.078 10.7061C463.427 10.789 463.405 10.7586 463.778 11.0054C463.871 11.068 464.148 11.0729 464.389 11.0684C464.971 11.0571 465.242 11.0849 465.193 11.1442C465.13 11.2168 464.924 11.2403 464.662 11.2507C464.194 11.2673 463.725 11.2935 463.257 11.3159C463.144 11.322 463.016 11.3338 462.91 11.3303C462.803 11.3268 462.703 11.3042 462.611 11.2874C462.411 11.2517 462.24 11.1969 462.027 11.1842C461.814 11.1715 461.566 11.2009 461.332 11.213C461.098 11.2232 460.85 11.2526 460.636 11.2399C460.423 11.2272 460.245 11.1705 460.053 11.1368C459.96 11.1199 459.846 11.0935 459.754 11.0957C459.286 11.1124 458.817 11.1386 458.349 11.1591C457.775 11.1856 457.775 11.1856 457.077 11.0694C456.878 11.0357 456.672 11.0382 456.41 11.0543C455.842 11.0865 455.835 11.0808 454.797 10.9733C454.697 10.9622 454.576 10.9492 454.477 10.9552C453.42 11.0023 452.37 11.0531 451.32 11.102C450.419 11.1448 450.419 11.1448 449.925 11.337C449.558 11.4793 449.551 11.4793 449.914 11.543C450.206 11.5956 450.47 11.6729 450.789 11.7006C451.088 11.7264 451.456 11.6395 451.784 11.7262C451.948 11.7696 452.161 11.8166 452.367 11.8236C452.694 11.8322 453.041 11.7758 453.355 11.8588C453.512 11.9003 453.747 11.9435 453.945 11.9448C454.293 11.9475 454.648 11.9159 454.996 11.9015C455.102 11.8974 455.223 11.897 455.322 11.9063C455.429 11.9174 455.521 11.94 455.614 11.9588C455.899 12.0228 456.205 12.0524 456.573 12.0188C457.176 11.9636 457.716 11.9887 458.186 12.1093C458.25 12.1263 458.407 12.1278 458.506 12.1198C458.761 12.1 458.981 12.0974 459.173 12.1331C459.252 12.1481 459.366 12.1744 459.352 12.1917C459.331 12.2203 459.246 12.2587 459.154 12.2685C458.488 12.3354 457.771 12.3452 457.083 12.3816C456.991 12.3857 456.877 12.3612 456.784 12.3443C456.585 12.3106 456.414 12.2539 456.2 12.2412C455.987 12.2285 455.739 12.254 455.505 12.2643C455.271 12.2745 455.023 12.3039 454.81 12.2931C454.597 12.2804 454.397 12.2333 454.226 12.1918C454.027 12.1448 453.835 12.1396 453.572 12.1595C453.232 12.1853 452.877 12.1902 452.53 12.2046C452.337 12.1689 452.145 12.1294 451.946 12.0957C451.853 12.0788 451.739 12.0582 451.64 12.0604C451.172 12.0771 450.703 12.1014 450.235 12.1238C449.767 12.1461 449.767 12.1462 448.97 12.0303C448.878 12.0172 448.757 12.0024 448.657 12.0065C448.068 12.0311 447.487 12.0615 446.898 12.0861C446.671 12.0963 446.465 12.0703 446.279 12.0193C446.101 11.9684 445.888 11.9404 445.668 11.9506C444.731 11.9935 443.795 12.0345 442.858 12.085C442.482 12.1052 442.163 12.089 441.906 12.0211C441.607 11.9438 441.273 11.9639 440.926 11.9802C440.138 12.0207 440.131 12.0188 439.626 11.923C439.526 11.9043 439.426 11.8683 439.334 11.8705C438.518 11.9016 437.695 11.9308 436.886 11.979C436.461 12.005 436.232 11.939 435.948 11.8902C435.848 11.8734 435.741 11.8375 435.656 11.8415C435.067 11.8643 434.478 11.8851 433.904 11.925C433.329 11.9649 433.106 11.7882 432.673 11.7914C432.084 11.7951 431.503 11.8407 430.921 11.8692C430.453 11.8916 429.985 11.9139 429.516 11.9363C429.048 11.9587 428.58 11.9773 428.112 12.0035C427.863 12.0176 427.679 12.001 427.472 11.9539C427.208 11.8918 426.895 11.8431 426.611 11.7868C426.176 11.7061 426.176 11.7061 425.651 11.7305C425.538 11.7366 425.417 11.7408 425.304 11.7468C424.445 11.7914 424.445 11.7876 423.35 11.6707C423.3 11.6652 423.173 11.6865 423.123 11.7019C422.975 11.752 422.841 11.8058 422.707 11.8577C422.515 11.8277 422.28 11.8113 422.152 11.7678C421.788 11.6449 421.223 11.8164 420.851 11.6954C420.716 11.65 420.481 11.6107 420.268 11.5999C420.048 11.5891 419.8 11.6166 419.573 11.6287C418.984 11.6591 418.984 11.6572 418.482 11.8284C418.228 11.9131 417.859 11.899 417.525 11.919C417.178 11.9411 416.844 11.9535 416.552 11.8762C416.288 11.8064 415.969 11.7902 415.593 11.8142C415.132 11.8442 414.656 11.8628 414.188 11.8814C414.089 11.8855 413.968 11.8764 413.868 11.8652C412.78 11.756 412.78 11.7541 412.255 11.7804C412.021 11.7926 411.78 11.7971 411.553 11.815C411.17 11.8466 410.879 11.8075 410.601 11.7473C410.508 11.7285 410.401 11.6926 410.309 11.6948C409.84 11.7057 409.379 11.7243 408.918 11.7428C408.563 11.7572 408.209 11.7659 407.868 11.7937C407.301 11.8392 407.022 11.7161 406.631 11.66C406.049 11.6866 405.46 11.7055 404.879 11.7416C404.609 11.7577 404.432 11.7525 404.225 11.7074C403.962 11.6509 403.719 11.5868 403.294 11.6167C402.726 11.6566 402.13 11.6717 401.548 11.6964C401.157 11.6384 400.871 11.5191 400.311 11.5646C399.971 11.5924 399.609 11.5992 399.261 11.6155C398.793 11.6379 398.325 11.6584 397.857 11.6827C397.353 11.7071 397.36 11.7013 396.584 11.5911C396.136 11.5257 395.676 11.6015 395.222 11.6143C394.867 11.6249 394.691 11.7132 394.778 11.8254C394.864 11.9377 394.674 12.026 394.348 12.0423C393.532 12.081 392.709 12.1216 391.893 12.1564C391.794 12.1606 391.673 12.1476 391.58 12.1345C390.705 12.017 390.705 12.0189 390.315 12.0372C389.734 12.0676 389.138 12.0846 388.563 12.1226C388.166 12.1486 387.874 12.1094 387.618 12.0454C387.418 11.9964 387.233 11.9855 386.978 11.9977C384.169 12.134 381.359 12.2607 378.557 12.4007C378.139 12.421 377.896 12.3665 377.612 12.3158C377.512 12.299 377.419 12.263 377.32 12.2633C377.085 12.264 376.851 12.2819 376.617 12.294C375.567 12.343 374.518 12.4014 373.46 12.4389C373.013 12.4555 372.894 12.5437 372.703 12.6167C372.555 12.6725 372.385 12.6958 372.123 12.7043C371.867 12.7127 371.683 12.7037 371.483 12.6547C371.226 12.5906 370.935 12.5514 370.538 12.5793C370.077 12.6112 369.608 12.626 369.133 12.6484C368.892 12.6587 368.708 12.6936 368.631 12.7625C368.617 12.7739 368.766 12.8021 368.852 12.819C369.137 12.8754 369.407 12.9413 369.727 12.9804C370.054 13.0195 370.409 12.9726 370.749 12.9601C370.87 12.956 370.983 12.9442 371.097 12.9458C371.203 12.9473 371.331 12.9565 371.41 12.9734C371.78 13.0581 372.172 13.1161 372.682 13.0631C373.122 13.0865 373.352 13.2441 373.912 13.2005C374.253 13.1747 374.607 13.1621 374.962 13.1515C375.055 13.1494 375.154 13.1834 375.254 13.2003C375.539 13.2471 375.767 13.3227 376.193 13.289C376.646 13.2533 377.129 13.2461 377.59 13.218C377.845 13.202 378.03 13.2148 378.23 13.2638C378.486 13.3259 378.778 13.3727 379.175 13.341C379.515 13.3133 379.877 13.3065 380.225 13.2883C380.679 13.2659 380.679 13.2678 381.49 13.3836C381.583 13.3967 381.703 13.4116 381.803 13.4075C382.392 13.3828 382.973 13.3525 383.562 13.3278C383.789 13.3176 384.01 13.3417 384.167 13.3965C384.231 13.4192 384.21 13.4575 384.232 13.4898C383.061 13.5448 381.891 13.5922 380.727 13.6587C380.288 13.6848 380.088 13.6072 379.796 13.5642C379.696 13.5492 379.589 13.5171 379.497 13.5212C378.674 13.5561 377.858 13.5929 377.043 13.6373C376.787 13.6515 376.596 13.6444 376.403 13.5897C375.911 13.4443 375.316 13.5262 374.762 13.5488C374.337 13.5654 374.203 13.6249 374.254 13.7506C374.321 13.8992 374.577 13.9442 375.229 13.9155C375.464 13.9053 375.698 13.8912 375.932 13.8829C376.159 13.8746 376.365 13.8988 376.55 13.9497C376.729 14.0007 376.942 14.0267 377.162 14.0184C377.63 13.9998 378.106 13.9813 378.56 13.9513C378.935 13.9273 379.248 13.9454 379.512 14.0152C379.804 14.0925 380.145 14.0743 380.485 14.0561C381.28 14.0156 381.287 14.0175 381.785 14.1113C381.885 14.1301 381.985 14.166 382.077 14.1638C382.893 14.1328 383.716 14.1055 384.518 14.0573C384.936 14.0332 385.178 14.0935 385.456 14.1422C385.556 14.1591 385.656 14.1969 385.748 14.1928C386.337 14.1701 386.926 14.1473 387.5 14.1093C387.77 14.0914 387.933 14.1023 388.154 14.1474C388.681 14.2584 388.695 14.2545 389.44 14.216C389.667 14.2039 389.915 14.1822 390.128 14.1968C390.341 14.2114 390.513 14.2662 390.712 14.2999C390.804 14.3149 390.918 14.3355 391.018 14.3314C391.486 14.3148 391.954 14.2905 392.422 14.2681C392.862 14.2458 392.862 14.2477 393.687 14.3635C394.022 14.412 394.369 14.369 394.703 14.3528C395.064 14.3345 395.391 14.3335 395.669 14.4071C395.947 14.4806 396.281 14.4758 396.635 14.4595C396.969 14.4432 397.309 14.4002 397.65 14.4507C398.433 14.5666 398.433 14.5685 398.915 14.5441C399.618 14.5096 400.313 14.477 401.022 14.4462C401.115 14.4422 401.236 14.4647 401.328 14.4797C401.527 14.5134 401.699 14.5701 401.912 14.5828C402.125 14.5974 402.373 14.5738 402.6 14.5616C403.331 14.5232 403.38 14.5097 403.872 14.6341C404.285 14.7359 404.794 14.5856 405.18 14.7026C405.401 14.7687 405.699 14.8212 406.111 14.7876C406.451 14.7598 406.806 14.7511 407.161 14.7348C407.721 14.7083 407.721 14.7103 408.433 14.8226C408.525 14.8375 408.646 14.8562 408.738 14.8521C409.207 14.8355 409.682 14.8207 410.136 14.785C410.668 14.7433 411.01 14.8148 411.408 14.8842C411.721 14.9385 412.09 14.8916 412.423 14.8716C412.785 14.8514 413.112 14.8561 413.383 14.9297C413.668 15.0051 414.001 14.9946 414.356 14.9783C414.689 14.9639 415.03 14.919 415.371 14.9714C416.104 15.0874 416.104 15.0874 416.636 15.0629C417.104 15.0405 417.573 15.0163 418.041 14.9996C418.133 14.9955 418.247 15.0199 418.34 15.0368C418.539 15.0705 418.71 15.1273 418.923 15.14C419.137 15.1527 419.385 15.1271 419.619 15.1169C419.853 15.1067 420.101 15.0773 420.314 15.0881C420.527 15.0989 420.727 15.146 420.898 15.1874C421.097 15.2364 421.282 15.2416 421.551 15.2217C421.892 15.1959 422.247 15.1891 422.594 15.1747C422.786 15.2103 422.986 15.246 423.171 15.2855C423.363 15.3268 423.569 15.3224 423.831 15.3083C424.704 15.2599 424.711 15.2656 425.444 15.3816C425.779 15.434 426.126 15.3891 426.459 15.3747C426.814 15.3584 427.148 15.3498 427.426 15.4252C427.696 15.4969 428.03 15.5054 428.385 15.4815C428.612 15.4655 428.853 15.4553 429.087 15.4488C429.194 15.4466 429.322 15.4539 429.4 15.4689C429.777 15.5478 430.148 15.6192 430.665 15.5662C431.12 15.58 431.349 15.7357 431.895 15.7036C432.356 15.6755 432.839 15.6683 433.293 15.6326C433.711 15.6008 434.01 15.6533 434.224 15.7195C434.609 15.8365 435.147 15.6747 435.532 15.7899C435.753 15.856 436.037 15.9085 436.463 15.8786C436.931 15.8467 437.081 15.8863 437.217 16.006C437.297 16.0745 437.283 16.1298 437.142 16.1837C437.001 16.2394 436.845 16.2303 436.617 16.1681C436.353 16.0983 436.04 16.0859 435.664 16.1023C435.295 16.1186 435.067 16.0202 434.761 15.983C434.455 15.9438 434.094 16.0117 433.774 15.9611C433.019 15.8432 433.019 15.8432 432.508 15.8677C432.161 15.884 431.799 15.8927 431.459 15.9204C431.054 15.9541 430.791 15.8957 430.513 15.8432C430.413 15.8244 430.313 15.7884 430.228 15.7906C429.412 15.8217 428.589 15.8509 427.781 15.901C427.355 15.9271 427.127 15.8591 426.842 15.8123C426.743 15.7954 426.636 15.7614 426.55 15.7655C425.848 15.7943 425.153 15.8307 424.451 15.8652C424.317 15.9171 424.168 15.9672 424.041 16.0229C423.907 16.0805 423.723 16.1058 423.453 16.1047C423.006 16.1061 422.567 16.1875 422.118 16.0878C421.655 15.9862 421.62 15.992 421.173 16.0182C420.606 16.0523 420.002 16.0465 419.471 16.1225C419.379 16.1361 419.28 16.1726 419.28 16.1993C419.273 16.2165 419.423 16.2408 419.515 16.2558C419.829 16.3007 420.189 16.2328 420.503 16.2796C420.709 16.3094 420.88 16.3547 421.086 16.3865C421.172 16.3996 421.3 16.3973 421.413 16.3951C421.534 16.3928 421.647 16.3791 421.761 16.3807C421.867 16.3823 421.981 16.3933 422.067 16.4102C422.458 16.4815 422.871 16.5471 423.22 16.6318C423.562 16.7147 423.88 16.6565 424.221 16.6517C425.586 16.7811 425.586 16.783 426.502 16.7383C426.729 16.7281 426.963 16.7159 427.197 16.7171C427.296 16.7168 427.389 16.7509 427.489 16.7696C427.774 16.826 428.044 16.8767 428.441 16.845C428.782 16.8172 429.144 16.8104 429.491 16.7922C429.959 16.7698 429.959 16.7698 430.756 16.8876C430.956 16.9175 431.168 16.9131 431.424 16.897C431.644 16.883 431.871 16.9109 432.028 16.9658C432.092 16.9885 432.072 17.0267 432.094 17.059C431.391 17.0917 430.682 17.1148 430.001 17.1626C429.561 17.1925 429.361 17.1111 429.069 17.0681C428.97 17.0532 428.863 17.0211 428.771 17.0252C428.075 17.0559 427.38 17.0904 426.685 17.1306C426.6 17.1347 426.494 17.1789 426.487 17.2056C426.474 17.2552 426.652 17.3024 426.908 17.2997C427.248 17.2968 427.582 17.2633 427.888 17.3406C428.145 17.4085 428.464 17.4381 428.84 17.4064C429.067 17.3886 429.309 17.3878 429.536 17.3719C430.138 17.3243 430.685 17.3322 431.141 17.4605C431.49 17.4938 431.83 17.4603 432.163 17.4422C432.412 17.4281 432.653 17.414 432.831 17.4497C433.208 17.5248 433.579 17.6 434.096 17.547C434.658 17.5987 435.085 17.7099 435.555 17.8C435.776 17.8432 435.947 17.8675 436.202 17.8382C436.308 17.8264 436.436 17.826 436.549 17.8199C436.784 17.8097 437.032 17.7803 437.245 17.7911C437.458 17.8038 437.636 17.8586 437.828 17.8924C437.921 17.9093 438.028 17.9375 438.12 17.9354C438.475 17.9248 438.822 17.9046 439.17 17.8883C439.518 17.8739 439.865 17.8595 440.213 17.8451C440.505 17.8939 440.804 17.9426 441.095 17.9913C441.564 17.9689 442.032 17.9465 442.493 17.926C443.011 17.9016 443.011 17.9035 443.758 18.0195C444.093 18.0719 444.447 18.0365 444.766 18.0107C445.298 17.969 445.654 18.0405 446.032 18.1156C446.11 18.1306 446.252 18.1397 446.344 18.1318C446.713 18.104 447.033 18.124 447.303 18.1938C447.496 18.2428 447.688 18.2651 447.922 18.2549C448.738 18.2162 449.554 18.1756 450.37 18.1407C450.469 18.1366 450.583 18.1534 450.675 18.1684C451.401 18.2825 451.408 18.2882 451.94 18.2561C452.416 18.228 452.856 18.2152 453.233 18.319C453.312 18.3416 453.433 18.3737 453.518 18.3715C454.1 18.3507 454.689 18.3279 455.263 18.2938C455.526 18.2777 455.711 18.2829 455.917 18.3262C456.181 18.3807 456.416 18.4467 456.849 18.4206C458.047 18.3464 458.054 18.3578 459.476 18.4852C459.576 18.4944 459.71 18.4787 459.824 18.4708C460.065 18.451 460.243 18.4771 460.456 18.5204C460.934 18.6181 460.948 18.6123 461.402 18.59C461.749 18.5718 462.111 18.5669 462.452 18.5372C462.976 18.4937 463.325 18.567 463.717 18.6364C464.03 18.6908 464.391 18.6439 464.725 18.6258C465.087 18.6056 465.413 18.6103 465.684 18.682C465.869 18.731 466.069 18.7571 466.303 18.7469C467.119 18.7101 467.934 18.6695 468.75 18.6327C468.85 18.6286 468.971 18.6435 469.063 18.6565C469.874 18.7724 469.874 18.7781 470.676 18.7318C470.931 18.7177 471.144 18.7132 471.336 18.7527C471.521 18.7903 471.721 18.8259 471.913 18.8616C472.261 18.8472 472.616 18.8423 472.956 18.8184C473.218 18.8004 473.403 18.8075 473.609 18.8469C473.88 18.8976 474.109 18.9866 474.534 18.9414C474.754 18.9198 475.009 18.9247 475.229 18.905C475.491 18.8794 475.669 18.8941 475.876 18.9431C476.132 19.0014 476.396 19.0617 476.807 19.0299C477.261 18.9942 477.743 18.987 478.204 18.959C478.46 18.9429 478.638 18.9577 478.844 19.0066C479.101 19.0688 479.392 19.108 479.79 19.082C480.598 19.0319 480.605 19.0414 481.395 19.1591C481.594 19.1891 481.807 19.1846 482.063 19.1686C482.283 19.1546 482.51 19.1825 482.667 19.2373C482.817 19.2979 482.803 19.3361 482.818 19.3685ZM419.296 2.35846C419.062 2.3687 418.828 2.38085 418.485 2.21595C418.463 2.18741 418.477 2.15304 418.427 2.1284C418.312 2.07725 418.134 2.04155 417.921 2.03647C417.538 2.03 417.077 2.09622 417.085 2.14578C417.093 2.18772 417.214 2.22358 417.449 2.25721C417.548 2.27026 417.627 2.29291 417.719 2.30789C417.99 2.35094 418.204 2.43614 418.594 2.3911C418.521 2.27307 418.557 2.33208 418.594 2.3911C418.559 2.46367 418.667 2.51485 418.923 2.53506C418.994 2.54056 419.1 2.53642 419.157 2.52481C419.376 2.48219 419.411 2.42488 419.245 2.2747C419.217 2.29958 419.239 2.34337 419.303 2.35462C419.367 2.36587 419.523 2.35587 419.601 2.34229C419.799 2.30546 419.898 2.25747 419.848 2.21757C419.819 2.19668 419.684 2.17039 419.599 2.17064C419.449 2.17109 419.315 2.21345 419.296 2.35846ZM477.037 24.3027C476.519 24.3405 475.922 24.329 475.405 24.4049C475.313 24.4185 475.221 24.4532 475.215 24.4799C475.208 24.4971 475.35 24.5214 475.436 24.5345C475.628 24.5645 475.841 24.5543 476.089 24.544C476.465 24.5295 476.686 24.6166 476.978 24.6596C477.071 24.6726 477.191 24.6818 477.291 24.6777C477.865 24.6531 478.433 24.6266 479.008 24.5982C479.107 24.5921 479.213 24.5785 479.298 24.561C479.581 24.5049 479.552 24.4687 479.275 24.4276C478.969 24.3828 478.726 24.3072 478.413 24.2719C477.965 24.2217 477.512 24.2918 477.037 24.3027ZM436.743 25.8164C436.395 25.8327 436.054 25.849 435.707 25.8653C435.593 25.8714 435.473 25.8736 435.366 25.8816C435.146 25.8956 434.984 25.9361 434.878 25.9994C435.042 26.0485 435.241 26.0765 435.461 26.0701C435.809 26.0576 436.149 26.0318 436.497 26.025C436.873 26.0163 437.095 26.1014 437.386 26.1444C437.479 26.1575 437.592 26.159 437.699 26.1606C438.224 26.1667 438.542 26.0665 438.441 25.9276C438.368 25.8191 438.098 25.7551 437.771 25.7694C437.431 25.7838 437.083 25.8001 436.743 25.8164ZM479.421 21.4767C479.506 21.444 479.598 21.4208 479.64 21.3921C479.767 21.2944 479.716 21.2221 479.48 21.1465C479.195 21.0539 478.848 21.1179 478.529 21.1284C478.451 21.1306 478.366 21.1709 478.324 21.1958C478.296 21.213 478.296 21.2493 478.339 21.2587C478.688 21.3339 479.058 21.4034 479.421 21.4767ZM417.751 16.0285C417.411 16.0447 417.063 16.0572 416.723 16.0792C416.638 16.0852 416.56 16.1217 416.511 16.1466C416.419 16.1927 416.519 16.2553 416.811 16.2602C417.144 16.2668 417.492 16.2333 417.839 16.217C418.279 16.1966 418.541 16.1252 418.377 16.0647C418.219 16.0061 418.006 15.9953 417.751 16.0285ZM44.0033 13.0785C44.2303 13.0683 44.4645 13.0599 44.6914 13.0459C44.9042 13.0319 45.0669 12.9895 45.1725 12.9262C44.9942 12.8772 44.795 12.8511 44.575 12.8574C44.2273 12.8699 43.8868 12.8862 43.5464 12.9063C43.3336 12.9184 43.1284 12.961 43.0797 13.026C43.0308 13.0757 43.5067 13.1029 44.0033 13.0785ZM387.663 11.7496C387.755 11.7665 387.848 11.8006 387.94 11.8003C388.168 11.7996 388.402 11.7874 388.614 11.7677C388.707 11.7598 388.777 11.7253 388.819 11.6984C388.847 11.6812 388.84 11.6507 388.797 11.6356C388.59 11.5447 387.767 11.5796 387.633 11.6849C387.62 11.704 387.655 11.7287 387.663 11.7496ZM365.106 1.37353C365.128 1.40398 365.135 1.43447 365.164 1.4649C365.222 1.52194 365.379 1.56344 365.606 1.59136C365.783 1.54315 365.874 1.48948 365.866 1.43228C365.859 1.40179 365.837 1.37132 365.808 1.34089C365.751 1.28385 365.594 1.24238 365.366 1.21445C365.189 1.26076 365.105 1.31441 365.106 1.37353ZM495.897 25.9701C495.833 25.9951 495.77 26.02 495.699 26.0431C495.891 26.0979 496.069 26.1145 496.204 26.0836C496.289 26.0643 496.338 26.0355 496.401 26.0105C496.209 25.9558 496.038 25.941 495.897 25.9701ZM491.485 26.2427C491.578 26.2596 491.663 26.2823 491.763 26.2934C491.926 26.312 492.075 26.2791 492.187 26.2101C492.095 26.1932 492.009 26.1706 491.91 26.1594C491.746 26.1409 491.598 26.1737 491.485 26.2427ZM494.277 25.8853C494.228 25.9312 494.328 25.9691 494.591 26.0007C494.654 25.9757 494.739 25.9526 494.781 25.9258C494.852 25.8817 494.73 25.842 494.474 25.8122C494.404 25.8353 494.34 25.8603 494.277 25.8853ZM479.259 23.8746C479.21 23.9205 479.31 23.9583 479.573 23.9899C479.637 23.965 479.722 23.9418 479.764 23.915C479.834 23.8709 479.713 23.8312 479.457 23.8015C479.386 23.8246 479.323 23.8496 479.259 23.8746ZM458.636 10.4411C458.573 10.4661 458.509 10.491 458.439 10.5141C458.631 10.5689 458.809 10.5855 458.943 10.5546C459.028 10.5352 459.078 10.5065 459.141 10.4815C458.949 10.4268 458.778 10.412 458.636 10.4411ZM438.969 3.34054C439.14 3.35338 439.281 3.32626 439.401 3.25533C439.309 3.23845 439.223 3.21581 439.123 3.20467C438.96 3.18609 438.811 3.21897 438.699 3.28797C438.791 3.30677 438.884 3.32363 438.969 3.34054ZM428.577 2.92365C428.513 2.94864 428.45 2.97362 428.379 2.99672C428.571 3.05145 428.749 3.06808 428.884 3.03716C428.968 3.01783 429.018 2.98907 429.081 2.96408C428.889 2.90935 428.718 2.89652 428.577 2.92365ZM358.121 1.39266C358.057 1.41765 357.994 1.44263 357.923 1.46573C358.115 1.52046 358.293 1.53709 358.428 1.50617C358.512 1.48684 358.562 1.45808 358.625 1.4331C358.433 1.37837 358.262 1.36554 358.121 1.39266ZM7.67241 17.9656C7.57986 17.9487 7.48739 17.9318 7.40191 17.913C7.19683 17.9651 7.13368 18.013 7.24782 18.0489C7.31916 18.0715 7.42577 18.0846 7.51832 18.1014C7.7305 18.0493 7.77947 18.0034 7.67241 17.9656Z" fill="#FFE492"/>
<path d="M48.6974 10.9218C47.8815 10.9605 47.073 11.0087 46.2569 11.034C45.8241 11.0468 45.6693 11.1292 45.4929 11.206C45.3519 11.2675 45.1889 11.287 44.9264 11.2993C42.7129 11.3994 40.5065 11.5052 38.3002 11.6091C38.023 11.5851 37.8875 11.5455 37.9506 11.4976C37.9857 11.4689 38.0703 11.4286 38.1554 11.4246C39.6665 11.3495 41.1703 11.2725 42.6886 11.2126C43.1215 11.196 43.2409 11.1117 43.4599 11.0424C43.5306 11.0193 43.5869 10.9848 43.679 10.9712C43.771 10.9557 43.9059 10.9572 44.0266 10.953C46.467 10.837 48.9075 10.7228 51.3479 10.6068C51.6252 10.6308 51.7607 10.6704 51.6975 10.7183C51.6624 10.747 51.5778 10.7873 51.4927 10.7913C50.5562 10.8342 49.6267 10.877 48.6974 10.9218Z" fill="#FFE492"/>
<path d="M495.989 20.0612C495.62 20.0852 495.152 20.119 494.767 20.0096C494.581 19.9567 494.382 19.9402 494.141 19.9523C493.793 19.9725 493.439 19.9888 493.084 20.0013C492.992 20.0035 492.871 19.9828 492.778 19.966C492.579 19.9322 492.408 19.8755 492.194 19.8609C491.981 19.8463 491.726 19.889 491.506 19.8802C491.215 19.8677 491.093 19.8166 491.171 19.7687C491.213 19.7418 491.297 19.7034 491.39 19.6974C492.702 19.6229 492.709 19.6229 493.079 19.6905C493.364 19.743 493.628 19.8013 494.032 19.7677C494.372 19.7399 494.734 19.7331 495.082 19.7149C495.564 19.6906 495.564 19.6925 496.347 19.8103C496.546 19.8402 496.759 19.8377 497.014 19.8197C497.234 19.8057 497.448 19.8356 497.626 19.8865C497.513 19.9517 497.35 19.9942 497.131 20.0063C496.776 20.0264 496.428 20.0408 495.989 20.0612Z" fill="#FFE492"/>
<path d="M482.915 19.5046C483.809 19.4619 484.71 19.4248 485.603 19.3763C485.972 19.3561 486.264 19.3762 486.52 19.4403C486.798 19.5101 487.11 19.5034 487.451 19.4891C487.664 19.4808 487.87 19.5107 488.013 19.5637C488.07 19.5845 488.056 19.6227 488.078 19.6532C487.298 19.6899 486.51 19.7285 485.723 19.7614C485.631 19.7655 485.517 19.7468 485.431 19.7317C485.239 19.6999 485.075 19.6431 484.869 19.6323C484.428 19.6069 483.989 19.6598 483.542 19.6706C483.329 19.6751 483.123 19.6471 482.98 19.596C482.923 19.5714 482.937 19.5351 482.915 19.5046Z" fill="#FFE492"/>
<path d="M159.37 3.76822C160.299 3.72346 161.228 3.68063 162.158 3.63588C162.435 3.66174 162.563 3.69949 162.507 3.74734C162.472 3.77605 162.388 3.81636 162.302 3.82043C160.444 3.91185 158.585 3.99944 156.734 4.08702C156.456 4.06116 156.328 4.02341 156.384 3.97556C156.419 3.94685 156.504 3.90654 156.589 3.90247C157.511 3.85583 158.44 3.81298 159.37 3.76822Z" fill="#FFE492"/>
<path d="M16.0919 14.8006C15.6733 14.8057 15.2345 14.8778 14.7654 14.8257C14.673 14.8164 14.5447 14.7862 14.5516 14.7689C14.5653 14.7402 14.6499 14.7036 14.742 14.6918C15.1458 14.6427 15.6496 14.6355 15.8533 14.5009C15.9516 14.4317 16.1357 14.4082 16.3839 14.394C16.6462 14.3779 16.8308 14.3831 17.0372 14.4226C17.3076 14.4735 17.5362 14.5685 17.9612 14.5174C17.983 14.548 18.033 14.5823 18.0122 14.611C17.9913 14.6398 17.8996 14.6669 17.8148 14.6882C17.737 14.7075 17.6308 14.7251 17.5315 14.7311C17.0635 14.7555 16.5954 14.7761 16.0919 14.8006Z" fill="#FFE492"/>
<path d="M385.467 13.5111C385.814 13.4948 386.176 13.4861 386.516 13.4583C386.786 13.4365 386.956 13.4493 387.17 13.4945C387.533 13.5736 387.554 13.5659 388.442 13.5747C388.541 13.5763 388.663 13.6045 388.72 13.6292C388.755 13.6424 388.706 13.6789 388.664 13.6981C388.6 13.7231 388.509 13.7558 388.423 13.7561C387.863 13.7635 387.297 13.8779 386.748 13.7497C386.47 13.6856 386.164 13.656 385.789 13.6858C385.562 13.7036 385.321 13.712 385.086 13.7204C384.859 13.7287 384.625 13.7084 384.482 13.6515C384.275 13.5682 384.395 13.5354 384.764 13.54C384.999 13.5431 385.233 13.5214 385.467 13.5111Z" fill="#FFE492"/>
<path d="M514.297 26.4446C514.743 26.4241 515.19 26.3998 515.644 26.3831C515.736 26.379 515.85 26.3997 515.936 26.4128C516.277 26.4692 516.229 26.5669 516.244 26.653C516.253 26.7429 515.466 26.818 515.132 26.7578C514.762 26.69 514.427 26.6126 513.917 26.6563C513.718 26.6722 513.484 26.6384 513.355 26.5833C513.162 26.5035 513.268 26.4707 513.63 26.4753C513.843 26.4785 514.07 26.4567 514.297 26.4446Z" fill="#FFE492"/>
<path d="M288.588 0.834243C289.049 0.811834 289.51 0.77798 289.971 0.774672C290.241 0.771944 290.377 0.834556 290.313 0.880591C290.278 0.909349 290.194 0.94972 290.109 0.953798C289.187 1.00244 288.264 1.04344 287.342 1.08826C287.072 1.06234 286.937 1.02264 287 0.976604C287.035 0.947846 287.12 0.909386 287.205 0.903397C287.666 0.875258 288.127 0.856652 288.588 0.834243Z" fill="#FFE492"/>
<path d="M505.396 20.2094C505.843 20.1889 506.296 20.1589 506.743 20.148C506.977 20.1434 507.163 20.1868 507.192 20.2364C507.206 20.2593 507.094 20.2998 507.001 20.3096C506.364 20.3765 505.675 20.3862 505.008 20.4207C504.796 20.4309 504.568 20.401 504.439 20.3479C504.247 20.2664 504.353 20.2355 504.715 20.2401C504.942 20.2413 505.169 20.2196 505.396 20.2094Z" fill="#FFE492"/>
<path d="M397.207 13.741C397.434 13.7308 397.667 13.7051 397.887 13.7121C398.122 13.721 398.271 13.7761 398.343 13.8314C398.422 13.8944 398.416 13.9538 398.346 14.0076C398.234 14.0999 398.12 14.0965 397.857 14.036C397.451 13.9414 397.423 13.953 396.621 13.9593C396.529 13.9596 396.415 13.9312 396.344 13.9065C396.237 13.8685 396.293 13.809 396.54 13.7737C396.724 13.7483 396.98 13.7513 397.207 13.741Z" fill="#FFE492"/>
<path d="M488.746 19.6199C489.08 19.6036 489.413 19.5777 489.746 19.5767C489.981 19.5741 490.166 19.6175 490.188 19.6652C490.195 19.6881 490.089 19.7267 490.004 19.7384C489.601 19.7913 489.147 19.7965 488.707 19.815C488.501 19.8233 488.273 19.7934 488.145 19.7403C487.952 19.6605 488.065 19.6238 488.413 19.6343C488.52 19.6378 488.633 19.626 488.746 19.6199Z" fill="#FFE492"/>
<path d="M436.189 17.3892C435.693 17.4136 435.224 17.3864 435.259 17.3366C435.307 17.2714 435.513 17.2287 435.725 17.2166C436.066 17.1964 436.406 17.1801 436.754 17.1676C436.973 17.1592 437.173 17.1873 437.351 17.2365C437.245 17.298 437.083 17.3425 436.87 17.3565C436.65 17.3705 436.416 17.3789 436.189 17.3892Z" fill="#FFE492"/>
<path d="M432.926 17.1521C433.26 17.1358 433.593 17.1099 433.926 17.1089C434.161 17.1063 434.346 17.1497 434.368 17.1974C434.375 17.2204 434.27 17.2589 434.185 17.2706C433.781 17.3235 433.327 17.3287 432.887 17.3473C432.681 17.3555 432.454 17.3256 432.325 17.2725C432.132 17.1928 432.245 17.1561 432.593 17.1665C432.7 17.17 432.813 17.1582 432.926 17.1521Z" fill="#FFE492"/>
<path d="M393.171 13.7356C393.504 13.7193 393.838 13.6934 394.171 13.6905C394.405 13.6878 394.59 13.7313 394.612 13.779C394.62 13.8019 394.514 13.8386 394.429 13.8522C394.025 13.9051 393.571 13.9103 393.131 13.9288C392.926 13.9371 392.698 13.9072 392.57 13.854C392.377 13.7743 392.49 13.7376 392.838 13.7481C392.944 13.7516 393.058 13.7397 393.171 13.7356Z" fill="#FFE492"/>
<path d="M391.303 13.6271C391.658 13.6107 391.771 13.6008 391.885 13.6005C392.098 13.5998 392.318 13.6221 392.447 13.6772C392.64 13.7569 392.526 13.7802 392.179 13.7851C391.731 13.7903 391.292 13.8318 390.845 13.8408C390.611 13.8453 390.426 13.8 390.411 13.7522C390.403 13.7293 390.509 13.6888 390.594 13.6809C390.892 13.6513 391.218 13.6331 391.303 13.6271Z" fill="#FFE492"/>
<path d="M429.914 2.22275C429.687 2.23301 429.446 2.26054 429.233 2.25162C428.949 2.23909 428.835 2.18779 428.905 2.13974C428.947 2.11282 429.025 2.07432 429.11 2.06832C429.564 2.04015 430.025 2.02151 430.479 2.00099C430.749 2.02887 430.87 2.06867 430.8 2.11672C430.757 2.14364 430.68 2.18023 430.595 2.18814C430.375 2.20794 430.141 2.21249 429.914 2.22275Z" fill="#FFE492"/>
<path d="M154.276 4.00786C154.496 4.00528 154.695 4.02955 154.866 4.07689C154.761 4.13847 154.605 4.17915 154.393 4.19702C154.286 4.20501 154.166 4.21111 154.052 4.21337C153.833 4.21787 153.633 4.19168 153.462 4.14435C153.568 4.08276 153.73 4.04207 153.936 4.02421C154.042 4.01623 154.163 4.01395 154.276 4.00786Z" fill="#FFE492"/>
<path d="M502.963 20.2071C502.955 20.1516 503.386 20.0872 503.777 20.0879C503.983 20.0892 504.196 20.1153 504.317 20.1666C504.503 20.2445 504.397 20.2755 504.049 20.2708C503.836 20.2676 503.61 20.3009 503.397 20.2958C503.155 20.2946 503.013 20.2529 502.963 20.2071Z" fill="#FFE492"/>
<path d="M399.262 13.9676C399.255 13.9466 399.219 13.9218 399.24 13.9026C399.373 13.7968 400.188 13.7617 400.402 13.853C400.438 13.8702 400.453 13.8988 400.425 13.9162C400.383 13.9431 400.305 13.9778 400.22 13.9858C400 14.0056 399.774 14.0159 399.547 14.0185C399.447 14.0188 399.354 13.9865 399.262 13.9676Z" fill="#FFE492"/>
<path d="M18.6153 14.4868C17.7787 14.5296 17.7645 14.5258 17.912 14.4296C18.0455 14.343 18.2931 14.2906 18.6549 14.2895C18.7613 14.2891 18.8747 14.285 18.9671 14.2923C19.0666 14.3016 19.2088 14.3203 19.2305 14.3432C19.2737 14.3871 19.1537 14.4354 18.9414 14.4686C18.8494 14.4842 18.7287 14.4807 18.6153 14.4868Z" fill="#FFE492"/>
<path d="M164.765 3.7107C164.517 3.74402 164.304 3.73319 164.147 3.67237C163.99 3.61154 164.238 3.53798 164.67 3.51941C164.784 3.51523 164.904 3.49955 165.01 3.50689C165.117 3.51231 165.224 3.53495 165.288 3.55774C165.402 3.59571 165.332 3.64766 165.106 3.69242C165.014 3.70994 164.879 3.70652 164.765 3.7107Z" fill="#FFE492"/>
<path d="M501.483 20.0673C501.546 20.0421 501.609 20.017 501.68 19.9937C501.942 20.0255 502.056 20.0636 501.985 20.1079C501.943 20.1349 501.859 20.1582 501.796 20.1833C501.534 20.1515 501.427 20.1116 501.483 20.0673Z" fill="#FFE492"/>
<path d="M30.0553 36.3422C30.0549 36.3192 30.1534 36.2825 30.2312 36.2746C30.3796 36.2607 30.5639 36.287 30.6921 36.3403C30.8701 36.4164 30.7647 36.457 30.4389 36.4369C30.2122 36.4223 30.0559 36.3844 30.0553 36.3422Z" fill="#FFE492"/>
<path d="M402.133 12.1722C402.225 12.1891 402.317 12.2061 402.402 12.225C402.283 12.2963 402.135 12.3274 401.979 12.3087C401.88 12.2975 401.794 12.2748 401.702 12.2578C401.821 12.1865 401.962 12.1593 402.133 12.1722Z" fill="#FFE492"/>
<path d="M399.678 12.0917C399.819 12.0625 399.989 12.0774 400.188 12.1323C400.125 12.1575 400.069 12.1864 399.991 12.2058C399.857 12.2368 399.68 12.222 399.488 12.1651C399.544 12.142 399.608 12.1169 399.678 12.0917Z" fill="#FFE492"/>
<path d="M397.795 12.1807C397.887 12.1976 397.98 12.2146 398.065 12.2335C397.946 12.3048 397.805 12.3359 397.641 12.3172C397.542 12.306 397.457 12.2833 397.365 12.2663C397.484 12.195 397.625 12.1659 397.795 12.1807Z" fill="#FFE492"/>
<path d="M396.405 12.0818C396.512 12.1198 396.456 12.1661 396.252 12.2185C396.159 12.2015 396.053 12.1884 395.982 12.1656C395.868 12.1295 395.924 12.0813 396.136 12.0289C396.221 12.0478 396.313 12.0648 396.405 12.0818Z" fill="#FFE492"/>
</svg>
